<svg width="670" height="668" viewBox="0 0 670 668" fill="none" xmlns="http://www.w3.org/2000/svg">
<path d="M467.261 637.177C454.488 637.177 442.114 632.377 432.374 623.296L119.054 331.12C105.444 318.428 99.8184 300.028 104.004 281.896C108.19 263.764 121.315 249.69 139.109 244.252L548.801 118.996C566.599 113.553 585.346 117.885 598.954 130.573C612.564 143.265 618.19 161.668 614.004 179.797L517.632 597.227C513.446 615.359 500.323 629.432 482.527 634.873C477.47 636.419 472.332 637.177 467.261 637.177ZM120.262 329.821L433.582 621.997C446.722 634.252 464.829 638.43 482.009 633.176C499.19 627.923 511.862 614.334 515.904 596.829L612.276 179.399C616.318 161.891 610.886 144.124 597.744 131.869C584.602 119.615 566.496 115.437 549.317 120.69L139.625 245.946C122.441 251.2 109.769 264.786 105.727 282.294C101.69 299.8 107.122 317.567 120.262 329.821Z" fill="url(#paint0_linear_62_72099)"/>
<path d="M378.796 666.638C378.174 666.638 377.55 666.628 376.924 666.606C358.326 665.956 342.006 655.761 333.268 639.328L132.143 261.064C123.405 244.634 124.077 225.402 133.938 209.622C143.8 193.842 160.756 184.816 179.387 185.457L607.538 200.409C626.135 201.059 642.453 211.254 651.191 227.685C659.927 244.115 659.255 263.346 649.394 279.126L422.37 642.438C412.842 657.69 396.657 666.638 378.796 666.638ZM177.515 187.197C160.271 187.197 144.642 195.837 135.441 210.561C125.92 225.798 125.272 244.367 133.708 260.231L334.833 638.495C343.269 654.359 359.027 664.206 376.984 664.833C394.938 665.464 411.342 656.738 420.868 641.5L647.891 278.188C657.412 262.95 658.06 244.382 649.627 228.518C641.191 212.654 625.435 202.806 607.475 202.18L179.325 187.228C178.722 187.206 178.118 187.197 177.515 187.197Z" fill="url(#paint1_linear_62_72099)"/>
<path d="M285.355 665.716C279.127 665.716 272.834 664.566 266.74 662.228C249.367 655.559 237.256 640.604 234.345 622.225L167.328 199.088C164.416 180.709 171.312 162.745 185.774 151.035C200.236 139.323 219.242 136.314 236.613 142.983L636.571 296.511C653.944 303.179 666.053 318.133 668.964 336.512C671.875 354.891 664.98 372.855 650.517 384.567L317.577 654.176C308.188 661.779 296.884 665.716 285.355 665.716ZM218.006 141.27C206.872 141.27 195.957 145.069 186.888 152.413C172.924 163.719 166.267 181.067 169.08 198.812L236.097 621.949C238.908 639.697 250.603 654.135 267.376 660.575C284.152 667.014 302.503 664.105 316.464 652.799L649.404 383.192C663.367 371.886 670.025 354.539 667.214 336.791C664.404 319.045 652.711 304.607 635.937 298.167L235.98 144.639C230.097 142.379 224.018 141.27 218.006 141.27Z" fill="url(#paint2_linear_62_72099)"/>
<path d="M196.888 634.324C185.052 634.324 173.479 630.181 163.987 622.216C149.731 610.254 143.15 592.172 146.383 573.846L220.776 151.943C224.006 133.616 236.373 118.878 253.86 112.513C271.346 106.148 290.299 109.489 304.552 121.451L632.736 396.827C646.991 408.788 653.572 426.87 650.34 445.196C647.107 463.523 634.74 478.264 617.253 484.628L214.675 631.153C208.833 633.282 202.828 634.324 196.888 634.324ZM271.641 111.119C265.905 111.119 260.107 112.127 254.464 114.179C237.583 120.323 225.638 134.557 222.52 152.252L148.128 574.156C145.01 591.851 151.363 609.308 165.127 620.86C178.888 632.408 197.184 635.634 214.072 629.49L616.646 482.965C633.53 476.819 645.475 462.587 648.595 444.892C651.715 427.196 645.36 409.736 631.596 398.187L303.41 122.809C294.247 115.119 283.07 111.119 271.641 111.119Z" fill="url(#paint3_linear_62_72099)"/>
<path d="M123.934 575.896C105.701 575.896 89.2779 566.615 79.8531 550.931C70.2699 534.981 69.934 515.742 78.9556 499.466L286.654 124.77C295.676 108.494 312.168 98.584 330.776 98.26C349.304 97.948 366.209 107.265 375.795 123.215L596.444 490.434C606.027 506.385 606.363 525.623 597.341 541.9C588.32 558.174 571.827 568.087 553.22 568.41L124.875 575.886C124.563 575.891 124.246 575.896 123.934 575.896ZM331.714 100.024C331.412 100.024 331.109 100.026 330.804 100.031C312.84 100.343 296.914 109.914 288.204 125.63L80.506 500.327C71.794 516.042 72.1179 534.618 81.3723 550.019C90.6267 565.42 106.93 574.442 124.841 574.115L553.186 566.639C571.152 566.325 587.079 556.756 595.791 541.041C604.5 525.326 604.176 506.75 594.922 491.349L374.276 124.127C365.177 108.986 349.318 100.024 331.714 100.024Z" fill="url(#paint4_linear_62_72099)"/>
<path d="M481.518 629.356C476.156 629.356 470.727 628.509 465.404 626.779L57.9609 494.392C40.2633 488.642 27.3873 474.343 23.5185 456.141C19.6497 437.939 25.5945 419.639 39.4233 407.188L357.795 120.525C371.624 108.074 390.447 104.073 408.143 109.823C425.84 115.574 438.716 129.873 442.587 148.075L531.658 567.124C535.527 585.326 529.58 603.626 515.751 616.079C506.084 624.782 493.974 629.356 481.518 629.356ZM392.036 109.019C380.007 109.019 368.317 113.435 358.981 121.843L40.6088 408.503C27.2552 420.525 21.5145 438.196 25.2513 455.771C28.9857 473.346 41.4201 487.154 58.5057 492.707L465.949 625.094C483.037 630.647 501.212 626.783 514.563 614.762C527.917 602.738 533.658 585.069 529.921 567.494L440.852 148.442C437.118 130.866 424.683 117.059 407.595 111.506C402.454 109.838 397.213 109.019 392.036 109.019Z" fill="url(#paint5_linear_62_72099)"/>
<path d="M394.207 663.815C383.284 663.815 372.523 660.277 363.367 653.378L21.223 395.553C6.36217 384.354 -1.15705 366.64 1.11095 348.172C3.37895 329.702 14.9589 314.334 32.0877 307.065L426.441 139.672C443.575 132.4 462.669 134.747 477.532 145.946C492.393 157.144 499.91 174.858 497.644 193.329L445.435 618.546C443.167 637.017 431.587 652.384 414.458 659.654C407.88 662.44 401.011 663.815 394.207 663.815ZM427.132 141.302L32.779 308.694C16.2406 315.714 5.05894 330.554 2.86774 348.388C0.678941 366.222 7.93889 383.325 22.2885 394.139L364.432 651.964C378.782 662.776 397.224 665.042 413.762 658.021C430.303 651.001 441.485 636.162 443.673 618.328L495.883 193.11C498.072 175.276 490.812 158.174 476.462 147.359C462.117 136.547 443.676 134.282 427.132 141.302Z" fill="url(#paint6_linear_62_72099)"/>
<path d="M300.762 668.001C283.63 668.001 267.934 659.695 258.229 645.307L18.6655 290.138C8.25913 274.711 6.9152 255.515 15.0752 238.79C23.2328 222.064 39.1831 211.305 57.7471 210.007L485.115 180.122C503.686 178.824 520.971 187.26 531.38 202.687C541.786 218.114 543.128 237.309 534.97 254.035L347.165 639.088C339.01 655.814 323.055 666.573 304.494 667.871C303.243 667.958 302 668.001 300.762 668.001ZM485.175 181.005L485.238 181.888L57.8696 211.773C39.944 213.026 24.5408 223.415 16.664 239.565C8.78957 255.715 10.0856 274.25 20.132 289.144L259.695 644.313C269.744 659.21 286.479 667.351 304.366 666.1C322.292 664.847 337.695 654.455 345.57 638.308L533.372 253.255C541.246 237.105 539.953 218.572 529.904 203.676C519.857 188.781 503.17 180.631 485.233 181.888L485.175 181.005Z" fill="url(#paint7_linear_62_72099)"/>
<path d="M211.4 641.644C206.904 641.644 202.354 641.051 197.842 639.844C179.866 635.027 166.26 621.421 161.444 603.448L50.5637 189.635C45.7493 171.661 50.7269 153.073 63.8861 139.914C77.0453 126.757 95.6309 121.775 113.607 126.592L527.42 237.474C545.393 242.291 558.999 255.897 563.816 273.873C568.63 291.846 563.652 310.434 550.493 323.591L247.563 626.519C237.708 636.376 224.808 641.641 211.4 641.644ZM100.059 126.563C87.1108 126.563 74.6572 131.649 65.1412 141.165C52.4356 153.87 47.6285 171.817 52.2797 189.172L163.16 602.985C167.808 620.341 180.948 633.479 198.303 638.128C215.657 642.779 233.607 637.969 246.31 625.264L549.243 322.331C561.948 309.625 566.758 291.681 562.107 274.324C557.456 256.969 544.318 243.829 526.961 239.181L113.149 128.3C108.793 127.134 104.398 126.563 100.059 126.563Z" fill="url(#paint8_linear_62_72099)"/>
<path d="M134.831 587.5C124.811 587.5 114.866 584.514 106.127 578.62C90.6999 568.213 82.264 550.919 83.5624 532.357L113.447 104.99C114.746 86.4255 125.507 70.4727 142.233 62.3151C158.958 54.1575 178.156 55.5015 193.578 65.9055L548.747 305.469C564.174 315.875 572.61 333.169 571.312 351.731C570.011 370.295 559.252 386.248 542.526 394.406L157.473 582.208C150.225 585.748 142.506 587.5 134.831 587.5ZM164.877 58.8015C157.466 58.8015 150.016 60.4911 143.01 63.9087C126.861 71.7855 116.471 87.1887 115.218 105.114L85.336 532.482C84.0808 550.405 92.2263 567.105 107.121 577.154C122.018 587.202 140.55 588.498 156.702 580.621L541.754 392.819C557.903 384.942 568.293 369.539 569.546 351.613C570.798 333.69 562.655 316.991 547.758 306.942L192.59 67.3767C184.156 61.6863 174.549 58.8015 164.877 58.8015Z" fill="url(#paint9_linear_62_72099)"/>
<path d="M80.2537 511.384C64.1833 511.384 49.2289 503.989 39.3481 490.873C28.1473 476.013 25.8025 456.913 33.0745 439.782L200.47 45.4286C207.742 28.2998 223.106 16.7199 241.579 14.4519C260.062 12.1815 277.762 19.7054 288.96 34.5638L546.785 376.708C557.983 391.569 560.328 410.668 553.058 427.797C545.786 444.925 530.419 456.508 511.949 458.776L86.7312 510.985C84.5568 511.254 82.3945 511.384 80.2537 511.384ZM248.045 15.8271C245.976 15.8271 243.888 15.9543 241.793 16.2111C223.958 18.3999 209.119 29.5814 202.099 46.1222L34.7041 440.476C27.6841 457.017 29.9497 475.458 40.7617 489.808C51.5761 504.157 68.676 511.415 86.5128 509.226L511.73 457.017C529.565 454.828 544.402 443.644 551.424 427.105C558.444 410.567 556.179 392.125 545.367 377.776L287.542 35.6318C277.999 22.9694 263.558 15.8271 248.045 15.8271Z" fill="url(#paint10_linear_62_72099)"/>
<path d="M473.012 510.839C469.39 510.839 465.728 510.457 462.07 509.68L43.0207 420.608C24.8191 416.74 10.5175 403.864 4.76714 386.166C-0.983258 368.469 3.0175 349.648 15.4687 335.817L302.132 17.4469C314.583 3.61811 332.89 -2.32907 351.087 1.53973C369.289 5.40853 383.588 18.2845 389.338 35.9821L521.725 443.425C527.475 461.123 523.472 479.946 511.023 493.775C501.075 504.822 487.393 510.839 473.012 510.839ZM340.15 2.15408C326.264 2.15408 313.054 7.96448 303.447 18.6325L16.7887 337.005C4.76467 350.358 0.903148 368.531 6.45435 385.619C12.0055 402.707 25.8151 415.139 43.3879 418.876L462.435 507.947C480.015 511.681 497.681 505.94 509.705 492.587C521.727 479.236 525.591 461.061 520.037 443.973L387.653 36.5293C382.1 19.4413 368.293 7.00929 350.717 3.27249C347.185 2.52369 343.647 2.15408 340.15 2.15408Z" fill="url(#paint11_linear_62_72099)"/>
<path d="M424.826 549.007C415.691 549.007 406.576 546.523 398.335 541.571L31.1153 320.923C15.1649 311.34 5.83619 294.508 6.16259 275.903C6.48659 257.299 16.3962 240.803 32.673 231.782L407.371 24.0835C423.645 15.0619 442.886 15.3979 458.836 24.9811C474.787 34.5643 484.115 51.3955 483.791 70.0003L476.315 498.345C475.989 516.952 466.079 533.445 449.803 542.467C441.933 546.832 433.375 549.007 424.826 549.007ZM432.343 19.3267C424.089 19.3267 415.826 21.4267 408.225 25.6363L33.5298 233.335C17.8146 242.047 8.24573 257.971 7.93373 275.937C7.61933 293.901 16.6266 310.154 32.0298 319.406L399.249 540.055C414.65 549.309 433.226 549.631 448.943 540.924C464.659 532.212 474.227 516.287 474.542 498.321L482.018 69.9763C482.33 52.0123 473.325 35.7619 457.924 26.5075C449.966 21.7243 441.16 19.3267 432.343 19.3267Z" fill="url(#paint12_linear_62_72099)"/>
<path d="M366.889 569.392C351.841 569.392 337.648 562.845 327.692 550.979L52.3164 222.798C40.3548 208.545 37.014 189.594 43.3788 172.108C49.7436 154.622 64.4844 142.252 82.8108 139.022L504.714 64.6288C523.04 61.3984 541.122 67.9792 553.081 82.2328C565.043 96.4888 568.384 115.437 562.019 132.923L415.496 535.499C409.132 552.986 394.391 565.353 376.064 568.586C372.99 569.126 369.92 569.392 366.889 569.392ZM513.875 65.5912C510.949 65.5912 507.988 65.8481 505.019 66.3713L83.1156 140.764C65.418 143.884 51.186 155.829 45.042 172.713C38.898 189.597 42.1236 207.894 53.6724 221.658L329.048 549.842C340.6 563.606 358.069 569.958 375.752 566.838C393.448 563.718 407.68 551.776 413.826 534.892L560.351 132.318C566.495 115.434 563.269 97.1368 551.72 83.3728C542.108 71.9152 528.402 65.5912 513.875 65.5912Z" fill="url(#paint13_linear_62_72099)"/>
<path d="M306.117 569.922C303.381 569.922 300.616 569.706 297.839 569.267C279.46 566.356 264.503 554.248 257.836 536.874L104.308 136.919C97.6386 119.548 100.648 100.542 112.36 86.0798C124.072 71.6174 142.043 64.7246 160.415 67.6334L583.552 134.651C601.931 137.562 616.886 149.673 623.555 167.044C630.225 184.415 627.215 203.423 615.503 217.883L345.892 550.821C335.954 563.097 321.501 569.922 306.117 569.922ZM152.145 68.7494C137.289 68.7494 123.338 75.3398 113.738 87.1934C102.429 101.157 99.525 119.509 105.962 136.283L259.49 536.238C265.929 553.014 280.37 564.707 298.115 567.515C315.849 570.325 333.206 563.668 344.512 549.702L614.121 216.765C625.43 202.801 628.336 184.451 621.897 167.675C615.458 150.899 601.019 139.209 583.271 136.396L160.135 69.3782C157.459 68.9558 154.785 68.7494 152.145 68.7494Z" fill="url(#paint14_linear_62_72099)"/>
<path d="M247.862 550.551C239.606 550.551 231.326 548.523 223.655 544.446C207.225 535.71 197.028 519.392 196.38 500.794L181.427 72.6441C180.777 54.0465 189.811 37.0569 205.593 27.1953C221.371 17.3361 240.604 16.6617 257.032 25.3977L635.299 226.525C651.729 235.261 661.927 251.581 662.574 270.176C663.225 288.774 654.191 305.763 638.409 315.625L275.097 542.648C266.683 547.904 257.289 550.551 247.862 550.551ZM232.831 21.0657C223.725 21.0657 214.655 23.6193 206.531 28.6953C191.294 38.2161 182.57 54.6225 183.199 72.5793L198.151 500.73C198.777 518.687 208.622 534.443 224.488 542.879C240.352 551.315 258.921 550.667 274.159 541.143L637.471 314.12C652.708 304.599 661.43 288.193 660.803 270.236C660.177 252.279 650.332 236.523 634.468 228.087L256.202 26.9601C248.795 23.0241 240.799 21.0657 232.831 21.0657Z" fill="url(#paint15_linear_62_72099)"/>
<path d="M198.999 513.231C184.944 513.231 171.523 507.471 161.595 496.825C148.903 483.214 144.574 464.465 150.015 446.669L275.268 36.9774C280.712 19.1814 294.783 6.05825 312.915 1.87265C331.047 -2.31535 349.45 3.31263 362.139 16.9206L654.315 330.241C667.008 343.851 671.335 362.6 665.895 380.396C660.454 398.192 646.383 411.315 628.251 415.501L210.819 511.873C206.871 512.785 202.911 513.231 198.999 513.231ZM324.73 2.28779C320.952 2.28779 317.129 2.71984 313.315 3.59824C295.807 7.63984 282.221 20.3118 276.968 37.4934L151.714 447.185C146.46 464.367 150.639 482.473 162.893 495.613C175.15 508.755 192.919 514.186 210.42 510.145L627.852 413.773C645.358 409.731 658.947 397.059 664.2 379.878C669.454 362.696 665.273 344.59 653.021 331.45L360.845 18.1302C351.259 7.85102 338.297 2.28779 324.73 2.28779Z" fill="url(#paint16_linear_62_72099)"/>
<path d="M591.692 506.922C589.848 506.922 587.993 506.824 586.126 506.629L160.061 461.848C141.557 459.904 125.988 448.592 118.421 431.593C110.851 414.594 112.863 395.456 123.802 380.401L375.615 33.8099C386.551 18.7571 404.124 10.9307 422.638 12.8747C441.144 14.8211 456.713 26.1299 464.28 43.1291L638.53 434.502C646.099 451.501 644.088 470.639 633.149 485.694C623.316 499.227 608.11 506.92 591.692 506.922ZM417.077 14.3531C401.225 14.3531 386.542 21.7811 377.047 34.8515L125.232 381.443C114.67 395.979 112.728 414.457 120.039 430.873C127.347 447.287 142.378 458.207 160.246 460.086L586.311 504.868C604.167 506.749 621.154 499.189 631.714 484.652C642.276 470.115 644.218 451.638 636.907 435.224L462.658 43.8491C455.35 27.4355 440.319 16.5131 422.451 14.6363C420.648 14.4467 418.855 14.3531 417.077 14.3531Z" fill="url(#paint17_linear_62_72099)"/>
<path d="M538.48 583.976C531.095 583.976 523.662 582.356 516.628 579.075L128.356 398.021C111.491 390.157 100.453 374.396 98.8309 355.858C97.2085 337.321 105.34 319.88 120.585 309.207L471.517 63.4806C486.765 52.8054 505.933 51.1326 522.796 58.995C539.66 66.8598 550.698 82.6206 552.318 101.158L589.657 527.938C591.28 546.476 583.149 563.917 567.904 574.589C559.021 580.81 548.8 583.976 538.48 583.976ZM500.946 55.8678C490.981 55.8678 481.115 58.923 472.535 64.9302L121.602 310.657C106.883 320.962 99.0301 337.803 100.595 355.702C102.162 373.601 112.818 388.822 129.102 396.413L517.374 577.467C533.661 585.061 552.169 583.441 566.888 573.135C581.605 562.829 589.458 545.991 587.893 528.089L550.554 101.309C548.987 83.4102 538.331 68.1894 522.047 60.5958C515.255 57.4326 508.076 55.8678 500.946 55.8678Z" fill="url(#paint18_linear_62_72099)"/>
<path d="M462.858 639.449C449.769 639.449 437.133 634.418 427.329 624.95L119.157 327.35C105.772 314.424 100.466 295.927 104.968 277.869C109.47 259.814 122.838 245.973 140.723 240.844L552.539 122.757C570.431 117.628 589.098 122.284 602.483 135.211C615.868 148.137 621.172 166.634 616.672 184.689L513.03 600.374C508.528 618.429 495.16 632.272 477.273 637.401C472.487 638.776 467.644 639.449 462.858 639.449ZM566.949 122.488C562.329 122.488 557.654 123.136 553.029 124.464L141.213 242.549C123.942 247.5 111.035 260.865 106.689 278.299C102.34 295.732 107.462 313.593 120.388 326.076L428.56 623.676C441.484 636.158 459.515 640.653 476.783 635.7C494.056 630.749 506.963 617.383 511.31 599.949L614.951 184.264C619.3 166.831 614.179 148.97 601.252 136.49C591.789 127.348 579.585 122.488 566.949 122.488Z" fill="url(#paint19_linear_62_72099)"/>
<path d="M373.938 667.362C373.007 667.362 372.073 667.338 371.135 667.288C352.549 666.313 336.414 655.835 327.966 639.253L133.47 257.536C125.022 240.954 126.03 221.74 136.163 206.133C146.298 190.525 163.439 181.785 182.027 182.764L609.85 205.185C628.434 206.159 644.569 216.64 653.019 233.219C661.467 249.801 660.459 269.015 650.324 284.622L416.996 643.919C407.375 658.737 391.431 667.362 373.938 667.362ZM135.049 256.732L329.545 638.449C337.703 654.46 353.286 664.578 371.228 665.519C389.192 666.462 405.723 658.024 415.513 642.957L648.843 283.66C658.628 268.59 659.6 250.036 651.445 234.028C643.287 218.017 627.706 207.899 609.762 206.958L181.938 184.537C164.01 183.606 147.44 192.03 137.653 207.102C127.863 222.169 126.891 240.724 135.049 256.732Z" fill="url(#paint20_linear_62_72099)"/>
<path d="M280.476 664.806C273.96 664.806 267.379 663.548 261.041 660.987C243.785 654.015 231.938 638.852 229.351 620.425L169.728 196.182C167.138 177.755 174.345 159.913 189.009 148.458C203.673 137 222.727 134.324 239.983 141.294L637.197 301.779C654.451 308.749 666.297 323.912 668.887 342.339C671.479 360.767 664.27 378.608 649.606 390.066L312.014 653.823C302.738 661.071 291.701 664.806 280.476 664.806ZM171.485 195.937L231.108 620.18C233.609 637.974 245.047 652.614 261.706 659.346C278.371 666.078 296.765 663.491 310.925 652.429L648.516 388.674C662.674 377.612 669.634 360.385 667.133 342.591C664.634 324.798 653.193 310.158 636.535 303.428L239.321 142.943C222.662 136.213 204.264 138.798 190.104 149.859C175.942 160.919 168.981 178.146 171.485 195.937Z" fill="url(#paint21_linear_62_72099)"/>
<path d="M192.576 631.878C180.429 631.878 168.588 627.522 159.002 619.192C144.957 606.983 138.693 588.789 142.243 570.522L223.989 149.982C227.541 131.716 240.165 117.193 257.76 111.136C275.357 105.078 294.242 108.748 308.284 120.957L631.61 402.021C645.655 414.229 651.919 432.424 648.369 450.69C644.82 468.957 632.193 483.479 614.599 489.537L209.529 629.013C203.942 630.935 198.225 631.878 192.576 631.878ZM225.729 150.318L143.983 570.858C140.553 588.496 146.604 606.064 160.164 617.853C173.721 629.639 191.959 633.184 208.951 627.335L614.02 487.859C631.01 482.008 643.2 467.987 646.629 450.349C650.059 432.712 644.008 415.144 630.446 403.357L307.123 122.293C293.563 110.505 275.328 106.96 258.336 112.809C241.346 118.657 229.157 132.681 225.729 150.318Z" fill="url(#paint22_linear_62_72099)"/>
<path d="M549.119 572.182H120.707C102.097 572.182 85.4338 562.561 76.129 546.445C66.8242 530.329 66.8242 511.088 76.129 494.972L290.334 123.956C299.636 107.84 316.304 98.2183 334.911 98.2183C334.909 98.2183 334.914 98.2183 334.911 98.2183C353.521 98.2183 370.187 107.84 379.489 123.956L593.694 494.972C602.999 511.088 602.999 530.329 593.696 546.445C584.391 562.561 567.728 572.182 549.119 572.182ZM291.87 124.844L77.665 495.86C68.6818 511.421 68.6819 530 77.6675 545.561C86.6507 561.123 102.74 570.411 120.709 570.411H549.121C567.09 570.411 583.179 561.121 592.162 545.559C601.146 530 601.146 511.419 592.162 495.86L377.958 124.844C368.972 109.285 352.883 99.9942 334.916 99.9942C316.945 99.9942 300.853 109.282 291.87 124.844Z" fill="url(#paint23_linear_62_72099)"/>
<defs>
<linearGradient id="paint0_linear_62_72099" x1="359.004" y1="116.691" x2="359.004" y2="637.177" gradientUnits="userSpaceOnUse">
<stop stop-color="#1AD5E2"/>
<stop offset="1" stop-color="#647DFE"/>
</linearGradient>
<linearGradient id="paint1_linear_62_72099" x1="391.666" y1="185.425" x2="391.666" y2="666.638" gradientUnits="userSpaceOnUse">
<stop stop-color="#1AD5E2"/>
<stop offset="1" stop-color="#647DFE"/>
</linearGradient>
<linearGradient id="paint2_linear_62_72099" x1="418.146" y1="139.496" x2="418.146" y2="665.716" gradientUnits="userSpaceOnUse">
<stop stop-color="#1AD5E2"/>
<stop offset="1" stop-color="#647DFE"/>
</linearGradient>
<linearGradient id="paint3_linear_62_72099" x1="398.361" y1="109.343" x2="398.361" y2="634.324" gradientUnits="userSpaceOnUse">
<stop stop-color="#1AD5E2"/>
<stop offset="1" stop-color="#647DFE"/>
</linearGradient>
<linearGradient id="paint4_linear_62_72099" x1="338.148" y1="98.2524" x2="338.148" y2="575.896" gradientUnits="userSpaceOnUse">
<stop stop-color="#1AD5E2"/>
<stop offset="1" stop-color="#647DFE"/>
</linearGradient>
<linearGradient id="paint5_linear_62_72099" x1="277.588" y1="107.246" x2="277.588" y2="629.356" gradientUnits="userSpaceOnUse">
<stop stop-color="#1AD5E2"/>
<stop offset="1" stop-color="#647DFE"/>
</linearGradient>
<linearGradient id="paint6_linear_62_72099" x1="249.377" y1="135.506" x2="249.377" y2="663.815" gradientUnits="userSpaceOnUse">
<stop stop-color="#1AD5E2"/>
<stop offset="1" stop-color="#647DFE"/>
</linearGradient>
<linearGradient id="paint7_linear_62_72099" x1="275.022" y1="179.991" x2="275.022" y2="668.001" gradientUnits="userSpaceOnUse">
<stop stop-color="#1AD5E2"/>
<stop offset="1" stop-color="#647DFE"/>
</linearGradient>
<linearGradient id="paint8_linear_62_72099" x1="307.19" y1="124.791" x2="307.19" y2="641.644" gradientUnits="userSpaceOnUse">
<stop stop-color="#1AD5E2"/>
<stop offset="1" stop-color="#647DFE"/>
</linearGradient>
<linearGradient id="paint9_linear_62_72099" x1="327.437" y1="57.0269" x2="327.437" y2="587.5" gradientUnits="userSpaceOnUse">
<stop stop-color="#1AD5E2"/>
<stop offset="1" stop-color="#647DFE"/>
</linearGradient>
<linearGradient id="paint10_linear_62_72099" x1="293.066" y1="14.0532" x2="293.066" y2="511.384" gradientUnits="userSpaceOnUse">
<stop stop-color="#1AD5E2"/>
<stop offset="1" stop-color="#647DFE"/>
</linearGradient>
<linearGradient id="paint11_linear_62_72099" x1="263.246" y1="0.380859" x2="263.246" y2="510.839" gradientUnits="userSpaceOnUse">
<stop stop-color="#1AD5E2"/>
<stop offset="1" stop-color="#647DFE"/>
</linearGradient>
<linearGradient id="paint12_linear_62_72099" x1="244.977" y1="17.5479" x2="244.977" y2="549.007" gradientUnits="userSpaceOnUse">
<stop stop-color="#1AD5E2"/>
<stop offset="1" stop-color="#647DFE"/>
</linearGradient>
<linearGradient id="paint13_linear_62_72099" x1="302.699" y1="63.8213" x2="302.699" y2="569.392" gradientUnits="userSpaceOnUse">
<stop stop-color="#1AD5E2"/>
<stop offset="1" stop-color="#647DFE"/>
</linearGradient>
<linearGradient id="paint14_linear_62_72099" x1="363.932" y1="66.9785" x2="363.932" y2="569.922" gradientUnits="userSpaceOnUse">
<stop stop-color="#1AD5E2"/>
<stop offset="1" stop-color="#647DFE"/>
</linearGradient>
<linearGradient id="paint15_linear_62_72099" x1="422.001" y1="19.2925" x2="422.001" y2="550.551" gradientUnits="userSpaceOnUse">
<stop stop-color="#1AD5E2"/>
<stop offset="1" stop-color="#647DFE"/>
</linearGradient>
<linearGradient id="paint16_linear_62_72099" x1="407.955" y1="0.51416" x2="407.955" y2="513.231" gradientUnits="userSpaceOnUse">
<stop stop-color="#1AD5E2"/>
<stop offset="1" stop-color="#647DFE"/>
</linearGradient>
<linearGradient id="paint17_linear_62_72099" x1="378.475" y1="12.582" x2="378.475" y2="506.922" gradientUnits="userSpaceOnUse">
<stop stop-color="#1AD5E2"/>
<stop offset="1" stop-color="#647DFE"/>
</linearGradient>
<linearGradient id="paint18_linear_62_72099" x1="344.244" y1="54.0947" x2="344.244" y2="583.976" gradientUnits="userSpaceOnUse">
<stop stop-color="#1AD5E2"/>
<stop offset="1" stop-color="#647DFE"/>
</linearGradient>
<linearGradient id="paint19_linear_62_72099" x1="360.82" y1="120.713" x2="360.82" y2="639.449" gradientUnits="userSpaceOnUse">
<stop stop-color="#1AD5E2"/>
<stop offset="1" stop-color="#647DFE"/>
</linearGradient>
<linearGradient id="paint20_linear_62_72099" x1="393.244" y1="182.689" x2="393.244" y2="667.362" gradientUnits="userSpaceOnUse">
<stop stop-color="#1AD5E2"/>
<stop offset="1" stop-color="#647DFE"/>
</linearGradient>
<linearGradient id="paint21_linear_62_72099" x1="419.308" y1="137.475" x2="419.308" y2="664.806" gradientUnits="userSpaceOnUse">
<stop stop-color="#1AD5E2"/>
<stop offset="1" stop-color="#647DFE"/>
</linearGradient>
<linearGradient id="paint22_linear_62_72099" x1="395.306" y1="108.27" x2="395.306" y2="631.878" gradientUnits="userSpaceOnUse">
<stop stop-color="#1AD5E2"/>
<stop offset="1" stop-color="#647DFE"/>
</linearGradient>
<linearGradient id="paint23_linear_62_72099" x1="334.912" y1="98.2183" x2="334.912" y2="572.182" gradientUnits="userSpaceOnUse">
<stop stop-color="#1AD5E2"/>
<stop offset="1" stop-color="#647DFE"/>
</linearGradient>
</defs>
</svg>
