<svg width="90" height="90" viewBox="0 0 90 90" fill="none" xmlns="http://www.w3.org/2000/svg">
<rect x="1.21289" y="0.94043" width="88" height="88" rx="19.5" stroke="#EAEAEA"/>
<g clip-path="url(#clip0_62_72034)">
<path d="M47.9623 67.4434H71.9071" stroke="#618DF2" stroke-width="1.61133" stroke-miterlimit="10" stroke-linecap="round" stroke-linejoin="round"/>
<path d="M30.1897 67.4434H40.7582" stroke="#618DF2" stroke-width="1.61133" stroke-miterlimit="10" stroke-linecap="round" stroke-linejoin="round"/>
<path d="M18.5184 67.4434H25.5271" stroke="#618DF2" stroke-width="1.61133" stroke-miterlimit="10" stroke-linecap="round" stroke-linejoin="round"/>
<path d="M39.8517 38.4619C40.0812 38.5202 40.3093 38.5841 40.5355 38.6533L42.2361 39.1738" stroke="#618DF2" stroke-width="1.61133" stroke-miterlimit="10" stroke-linecap="round" stroke-linejoin="round"/>
<path d="M33.9374 41.7236C31.9264 41.9391 29.8604 41.7439 27.9283 41.1525L25.6387 40.4517L27.9748 39.316L26.6746 37.0674L28.9642 37.7682C30.5759 38.2615 32.3095 38.3943 33.9775 38.1519C34.5515 38.0686 35.1315 38.019 35.7131 38.0032" stroke="#618DF2" stroke-width="1.61133" stroke-miterlimit="10" stroke-linecap="round" stroke-linejoin="round"/>
<path d="M40.8537 42.4524L39.4996 42.038C38.98 41.879 38.4477 41.7574 37.9091 41.6738" stroke="#618DF2" stroke-width="1.61133" stroke-miterlimit="10" stroke-linecap="round" stroke-linejoin="round"/>
<path d="M39.382 49.1631C39.4102 49.2898 39.4422 49.4161 39.4781 49.5416C40.0765 51.636 41.6671 53.3018 43.7317 53.9963L49.9282 56.0806" stroke="#618DF2" stroke-width="1.61133" stroke-miterlimit="10" stroke-linecap="round" stroke-linejoin="round"/>
<path d="M43.8171 35.4219L40.8767 42.7744L40.1092 44.4163C40.0161 44.5777 39.9302 44.7422 39.8517 44.9095" stroke="#618DF2" stroke-width="1.61133" stroke-miterlimit="10" stroke-linecap="round" stroke-linejoin="round"/>
<path d="M54.6022 58.0715L55.5916 57.1145C56.2749 56.4537 56.6606 55.5438 56.6606 54.5932C56.6606 53.326 55.9771 52.1572 54.8726 51.536L50.4596 49.0537" stroke="#618DF2" stroke-width="1.61133" stroke-miterlimit="10" stroke-linecap="round" stroke-linejoin="round"/>
<path d="M46.3337 66.0687L51.8993 60.6855" stroke="#618DF2" stroke-width="1.61133" stroke-miterlimit="10" stroke-linecap="round" stroke-linejoin="round"/>
<path d="M43.1001 64.0693L47.0617 66.8504C48.4727 67.7706 48.8932 69.6254 48.0011 70.9936L47.9769 71.0306C47.5691 71.656 46.7156 71.822 46.0706 71.4013L41.5203 68.3984C40.8754 67.9777 40.6831 67.1297 41.0909 66.5044L42.8924 63.6541L45.0489 59.6976C45.9116 58.1378 47.1646 56.8287 48.6851 55.8984" stroke="#618DF2" stroke-width="1.61133" stroke-miterlimit="10" stroke-linecap="round" stroke-linejoin="round"/>
<path d="M28.6382 63.7116L38.2217 60.1407C38.9149 59.8759 39.5125 59.4088 39.9371 58.8003L43.2814 53.9834" stroke="#618DF2" stroke-width="1.61133" stroke-miterlimit="10" stroke-linecap="round" stroke-linejoin="round"/>
<path d="M35.2267 54.9358C35.5102 54.8615 35.7966 54.7967 36.0854 54.7418C36.6467 54.6352 37.1199 54.2599 37.3517 53.7378L39.3825 49.1631" stroke="#618DF2" stroke-width="1.61133" stroke-miterlimit="10" stroke-linecap="round" stroke-linejoin="round"/>
<path d="M26.1767 61.1135L29.2669 64.9298C30.3286 66.2376 30.1613 68.1323 28.8932 69.1616L28.8588 69.1895C28.2792 69.66 27.4158 69.5569 26.9305 68.959L23.4902 64.7114C23.0049 64.1136 23.0814 63.2475 23.661 62.7769L25.9913 60.8852L30.4999 57.3013C30.9058 56.9788 31.3297 56.682 31.7691 56.4121" stroke="#618DF2" stroke-width="1.61133" stroke-miterlimit="10" stroke-linecap="round" stroke-linejoin="round"/>
<path d="M51.9611 25.8262C51.9453 26.2095 51.8752 26.5898 51.752 26.9559L51.4616 27.7987C51.0893 28.8791 50.3151 29.7746 49.2999 30.2991" stroke="#618DF2" stroke-width="1.61133" stroke-miterlimit="10" stroke-linecap="round" stroke-linejoin="round"/>
<path d="M60.7831 24.4482C60.7592 24.636 60.7208 24.8244 60.6669 25.012L60.4009 25.9378C60.3429 26.1397 60.3514 26.355 60.4253 26.5517L60.8335 27.6391C61.0761 28.2854 60.481 28.9321 59.8179 28.7459C59.6641 28.7027 59.5037 28.7864 59.4596 28.9399L59.1034 30.1796C58.8314 31.1264 57.7499 31.5748 56.8877 31.0983L55.6857 30.524C55.4221 30.3981 55.1061 30.4994 54.9649 30.7551L54.6485 31.328C54.4365 31.7119 54.4255 32.1751 54.6192 32.5686C55.0114 33.3658 55.1938 34.2498 55.1489 35.1371" stroke="#618DF2" stroke-width="1.61133" stroke-miterlimit="10" stroke-linecap="round" stroke-linejoin="round"/>
<path d="M51.9654 21.2563L51.7309 22.0725C51.3856 23.2742 51.4617 24.5578 51.9466 25.7103L52.1738 25.7756C52.866 25.9746 53.5885 25.5745 53.7874 24.8823C54.0205 24.0711 54.8671 23.6024 55.6783 23.8355C56.3509 24.0287 57.0732 23.9387 57.6777 23.5863L58.6709 23.0073L60.4852 24.1679C61.0042 24.5 61.6965 24.2386 61.8666 23.6465C62.4341 21.6711 61.2929 19.6097 59.3176 19.0422L57.1104 18.408C54.9032 17.7735 52.5996 19.0489 51.9654 21.2563Z" stroke="#618DF2" stroke-width="1.61133" stroke-miterlimit="10" stroke-linecap="round" stroke-linejoin="round"/>
<path d="M58.671 23.0075L58.5374 22.922C58.0247 22.594 57.6783 22.0608 57.587 21.459" stroke="#618DF2" stroke-width="1.61133" stroke-miterlimit="10" stroke-linecap="round" stroke-linejoin="round"/>
<path d="M28.6532 59.3545L30.8868 62.4154" stroke="#618DF2" stroke-width="1.61133" stroke-miterlimit="10" stroke-linecap="round" stroke-linejoin="round"/>
<path d="M44.3174 61.5303L48.0075 64.0948" stroke="#618DF2" stroke-width="1.61133" stroke-miterlimit="10" stroke-linecap="round" stroke-linejoin="round"/>
<path d="M62.418 43.8266L64.1038 43.5896C64.2422 43.5725 64.3825 43.5809 64.5177 43.6147L65.4772 43.8542C66.5245 44.1157 67.6337 43.9039 68.5109 43.275L68.5709 43.232C69.2666 42.7332 69.5626 41.8632 69.3199 41.0583C69.3117 41.0312 69.3036 41.0041 69.2954 40.9771C69.0741 40.2429 68.4439 39.7062 67.6839 39.6047C67.6696 39.6028 67.6552 39.6009 67.6409 39.599C66.6007 39.46 65.5425 39.6251 64.5941 40.0743L64.0363 40.3384C63.8882 40.4085 63.7268 40.4456 63.5631 40.4473L56.72 40.5171C56.4786 40.5195 56.2653 40.3607 56.1984 40.1287L55.0413 36.1152" stroke="#618DF2" stroke-width="1.61133" stroke-miterlimit="10" stroke-linecap="round" stroke-linejoin="round"/>
<path d="M52.2304 42.4521L54.2757 44.3988C54.6062 44.7135 55.0623 44.8598 55.5143 44.7963L58.6948 44.3493" stroke="#618DF2" stroke-width="1.61133" stroke-miterlimit="10" stroke-linecap="round" stroke-linejoin="round"/>
<path d="M42.901 49.0144H40.2428C38.3664 49.0144 36.4777 49.438 34.7811 50.2394C32.5617 51.2879 30.0911 51.8419 27.6364 51.8419H24.9708L27.0876 49.8718L24.9708 47.9017H27.6364C29.2508 47.9017 30.8741 47.5881 32.3765 46.9902" stroke="#618DF2" stroke-width="1.61133" stroke-miterlimit="10" stroke-linecap="round" stroke-linejoin="round"/>
<path d="M36.4116 45.5205C37.6675 45.2251 38.9574 45.0732 40.2429 45.0732H50.5357C51.1487 45.0732 51.6457 45.5702 51.6457 46.1832V47.9035C51.6457 48.5165 51.1487 49.0135 50.5357 49.0135H46.661" stroke="#618DF2" stroke-width="1.61133" stroke-miterlimit="10" stroke-linecap="round" stroke-linejoin="round"/>
<path d="M50.6606 44.9397L54.1199 38.7999C54.7323 37.6712 55.0839 36.4195 55.1487 35.1371C54.1998 35.5214 53.1128 35.2942 52.3973 34.562L52.3118 34.4746C51.7167 33.8656 51.26 33.1352 50.9733 32.3334C50.3808 30.6763 48.6253 29.7417 46.9196 30.175L39.773 31.8549C39.1246 32.0197 38.583 32.4644 38.2955 33.0684L34.0076 41.8716C33.9498 41.9929 33.8702 42.1025 33.7727 42.1949L33.1181 42.8148C32.3393 43.5524 31.9243 44.5953 31.9837 45.6663C32.0297 46.4965 32.5979 47.2057 33.3981 47.4317C34.1329 47.6392 34.921 47.3981 35.4138 46.8149C36.067 46.042 36.4822 45.0962 36.6091 44.0923L36.6836 43.5022C36.7034 43.3457 36.7569 43.1953 36.8405 43.0613L41.0009 36.2733C41.2319 35.9168 41.6083 35.6803 42.0297 35.6266L46.365 35.1301" stroke="#618DF2" stroke-width="1.61133" stroke-miterlimit="10" stroke-linecap="round" stroke-linejoin="round"/>
<path d="M42.0106 31.6396L42.8334 35.4704" stroke="#618DF2" stroke-width="1.61133" stroke-miterlimit="10" stroke-linecap="round" stroke-linejoin="round"/>
<path d="M53.514 39.2267L51.0919 38.2731C49.9648 37.8294 48.6861 38.327 48.1554 39.4158L45.5787 44.7023" stroke="#618DF2" stroke-width="1.61133" stroke-miterlimit="10" stroke-linecap="round" stroke-linejoin="round"/>
</g>
<defs>
<clipPath id="clip0_62_72034">
<rect width="55" height="55" fill="white" transform="translate(17.7129 17.4404)"/>
</clipPath>
</defs>
</svg>
