<svg width="90" height="90" viewBox="0 0 90 90" fill="none" xmlns="http://www.w3.org/2000/svg">
<rect x="1.21289" y="0.94043" width="88" height="88" rx="19.5" stroke="#EAEAEA"/>
<path d="M66.3667 49.1707H53.6744V45.9976C53.6744 45.4136 53.2008 44.9399 52.6167 44.9399H37.809C37.2249 44.9399 36.7513 45.4136 36.7513 45.9976V52.3438H24.059C23.4749 52.3438 23.0013 52.8174 23.0013 53.4015V67.1515C23.0013 67.7355 23.4749 68.2092 24.059 68.2092H66.3667C66.9508 68.2092 67.4244 67.7355 67.4244 67.1515V50.2284C67.4244 49.6443 66.9508 49.1707 66.3667 49.1707ZM65.309 51.2861V54.4592H53.6744V51.2861H65.309ZM51.559 47.0553V50.2284H38.8667V47.0553H51.559ZM36.7513 54.4592V57.6322H25.1167V54.4592H36.7513ZM25.1167 59.7476H36.7513V66.0938H29.3475V63.9784C29.3475 63.3943 28.874 62.9207 28.2898 62.9207C27.7056 62.9207 27.2321 63.3943 27.2321 63.9784V66.0938H25.1167V59.7476ZM38.8667 52.3438H51.559V66.0938H38.8667C38.8667 65.6144 38.8667 52.8229 38.8667 52.3438ZM57.9052 66.0938V63.9784C57.9052 63.3943 57.4316 62.9207 56.8475 62.9207C56.2634 62.9207 55.7898 63.3943 55.7898 63.9784V66.0938H53.6744V56.5746H65.309V66.0938H57.9052Z" fill="#618DF2"/>
<path d="M27.2321 47.0553C27.8163 47.0553 28.2898 46.5818 28.2898 45.9976C28.2898 45.4135 27.8163 44.9399 27.2321 44.9399C26.648 44.9399 26.1744 45.4135 26.1744 45.9976C26.1744 46.5818 26.648 47.0553 27.2321 47.0553Z" fill="#618DF2"/>
<path d="M56.8474 38.5939C57.4315 38.5939 57.9051 38.1204 57.9051 37.5362C57.9051 36.9521 57.4315 36.4785 56.8474 36.4785C56.2632 36.4785 55.7897 36.9521 55.7897 37.5362C55.7897 38.1204 56.2632 38.5939 56.8474 38.5939Z" fill="#618DF2"/>
<path d="M62.1358 23.7868C62.72 23.7868 63.1935 23.3132 63.1935 22.7291C63.1935 22.1449 62.72 21.6714 62.1358 21.6714C61.5517 21.6714 61.0781 22.1449 61.0781 22.7291C61.0781 23.3132 61.5517 23.7868 62.1358 23.7868Z" fill="#618DF2"/>
<path d="M32.5206 23.7868C33.1048 23.7868 33.5783 23.3132 33.5783 22.7291C33.5783 22.1449 33.1048 21.6714 32.5206 21.6714C31.9365 21.6714 31.4629 22.1449 31.4629 22.7291C31.4629 23.3132 31.9365 23.7868 32.5206 23.7868Z" fill="#618DF2"/>
<path d="M34.636 38.5939C35.2201 38.5939 35.6937 38.1204 35.6937 37.5362C35.6937 36.9521 35.2201 36.4785 34.636 36.4785C34.0519 36.4785 33.5783 36.9521 33.5783 37.5362C33.5783 38.1204 34.0519 38.5939 34.636 38.5939Z" fill="#618DF2"/>
<path d="M56.8474 61.8634C57.4315 61.8634 57.9051 61.3899 57.9051 60.8057C57.9051 60.2216 57.4315 59.748 56.8474 59.748C56.2632 59.748 55.7897 60.2216 55.7897 60.8057C55.7897 61.3899 56.2632 61.8634 56.8474 61.8634Z" fill="#618DF2"/>
<path d="M42.0399 62.921C42.624 62.921 43.0976 62.4475 43.0976 61.8634C43.0976 61.2792 42.624 60.8057 42.0399 60.8057C41.4557 60.8057 40.9822 61.2792 40.9822 61.8634C40.9822 62.4475 41.4557 62.921 42.0399 62.921Z" fill="#618DF2"/>
<path d="M42.0399 53.4014C41.4557 53.4014 40.9822 53.875 40.9822 54.4591V58.6898C40.9822 59.2739 41.4557 59.7475 42.0399 59.7475C42.624 59.7475 43.0976 59.2739 43.0976 58.6898V54.4591C43.0976 53.875 42.624 53.4014 42.0399 53.4014Z" fill="#618DF2"/>
<path d="M34.633 29.8591L40.1658 33.8788L38.0524 40.383C37.9109 40.8188 38.066 41.2962 38.4367 41.5656C38.8074 41.8349 39.3094 41.8349 39.6801 41.5656L45.2129 37.5457L50.7457 41.5655C51.1166 41.8348 51.6183 41.8348 51.9891 41.5655C52.3598 41.2962 52.515 40.8188 52.3734 40.3829L50.2601 33.8787L55.7929 29.859C56.1636 29.5896 56.3188 29.1122 56.1772 28.6764C56.0355 28.2406 55.6294 27.9455 55.1712 27.9455H48.3324L46.2191 21.4413C46.0775 21.0055 45.6713 20.7104 45.2131 20.7104C44.7549 20.7104 44.3488 21.0055 44.2071 21.4413L42.0939 27.9455H35.2547C34.7965 27.9455 34.3904 28.2406 34.2488 28.6764C34.1072 29.1123 34.2623 29.5897 34.633 29.8591ZM42.8621 30.061C43.3204 30.061 43.7264 29.7659 43.8681 29.3301L45.2129 25.191L46.5578 29.3301C46.6994 29.7659 47.1055 30.061 47.5637 30.061H51.9158L48.3949 32.6191C48.0241 32.8884 47.869 33.3658 48.0106 33.8017L49.3555 37.9408L45.8346 35.3827C45.4638 35.1134 44.962 35.1134 44.5912 35.3827L41.0702 37.9408L42.4151 33.8017C42.5566 33.3658 42.4016 32.8885 42.0308 32.6191L38.5099 30.061H42.8621Z" fill="#618DF2"/>
<path d="M26.1744 35.4209C27.9241 35.4209 29.3475 33.9974 29.3475 32.2478C29.3475 30.4981 27.9241 29.0747 26.1744 29.0747C24.4248 29.0747 23.0013 30.4981 23.0013 32.2478C23.0013 33.9974 24.4248 35.4209 26.1744 35.4209ZM26.1744 31.1901C26.7576 31.1901 27.2321 31.6646 27.2321 32.2478C27.2321 32.831 26.7576 33.3055 26.1744 33.3055C25.5912 33.3055 25.1167 32.831 25.1167 32.2478C25.1167 31.6646 25.5912 31.1901 26.1744 31.1901Z" fill="#618DF2"/>
<path d="M63.7224 43.8824C65.7636 43.8824 67.4243 42.2217 67.4243 40.1804C67.4243 38.1392 65.7636 36.4785 63.7224 36.4785C61.6811 36.4785 60.0204 38.1392 60.0204 40.1804C60.0204 42.2217 61.6811 43.8824 63.7224 43.8824ZM63.7224 38.5939C64.5972 38.5939 65.3089 39.3056 65.3089 40.1804C65.3089 41.0553 64.5972 41.767 63.7224 41.767C62.8476 41.767 62.1358 41.0553 62.1358 40.1804C62.1358 39.3056 62.8476 38.5939 63.7224 38.5939Z" fill="#618DF2"/>
</svg>
