<svg width="90" height="90" viewBox="0 0 90 90" fill="none" xmlns="http://www.w3.org/2000/svg">
<rect x="1.21289" y="0.94043" width="88" height="88" rx="19.5" stroke="#EAEAEA"/>
<path d="M39.1762 25.689C32.0068 25.689 26.1741 31.5217 26.1741 38.6911C26.1741 45.8604 32.0068 51.6932 39.1762 51.6932C46.3456 51.6932 52.1783 45.8604 52.1783 38.6911C52.1783 31.5217 46.3456 25.689 39.1762 25.689ZM39.1762 49.5778C33.1732 49.5778 28.2895 44.694 28.2895 38.6911C28.2895 32.6881 33.1732 27.8043 39.1762 27.8043C45.1791 27.8043 50.0629 32.6881 50.0629 38.6911C50.0629 44.694 45.1792 49.5778 39.1762 49.5778Z" fill="#618DF2"/>
<path d="M68.482 67.1525H68.3524C69.8787 65.1111 69.7376 62.1819 67.9138 60.3053L57.0538 49.1318C56.6409 48.7068 55.9618 48.7067 55.5474 49.1211L53.9614 47.5352C55.5148 44.948 56.4094 41.9224 56.4094 38.6914C56.4094 29.1892 48.6788 21.4585 39.1766 21.4585C29.6744 21.4585 21.9436 29.1892 21.9436 38.6914C21.9436 48.1936 29.6742 55.9242 39.1764 55.9242C42.4075 55.9242 45.4332 55.0296 48.0203 53.4763L49.6064 55.0623C49.1984 55.4703 49.1927 56.1301 49.5937 56.5451L59.8415 67.1525H37.809C37.2248 67.1525 36.7513 67.6261 36.7513 68.2102C36.7513 68.7942 37.2248 69.2679 37.809 69.2679H68.482C69.0661 69.2679 69.5397 68.7942 69.5397 68.2102C69.5397 67.6261 69.0661 67.1525 68.482 67.1525ZM24.059 38.6914C24.059 30.3555 30.8407 23.5739 39.1764 23.5739C47.5122 23.5739 54.2939 30.3556 54.2939 38.6914C54.2939 47.0271 47.5122 53.8089 39.1764 53.8089C30.8407 53.8089 24.059 47.0273 24.059 38.6914ZM52.7421 49.3074L54.0516 50.6171L51.1021 53.5664L49.7926 52.2569C50.8902 51.3959 51.8811 50.4051 52.7421 49.3074ZM61.8495 66.1863L51.8373 55.823L56.2846 51.3755L66.3969 61.7796C67.5965 63.0138 67.5823 65.008 66.3652 66.2251C65.7665 66.8238 64.9728 67.1525 64.1273 67.1525C63.2597 67.1525 62.4501 66.808 61.8495 66.1863Z" fill="#618DF2"/>
<path d="M47.3279 37.6338H46.8154C46.3458 34.2254 43.6423 31.5218 40.2338 31.0521V30.5396C40.2338 29.9555 39.7603 29.4819 39.1762 29.4819C38.592 29.4819 38.1185 29.9555 38.1185 30.5396V31.0521C34.71 31.5218 32.0065 34.2254 31.5368 37.6338H31.0243C30.4401 37.6338 29.9666 38.1073 29.9666 38.6915C29.9666 39.2756 30.4401 39.7492 31.0243 39.7492H31.5368C32.0065 43.1576 34.71 45.861 38.1185 46.3308V46.8433C38.1185 47.4274 38.592 47.901 39.1762 47.901C39.7603 47.901 40.2338 47.4274 40.2338 46.8433V46.3308C43.6423 45.8611 46.3458 43.1576 46.8154 39.7492H47.3279C47.912 39.7492 48.3856 39.2756 48.3856 38.6915C48.3856 38.1073 47.912 37.6338 47.3279 37.6338ZM44.6729 37.6338H42.4942C42.1521 36.5627 41.3049 35.7154 40.2337 35.3733V33.1948C42.4738 33.625 44.2427 35.3938 44.6729 37.6338ZM39.1762 40.059C38.4221 40.059 37.8087 39.4455 37.8087 38.6915C37.8087 37.9374 38.4221 37.324 39.1762 37.324C39.9302 37.324 40.5436 37.9374 40.5436 38.6915C40.5436 39.4455 39.9302 40.059 39.1762 40.059ZM38.1185 33.1948V35.3733C37.0473 35.7154 36.2001 36.5627 35.858 37.6338H33.6794C34.1097 35.3938 35.8785 33.625 38.1185 33.1948ZM33.6794 39.7492H35.858C36.2001 40.8202 37.0474 41.6674 38.1185 42.0097V44.1882C35.8785 43.7579 34.1097 41.9891 33.6794 39.7492ZM40.2338 44.1882V42.0097C41.3049 41.6675 42.1521 40.8203 42.4943 39.7492H44.673C44.2427 41.9891 42.4738 43.7579 40.2338 44.1882Z" fill="#618DF2"/>
<path d="M28.2897 56.5757C25.9569 56.5757 24.0589 58.4736 24.0589 60.8065C24.0589 63.1393 25.9569 65.0372 28.2897 65.0372C30.6225 65.0372 32.5205 63.1393 32.5205 60.8065C32.5205 58.4736 30.6225 56.5757 28.2897 56.5757ZM28.2897 62.9218C27.1233 62.9218 26.1743 61.9729 26.1743 60.8065C26.1743 59.64 27.1233 58.6911 28.2897 58.6911C29.4561 58.6911 30.4051 59.64 30.4051 60.8065C30.4051 61.9729 29.4561 62.9218 28.2897 62.9218Z" fill="#618DF2"/>
<path d="M62.1357 40.7104C63.8854 40.7104 65.3088 39.287 65.3088 37.5373C65.3088 35.7877 63.8854 34.3643 62.1357 34.3643C60.3861 34.3643 58.9626 35.7877 58.9626 37.5373C58.9626 39.287 60.3861 40.7104 62.1357 40.7104ZM62.1357 36.4796C62.7189 36.4796 63.1934 36.9541 63.1934 37.5373C63.1934 38.1205 62.7189 38.595 62.1357 38.595C61.5525 38.595 61.078 38.1205 61.078 37.5373C61.078 36.9541 61.5525 36.4796 62.1357 36.4796Z" fill="#618DF2"/>
<path d="M62.1358 25.9025C62.7199 25.9025 63.1934 25.4289 63.1934 24.8448C63.1934 24.2607 62.7199 23.7871 62.1358 23.7871C61.5516 23.7871 61.0781 24.2607 61.0781 24.8448C61.0781 25.4289 61.5516 25.9025 62.1358 25.9025Z" fill="#618DF2"/>
<path d="M53.6742 23.7873C54.2583 23.7873 54.7319 23.3137 54.7319 22.7296C54.7319 22.1454 54.2583 21.6719 53.6742 21.6719C53.09 21.6719 52.6165 22.1454 52.6165 22.7296C52.6165 23.3137 53.09 23.7873 53.6742 23.7873Z" fill="#618DF2"/>
<path d="M65.3088 47.0563C65.893 47.0563 66.3665 46.5828 66.3665 45.9986C66.3665 45.4145 65.893 44.9409 65.3088 44.9409C64.7247 44.9409 64.2511 45.4145 64.2511 45.9986C64.2511 46.5828 64.7247 47.0563 65.3088 47.0563Z" fill="#618DF2"/>
<path d="M44.1549 62.9215C44.739 62.9215 45.2126 62.448 45.2126 61.8638C45.2126 61.2797 44.739 60.8062 44.1549 60.8062C43.5707 60.8062 43.0972 61.2797 43.0972 61.8638C43.0972 62.448 43.5707 62.9215 44.1549 62.9215Z" fill="#618DF2"/>
<path d="M23.0012 53.402C23.5854 53.402 24.0589 52.9285 24.0589 52.3443C24.0589 51.7602 23.5854 51.2866 23.0012 51.2866C22.4171 51.2866 21.9435 51.7602 21.9435 52.3443C21.9435 52.9285 22.4171 53.402 23.0012 53.402Z" fill="#618DF2"/>
<path d="M24.0587 25.9025C24.6428 25.9025 25.1164 25.4289 25.1164 24.8448C25.1164 24.2607 24.6428 23.7871 24.0587 23.7871C23.4745 23.7871 23.001 24.2607 23.001 24.8448C23.001 25.4289 23.4745 25.9025 24.0587 25.9025Z" fill="#618DF2"/>
<path d="M34.6356 69.2677C35.2198 69.2677 35.6933 68.7942 35.6933 68.21C35.6933 67.6259 35.2198 67.1523 34.6356 67.1523C34.0515 67.1523 33.5779 67.6259 33.5779 68.21C33.5779 68.7942 34.0515 69.2677 34.6356 69.2677Z" fill="#618DF2"/>
</svg>
