<svg width="90" height="90" viewBox="0 0 90 90" fill="none" xmlns="http://www.w3.org/2000/svg">
<rect x="1.21289" y="0.94043" width="88" height="88" rx="19.5" stroke="#EAEAEA"/>
<path d="M35.3299 66.4242H23.2986C22.8243 66.4242 22.4393 66.04 22.4393 65.5648V61.805C22.4393 60.033 23.1104 58.3512 24.3299 57.069C24.4923 56.8989 24.7175 56.8018 24.9529 56.8018H24.9564C25.1927 56.8026 25.4187 56.9014 25.5811 57.0733C26.5402 58.1011 27.9015 58.6898 29.3143 58.6898C30.7271 58.6898 32.0883 58.1011 33.0483 57.0742C33.2098 56.9023 33.4358 56.8035 33.673 56.8026H33.6765C33.9119 56.8026 34.1371 56.8989 34.2995 57.0699C35.519 58.3521 36.1901 60.0339 36.1901 61.8059V65.5648C36.1893 66.04 35.8043 66.4242 35.3299 66.4242ZM24.158 64.7054H34.4705V61.805C34.4705 60.7618 34.1603 59.7597 33.5845 58.9132C32.3822 59.8723 30.8715 60.4086 29.3143 60.4086C27.7571 60.4086 26.2463 59.8723 25.044 58.9132C24.4683 59.7597 24.158 60.7618 24.158 61.805V64.7054Z" fill="#618DF2"/>
<path d="M29.3144 58.1533C26.7672 58.1533 24.6953 56.0814 24.6953 53.5342C24.6953 50.987 26.7672 48.915 29.3144 48.915C31.8616 48.915 33.9335 50.987 33.9335 53.5342C33.9335 56.0814 31.8616 58.1533 29.3144 58.1533ZM29.3144 50.6338C27.7151 50.6338 26.414 51.9349 26.414 53.5342C26.414 55.1335 27.7151 56.4346 29.3144 56.4346C30.9137 56.4346 32.2148 55.1335 32.2148 53.5342C32.2148 51.9349 30.9137 50.6338 29.3144 50.6338Z" fill="#618DF2"/>
<path d="M64.5489 66.4242H60.3061C59.8309 66.4242 59.4467 66.04 59.4467 65.5648C59.4467 65.0896 59.8309 64.7054 60.3061 64.7054H63.6895V61.805C63.6895 60.7618 63.3792 59.7606 62.8035 58.9132C61.6012 59.8723 60.0913 60.4086 58.5332 60.4086C56.9752 60.4086 55.4653 59.8723 54.263 58.9132C53.6872 59.7606 53.377 60.7618 53.377 61.805V64.7054H57.7813C58.2565 64.7054 58.6407 65.0896 58.6407 65.5648C58.6407 66.04 58.2565 66.4242 57.7813 66.4242H52.5176C52.0424 66.4242 51.6582 66.04 51.6582 65.5648V61.805C51.6582 60.033 52.3294 58.3512 53.5489 57.069C53.7104 56.8989 53.9364 56.8018 54.1719 56.8018C54.3936 56.8336 54.6368 56.9006 54.7992 57.0742C55.7592 58.1011 57.1196 58.6898 58.5332 58.6898C59.9469 58.6898 61.3073 58.1011 62.2672 57.075C62.4288 56.9023 62.6548 56.8035 62.892 56.8026H62.8954C63.13 56.8026 63.356 56.8989 63.5185 57.0699C64.7379 58.3521 65.4091 60.0339 65.4091 61.8059V65.5648C65.4082 66.04 65.0241 66.4242 64.5489 66.4242Z" fill="#618DF2"/>
<path d="M58.5331 58.1533C55.986 58.1533 53.914 56.0814 53.914 53.5342C53.914 50.987 55.986 48.915 58.5331 48.915C61.0803 48.915 63.1523 50.987 63.1523 53.5342C63.1523 56.0814 61.0803 58.1533 58.5331 58.1533ZM58.5331 50.6338C56.9338 50.6338 55.6328 51.9349 55.6328 53.5342C55.6328 55.1335 56.9338 56.4346 58.5331 56.4346C60.1324 56.4346 61.4335 55.1335 61.4335 53.5342C61.4335 51.9349 60.1324 50.6338 58.5331 50.6338Z" fill="#618DF2"/>
<path d="M49.9394 38.9932H47.3613C46.886 38.9932 46.5019 38.6082 46.5019 38.1338V37.2572H41.3456V38.1338C41.3456 38.6082 40.9606 38.9932 40.4863 38.9932H37.9081C37.4338 38.9932 37.0488 38.6082 37.0488 38.1338V36.3463C37.0488 34.5768 37.7217 32.8959 38.9445 31.612C39.1061 31.4418 39.3321 31.3447 39.5667 31.3447H39.571C39.8074 31.3456 40.0334 31.4444 40.1949 31.618C41.1549 32.6458 42.5135 33.2354 43.9238 33.2354C45.334 33.2354 46.6927 32.6458 47.6535 31.618C47.815 31.4453 48.0402 31.3464 48.2774 31.3456C48.4905 31.3439 48.7397 31.4401 48.9038 31.6129C50.1259 32.8959 50.7988 34.5777 50.7988 36.3463V38.1338C50.7988 38.6082 50.4146 38.9932 49.9394 38.9932ZM48.2206 37.2744H49.08V36.3463C49.08 35.3056 48.7689 34.3044 48.1914 33.4554C46.9892 34.4161 45.4792 34.9541 43.9238 34.9541C42.3674 34.9541 40.8584 34.417 39.657 33.4562C39.0786 34.3044 38.7675 35.3056 38.7675 36.3463V37.2744H39.6269V36.3979C39.6269 35.9235 40.0119 35.5385 40.4863 35.5385H47.3613C47.8365 35.5385 48.2206 35.9235 48.2206 36.3979V37.2744Z" fill="#618DF2"/>
<path d="M43.9239 32.6934C41.3767 32.6934 39.3047 30.6214 39.3047 28.0742C39.3047 25.527 41.3767 23.4551 43.9239 23.4551C46.471 23.4551 48.543 25.527 48.543 28.0742C48.543 30.6214 46.471 32.6934 43.9239 32.6934ZM43.9239 25.1738C42.3246 25.1738 41.0235 26.4749 41.0235 28.0742C41.0235 29.6735 42.3246 30.9746 43.9239 30.9746C45.5232 30.9746 46.8242 29.6735 46.8242 28.0742C46.8242 26.4749 45.5232 25.1738 43.9239 25.1738Z" fill="#618DF2"/>
<path d="M33.1988 44.9404C32.9753 44.9404 32.7519 44.8459 32.5886 44.6912C32.4339 44.5279 32.3394 44.3045 32.3394 44.0811C32.3394 43.8576 32.4339 43.6342 32.5886 43.4709C32.9152 43.1529 33.4909 43.1529 33.8089 43.4709C33.9722 43.6342 34.0581 43.8576 34.0581 44.0811C34.0581 44.3045 33.9722 44.5279 33.8089 44.6912C33.6456 44.8459 33.4308 44.9404 33.1988 44.9404Z" fill="#618DF2"/>
<path d="M52.5175 63.8452H35.33C34.8556 63.8452 34.4706 63.4611 34.4706 62.9858V61.7999C34.4706 60.76 34.1604 59.7597 33.5837 58.9124C32.5611 59.7365 31.3133 60.2461 29.9872 60.3699C29.7131 60.3965 29.4476 60.2891 29.2654 60.0854C29.0832 59.8818 29.0101 59.6025 29.0668 59.3352L29.5739 56.9461C29.6392 56.6393 29.8669 56.3918 30.1668 56.3016C31.3751 55.9389 32.219 54.8011 32.219 53.5327C32.219 52.6914 31.8572 51.8947 31.2256 51.3456C30.9901 51.1402 30.8844 50.8239 30.9489 50.518L31.81 46.4789C31.9088 46.014 32.3651 45.715 32.8301 45.8172C33.2941 45.9152 33.5906 46.3724 33.4918 46.8364L32.7295 50.414C33.5029 51.2588 33.9386 52.37 33.9386 53.5327C33.9386 55.4079 32.8404 57.0501 31.1577 57.7686L31.0236 58.3976C31.7893 58.1295 32.4829 57.6783 33.0415 57.0742C33.203 56.8997 33.429 56.8 33.6662 56.7983C33.9292 56.8026 34.1311 56.8928 34.2944 57.0656C35.5173 58.3495 36.1902 60.0313 36.1902 61.8007V62.1264H51.659V61.7999C51.659 60.0304 52.3319 58.3486 53.5539 57.0647C53.718 56.8929 53.9208 56.7957 54.1829 56.7975C54.4201 56.7992 54.6461 56.8989 54.8077 57.0733C55.3319 57.6414 55.9799 58.0753 56.6966 58.3469L56.5651 57.7127C54.9581 56.9607 53.9097 55.3391 53.9097 53.5327C53.9097 52.3992 54.3247 51.3121 55.0629 50.4802L52.8191 39.6736C52.7469 39.3229 52.337 38.9921 51.9769 38.9921H48.2206V40.6421C48.2206 41.1164 47.8365 41.5014 47.3612 41.5014H40.4862C40.0118 41.5014 39.6268 41.1164 39.6268 40.6421V38.9921H35.8628C35.5053 38.9921 35.0945 39.3238 35.018 39.6736L34.5901 41.6793C34.4912 42.1443 34.034 42.4399 33.57 42.3411C33.1059 42.2422 32.8094 41.7859 32.9083 41.321L33.3371 39.3109C33.5872 38.1662 34.6958 37.2725 35.8619 37.2725H40.4854C40.9597 37.2725 41.3447 37.6575 41.3447 38.1318V39.7827H46.501V38.1327C46.501 37.6583 46.8851 37.2733 47.3604 37.2733H51.9752C53.1543 37.2733 54.2637 38.1748 54.5009 39.3255L56.8384 50.5825C56.9003 50.8824 56.798 51.1918 56.5703 51.3963C55.973 51.9343 55.6284 52.7128 55.6284 53.5327C55.6284 54.7736 56.4165 55.8771 57.5895 56.2767C57.8774 56.3746 58.0922 56.617 58.1541 56.9152L58.6526 59.3223C58.7076 59.5921 58.6319 59.8732 58.4454 60.0768C58.2598 60.2796 57.9865 60.3862 57.7124 60.3501C56.4414 60.2049 55.246 59.7021 54.2629 58.9115C53.6862 59.7589 53.376 60.7592 53.376 61.799V62.9858C53.3768 63.4611 52.9927 63.8452 52.5175 63.8452Z" fill="#618DF2"/>
<path d="M47.3611 41.5025H40.4861C40.0118 41.5025 39.6268 41.1175 39.6268 40.6431V36.4004C39.6268 35.926 40.0118 35.541 40.4861 35.541H47.3611C47.8364 35.541 48.2205 35.926 48.2205 36.4004V40.6431C48.2205 41.1175 47.8364 41.5025 47.3611 41.5025ZM41.3455 39.7838H46.5018V37.2598H41.3455V39.7838Z" fill="#618DF2"/>
<path d="M48.2206 41.5029H39.6269C39.1525 41.5029 38.7675 41.1179 38.7675 40.6436C38.7675 40.1692 39.1525 39.7842 39.6269 39.7842H48.2206C48.6959 39.7842 49.08 40.1692 49.08 40.6436C49.08 41.1179 48.6959 41.5029 48.2206 41.5029Z" fill="#618DF2"/>
<path d="M35.33 29.4707H31.7851C30.3637 29.4707 29.207 28.314 29.207 26.8926V26.0332C29.207 24.6118 30.3637 23.4551 31.7851 23.4551H35.33C36.7515 23.4551 37.9082 24.6118 37.9082 26.0332V26.8926C37.9082 28.314 36.7515 29.4707 35.33 29.4707ZM31.7851 25.1738C31.3116 25.1738 30.9258 25.5597 30.9258 26.0332V26.8926C30.9258 27.3661 31.3116 27.752 31.7851 27.752H35.33C35.8036 27.752 36.1894 27.3661 36.1894 26.8926V26.0332C36.1894 25.5597 35.8036 25.1738 35.33 25.1738H31.7851Z" fill="#618DF2"/>
<path d="M37.0487 31.1895C36.8828 31.1895 36.7169 31.1422 36.5717 31.0451L33.9936 29.3263C33.6782 29.1158 33.5381 28.7248 33.6481 28.3621C33.7573 28.0003 34.0924 27.752 34.4705 27.752H36.1893C36.515 27.752 36.8123 27.9359 36.9584 28.2272L37.8178 29.9459C37.9923 30.2948 37.9098 30.7168 37.6176 30.9746C37.456 31.1173 37.2523 31.1895 37.0487 31.1895Z" fill="#618DF2"/>
<path d="M65.4082 46.6582H61.8633C60.4418 46.6582 59.2851 45.5015 59.2851 44.0801V43.2207C59.2851 41.7993 60.4418 40.6426 61.8633 40.6426H65.4082C66.8296 40.6426 67.9863 41.7993 67.9863 43.2207V44.0801C67.9863 45.5015 66.8296 46.6582 65.4082 46.6582ZM61.8633 42.3613C61.3889 42.3613 61.0039 42.7472 61.0039 43.2207V44.0801C61.0039 44.5536 61.3889 44.9395 61.8633 44.9395H65.4082C65.8825 44.9395 66.2675 44.5536 66.2675 44.0801V43.2207C66.2675 42.7472 65.8825 42.3613 65.4082 42.3613H61.8633Z" fill="#618DF2"/>
<path d="M60.1445 48.377C59.9409 48.377 59.7372 48.3039 59.5756 48.1621C59.2834 47.9034 59.2009 47.4815 59.3762 47.1334L60.2356 45.4147C60.3809 45.1234 60.6782 44.9395 61.0039 44.9395H62.7227C63.1008 44.9395 63.4351 45.1878 63.5451 45.5496C63.6551 45.9114 63.5141 46.3033 63.1996 46.5138L60.6215 48.2326C60.4762 48.3288 60.3095 48.377 60.1445 48.377Z" fill="#618DF2"/>
</svg>
