<svg width="151" height="151" viewBox="0 0 151 151" fill="none" xmlns="http://www.w3.org/2000/svg">
<g clip-path="url(#clip0_62_69944)">
<path d="M66.4271 150.399H90.7754C90.7754 149.15 90.2681 148.019 89.4505 147.202C88.6325 146.382 87.502 145.877 86.253 145.877H86.2109C86.2109 145.877 81.0439 145.203 81.0439 140.982V115.799H76.16V140.982C76.16 145.203 70.993 145.877 70.993 145.877H70.9509C68.4516 145.877 66.4271 147.901 66.4271 150.399Z" fill="#2543B1"/>
<path d="M55.1865 115.798H102.017C101.243 111.525 97.5166 108.421 93.173 108.433L78.602 108.472L64.031 108.433C59.687 108.42 55.9606 111.525 55.1865 115.798Z" fill="#0070D4"/>
<path d="M88.5524 61.0763C89.7739 65.5909 95.9319 77.3519 98.3228 79.0378C101.435 81.232 111.193 85.3505 116.268 87.4509C117.184 87.8297 113.788 91.837 113.788 91.837C113.788 91.837 100.662 88.499 95.3138 85.0856C93.8013 84.1198 90.5237 80.8404 86.3747 74.267C85.1165 72.2737 82.204 68.3126 81.881 65.4834C81.5086 62.2269 85.1764 59.987 88.5524 61.0763Z" fill="#0070D4"/>
<path d="M123.144 139.592L125.498 143.907C125.498 143.907 127.001 144.063 128.934 142.401L127.13 137.331L123.144 139.592Z" fill="#F8D8C2"/>
<path d="M128.155 142.122C128.155 142.122 128.289 140.667 128.906 140.349C129.524 140.031 136.299 140.872 138.045 140.217C139.791 139.562 140.874 141.574 140.385 142.164C139.829 142.837 128.014 149.525 128.014 149.525C128.014 149.525 125.112 145.63 124.833 144.279C124.554 142.927 127.093 143.131 128.155 142.122Z" fill="#259BFF"/>
<path d="M132.22 143.113C132.175 143.163 132.11 143.196 132.037 143.198C131.895 143.202 131.777 143.091 131.773 142.95C131.772 142.903 131.743 141.782 132.187 141.066C132.778 140.113 133.74 140.189 133.78 140.192C133.921 140.205 134.025 140.33 134.012 140.471C134 140.612 133.875 140.716 133.734 140.703C133.708 140.701 133.045 140.659 132.623 141.337C132.261 141.92 132.285 142.924 132.285 142.935C132.288 143.003 132.262 143.066 132.22 143.113Z" fill="white"/>
<path d="M131.189 142.894C131.144 142.944 131.079 142.977 131.006 142.979C130.864 142.983 130.746 142.872 130.742 142.73C130.74 142.683 130.711 141.563 131.156 140.847C131.748 139.893 132.708 139.969 132.749 139.973C132.89 139.986 132.994 140.111 132.981 140.252C132.968 140.393 132.844 140.497 132.703 140.484C132.676 140.482 132.013 140.439 131.592 141.117C131.228 141.703 131.254 142.704 131.255 142.715C131.257 142.784 131.232 142.846 131.189 142.894Z" fill="white"/>
<path d="M133.407 143.073C133.361 143.124 133.297 143.156 133.224 143.159C133.082 143.163 132.964 143.052 132.959 142.91C132.958 142.863 132.929 141.743 133.374 141.027C133.965 140.072 134.926 140.149 134.967 140.153C135.108 140.166 135.212 140.29 135.199 140.431C135.186 140.572 135.061 140.677 134.921 140.663C134.894 140.662 134.231 140.619 133.81 141.297C133.446 141.883 133.472 142.885 133.473 142.895C133.474 142.963 133.449 143.026 133.407 143.073Z" fill="white"/>
<path d="M102.038 97.0693C102.038 97.0693 109.708 97.5067 111.495 99.2141C113.283 100.922 128.7 137.872 128.7 137.872C126.934 139.178 125.031 140.071 123.015 140.621C123.015 140.621 111.955 121.635 108.632 116.661C105.202 111.527 104.776 108.669 104.776 108.669L96.9072 107.521L102.038 97.0693Z" fill="#1A100E"/>
<path d="M73.4543 55.3214C73.4543 55.3214 68.1866 57.0412 65.3707 59.514C62.5548 61.9868 64.6414 69.3695 64.8409 73.5552C65.4151 85.6022 65.4636 102.07 71.4656 105.126C75.9985 107.434 93.6229 104.02 92.2275 97.8015C91.2992 93.6652 89.7135 87.1545 88.4911 76.8693C87.685 70.0855 89.3086 63.8936 88.5533 61.0773C87.7975 58.2613 78.9787 55.0327 78.9787 55.0327L73.4543 55.3214Z" fill="#259BFF"/>
<path d="M77.3837 60.3327C74.6368 60.3327 72.1023 57.4129 71.9925 57.2848C71.9229 57.2034 71.9321 57.0812 72.0135 57.0117C72.0945 56.9417 72.2171 56.9513 72.2866 57.0327C72.3132 57.0634 74.9671 60.1213 77.6202 59.9374C77.7263 59.9296 77.8197 60.0106 77.827 60.1172C77.8343 60.2238 77.7538 60.3167 77.6472 60.324C77.5594 60.3295 77.4715 60.3327 77.3837 60.3327Z" fill="#0070D4"/>
<path d="M75.0044 93.1706C74.9074 93.1706 74.8237 93.0978 74.8122 92.999C74.7999 92.8929 74.8763 92.7968 74.9824 92.7845C82.0783 91.9678 85.0178 79.6848 85.047 79.5612C85.0713 79.4569 85.1756 79.392 85.2794 79.4162C85.3838 79.4405 85.4483 79.5448 85.4245 79.6491C85.3041 80.1661 82.3917 92.3219 75.0268 93.1697C75.0195 93.1701 75.0117 93.1706 75.0044 93.1706Z" fill="#0070D4"/>
<path d="M77.8292 89.4542C77.7643 89.4542 77.7007 89.4217 77.6641 89.3622C77.6078 89.2712 77.6361 89.1518 77.7272 89.0955C81.5016 86.7687 82.0625 83.3388 82.068 83.304C82.084 83.1983 82.1819 83.1247 82.2885 83.1416C82.3942 83.1576 82.4669 83.256 82.4514 83.3616C82.4294 83.509 81.8653 86.9997 77.9312 89.4254C77.8992 89.4451 77.864 89.4542 77.8292 89.4542Z" fill="#0070D4"/>
<path d="M92.5741 139.406L92.4048 144.318C92.4048 144.318 93.6186 145.217 96.1298 144.77L97.1555 139.488L92.5741 139.406Z" fill="#F8D8C2"/>
<path d="M95.5976 144.13C95.5976 144.13 96.4531 142.946 97.1467 142.986C97.8403 143.027 103.245 147.199 105.081 147.523C106.917 147.848 106.826 150.131 106.105 150.391C105.283 150.687 91.7093 150.432 91.7093 150.432C91.7093 150.432 91.1937 145.603 91.6411 144.297C92.0885 142.991 94.1702 144.458 95.5976 144.13Z" fill="#259BFF"/>
<path d="M98.5956 147.053C98.5311 147.073 98.4584 147.068 98.3948 147.033C98.2708 146.964 98.2255 146.808 98.2937 146.684C98.3166 146.643 98.8615 145.664 99.609 145.274C100.603 144.754 101.392 145.309 101.425 145.333C101.54 145.415 101.566 145.575 101.483 145.69C101.401 145.805 101.24 145.831 101.125 145.748C101.103 145.733 100.554 145.36 99.846 145.729C99.2371 146.047 98.7475 146.924 98.7425 146.932C98.71 146.992 98.656 147.034 98.5956 147.053Z" fill="white"/>
<path d="M97.8194 146.342C97.7549 146.362 97.6826 146.357 97.6185 146.322C97.4946 146.253 97.4493 146.098 97.5175 145.973C97.5403 145.932 98.0857 144.953 98.8328 144.562C99.8274 144.042 100.616 144.597 100.649 144.621C100.763 144.704 100.79 144.864 100.707 144.979C100.624 145.094 100.464 145.12 100.348 145.037C100.327 145.022 99.7775 144.648 99.0697 145.017C98.4585 145.336 97.9717 146.212 97.9667 146.221C97.9338 146.281 97.8802 146.323 97.8194 146.342Z" fill="white"/>
<path d="M99.6386 147.623C99.5741 147.643 99.5018 147.638 99.4378 147.603C99.3138 147.534 99.2685 147.378 99.3367 147.254C99.3595 147.212 99.9049 146.233 100.652 145.843C101.647 145.322 102.435 145.878 102.468 145.902C102.583 145.984 102.609 146.145 102.526 146.259C102.444 146.374 102.283 146.4 102.168 146.317C102.147 146.303 101.597 145.929 100.889 146.298C100.278 146.617 99.791 147.492 99.7864 147.501C99.753 147.562 99.6995 147.604 99.6386 147.623Z" fill="white"/>
<path d="M68.3832 106.402C68.5072 106.588 68.6417 106.759 68.7867 106.919C69.7122 107.953 71.0619 108.568 72.9129 108.568L94.7807 108.46C92.8468 115.797 92.6194 121.459 92.4071 123.28C90.794 136.946 91.8073 139.407 91.8073 139.407C91.983 139.583 92.2054 139.754 92.4588 139.909C92.619 140.012 92.7951 140.111 92.9808 140.193C94.2994 140.84 96.1715 141.181 97.6295 140.726C97.6295 140.726 110.939 99.5241 106.069 97.9832C100.412 96.1889 67.0248 97.5545 67.0248 97.5545L66.7604 99.9647C66.4919 102.494 67.2865 104.809 68.3832 106.402Z" fill="#3C3C48"/>
<path d="M96.7962 107.199C96.9357 107.38 96.9824 107.607 96.9307 107.825C95.8396 112.406 92.4527 127.624 92.4577 139.91C92.6178 140.014 92.794 140.112 92.9797 140.195C92.9125 127.914 96.3355 112.546 97.4372 107.949C97.525 107.572 97.4372 107.184 97.1993 106.879C96.9614 106.579 96.5995 106.403 96.2115 106.403H68.3816C68.5056 106.589 68.6401 106.76 68.7851 106.92H96.2115C96.4394 106.919 96.6512 107.023 96.7962 107.199Z" fill="#1A100E"/>
<path d="M71.4187 41.1422C70.5814 45.488 72.68 48.9984 77.0258 49.8357C81.3717 50.6729 85.0207 48.0363 85.8579 43.69C86.6952 39.3442 84.7558 35.5556 80.41 34.7184C75.1981 33.7146 72.2559 36.7964 71.4187 41.1422Z" fill="#3C3C48"/>
<path d="M84.4776 45.5981C84.4776 45.5981 85.9952 44.221 86.6366 45.7248C87.278 47.2291 85.2513 50.9166 83.2378 49.5331L84.4776 45.5981Z" fill="#FB927E"/>
<path d="M83.954 48.4108C84.0349 48.4263 84.12 48.387 84.1589 48.3097C84.7335 47.1613 86.0859 46.9115 86.0996 46.9092C86.2021 46.8914 86.2712 46.793 86.2534 46.6906C86.2355 46.5876 86.1376 46.519 86.0351 46.5364C85.972 46.5474 84.4824 46.8182 83.8208 48.1404C83.7742 48.2337 83.8117 48.3476 83.9055 48.3943C83.9206 48.4021 83.937 48.4071 83.954 48.4108Z" fill="#E6765D"/>
<path d="M85.3435 48.0444C85.3778 48.0508 85.4148 48.0481 85.4496 48.0344C85.5466 47.9955 85.5937 47.8852 85.5544 47.7882C85.548 47.7722 85.391 47.3897 84.9656 47.0919C84.8805 47.032 84.762 47.0525 84.702 47.1386C84.6421 47.2241 84.6627 47.3421 84.7482 47.4021C85.0772 47.6327 85.2021 47.9268 85.203 47.9296C85.2282 47.9913 85.2821 48.033 85.3435 48.0444Z" fill="#E6765D"/>
<path d="M79.813 52.3325L79.016 56.4693C79.016 56.4693 77.8723 57.7215 76.5469 57.6254C74.6926 57.4909 73.2812 55.4518 73.2812 55.4518L74.0416 51.5054L79.813 52.3325Z" fill="#F8D8C2"/>
<path d="M79.8124 52.3325L79.4779 54.0674C78.1937 55.0378 76.2576 54.9691 73.5555 54.0226L74.0405 51.5054L79.8124 52.3325Z" fill="#FB927E"/>
<path d="M71.4083 43.0044C71.3808 43.2341 71.3552 43.4669 71.3332 43.703C71.2797 44.2968 71.2431 44.9103 71.2349 45.5261C71.2349 45.5481 71.2335 45.5687 71.234 45.5879C71.2033 48.5727 71.8379 51.6343 74.2068 53.0333C79.5738 56.2011 82.5828 51.6562 83.9612 48.9341C84.1136 48.6317 84.2646 48.2918 84.4096 47.9257C84.4151 47.9116 84.421 47.896 84.4283 47.8795C84.5903 47.4687 84.7472 47.0277 84.8959 46.5711C85.0066 46.233 85.1119 45.8885 85.2134 45.5403C85.4632 44.6958 85.6842 43.8425 85.8677 43.0835C86.289 41.3487 85.5506 39.5356 84.0312 38.5908C81.8425 37.2266 78.3925 35.8161 74.6204 37.0889C73.2268 37.5583 72.1851 38.7258 71.879 40.1637C71.7111 40.958 71.535 41.9379 71.4083 43.0044Z" fill="#F8D8C2"/>
<path d="M76.6263 44.3695C76.5458 44.7867 76.2658 45.0837 76.0004 45.0329C75.7351 44.9816 75.585 44.6019 75.6655 44.1847C75.7461 43.7674 76.0261 43.4705 76.2919 43.5213C76.5568 43.5725 76.7068 43.9522 76.6263 44.3695Z" fill="#3C3C48"/>
<path d="M82.0872 45.4447C82.0067 45.8619 81.7267 46.1588 81.4614 46.1076C81.196 46.0563 81.046 45.6766 81.1265 45.2594C81.207 44.8421 81.487 44.5452 81.7523 44.596C82.0177 44.6472 82.1678 45.0274 82.0872 45.4447Z" fill="#3C3C48"/>
<path d="M83.6561 42.9018C83.6561 42.9018 82.2552 42.0106 80.9911 42.2901L80.9829 42.9617C80.9829 42.9617 82.7237 43.147 83.5198 43.6631C83.6451 43.4279 83.7055 43.1777 83.6561 42.9018Z" fill="#3C3C48"/>
<path d="M75.0473 41.1711C75.0473 41.1711 76.6788 40.8641 77.7489 41.5933L77.5073 42.2201C77.5073 42.2201 75.8219 41.7452 74.8913 41.9287C74.862 41.6638 74.8995 41.409 75.0473 41.1711Z" fill="#3C3C48"/>
<path d="M77.7683 47.9433C77.4499 47.9214 77.1425 47.7759 77.0949 47.7526C77.0011 47.7068 76.9627 47.5934 77.0084 47.4996C77.0542 47.4058 77.1676 47.3669 77.2614 47.4131C77.427 47.4936 77.8287 47.6309 78.0135 47.5366C78.0492 47.5183 78.0986 47.4808 78.1183 47.3673C78.2318 46.7131 78.2034 44.4915 78.203 44.4691C78.2016 44.3648 78.2853 44.2787 78.3896 44.2774C78.4944 44.2755 78.5799 44.3593 78.5813 44.464C78.5827 44.5569 78.6106 46.7433 78.4912 47.4323C78.4463 47.6913 78.2999 47.8157 78.1851 47.8743C78.0598 47.9379 77.9129 47.9534 77.7683 47.9433Z" fill="#FB927E"/>
<path d="M85.1461 45.7616L84.3043 45.5992C84.5601 44.772 84.4498 43.6914 84.3272 42.9621C84.0495 41.3082 85.4046 40.8631 84.5633 39.8996C83.7224 38.9343 81.7926 38.7462 80.0893 38.3605C78.376 37.9726 76.4188 37.7905 75.7161 37.8166C75.012 37.8408 74.8029 38.6103 74.883 39.5253C74.9653 40.439 73.462 40.3411 73.0255 42.2351C72.9656 42.4959 72.7016 43.0431 72.6632 43.4658L71.3922 43.1117C71.5194 42.0036 71.7024 40.9848 71.8762 40.1636C72.1823 38.7256 73.2241 37.5585 74.6167 37.0887C78.3893 35.8154 81.8398 37.2259 84.0275 38.5893C85.5464 39.535 86.2858 41.3476 85.8649 43.0833C85.6654 43.9091 85.4215 44.8443 85.1461 45.7616Z" fill="#3C3C48"/>
<path d="M79.5546 45.18C79.7898 43.9594 80.9738 43.1579 82.1944 43.393C83.415 43.6282 84.2166 44.8122 83.9814 46.0328C83.7463 47.2534 82.5623 48.055 81.3416 47.8198C80.121 47.5846 79.3195 46.4006 79.5546 45.18ZM79.8996 45.2464C79.701 46.2766 80.3777 47.2763 81.408 47.4744C82.4383 47.6729 83.4379 46.9963 83.636 45.966C83.8346 44.9357 83.1579 43.9361 82.1276 43.738C81.0973 43.5399 80.0981 44.2165 79.8996 45.2464Z" fill="white"/>
<path d="M73.5043 44.015C73.7395 42.7948 74.9235 41.9928 76.1441 42.228C77.3647 42.4631 78.1663 43.6471 77.9311 44.8677C77.696 46.0884 76.512 46.8899 75.2913 46.6548C74.0707 46.4196 73.2692 45.2351 73.5043 44.015ZM73.8493 44.0813C73.6507 45.1116 74.3274 46.1112 75.3577 46.3093C76.388 46.5079 77.3872 45.8312 77.5857 44.801C77.7843 43.7707 77.1076 42.7715 76.0773 42.5729C75.047 42.3744 74.0478 43.051 73.8493 44.0813Z" fill="white"/>
<path d="M83.7425 45.2482C83.7865 45.2569 83.8336 45.2486 83.8734 45.2216C83.8853 45.2139 85.0785 44.432 86.3384 44.9938C86.4267 45.0336 86.5306 44.9938 86.5704 44.9051C86.6102 44.8163 86.5704 44.7125 86.4816 44.6731C85.0409 44.0308 83.7325 44.8932 83.6776 44.9302C83.5971 44.9847 83.576 45.0936 83.63 45.1741C83.657 45.2143 83.6982 45.2399 83.7425 45.2482Z" fill="white"/>
<path d="M73.9753 43.3664C74.0316 43.3774 74.092 43.3605 74.135 43.3161C74.2022 43.2465 74.2008 43.1354 74.1308 43.0677C74.0732 43.0118 72.7016 41.6997 71.3268 41.6627C71.2298 41.6599 71.1488 41.7368 71.1466 41.8338C71.1438 41.9308 71.2198 42.0113 71.3172 42.014C72.5548 42.0474 73.8733 43.3074 73.8865 43.3202C73.9122 43.3449 73.9433 43.36 73.9753 43.3664Z" fill="white"/>
<path d="M77.9057 44.3473C77.9107 44.3427 78.4272 43.8674 78.9662 43.9712C79.4996 44.0742 79.7636 44.6987 79.7664 44.7051L80.0916 44.5719C80.0784 44.539 79.7554 43.7653 79.033 43.6263C78.3156 43.4881 77.6911 44.0668 77.665 44.0915L77.9057 44.3473Z" fill="white"/>
<path d="M72.033 43.2014C72.033 43.2014 71.1359 41.359 69.9811 42.517C68.8268 43.6754 69.3388 47.8519 71.7219 47.3157L72.033 43.2014Z" fill="#F8D8C2"/>
<path d="M71.478 46.008C71.397 45.9924 71.3325 45.9243 71.3252 45.8378C71.2186 44.5586 70.0556 43.8239 70.0437 43.8166C69.9549 43.7617 69.9275 43.645 69.9824 43.5562C70.0373 43.4675 70.1535 43.4396 70.2423 43.4945C70.2967 43.5283 71.5791 44.3331 71.7021 45.8062C71.7108 45.9101 71.6335 46.002 71.5292 46.0107C71.5118 46.0121 71.4944 46.0112 71.478 46.008Z" fill="#FB927E"/>
<path d="M70.3236 45.1519C70.2892 45.1455 70.2563 45.129 70.2288 45.1029C70.1534 45.0306 70.1506 44.9112 70.2229 44.8353C70.2348 44.8225 70.5226 44.526 71.0286 44.4075C71.1297 44.3833 71.2321 44.4468 71.2559 44.5484C71.2797 44.65 71.2166 44.752 71.115 44.7758C70.7239 44.8678 70.4988 45.0942 70.4969 45.0965C70.4503 45.145 70.3849 45.1633 70.3236 45.1519Z" fill="#FB927E"/>
<path d="M99.2026 87.8936C99.2026 87.8936 104.166 88.7326 106.236 90.4611C108.306 92.1891 111.081 93.6769 110.667 94.5704C110.253 95.4643 107.332 93.5675 107.332 93.5675C107.332 93.5675 106.636 95.1779 104.243 95.8779C101.85 96.5774 96.7344 92.464 96.7344 92.464L99.2026 87.8936Z" fill="#F8D8C2"/>
<path d="M66.4897 58.6489C69.2581 62.8451 79.8543 77.353 82.2452 79.0385C85.3576 81.2327 94.0639 85.7926 99.139 87.893C100.055 88.2718 97.1054 92.5865 97.1054 92.5865C97.1054 92.5865 84.584 88.4996 79.2362 85.0858C77.7237 84.12 71.4317 77.8174 67.4203 72.2272C66.046 70.3121 63.8106 67.6521 63.4871 64.8234C63.1152 61.5678 64.1382 59.8252 66.4897 58.6489Z" fill="#0070D4"/>
<path d="M92.0657 97.9821H117.499C118.084 97.9821 118.558 97.5081 118.558 96.9234V95.4498C118.558 94.8651 118.084 94.3916 117.499 94.3916H92.0657C91.4811 94.3916 91.0071 94.8656 91.0071 95.4498V96.9234C91.0071 97.5081 91.4811 97.9821 92.0657 97.9821Z" fill="#2543B1"/>
<path d="M123.192 97.9818L128.798 76.9883C129.113 75.8093 128.224 74.6519 127.004 74.6519H114.668C113.836 74.6519 113.106 75.2054 112.881 76.007L106.708 97.9818H123.192Z" fill="#0070D4"/>
<path d="M112.879 76.0074L106.758 97.801H105.349L111.47 76.0074C111.696 75.2059 112.426 74.6514 113.259 74.6514H114.668C113.836 74.6514 113.106 75.2059 112.879 76.0074Z" fill="#2543B1"/>
<path d="M116.049 87.2571C115.728 88.642 116.591 89.7642 117.976 89.7642C119.361 89.7642 120.743 88.6415 121.064 87.2571C121.384 85.8723 120.522 84.75 119.137 84.75C117.751 84.75 116.369 85.8727 116.049 87.2571Z" fill="#259BFF"/>
<path d="M11.5526 137.934L10.7812 142.809L14.7501 143.302L15.7612 138.2L11.5526 137.934Z" fill="#F8D8C2"/>
<path d="M12.4282 142.281C12.4282 142.281 14.5231 142.025 15.0803 142.115C15.6371 142.204 18.7907 146.912 20.0154 147.335C22.2366 148.102 21.7393 151.669 20.3242 151.651C16.2323 151.599 9.59351 148.936 9.59351 148.936C9.59351 148.936 9.6022 144.271 10.0789 142.873C10.5556 141.476 11.2455 142.545 12.4282 142.281Z" fill="#0070D4"/>
<path d="M15.2097 146.653C15.1356 146.659 15.0596 146.636 15.0001 146.583C14.8844 146.479 14.8748 146.301 14.9786 146.185C15.0134 146.147 15.8374 145.236 16.7322 145.004C17.9222 144.694 18.6277 145.482 18.6574 145.516C18.7599 145.632 18.748 145.81 18.6309 145.912C18.5142 146.015 18.3367 146.003 18.2342 145.886C18.215 145.864 17.7209 145.329 16.8736 145.549C16.1448 145.738 15.405 146.553 15.3977 146.561C15.3465 146.617 15.2788 146.648 15.2097 146.653Z" fill="white"/>
<path d="M14.5588 145.703C14.4851 145.709 14.4087 145.686 14.3493 145.632C14.2335 145.528 14.2239 145.351 14.3278 145.235C14.3625 145.196 15.1869 144.285 16.0809 144.053C17.2718 143.744 17.9763 144.531 18.0061 144.565C18.1086 144.682 18.0967 144.859 17.9795 144.962C17.8629 145.064 17.6849 145.052 17.5829 144.935C17.5632 144.914 17.0691 144.379 16.2223 144.598C15.4903 144.788 14.7541 145.602 14.7464 145.611C14.696 145.667 14.6283 145.698 14.5588 145.703Z" fill="white"/>
<path d="M16.1851 147.523C16.111 147.529 16.0351 147.506 15.9756 147.452C15.8598 147.348 15.8502 147.171 15.9541 147.055C15.9889 147.016 16.8128 146.105 17.7077 145.873C18.8986 145.563 19.6031 146.351 19.6329 146.385C19.7354 146.502 19.7235 146.68 19.6063 146.782C19.4897 146.884 19.3117 146.872 19.2097 146.755C19.1905 146.734 18.6959 146.199 17.8491 146.418C17.1171 146.608 16.3805 147.422 16.3732 147.431C16.3228 147.487 16.2551 147.518 16.1851 147.523Z" fill="white"/>
<path d="M32.2649 79.6808C32.2649 79.6808 32.065 80.8237 31.7201 82.7177C31.6299 83.2192 31.5293 83.7732 31.4186 84.3757C30.251 90.7318 28.0747 102.217 26.149 110.327C23.4498 121.696 16.7158 140.145 16.7158 140.145L11.7725 139.47L11.2839 139.4L10.1122 139.241C10.1122 139.241 12.1586 127.344 14.2723 117.05C15.6658 110.26 17.7319 94.0702 18.9754 83.8391C19.6159 78.5636 20.0409 74.8711 20.0409 74.8711L32.2649 79.6808Z" fill="#3C3C48"/>
<path d="M32.2644 79.6819C32.2644 79.6819 32.0644 80.8247 31.7195 82.7188C31.6294 83.2202 31.5287 83.7742 31.418 84.3768C29.0861 84.5712 22.7643 84.2267 18.9744 83.841C19.6149 78.5656 20.0399 74.873 20.0399 74.873L32.2644 79.6819Z" fill="#1A100E"/>
<path d="M22.0505 81.6492C22.0056 82.0422 17.7449 119.343 11.7727 139.47L11.2841 139.4C17.2545 119.337 21.5207 81.9831 21.5651 81.5947L22.0505 81.6492Z" fill="#1A100E"/>
<path d="M48.2344 139.72L48.1054 144.167L44.04 143.984L43.911 139.263L48.2344 139.72Z" fill="#F8D8C2"/>
<path d="M47.0682 143.97C47.0682 143.97 47.9448 142.81 48.6342 142.864C49.3237 142.919 54.6143 147.186 56.4347 147.548C58.2551 147.91 57.8918 149.25 57.5528 149.933C57.2138 150.617 43.0143 149.573 43.0143 149.573C43.0143 149.573 42.6537 145.342 43.1268 144.051C43.6003 142.762 45.6408 144.266 47.0682 143.97Z" fill="#0070D4"/>
<path d="M49.9898 146.941C49.9253 146.96 49.853 146.954 49.7903 146.917C49.6682 146.846 49.6265 146.691 49.697 146.569C49.7208 146.528 50.284 145.565 51.0361 145.192C52.0362 144.696 52.8098 145.265 52.8423 145.289C52.9549 145.374 52.9773 145.534 52.8926 145.647C52.808 145.759 52.6479 145.782 52.5349 145.697C52.5138 145.681 51.9753 145.298 51.263 145.65C50.6504 145.953 50.1444 146.816 50.1394 146.824C50.1051 146.884 50.0506 146.924 49.9898 146.941Z" fill="white"/>
<path d="M49.2308 146.217C49.1662 146.236 49.0944 146.23 49.0313 146.193C48.9091 146.123 48.8675 145.966 48.938 145.844C48.9617 145.803 49.5249 144.84 50.2766 144.468C51.2776 143.971 52.0504 144.54 52.0828 144.565C52.1954 144.65 52.2178 144.81 52.1327 144.922C52.0481 145.035 51.8879 145.058 51.7754 144.972C51.7543 144.957 51.2154 144.573 50.5031 144.925C49.8877 145.23 49.3845 146.091 49.3794 146.1C49.346 146.159 49.2916 146.2 49.2308 146.217Z" fill="white"/>
<path d="M51.0147 147.532C50.9502 147.552 50.8779 147.545 50.8152 147.508C50.6931 147.438 50.6514 147.281 50.7219 147.159C50.7457 147.118 51.3089 146.155 52.061 145.783C53.062 145.286 53.8347 145.855 53.8672 145.88C53.9798 145.965 54.0022 146.125 53.9175 146.237C53.8329 146.35 53.6723 146.373 53.5598 146.287C53.5387 146.272 52.9998 145.888 52.2875 146.24C51.6721 146.545 51.1689 147.406 51.1638 147.415C51.13 147.474 51.0755 147.515 51.0147 147.532Z" fill="white"/>
<path d="M48.9817 140.873L44.8482 140.598L44.3559 140.568L43.3517 140.501C43.3517 140.501 40.6259 116.369 39.7864 109.941C39.0567 104.358 35.7549 91.8253 33.6142 84.028C33.0075 81.8146 32.4933 79.9828 32.1552 78.7992C31.8972 77.8682 31.7444 77.3393 31.7444 77.3393L45.5441 75.8945C45.5441 75.8945 45.5848 76.1974 45.6529 76.7432C45.7961 77.8595 46.0711 79.9983 46.4037 82.6871C47.3233 90.0044 48.7237 101.392 49.2773 107.191C50.6969 122.121 48.9817 140.873 48.9817 140.873Z" fill="#3C3C48"/>
<path d="M46.4053 82.687L33.6158 84.028C33.0092 81.8146 32.495 79.9828 32.1569 78.7992L45.6546 76.7432C45.7978 77.8599 46.0727 79.9988 46.4053 82.687Z" fill="#1A100E"/>
<path d="M44.8483 140.598L44.356 140.567C44.0581 133.101 43.1793 114.454 41.6215 106.558C39.6629 96.605 35.2256 82.1246 35.1803 81.9786L35.6492 81.835C35.6945 81.9814 40.1396 96.487 42.1009 106.465C43.6688 114.41 44.5541 133.146 44.8483 140.598Z" fill="#1A100E"/>
<path d="M44.4899 46.2411C46.2975 52.3496 51.0747 56.7403 51.0747 56.7403C53.7859 58.0273 62.5782 60.2937 65.0917 59.8024C67.0215 59.5279 69.8424 59.0534 70.1325 56.9407C66.6975 56.8066 54.242 51.2182 54.242 51.2182C49.699 40.2633 46.464 29.5161 46.464 29.5161C42.8863 33.2599 44.4899 46.2411 44.4899 46.2411Z" fill="#0070D4"/>
<path d="M32.3675 23.0928C32.3675 23.0928 25.2117 24.9974 22.2357 27.4436C22.2357 27.4436 18.2554 29.0568 18.2797 53.7615C18.2934 67.5072 19.5794 77.721 19.5794 77.721C19.5794 77.721 24.3933 79.3474 31.7197 79.6521C39.0466 79.9563 46.4783 77.721 46.4783 77.721C46.4783 77.721 43.7502 62.3287 43.72 54.4967C43.6898 46.6647 46.4614 29.5166 46.4614 29.5166L38.0886 24.2329L32.3675 23.0928Z" fill="#259BFF"/>
<path d="M35.8061 29.5094C33.0693 29.3442 30.7201 26.2831 30.618 26.149C30.5535 26.0639 30.5705 25.9427 30.6556 25.8782C30.7407 25.8137 30.8619 25.8302 30.9264 25.9157C30.9511 25.9482 33.4116 29.1539 36.0655 29.1297C36.1717 29.1283 36.2595 29.2143 36.2609 29.3214C36.2618 29.428 36.1763 29.5153 36.0692 29.5167C35.9814 29.5172 35.8935 29.5149 35.8061 29.5094Z" fill="#0070D4"/>
<path d="M28.8726 65.4641C28.7761 65.4581 28.697 65.3808 28.6915 65.2815C28.6855 65.1749 28.7674 65.0839 28.874 65.0779C35.9928 64.6904 39.6587 52.6302 39.6949 52.5085C39.7251 52.406 39.833 52.3479 39.9355 52.3781C40.038 52.4087 40.0961 52.5163 40.0659 52.6187C39.9149 53.1266 36.2833 65.0624 28.8951 65.4645C28.8877 65.4645 28.8804 65.4645 28.8726 65.4641Z" fill="#0070D4"/>
<path d="M31.9094 61.9311C31.8445 61.9274 31.7832 61.8908 31.7502 61.8295C31.6999 61.7353 31.7351 61.6182 31.8294 61.5674C35.7291 59.4757 36.4945 56.0924 36.5019 56.0586C36.5243 55.9543 36.6263 55.8865 36.7311 55.9099C36.8354 55.9323 36.9022 56.0348 36.8802 56.1391C36.8496 56.2846 36.0777 59.7282 32.0124 61.9087C31.9794 61.926 31.9437 61.9334 31.9094 61.9311Z" fill="#0070D4"/>
<path d="M52.1487 57.2255L51.2561 57.2361L50.3439 60.5045C55.1554 63.3456 57.582 62.6099 58.3593 62.3688C59.1366 62.1277 59.0497 61.2474 59.0497 61.2474C59.7177 60.8686 59.5237 60.1751 59.5237 60.1751C60.5563 59.5744 60.1806 58.8684 60.1806 58.8684C60.1806 58.8684 60.6313 58.6282 60.4593 57.8418C60.2872 57.0553 59.3974 56.9391 58.444 56.7186C57.4901 56.4981 57.0673 56.3701 55.4701 56.3701C52.8394 56.9495 52.9466 57.2159 52.1487 57.2255Z" fill="#F8D8C2"/>
<path d="M51.3027 56.7259C51.3027 56.7259 36.8251 53.1075 31.3593 50.1781C31.3593 50.1781 29.4226 44.5311 28.0497 39.9305C27.1603 36.9494 25.9717 34.0648 24.4688 31.3413C23.6256 29.8132 23.0268 28.1868 22.2339 27.4434C22.2339 27.4434 17.9 30.569 20.6889 41.5839C22.2069 47.5795 24.5914 51.6938 25.4968 54.0435C25.9534 55.2284 28.052 56.4912 29.1889 57.0566C32.7258 58.8166 40.6104 61.8696 50.1018 60.9294C50.1018 60.9294 51.4693 58.2338 51.3027 56.7259Z" fill="#0070D4"/>
<path d="M70.0717 55.9888C70.0717 55.9888 71.4424 56.9318 71.2009 57.9726C70.9593 59.0134 69.0465 56.563 69.0465 56.563C69.0465 56.563 70.9913 59.0564 70.3851 59.739C69.7789 60.4211 67.8167 58.0764 67.8167 58.0764C67.8167 58.0764 69.6897 60.8022 69.2775 61.3714C68.8648 61.9405 66.4657 59.47 66.4657 59.47C66.4657 59.47 67.5404 61.2428 67.0701 61.7882C66.7201 62.194 65.0488 60.7807 64.4925 59.7376C63.9362 58.6945 65.4629 58.2544 65.4629 58.2544C65.4629 58.2544 66.2035 57.0608 66.8623 57.0923C66.8623 57.0923 67.4082 55.8914 68.1392 55.6901C68.1392 55.6901 68.9577 54.9901 70.0717 55.9888Z" fill="#F8D8C2"/>
<path d="M64.647 59.4897C64.647 59.4897 63.2246 59.805 63.6835 61.667C63.6835 61.667 64.006 60.7117 64.647 59.9939V59.4897Z" fill="#F8D8C2"/>
<path d="M44.825 11.4148C44.0774 15.6426 40.0445 18.4641 35.8172 17.7165C31.5894 16.9689 29.1774 12.9836 29.925 8.75583C30.6726 4.52804 34.296 1.65904 38.5238 2.4066C42.7511 3.15416 45.5725 7.18751 44.825 11.4148Z" fill="#3C3C48"/>
<path d="M44.4339 8.61769C44.4339 8.61769 47.1909 7.80013 46.2333 5.71072C45.2758 3.62176 47.0701 3.38888 45.9574 1.79357C44.956 0.357468 42.969 1.75011 42.0984 0.574781C41.2278 -0.600545 38.9887 -1.39477 37.8573 -0.121537C36.8161 1.05104 35.4724 0.400931 34.0898 0.400931C31.7831 0.400931 32.5668 2.66374 32.0008 3.92599C31.4349 5.18825 29.6667 6.58592 31.5658 7.66929C33.4644 8.75265 44.4339 8.61769 44.4339 8.61769Z" fill="#3C3C48"/>
<path d="M43.1609 13.3307C43.1609 13.3307 44.6592 11.9285 45.3245 13.4245C45.9897 14.921 44.0169 18.6441 41.9801 17.2899L43.1609 13.3307Z" fill="#FB927E"/>
<path d="M42.6785 16.1542C42.7599 16.1688 42.8446 16.1281 42.8821 16.0498C43.4398 14.8914 44.7899 14.6201 44.8036 14.6179C44.9061 14.5982 44.9738 14.4989 44.9541 14.3964C44.9345 14.2939 44.8356 14.2262 44.7332 14.2454C44.67 14.2573 43.1827 14.5515 42.5408 15.8856C42.4955 15.9798 42.5353 16.0933 42.6295 16.1386C42.6456 16.1459 42.662 16.1514 42.6785 16.1542Z" fill="#E6765D"/>
<path d="M44.0633 15.7657C44.0981 15.7716 44.1347 15.7684 44.1694 15.7538C44.266 15.7131 44.3113 15.6024 44.271 15.5058C44.2642 15.4898 44.1013 15.1092 43.6708 14.8177C43.5848 14.7592 43.4663 14.7816 43.4077 14.8685C43.3491 14.955 43.3716 15.073 43.4585 15.1316C43.7916 15.3571 43.921 15.6499 43.9219 15.6527C43.9476 15.714 44.002 15.7552 44.0633 15.7657Z" fill="#E6765D"/>
<path d="M33.0599 19.167L32.3658 23.0937C32.3658 23.0937 33.6743 25.1095 35.2339 25.5258C36.7913 25.9435 38.086 24.2343 38.086 24.2343L38.7535 20.4585L33.0599 19.167Z" fill="#F8D8C2"/>
<path d="M33.0605 19.167L32.7526 20.9092C33.6067 22.2762 35.4418 22.9043 38.3076 22.9858L38.7545 20.4581L33.0605 19.167Z" fill="#FB927E"/>
<path d="M30.3355 13.4002C30.341 13.7932 30.3588 14.1665 30.394 14.5037C30.4293 14.8381 30.4736 15.2009 30.5349 15.5797C31.0309 18.6404 32.5759 22.7557 38.0503 21.826C40.7675 21.3662 42.4543 18.7287 43.4951 15.927C43.7444 15.2544 43.9563 14.5718 44.1361 13.9085C44.465 12.6956 44.6855 11.5441 44.8305 10.6236C45.0579 9.16918 44.5016 7.70426 43.367 6.76638C40.2935 4.22678 36.5616 4.31187 34.0275 4.80414C32.2689 5.14636 30.9293 6.57743 30.7019 8.35025C30.5052 9.88884 30.3135 11.8227 30.3355 13.4002Z" fill="#F8D8C2"/>
<path d="M30.5372 15.5787C31.0332 18.6394 32.5782 22.7546 38.0526 21.825C40.7697 21.3652 42.4566 18.7277 43.4974 15.9259C43.7467 15.2534 43.9585 14.5708 44.1383 13.9074L43.351 13.9884C42.9186 15.209 42.2804 16.9864 41.6834 17.7683C41.1467 16.3295 37.1829 16.6831 37.1829 16.6831C37.1829 16.6831 33.4474 14.7428 32.1193 15.9717C31.7656 14.4034 32.0776 12.3355 32.0776 12.3355L31.0904 12.0234C31.0904 12.0234 30.7619 13.8018 30.5372 15.5787ZM36.735 17.3634C38.0014 17.3845 38.8066 17.5995 39.3144 17.9069C40.1128 18.391 39.9911 19.5786 39.1223 19.9213C38.608 20.124 38.1272 20.2278 37.6111 20.2631C36.7263 20.3257 35.121 20.0924 33.8619 19.1541C33.3134 18.7451 33.1327 17.9797 33.5138 17.4115C33.8862 16.8556 34.7563 16.528 36.735 17.3634Z" fill="#3C3C48"/>
<path d="M40.1631 13.3277C40.089 13.7467 40.245 14.1246 40.5117 14.1718C40.778 14.2189 41.0543 13.9174 41.1284 13.4983C41.2025 13.0793 41.0465 12.7009 40.7798 12.6538C40.5135 12.6066 40.2372 12.9086 40.1631 13.3277Z" fill="#3C3C48"/>
<path d="M34.51 12.3306C34.4359 12.7497 34.5919 13.1276 34.8586 13.1747C35.1249 13.2219 35.4012 12.9204 35.4753 12.5013C35.5495 12.0822 35.3935 11.7043 35.1272 11.6572C34.8609 11.6101 34.5841 11.9116 34.51 12.3306Z" fill="#3C3C48"/>
<path d="M42.6252 11.36C42.6252 11.36 40.7568 10.2112 39.0924 10.606L39.0947 11.3467C39.0947 11.3467 40.8355 11.269 42.3677 12.1707C42.5287 11.8578 42.6957 11.7237 42.6252 11.36Z" fill="#3C3C48"/>
<path d="M33.4344 9.73589C33.4344 9.73589 35.5833 9.29714 37.0116 10.2387L36.7559 10.9336C36.7559 10.9336 35.1469 10.2634 33.3987 10.5855C33.3553 10.2364 33.2441 10.0529 33.4344 9.73589Z" fill="#3C3C48"/>
<path d="M36.962 15.8427C36.6472 15.7869 36.3567 15.6094 36.3119 15.581C36.2236 15.5252 36.197 15.4085 36.2529 15.3198C36.3082 15.2315 36.4258 15.2049 36.5141 15.2603C36.6706 15.3582 37.0558 15.5371 37.2498 15.4634C37.2873 15.4488 37.3404 15.4172 37.3724 15.306C37.5549 14.6664 37.7626 12.4517 37.7645 12.4292C37.7741 12.3249 37.8665 12.2485 37.9703 12.2581C38.0751 12.2677 38.151 12.3602 38.1414 12.4645C38.1327 12.5569 37.9282 14.7369 37.7361 15.4103C37.6638 15.6638 37.5051 15.7718 37.3843 15.818C37.2525 15.8683 37.1047 15.8683 36.962 15.8427Z" fill="#FB927E"/>
<path d="M43.1352 14.6089C43.412 13.8645 43.7267 12.8965 43.7153 12.3694C43.6929 11.4366 43.0409 10.775 43.4426 9.95059C43.8457 9.12251 43.0926 8.02724 42.443 7.75274C41.7956 7.47641 40.1564 7.53406 38.7322 6.52069C37.3729 5.55261 34.7043 5.60156 34.115 6.47951C33.4027 7.54275 34.0757 7.77425 32.4667 8.77572C31.8262 9.17512 32.2539 10.5819 32.199 11.4379C32.1729 11.8318 32.1455 12.0212 32.0572 12.4335L32.0142 12.643L30.3525 12.3493C30.3997 11.0147 30.5488 9.5608 30.7039 8.34978C30.9308 6.57559 32.2718 5.14635 34.0304 4.80413C36.565 4.3114 40.2955 4.22539 43.3703 6.76682C44.504 7.7047 45.0617 9.1678 44.8325 10.6222C44.6546 11.7518 44.3627 13.23 43.8965 14.7434L43.1352 14.6089Z" fill="#3C3C48"/>
<path d="M30.961 13.1968C31.0429 12.7631 31.0891 12.323 31.0891 11.8819C31.0886 11.2785 31.0127 10.7171 30.4568 10.3676C30.0099 10.0862 29.4961 9.99151 29.0335 10.4696C27.8957 11.6472 28.1643 15.9848 30.5424 15.4111L30.961 13.1968Z" fill="#F8D8C2"/>
<path d="M30.3288 14.1239C30.2515 14.0937 30.2007 14.015 30.2094 13.9285C30.3357 12.6489 29.3232 11.7156 29.3132 11.706C29.2358 11.6355 29.2294 11.5161 29.2999 11.4383C29.3699 11.361 29.4897 11.3546 29.5671 11.4246C29.6146 11.4676 30.7319 12.4924 30.5868 13.9656C30.5763 14.0694 30.4839 14.1454 30.3796 14.1353C30.3617 14.1339 30.3448 14.1303 30.3288 14.1239Z" fill="#FB927E"/>
<path d="M29.3509 13.0718C29.3179 13.059 29.2887 13.0371 29.2662 13.0064C29.2049 12.9218 29.2237 12.8033 29.3088 12.742C29.323 12.7319 29.6602 12.4917 30.1794 12.4666C30.2833 12.4611 30.3725 12.5421 30.3775 12.6464C30.3826 12.7507 30.302 12.8399 30.1977 12.8449C29.796 12.8646 29.5334 13.0471 29.5307 13.049C29.4767 13.0879 29.4085 13.0943 29.3509 13.0718Z" fill="#FB927E"/>
</g>
<defs>
<clipPath id="clip0_62_69944">
<rect width="150" height="150" fill="white" transform="translate(0.046875 0.44043)"/>
</clipPath>
</defs>
</svg>
