<svg width="154" height="133" viewBox="0 0 154 133" fill="none" xmlns="http://www.w3.org/2000/svg">
<path opacity="0.7" d="M77.0477 132.349C119.116 132.349 153.219 111.367 153.219 85.4838C153.219 59.6006 119.116 38.6182 77.0477 38.6182C34.9795 38.6182 0.876465 59.6006 0.876465 85.4838C0.876465 111.367 34.9795 132.349 77.0477 132.349Z" fill="#BAD1FF"/>
<path opacity="0.15" d="M43.2655 114.151C44.1158 114.637 44.7134 115.115 45.6132 115.159C46.7991 115.219 48.053 114.74 49.1636 113.867C49.1636 113.867 48.2169 115.525 46.069 115.662C44.087 115.789 43.2655 114.151 43.2655 114.151Z" fill="black"/>
<path opacity="0.15" d="M43.3983 115.524C43.925 115.975 45.0142 116.426 46.2155 116.227C46.2155 116.227 45.7859 116.616 44.7274 116.438C43.6222 116.252 43.3983 115.524 43.3983 115.524Z" fill="black"/>
<path opacity="0.15" d="M62.1714 102.651C64.1751 103.379 65.438 104.234 65.1897 104.824C64.9414 105.414 63.6963 106.345 63.6963 106.345C63.6963 106.345 65.4072 105.414 65.873 104.886C66.3388 104.358 65.8435 103.862 64.5388 103.303C63.2335 102.744 62.1714 102.651 62.1714 102.651Z" fill="black"/>
<path opacity="0.1" d="M48.7991 117.069C51.7491 116.071 54.9407 113.947 57.6773 112.511C60.5681 110.994 63.3786 109.324 66.1044 107.528C66.9069 106.998 67.7591 106.354 67.9435 105.411C68.0904 104.659 67.8063 104.343 67.1913 103.897C65.9562 103.001 64.5789 102.302 63.1276 101.831C62.444 101.609 61.7905 101.367 61.0717 101.401C60.2586 101.438 59.4508 101.55 58.6457 101.666C57.6515 101.809 56.6413 102.333 55.7398 102.763C54.7567 103.232 53.802 103.757 52.848 104.282C50.7549 105.434 48.6619 106.587 46.5685 107.739C44.2914 108.993 43.0516 109.654 40.3559 111.399C39.8255 111.742 38.398 112.617 38.3766 113.248C38.3548 113.887 38.8377 114.425 39.3292 114.834C41.945 117.01 45.6027 118.15 48.7991 117.069Z" fill="black"/>
<mask id="mask0_62_70139" style="mask-type:luminance" maskUnits="userSpaceOnUse" x="41" y="95" width="24" height="20">
<path d="M41.8208 112.027L45.9511 114.411L64.537 103.681C64.537 100.783 60.1317 93.4625 52.6586 96.4386C45.1854 99.4147 42.3244 108.406 41.8208 112.027Z" fill="white"/>
</mask>
<g mask="url(#mask0_62_70139)">
<path d="M57.7877 97.7429C56.4519 96.9829 54.6927 96.992 52.7094 97.946C48.0173 100.203 43.8476 106.892 43.3955 112.888C43.1395 116.281 44.1307 118.723 45.8895 119.795C46.3406 120.07 48.0866 121.06 48.5032 121.308C49.8471 122.106 51.6313 122.112 53.647 121.143C58.3391 118.886 62.5092 112.196 62.9609 106.201C63.2209 102.754 62.1947 100.29 60.384 99.2446C59.955 98.9967 58.2311 97.9948 57.7877 97.7429Z" fill="#259BFF"/>
<path opacity="0.25" d="M57.7877 97.7429C56.4519 96.9829 54.6927 96.992 52.7094 97.946C48.0173 100.203 43.8476 106.892 43.3955 112.888C43.1395 116.281 44.1307 118.723 45.8895 119.795C46.3406 120.07 48.0866 121.06 48.5032 121.308C49.8471 122.106 51.6313 122.112 53.647 121.143C58.3391 118.886 62.5092 112.196 62.9609 106.201C63.2209 102.754 62.1947 100.29 60.384 99.2446C59.955 98.9967 58.2311 97.9948 57.7877 97.7429Z" fill="black"/>
<path opacity="0.1" d="M62.2592 109.866L48.1274 101.707C45.5619 104.784 43.6897 108.982 43.3955 112.887C43.1395 116.28 44.1307 118.722 45.8895 119.794C46.3406 120.069 48.0866 121.059 48.5032 121.307C49.8471 122.105 51.6313 122.112 53.647 121.142C57.3942 119.34 60.8056 114.711 62.2592 109.866Z" fill="black"/>
<path opacity="0.1" d="M44.1775 108.965C43.7663 110.27 43.4929 111.595 43.3955 112.887C43.1395 116.28 44.1307 118.722 45.8895 119.794C46.3406 120.069 48.0866 121.059 48.5032 121.307C49.8471 122.105 51.6313 122.112 53.647 121.142C55.3506 120.323 56.9842 118.918 58.3967 117.174L44.1775 108.965Z" fill="black"/>
<path d="M55.286 99.432C50.5939 101.689 46.4241 108.378 45.9721 114.374C45.52 120.369 48.9572 123.399 53.6493 121.142C58.3414 118.885 62.5111 112.196 62.9632 106.2C63.415 100.205 59.9777 97.175 55.286 99.432Z" fill="#259BFF"/>
<path opacity="0.2" d="M55.286 99.432C50.5939 101.689 46.4241 108.378 45.9721 114.374C45.52 120.369 48.9572 123.399 53.6493 121.142C58.3414 118.885 62.5111 112.196 62.9632 106.2C63.415 100.205 59.9777 97.175 55.286 99.432Z" fill="black"/>
<path d="M59.9315 107.567C59.712 109.399 58.9641 111.415 57.8221 113.247C56.681 115.078 55.2753 116.517 53.8662 117.297C52.3731 118.124 51.0329 118.122 50.0946 117.295C49.1563 116.468 48.7672 114.945 48.9987 113.006C49.2152 111.174 49.9645 109.156 51.1055 107.326C52.2476 105.494 53.6523 104.056 55.0638 103.275C56.5559 102.45 57.8943 102.45 58.8326 103.277C59.7712 104.105 60.1618 105.629 59.9315 107.567Z" fill="#259BFF"/>
<path opacity="0.4" d="M59.9315 107.567C59.712 109.399 58.9641 111.415 57.8221 113.247C56.681 115.078 55.2753 116.517 53.8662 117.297C52.3731 118.124 51.0329 118.122 50.0946 117.295C49.1563 116.468 48.7672 114.945 48.9987 113.006C49.2152 111.174 49.9645 109.156 51.1055 107.326C52.2476 105.494 53.6523 104.056 55.0638 103.275C56.5559 102.45 57.8943 102.45 58.8326 103.277C59.7712 104.105 60.1618 105.629 59.9315 107.567Z" fill="black"/>
<path d="M60.7651 100.181C59.4681 99.0372 57.5953 98.9646 55.4952 99.9735C53.3061 101.029 51.1561 103.12 49.4465 105.863C47.7369 108.605 46.6812 111.657 46.4684 114.455C46.2656 117.14 46.8699 119.248 48.1673 120.392C49.4666 121.537 51.3358 121.61 53.4372 120.599C55.6283 119.545 57.777 117.457 59.4865 114.714C61.1961 111.971 62.2535 108.917 62.464 106.118C62.6651 103.434 62.0641 101.326 60.7651 100.181ZM58.8344 103.278C59.7726 104.105 60.1631 105.63 59.9329 107.567C59.7134 109.399 58.9655 111.416 57.8235 113.248C56.6824 115.078 55.2767 116.517 53.8676 117.297C52.3745 118.124 51.0343 118.123 50.096 117.296C49.1577 116.469 48.7686 114.946 49.0001 113.006C49.2166 111.175 49.9659 109.157 51.1069 107.326C52.249 105.494 53.6537 104.057 55.0652 103.276C56.5576 102.451 57.8961 102.451 58.8344 103.278Z" fill="#259BFF"/>
<path opacity="0.2" d="M57.9519 112.192C60.0343 108.378 60.1617 104.434 58.2365 103.383C56.3113 102.332 53.0625 104.572 50.9801 108.386C48.8977 112.2 48.7703 116.144 50.6955 117.195C52.6207 118.246 55.8695 116.006 57.9519 112.192Z" fill="black"/>
<path d="M57.9519 112.192C60.0343 108.378 60.1617 104.434 58.2365 103.383C56.3113 102.332 53.0625 104.572 50.9801 108.386C48.8977 112.2 48.7703 116.144 50.6955 117.195C52.6207 118.246 55.8695 116.006 57.9519 112.192Z" fill="#259BFF"/>
<path opacity="0.6" d="M57.9519 112.192C60.0343 108.378 60.1617 104.434 58.2365 103.383C56.3113 102.332 53.0625 104.572 50.9801 108.386C48.8977 112.2 48.7703 116.144 50.6955 117.195C52.6207 118.246 55.8695 116.006 57.9519 112.192Z" fill="black"/>
<path d="M58.7388 106.772C58.3065 110.412 55.6837 114.62 52.8809 116.17C51.7218 116.81 50.7146 116.895 49.961 116.519C49.439 115.771 49.2141 114.599 49.3931 113.094C49.8255 109.454 52.4482 105.247 55.251 103.697C56.4102 103.056 57.4177 102.971 58.171 103.347C58.693 104.095 58.9175 105.266 58.7388 106.772Z" fill="#259BFF"/>
<path opacity="0.5" d="M58.7388 106.772C58.3065 110.412 55.6837 114.62 52.8809 116.17C51.7218 116.81 50.7146 116.895 49.961 116.519C49.439 115.771 49.2141 114.599 49.3931 113.094C49.8255 109.454 52.4482 105.247 55.251 103.697C56.4102 103.056 57.4177 102.971 58.171 103.347C58.693 104.095 58.9175 105.266 58.7388 106.772Z" fill="black"/>
<path d="M57.2324 107.31C57.0119 107.149 56.4648 106.871 56.1998 106.714C55.9428 106.561 55.7039 106.562 55.4435 106.72L55.6821 105.994C55.554 105.978 54.6495 105.398 54.6495 105.398C54.5213 105.381 54.3901 105.402 54.2617 105.446C54.0264 105.531 53.7888 105.712 53.5553 105.959C53.1403 106.397 52.7786 106.963 52.4239 107.648L51.8637 107.347L50.9957 109.293L51.1118 109.38L51.5127 109.676C51.5127 109.676 51.0292 110.588 50.9355 111.954C50.9315 112.012 50.9298 112.063 50.9281 112.114C50.9077 112.676 51.0265 113.097 51.3166 113.306C51.3163 113.311 51.3163 113.311 51.3163 113.311C51.5345 113.467 52.2087 113.815 52.3493 113.902C52.3489 113.907 52.3489 113.907 52.3489 113.907C52.6263 114.106 52.9285 114.026 53.2364 113.78L53.0353 114.399L54.0679 114.995C54.6983 114.972 55.4268 114.211 56.1958 112.752L56.7151 113.127L57.5915 111.164L57.0722 110.788C57.3971 109.933 57.5908 109.177 57.628 108.584L57.629 108.568C57.6628 107.969 57.5396 107.533 57.2324 107.31Z" fill="#259BFF"/>
<path d="M52.143 109.976L52.5439 110.272C52.5439 110.272 52.0603 111.184 51.9666 112.55C51.9626 112.608 51.9609 112.659 51.9593 112.71C51.9389 113.272 52.0576 113.693 52.3478 113.902C52.3474 113.907 52.3474 113.907 52.3474 113.907C52.6566 114.129 52.9969 114.005 53.3409 113.69C53.37 113.663 53.4015 113.63 53.4306 113.603L53.4403 113.594C53.4718 113.561 53.5032 113.527 53.5347 113.493C53.5621 113.463 53.5899 113.433 53.618 113.397C53.63 113.381 53.6418 113.371 53.6518 113.357C53.6735 113.332 53.6953 113.307 53.7154 113.279C53.8947 113.055 54.0711 112.795 54.2424 112.529C54.3261 112.399 54.41 112.262 54.4927 112.122C54.6122 111.924 54.7296 111.723 54.8414 111.532C54.8869 111.45 54.9304 111.376 54.9739 111.302C55.2888 110.752 55.5237 110.354 55.707 110.127C55.8228 109.982 55.9195 109.898 56.0045 109.885C56.0507 109.877 56.0935 109.887 56.1337 109.915C56.29 110.029 56.2886 110.421 55.9245 111.238C55.5367 112.107 55.175 112.492 54.8956 112.446L54.0664 114.994C54.6968 114.971 55.4253 114.211 56.1943 112.751L56.7136 113.127L57.59 111.163L57.0706 110.788C57.3956 109.932 57.5896 109.176 57.6264 108.584L57.6274 108.568C57.6612 107.968 57.5381 107.532 57.2306 107.309C56.5483 106.811 55.7649 107.898 55.0308 109.138C54.3481 110.297 53.8335 111.395 53.5015 111.155C53.2951 111.003 53.3951 110.501 53.6816 109.858C54.1383 108.832 54.5743 108.616 54.8002 108.672L55.6803 105.993C55.5521 105.977 55.4213 105.998 55.2924 106.041C55.0575 106.126 54.8196 106.307 54.5861 106.554C54.1711 106.993 53.7682 107.639 53.4135 108.324L52.8945 107.943L52.0265 109.889L52.143 109.976Z" fill="#259BFF"/>
<path d="M52.0308 109.889L52.9543 108.187L53.4174 108.324L52.8988 107.943L52.0308 109.889Z" fill="#F5F5F5"/>
<path d="M55.4457 106.201L54.8042 108.672L55.6843 105.993C55.5561 105.977 55.4253 105.998 55.2965 106.041C55.0616 106.126 54.824 106.307 54.5901 106.554C54.4335 106.72 54.2782 106.915 54.127 107.131C54.1343 107.122 54.141 107.114 54.149 107.103C54.6677 106.416 55.4457 106.201 55.4457 106.201Z" fill="#F5F5F5"/>
<path d="M54.8987 112.447L54.0695 114.995L54.9492 112.613C54.9492 112.613 55.4615 112.405 55.7693 111.696C56.0538 111.04 56.0969 110.818 56.0969 110.818L56.0936 110.821C56.0491 110.947 55.9966 111.083 55.9273 111.239C55.5398 112.108 55.1781 112.493 54.8987 112.447Z" fill="#F5F5F5"/>
<path d="M56.1967 112.752L56.6865 113.01L57.5924 111.164L56.716 113.127L56.1967 112.752Z" fill="#F5F5F5"/>
<path opacity="0.3" d="M51.9605 112.711C51.9622 112.66 51.9639 112.608 51.9679 112.551C52.0616 111.185 52.5451 110.272 52.5451 110.272L52.1442 109.977L52.0281 109.89L52.8961 107.944L53.4148 108.325C53.7695 107.64 54.1724 106.994 54.5873 106.555C54.8212 106.308 55.0588 106.127 55.2937 106.042C55.4225 105.999 55.5534 105.978 55.6815 105.994C55.5534 105.978 54.6489 105.398 54.6489 105.398C54.5207 105.382 54.3895 105.403 54.261 105.446C54.0258 105.531 53.7882 105.712 53.5547 105.959C53.1397 106.398 52.778 106.963 52.4233 107.648L51.8631 107.348L50.9951 109.294L51.1112 109.38L51.5121 109.676C51.5121 109.676 51.0286 110.588 50.9349 111.954C50.9309 112.012 50.9292 112.063 50.9275 112.114C50.9071 112.677 51.0259 113.097 51.316 113.306C51.3157 113.311 51.3157 113.311 51.3157 113.311C51.5339 113.468 52.2081 113.815 52.3487 113.902C52.0589 113.693 51.9404 113.273 51.9605 112.711Z" fill="black"/>
<path opacity="0.3" d="M55.9278 111.239C56.2919 110.421 56.2932 110.03 56.1369 109.915C56.0971 109.888 56.054 109.878 56.0078 109.885C55.9231 109.899 55.8261 109.982 55.7103 110.128C55.5269 110.354 55.292 110.752 54.9771 111.302C54.9336 111.377 54.8905 111.451 54.8446 111.532C54.7332 111.723 54.6154 111.925 54.4959 112.123C54.4136 112.263 54.3293 112.399 54.2456 112.53C54.0743 112.796 53.898 113.056 53.7186 113.279C53.6985 113.308 53.6768 113.333 53.655 113.357C53.645 113.372 53.6333 113.382 53.6212 113.398C53.5935 113.434 53.5657 113.464 53.5383 113.494C53.5068 113.528 53.4753 113.561 53.4439 113.595L53.4342 113.604C53.4051 113.631 53.3736 113.665 53.3445 113.691C53.309 113.723 53.2736 113.753 53.2381 113.781L53.037 114.399L54.0696 114.995L54.8988 112.447C55.1782 112.493 55.54 112.108 55.9278 111.239Z" fill="black"/>
<path opacity="0.3" d="M53.685 109.858C53.3985 110.501 53.2985 111.003 53.5049 111.155C53.8365 111.396 54.3512 110.297 55.0341 109.139C55.768 107.898 56.5517 106.811 57.234 107.309C57.0134 107.148 56.4663 106.871 56.2013 106.713C55.9443 106.56 55.7054 106.562 55.4451 106.719L54.8036 108.672C54.5774 108.617 54.1417 108.832 53.685 109.858Z" fill="black"/>
<path opacity="0.1" d="M53.685 109.858C53.3985 110.501 53.2985 111.003 53.5049 111.155C53.8365 111.396 54.3512 110.297 55.0341 109.139C55.768 107.898 56.5517 106.811 57.234 107.309C57.0134 107.148 56.4663 106.871 56.2013 106.713C55.9443 106.56 55.7054 106.562 55.4451 106.719L54.8036 108.672C54.5774 108.617 54.1417 108.832 53.685 109.858Z" fill="black"/>
<path opacity="0.4" d="M50.9939 109.294L52.0265 109.89L52.5432 110.273L51.5109 109.676L50.9939 109.294Z" fill="black"/>
<path opacity="0.1" d="M51.9675 112.55C52.0612 111.184 52.5448 110.272 52.5448 110.272L51.5121 109.676C51.5121 109.676 51.0286 110.588 50.9349 111.954C50.9309 112.012 50.9292 112.063 50.9275 112.114C50.9071 112.676 51.0259 113.097 51.316 113.306C51.3157 113.311 51.3157 113.311 51.3157 113.311C51.5339 113.467 52.2081 113.815 52.3487 113.902C52.0585 113.693 51.9398 113.273 51.9602 112.71C51.9618 112.659 51.9635 112.608 51.9675 112.55Z" fill="black"/>
<path opacity="0.1" d="M54.2456 112.53C54.0743 112.796 53.898 113.056 53.7186 113.279C53.6985 113.308 53.6768 113.333 53.655 113.357C53.645 113.372 53.6333 113.382 53.6212 113.398C53.5935 113.434 53.5657 113.464 53.5382 113.494C53.5068 113.528 53.4753 113.561 53.4439 113.595L53.4342 113.604C53.4051 113.631 53.3736 113.665 53.3445 113.691C53.309 113.723 53.2736 113.753 53.2381 113.781L53.037 114.399L54.0696 114.995L54.8988 112.447L54.4528 112.194C54.3842 112.308 54.3149 112.422 54.2456 112.53Z" fill="black"/>
<path d="M48.546 106.331C50.2794 103.258 52.703 100.674 55.285 99.432C57.97 98.1403 60.2441 98.5804 61.6137 100.316C61.6137 100.316 59.3098 97.6019 55.2706 99.6957C51.231 101.789 48.546 106.331 48.546 106.331Z" fill="#F5F5F5"/>
</g>
<path opacity="0.15" d="M17.5832 79.5894C16.1711 80.8683 15.7786 81.218 15.9536 81.6955C16.1286 82.1733 18.1912 83.3478 18.1912 83.3478C18.1912 83.3478 16.3237 82.8245 15.6725 82.3252C15.021 81.826 15.0672 81.4144 15.6725 80.7401C16.2775 80.0659 17.5832 79.5894 17.5832 79.5894Z" fill="black"/>
<path opacity="0.15" d="M35.2709 70.4102C37.2047 71.8868 38.5268 72.8961 37.4784 74.0555C36.43 75.215 32.522 77.1776 32.522 77.1776C32.522 77.1776 36.4755 75.98 38.162 74.5488C39.8489 73.1176 37.8502 71.7142 35.2709 70.4102Z" fill="black"/>
<path opacity="0.15" d="M15.0146 80.5693C14.6291 81.1154 14.4524 81.8382 15.111 82.4646C15.111 82.4646 14.334 82.2077 14.34 81.517C14.3457 80.8538 15.0146 80.5693 15.0146 80.5693Z" fill="black"/>
<path opacity="0.1" d="M22.2125 84.9174C25.1625 83.9196 28.3541 81.7947 31.0907 80.3589C33.9815 78.8417 36.792 77.1723 39.5178 75.3757C40.3202 74.8466 41.1725 74.2025 41.3569 73.2592C41.5038 72.5073 41.2197 72.1911 40.6047 71.745C39.3696 70.8492 37.9923 70.1502 36.541 69.6794C35.8574 69.4575 35.2039 69.2153 34.4851 69.2487C33.672 69.2865 32.8642 69.3986 32.0591 69.5144C31.0649 69.6573 30.0547 70.181 29.1535 70.611C28.1704 71.0798 27.2157 71.6048 26.2617 72.1298C24.1687 73.2823 22.0756 74.4347 19.9825 75.5872C17.7054 76.841 16.466 77.5022 13.7699 79.2473C13.2395 79.5906 11.812 80.4653 11.7906 81.0964C11.7689 81.7352 12.2517 82.2729 12.7433 82.6818C15.3584 84.8576 19.0161 85.9986 22.2125 84.9174Z" fill="black"/>
<mask id="mask1_62_70139" style="mask-type:luminance" maskUnits="userSpaceOnUse" x="16" y="62" width="22" height="22">
<path d="M16.3404 81.222L19.4383 83.0102L37.5009 72.5817C37.5009 72.5817 37.5016 59.7673 27.3772 62.5557C14.7847 66.0241 16.3404 81.222 16.3404 81.222Z" fill="white"/>
</mask>
<g mask="url(#mask1_62_70139)">
<path d="M31.0946 63.2414C29.7587 62.4815 27.9996 62.4905 26.0163 63.4445C21.3242 65.7015 17.1545 72.391 16.7024 78.3861C16.4464 81.7795 17.4376 84.2216 19.1964 85.2934C19.6474 85.5684 21.3935 86.5586 21.8101 86.8062C23.1539 87.6046 24.9382 87.611 26.9539 86.6412C31.646 84.3842 35.8161 77.6948 36.2678 71.6997C36.5278 68.253 35.5015 65.7879 33.6909 64.7432C33.2616 64.4956 31.5376 63.4937 31.0946 63.2414Z" fill="#259BFF"/>
<path opacity="0.25" d="M31.0946 63.2414C29.7587 62.4815 27.9996 62.4905 26.0163 63.4445C21.3242 65.7015 17.1545 72.391 16.7024 78.3861C16.4464 81.7795 17.4376 84.2216 19.1964 85.2934C19.6474 85.5684 21.3935 86.5586 21.8101 86.8062C23.1539 87.6046 24.9382 87.611 26.9539 86.6412C31.646 84.3842 35.8161 77.6948 36.2678 71.6997C36.5278 68.253 35.5015 65.7879 33.6909 64.7432C33.2616 64.4956 31.5376 63.4937 31.0946 63.2414Z" fill="black"/>
<path opacity="0.1" d="M35.5661 75.3671L21.4343 67.208C18.8688 70.2852 16.9966 74.4834 16.7024 78.3878C16.4464 81.7812 17.4376 84.2233 19.1964 85.2951C19.6474 85.5701 21.3935 86.5603 21.8101 86.8079C23.1539 87.6063 24.9382 87.6126 26.9543 86.6429C30.701 84.841 34.1129 80.2118 35.5661 75.3671Z" fill="black"/>
<path opacity="0.1" d="M17.4844 74.4653C17.0732 75.7707 16.7998 77.0951 16.7024 78.3875C16.4464 81.7809 17.4376 84.2229 19.1964 85.2947C19.6474 85.5698 21.3935 86.5599 21.8101 86.8076C23.1539 87.606 24.9382 87.6123 26.9543 86.6426C28.6578 85.8231 30.2915 84.418 31.7039 82.675L17.4844 74.4653Z" fill="black"/>
<path d="M28.5929 64.9329C23.9008 67.19 19.731 73.8794 19.279 79.8745C18.8269 85.8696 22.2641 88.9 26.9562 86.6429C31.6483 84.3859 35.818 77.6965 36.2701 71.7014C36.7222 65.7066 33.2849 62.6759 28.5929 64.9329Z" fill="#259BFF"/>
<path opacity="0.2" d="M28.5929 64.9329C23.9008 67.19 19.731 73.8794 19.279 79.8745C18.8269 85.8696 22.2641 88.9 26.9562 86.6429C31.6483 84.3859 35.818 77.6965 36.2701 71.7014C36.7222 65.7066 33.2849 62.6759 28.5929 64.9329Z" fill="black"/>
<path d="M33.2381 73.0684C33.0186 74.9001 32.2707 76.9165 31.1286 78.7486C29.9876 80.579 28.5818 82.0182 27.173 82.7982C25.68 83.6254 24.3398 83.6237 23.4015 82.7969C22.4632 81.9697 22.0741 80.4465 22.3056 78.507C22.5221 76.6756 23.2713 74.6575 24.4124 72.8271C25.5545 70.9951 26.9592 69.5575 28.3707 68.7768C29.8627 67.9517 31.2012 67.9517 32.1395 68.7788C33.0775 69.606 33.4683 71.1306 33.2381 73.0684Z" fill="#259BFF"/>
<path opacity="0.4" d="M33.2381 73.0684C33.0186 74.9001 32.2707 76.9165 31.1286 78.7486C29.9876 80.579 28.5818 82.0182 27.173 82.7982C25.68 83.6254 24.3398 83.6237 23.4015 82.7969C22.4632 81.9697 22.0741 80.4465 22.3056 78.507C22.5221 76.6756 23.2713 74.6575 24.4124 72.8271C25.5545 70.9951 26.9592 69.5575 28.3707 68.7768C29.8627 67.9517 31.2012 67.9517 32.1395 68.7788C33.0775 69.606 33.4683 71.1306 33.2381 73.0684Z" fill="black"/>
<path d="M34.072 65.6815C32.775 64.5377 30.9021 64.4651 28.802 65.474C26.6129 66.5294 24.463 68.6201 22.7534 71.363C21.0438 74.1056 19.9877 77.1577 19.7753 79.9555C19.5725 82.6408 20.1768 84.7483 21.4738 85.8917C22.7731 87.0371 24.6423 87.1104 26.7438 86.0992C28.9349 85.0458 31.0835 82.9571 32.7931 80.2145C34.5027 77.4719 35.5601 74.4178 35.7706 71.618C35.9723 68.9347 35.3714 66.8269 34.072 65.6815ZM32.1413 68.7787C33.0795 69.6059 33.47 71.1305 33.2398 73.0683C33.0203 74.9 32.2724 76.9164 31.1304 78.7485C29.9893 80.5789 28.5835 82.0181 27.1748 82.7981C25.6817 83.6253 24.3415 83.6236 23.4032 82.7968C22.465 81.9696 22.0758 80.4464 22.3073 78.5069C22.5239 76.6755 23.2731 74.6574 24.4141 72.827C25.5562 70.995 26.961 69.5574 28.3724 68.7767C29.8645 67.9519 31.203 67.9516 32.1413 68.7787Z" fill="#259BFF"/>
<path opacity="0.2" d="M31.2564 77.6919C33.3388 73.8778 33.4662 69.9338 31.5409 68.8827C29.6157 67.8315 26.3669 70.0714 24.2845 73.8855C22.2021 77.6996 22.0747 81.6436 23.9999 82.6947C25.9252 83.7458 29.174 81.506 31.2564 77.6919Z" fill="black"/>
<path d="M31.2564 77.6919C33.3388 73.8778 33.4662 69.9338 31.5409 68.8827C29.6157 67.8315 26.3669 70.0714 24.2845 73.8855C22.2021 77.6996 22.0747 81.6436 23.9999 82.6947C25.9252 83.7458 29.174 81.506 31.2564 77.6919Z" fill="#259BFF"/>
<path opacity="0.6" d="M31.2564 77.6919C33.3388 73.8778 33.4662 69.9338 31.5409 68.8827C29.6157 67.8315 26.3669 70.0714 24.2845 73.8855C22.2021 77.6996 22.0747 81.6436 23.9999 82.6947C25.9252 83.7458 29.174 81.506 31.2564 77.6919Z" fill="black"/>
<path d="M32.0431 72.2725C31.6108 75.9125 28.988 80.12 26.1852 81.67C25.0264 82.3108 24.0189 82.3958 23.2653 82.019C22.7433 81.2711 22.5187 80.1 22.6974 78.5948C23.1298 74.9548 25.7525 70.7473 28.5553 69.1973C29.7145 68.5561 30.722 68.4715 31.4753 68.8479C31.9973 69.5958 32.2221 70.767 32.0431 72.2725Z" fill="#259BFF"/>
<path opacity="0.5" d="M32.0431 72.2725C31.6108 75.9125 28.988 80.12 26.1852 81.67C25.0264 82.3108 24.0189 82.3958 23.2653 82.019C22.7433 81.2711 22.5187 80.1 22.6974 78.5948C23.1298 74.9548 25.7525 70.7473 28.5553 69.1973C29.7145 68.5561 30.722 68.4715 31.4753 68.8479C31.9973 69.5958 32.2221 70.767 32.0431 72.2725Z" fill="black"/>
<path d="M30.5393 72.8105C30.3188 72.6496 29.7717 72.3718 29.5067 72.2146C29.2497 72.0616 29.0108 72.0633 28.7504 72.2209L28.989 71.4948C28.8605 71.4787 27.9564 70.8985 27.9564 70.8985C27.8282 70.8824 27.6974 70.9032 27.5685 70.9467C27.3336 71.0317 27.0957 71.2127 26.8621 71.4596C26.4472 71.898 26.0855 72.4635 25.7308 73.1485L25.1706 72.8483L24.3026 74.7942L24.4187 74.8808L24.8196 75.1766C24.8196 75.1766 24.3361 76.0888 24.2424 77.4548C24.2384 77.5126 24.2367 77.5638 24.235 77.6147C24.2146 78.1769 24.3334 78.5975 24.6235 78.8066C24.6232 78.812 24.6232 78.812 24.6232 78.812C24.8414 78.9683 25.5156 79.3156 25.6562 79.4029C25.6558 79.4083 25.6558 79.4083 25.6558 79.4083C25.9332 79.607 26.2357 79.5267 26.5436 79.2811L26.3421 79.8995L27.3748 80.4955C28.0052 80.4724 28.7337 79.7125 29.5027 78.2525L30.022 78.6279L30.8984 76.6644L30.379 76.2889C30.704 75.4333 30.8977 74.6774 30.9348 74.0848L30.9358 74.069C30.9696 73.4701 30.8468 73.0337 30.5393 72.8105Z" fill="#259BFF"/>
<path d="M25.4502 75.477L25.8511 75.7728C25.8511 75.7728 25.3675 76.685 25.2735 78.0509C25.2695 78.1092 25.2678 78.16 25.2661 78.2109C25.2457 78.7734 25.3645 79.1937 25.6546 79.4028C25.6543 79.4082 25.6543 79.4082 25.6543 79.4082C25.9635 79.6297 26.3038 79.5062 26.6481 79.1913C26.6773 79.1646 26.7087 79.1308 26.7378 79.1043L26.7475 79.0953C26.779 79.0618 26.8104 79.028 26.8419 78.9942C26.8693 78.9641 26.8971 78.934 26.9249 78.8985C26.9369 78.8825 26.9486 78.8721 26.9587 78.8577C26.9804 78.833 27.0022 78.8082 27.0223 78.7797C27.2016 78.5566 27.378 78.2962 27.5493 78.0305C27.6329 77.8997 27.7169 77.7635 27.7996 77.6236C27.919 77.4255 28.0365 77.2238 28.1483 77.033C28.1938 76.9517 28.2373 76.8774 28.2808 76.8031C28.5956 76.2533 28.8306 75.8555 29.0139 75.6283C29.1297 75.483 29.2264 75.3994 29.3114 75.386C29.3576 75.3783 29.4004 75.3887 29.4406 75.4161C29.5968 75.5302 29.5955 75.9221 29.2314 76.7395C28.8436 77.6082 28.4819 77.9937 28.2025 77.9475L27.3733 80.4957C28.0037 80.4726 28.7322 79.7123 29.5011 78.2527L30.0205 78.6282L30.8972 76.6646L30.3779 76.2892C30.7028 75.4335 30.8968 74.6776 30.9337 74.085L30.9347 74.0693C30.9685 73.4696 30.8453 73.0336 30.5378 72.8104C29.8555 72.3121 29.0722 73.3997 28.338 74.6398C27.6554 75.7983 27.1407 76.8968 26.8091 76.6562C26.6026 76.504 26.7027 76.002 26.9891 75.3596C27.4459 74.3336 27.8819 74.1178 28.1078 74.1733L28.9878 71.4947C28.8597 71.4786 28.7288 71.4993 28.6 71.5429C28.3651 71.6278 28.1272 71.8089 27.8936 72.0558C27.4787 72.4942 27.0758 73.1403 26.7211 73.8253L26.2021 73.4449L25.3341 75.3907L25.4502 75.477Z" fill="#259BFF"/>
<path d="M25.3401 75.3902L26.2636 73.6883L26.7271 73.8248L26.2081 73.4443L25.3401 75.3902Z" fill="#F5F5F5"/>
<path d="M28.7528 71.7023L28.1114 74.1725L28.9914 71.4942C28.8629 71.4781 28.7324 71.4989 28.6036 71.5424C28.3687 71.6274 28.1311 71.8084 27.8972 72.0553C27.7406 72.221 27.5853 72.4164 27.4341 72.6319C27.4414 72.6225 27.4481 72.6148 27.4562 72.6041C27.9745 71.9165 28.7528 71.7023 28.7528 71.7023Z" fill="#F5F5F5"/>
<path d="M28.2058 77.9478L27.3766 80.4956L28.2563 78.1134C28.2563 78.1134 28.7686 77.906 29.0765 77.1966C29.3609 76.541 29.4041 76.3188 29.4041 76.3188L29.4007 76.3222C29.3562 76.448 29.3037 76.5839 29.2344 76.7398C28.8469 77.6085 28.4852 77.994 28.2058 77.9478Z" fill="#F5F5F5"/>
<path d="M29.506 78.2527L29.9955 78.51L30.9017 76.6646L30.025 78.6281L29.506 78.2527Z" fill="#F5F5F5"/>
<path opacity="0.3" d="M25.2671 78.2113C25.2687 78.1605 25.2704 78.1093 25.2744 78.0514C25.3681 76.6855 25.8516 75.7733 25.8516 75.7733L25.4508 75.4775L25.3347 75.3908L26.2027 73.445L26.7217 73.8254C27.0764 73.1405 27.4792 72.4943 27.8942 72.0559C28.1281 71.809 28.3657 71.628 28.6006 71.543C28.7294 71.4995 28.8602 71.4784 28.9884 71.4948C28.8599 71.4787 27.9558 70.8985 27.9558 70.8985C27.8276 70.8824 27.6968 70.9032 27.5679 70.9467C27.333 71.0317 27.0951 71.2127 26.8615 71.4596C26.4466 71.898 26.0849 72.4635 25.7302 73.1485L25.17 72.8483L24.302 74.7942L24.4181 74.8808L24.819 75.1766C24.819 75.1766 24.3355 76.0888 24.2418 77.4548C24.2378 77.5126 24.2361 77.5638 24.2344 77.6147C24.214 78.1769 24.3328 78.5975 24.6229 78.8066C24.6226 78.812 24.6226 78.812 24.6226 78.812C24.8407 78.9683 25.515 79.3156 25.6556 79.4029C25.3654 79.1941 25.2466 78.7738 25.2671 78.2113Z" fill="black"/>
<path opacity="0.3" d="M29.235 76.7384C29.5991 75.9209 29.6004 75.5291 29.4442 75.4149C29.4043 75.3872 29.3612 75.3771 29.315 75.3848C29.2303 75.3982 29.1333 75.4819 29.0175 75.6271C28.8341 75.854 28.5992 76.2518 28.2844 76.802C28.2409 76.8762 28.1977 76.9505 28.1518 77.0318C28.0401 77.2229 27.9226 77.4244 27.8032 77.6225C27.7208 77.7623 27.6365 77.8985 27.5529 78.0293C27.3815 78.2947 27.2052 78.555 27.0258 78.7786C27.0058 78.807 26.984 78.8318 26.9623 78.8565C26.9522 78.8709 26.9405 78.8813 26.9285 78.8974C26.9007 78.9328 26.8729 78.9629 26.8455 78.9931C26.814 79.0269 26.7826 79.0607 26.7511 79.0941L26.7414 79.1032C26.7123 79.1299 26.6808 79.1637 26.6517 79.1902C26.6163 79.2226 26.5808 79.2517 26.5453 79.2798L26.3439 79.8982L27.3765 80.4942L28.2057 77.946C28.4855 77.9925 28.8472 77.6071 29.235 76.7384Z" fill="black"/>
<path opacity="0.3" d="M26.9918 75.36C26.7054 76.0028 26.6053 76.5044 26.8118 76.6566C27.1434 76.8972 27.6581 75.7987 28.3407 74.6402C29.0745 73.4004 29.8582 72.3129 30.5405 72.8108C30.32 72.6499 29.7729 72.3721 29.5079 72.2149C29.2509 72.0619 29.012 72.0636 28.7516 72.2212L28.1101 74.1737C27.8843 74.1185 27.4486 74.334 26.9918 75.36Z" fill="black"/>
<path opacity="0.1" d="M26.9918 75.36C26.7054 76.0028 26.6053 76.5044 26.8118 76.6566C27.1434 76.8972 27.6581 75.7987 28.3407 74.6402C29.0745 73.4004 29.8582 72.3129 30.5405 72.8108C30.32 72.6499 29.7729 72.3721 29.5079 72.2149C29.2509 72.0619 29.012 72.0636 28.7516 72.2212L28.1101 74.1737C27.8843 74.1185 27.4486 74.334 26.9918 75.36Z" fill="black"/>
<path opacity="0.4" d="M24.3074 74.7944L25.34 75.3904L25.857 75.7729L24.8244 75.1766L24.3074 74.7944Z" fill="black"/>
<path opacity="0.1" d="M25.2744 78.0512C25.3681 76.6852 25.8516 75.7731 25.8516 75.7731L24.819 75.1768C24.819 75.1768 24.3355 76.0889 24.2418 77.4549C24.2378 77.5128 24.2361 77.564 24.2344 77.6148C24.214 78.177 24.3328 78.5976 24.6229 78.8067C24.6226 78.8121 24.6226 78.8121 24.6226 78.8121C24.8407 78.9684 25.515 79.3157 25.6556 79.403C25.3654 79.1939 25.2466 78.7736 25.2671 78.2111C25.2691 78.1599 25.2707 78.1091 25.2744 78.0512Z" fill="black"/>
<path opacity="0.1" d="M27.5529 78.0295C27.3815 78.2949 27.2052 78.5552 27.0258 78.7787C27.0058 78.8072 26.984 78.8319 26.9623 78.8567C26.9522 78.8711 26.9405 78.8815 26.9285 78.8975C26.9007 78.933 26.8729 78.9631 26.8455 78.9932C26.814 79.027 26.7826 79.0608 26.7511 79.0943L26.7414 79.1033C26.7123 79.1301 26.6808 79.1639 26.6517 79.1903C26.6163 79.2228 26.5808 79.2519 26.5453 79.28L26.3439 79.8984L27.3765 80.4943L28.2057 77.9462L27.76 77.6929C27.6911 77.8076 27.6218 77.9214 27.5529 78.0295Z" fill="black"/>
<path d="M26.6688 85.9063C29.9247 84.4423 32.7938 80.2134 32.7938 80.2134C31.0842 82.9559 28.9356 85.0447 26.7445 86.0981C24.643 87.1096 22.7738 87.036 21.4745 85.8906C21.4745 85.8906 23.3571 87.3954 26.6688 85.9063Z" fill="#F5F5F5"/>
<path d="M21.8529 71.8316C23.5863 68.7594 26.0099 66.1751 28.5919 64.933C31.2769 63.6413 33.551 64.0814 34.9206 65.8174C34.9206 65.8174 32.6171 63.1029 28.5775 65.1967C24.5379 67.2904 21.8529 71.8316 21.8529 71.8316Z" fill="#F5F5F5"/>
</g>
<path opacity="0.15" d="M38.5981 71.9478C39.3905 72.6267 39.9791 73.6456 39.2319 74.3473C39.2319 74.3473 40.1147 73.8718 40.0243 73.2836C39.9336 72.6946 38.5981 71.9478 38.5981 71.9478Z" fill="black"/>
<path opacity="0.1" d="M116.376 113.957C118.822 113.13 121.467 111.368 123.736 110.178C126.132 108.92 128.462 107.536 130.721 106.047C131.387 105.609 132.093 105.075 132.246 104.293C132.368 103.669 132.132 103.407 131.622 103.038C130.599 102.295 129.457 101.716 128.254 101.325C127.687 101.141 127.146 100.941 126.55 100.968C125.876 101 125.206 101.093 124.539 101.189C123.715 101.307 122.877 101.741 122.13 102.097C121.315 102.486 120.524 102.921 119.733 103.357C117.998 104.312 116.263 105.267 114.528 106.223C112.641 107.262 111.613 107.81 109.378 109.257C108.939 109.541 107.756 110.266 107.738 110.79C107.72 111.319 108.12 111.765 108.527 112.104C110.695 113.908 113.727 114.853 116.376 113.957Z" fill="black"/>
<mask id="mask2_62_70139" style="mask-type:luminance" maskUnits="userSpaceOnUse" x="110" y="93" width="23" height="20">
<path d="M110.15 109.951L114.28 112.336L132.866 101.605C132.866 98.7078 128.461 91.3873 120.988 94.3634C113.515 97.3395 110.654 106.331 110.15 109.951Z" fill="white"/>
</mask>
<g mask="url(#mask2_62_70139)">
<path d="M125.139 100.186C123.803 99.4258 122.044 99.4348 120.061 100.389C115.369 102.646 111.199 109.335 110.747 115.33C110.491 118.724 111.482 121.166 113.241 122.238C113.692 122.513 115.438 123.503 115.855 123.751C117.199 124.549 118.983 124.555 120.999 123.586C125.691 121.329 129.86 114.639 130.313 108.644C130.572 105.197 129.546 102.732 127.736 101.688C127.306 101.44 125.582 100.438 125.139 100.186Z" fill="#259BFF"/>
<path opacity="0.25" d="M125.139 100.186C123.803 99.4258 122.044 99.4348 120.061 100.389C115.369 102.646 111.199 109.335 110.747 115.33C110.491 118.724 111.482 121.166 113.241 122.238C113.692 122.513 115.438 123.503 115.855 123.751C117.199 124.549 118.983 124.555 120.999 123.586C125.691 121.329 129.86 114.639 130.313 108.644C130.572 105.197 129.546 102.732 127.736 101.688C127.306 101.44 125.582 100.438 125.139 100.186Z" fill="black"/>
<path opacity="0.1" d="M129.611 112.309L115.479 104.15C112.913 107.227 111.041 111.425 110.747 115.33C110.491 118.723 111.482 121.165 113.241 122.237C113.692 122.512 115.438 123.502 115.855 123.75C117.199 124.548 118.983 124.555 120.999 123.585C124.745 121.783 128.157 117.154 129.611 112.309Z" fill="black"/>
<path opacity="0.1" d="M111.529 111.408C111.118 112.713 110.844 114.038 110.747 115.33C110.491 118.723 111.482 121.165 113.241 122.237C113.692 122.512 115.438 123.502 115.855 123.75C117.199 124.548 118.983 124.555 120.999 123.585C122.702 122.765 124.336 121.36 125.748 119.617L111.529 111.408Z" fill="black"/>
<path d="M122.635 101.875C117.943 104.132 113.774 110.821 113.322 116.816C112.869 122.812 116.307 125.842 120.999 123.585C125.691 121.328 129.861 114.638 130.313 108.643C130.765 102.648 127.328 99.6178 122.635 101.875Z" fill="#259BFF"/>
<path opacity="0.2" d="M122.635 101.875C117.943 104.132 113.774 110.821 113.322 116.816C112.869 122.812 116.307 125.842 120.999 123.585C125.691 121.328 129.861 114.638 130.313 108.643C130.765 102.648 127.328 99.6178 122.635 101.875Z" fill="black"/>
<path d="M127.287 110.01C127.067 111.842 126.319 113.858 125.177 115.69C124.036 117.52 122.63 118.96 121.222 119.74C119.729 120.567 118.388 120.565 117.45 119.738C116.512 118.911 116.123 117.388 116.354 115.448C116.571 113.617 117.32 111.599 118.461 109.769C119.603 107.936 121.008 106.499 122.419 105.718C123.911 104.893 125.25 104.893 126.188 105.72C127.126 106.548 127.517 108.072 127.287 110.01Z" fill="#259BFF"/>
<path opacity="0.4" d="M127.287 110.01C127.067 111.842 126.319 113.858 125.177 115.69C124.036 117.52 122.63 118.96 121.222 119.74C119.729 120.567 118.388 120.565 117.45 119.738C116.512 118.911 116.123 117.388 116.354 115.448C116.571 113.617 117.32 111.599 118.461 109.769C119.603 107.936 121.008 106.499 122.419 105.718C123.911 104.893 125.25 104.893 126.188 105.72C127.126 106.548 127.517 108.072 127.287 110.01Z" fill="black"/>
<path d="M128.114 102.623C126.817 101.48 124.944 101.407 122.844 102.416C120.655 103.471 118.505 105.562 116.795 108.305C115.086 111.048 114.03 114.1 113.817 116.897C113.614 119.583 114.219 121.69 115.516 122.834C116.815 123.979 118.685 124.052 120.786 123.041C122.977 121.988 125.126 119.899 126.835 117.156C128.545 114.414 129.602 111.36 129.813 108.56C130.014 105.877 129.413 103.769 128.114 102.623ZM126.184 105.721C127.122 106.548 127.512 108.072 127.282 110.01C127.063 111.842 126.315 113.858 125.173 115.69C124.032 117.521 122.626 118.96 121.217 119.74C119.724 120.567 118.384 120.566 117.446 119.739C116.507 118.911 116.118 117.388 116.35 115.449C116.566 113.617 117.315 111.599 118.456 109.769C119.599 107.937 121.003 106.499 122.415 105.719C123.906 104.893 125.245 104.893 126.184 105.721Z" fill="#259BFF"/>
<path opacity="0.2" d="M122.6 106.139C125.403 104.589 127.324 106.283 126.892 109.923C126.459 113.563 123.837 117.771 121.034 119.321C118.231 120.871 116.31 119.177 116.742 115.537C117.174 111.897 119.797 107.689 122.6 106.139Z" fill="black"/>
<path d="M122.6 106.139C125.403 104.589 127.324 106.283 126.892 109.923C126.459 113.563 123.837 117.771 121.034 119.321C118.231 120.871 116.31 119.177 116.742 115.537C117.174 111.897 119.797 107.689 122.6 106.139Z" fill="#259BFF"/>
<path opacity="0.6" d="M122.6 106.139C125.403 104.589 127.324 106.283 126.892 109.923C126.459 113.563 123.837 117.771 121.034 119.321C118.231 120.871 116.31 119.177 116.742 115.537C117.174 111.897 119.797 107.689 122.6 106.139Z" fill="black"/>
<path d="M126.088 109.215C125.655 112.855 123.033 117.063 120.23 118.613C119.071 119.254 118.063 119.339 117.31 118.962C116.788 118.214 116.563 117.043 116.742 115.538C117.174 111.898 119.797 107.69 122.6 106.14C123.759 105.499 124.766 105.414 125.52 105.791C126.042 106.539 126.267 107.71 126.088 109.215Z" fill="#259BFF"/>
<path opacity="0.5" d="M126.088 109.215C125.655 112.855 123.033 117.063 120.23 118.613C119.071 119.254 118.063 119.339 117.31 118.962C116.788 118.214 116.563 117.043 116.742 115.538C117.174 111.898 119.797 107.69 122.6 106.14C123.759 105.499 124.766 105.414 125.52 105.791C126.042 106.539 126.267 107.71 126.088 109.215Z" fill="black"/>
<path d="M124.584 109.753C124.363 109.592 123.816 109.314 123.551 109.157C123.294 109.004 123.055 109.006 122.795 109.163L123.034 108.437C122.906 108.421 122.001 107.841 122.001 107.841C121.873 107.825 121.742 107.846 121.613 107.889C121.378 107.974 121.14 108.155 120.907 108.402C120.492 108.84 120.13 109.406 119.775 110.091L119.215 109.791L118.347 111.737L118.463 111.823L118.864 112.119C118.864 112.119 118.381 113.031 118.287 114.397C118.283 114.455 118.281 114.506 118.28 114.557C118.259 115.119 118.378 115.54 118.668 115.749C118.668 115.754 118.668 115.754 118.668 115.754C118.886 115.911 119.56 116.258 119.701 116.345C119.701 116.351 119.701 116.351 119.701 116.351C119.978 116.549 120.28 116.469 120.588 116.224L120.386 116.842L121.419 117.438C122.05 117.415 122.778 116.655 123.547 115.195L124.066 115.571L124.943 113.607L124.423 113.232C124.748 112.376 124.942 111.62 124.979 111.027L124.98 111.012C125.015 110.412 124.892 109.976 124.584 109.753Z" fill="#259BFF"/>
<path d="M119.494 112.42L119.895 112.716C119.895 112.716 119.412 113.628 119.318 114.994C119.314 115.052 119.312 115.103 119.311 115.154C119.29 115.717 119.409 116.137 119.699 116.346C119.699 116.351 119.699 116.351 119.699 116.351C120.008 116.573 120.348 116.449 120.693 116.135C120.722 116.108 120.753 116.074 120.782 116.048L120.792 116.039C120.823 116.005 120.855 115.971 120.886 115.937C120.914 115.907 120.942 115.877 120.97 115.842C120.982 115.826 120.993 115.815 121.003 115.801C121.025 115.776 121.047 115.751 121.067 115.723C121.246 115.5 121.423 115.239 121.594 114.974C121.678 114.843 121.762 114.707 121.844 114.567C121.964 114.369 122.081 114.167 122.193 113.976C122.239 113.895 122.282 113.82 122.326 113.746C122.64 113.196 122.875 112.798 123.059 112.571C123.174 112.426 123.271 112.342 123.356 112.329C123.402 112.321 123.445 112.332 123.485 112.359C123.641 112.473 123.64 112.865 123.276 113.682C122.888 114.551 122.526 114.937 122.247 114.89L121.418 117.439C122.048 117.415 122.777 116.655 123.546 115.196L124.065 115.571L124.942 113.607L124.422 113.232C124.747 112.376 124.941 111.62 124.978 111.028L124.979 111.012C125.013 110.412 124.89 109.976 124.582 109.753C123.9 109.255 123.117 110.343 122.382 111.583C121.7 112.741 121.185 113.84 120.853 113.599C120.647 113.447 120.747 112.945 121.033 112.302C121.49 111.276 121.926 111.061 122.152 111.116L123.032 108.438C122.904 108.421 122.773 108.442 122.644 108.486C122.409 108.571 122.171 108.752 121.938 108.999C121.523 109.437 121.12 110.083 120.765 110.768L120.246 110.388L119.378 112.334L119.494 112.42Z" fill="#259BFF"/>
<path d="M119.38 112.333L120.303 110.631L120.767 110.767L120.248 110.387L119.38 112.333Z" fill="#F5F5F5"/>
<path d="M122.795 108.646L122.153 111.116L123.033 108.438C122.905 108.421 122.774 108.442 122.645 108.486C122.41 108.571 122.173 108.752 121.939 108.999C121.782 109.164 121.627 109.36 121.476 109.575C121.483 109.566 121.49 109.558 121.498 109.547C122.016 108.86 122.795 108.646 122.795 108.646Z" fill="#F5F5F5"/>
<path opacity="0.3" d="M119.313 115.153C119.315 115.102 119.317 115.051 119.321 114.993C119.414 113.627 119.898 112.715 119.898 112.715L119.497 112.419L119.381 112.333L120.249 110.387L120.768 110.767C121.123 110.082 121.525 109.437 121.94 108.998C122.174 108.751 122.412 108.57 122.647 108.485C122.776 108.441 122.906 108.42 123.035 108.437C122.906 108.421 122.002 107.84 122.002 107.84C121.874 107.824 121.743 107.845 121.614 107.889C121.379 107.974 121.141 108.155 120.908 108.402C120.493 108.84 120.131 109.405 119.776 110.09L119.216 109.79L118.348 111.736L118.464 111.823L118.865 112.119C118.865 112.119 118.382 113.031 118.288 114.397C118.284 114.455 118.282 114.506 118.281 114.557C118.26 115.119 118.379 115.539 118.669 115.749C118.669 115.754 118.669 115.754 118.669 115.754C118.887 115.91 119.561 116.257 119.702 116.345C119.412 116.136 119.293 115.715 119.313 115.153Z" fill="black"/>
<path opacity="0.3" d="M123.277 113.682C123.641 112.864 123.643 112.472 123.486 112.358C123.446 112.331 123.403 112.32 123.357 112.328C123.272 112.342 123.175 112.425 123.06 112.57C122.877 112.797 122.641 113.195 122.326 113.745C122.283 113.82 122.24 113.894 122.194 113.975C122.083 114.166 121.965 114.368 121.845 114.566C121.763 114.706 121.679 114.842 121.595 114.973C121.424 115.238 121.247 115.498 121.068 115.722C121.048 115.75 121.026 115.775 121.004 115.8C120.994 115.814 120.983 115.825 120.971 115.841C120.943 115.876 120.915 115.906 120.887 115.936C120.856 115.97 120.824 116.004 120.793 116.037L120.783 116.047C120.754 116.073 120.723 116.107 120.693 116.134C120.658 116.166 120.623 116.195 120.587 116.223L120.386 116.842L121.418 117.438L122.247 114.889C122.528 114.936 122.89 114.55 123.277 113.682Z" fill="black"/>
<path opacity="0.3" d="M121.034 112.303C120.747 112.946 120.647 113.447 120.854 113.6C121.185 113.84 121.7 112.742 122.383 111.583C123.116 110.343 123.9 109.255 124.582 109.754C124.362 109.593 123.815 109.315 123.55 109.158C123.293 109.005 123.054 109.006 122.793 109.164L122.152 111.117C121.926 111.061 121.49 111.277 121.034 112.303Z" fill="black"/>
<path opacity="0.1" d="M121.034 112.303C120.747 112.946 120.647 113.447 120.854 113.6C121.185 113.84 121.7 112.742 122.383 111.583C123.116 110.343 123.9 109.255 124.582 109.754C124.362 109.593 123.815 109.315 123.55 109.158C123.293 109.005 123.054 109.006 122.793 109.164L122.152 111.117C121.926 111.061 121.49 111.277 121.034 112.303Z" fill="black"/>
<path opacity="0.4" d="M118.349 111.736L119.382 112.333L119.899 112.715L118.866 112.119L118.349 111.736Z" fill="black"/>
<path opacity="0.1" d="M119.321 114.993C119.414 113.627 119.898 112.715 119.898 112.715L118.865 112.119C118.865 112.119 118.382 113.031 118.288 114.397C118.284 114.455 118.282 114.506 118.281 114.557C118.26 115.119 118.379 115.54 118.669 115.749C118.669 115.754 118.669 115.754 118.669 115.754C118.887 115.91 119.561 116.258 119.702 116.345C119.412 116.136 119.293 115.716 119.313 115.153C119.315 115.102 119.317 115.051 119.321 114.993Z" fill="black"/>
<path d="M115.895 108.773C117.629 105.701 120.052 103.117 122.634 101.875C125.319 100.583 127.593 101.023 128.963 102.76C128.963 102.76 126.659 100.045 122.62 102.139C118.58 104.232 115.895 108.773 115.895 108.773Z" fill="#F5F5F5"/>
</g>
<path opacity="0.15" d="M111.554 110.099C110.631 110.694 110.449 110.952 111.44 111.679C112.431 112.407 114.738 113.553 114.738 113.553C114.738 113.553 112.387 113.035 110.928 111.983C109.47 110.932 110.176 110.496 111.554 110.099Z" fill="black"/>
<path opacity="0.1" d="M85.8743 109.094C84.5137 110.118 82.9129 110.933 81.2103 110.958C81.9495 111.843 82.7787 112.674 83.7745 113.256C84.7707 113.837 85.9513 114.157 87.09 113.973C88.4184 113.759 89.5558 112.893 90.4673 111.904C91.3789 110.915 92.1227 109.779 93.0413 108.796C93.8313 107.95 94.8793 107.179 96.0314 107.288C95.229 106.642 94.4099 106.001 93.4783 105.562C92.195 104.958 90.8622 104.909 89.7218 105.821C88.4128 106.867 87.2198 108.081 85.8743 109.094Z" fill="black"/>
<path d="M95.9574 105.895C89.8449 107.322 91.9727 111.494 85.8602 112.92C84.1001 111.658 83.22 111.027 81.4602 109.765C87.0518 109.418 85.7698 104.751 91.3279 104.241C93.1797 104.903 94.1053 105.234 95.9574 105.895Z" fill="#259BFF"/>
<path opacity="0.3" d="M93.3394 106.164C90.3117 107.911 90.2842 110.254 87.2559 112C86.9374 111.889 86.5057 111.872 86.0693 111.928C85.1317 111.285 84.6632 110.963 83.7256 110.32C83.8702 110.256 83.9632 110.173 84.0017 110.079C84.0402 109.985 84.0214 109.889 83.9552 109.801C87.6692 108.501 86.4545 106.17 90.1688 104.871C90.4864 105.02 90.9957 105.062 91.3477 104.883C92.2973 105.245 92.6413 105.376 93.591 105.738C93.4414 105.8 93.3437 105.873 93.3015 105.95C93.2594 106.027 93.2751 106.102 93.3394 106.164ZM93.7734 106.146C93.5 106.038 93.603 105.828 94.0846 105.719C92.9974 105.312 92.4536 105.109 91.3664 104.702C90.9903 104.931 90.5379 104.854 90.2645 104.747C86.1768 105.986 87.6183 108.509 83.5302 109.748C83.8033 109.932 83.7092 110.186 83.2465 110.275C84.3099 111.014 84.8416 111.384 85.905 112.122C86.3845 112.014 86.934 112.04 87.206 112.223C90.5697 110.432 90.4101 107.937 93.7734 106.146Z" fill="black"/>
<g opacity="0.3">
<path d="M87.2988 107.487C87.795 106.835 88.8514 106.62 89.589 106.973C90.3265 107.326 90.4794 108.185 89.9999 108.925C89.5204 109.665 88.4616 109.88 87.7097 109.439C86.9578 108.999 86.8026 108.138 87.2988 107.487ZM89.7442 108.789C90.1344 108.196 89.9949 107.491 89.3962 107.199C88.7976 106.906 87.956 107.088 87.5548 107.623C87.1536 108.158 87.2945 108.864 87.9031 109.214C88.5115 109.564 89.3541 109.383 89.7442 108.789Z" fill="black"/>
</g>
<path opacity="0.1" d="M48.3542 81.0742C48.3405 81.0729 48.3267 81.0719 48.3134 81.0706C48.384 81.9858 48.4997 83.0301 48.9923 83.8302C49.354 84.5439 49.869 85.1901 50.5316 85.6385C51.3731 86.2084 52.4269 86.4339 53.4378 86.3308C54.8914 86.1833 56.1911 85.4066 57.5309 84.8244C59.4389 83.9952 61.5798 83.5411 63.6127 83.9845C62.8601 81.6585 60.3651 80.6352 58.1128 80.5626C57.4084 80.5399 56.6672 80.7697 55.9645 80.8701C55.1735 80.9829 54.3784 81.0672 53.5813 81.1228C51.9872 81.2339 50.3847 81.2298 48.7912 81.1097C48.6453 81.099 48.4997 81.087 48.3542 81.0742Z" fill="black"/>
<path d="M63.6008 82.7899C57.5649 81.0683 57.3989 85.7487 51.363 84.027C50.4374 82.0692 49.9743 81.0901 49.0491 79.1318C54.1052 81.5445 55.2513 76.8413 60.3577 79.095C61.655 80.5731 62.3035 81.3122 63.6008 82.7899Z" fill="#259BFF"/>
<path opacity="0.3" d="M61.1815 81.7552C57.6864 81.8121 56.467 83.7338 52.9719 83.7901C52.7473 83.5377 52.3789 83.3132 51.9697 83.1506C51.4624 82.133 51.2663 81.7371 50.7593 80.7196C50.9166 80.7339 51.0388 80.7062 51.1177 80.6433C51.1967 80.58 51.2272 80.487 51.2121 80.3772C55.0897 81.0448 55.16 78.417 59.0379 79.0849C59.2434 79.3693 59.6677 79.6538 60.0625 79.6678C60.7171 80.4455 60.954 80.7272 61.6085 81.5049C61.4475 81.4862 61.3267 81.5032 61.2525 81.5501C61.1778 81.5969 61.1554 81.6695 61.1815 81.7552ZM61.5697 81.9503C61.3826 81.7237 61.575 81.5902 62.0489 81.7284C61.296 80.8447 60.9198 80.4027 60.1669 79.5189C59.7269 79.5367 59.3689 79.2496 59.1818 79.023C55.0064 78.1212 55.0415 81.0267 50.8661 80.1249C51.0157 80.4184 50.8102 80.5944 50.3618 80.4478C50.9327 81.61 51.1606 82.0781 51.7318 83.2406C52.2036 83.3785 52.6714 83.6683 52.82 83.9604C56.63 84.0283 57.7597 81.8824 61.5697 81.9503Z" fill="black"/>
<g opacity="0.3">
<path d="M55.367 79.9991C56.1173 79.7026 57.1452 79.9957 57.6187 80.5977C58.0922 81.1997 57.8084 81.9452 57.0298 82.3193C56.2511 82.6934 55.2215 82.398 54.7784 81.7207C54.3354 81.0434 54.6168 80.2955 55.367 79.9991ZM56.8718 82.0998C57.5013 81.8023 57.7214 81.185 57.34 80.6911C56.9588 80.1975 56.1347 79.9723 55.524 80.2186C54.9136 80.4648 54.6941 81.0836 55.0558 81.6273C55.4179 82.1711 56.2427 82.3973 56.8718 82.0998Z" fill="black"/>
</g>
<path opacity="0.1" d="M132.494 72.6843C130.677 73.4546 129.008 74.1001 126.976 73.8281C127.552 73.9054 128.098 74.9721 128.406 75.4061C129.365 76.7614 130.607 77.9871 132.369 78.0426C133.489 78.0778 134.587 77.7063 135.586 77.197C136.584 76.6878 137.504 76.0403 138.468 75.4694C139.818 74.6706 141.527 73.8234 143.109 74.4568C142.971 74.4016 142.695 73.6607 142.593 73.5058C142.37 73.1685 142.114 72.8533 141.833 72.5632C141.289 72.0034 140.646 71.5392 139.944 71.1979C139.322 70.8958 138.559 70.5474 137.852 70.5662C137.082 70.5866 136.279 70.9948 135.585 71.2889C134.544 71.7303 133.535 72.243 132.494 72.6843Z" fill="black"/>
<path d="M143.104 72.5509C136.509 72.248 138.252 77.2185 131.657 76.9153C130.003 75.0133 129.176 74.0623 127.521 72.1607C133.403 72.8875 132.643 68.6046 138.524 69.3314C140.356 70.6191 141.272 71.2629 143.104 72.5509Z" fill="#259BFF"/>
<g opacity="0.3">
<path d="M140.538 72.1357C137.088 72.9933 136.193 75.6823 132.816 76.1983C132.515 75.9929 132.11 75.8419 131.68 75.7526C130.897 74.7969 130.297 74.2301 129.514 73.2744C129.655 73.2456 129.755 73.186 129.81 73.1024C129.865 73.0191 129.873 72.9177 129.839 72.8086C133.815 72.6353 133.435 69.9315 137.411 69.7585C137.719 69.9121 138.125 70.0272 138.548 70.1048C139.402 70.7838 140.008 71.0906 140.862 71.7696C140.718 71.7927 140.617 71.8402 140.562 71.9061C140.507 71.9724 140.501 72.052 140.538 72.1357ZM141.118 72.3046C140.862 72.0982 141.013 71.9098 141.525 71.9536C140.504 71.1542 139.814 70.7871 138.793 69.9877C138.304 69.9292 137.752 69.7665 137.496 69.5604C133.061 69.5015 133.728 72.6051 129.292 72.5462C129.53 72.8327 129.378 73.0696 128.889 73.011C129.81 74.1504 130.478 74.8096 131.399 75.9494C131.909 75.9932 132.463 76.2054 132.7 76.4908C136.686 76.1314 137.21 73.09 141.118 72.3046Z" fill="black"/>
</g>
<g opacity="0.3">
<path d="M136.26 73.707C135.765 74.2123 134.859 74.1377 134.275 73.5722C133.692 73.0067 133.649 72.2129 134.147 71.7732C134.645 71.3336 135.55 71.4072 136.132 71.9081C136.713 72.409 136.756 73.2017 136.26 73.707ZM136.507 73.9329C137.118 73.3005 137.084 72.3384 136.366 71.7297C135.648 71.1207 134.515 71.0147 133.9 71.5474C133.285 72.0801 133.321 73.0441 134.041 73.7505C134.761 74.4569 135.896 74.5653 136.507 73.9329Z" fill="black"/>
</g>
<path opacity="0.15" d="M91.1167 74.1601C91.1167 74.1601 88.7151 75.6836 89.6597 78.2813C89.6597 78.2813 88.1392 77.0104 88.9497 75.4347C89.6363 74.0999 91.1167 74.1601 91.1167 74.1601Z" fill="black"/>
<path opacity="0.15" d="M117.043 79.2451C117.043 79.2451 117.686 82.0837 114.528 82.8524C114.528 82.8524 116.606 82.8908 117.412 81.6179C118.035 80.6351 117.043 79.2451 117.043 79.2451Z" fill="black"/>
<path opacity="0.15" d="M104.685 72.393C104.685 72.393 113.293 71.2838 118.274 75.4211C123.255 79.5583 120.809 82.9226 120.809 82.9226C120.809 82.9226 124.712 78.5384 119.198 74.6397C111.748 69.3731 104.685 72.393 104.685 72.393Z" fill="black"/>
<path opacity="0.15" d="M86.3459 77.79C86.3459 77.79 84.1909 81.9136 90.7425 84.876C96.7025 87.5711 103.51 86.0228 103.51 86.0228C103.51 86.0228 98.1598 89.0983 90.5183 85.8859C83.0378 82.7415 86.3459 77.79 86.3459 77.79Z" fill="black"/>
<path d="M87.7682 25.8445C88.8039 23.5092 88.5516 22.3176 85.3994 23.1495C83.4238 23.6705 81.8333 25.0759 81.5375 29.8239C81.4522 31.1918 81.5041 32.7705 81.5405 35.9659C81.5827 39.636 81.8236 43.3326 82.2727 46.3583C82.4721 47.7014 82.7107 48.8626 83.4522 50.2727C87.0461 57.1063 92.0778 61.6726 94.4925 66.0839C97.5335 65.8771 101.761 60.8698 99.4981 57.7318C96.9131 56.6402 89.7776 48.7685 88.7871 45.0295C88.328 43.2961 87.8361 41.5721 87.4222 39.8271C87.188 38.8393 86.9725 37.8461 86.8072 36.8442C86.6482 35.8805 86.321 34.8077 86.7155 33.8741C86.9494 33.3207 87.3211 32.8388 87.6394 32.3292C87.9877 31.7714 88.3364 31.146 88.5382 30.5172C88.7316 29.9145 88.8976 29.3112 89.1566 28.7263C89.2747 28.4596 89.4025 28.1973 89.54 27.9399C89.6481 27.7378 89.8061 27.5116 89.701 27.271C89.5082 26.8296 88.663 27.1285 88.3913 27.3466C87.9275 27.7191 87.635 28.2565 87.3098 28.743C87.2375 28.8511 87.1133 28.9719 86.9979 28.912C86.9019 28.8622 86.8999 28.7273 86.9142 28.6199C86.9818 28.1113 87.1113 27.6107 87.2987 27.1325C87.4657 26.7062 87.5805 26.2682 87.7682 25.8445Z" fill="#F8D8C2"/>
<path d="M87.5571 40.3921C87.5571 40.3921 88.6837 44.2874 89.0953 45.5252C89.5069 46.763 91.8767 50.3756 95.6268 54.3348C98.4865 57.3538 100.137 57.5884 100.137 57.5884L94.4339 67.3503C94.2927 65.7354 88.7992 59.0329 86.4374 55.7151C84.0756 52.3974 82.4989 49.5735 82.1074 47.0166C81.6854 44.2627 81.6777 41.1192 81.6777 41.1192C81.6777 41.1192 84.8329 41.7932 87.5571 40.3921Z" fill="#0070D4"/>
<path d="M106.329 57.9328C109.073 58.3494 112.212 58.5673 114.136 58.8303C116.236 59.117 116.988 60.8333 116.987 64.4315C116.987 69.7229 114.281 78.5493 114.281 78.5493C114.292 81.0927 96.0526 82.8321 94.3892 77.3597C94.3892 77.3597 94.3042 69.5479 94.4732 66.5216C94.7706 61.1964 97.8485 57.7916 99.8124 57.6414C99.8124 57.6414 101.611 57.2164 106.329 57.9328Z" fill="#259BFF"/>
<path d="M111.752 42.3086C111.752 42.3086 113.186 42.8078 113.506 44.0275C113.784 45.0886 113.149 47.3898 112.015 49.8098C110.882 52.2298 109.985 53.6456 109.476 54.2764C108.967 54.9072 108.17 54.9543 108.17 54.9543L108.845 51.9494L109.373 49.8671C109.373 49.8671 108.39 47.7539 108.542 46.2126C108.738 44.229 109.306 43.5146 109.306 43.5146L111.752 42.3086Z" fill="#263238"/>
<path d="M112.024 42.7473L114.294 42.2096C114.122 41.5316 113.474 41.102 112.848 41.2506C112.221 41.3991 111.852 42.069 112.024 42.7473Z" fill="#263238"/>
<path d="M108.789 44.7559C108.159 47.8682 105.126 49.8803 102.014 49.2505C98.9014 48.6208 96.8893 45.5871 97.519 42.4748C98.1488 39.3624 101.182 37.3503 104.295 37.9801C107.407 38.6102 109.419 41.6439 108.789 44.7559Z" fill="#263238"/>
<path d="M109.362 49.5158C109.782 50.0568 110.422 49.0001 110.938 48.641C111.453 48.2823 112.965 47.9551 113.362 49.5546C113.767 51.1849 112.036 52.9965 110.889 53.2187C109.49 53.4894 108.792 52.1974 108.792 52.1974L108.738 57.974C106.558 60.5456 103.416 61.6164 102.65 62.8364C102.585 61.6053 100.241 58.7982 101.599 57.7495L101.659 55.2291C101.659 55.2291 99.8993 55.1428 99.0929 54.8456C97.7507 54.3511 97.2347 53.1615 97.118 51.5767C96.9302 49.0312 97.469 44.9234 99.3288 40.424C101.12 39.5326 106.462 40.8022 109.308 43.515C108.243 47.6218 108.943 48.9747 109.362 49.5158Z" fill="#F8D8C2"/>
<path d="M99.2174 36.9529C99.2756 36.8809 99.3603 36.8217 99.4499 36.8374C99.5205 36.8498 99.5744 36.9054 99.623 36.9579C99.798 37.1466 100.175 37.6174 100.692 38.0347C100.687 37.4585 100.795 36.8823 101.006 36.3462C101.135 36.0166 101.389 35.245 101.829 35.2446C102.09 35.2443 102.268 35.4983 102.421 35.7111C103.8 37.6342 106.157 37.3407 108.186 37.8122C109.882 38.2064 111.804 39.311 112.245 41.1246C112.446 41.9542 112.348 42.7666 111.546 43.1531C110.862 43.4827 110.06 43.5336 109.311 43.5155C105.792 43.4305 100.639 43.8592 98.7559 40.188C98.4789 39.6476 98.423 39.0871 98.5602 38.4199C98.6867 37.8055 98.9048 37.3782 99.2033 36.9709C99.208 36.9646 99.2127 36.9589 99.2174 36.9529Z" fill="#263238"/>
<path d="M101.66 55.2284C101.66 55.2284 104.879 55.2315 106.076 54.8754C106.878 54.6372 107.609 54.0911 107.87 53.6992C107.87 53.6992 107.482 54.5759 106.668 55.2716C105.673 56.1226 101.64 56.053 101.64 56.053L101.66 55.2284Z" fill="#F28F8F"/>
<path d="M103.962 47.4643C103.89 47.8201 104.109 48.1637 104.451 48.232C104.794 48.3002 105.13 48.0673 105.202 47.7116C105.274 47.3559 105.055 47.0123 104.712 46.944C104.369 46.8757 104.033 47.1086 103.962 47.4643Z" fill="#263238"/>
<path d="M106.55 46.2067L105.545 45.0332C105.222 45.327 105.185 45.8283 105.462 46.1522C105.74 46.4764 106.226 46.5005 106.55 46.2067Z" fill="#263238"/>
<path d="M100.306 43.728L98.8523 44.2852C98.9922 44.6958 99.4312 44.9036 99.8327 44.7496C100.234 44.596 100.446 44.1386 100.306 43.728Z" fill="#263238"/>
<path d="M98.886 46.2383C98.814 46.594 99.0332 46.9376 99.3759 47.0059C99.7182 47.0741 100.054 46.8413 100.126 46.4855C100.198 46.1302 99.9789 45.7862 99.6362 45.7179C99.2939 45.6497 98.9579 45.8829 98.886 46.2383Z" fill="#263238"/>
<path d="M99.7 49.8418C99.9523 49.9886 100.26 50.0362 100.308 50.043C100.402 50.0564 100.489 49.9903 100.503 49.8959C100.516 49.8014 100.45 49.7138 100.356 49.7006C100.189 49.6766 99.8146 49.5744 99.7231 49.4082C99.7055 49.3761 99.6873 49.3224 99.7307 49.2264C99.9804 48.6731 101.142 47.0064 101.153 46.9897C101.208 46.9114 101.189 46.8034 101.111 46.7488C101.032 46.6937 100.925 46.7132 100.87 46.7917C100.821 46.8613 99.6783 48.5016 99.4152 49.0843C99.3162 49.3032 99.3632 49.4725 99.4201 49.5757C99.4823 49.6882 99.5855 49.7753 99.7 49.8418Z" fill="#FB927E"/>
<path d="M108.758 56.167C109.157 56.1974 109.364 56.2577 109.69 56.9092C110.061 57.6524 110.382 58.331 110.382 58.331C110.382 58.331 110.145 59.637 109.027 61.2108C107.872 62.8354 106.563 63.7265 106.563 63.7265C106.563 63.7265 105.63 62.6259 105.166 62.2504C104.232 61.4945 103.42 62.0701 103.42 62.0701C103.535 61.801 104.028 61.0344 104.303 60.7433C104.547 60.4853 105.541 60.1835 106.898 59.3295C108.256 58.4756 108.75 57.0019 108.75 57.0019L108.758 56.167Z" fill="#0070D4"/>
<path d="M102.345 61.8502C102.345 61.1187 101.892 60.5746 101.77 60.3383C101.418 59.6587 101.606 59.126 101.601 58.5531C101.596 57.9802 101.626 56.6963 101.626 56.6963C101.164 56.7559 100.801 56.8345 100.514 57.5523C100.226 58.27 99.6219 59.1494 99.6219 60.763C99.6219 62.2132 99.7568 62.4786 99.7568 62.4786C99.7568 62.4786 100.37 61.9017 101.134 61.4459C101.405 61.2846 102.012 61.1488 102.345 61.8502Z" fill="#0070D4"/>
<path d="M124.254 31.6449C124.254 31.6449 124.129 29.5424 123.365 27.8191C122.329 25.4838 122.581 24.2922 125.734 25.1241C127.709 25.6451 129.43 27.1897 129.726 31.9377C129.811 33.3056 129.857 36.2463 129.695 37.9756C129.353 41.6297 128.902 44.9749 128.453 48.0002C128.254 49.3434 127.632 51.5626 127.034 52.7817C122.69 61.6221 119.447 64.0993 116.487 69.6487C113.009 69.2404 112.675 61.165 113.458 59.1151C113.458 59.1151 120.646 52.0251 121.859 48.3513C122.977 44.9655 124.591 39.0538 124.506 36.2175" fill="#F8D8C2"/>
<path d="M113.142 58.7094C115.413 57.0888 119.135 52.0946 120.162 50.9448C121.189 49.7951 123.434 42.8911 123.434 42.8911C123.434 42.8911 125.671 44.2841 129.107 43.2649C129.107 43.2649 129.145 45.4299 128.72 48.6322C128.295 51.8346 127.142 54.0284 124.836 57.9689C122.53 61.9094 116.232 70.7127 116.232 70.7127C116.232 70.7127 112.951 69.0141 112.647 64.9478C112.344 60.8815 113.142 58.7094 113.142 58.7094Z" fill="#0070D4"/>
<path d="M118.599 1.24692C120.358 0.246397 122.673 0.258445 125.284 1.51462C131.461 4.48574 136.95 13.2917 137.545 21.1834C137.882 25.6506 136.577 28.8654 134.262 30.2761C133.668 30.6382 131.369 31.9416 130.821 32.2675C129.052 33.3182 126.703 33.3269 124.049 32.0503C117.873 29.0792 112.383 20.2733 111.789 12.3812C111.447 7.84435 112.798 4.59918 115.181 3.22354C115.746 2.89762 118.016 1.57887 118.599 1.24692Z" fill="#259BFF"/>
<path opacity="0.25" d="M118.599 1.24692C120.358 0.246397 122.673 0.258445 125.284 1.51462C131.461 4.48574 136.95 13.2917 137.545 21.1834C137.882 25.6506 136.577 28.8654 134.262 30.2761C133.668 30.6382 131.369 31.9416 130.821 32.2675C129.052 33.3182 126.703 33.3269 124.049 32.0503C117.873 29.0792 112.383 20.2733 111.789 12.3812C111.447 7.84435 112.798 4.59918 115.181 3.22354C115.746 2.89762 118.016 1.57887 118.599 1.24692Z" fill="black"/>
<path opacity="0.1" d="M112.71 17.2077L131.313 6.46729C134.691 10.5182 137.155 16.0445 137.542 21.1843C137.879 25.6516 136.575 28.8663 134.259 30.2771C133.665 30.6391 131.367 31.9425 130.818 32.2684C129.05 33.3191 126.701 33.3278 124.047 32.0512C119.115 29.6787 114.624 23.5853 112.71 17.2077Z" fill="black"/>
<path opacity="0.1" d="M136.515 16.0205C137.057 17.7391 137.417 19.4822 137.545 21.1834C137.882 25.6506 136.577 28.8653 134.262 30.2761C133.668 30.6382 131.369 31.9415 130.821 32.2675C129.052 33.3182 126.703 33.3269 124.049 32.0503C121.807 30.9715 119.656 29.122 117.797 26.8275L136.515 16.0205Z" fill="black"/>
<path d="M111.789 12.3819C112.384 20.2736 117.873 29.0799 124.049 32.051C130.226 35.0221 134.751 31.0328 134.156 23.141C133.561 15.2493 128.072 6.44299 121.895 3.47221C115.719 0.500753 111.194 4.48979 111.789 12.3819Z" fill="#259BFF"/>
<path opacity="0.2" d="M111.789 12.3819C112.384 20.2736 117.873 29.0799 124.049 32.051C130.226 35.0221 134.751 31.0328 134.156 23.141C133.561 15.2493 128.072 6.44299 121.895 3.47221C115.719 0.500753 111.194 4.48979 111.789 12.3819Z" fill="black"/>
<path d="M115.774 14.1818C116.063 16.5931 117.048 19.2474 118.551 21.6593C120.053 24.0689 121.904 25.9632 123.758 26.9902C125.724 28.0791 127.488 28.0771 128.723 26.9882C129.958 25.8993 130.47 23.8943 130.166 21.3411C129.881 18.9305 128.895 16.2739 127.392 13.8643C125.889 11.4523 124.04 9.56036 122.182 8.53273C120.217 7.44655 118.456 7.44621 117.221 8.53508C115.985 9.62394 115.471 11.631 115.774 14.1818Z" fill="#259BFF"/>
<path opacity="0.4" d="M115.774 14.1818C116.063 16.5931 117.048 19.2474 118.551 21.6593C120.053 24.0689 121.904 25.9632 123.758 26.9902C125.724 28.0791 127.488 28.0771 128.723 26.9882C129.958 25.8993 130.47 23.8943 130.166 21.3411C129.881 18.9305 128.895 16.2739 127.392 13.8643C125.889 11.4523 124.04 9.56036 122.182 8.53273C120.217 7.44655 118.456 7.44621 117.221 8.53508C115.985 9.62394 115.471 11.631 115.774 14.1818Z" fill="black"/>
<path d="M112.441 12.272C112.719 15.9575 114.111 19.9777 116.361 23.5882C118.612 27.1988 121.44 29.9481 124.325 31.3348C127.091 32.6662 129.551 32.5695 131.262 31.0617C132.969 29.5562 133.765 26.7822 133.498 23.2473C133.218 19.5644 131.828 15.5469 129.578 11.9363C127.327 8.32575 124.497 5.57347 121.615 4.18412C118.851 2.85566 116.385 2.9517 114.678 4.45717C112.968 5.96532 112.176 8.74001 112.441 12.272ZM122.18 8.53221C124.039 9.55984 125.888 11.4518 127.391 13.8638C128.893 16.2734 129.879 18.93 130.164 21.3406C130.469 23.8938 129.957 25.8988 128.722 26.9877C127.487 28.0765 125.723 28.0782 123.757 26.9897C121.903 25.9627 120.052 24.0681 118.55 21.6588C117.047 19.2468 116.062 16.5926 115.773 14.1813C115.47 11.6308 115.984 9.62375 117.219 8.53489C118.454 7.44569 120.216 7.44602 122.18 8.53221Z" fill="#259BFF"/>
<path opacity="0.2" d="M127.933 26.8508C130.468 25.4671 130.3 20.2752 127.558 15.2543C124.817 10.2334 120.541 7.28484 118.006 8.6685C115.472 10.0522 115.64 15.2441 118.381 20.265C121.122 25.2859 125.399 28.2344 127.933 26.8508Z" fill="black"/>
<path d="M127.933 26.8508C130.468 25.4671 130.3 20.2752 127.558 15.2543C124.817 10.2334 120.541 7.28484 118.006 8.6685C115.472 10.0522 115.64 15.2441 118.381 20.265C121.122 25.2859 125.399 28.2344 127.933 26.8508Z" fill="#259BFF"/>
<path opacity="0.6" d="M127.933 26.8508C130.468 25.4671 130.3 20.2752 127.558 15.2543C124.817 10.2334 120.541 7.28484 118.006 8.6685C115.472 10.0522 115.64 15.2441 118.381 20.265C121.122 25.2859 125.399 28.2344 127.933 26.8508Z" fill="black"/>
<path d="M117.349 13.1324C117.918 17.9242 121.371 23.4625 125.06 25.5034C126.586 26.347 127.912 26.4587 128.904 25.9632C129.591 24.9787 129.887 23.4368 129.652 21.4555C129.083 16.664 125.63 11.1253 121.94 9.08478C120.414 8.24086 119.088 8.12943 118.097 8.625C117.409 9.60913 117.113 11.1511 117.349 13.1324Z" fill="#259BFF"/>
<path opacity="0.5" d="M117.349 13.1324C117.918 17.9242 121.371 23.4625 125.06 25.5034C126.586 26.347 127.912 26.4587 128.904 25.9632C129.591 24.9787 129.887 23.4368 129.652 21.4555C129.083 16.664 125.63 11.1253 121.94 9.08478C120.414 8.24086 119.088 8.12943 118.097 8.625C117.409 9.60913 117.113 11.1511 117.349 13.1324Z" fill="black"/>
<path d="M127.033 21.0448C126.974 19.447 126.142 18.328 125.161 17.4018L125.632 17.5233L126.991 16.7386C126.93 16.4334 126.845 16.1426 126.747 15.8692C126.565 15.3733 126.322 14.9246 126.04 14.521C125.54 13.8046 124.918 13.2311 124.299 12.79L124.247 11.3816L122.565 10.4092L121.206 11.1939L121.216 11.5519L121.219 11.6292C121.11 11.664 120.999 11.7132 120.886 11.7808C120.848 11.8039 120.816 11.828 120.783 11.8524C120.625 11.9689 119.841 12.3771 119.527 12.5658C119.489 12.5889 119.457 12.613 119.424 12.6374C119.065 12.9011 118.871 13.4074 118.902 14.1928C118.898 14.1948 118.898 14.1948 118.898 14.1948C118.932 15.031 119.197 15.7488 119.581 16.3698C119.614 16.4224 119.652 16.4766 119.684 16.5291L119.696 16.5468C119.734 16.601 119.772 16.6549 119.81 16.7091C119.844 16.7563 119.878 16.8032 119.915 16.8483C119.932 16.8674 119.945 16.8881 119.959 16.9039C119.987 16.9404 120.014 16.9768 120.043 17.0079C120.279 17.2987 120.538 17.5627 120.797 17.8117C120.913 17.9225 121.033 18.0306 121.154 18.1353L120.534 17.9804L119.175 18.7651C119.537 20.2083 120.41 21.4705 121.737 22.4405L121.791 23.847L123.489 24.7869L124.849 24.0022L124.832 23.5619C124.93 23.5348 125.022 23.4986 125.105 23.4471L125.115 23.4411C125.321 23.3076 126.23 22.8086 126.464 22.6624L126.474 22.6564C126.864 22.4034 127.065 21.8781 127.033 21.0448Z" fill="#259BFF"/>
<path opacity="0.3" d="M127.033 21.0448C126.974 19.447 126.142 18.328 125.161 17.4018L125.632 17.5233L126.991 16.7386C126.93 16.4334 126.845 16.1426 126.747 15.8692C126.565 15.3733 126.322 14.9246 126.04 14.521C125.54 13.8046 124.918 13.2311 124.299 12.79L124.247 11.3816L122.565 10.4092L121.206 11.1939L121.216 11.5519L121.219 11.6292C121.11 11.664 120.999 11.7132 120.886 11.7808C120.848 11.8039 120.816 11.828 120.783 11.8524C120.625 11.9689 119.841 12.3771 119.527 12.5658C119.489 12.5889 119.457 12.613 119.424 12.6374C119.065 12.9011 118.871 13.4074 118.902 14.1928C118.898 14.1948 118.898 14.1948 118.898 14.1948C118.932 15.031 119.197 15.7488 119.581 16.3698C119.614 16.4224 119.652 16.4766 119.684 16.5291L119.696 16.5468C119.734 16.601 119.772 16.6549 119.81 16.7091C119.844 16.7563 119.878 16.8032 119.915 16.8483C119.932 16.8674 119.945 16.8881 119.959 16.9039C119.987 16.9404 120.014 16.9768 120.043 17.0079C120.279 17.2987 120.538 17.5627 120.797 17.8117C120.913 17.9225 121.033 18.0306 121.154 18.1353L120.534 17.9804L119.175 18.7651C119.537 20.2083 120.41 21.4705 121.737 22.4405L121.791 23.847L123.489 24.7869L124.849 24.0022L124.832 23.5619C124.93 23.5348 125.022 23.4986 125.105 23.4471L125.115 23.4411C125.321 23.3076 126.23 22.8086 126.464 22.6624L126.474 22.6564C126.864 22.4034 127.065 21.8781 127.033 21.0448Z" fill="black"/>
<path opacity="0.1" d="M123.491 24.7883L123.436 23.3818L124.833 23.5632L124.85 24.0036L123.491 24.7883Z" fill="black"/>
<path opacity="0.1" d="M122.57 18.4884L121.211 19.2731L119.177 18.7652L120.537 17.9805L122.57 18.4884Z" fill="black"/>
<path opacity="0.1" d="M122.892 12.1664L124.251 11.3813L124.302 12.7898L122.943 13.5748L122.892 12.1664Z" fill="black"/>
<path d="M121.216 11.552L121.254 12.6409C121.254 12.6409 120.423 12.0275 119.527 12.5653C119.489 12.5884 119.456 12.6125 119.424 12.6369C119.065 12.9006 118.871 13.4069 118.901 14.1922C118.898 14.1942 118.898 14.1942 118.898 14.1942C118.932 15.0305 119.196 15.7482 119.581 16.3693C119.613 16.4218 119.652 16.476 119.684 16.5286L119.695 16.5463C119.733 16.6005 119.771 16.6544 119.81 16.7086C119.844 16.7558 119.878 16.8026 119.915 16.8478C119.931 16.8669 119.944 16.8876 119.959 16.9033C119.986 16.9398 120.014 16.9763 120.042 17.0074C120.279 17.2982 120.538 17.5622 120.796 17.8112C120.924 17.932 121.054 18.0511 121.186 18.1645C121.375 18.3308 121.564 18.4911 121.744 18.6434C121.82 18.7039 121.889 18.7632 121.959 18.8224C122.473 19.2457 122.849 19.5689 123.09 19.8668C123.244 20.0538 123.349 20.2312 123.404 20.4196C123.434 20.522 123.452 20.6267 123.457 20.7344C123.472 21.1584 123.229 21.3716 122.523 20.9821C121.771 20.5665 121.333 19.9437 121.208 19.2731L119.174 18.7652C119.537 20.2084 120.409 21.4706 121.736 22.4407L121.791 23.8471L123.489 24.7871L123.434 23.3806C124.143 23.6584 124.717 23.6892 125.104 23.4472L125.114 23.4412C125.504 23.1882 125.705 22.6632 125.674 21.83C125.605 19.9795 124.5 18.7705 123.328 17.76C122.235 16.8227 121.271 16.2411 121.237 15.3423C121.217 14.7815 121.582 14.7353 122.138 15.0422C123.025 15.5307 123.399 16.4181 123.489 16.9703L125.631 17.5237C125.57 17.2186 125.485 16.9278 125.387 16.6544C125.205 16.1585 124.962 15.7097 124.68 15.3062C124.18 14.5898 123.558 14.0162 122.939 13.5752L122.887 12.1667L121.205 11.1943L121.216 11.552Z" fill="#259BFF"/>
<path d="M121.207 11.1943L122.734 12.2491L122.94 13.5752L122.889 12.1667L121.207 11.1943Z" fill="#FAFAFA"/>
<path d="M119.581 16.3704C119.613 16.4229 119.652 16.4771 119.684 16.5296L119.695 16.5474C119.733 16.6016 119.772 16.6555 119.81 16.7097C119.844 16.7569 119.878 16.8037 119.915 16.8489C119.931 16.8679 119.944 16.8887 119.959 16.9044C119.986 16.9409 120.013 16.9774 120.042 17.0085C120.096 17.0744 120.154 17.1343 120.209 17.1976C118.876 15.581 118.906 13.4622 119.432 12.9214C120.149 12.1842 121.254 12.6427 121.254 12.6427C121.254 12.6427 120.423 12.0293 119.527 12.567C119.489 12.5901 119.456 12.6142 119.424 12.6386C119.065 12.9023 118.871 13.4086 118.901 14.194C118.898 14.196 118.898 14.196 118.898 14.196C118.932 15.0315 119.196 15.7493 119.581 16.3704Z" fill="#FAFAFA"/>
<path d="M123.263 21.1628C123.422 21.131 123.736 20.8657 123.499 20.2958C123.254 19.7075 122.914 19.5111 122.163 18.9888L122.164 18.9904C122.572 19.3314 122.885 19.6102 123.093 19.8662C123.246 20.0532 123.352 20.2306 123.407 20.4189C123.437 20.5213 123.454 20.6264 123.459 20.7338C123.467 20.946 123.41 21.1053 123.263 21.1628Z" fill="#FAFAFA"/>
<path d="M121.74 22.4414L121.933 23.7595L123.493 24.7878L121.795 23.8475L121.74 22.4414Z" fill="#FAFAFA"/>
<path d="M119.419 18.9888L121.21 19.2726L119.176 18.7646C119.394 19.6327 119.8 20.4337 120.375 21.1468C119.587 20.1276 119.419 18.9888 119.419 18.9888Z" fill="#FAFAFA"/>
<path d="M120.47 21.2663C120.454 21.2476 120.438 21.2292 120.422 21.2104C120.438 21.2292 120.454 21.2476 120.47 21.2663Z" fill="#FAFAFA"/>
<path d="M124.426 31.0813C120.14 29.1542 116.363 23.5874 116.363 23.5874C118.614 27.198 121.442 29.9473 124.326 31.3339C127.093 32.6654 129.553 32.5687 131.263 31.0609C131.263 31.0609 128.786 33.0415 124.426 31.0813Z" fill="#F5F5F5"/>
<path d="M130.767 12.5529C128.486 8.50869 125.295 5.10692 121.896 3.47195C118.361 1.77173 115.368 2.35096 113.565 4.63643C113.565 4.63643 116.598 1.06333 121.915 3.81929C127.233 6.57524 130.767 12.5529 130.767 12.5529Z" fill="#F5F5F5"/>
<path d="M124.475 37.0784C124.533 36.6079 123.663 35.3641 123.397 34.9719C122.627 33.8372 122.553 32.7521 122.128 31.5645C121.798 30.6389 121.341 30.2417 121.515 30.0714C121.738 29.8525 122.373 29.62 123.029 30.1908C123.36 30.478 124.034 31.625 124.475 32.2933C125.209 33.1961 124.475 37.0784 124.475 37.0784Z" fill="#F8D8C2"/>
</svg>
