<svg width="118" height="125" viewBox="0 0 118 125" fill="none" xmlns="http://www.w3.org/2000/svg">
<path d="M116.249 112.863C114.193 117.853 105.967 121.461 100.78 123.293L100.752 124.703H31.4785C32.0962 121.826 34.0895 117.004 34.0895 116.997L34.3562 99.3382L19.7715 94.72C19.7715 94.72 23.6646 67.7981 32.7046 60.4005C41.7375 53.0099 53.3556 53.7384 57.7702 48.9097L83.0372 50.8609C87.7677 53.0155 98.9624 52.1944 105.742 58.2584C110.936 62.9047 114.263 71.6569 115.905 83.3148C116.404 86.8591 117.562 93.9549 117.758 98.0047C118.095 105.178 117.828 109.641 116.249 112.863Z" fill="#259BFF"/>
<path d="M79.683 45.0933C79.683 45.0933 86.918 46.6999 88.3816 51.3732C90.3048 57.5139 85.8139 64.8284 85.8139 64.8284C85.8139 64.8284 87.6583 54.1569 79.6515 53.9311L79.683 45.0933Z" fill="#259BFF"/>
<path d="M72.5645 123.755C72.4247 123.755 72.3093 123.644 72.305 123.503C72.2504 121.731 70.9838 80.05 72.3176 75.9457C73.6448 71.8622 82.4148 55.4744 82.7874 54.7787C82.8552 54.6523 83.0126 54.6047 83.1391 54.6724C83.2656 54.7402 83.3133 54.8976 83.2455 55.0241C83.1545 55.194 74.1248 72.0667 72.8118 76.1064C71.5057 80.1252 72.8109 123.054 72.8243 123.487C72.8287 123.63 72.716 123.75 72.5726 123.755C72.5699 123.755 72.5672 123.755 72.5645 123.755Z" fill="#37B3ED"/>
<path d="M68.0465 123.777C68.0464 123.777 68.0461 123.777 68.0458 123.777C67.9024 123.776 67.7864 123.66 67.7868 123.516C67.7878 123.123 67.8882 84.1762 67.7868 78.3912C67.6866 72.6828 57.3418 57.8524 57.2372 57.7033C57.1549 57.5858 57.1835 57.4239 57.301 57.3415C57.4182 57.2593 57.5802 57.2875 57.6627 57.4051C58.093 58.0194 68.2035 72.5156 68.3063 78.3821C68.4078 84.1723 68.3074 123.125 68.3063 123.518C68.306 123.661 68.1896 123.777 68.0465 123.777Z" fill="#37B3ED"/>
<path d="M96.4142 124.674C95.7053 124.954 94.3296 123.326 92.8347 120.631C92.4837 119.999 92.1329 119.312 91.7749 118.575C91.2766 117.55 90.7853 116.427 90.315 115.248C88.8973 111.696 87.9989 108.426 87.8094 106.383C87.7953 106.285 87.7883 106.187 87.7813 106.096C87.7041 105.043 87.8445 104.369 88.2235 104.222C88.6025 104.067 89.178 104.467 89.8588 105.288L89.8658 105.295C90.0062 105.464 90.1465 105.653 90.301 105.857C91.5222 107.534 93.0101 110.349 94.3226 113.641C95.0736 115.514 95.6771 117.304 96.1123 118.876C96.1825 119.136 96.2456 119.382 96.3088 119.627C97.0037 122.421 97.095 124.4 96.4142 124.674Z" fill="black"/>
<path d="M88.226 104.479C88.1223 104.479 88.0242 104.416 87.9841 104.313C87.9317 104.18 87.9977 104.029 88.1313 103.977C88.2432 103.933 99.4015 99.5924 106.45 99.286C106.598 99.2788 106.715 99.391 106.721 99.5343C106.727 99.6776 106.616 99.7988 106.473 99.8051C99.5106 100.108 88.4319 104.417 88.3208 104.461C88.2896 104.473 88.2576 104.479 88.226 104.479Z" fill="#37B3ED"/>
<path d="M99.1762 100.963C99.0661 100.963 98.9639 100.892 98.9287 100.782C96.5389 93.287 95.4568 86.1951 95.6203 79.1007C95.6237 78.9573 95.7426 78.8391 95.886 78.8471C96.0296 78.8504 96.1431 78.9693 96.1399 79.1127C95.9775 86.1485 97.0517 93.1848 99.4236 100.624C99.4673 100.761 99.3919 100.907 99.2552 100.95C99.2288 100.959 99.2022 100.963 99.1762 100.963Z" fill="#37B3ED"/>
<path d="M38.155 90.1627C38.1401 90.1627 38.1251 90.1613 38.1101 90.1587C37.9688 90.1341 37.8741 89.9996 37.8988 89.8582L40.1235 77.0973C40.1481 76.956 40.284 76.8619 40.424 76.8861C40.5654 76.9107 40.6599 77.0452 40.6352 77.1866L38.4106 89.9475C38.3885 90.0736 38.2788 90.1627 38.155 90.1627Z" fill="#37B3ED"/>
<path d="M80.781 51.0177C77.8596 58.2866 69.7888 74.7921 69.7888 74.7921L58.6899 52.3592C57.8848 50.7321 58.3592 51.0918 58.8853 49.3543C59.1293 48.5483 58.6889 45.4932 58.6502 44.7315C58.6291 44.2542 58.58 43.7629 58.5239 43.2646C58.1168 39.9168 56.9799 36.1899 56.5236 34.8002C56.4043 34.4282 56.334 34.2246 56.334 34.2246L67.4936 33.9229L78.5198 33.6211C78.5198 33.6211 78.5128 34.2668 78.5409 35.3056C78.5409 35.3056 78.5409 35.3056 78.5409 35.3126C78.583 37.0321 78.7304 39.8395 79.1866 42.6119C79.5026 44.5878 79.9778 46.5474 80.6811 48.0855C81.1063 49.0154 81.1623 50.0689 80.781 51.0177Z" fill="#F8D8C2"/>
<path d="M69.7923 123.754C69.6489 123.754 69.5325 123.638 69.5325 123.494V74.7925C69.5325 74.649 69.6489 74.5327 69.7923 74.5327C69.9357 74.5327 70.0521 74.649 70.0521 74.7925V123.494C70.0521 123.637 69.9357 123.754 69.7923 123.754Z" fill="#37B3ED"/>
<path d="M85.8158 65.0882C85.7863 65.0882 85.7566 65.0832 85.7276 65.0727C85.6091 65.03 85.5384 64.9084 85.5597 64.7842C85.5693 64.7284 86.4916 59.1743 84.0125 56.146C82.9938 54.9017 81.5247 54.2439 79.6462 54.191C79.5028 54.1869 79.3898 54.0673 79.3938 53.9239C79.3977 53.783 79.5132 53.6714 79.6532 53.6714C79.6558 53.6714 79.6583 53.6714 79.6606 53.6715C81.6973 53.7289 83.2972 54.4512 84.4155 55.8181C86.2542 58.0653 86.3512 61.4813 86.2294 63.4137C87.2026 61.2744 88.8777 56.771 88.2222 52.2556C88.2015 52.1136 88.3 51.9819 88.4418 51.9613C88.5829 51.9405 88.7157 52.0389 88.7363 52.1811C89.6629 58.5643 86.0771 64.8947 86.041 64.9579C85.9935 65.0404 85.9066 65.0882 85.8158 65.0882Z" fill="#37B3ED"/>
<path d="M62.0185 59.0915C61.829 59.0705 61.7167 59.0635 61.7097 59.0635C57.0774 54.0662 51.1958 62.3131 51.1958 62.3131C49.9886 49.5673 58.4811 46.5212 58.7969 46.2686C58.7969 46.2686 58.7969 46.2686 58.8039 46.2686C58.9162 47.4336 59.0356 48.8443 58.8812 49.3567C58.3618 51.0903 57.8845 50.7324 58.6917 52.3607L62.0185 59.0915Z" fill="#259BFF"/>
<path d="M51.2004 62.5718C51.1781 62.5718 51.1554 62.5689 51.1331 62.563C51.0282 62.5349 50.9519 62.4446 50.9418 62.3366C50.498 57.6584 52.0066 53.7489 53.0049 51.1618C53.0565 51.0279 53.2068 50.9616 53.3408 51.013C53.4746 51.0646 53.5412 51.215 53.4896 51.3489C52.5575 53.7644 51.1726 57.3535 51.4086 61.6148C52.4202 60.3607 55.1119 57.3944 58.0711 57.2032C59.4942 57.1108 60.783 57.6768 61.9035 58.8843C62.0011 58.9895 61.995 59.1539 61.8898 59.2515C61.7845 59.349 61.6204 59.343 61.5226 59.2377C60.5136 58.1504 59.3626 57.6401 58.1048 57.7216C54.6692 57.9436 51.4441 62.4176 51.412 62.4628C51.3624 62.5323 51.2831 62.5718 51.2004 62.5718Z" fill="#37B3ED"/>
<path d="M69.1779 103.347C68.458 103.141 65.428 102.268 64.2469 104.733C63.0657 107.198 61.0799 113.001 62.4494 113.379C63.3102 113.616 65.0789 113.36 65.8217 110.125C66.5645 106.89 69.1779 103.347 69.1779 103.347Z" fill="#F8D8C2"/>
<path d="M65.3349 103.496C64.8607 103.397 62.4984 103.602 61.5226 104.27C60.5469 104.937 55.4046 110.6 56.8321 111.699C58.0989 112.675 62.682 107.127 63.2578 107.367L65.3349 103.496Z" fill="#F8D8C2"/>
<path d="M96.1138 118.877C94.7311 118.835 93.2642 118.73 91.7763 118.575C86.2807 118.014 80.4834 116.807 77.704 115.775C77.0863 115.543 76.5249 115.256 75.9985 114.912C71.289 114.512 68.2921 112.561 67.5271 112.055C67.0007 112.652 66.0602 112.82 65.8427 112.694C65.1197 112.273 67.5903 102.32 70.2082 103.156C72.8261 103.991 73.0437 105.668 78.799 106.735C81.3187 107.205 84.7437 106.946 87.8108 106.384C88.6812 106.23 89.5234 106.047 90.3025 105.858C91.5237 107.535 93.0116 110.35 94.3241 113.641C95.075 115.515 95.6786 117.305 96.1138 118.877Z" fill="#F8D8C2"/>
<path d="M78.542 35.3055C78.542 35.3055 75.8508 40.0177 75.8508 40.0247C75.6613 40.3265 71.1312 46.4441 58.6513 44.7315C58.6303 44.2542 58.5811 43.7629 58.525 43.2646C58.118 39.9168 56.981 36.1899 56.5247 34.8002L67.4948 33.9229L78.521 33.6211C78.521 33.6211 78.514 34.2667 78.542 35.3055Z" fill="#E07B63"/>
<path d="M82.6896 22.0711C82.6896 22.0711 88.9722 20.8625 87.2971 15.6553C85.6221 10.4481 83.1886 11.4502 83.1886 11.4502C83.1886 11.4502 84.8132 7.32601 82.5696 4.85434C80.326 2.38267 75.1923 3.7414 75.1923 3.7414C75.1923 3.7414 73.7423 0.692166 70.9289 0.633973C69.0805 0.595732 68.0352 1.67923 68.0352 1.67923C68.0352 1.67923 65.7278 -0.373803 62.7494 0.318345C59.7711 1.01049 57.7693 4.96379 57.7693 4.96379C57.7693 4.96379 50.9145 4.47234 48.1473 7.41427C45.3801 10.3562 47.6319 14.0135 47.6319 14.0135C47.6319 14.0135 44.8723 19.1842 47.8817 22.9709C50.8912 26.7576 53.2336 26.4346 53.2336 26.4346L82.6896 22.0711Z" fill="black"/>
<path d="M67.9342 43.7692C59.9426 44.5192 52.8562 38.6489 52.1061 30.6573L50.748 16.1872L79.6881 13.4712L81.0462 27.9412C81.7962 35.9328 75.9258 43.0193 67.9342 43.7692Z" fill="#F8D8C2"/>
<path d="M77.3297 24.1119C77.3297 24.1119 78.0932 21.2548 81.8865 21.002C85.6798 20.7492 85.5449 30.3043 81.3251 30.9583C77.1052 31.6122 76.7375 29.893 76.7375 29.893L77.3297 24.1119Z" fill="#F8D8C2"/>
<path d="M59.6161 28.8646C60.0497 28.3411 59.9769 27.5653 59.4534 27.1317C58.93 26.6981 58.1542 26.771 57.7206 27.2944C57.287 27.8179 57.3599 28.5937 57.8833 29.0273C58.4067 29.4608 59.1826 29.388 59.6161 28.8646Z" fill="#33190A"/>
<path d="M70.7662 27.8187C71.1998 27.2952 71.1269 26.5194 70.6035 26.0858C70.08 25.6522 69.3042 25.7251 68.8706 26.2485C68.4371 26.772 68.5099 27.5478 69.0333 27.9814C69.5568 28.4149 70.3326 28.3421 70.7662 27.8187Z" fill="#33190A"/>
<path d="M63.3987 33.8699C63.0955 33.8699 62.7903 33.8351 62.5094 33.7446C62.3403 33.6903 62.2092 33.5721 62.1304 33.4031C61.8021 32.6991 62.4 31.1117 63.2159 29.1096C63.4934 28.4284 63.7556 27.7851 63.7883 27.5481C63.8081 27.4059 63.9381 27.3062 64.0814 27.3263C64.2235 27.346 64.3227 27.4772 64.3031 27.6193C64.2613 27.9208 64.0122 28.5319 63.6971 29.3056C63.1905 30.5487 62.3429 32.6292 62.6013 33.1836C62.6239 33.2323 62.648 33.2435 62.6684 33.2502C63.6864 33.5777 65.1905 33.0066 65.2056 33.0007C65.3387 32.9495 65.4896 33.0159 65.5413 33.1498C65.5929 33.2837 65.5263 33.4341 65.3923 33.4856C65.34 33.5056 64.3798 33.8698 63.3987 33.8699Z" fill="#E07B63"/>
<path d="M61.1412 23.5756C60.2838 22.1319 53.4429 25.6392 54.0135 26.772C54.584 27.9048 61.6925 24.5039 61.1412 23.5756Z" fill="black"/>
<path d="M67.3845 23.041C67.5345 21.7053 75.4474 23.2127 74.8467 24.5071C74.246 25.8014 67.2441 24.2921 67.3845 23.041Z" fill="black"/>
<path d="M51.5126 24.5961C51.5126 24.5961 54.796 23.3079 54.6327 19.9189C54.6327 19.9189 59.5605 19.6627 60.4358 16.8983C60.4358 16.8983 64.6097 20.0657 66.7544 16.3053C66.7544 16.3053 70.9052 19.6296 72.9037 16.1925C72.9037 16.1925 75.1271 23.4828 79.403 22.7875C83.6788 22.0922 82.8611 14.1231 82.8611 14.1231L77.8802 7.11133L60.7626 9.3884L49.3003 15.3136L48.6791 20.7871L51.5126 24.5961Z" fill="black"/>
<path d="M80.9585 27.3015C80.953 27.3015 80.9476 27.3014 80.9422 27.301C80.799 27.2922 80.6901 27.1689 80.699 27.0256C80.7091 26.8625 80.9723 23.0309 83.1366 22.9725C83.2731 22.9648 83.3993 23.0818 83.4032 23.2252C83.407 23.3686 83.2939 23.488 83.1505 23.4919C81.7445 23.5298 81.2786 26.0788 81.2177 27.0578C81.209 27.1955 81.0946 27.3015 80.9585 27.3015Z" fill="#E07B63"/>
<path d="M81.0365 26.915C80.9837 26.915 80.9304 26.899 80.8844 26.8659C80.7682 26.7819 80.742 26.6194 80.8261 26.5031C80.9501 26.3315 82.0706 24.8322 83.1951 25.0656C83.3357 25.0947 83.426 25.2322 83.3969 25.3726C83.3678 25.5133 83.2298 25.6039 83.09 25.5744C82.4094 25.4345 81.5296 26.4169 81.2473 26.8074C81.1965 26.8776 81.117 26.915 81.0365 26.915Z" fill="#E07B63"/>
<path d="M49.9127 13.568C49.8953 13.568 49.8778 13.5662 49.8602 13.5627C49.7197 13.5338 49.629 13.3967 49.6578 13.2562C49.6722 13.1866 51.1457 6.30713 56.8788 7.04742C57.021 7.06585 57.1214 7.1961 57.103 7.33839C57.0847 7.48069 56.9538 7.58106 56.8121 7.56277C51.5632 6.88309 50.2212 13.0956 50.1668 13.3602C50.1417 13.4832 50.0334 13.568 49.9127 13.568Z" fill="#472128"/>
<path d="M81.2599 10.9811C81.2244 10.9811 81.1882 10.9737 81.1535 10.9581C81.0226 10.8993 80.9642 10.7455 81.0231 10.6147C81.3672 9.84971 81.3976 9.1126 81.1135 8.42384C80.4249 6.75399 78.1375 5.86129 78.1144 5.85249C77.9804 5.80116 77.9135 5.65089 77.9649 5.51691C78.0163 5.38279 78.1667 5.31629 78.3005 5.3672C78.4029 5.40655 80.8209 6.35115 81.5938 8.22564C81.9346 9.0517 81.902 9.92716 81.4971 10.8277C81.4538 10.924 81.359 10.9811 81.2599 10.9811Z" fill="#472128"/>
<path d="M84.1413 18.6576C84.0486 18.6576 83.9588 18.6077 83.9119 18.5201C83.8442 18.3936 83.8921 18.2362 84.0187 18.1686C84.3761 17.9775 84.6037 17.6927 84.7145 17.2976C85.1275 15.8248 83.749 13.4637 83.735 13.4401C83.6622 13.3166 83.7032 13.1573 83.8267 13.0844C83.95 13.0117 84.1095 13.0523 84.1823 13.1759C84.2441 13.2802 85.6871 15.7507 85.2149 17.4372C85.0659 17.9688 84.7459 18.369 84.2635 18.6269C84.2247 18.6477 84.1828 18.6576 84.1413 18.6576Z" fill="#472128"/>
<path d="M64.2863 13.6029C62.6854 13.6029 61.5522 12.5967 61.5353 12.5814C61.4293 12.4848 61.4215 12.3205 61.5181 12.2144C61.6145 12.1082 61.7786 12.1006 61.8846 12.1967C61.9755 12.2784 64.1307 14.1754 66.6413 12.1856C66.7539 12.0964 66.9172 12.1155 67.0064 12.2279C67.0955 12.3404 67.0765 12.5037 66.9641 12.5929C66.0086 13.35 65.0886 13.6029 64.2863 13.6029Z" fill="#472128"/>
<path d="M66.2889 113.104C66.0758 113.104 65.8742 113.037 65.687 112.903C65.358 112.668 65.3968 111.655 65.8018 109.891C66.182 108.237 66.7789 106.511 67.3985 105.276C68.3424 103.394 69.3122 102.597 70.2827 102.906C70.4194 102.95 70.4948 103.096 70.4512 103.233C70.4077 103.369 70.2618 103.445 70.1247 103.401C69.7029 103.267 69.2383 103.502 68.7429 104.101C66.9002 106.328 65.7557 111.889 66.0128 112.497C66.1412 112.581 66.2719 112.604 66.4223 112.568C67.3762 112.344 68.6175 110.003 69.2842 108.745C69.6976 107.966 69.8872 107.616 70.047 107.495C70.1612 107.408 70.324 107.43 70.4108 107.545C70.4967 107.658 70.4754 107.819 70.3637 107.906C70.2697 107.995 69.9901 108.523 69.7432 108.989C68.9394 110.505 67.7247 112.796 66.5413 113.074C66.4555 113.094 66.3713 113.104 66.2889 113.104Z" fill="#E07B63"/>
<path d="M62.9536 113.704C62.6985 113.704 62.4962 113.662 62.3774 113.629C62.2225 113.586 62.009 113.472 61.8713 113.17C61.1914 111.677 63.0994 106.519 64.0095 104.62C64.591 103.407 65.9713 102.157 69.244 103.097C69.3259 103.12 69.392 103.182 69.4194 103.263C69.4468 103.344 69.4343 103.433 69.3837 103.501C69.358 103.536 66.7936 107.039 66.0719 110.183C65.7105 111.757 65.0757 112.825 64.1856 113.356C63.7295 113.629 63.2944 113.704 62.9536 113.704ZM67.1874 103.293C65.8938 103.293 64.9714 103.815 64.478 104.845C63.2885 107.327 61.8309 111.827 62.3442 112.954C62.4032 113.084 62.4702 113.115 62.5154 113.128C62.7295 113.187 63.294 113.283 63.9193 112.91C64.6723 112.461 65.2416 111.478 65.5655 110.067C66.193 107.333 68.0929 104.44 68.7459 103.501C68.1792 103.362 67.6586 103.293 67.1874 103.293Z" fill="#E07B63"/>
<path d="M57.1956 112.076C57.0013 112.076 56.8274 112.022 56.6757 111.905C56.5093 111.777 56.3136 111.529 56.3263 111.077C56.3814 109.119 60.4379 104.698 61.378 104.055C62.4393 103.329 64.8837 103.135 65.39 103.241C65.5304 103.271 65.6206 103.408 65.5913 103.549C65.5617 103.689 65.4231 103.778 65.2838 103.75C64.9026 103.67 62.5895 103.856 61.6713 104.484C60.8494 105.046 56.8931 109.404 56.8457 111.092C56.8386 111.345 56.9262 111.442 56.9927 111.493C57.605 111.966 59.7993 109.846 60.9778 108.708C62.3136 107.417 62.7936 106.978 63.1493 107.127C63.2818 107.183 63.3442 107.335 63.2888 107.467C63.2412 107.581 63.1221 107.644 63.0042 107.623C62.7643 107.704 61.9757 108.466 61.3387 109.081C59.5993 110.762 58.1505 112.076 57.1956 112.076Z" fill="#E07B63"/>
<path d="M107.486 102.86C107.429 102.86 107.372 102.841 107.325 102.803C105.059 101.006 99.8965 100.908 99.8446 100.907C99.7012 100.905 99.5866 100.787 99.5886 100.643C99.5909 100.501 99.7067 100.387 99.8484 100.387C99.8496 100.387 99.851 100.387 99.8523 100.387C100.071 100.391 105.244 100.488 107.648 102.396C107.76 102.486 107.779 102.649 107.69 102.761C107.638 102.826 107.563 102.86 107.486 102.86Z" fill="#37B3ED"/>
<path d="M53.0969 124.705H11.7043L1.37891 90.224C0.945162 88.7755 2.0299 87.3184 3.54201 87.3184H40.2205C41.218 87.3184 42.0974 87.973 42.3835 88.9286L53.0969 124.705Z" fill="#472851"/>
<path d="M52.0216 124.705H10.6291L0.303649 90.2236C-0.130095 88.775 0.954648 87.3179 2.46669 87.3179H39.1452C40.1428 87.3179 41.0221 87.9725 41.3083 88.9281L52.0216 124.705Z" fill="#64436E"/>
<path d="M81.294 120.803H50.8527L52.0214 124.706H81.294C81.7479 124.706 82.1157 124.338 82.1157 123.884V121.624C82.1157 121.171 81.7479 120.803 81.294 120.803Z" fill="#472851"/>
<path d="M23.7406 109.314C23.6075 109.314 23.4728 109.308 23.3365 109.295C20.8823 109.046 18.6792 107.174 18.4228 105.12C18.3152 104.271 18.5703 103.414 19.1408 102.709C19.8896 101.783 21.1023 101.186 22.4681 101.07C24.9475 100.833 27.1757 102.634 27.4278 105.087C27.4278 105.087 27.4278 105.087 27.4278 105.087C27.5538 106.324 27.1865 107.446 26.3936 108.248C25.7064 108.943 24.7756 109.314 23.7406 109.314ZM22.9049 101.569C22.776 101.569 22.6458 101.575 22.5148 101.587C21.2866 101.691 20.2051 102.219 19.5449 103.036C19.0571 103.639 18.8474 104.337 18.9383 105.056C19.1665 106.883 21.1619 108.552 23.3862 108.778C24.4221 108.872 25.3598 108.554 26.0241 107.882C26.7059 107.193 27.0208 106.219 26.9109 105.14C26.701 103.1 24.9441 101.569 22.9049 101.569Z" fill="#472851"/>
<path d="M23.3603 109.296C23.3145 109.296 23.2688 109.284 23.2282 109.26C23.1581 109.218 23.1114 109.146 23.1022 109.065L22.2324 101.357C22.2223 101.268 22.2588 101.18 22.3288 101.125C22.399 101.069 22.4929 101.053 22.5771 101.083C22.6818 101.12 25.1444 102.025 25.4766 105.108C25.8116 108.265 23.4832 109.267 23.4596 109.276C23.4277 109.289 23.394 109.296 23.3603 109.296ZM22.8009 101.762L23.5748 108.62C24.1263 108.254 25.183 107.266 24.96 105.163C24.7379 103.103 23.4637 102.132 22.8009 101.762Z" fill="#472851"/>
<path d="M23.3598 109.296C23.3196 109.296 23.2791 109.287 23.2419 109.268C23.1386 109.215 20.7049 107.946 20.3741 105.153C20.0382 102.365 22.3452 101.111 22.3685 101.098C22.4441 101.058 22.5353 101.058 22.6112 101.098C22.6874 101.139 22.7384 101.214 22.748 101.299L23.6179 109.007C23.6287 109.102 23.5864 109.195 23.5078 109.25C23.4635 109.28 23.4117 109.296 23.3598 109.296ZM22.2792 101.778C21.7179 102.203 20.6691 103.258 20.89 105.092C21.1061 106.916 22.3613 108.043 23.041 108.527L22.2792 101.778Z" fill="#472851"/>
<path d="M27.1674 105.373C27.1672 105.373 27.1669 105.373 27.1666 105.373L18.6778 105.348C18.5344 105.347 18.4183 105.231 18.4188 105.087C18.4193 104.944 18.5356 104.828 18.6786 104.828C18.6788 104.828 18.6791 104.828 18.6795 104.828L27.1682 104.853C27.3116 104.854 27.4277 104.97 27.4272 105.114C27.4267 105.257 27.3105 105.373 27.1674 105.373Z" fill="#472851"/>
<path d="M22.45 103.664C20.5575 103.664 19.3902 103.016 19.3391 102.987C19.2142 102.916 19.1703 102.757 19.2412 102.633C19.3116 102.508 19.4699 102.464 19.5949 102.535C19.6068 102.541 20.814 103.207 22.7201 103.14C24.6034 103.058 25.6283 102.198 25.6384 102.19C25.7474 102.097 25.9113 102.109 26.0044 102.218C26.098 102.326 26.0861 102.489 25.978 102.583C25.9316 102.623 24.8178 103.568 22.7403 103.659C22.6418 103.663 22.545 103.664 22.45 103.664Z" fill="#472851"/>
<path d="M26.3845 108.165C26.3309 108.165 26.2768 108.148 26.2304 108.114C26.2188 108.105 25.0112 107.236 23.1118 107.159C21.2043 107.064 20.1952 107.705 20.1852 107.711C20.0652 107.789 19.9041 107.755 19.8258 107.635C19.7477 107.515 19.7818 107.354 19.9021 107.275C19.9485 107.245 21.0681 106.536 23.1351 106.64C25.1997 106.724 26.4852 107.656 26.5389 107.696C26.6543 107.781 26.6789 107.944 26.5936 108.059C26.5429 108.128 26.4642 108.165 26.3845 108.165Z" fill="#472851"/>
</svg>
