<svg width="145" height="129" viewBox="0 0 145 129" fill="none" xmlns="http://www.w3.org/2000/svg">
<path d="M20.5849 105.332C13.0103 106.089 -4.68146 107.265 1.16046 114.875C2.99229 116.028 6.0994 115.76 7.65006 117.485C11.9018 122.138 15.8265 125.489 23.1026 126.266C35.455 127.765 48.403 126.232 61.0291 126.46C71.4684 126.5 82.0501 128.303 92.5003 128.336C101.202 128.545 109.371 126.23 117.877 125.145C130.232 124.409 144.518 124.078 144.094 113.424C142.924 103.289 110.091 104.254 101.31 104.505C92.1093 104.837 51.5663 101.932 47.2669 102.547C38.1666 103.751 29.6226 104.394 20.5849 105.332Z" fill="#F3F7FF"/>
<path d="M56.4513 122.812C56.3087 121.903 56.1746 120.993 56.0209 120.085C55.8975 119.355 56.0776 118.948 57.1375 118.913C58.782 118.858 60.4153 118.648 62.0526 118.5C62.5201 118.457 62.9102 118.279 63.2993 118.062C64.2736 117.519 65.0181 117.758 65.142 118.721C65.3376 120.243 65.4158 121.774 65.5194 123.301C65.5546 123.821 65.3105 124.141 64.6012 124.232C62.4272 124.511 60.2366 124.65 58.0401 124.745C56.6302 124.806 56.2648 124.369 56.4513 122.812Z" fill="#F8D8C2"/>
<path d="M86.636 116.595C86.4099 117.289 86.2638 118.003 86.2574 118.74C86.2514 119.429 86.3691 120.13 86.4204 120.825C86.4443 121.147 86.5099 121.496 86.4517 121.807C86.3833 122.172 86.2532 122.416 86.4929 122.821C86.7031 123.175 87.0689 123.494 87.4709 123.777C88.0279 124.169 88.6804 124.512 89.3977 124.7C90.3358 124.946 91.3025 124.911 92.2584 125.049C94.9914 125.442 97.1629 127.079 99.7535 127.822C101.692 128.377 104.565 128.857 105.794 127.711C106.197 127.335 106.394 126.859 106.55 126.383C106.936 125.209 107.113 123.982 107.214 122.747C107.265 122.115 107.295 121.48 107.326 120.845C107.349 120.377 107.432 119.89 107.059 119.42C106.649 118.905 105.88 118.484 105.183 118.163C102.849 117.088 100.159 116.666 97.559 116.315C96.4389 116.164 95.4263 115.731 94.3554 115.397C93.2312 115.047 92.0909 114.735 90.941 114.463C89.679 114.165 88.3254 114.02 87.5732 114.732C87.2818 115.008 87.1216 115.347 86.9783 115.687C86.852 115.986 86.7362 116.288 86.636 116.595Z" fill="#259BFF"/>
<path d="M100.659 124.631L100.246 124.785C100.127 124.661 99.9125 124.567 99.7034 124.482C97.9551 123.769 96.0908 123.354 94.4977 123.043C91.8183 122.519 89.1067 122.158 86.4218 121.95C86.4324 121.904 86.4429 121.857 86.4522 121.807C86.4645 121.741 86.4687 121.674 86.4716 121.606C89.1573 121.817 91.8684 122.179 94.5478 122.703C96.1783 123.022 98.0893 123.447 99.8994 124.186C100.163 124.293 100.461 124.426 100.659 124.631Z" fill="#3B3348"/>
<path d="M91.0328 116.53L94.6706 117.535C95.8616 117.865 97.0936 118.205 98.3179 118.445C98.4648 118.474 98.6119 118.501 98.7591 118.528C99.1695 118.605 99.5938 118.684 100.012 118.792C100.201 118.841 100.39 118.896 100.579 118.951C101.09 119.1 101.573 119.241 102.049 119.257L102.121 119.611C101.548 119.591 100.994 119.429 100.459 119.274C100.278 119.221 100.097 119.168 99.9156 119.121C99.5238 119.02 99.1129 118.943 98.716 118.869C98.5664 118.842 98.4167 118.814 98.2678 118.785C97.0131 118.539 95.7668 118.194 94.5575 117.86L90.9232 116.855C90.0092 116.603 88.8714 116.289 88.0318 115.706C87.75 115.51 87.5142 115.293 87.2862 115.082C87.3566 114.974 87.4366 114.871 87.5317 114.775C87.5731 114.813 87.6163 114.851 87.657 114.889C87.8874 115.102 88.1054 115.303 88.3618 115.482C89.1043 115.997 90.1287 116.28 91.0328 116.53Z" fill="#3B3348"/>
<path d="M96.9091 123.984C96.949 124.083 96.9789 124.206 96.8674 124.254C96.8091 124.279 96.7283 124.275 96.6526 124.267C96.5195 124.254 96.3674 124.226 96.2847 124.145C96.2461 124.107 96.229 124.063 96.2128 124.02C96.1944 123.972 96.1758 123.92 96.1946 123.876C96.2168 123.824 96.2891 123.793 96.3682 123.784C96.4474 123.774 96.5334 123.784 96.6176 123.794C96.6883 123.802 96.7638 123.813 96.8224 123.848C96.8809 123.882 96.9091 123.984 96.9091 123.984Z" fill="#3B3348"/>
<path d="M94.5185 123.496C94.5584 123.595 94.5882 123.717 94.4768 123.766C94.4185 123.791 94.3377 123.786 94.2619 123.779C94.1289 123.766 93.9768 123.738 93.894 123.657C93.8555 123.619 93.8384 123.575 93.8222 123.532C93.8038 123.483 93.7852 123.432 93.8039 123.388C93.8262 123.336 93.8985 123.305 93.9776 123.295C94.0567 123.286 94.1427 123.295 94.227 123.306C94.2977 123.314 94.3731 123.325 94.4317 123.359C94.4902 123.394 94.5185 123.496 94.5185 123.496Z" fill="#3B3348"/>
<path d="M90.7418 122.91C90.7817 123.01 90.8116 123.132 90.7001 123.18C90.6418 123.205 90.561 123.201 90.4853 123.193C90.3522 123.18 90.2001 123.152 90.1174 123.071C90.0788 123.033 90.0617 122.989 90.0455 122.947C90.0271 122.898 90.0085 122.847 90.0273 122.803C90.0495 122.751 90.1218 122.719 90.2009 122.71C90.2801 122.701 90.3661 122.71 90.4503 122.72C90.521 122.729 90.5964 122.74 90.655 122.774C90.7136 122.808 90.7418 122.91 90.7418 122.91Z" fill="#3B3348"/>
<path d="M92.7222 123.158C92.7621 123.257 92.792 123.38 92.6805 123.428C92.6222 123.453 92.5414 123.448 92.4657 123.441C92.3326 123.428 92.1805 123.4 92.0978 123.319C92.0592 123.281 92.0422 123.237 92.026 123.194C92.0075 123.145 91.9891 123.094 92.0077 123.05C92.0299 122.998 92.1022 122.967 92.1814 122.957C92.2605 122.948 92.3465 122.957 92.4307 122.968C92.5014 122.976 92.5769 122.987 92.6354 123.021C92.694 123.056 92.7222 123.158 92.7222 123.158Z" fill="#3B3348"/>
<path d="M88.8199 122.596C88.8599 122.696 88.8897 122.818 88.7783 122.866C88.72 122.891 88.6392 122.887 88.5634 122.879C88.4303 122.866 88.2782 122.838 88.1955 122.757C88.1569 122.719 88.1398 122.675 88.1237 122.633C88.1052 122.584 88.0867 122.533 88.1054 122.489C88.1276 122.437 88.2 122.405 88.2791 122.396C88.3582 122.387 88.4442 122.396 88.5284 122.406C88.5991 122.415 88.6746 122.426 88.7332 122.46C88.7917 122.494 88.8199 122.596 88.8199 122.596Z" fill="#3B3348"/>
<path d="M98.4266 117.99C98.5011 117.915 98.5752 117.815 98.4913 117.725C98.4475 117.677 98.3716 117.648 98.2994 117.623C98.1724 117.579 98.0222 117.541 97.9154 117.581C97.8656 117.6 97.8331 117.633 97.802 117.666C97.7666 117.703 97.73 117.742 97.7304 117.79C97.7309 117.847 97.7853 117.906 97.8543 117.948C97.9233 117.989 98.0056 118.017 98.0868 118.042C98.1549 118.064 98.2282 118.085 98.295 118.078C98.3619 118.071 98.4266 117.99 98.4266 117.99Z" fill="#3B3348"/>
<path d="M96.0509 117.44C96.1254 117.366 96.1995 117.266 96.1157 117.175C96.0718 117.128 95.9959 117.098 95.9237 117.073C95.7967 117.03 95.6466 116.992 95.5397 117.032C95.4899 117.051 95.4574 117.084 95.4264 117.116C95.3909 117.153 95.3543 117.193 95.3547 117.241C95.3553 117.298 95.4097 117.357 95.4786 117.398C95.5475 117.44 95.6299 117.467 95.7111 117.493C95.7792 117.515 95.8526 117.536 95.9194 117.529C95.9862 117.522 96.0509 117.44 96.0509 117.44Z" fill="#3B3348"/>
<path d="M92.3619 116.399C92.4364 116.324 92.5105 116.225 92.4266 116.134C92.3828 116.086 92.3069 116.057 92.2347 116.032C92.1077 115.988 91.9575 115.951 91.8507 115.991C91.8009 116.009 91.7684 116.042 91.7373 116.075C91.7018 116.112 91.6653 116.151 91.6657 116.199C91.6662 116.256 91.7206 116.315 91.7896 116.357C91.8586 116.398 91.941 116.426 92.0221 116.451C92.0902 116.473 92.1635 116.495 92.2304 116.488C92.2972 116.481 92.3619 116.399 92.3619 116.399Z" fill="#3B3348"/>
<path d="M94.2688 116.997C94.3433 116.923 94.4174 116.823 94.3335 116.732C94.2897 116.685 94.2138 116.655 94.1416 116.631C94.0147 116.587 93.8645 116.549 93.7576 116.589C93.7078 116.608 93.6753 116.641 93.6443 116.673C93.6088 116.71 93.5722 116.75 93.5726 116.798C93.5732 116.855 93.6275 116.914 93.6965 116.955C93.7654 116.997 93.8478 117.024 93.929 117.05C93.9971 117.072 94.0704 117.093 94.1373 117.086C94.2041 117.079 94.2688 116.997 94.2688 116.997Z" fill="#3B3348"/>
<path d="M90.4813 115.886C90.5558 115.811 90.6298 115.711 90.546 115.621C90.5022 115.573 90.4263 115.544 90.3541 115.519C90.2271 115.475 90.077 115.437 89.9701 115.477C89.9203 115.496 89.8878 115.529 89.8567 115.562C89.8212 115.599 89.7847 115.638 89.7851 115.686C89.7856 115.743 89.84 115.802 89.909 115.844C89.978 115.885 90.0603 115.913 90.1415 115.938C90.2096 115.96 90.2829 115.981 90.3497 115.974C90.4166 115.967 90.4813 115.886 90.4813 115.886Z" fill="#3B3348"/>
<path d="M98.1748 117.842C97.8452 117.978 97.5451 118.138 97.2549 118.315C97.0242 118.524 96.7989 118.751 96.6642 119.006L95.8127 120.482L94.9619 121.946C94.8106 122.186 94.6558 122.415 94.4661 122.641C94.3399 122.894 94.1967 123.18 94.3036 123.477C94.359 123.199 94.5752 122.999 94.8118 122.802C95 122.578 95.168 122.331 95.3194 122.09L96.1759 120.616L97.0209 119.151C97.1506 118.907 97.3522 118.701 97.5774 118.503C97.7499 118.275 97.9687 118.064 98.1748 117.842Z" fill="#F8F0E9"/>
<path d="M94.0287 116.756C93.7117 116.929 93.4302 117.128 93.148 117.327C92.9222 117.556 92.7048 117.79 92.4978 118.028C92.0773 118.499 91.7135 119.006 91.3683 119.514C91.1049 120.039 90.6292 120.506 90.4627 121.093C90.3651 121.378 90.2941 121.662 90.2199 121.948C90.2129 122.251 90.2123 122.567 90.349 122.875C90.3693 122.575 90.4683 122.305 90.6006 122.039C90.6734 121.757 90.7453 121.471 90.839 121.199C90.9924 120.645 91.4533 120.195 91.728 119.655C92.0682 119.155 92.4201 118.663 92.8386 118.194C93.0441 117.96 93.2547 117.728 93.4816 117.505C93.6506 117.251 93.8451 117.009 94.0287 116.756Z" fill="#F8F0E9"/>
<path d="M96.604 124.053C96.4982 123.76 96.4009 123.475 96.35 123.189C96.2328 122.908 96.1483 122.624 96.0757 122.339C95.9358 121.769 95.84 121.193 95.7545 120.622C95.6731 120.051 95.617 119.481 95.6108 118.919C95.6081 118.638 95.6136 118.358 95.6376 118.081C95.5961 117.793 95.5835 117.509 95.5589 117.218C95.4284 117.475 95.3412 117.745 95.2527 118.017C95.2281 118.3 95.2226 118.585 95.2253 118.871C95.2316 119.444 95.2887 120.021 95.3708 120.598C95.4575 121.176 95.5528 121.751 95.696 122.335C95.7691 122.627 95.8604 122.92 95.9767 123.213C96.1544 123.502 96.3517 123.788 96.604 124.053Z" fill="#F8F0E9"/>
<path d="M98.1824 117.848C98.0897 118.1 98.0078 118.35 97.8975 118.592C97.8535 118.848 97.7897 119.1 97.72 119.352C97.5791 119.854 97.4035 120.35 97.2399 120.852C97.0755 121.354 96.9309 121.862 96.8071 122.375L96.6364 123.148C96.649 123.421 96.6517 123.69 96.688 123.966L97.0186 123.231L97.1878 122.465C97.3107 121.957 97.4539 121.453 97.6171 120.955C97.7798 120.456 97.9563 119.957 98.0992 119.448C98.1713 119.193 98.2322 118.935 98.2833 118.673C98.268 118.399 98.2515 118.125 98.1824 117.848Z" fill="#F8F0E9"/>
<path d="M92.1262 116.181C91.8216 116.376 91.5437 116.587 91.26 116.797C91.0341 117.037 90.811 117.28 90.6073 117.533C90.1748 118.031 89.9211 118.601 89.6224 119.148C89.3541 119.704 89.1104 120.268 88.8811 120.836L88.552 121.692C88.5101 121.997 88.458 122.298 88.4387 122.608L88.9272 121.8L89.2544 120.949C89.4823 120.385 89.7249 119.824 89.9912 119.272C90.2855 118.734 90.5317 118.177 90.9528 117.693C91.1529 117.447 91.3683 117.206 91.5968 116.972C91.7672 116.707 91.9601 116.451 92.1262 116.181Z" fill="#F8F0E9"/>
<path d="M95.7047 117.245C95.4134 117.414 95.1686 117.617 94.9362 117.83C94.7729 118.071 94.6218 118.317 94.4764 118.56C94.1862 119.048 93.8978 119.538 93.6451 120.043C93.3777 120.542 93.2133 121.084 92.9638 121.568C92.8377 121.807 92.645 122.032 92.5055 122.287C92.4234 122.561 92.3606 122.836 92.3593 123.121C92.5139 122.876 92.6705 122.639 92.8684 122.422C92.9989 122.181 93.192 121.957 93.3287 121.699C93.5937 121.183 93.7477 120.663 94.0125 120.169C94.2617 119.671 94.5477 119.185 94.8375 118.698C94.9845 118.455 95.1276 118.215 95.2903 117.984C95.3993 117.73 95.5502 117.49 95.7047 117.245Z" fill="#F8F0E9"/>
<path d="M93.9797 116.786C93.7564 117.011 93.5734 117.254 93.4104 117.507C93.3241 117.781 93.2479 118.058 93.1935 118.34C93.1369 118.621 93.1001 118.906 93.0785 119.194L93.0741 119.641L93.1515 120.093L93.5335 121.842C93.5975 122.133 93.6611 122.426 93.7373 122.721C93.8985 123.016 94.0523 123.311 94.2649 123.597C94.2537 123.3 94.2325 123.012 94.2432 122.724C94.1687 122.436 94.1057 122.147 94.0417 121.855L93.6603 120.109L93.5873 119.688L93.592 119.277C93.613 118.999 93.6485 118.723 93.7033 118.451C93.7576 118.178 93.8259 117.909 93.917 117.646L93.9797 116.786Z" fill="#F8F0E9"/>
<path d="M92.164 116.185C91.9923 116.445 91.8552 116.715 91.7292 116.99C91.683 117.281 91.6363 117.572 91.6043 117.866C91.5371 118.454 91.5045 119.048 91.5067 119.646C91.5089 120.244 91.5458 120.846 91.6175 121.451C91.6547 121.754 91.699 122.057 91.7523 122.361L91.9642 122.826C92.001 122.91 92.1 123.016 92.2065 123.065C92.3054 123.118 92.4111 123.152 92.4486 123.232C92.4654 123.153 92.3606 123.068 92.3029 123.004C92.2347 122.938 92.2276 122.891 92.2273 122.824L92.2626 122.385C92.2102 122.086 92.1666 121.787 92.1299 121.489C92.0593 120.893 92.023 120.3 92.0208 119.711C92.0187 119.122 92.0507 118.537 92.1169 117.959C92.1501 117.67 92.1905 117.382 92.2438 117.097C92.2191 116.795 92.2035 116.494 92.164 116.185Z" fill="#F8F0E9"/>
<path d="M90.1835 115.702C90.1176 116.001 90.014 116.277 89.8914 116.551L89.7256 117.431C89.6262 118.031 89.6058 118.644 89.6358 119.259C89.6657 119.874 89.7441 120.493 89.8406 121.11L89.9951 122.034C90.1348 122.346 90.2545 122.656 90.4118 122.969C90.4615 122.666 90.4732 122.362 90.5056 122.058L90.3517 121.138C90.2559 120.526 90.1788 119.917 90.1496 119.314C90.1202 118.711 90.1405 118.115 90.2365 117.535L90.4063 116.656C90.3814 116.341 90.3314 116.017 90.1835 115.702Z" fill="#F8F0E9"/>
<path d="M103.209 128.407C102.699 128.184 102.207 127.936 101.797 127.627C101.402 127.328 101.096 126.984 100.812 126.638C100.059 125.719 99.437 124.762 98.9604 123.788C98.8305 123.523 98.7106 123.254 98.6675 122.987C98.6317 122.766 98.6489 122.549 98.675 122.336C98.7565 121.665 98.9244 121.011 99.1762 120.382C99.4222 119.767 99.7638 119.16 100.421 118.747C100.783 118.518 101.23 118.357 101.697 118.227C102.261 118.07 102.859 117.956 103.48 117.887C103.77 117.855 104.065 117.834 104.363 117.821C104.639 117.928 104.912 118.04 105.178 118.163C105.875 118.483 106.645 118.904 107.054 119.42C107.427 119.89 107.344 120.377 107.321 120.844C107.29 121.479 107.26 122.114 107.209 122.746C107.108 123.982 106.931 125.208 106.545 126.383C106.389 126.859 106.192 127.334 105.789 127.71C105.207 128.253 104.255 128.428 103.209 128.407Z" fill="#F8F0E9"/>
<path d="M103.657 124.187C103.837 123.079 104.005 121.969 104.161 120.857C104.227 120.389 104.291 119.915 104.191 119.428C104.133 119.147 104.021 118.865 103.91 118.585C103.768 118.226 103.625 117.867 103.483 117.508C104.065 117.696 104.635 117.911 105.184 118.163C105.88 118.484 106.65 118.905 107.059 119.42C107.432 119.89 107.349 120.377 107.326 120.845C107.296 121.48 107.266 122.115 107.214 122.747C107.113 123.982 106.936 125.209 106.55 126.383C106.394 126.86 106.198 127.335 105.795 127.711C105.067 128.389 103.763 128.496 102.417 128.356C103.156 127.074 103.424 125.621 103.657 124.187Z" fill="#3B3348"/>
<path d="M105.697 127.464C105.699 127.452 105.698 127.438 105.694 127.423C105.673 127.35 105.571 127.291 105.467 127.293C104.802 127.299 104.103 127.2 103.443 127.006C103.339 126.975 103.235 127.005 103.21 127.071C103.185 127.143 103.248 127.217 103.351 127.247C104.066 127.457 104.824 127.565 105.544 127.558C105.628 127.557 105.688 127.518 105.697 127.464Z" fill="#15121A"/>
<path d="M105.885 126.707C105.895 126.65 105.845 126.586 105.76 126.554C105.66 126.516 105.549 126.536 105.513 126.599C105.514 126.596 105.473 126.593 105.38 126.573L103.755 126.229C103.649 126.207 103.553 126.246 103.54 126.315C103.54 126.316 103.54 126.316 103.54 126.317C103.528 126.386 103.603 126.46 103.708 126.482L105.333 126.826C105.712 126.906 105.835 126.804 105.875 126.736C105.88 126.727 105.884 126.717 105.885 126.707Z" fill="#15121A"/>
<path d="M105.991 125.845C105.991 125.843 105.992 125.84 105.992 125.838C105.998 125.767 105.917 125.695 105.81 125.677C105.26 125.584 104.706 125.463 104.164 125.316C104.06 125.288 103.958 125.32 103.936 125.388C103.913 125.458 103.981 125.533 104.085 125.561C104.646 125.713 105.219 125.839 105.788 125.934C105.891 125.952 105.98 125.912 105.991 125.845Z" fill="#15121A"/>
<path d="M106.866 119.669C106.876 119.606 106.814 119.536 106.718 119.509C106.609 119.478 106.502 119.421 106.389 119.362C106.345 119.339 106.302 119.316 106.257 119.294C105.856 119.096 105.4 118.982 105.048 118.905C104.903 118.873 104.784 118.847 104.685 118.809C104.654 118.737 104.548 118.685 104.447 118.692C104.372 118.697 104.288 118.748 104.293 118.795C104.281 118.87 104.355 118.945 104.43 118.983C104.605 119.071 104.798 119.113 104.968 119.15C105.316 119.227 105.727 119.329 106.074 119.5L106.194 119.562C106.327 119.632 106.464 119.704 106.63 119.751C106.734 119.781 106.838 119.751 106.861 119.684C106.863 119.679 106.865 119.674 106.866 119.669Z" fill="#15121A"/>
<path d="M106.968 120.578L106.988 120.509L106.923 120.404C106.717 120.25 106.447 120.188 106.208 120.133C105.759 120.029 105.331 119.909 104.918 119.772C104.816 119.738 104.708 119.764 104.678 119.829C104.648 119.899 104.706 119.974 104.807 120.008C105.238 120.151 105.684 120.275 106.132 120.379C106.322 120.422 106.501 120.464 106.622 120.536C106.647 120.577 106.692 120.614 106.749 120.629C106.854 120.656 106.948 120.646 106.968 120.578Z" fill="#15121A"/>
<path d="M106.861 121.244C106.862 121.239 106.863 121.233 106.862 121.227C106.86 121.155 106.773 121.087 106.666 121.074C106.055 121.003 105.434 120.842 104.87 120.609C104.772 120.568 104.659 120.585 104.618 120.645C104.575 120.706 104.622 120.789 104.72 120.829C105.333 121.083 106.009 121.258 106.673 121.336C106.771 121.347 106.851 121.307 106.861 121.244Z" fill="#15121A"/>
<path d="M106.798 122.17C106.798 122.169 106.799 122.167 106.799 122.166C106.807 122.095 106.727 122.022 106.621 122.003C105.98 121.888 105.337 121.751 104.711 121.595C104.606 121.569 104.506 121.604 104.488 121.672C104.462 121.734 104.539 121.817 104.644 121.843C105.283 122.002 105.938 122.142 106.592 122.259C106.696 122.278 106.787 122.238 106.798 122.17Z" fill="#15121A"/>
<path d="M106.747 123.056C106.757 122.998 106.706 122.934 106.62 122.902C106.478 122.849 106.333 122.828 106.205 122.808C105.651 122.726 105.112 122.622 104.582 122.495C104.477 122.47 104.378 122.505 104.36 122.574C104.35 122.638 104.415 122.719 104.52 122.745C105.066 122.875 105.623 122.983 106.173 123.065C106.303 123.084 106.406 123.1 106.491 123.131C106.591 123.168 106.701 123.147 106.737 123.084C106.742 123.075 106.745 123.065 106.747 123.056Z" fill="#15121A"/>
<path d="M106.734 124.087C106.745 124.018 106.671 123.944 106.566 123.922L104.499 123.482C104.393 123.459 104.297 123.497 104.284 123.567C104.284 123.568 104.284 123.568 104.284 123.569C104.272 123.638 104.347 123.712 104.451 123.734L106.518 124.174C106.624 124.197 106.72 124.159 106.733 124.089C106.734 124.088 106.734 124.088 106.734 124.087Z" fill="#15121A"/>
<path d="M106.369 125.022C106.38 124.954 106.309 124.881 106.205 124.857L105.097 124.604C104.862 124.55 104.62 124.495 104.417 124.399C104.323 124.354 104.206 124.364 104.158 124.422C104.11 124.481 104.146 124.563 104.241 124.608C104.501 124.732 104.788 124.797 105.041 124.855L106.149 125.108C106.255 125.132 106.352 125.096 106.368 125.026C106.369 125.025 106.369 125.023 106.369 125.022Z" fill="#15121A"/>
<path d="M59.4603 119.128C59.5504 119.852 59.5579 120.581 59.4239 121.305C59.2986 121.983 59.0496 122.649 58.8669 123.322C58.7822 123.634 58.6513 123.964 58.6494 124.28C58.6471 124.651 58.7283 124.916 58.416 125.268C58.1421 125.576 57.7223 125.82 57.2736 126.022C56.6521 126.302 55.9462 126.515 55.2061 126.564C54.2382 126.629 53.2955 126.412 52.3308 126.367C49.5725 126.237 47.1289 127.434 44.4439 127.674C42.435 127.854 39.5224 127.782 38.5339 126.425C38.2096 125.979 38.1074 125.475 38.0446 124.978C37.8894 123.752 37.9492 122.515 38.085 121.283C38.1546 120.652 38.2462 120.023 38.3368 119.394C38.4035 118.931 38.4146 118.437 38.8705 118.046C39.3703 117.617 40.2062 117.349 40.951 117.165C43.4473 116.55 46.1696 116.644 48.7888 116.79C49.9174 116.853 50.994 116.619 52.109 116.494C53.2795 116.363 54.4584 116.272 55.6392 116.222C56.9352 116.167 58.2918 116.28 58.8948 117.122C59.1285 117.448 59.2212 117.811 59.2973 118.171C59.3644 118.489 59.4204 118.808 59.4603 119.128Z" fill="#259BFF"/>
<path d="M44.1628 124.37L44.5392 124.6C44.6796 124.5 44.9079 124.449 45.1295 124.404C46.9818 124.034 48.8912 123.979 50.5147 123.975C53.2452 123.966 55.9764 124.124 58.6521 124.427C58.6505 124.379 58.6492 124.331 58.6495 124.28C58.6499 124.214 58.6585 124.146 58.6687 124.079C55.9916 123.779 53.2608 123.623 50.5302 123.632C48.8685 123.637 46.9112 123.693 44.9934 124.077C44.7139 124.132 44.396 124.206 44.1628 124.37Z" fill="#3B3348"/>
<path d="M55.1462 118.232L51.383 118.533C50.1509 118.631 48.8764 118.733 47.6287 118.737C47.479 118.738 47.3293 118.737 47.1797 118.736C46.7621 118.733 46.3304 118.731 45.8995 118.758C45.7042 118.77 45.5082 118.789 45.3122 118.807C44.7819 118.857 44.2812 118.904 43.8105 118.83L43.673 119.164C44.2391 119.252 44.8133 119.198 45.3686 119.146C45.5569 119.129 45.7448 119.111 45.9314 119.099C46.3353 119.074 46.7533 119.076 47.157 119.079C47.3093 119.08 47.4615 119.081 47.6133 119.08C48.892 119.076 50.1813 118.973 51.4323 118.873L55.1919 118.573C56.1373 118.498 57.3143 118.404 58.2496 117.99C58.5636 117.851 58.8363 117.683 59.1004 117.518C59.0518 117.399 58.9929 117.283 58.9178 117.17C58.8699 117.2 58.8202 117.229 58.7731 117.259C58.5063 117.424 58.254 117.581 57.9683 117.708C57.1411 118.074 56.0814 118.158 55.1462 118.232Z" fill="#3B3348"/>
<path d="M47.966 124.443C47.9078 124.533 47.8552 124.648 47.9555 124.716C48.008 124.752 48.0882 124.763 48.164 124.77C48.2971 124.782 48.4518 124.784 48.5485 124.719C48.5936 124.689 48.6187 124.649 48.6427 124.611C48.6701 124.566 48.6981 124.519 48.6881 124.473C48.6762 124.417 48.6111 124.373 48.5352 124.349C48.4593 124.325 48.3731 124.318 48.2885 124.312C48.2175 124.307 48.1413 124.303 48.0772 124.326C48.0131 124.349 47.966 124.443 47.966 124.443Z" fill="#3B3348"/>
<path d="M50.4035 124.414C50.3453 124.504 50.2927 124.619 50.393 124.687C50.4455 124.723 50.5257 124.734 50.6015 124.741C50.7346 124.753 50.8893 124.754 50.986 124.69C51.0311 124.66 51.0562 124.62 51.0802 124.581C51.1076 124.537 51.1356 124.49 51.1256 124.444C51.1137 124.388 51.0486 124.344 50.9727 124.32C50.8968 124.295 50.8106 124.288 50.726 124.282C50.655 124.278 50.5788 124.274 50.5147 124.297C50.4506 124.319 50.4035 124.414 50.4035 124.414Z" fill="#3B3348"/>
<path d="M54.2236 124.553C54.1654 124.643 54.1128 124.758 54.2131 124.826C54.2655 124.862 54.3458 124.873 54.4215 124.88C54.5547 124.892 54.7094 124.893 54.8061 124.829C54.8512 124.799 54.8763 124.759 54.9003 124.721C54.9277 124.676 54.9556 124.629 54.9456 124.583C54.9338 124.527 54.8687 124.483 54.7928 124.459C54.7169 124.435 54.6307 124.428 54.5461 124.422C54.475 124.417 54.3989 124.413 54.3348 124.436C54.2707 124.458 54.2236 124.553 54.2236 124.553Z" fill="#3B3348"/>
<path d="M52.2316 124.423C52.1735 124.513 52.1208 124.628 52.2212 124.696C52.2736 124.732 52.3538 124.743 52.4296 124.75C52.5627 124.762 52.7174 124.764 52.8141 124.699C52.8592 124.669 52.8844 124.629 52.9083 124.591C52.9357 124.546 52.9637 124.499 52.9537 124.453C52.9418 124.397 52.8767 124.353 52.8008 124.329C52.7249 124.305 52.6387 124.298 52.5541 124.292C52.4831 124.287 52.4069 124.283 52.3428 124.306C52.2787 124.329 52.2316 124.423 52.2316 124.423Z" fill="#3B3348"/>
<path d="M56.1691 124.608C56.111 124.698 56.0583 124.813 56.1587 124.881C56.2111 124.917 56.2913 124.927 56.3671 124.935C56.5002 124.947 56.6549 124.948 56.7516 124.884C56.7967 124.854 56.8219 124.814 56.8458 124.775C56.8732 124.731 56.9012 124.684 56.8912 124.637C56.8793 124.582 56.8142 124.538 56.7383 124.513C56.6624 124.489 56.5762 124.482 56.4916 124.476C56.4206 124.471 56.3444 124.468 56.2803 124.49C56.2163 124.513 56.1691 124.608 56.1691 124.608Z" fill="#3B3348"/>
<path d="M47.6158 118.271C47.5568 118.184 47.5031 118.071 47.6027 117.998C47.6548 117.96 47.7349 117.945 47.8105 117.934C47.9435 117.916 48.0982 117.907 48.1955 117.966C48.2408 117.994 48.2664 118.033 48.2907 118.07C48.3185 118.113 48.3469 118.159 48.3373 118.206C48.326 118.262 48.2614 118.309 48.1857 118.337C48.1101 118.365 48.024 118.377 47.9394 118.387C47.8684 118.395 47.7923 118.402 47.7281 118.383C47.6638 118.363 47.6158 118.271 47.6158 118.271Z" fill="#3B3348"/>
<path d="M50.0563 118.181C49.9974 118.094 49.9436 117.982 50.0433 117.908C50.0954 117.87 50.1755 117.855 50.2511 117.845C50.3841 117.826 50.5387 117.817 50.636 117.876C50.6814 117.904 50.7069 117.943 50.7312 117.981C50.759 118.024 50.7874 118.069 50.7779 118.116C50.7665 118.172 50.7019 118.22 50.6263 118.247C50.5507 118.275 50.4645 118.287 50.38 118.297C50.309 118.305 50.2329 118.312 50.1686 118.293C50.1043 118.273 50.0563 118.181 50.0563 118.181Z" fill="#3B3348"/>
<path d="M53.8736 117.855C53.8147 117.767 53.7609 117.655 53.8605 117.582C53.9126 117.544 53.9927 117.529 54.0684 117.518C54.2014 117.5 54.356 117.491 54.4533 117.55C54.4986 117.578 54.5242 117.617 54.5485 117.654C54.5763 117.697 54.6047 117.743 54.5951 117.79C54.5838 117.846 54.5192 117.893 54.4436 117.921C54.3679 117.949 54.2818 117.96 54.1972 117.97C54.1263 117.979 54.0502 117.986 53.9859 117.967C53.9216 117.947 53.8736 117.855 53.8736 117.855Z" fill="#3B3348"/>
<path d="M51.8845 118.081C51.8255 117.994 51.7718 117.882 51.8714 117.809C51.9235 117.77 52.0036 117.756 52.0792 117.745C52.2122 117.726 52.3668 117.717 52.4641 117.777C52.5095 117.805 52.535 117.843 52.5594 117.881C52.5872 117.924 52.6156 117.969 52.606 118.017C52.5947 118.072 52.5301 118.12 52.4544 118.148C52.3788 118.176 52.2926 118.187 52.2081 118.197C52.1371 118.205 52.061 118.213 51.9968 118.193C51.9325 118.174 51.8845 118.081 51.8845 118.081Z" fill="#3B3348"/>
<path d="M55.822 117.706C55.763 117.619 55.7093 117.506 55.8089 117.433C55.861 117.395 55.9411 117.38 56.0167 117.37C56.1497 117.351 56.3043 117.342 56.4016 117.401C56.447 117.429 56.4725 117.468 56.4969 117.505C56.5247 117.548 56.553 117.594 56.5435 117.641C56.5321 117.697 56.4676 117.744 56.3919 117.772C56.3163 117.8 56.2302 117.812 56.1456 117.822C56.0746 117.83 55.9985 117.837 55.9343 117.818C55.87 117.798 55.822 117.706 55.822 117.706Z" fill="#3B3348"/>
<path d="M47.8942 118.172C48.1921 118.368 48.4561 118.582 48.7074 118.811C48.8941 119.06 49.0722 119.325 49.156 119.6L49.711 121.21L50.2677 122.809C50.3705 123.073 50.4789 123.328 50.6221 123.585C50.698 123.857 50.784 124.165 50.6225 124.437C50.6211 124.153 50.4468 123.916 50.2522 123.677C50.1099 123.422 49.992 123.148 49.8893 122.882L49.3288 121.274L48.7782 119.675C48.6972 119.412 48.5384 119.172 48.355 118.935C48.229 118.678 48.0543 118.43 47.8942 118.172Z" fill="#F8F0E9"/>
<path d="M52.1653 117.888C52.4436 118.118 52.6824 118.366 52.9214 118.615C53.0994 118.883 53.2684 119.153 53.4264 119.426C53.7497 119.968 54.0103 120.534 54.2525 121.098C54.4113 121.663 54.7895 122.211 54.8412 122.82C54.8829 123.118 54.8984 123.41 54.9168 123.705C54.8661 124.004 54.8064 124.314 54.6137 124.591C54.6509 124.292 54.6051 124.008 54.5258 123.722C54.5079 123.432 54.4918 123.138 54.4517 122.852C54.4064 122.28 54.0395 121.751 53.8727 121.168C53.6339 120.613 53.3818 120.064 53.0602 119.525C52.9031 119.256 52.7406 118.988 52.5601 118.726C52.4425 118.445 52.2976 118.171 52.1653 117.888Z" fill="#F8F0E9"/>
<path d="M48.2515 124.567C48.4111 124.299 48.561 124.038 48.6653 123.767C48.8338 123.513 48.9709 123.25 49.0964 122.984C49.3422 122.451 49.5459 121.903 49.7387 121.359C49.9272 120.813 50.0907 120.265 50.2039 119.714C50.26 119.438 50.308 119.162 50.3371 118.886C50.4326 118.611 50.4992 118.334 50.5788 118.053C50.6579 118.331 50.692 118.612 50.7273 118.896C50.6976 119.178 50.6487 119.459 50.5916 119.74C50.4764 120.301 50.3106 120.856 50.12 121.408C49.9249 121.959 49.7219 122.505 49.4701 123.052C49.3428 123.324 49.1973 123.595 49.0272 123.861C48.7976 124.111 48.5496 124.354 48.2515 124.567Z" fill="#F8F0E9"/>
<path d="M47.881 118.176C47.9239 118.442 47.9569 118.702 48.019 118.961C48.0135 119.221 48.0282 119.48 48.0488 119.74C48.0914 120.26 48.1694 120.781 48.2345 121.304C48.3004 121.828 48.3455 122.355 48.3696 122.881L48.3901 123.672C48.3258 123.938 48.2719 124.202 48.1837 124.466L47.9989 123.682L47.9785 122.898C47.9547 122.375 47.9099 121.854 47.8446 121.334C47.7798 120.813 47.7014 120.29 47.6581 119.763C47.6358 119.499 47.6252 119.234 47.6247 118.968C47.692 118.701 47.7603 118.435 47.881 118.176Z" fill="#F8F0E9"/>
<path d="M54.146 117.682C54.4078 117.932 54.6406 118.191 54.8792 118.451C55.0553 118.729 55.2281 119.01 55.3799 119.296C55.7099 119.867 55.8504 120.475 56.0395 121.069C56.197 121.665 56.3292 122.264 56.4462 122.865L56.6063 123.768C56.5894 124.076 56.5831 124.382 56.5432 124.689L56.2172 123.804L56.058 122.906C55.9417 122.309 55.8101 121.713 55.6538 121.121C55.4673 120.536 55.3315 119.943 55.0102 119.389C54.8607 119.109 54.6949 118.832 54.5154 118.559C54.3983 118.266 54.2576 117.979 54.146 117.682Z" fill="#F8F0E9"/>
<path d="M50.434 118.053C50.6878 118.274 50.8894 118.52 51.0772 118.772C51.1916 119.04 51.2931 119.31 51.3897 119.576C51.5819 120.11 51.7717 120.646 51.9237 121.189C52.0913 121.73 52.1493 122.293 52.3024 122.815C52.3805 123.074 52.527 123.331 52.6156 123.607C52.644 123.892 52.6532 124.174 52.6003 124.455C52.4949 124.185 52.3865 123.922 52.2335 123.671C52.1511 123.411 52.0042 123.154 51.9191 122.875C51.7571 122.318 51.7049 121.779 51.5389 121.244C51.389 120.708 51.2008 120.176 51.0089 119.644C50.9109 119.377 50.8161 119.114 50.7003 118.857C50.6414 118.587 50.5389 118.323 50.434 118.053Z" fill="#F8F0E9"/>
<path d="M52.2119 117.928C52.3883 118.191 52.5215 118.465 52.6335 118.744C52.6661 119.03 52.6883 119.316 52.688 119.603C52.69 119.889 52.6718 120.177 52.6382 120.463L52.5575 120.903L52.3955 121.332L51.6875 122.977C51.5693 123.251 51.4511 123.526 51.3201 123.802C51.1056 124.061 50.8985 124.322 50.6354 124.562C50.7029 124.273 50.7785 123.994 50.8228 123.71C50.9507 123.441 51.0677 123.168 51.186 122.894L51.8929 121.251L52.0446 120.852L52.1182 120.448C52.1507 120.171 52.1683 119.893 52.1663 119.615C52.1648 119.338 52.1491 119.06 52.1097 118.785L52.2119 117.928Z" fill="#F8F0E9"/>
<path d="M54.1087 117.68C54.2278 117.968 54.311 118.259 54.3824 118.553C54.3723 118.848 54.3627 119.142 54.3382 119.437C54.2924 120.027 54.2113 120.616 54.0954 121.203C53.9794 121.789 53.8284 122.374 53.6429 122.955C53.5487 123.245 53.4475 123.534 53.3374 123.822L53.0407 124.239C52.9886 124.314 52.8711 124.4 52.7574 124.428C52.6502 124.461 52.54 124.475 52.488 124.546C52.4865 124.465 52.6055 124.401 52.6743 124.35C52.7539 124.298 52.7697 124.253 52.783 124.187L52.8318 123.749C52.9402 123.466 53.0398 123.181 53.1325 122.895C53.3153 122.323 53.4638 121.748 53.5781 121.17C53.6923 120.592 53.7721 120.012 53.8172 119.432C53.8396 119.141 53.8547 118.851 53.8567 118.561C53.9385 118.27 54.0111 117.977 54.1087 117.68Z" fill="#F8F0E9"/>
<path d="M56.1462 117.581C56.1539 117.887 56.203 118.178 56.2713 118.47L56.2666 119.365C56.2501 119.973 56.1536 120.578 56.0069 121.177C55.8604 121.775 55.6658 122.368 55.4535 122.955L55.1258 123.834C54.9293 124.114 54.7527 124.396 54.5388 124.673C54.5476 124.366 54.5941 124.065 54.62 123.761L54.9462 122.887C55.1567 122.304 55.3484 121.72 55.4919 121.134C55.6356 120.548 55.729 119.959 55.745 119.371L55.7457 118.476C55.8301 118.171 55.941 117.862 56.1462 117.581Z" fill="#F8F0E9"/>
<path d="M40.9348 127.595C41.4783 127.473 42.0082 127.322 42.4694 127.096C42.9143 126.877 43.2803 126.597 43.6247 126.311C44.5393 125.55 45.3322 124.728 45.9854 123.862C46.1635 123.627 46.3323 123.385 46.4256 123.131C46.5028 122.921 46.5271 122.705 46.5423 122.49C46.5898 121.816 46.5496 121.142 46.4221 120.477C46.2976 119.827 46.0776 119.166 45.5113 118.636C45.1988 118.344 44.7907 118.101 44.3574 117.885C43.8336 117.624 43.2674 117.4 42.6713 117.215C42.3927 117.128 42.1068 117.052 41.8163 116.983C41.5255 117.036 41.2364 117.094 40.951 117.165C40.2062 117.348 39.3703 117.616 38.8705 118.045C38.4146 118.436 38.4036 118.93 38.3369 119.393C38.2462 120.022 38.1545 120.652 38.0851 121.282C37.9491 122.514 37.8894 123.751 38.0446 124.978C38.1075 125.475 38.2096 125.979 38.5339 126.424C39.0021 127.067 39.9037 127.419 40.9348 127.595Z" fill="#F8F0E9"/>
<path d="M41.3036 123.368C41.3377 122.246 41.3838 121.125 41.4421 120.003C41.4667 119.531 41.4946 119.054 41.6856 118.594C41.7958 118.329 41.9589 118.074 42.1214 117.82C42.3295 117.494 42.5378 117.169 42.746 116.843C42.1382 116.918 41.538 117.021 40.951 117.165C40.2062 117.349 39.3703 117.617 38.8705 118.046C38.4146 118.436 38.4035 118.93 38.3368 119.393C38.2462 120.023 38.1545 120.652 38.0851 121.282C37.9491 122.515 37.8894 123.752 38.0446 124.978C38.1075 125.475 38.2096 125.979 38.5338 126.424C39.1191 127.228 40.3798 127.579 41.7272 127.696C41.2464 126.297 41.2594 124.82 41.3036 123.368Z" fill="#3B3348"/>
<path d="M38.6716 126.2C38.6719 126.187 38.6753 126.174 38.6822 126.161C38.717 126.093 38.8284 126.054 38.9303 126.075C39.5814 126.207 40.2874 126.241 40.9723 126.175C41.0795 126.165 41.1766 126.214 41.1886 126.284C41.199 126.359 41.1232 126.42 41.016 126.43C40.2744 126.501 39.5095 126.463 38.8041 126.321C38.7215 126.304 38.6703 126.255 38.6716 126.2Z" fill="#15121A"/>
<path d="M38.6364 125.421C38.6378 125.363 38.6987 125.31 38.7882 125.294C38.8935 125.276 38.9985 125.317 39.0228 125.386C39.0224 125.382 39.063 125.386 39.1583 125.385L40.819 125.354C40.927 125.352 41.0142 125.408 41.0135 125.479C41.0135 125.48 41.0135 125.48 41.0135 125.481C41.0118 125.551 40.9243 125.61 40.8168 125.611L39.1561 125.642C38.7689 125.649 38.6675 125.526 38.6413 125.452C38.6379 125.441 38.6362 125.431 38.6364 125.421Z" fill="#15121A"/>
<path d="M38.695 124.556C38.6951 124.554 38.6952 124.551 38.6957 124.549C38.703 124.478 38.7966 124.423 38.9044 124.425C39.4622 124.438 40.0293 124.424 40.589 124.382C40.6971 124.374 40.7911 124.425 40.7996 124.495C40.8084 124.569 40.7275 124.63 40.6204 124.637C40.0409 124.681 39.4544 124.696 38.8769 124.682C38.773 124.68 38.6934 124.624 38.695 124.556Z" fill="#15121A"/>
<path d="M39.0114 118.325C39.013 118.261 39.0877 118.205 39.1872 118.196C39.3 118.186 39.416 118.151 39.538 118.114C39.5852 118.099 39.6324 118.085 39.6801 118.072C40.1123 117.953 40.5814 117.927 40.9416 117.918C41.0898 117.914 41.2121 117.911 41.3159 117.893C41.3603 117.828 41.4741 117.797 41.5723 117.823C41.6451 117.842 41.7173 117.907 41.7035 117.953C41.7017 118.029 41.6142 118.088 41.5332 118.112C41.345 118.165 41.1478 118.17 40.9735 118.174C40.6168 118.183 40.1937 118.206 39.8209 118.309L39.6911 118.347C39.5475 118.39 39.3987 118.435 39.2268 118.45C39.1191 118.46 39.023 118.411 39.0126 118.34C39.0117 118.335 39.0113 118.33 39.0114 118.325Z" fill="#15121A"/>
<path d="M38.7373 119.2L38.7302 119.128L38.8149 119.037C39.0463 118.925 39.3231 118.915 39.5678 118.906C40.0286 118.889 40.4716 118.853 40.9034 118.796C41.01 118.782 41.1107 118.827 41.1283 118.897C41.1443 118.971 41.0734 119.034 40.9672 119.048C40.5167 119.107 40.0554 119.145 39.5956 119.162C39.4014 119.169 39.2174 119.176 39.0845 119.224C39.0522 119.26 39.0017 119.287 38.9422 119.291C38.8345 119.298 38.7442 119.27 38.7373 119.2Z" fill="#15121A"/>
<path d="M38.7152 119.875C38.7154 119.869 38.716 119.864 38.7171 119.858C38.7331 119.787 38.8321 119.737 38.9394 119.744C39.5529 119.79 40.1934 119.749 40.7912 119.627C40.8951 119.605 41.0031 119.643 41.032 119.71C41.062 119.778 41.0001 119.85 40.8962 119.872C40.2462 120.005 39.5496 120.05 38.8822 120C38.7842 119.993 38.7137 119.938 38.7152 119.875Z" fill="#15121A"/>
<path d="M38.598 120.794C38.598 120.792 38.5981 120.791 38.5982 120.789C38.604 120.718 38.696 120.661 38.8039 120.663C39.4555 120.671 40.1127 120.658 40.7572 120.624C40.8648 120.618 40.9567 120.67 40.9615 120.741C40.9752 120.807 40.8835 120.874 40.7754 120.88C40.1182 120.915 39.4482 120.928 38.7834 120.92C38.678 120.919 38.5963 120.863 38.598 120.794Z" fill="#15121A"/>
<path d="M38.4841 121.673C38.4855 121.615 38.5474 121.561 38.6379 121.546C38.7872 121.521 38.9337 121.527 39.0635 121.533C39.623 121.556 40.1724 121.556 40.7169 121.531C40.825 121.526 40.9153 121.58 40.9192 121.651C40.9176 121.715 40.8376 121.783 40.73 121.788C40.1688 121.813 39.602 121.814 39.046 121.79C38.9153 121.785 38.811 121.781 38.7216 121.795C38.6162 121.813 38.5118 121.771 38.4886 121.702C38.4852 121.692 38.4838 121.683 38.4841 121.673Z" fill="#15121A"/>
<path d="M38.2966 122.688C38.2983 122.618 38.3858 122.559 38.4928 122.557L40.606 122.515C40.714 122.513 40.8012 122.569 40.8011 122.64C40.8011 122.64 40.8011 122.641 40.801 122.641C40.7993 122.712 40.7119 122.77 40.6049 122.772L38.4917 122.814C38.3837 122.817 38.2965 122.761 38.2967 122.69C38.2965 122.689 38.2965 122.688 38.2966 122.688Z" fill="#15121A"/>
<path d="M38.481 123.678C38.4826 123.609 38.567 123.551 38.673 123.547L39.809 123.507C40.05 123.499 40.2983 123.491 40.516 123.435C40.6175 123.408 40.7298 123.44 40.7664 123.506C40.8025 123.573 40.7507 123.647 40.6488 123.673C40.37 123.746 40.0759 123.756 39.8165 123.764L38.68 123.804C38.572 123.808 38.4831 123.753 38.4808 123.682C38.4808 123.681 38.4809 123.679 38.481 123.678Z" fill="#15121A"/>
<path d="M126.03 99.6198C125.555 98.1027 124.712 96.6611 123.14 96.0229C120.716 95.0398 118.132 94.5788 115.545 94.6585L93.2963 92.9609C91.656 92.7961 90.2052 93.2533 89.3631 90.432L88.2836 84.7734L57.3718 87.0292L54.6949 91.1592C53.5287 93.4622 52.6563 93.1442 51.2429 93.3169L38.0806 94.5087C37.2666 94.4768 36.4459 94.4739 35.6173 94.5039C35.0767 94.5039 34.5358 94.519 33.9958 94.5016C31.3059 94.4151 28.7583 94.7764 26.3452 95.5714L26.2651 95.5787L26.2693 95.597C24.0793 96.3277 21.9999 97.4152 20.0302 98.8642C18.5393 99.9611 17.084 102.405 17.6854 104.741C18.3067 107.154 19.6295 109.086 21.395 110.741C24.1594 113.332 27.7563 114.293 31.1864 115.538C34.668 116.801 38.3205 117.069 41.9962 117.134C46.9732 117.222 51.9504 117.288 56.9029 116.686C59.0715 116.423 61.2288 116.421 63.3822 116.564C62.8787 116.988 62.2366 117.274 61.3802 117.379C60.8712 117.441 60.4487 117.734 60.5674 118.342C60.9139 120.117 61.1876 121.908 61.6241 123.663C62.0322 125.303 62.4481 125.441 64.1769 125.002C64.6661 124.878 65.157 124.474 65.7071 124.801C67.0769 125.617 68.6127 125.546 70.2979 125.542C73.4614 125.149 76.7506 124.558 80.098 124.372C85.5047 124.072 90.9061 123.633 96.202 122.495C104.611 120.687 112.641 118.058 119.471 112.842C121.403 111.366 123.431 109.936 124.845 108.052C126.75 105.514 126.953 102.57 126.03 99.6198Z" fill="#3B3348"/>
<path d="M97.6842 96.8958C95.738 97.2068 93.8171 97.6639 91.9224 98.2022C90.0249 98.7345 88.164 99.3823 86.3112 100.042C85.3847 100.372 84.4625 100.713 83.5406 101.053C82.6179 101.397 81.6991 101.723 80.7738 102.086C77.1116 103.588 73.7319 105.79 70.9295 108.581C70.5816 108.931 70.2373 109.287 69.9054 109.651C69.5727 110.013 69.2446 110.376 68.9016 110.721C68.5588 111.067 68.2006 111.393 67.8125 111.683C67.4247 111.975 67.014 112.24 66.604 112.511C65.7899 113.053 64.946 113.615 64.3321 114.407C64.0224 114.799 63.7938 115.238 63.5358 115.653C63.3836 115.902 63.2143 116.145 63.0184 116.362C63.0272 116.367 63.0359 116.371 63.0447 116.375C63.2501 116.167 63.4311 115.932 63.5943 115.691C63.8697 115.283 64.1124 114.853 64.4274 114.484C65.0516 113.734 65.8936 113.214 66.7257 112.702C67.1436 112.444 67.5625 112.182 67.9669 111.892C68.3723 111.603 68.7504 111.274 69.1065 110.929C69.4634 110.585 69.8022 110.226 70.1415 109.872C70.4799 109.517 70.8264 109.174 71.1779 108.835C72.592 107.488 74.1236 106.266 75.76 105.203C77.3975 104.141 79.139 103.243 80.9474 102.516C84.6082 101.119 88.2805 99.698 92.0237 98.5445C93.8962 97.9677 95.7953 97.4746 97.7226 97.1201C99.6471 96.7499 101.603 96.5388 103.568 96.4945C101.602 96.4334 99.6315 96.5998 97.6842 96.8958Z" fill="#15121A"/>
<path d="M62.35 124.212C62.3404 124.14 62.389 124.072 62.4616 124.059L63.9791 123.774C64.0541 123.76 64.126 123.809 64.14 123.884C64.1616 123.972 64.1045 124.031 64.0297 124.044L62.5122 124.329C62.4376 124.343 62.3653 124.294 62.3513 124.219C62.3506 124.217 62.3502 124.215 62.35 124.212Z" fill="#15121A"/>
<path d="M61.9431 123.275C61.9342 123.208 61.9756 123.143 62.0427 123.124C62.6686 122.949 63.3129 122.806 63.9583 122.699C64.0336 122.686 64.1046 122.737 64.1172 122.812C64.1343 122.881 64.0785 122.957 64.0033 122.97C63.3677 123.076 62.7333 123.217 62.1172 123.389C62.0438 123.41 61.9677 123.367 61.947 123.294C61.9451 123.288 61.9439 123.281 61.9431 123.275Z" fill="#15121A"/>
<path d="M61.697 122.195C61.6969 122.195 61.6969 122.194 61.6969 122.194C61.6875 122.119 61.7411 122.05 61.8168 122.04C62.4896 121.956 63.163 121.824 63.8187 121.65C63.8923 121.63 63.9682 121.674 63.9878 121.747C64.0068 121.827 63.9634 121.896 63.8898 121.915C63.2222 122.093 62.5363 122.227 61.8511 122.313C61.7757 122.323 61.707 122.27 61.697 122.195Z" fill="#15121A"/>
<path d="M61.5253 121.149C61.5169 121.086 61.5528 121.024 61.6152 121.002C61.6931 120.973 61.7667 120.924 61.8451 120.872C61.9207 120.821 61.9971 120.771 62.0796 120.734C62.2197 120.671 62.3651 120.649 62.506 120.628L63.6764 120.451C63.7518 120.439 63.8222 120.491 63.8337 120.566C63.8339 120.567 63.834 120.568 63.8341 120.568C63.844 120.643 63.7922 120.711 63.7178 120.723L62.5478 120.9C62.4194 120.919 62.2985 120.938 62.1931 120.985C62.1243 121.016 62.0616 121.058 61.9987 121.1C61.9104 121.159 61.8188 121.22 61.7094 121.26C61.6378 121.286 61.5584 121.249 61.5326 121.178C61.529 121.168 61.5266 121.159 61.5253 121.149Z" fill="#15121A"/>
<path d="M61.3221 120.186C61.312 120.111 61.3652 120.041 61.4408 120.031C61.7992 119.984 62.1388 119.869 62.4983 119.748C62.7911 119.65 63.0937 119.549 63.4052 119.487C63.4802 119.472 63.5527 119.52 63.5674 119.595C63.5857 119.672 63.5334 119.742 63.4587 119.757C63.1649 119.815 62.8711 119.913 62.5866 120.009C62.2302 120.129 61.8621 120.253 61.4774 120.304C61.4016 120.314 61.3321 120.261 61.3221 120.186Z" fill="#15121A"/>
<path d="M61.2283 119.277C61.221 119.222 61.2476 119.166 61.2998 119.138C61.4152 119.076 61.5219 119.03 61.6265 118.998C61.724 118.968 61.8245 118.948 61.925 118.929L61.9778 118.919C62.3463 118.846 62.7098 118.742 63.0578 118.609C63.1289 118.582 63.2088 118.617 63.2364 118.688C63.2631 118.76 63.2275 118.838 63.1568 118.866C62.7938 119.005 62.415 119.113 62.0306 119.189L61.9764 119.199C61.8865 119.216 61.7959 119.233 61.7085 119.26C61.6209 119.287 61.5304 119.326 61.4308 119.38C61.3637 119.416 61.2798 119.391 61.2437 119.324C61.2355 119.309 61.2305 119.293 61.2283 119.277Z" fill="#15121A"/>
<path d="M61.0993 118.557C61.094 118.516 61.1067 118.473 61.1381 118.442C61.3351 118.244 61.5958 118.177 61.8486 118.112C62.0286 118.067 62.1989 118.023 62.3388 117.935C62.4054 117.893 62.4649 117.842 62.5248 117.79C62.5836 117.739 62.6426 117.689 62.7065 117.645C62.7693 117.601 62.8552 117.617 62.8987 117.679C62.9411 117.741 62.9268 117.827 62.8637 117.871C62.8082 117.909 62.7569 117.954 62.7054 117.998C62.6351 118.058 62.5644 118.118 62.4861 118.168C62.3097 118.279 62.1099 118.33 61.9166 118.379C61.6909 118.437 61.4775 118.491 61.3346 118.635C61.2808 118.689 61.1934 118.69 61.1392 118.636C61.1164 118.614 61.1032 118.586 61.0993 118.557Z" fill="#15121A"/>
<path d="M60.379 118.501C60.3447 118.245 60.3361 117.963 60.517 117.744C60.6393 117.597 60.8089 117.528 60.9721 117.47C61.4488 117.3 61.9424 117.164 62.44 117.067C62.6136 117.033 62.8148 117.004 63.0008 117.097C63.1836 117.189 63.2808 117.365 63.3574 117.523C64.2764 119.406 64.7997 121.507 64.869 123.601C64.9136 124.926 63.5584 125.11 62.9794 125.189C62.819 125.211 62.5991 125.24 62.3989 125.144C62.1944 125.044 62.083 124.852 61.9946 124.679C61.0162 122.767 60.6971 120.632 60.3882 118.567C60.3849 118.545 60.382 118.523 60.379 118.501ZM64.3814 122.182C64.1732 120.624 63.7132 119.091 63.0261 117.683C62.973 117.574 62.9149 117.465 62.8344 117.425C62.7527 117.384 62.6297 117.403 62.5109 117.427C62.0314 117.521 61.5552 117.651 61.0959 117.815C60.9759 117.857 60.8636 117.902 60.8014 117.977C60.7004 118.099 60.7224 118.307 60.7525 118.513C61.0569 120.549 61.3719 122.654 62.3229 124.513C62.3868 124.638 62.4582 124.764 62.5606 124.814C62.6526 124.859 62.7822 124.846 62.9302 124.825C63.893 124.695 64.5288 124.439 64.5008 123.614C64.4853 123.136 64.445 122.658 64.3814 122.182Z" fill="#15121A"/>
<path d="M57.0466 95.3456C56.2564 94.8015 54.4758 93.639 53.5002 93.2652C53.4148 93.2324 53.3717 93.1382 53.3997 93.0511C53.4304 92.9555 53.534 92.9053 53.6277 92.9414C54.6116 93.3206 56.3225 94.4227 57.2431 95.0581C57.3226 95.113 57.3416 95.2215 57.2862 95.3007L57.2859 95.3011C57.2313 95.3793 57.1252 95.3997 57.0466 95.3456Z" fill="#15121A"/>
<path d="M86.778 94.9251L86.7777 94.9247C86.7223 94.8456 86.7414 94.737 86.8209 94.6821C87.7416 94.0466 89.4527 92.9446 90.4364 92.5654C90.53 92.5294 90.6337 92.5796 90.6644 92.6751C90.6924 92.7622 90.6493 92.8565 90.5639 92.8892C89.5886 93.263 87.8077 94.4254 87.0174 94.9696C86.9388 95.0237 86.8327 95.0032 86.778 94.9251Z" fill="#15121A"/>
<path d="M75.4729 105.072C73.796 104.609 72.1113 104.175 70.4229 103.756C68.0942 103.18 65.757 102.637 63.4133 102.126C58.7217 101.121 54.0023 100.248 49.2615 99.5099C46.8892 99.1526 44.5104 98.8374 42.1259 98.572C41.5297 98.509 40.9323 98.4427 40.3365 98.3894C40.0389 98.3614 39.7387 98.3409 39.4432 98.3069L38.5529 98.1953C37.3641 98.0443 36.173 97.8887 34.976 97.8125C36.1658 97.9614 37.3466 98.1594 38.5286 98.3595L39.4172 98.5081C39.7154 98.554 40.0131 98.5803 40.3111 98.6174C40.9078 98.6831 41.5007 98.7577 42.0952 98.8312C44.4705 99.1366 46.8395 99.4915 49.2014 99.8885C53.9293 100.658 58.6346 101.564 63.3167 102.574C67.255 103.406 71.1706 104.34 75.0646 105.358C75.1939 105.253 75.3303 105.158 75.4729 105.072Z" fill="#15121A"/>
<path d="M34.7119 115.21L34.5856 115.015C35.7672 114.249 37.1225 113.704 38.5052 113.44L38.7174 113.4C39.2291 113.307 39.7582 113.21 40.1527 112.898L40.2964 113.081C39.8567 113.428 39.2987 113.53 38.7591 113.629L38.5489 113.668C37.1954 113.927 35.8685 114.46 34.7119 115.21Z" fill="#15121A"/>
<path d="M108.275 43.266C107.779 41.4832 106.966 40.1309 105.856 38.4915C104.824 36.9658 103.782 35.981 103.439 34.0344C103.075 31.9628 103.456 29.8004 103.557 27.7234C103.656 25.6856 103.466 23.4906 102.291 21.9024C101.571 20.9299 100.553 20.2844 99.5488 19.681C97.4221 18.4024 95.2508 17.212 93.0411 16.1132C91.3552 15.2749 89.0964 14.8361 87.5759 13.7247C86.7563 13.1255 86.0433 12.3252 85.1818 11.7956C83.8822 10.9966 81.9513 7.9968 76.2915 6.83225C73.6127 6.28108 73.6888 6.92799 71.9104 7.23031C70.7676 7.42461 70.3084 6.57217 67.8106 7.25252C66.6982 7.5555 64.1204 8.68143 63.2656 9.52769C62.0413 10.7396 62.0427 10.9137 60.7044 11.9978C59.1809 13.2319 58.2422 14.0045 56.4422 14.6167C54.1653 15.3911 51.826 16.4997 50.4687 18.6377C48.9642 21.0075 48.8444 24.3747 46.8092 26.2141C45.5192 27.3799 43.6607 27.7045 42.56 29.0817C41.7868 30.049 41.5262 31.3708 41.3357 32.6369C41.166 33.7646 41.281 35.0756 41.5013 36.3596C41.8498 38.3912 41.4513 40.4852 40.3748 42.2432C39.7251 43.3042 39.1644 44.3949 38.7028 45.8332C37.9328 48.2327 39.0721 51.5918 39.1124 54.1271C39.1484 56.3939 36.77 58.5142 37.8678 60.4398C38.9345 62.3108 40.598 63.6755 42.2839 64.8902C44.4533 66.4534 46.6325 70.2188 49.1925 70.8379C51.7866 71.4653 54.6855 68.7144 57.2886 68.357C60.9098 68.357 64.7734 67.3295 68.3703 66.8356C72.1697 66.314 77.1286 69.543 80.9281 69.0214C87.1685 68.1646 92.1586 71.1493 98.3978 70.305C102.03 69.8135 105.896 63.1807 107.681 59.6976C108.84 57.4389 109.048 54.7575 109.08 52.1702C109.11 49.6482 108.995 47.1123 108.575 44.6281C108.494 44.1429 108.393 43.6922 108.275 43.266Z" fill="#313440"/>
<path d="M75.8495 21.8353C75.47 21.277 75.1439 21.8109 73.3867 19.4855C72.6392 18.4963 72.1121 17.5719 71.705 17.094C71.5935 16.9068 71.2451 16.3564 71.2451 16.3564C71.2417 16.3553 70.8241 16.967 70.8422 16.9974C70.1433 18.654 69.7569 20.736 69.8831 21.9209C70.2194 21.2721 69.7172 21.097 71.0714 18.1907C71.1725 17.9736 71.2663 17.7701 71.3569 17.5727C72.3468 19.0667 74.4264 21.5939 75.8495 21.8353Z" fill="#4D3932"/>
<path d="M90.1611 25.8455C90.1385 25.8988 90.1489 25.9631 90.1929 26.0065C91.2491 27.051 91.9 28.4848 92.5293 29.8714C93.3355 31.6467 94.1687 33.4827 95.8617 34.4811C96.1776 34.6674 96.5145 34.8168 96.8404 34.9619C97.1283 35.0896 97.4257 35.2218 97.7019 35.3769C98.6657 35.9175 99.4321 36.7714 100.055 37.5352C100.626 38.2346 101.263 39.0812 101.663 40.0557C102.297 41.5997 102.29 43.3603 102.187 45.0331C102.173 45.272 102.156 45.5111 102.14 45.7509C102.041 47.2064 101.938 48.7116 102.216 50.1693C102.586 52.1114 103.663 53.6651 105.096 54.3263C105.169 54.3598 105.256 54.328 105.29 54.2547C105.321 54.1828 105.291 54.095 105.218 54.0607C103.871 53.4391 102.856 51.9639 102.503 50.1149C102.232 48.6936 102.334 47.2077 102.432 45.7708C102.448 45.5305 102.464 45.2906 102.479 45.0509C102.583 43.3434 102.59 41.5431 101.933 39.9445C101.519 38.9349 100.866 38.0667 100.282 37.3501C99.6415 36.5653 98.8513 35.6864 97.8449 35.1215C97.5574 34.96 97.2533 34.825 96.9595 34.6948C96.6408 34.5531 96.3118 34.4067 96.0107 34.2291C94.3972 33.2776 93.619 31.5642 92.7958 29.7502C92.1551 28.3398 91.4932 26.881 90.3986 25.7984C90.3411 25.7419 90.2487 25.7424 90.1918 25.7997C90.1785 25.8131 90.168 25.829 90.1611 25.8455Z" fill="#1D1F26"/>
<path d="M47.3419 52.3464C47.2778 52.3613 47.2094 52.3314 47.1784 52.2703C47.1417 52.1983 47.1705 52.1103 47.2425 52.0736C48.0912 51.6432 48.1827 50.4556 48.1617 49.7858C48.1572 49.6391 48.1498 49.4912 48.1422 49.3425C48.101 48.5356 48.0585 47.7016 48.4701 46.993C48.7958 46.4326 49.3383 46.0765 49.8633 45.7325C50.2393 45.4857 50.6283 45.2308 50.9239 44.9057C51.9407 43.7881 51.7578 42.0177 51.4251 40.7291C51.3503 40.4395 51.2671 40.1491 51.1837 39.858C50.8459 38.6787 50.4965 37.4592 50.7019 36.2326C50.9433 34.7925 51.9159 33.5974 52.8359 32.6184C53.6865 31.7132 54.6041 30.853 55.5638 30.0612C55.6259 30.0102 55.7185 30.0184 55.7697 30.0809C55.821 30.1433 55.8123 30.2353 55.75 30.2868C54.7998 31.0707 53.8911 31.9224 53.049 32.8185C52.1591 33.7657 51.2186 34.9177 50.9898 36.2809C50.7954 37.4424 51.1357 38.6293 51.4647 39.7775C51.549 40.071 51.6329 40.364 51.7083 40.6561C52.0587 42.0142 52.2448 43.8883 51.1402 45.1023C50.8197 45.4548 50.4148 45.7202 50.0235 45.977C49.5042 46.3173 49.0139 46.639 48.7232 47.1397C48.3551 47.7733 48.3951 48.5632 48.4343 49.3276C48.442 49.4783 48.4495 49.6282 48.4543 49.7764C48.4774 50.5155 48.3679 51.8304 47.3751 52.3343C47.3642 52.3396 47.3531 52.3437 47.3419 52.3464Z" fill="#1D1F26"/>
<path d="M68.1649 36.1824C68.1695 36.8444 68.0838 37.4978 67.93 38.1418C67.2865 40.8353 65.5933 41.3167 64.2029 42.6766C65.6561 43.1267 69.2629 47.158 70.7834 47.2109C74.943 47.3556 77.0383 43.4597 81.1999 43.5289C81.1821 43.0536 80.7557 42.711 80.3715 42.4303C76.4949 40.0368 75.8048 36.4161 76.5508 32.1308C74.8515 32.109 73.1522 32.0872 71.4529 32.0654C70.7821 32.0568 68.5954 31.8048 68.1604 32.4068C67.7293 33.0036 68.1596 35.4204 68.1649 36.1824Z" fill="#F8D8C2"/>
<path d="M63.1277 24.2332C62.7338 24.3268 62.4077 24.6292 62.2331 24.9944C62.0584 25.3596 62.0243 25.7809 62.0803 26.1818C62.1239 26.4944 62.2197 26.797 62.3149 27.0979C62.4381 27.4867 62.5613 27.8754 62.6844 28.2642C62.7363 28.4279 62.789 28.5935 62.8781 28.7404C63.052 29.0268 63.3661 29.2235 63.6997 29.2548C64.0333 29.2862 64.3785 29.1514 64.6027 28.9024C64.9034 28.5682 64.9665 28.0813 64.9327 27.633C64.8989 27.1847 64.783 26.7433 64.7829 26.2937C64.7828 25.8146 65.0005 25.1828 64.6802 24.7742C64.3582 24.3631 63.6258 24.1148 63.1277 24.2332Z" fill="#F8D8C2"/>
<path d="M82.4068 25.5887C82.64 25.7787 82.7924 26.1534 82.8371 26.5508C82.8818 26.9483 82.827 27.3644 82.7188 27.7381C82.6344 28.0295 82.5187 28.2981 82.4037 28.5652C82.2549 28.9102 82.1062 29.2552 81.9574 29.6003C81.8947 29.7456 81.8313 29.8925 81.748 30.0121C81.5856 30.2453 81.3505 30.3563 81.1328 30.3024C80.9152 30.2486 80.7204 30.0311 80.6231 29.7336C80.4927 29.3345 80.5409 28.8474 80.6436 28.4222C80.7464 27.9971 80.9 27.5992 80.9816 27.1644C81.0686 26.7009 81.0449 26.0348 81.3224 25.7202C81.6016 25.4039 82.1119 25.3486 82.4068 25.5887Z" fill="#F8D8C2"/>
<path d="M79.5789 14.9816C78.3139 13.6569 76.7185 12.9163 75.059 12.5454C74.1635 12.3454 73.2365 12.233 72.322 12.274C71.845 12.2954 71.3657 12.3415 70.8897 12.4176C69.2105 12.6861 67.5728 13.3277 66.229 14.5723C64.3404 16.3217 63.3096 19.0774 63.2019 21.8313C63.1145 24.0672 63.2954 26.314 63.7376 28.4872C64.0643 30.0922 64.4354 31.7531 65.2957 33.1688C66.2104 34.6741 67.7557 35.9497 69.0354 37.1476C69.5833 37.6605 70.103 37.9625 70.8304 38.1497C71.1949 38.2434 71.5661 38.3044 71.9395 38.3285C72.3326 38.3542 72.7274 38.3474 73.1197 38.2994C73.4935 38.2537 73.8643 38.173 74.2282 38.0615C75.2823 37.7387 76.0326 36.9003 76.83 36.1776C77.7816 35.3151 79.0585 34.353 79.6185 33.1854C80.2685 31.83 80.8228 30.479 81.2133 29.023C81.7878 26.8809 82.1059 24.6494 82.1556 22.4123C82.2169 19.657 81.3569 16.8434 79.5789 14.9816Z" fill="#F8D8C2"/>
<path d="M72.7418 32.1696C72.4866 32.1617 72.233 32.1272 71.9855 32.0657C71.8734 32.0378 71.7548 32.0021 71.6497 31.9301C71.5173 31.8391 71.4353 31.707 71.424 31.5671C71.4163 31.4602 71.4496 31.3644 71.4813 31.283C71.6063 30.9643 71.7716 30.663 71.9726 30.3874C72.0197 30.3222 72.1106 30.3085 72.1759 30.3555C72.2407 30.4028 72.255 30.4938 72.2076 30.5587C72.0212 30.8143 71.8679 31.0936 71.7524 31.3891C71.731 31.443 71.7107 31.4996 71.7143 31.5448C71.7181 31.5945 71.7565 31.6505 71.8144 31.6901C71.8812 31.7359 71.9699 31.762 72.0556 31.7832C72.7443 31.955 73.4857 31.899 74.142 31.6262L74.2073 31.599C74.281 31.5671 74.3663 31.6007 74.3986 31.6748C74.4305 31.7485 74.3964 31.8341 74.3227 31.8659L74.2693 31.8883C73.781 32.0911 73.2586 32.1854 72.7418 32.1696Z" fill="#D1785F"/>
<path d="M74.4301 23.7117C74.3876 23.7866 74.3481 23.8718 74.3877 23.9563C74.4165 24.0175 74.4826 24.0668 74.5514 24.1069C74.675 24.1787 74.8141 24.2297 74.9523 24.279C76.1912 24.7211 77.4627 25.084 78.74 25.4176C78.8343 25.4423 78.9463 25.4647 79.0139 25.4191C79.0505 25.3944 79.0646 25.3545 79.0713 25.3152C79.0994 25.1509 79.0213 24.9723 78.8939 24.8218C78.7666 24.6712 78.5932 24.5453 78.4133 24.4303C77.9387 24.127 77.4079 23.888 76.8804 23.6512C76.3895 23.4308 75.8914 23.2081 75.3603 23.0879C75.1379 23.0376 74.9102 23.0281 74.7908 23.1779C74.6563 23.3466 74.5341 23.5281 74.4301 23.7117Z" fill="#1D1F26"/>
<path d="M70.9564 23.7097C70.9988 23.7846 71.0384 23.8699 70.9988 23.9543C70.97 24.0155 70.9039 24.0649 70.8351 24.1049C70.7114 24.1768 70.5723 24.2277 70.4341 24.2771C69.1952 24.7192 67.9238 25.0821 66.6464 25.4157C66.5522 25.4403 66.4401 25.4628 66.3726 25.4172C66.3359 25.3924 66.3219 25.3525 66.3152 25.3133C66.287 25.149 66.3652 24.9704 66.4925 24.8198C66.6199 24.6693 66.7933 24.5433 66.9731 24.4284C67.4478 24.125 67.9786 23.8861 68.506 23.6493C68.9969 23.4288 69.4951 23.2061 70.0261 23.086C70.2486 23.0356 70.4762 23.0262 70.5956 23.1759C70.7302 23.3447 70.8523 23.5261 70.9564 23.7097Z" fill="#1D1F26"/>
<path d="M75.8275 21.8227C75.4499 21.2671 75.1254 21.7984 73.377 19.4846C72.6331 18.5003 72.1086 17.5805 71.7037 17.105C71.5928 16.9187 71.246 16.3711 71.246 16.3711C71.2426 16.37 70.8271 16.9786 70.8452 17.0088C70.1497 18.6571 69.7653 20.7288 69.8909 21.9078C70.2255 21.2622 69.7258 21.088 71.0732 18.1962C71.1739 17.9802 71.2672 17.7777 71.3573 17.5813C72.3422 19.0679 74.4115 21.5825 75.8275 21.8227Z" fill="#313440"/>
<path d="M75.9191 28.4996C75.3209 28.4813 74.8437 28.2997 74.5194 27.9626C74.4452 27.8854 74.4475 27.7627 74.5248 27.6884C74.6022 27.6146 74.7248 27.6164 74.799 27.6938C75.2353 28.1466 75.973 28.1521 76.5165 28.077C77.1836 27.9849 77.8034 27.7811 78.4114 27.4537C78.5047 27.4024 78.6226 27.4378 78.6739 27.5324C78.7248 27.6269 78.6894 27.7443 78.595 27.7951C77.9457 28.1448 77.283 28.3627 76.5699 28.4614C76.3396 28.4932 76.1224 28.5058 75.9191 28.4996Z" fill="#1D1F26"/>
<path d="M68.0069 30.9482C68.0985 31.0538 68.1873 31.1667 68.2298 31.2998C68.3305 31.6157 68.1337 31.9674 67.8518 32.1418C67.5699 32.3163 67.2249 32.3505 66.8935 32.3575C66.6977 32.3616 66.4973 32.357 66.3133 32.2899C66.0956 32.2106 65.9178 32.05 65.7597 31.8806C65.5524 31.6584 65.3665 31.4104 65.2574 31.1268C65.1484 30.8432 65.1219 30.5199 65.2297 30.2359C65.2717 30.1254 65.3355 30.0199 65.4303 29.9493C65.5138 29.8872 65.6159 29.8558 65.7174 29.8331C66.6572 29.6233 67.4298 30.2828 68.0069 30.9482Z" fill="#FAC6A1"/>
<path d="M76.8773 31.2182C76.7795 31.318 76.6838 31.4252 76.6333 31.5555C76.5134 31.8646 76.6883 32.2276 76.959 32.4191C77.2296 32.6105 77.572 32.6658 77.9023 32.693C78.0975 32.7091 78.2977 32.7168 78.4855 32.6611C78.7076 32.5953 78.895 32.4459 79.0631 32.2865C79.2836 32.0774 79.4844 31.8412 79.6105 31.5648C79.7367 31.2885 79.783 30.9675 79.6927 30.6774C79.6576 30.5645 79.6004 30.4552 79.51 30.379C79.4305 30.3119 79.3305 30.2743 79.2306 30.2455C78.3056 29.9785 77.494 30.5894 76.8773 31.2182Z" fill="#FAC6A1"/>
<path d="M69.2871 28.2978C69.8853 28.3161 70.3727 28.1642 70.717 27.8475C70.7958 27.7751 70.8011 27.6525 70.7285 27.5735C70.6559 27.4951 70.5333 27.4895 70.4545 27.5621C69.9912 27.9873 69.2546 27.9476 68.7168 27.8394C68.0566 27.7066 67.4505 27.4652 66.8636 27.1012C66.7737 27.0443 66.6538 27.0725 66.5968 27.1637C66.5402 27.2549 66.5683 27.3743 66.6595 27.4307C67.2861 27.8196 67.9341 28.0776 68.6399 28.2197C68.8678 28.2657 69.0838 28.2916 69.2871 28.2978Z" fill="#1D1F26"/>
<path d="M70.2851 18.657C68.9215 20.4891 67.7641 21.4576 65.5993 22.1237C64.8082 22.3672 63.7469 24.3549 62.9389 24.1792C62.131 24.0036 60.5271 21.4889 60.5642 20.6511C60.601 19.8207 61.3414 19.2269 62.014 18.7518C62.4824 18.4208 62.9508 18.09 63.4192 17.7591C63.7767 17.5065 63.1648 16.8872 63.3733 16.4991C63.7273 15.8401 64.5074 15.3797 64.6147 14.6373C64.7501 13.7019 65.3913 12.8984 66.1767 12.3894C66.9621 11.8803 67.8822 11.6305 68.7978 11.4558C69.5934 11.3039 70.3983 11.2032 71.2062 11.1544C71.4347 11.1406 71.6709 11.1321 71.8845 11.2149C72.2998 11.3761 72.5219 11.8375 72.6192 12.2779C72.811 13.1457 72.6612 14.0864 72.2098 14.8492C71.8367 15.4798 71.3611 15.9724 71.1823 16.6995C71.0035 17.4265 70.7434 18.0414 70.2851 18.657Z" fill="#313440"/>
<path d="M70.8769 16.1786C71.6008 17.0013 72.3357 17.8336 73.2537 18.4526C75.1968 19.7629 76.5944 19.7553 78.5685 21.022C79.1488 21.3943 80.5949 22.8151 80.9228 23.4064C81.3178 24.1187 81.6475 25.5819 82.3092 25.3729C82.473 25.3212 83.7655 22.5964 83.8609 22.4586C83.9479 22.333 83.9686 22.1766 83.9841 22.0264C84.2487 19.4504 83.6086 16.7942 82.1914 14.5879C81.7617 13.9189 81.2645 13.2923 80.7544 12.6775C80.0833 11.8687 79.3806 11.071 78.5232 10.4453C77.6658 9.81962 76.6335 9.37188 75.5579 9.35361C74.3201 9.33258 73.1286 9.88441 72.1989 10.6667C71.2691 11.4491 70.5699 12.45 69.9333 13.4676C69.2004 14.6392 70.1087 15.3057 70.8769 16.1786Z" fill="#313440"/>
<path d="M61.9182 19.9885C61.7535 19.9834 61.5897 19.9714 61.4272 19.9523C61.3471 19.943 61.2896 19.8704 61.2989 19.7901C61.3082 19.71 61.3789 19.6519 61.4613 19.662C62.6495 19.8012 63.9642 19.5279 65.1628 18.8928C66.1949 18.3455 67.1896 17.5165 68.1187 16.4283C68.3257 16.1865 68.7751 15.5794 68.4875 15.1677C68.4412 15.1015 68.4573 15.0105 68.5239 14.9641C68.5892 14.9183 68.6817 14.9341 68.7272 15.0003C69.1173 15.5586 68.6526 16.2537 68.341 16.6183C67.3877 17.7345 66.3646 18.5865 65.2995 19.151C64.1939 19.737 63.035 20.0227 61.9182 19.9885Z" fill="#1D1F26"/>
<path d="M83.8465 21.1512C83.8054 21.1499 83.7652 21.1315 83.7373 21.097C82.6533 19.7576 81.2237 18.7093 79.8411 17.6954C78.4667 16.6874 77.0453 15.6449 75.944 14.3084L75.8666 14.2134C75.6636 13.9642 75.4717 13.7287 75.2173 13.5769C75.1477 13.5357 75.125 13.446 75.1663 13.3766C75.2073 13.307 75.2975 13.2845 75.3667 13.326C75.6659 13.5041 75.8832 13.7708 76.0931 14.0288L76.1698 14.1226C77.2475 15.4307 78.654 16.4621 80.0139 17.4596C81.4115 18.4845 82.8567 19.5443 83.9645 20.9132C84.0152 20.9759 84.0055 21.0679 83.943 21.1187C83.9146 21.1417 83.8804 21.1522 83.8465 21.1512Z" fill="#1D1F26"/>
<path d="M112.658 61.7715C112.588 60.6523 112.037 59.6203 111.02 58.7041C110.207 57.9723 90.2952 44.44 88.7063 42.6291C87.159 40.4211 79.8962 37.9653 77.643 39.5705C76.8587 40.5252 77.2809 42.8517 76.5652 43.8707C75.1763 45.8482 72.9023 45.9055 70.7832 45.2342C68.6266 44.3569 67.8029 41.762 67.2392 39.6382C67.2084 39.4909 66.8027 39.5004 66.7923 39.5021C63.6685 40.0104 61.174 40.7306 59.1345 41.8344C56.8104 43.0923 34.6529 57.9721 33.8403 58.7039C32.8229 59.6201 32.2717 60.6521 32.2021 61.7713C31.7477 73.1345 44.1775 67.7946 50.8591 65.2663C50.6444 65.3409 51.0704 72.6936 51.0656 73.3397C51.4282 77.687 50.9142 84.2256 54.5226 88.8181C55.8554 90.5144 57.9749 90.3571 60.0668 90.2414C63.1785 90.0694 66.2738 90.6544 69.3854 90.8286C73.7727 91.0743 78.1581 90.5026 82.5226 90.0406C86.7217 89.72 90.8259 89.5358 91.6566 84.6849C92.1198 79.7151 92.5621 73.7134 92.8542 68.7138C92.8624 68.2055 93.2095 65.0108 92.8453 64.8841C99.8515 67.2941 112.986 73.6975 112.658 61.7715Z" fill="#259BFF"/>
<path d="M72.318 47.3722C70.8495 47.3722 69.3536 46.9264 68.1131 46.0778C66.3208 44.8517 65.0709 42.8626 64.6836 40.6207C64.6728 40.5582 64.7147 40.4986 64.7773 40.4878C64.8404 40.4784 64.8992 40.5191 64.9101 40.5815C65.2868 42.7626 66.5016 44.6968 68.243 45.8881C70.0393 47.1172 72.3874 47.4745 74.3722 46.8209C74.9819 46.6199 75.5498 46.3331 76.0249 46.0792C76.6976 45.7194 77.2348 45.3865 77.6709 44.9312C77.9161 44.6752 78.1448 44.3601 78.3701 43.9677C79.124 42.6547 79.4802 41.0997 79.373 39.5892C79.3685 39.5259 79.4162 39.471 79.4796 39.4665C79.5411 39.4632 79.5978 39.5097 79.6023 39.5731C79.7126 41.1285 79.3458 42.7298 78.5695 44.0821C78.3347 44.4908 78.0951 44.8206 77.837 45.0901C77.3798 45.5675 76.8254 45.9117 76.1332 46.2819C75.6495 46.5406 75.0705 46.8328 74.444 47.0392C73.7651 47.2628 73.0449 47.3722 72.318 47.3722Z" fill="#0070D4"/>
<path d="M81.3317 20.115C81.1655 20.0932 81.013 20.2338 80.9621 20.3934C80.9113 20.5531 80.9369 20.7256 80.963 20.8911C81.0449 21.4114 81.1269 21.9316 81.2089 22.4519C80.5735 21.8151 80.3372 20.8359 79.6281 20.2822C79.5898 20.2524 79.549 20.2232 79.5015 20.213C79.314 20.1728 79.2077 20.4236 79.2009 20.6153C79.169 21.5149 79.6155 22.3591 80.11 23.1114C80.4904 23.6901 80.9118 24.2563 81.2031 24.8795C81.2023 24.8784 81.2014 24.8773 81.2006 24.8762C81.2524 24.9869 81.3059 25.1765 81.356 25.3552C80.5574 24.1903 79.8952 23.3567 78.9062 22.3193C78.8887 22.3009 78.7879 22.134 78.6877 22.1531C78.4813 22.1923 78.4293 22.441 78.4252 22.4842C78.4052 22.695 78.4388 22.9242 78.478 23.1315C78.5722 23.6296 78.8692 24.0619 79.1842 24.4474C80.0146 25.4636 80.5514 26.4668 80.85 27.7576C80.3135 27.0708 79.7769 26.3839 79.2404 25.697C79.1358 25.5632 79.0083 25.446 78.8563 25.3701C78.2413 25.0625 78.4415 25.9574 78.5761 26.2034C78.7191 26.4648 78.9306 26.6807 79.1208 26.9102C79.9202 27.8745 80.3408 29.0787 80.6182 30.2842C80.6457 30.4036 80.6722 30.5236 80.6981 30.6438C80.89 30.115 81.0621 29.5769 81.2105 29.0238C81.785 26.8817 82.1032 24.6502 82.1528 22.4132C82.1586 22.1528 82.1561 21.8919 82.1455 21.6313C81.9997 21.2361 81.8633 20.8348 81.6822 20.4621C81.607 20.3078 81.5018 20.1376 81.3317 20.115Z" fill="#F8D8C2"/>
<path d="M66.3802 23.1315C66.4194 22.9242 66.453 22.695 66.4329 22.4842C66.4289 22.4411 66.3769 22.1923 66.1705 22.1531C66.0702 22.134 65.9694 22.3009 65.9519 22.3193C64.963 23.3567 64.3008 24.1903 63.5023 25.3552C63.5523 25.1765 63.6058 24.9869 63.6577 24.8762C63.6569 24.8773 63.656 24.8784 63.6552 24.8795C63.9464 24.2564 64.3678 23.6901 64.7482 23.1114C65.2427 22.3591 65.6893 21.5149 65.6573 20.6153C65.6505 20.4236 65.5442 20.1727 65.3567 20.213C65.3092 20.2232 65.2684 20.2524 65.2301 20.2822C64.5211 20.8359 64.2848 21.8151 63.6494 22.4519C63.7313 21.9316 63.8133 21.4114 63.8953 20.8911C63.9213 20.7256 63.9469 20.553 63.8961 20.3934C63.8453 20.2338 63.6927 20.0932 63.5266 20.115C63.4702 20.1225 63.4212 20.1463 63.3779 20.1802C63.2822 20.7255 63.2227 21.2788 63.201 21.8322C63.1136 24.068 63.2945 26.3149 63.7367 28.4881C63.8715 29.1505 64.014 29.8224 64.1953 30.4827C64.21 30.4164 64.2249 30.3501 64.2401 30.2841C64.5175 29.0787 64.9381 27.8744 65.7375 26.9101C65.9277 26.6807 66.1391 26.4648 66.2822 26.2033C66.4168 25.9573 66.6169 25.0624 66.002 25.37C65.85 25.4459 65.7226 25.5631 65.618 25.697C65.0814 26.3838 64.5448 27.0707 64.0083 27.7575C64.3069 26.4667 64.8437 25.4634 65.6741 24.4473C65.989 24.0618 66.2859 23.6296 66.3802 23.1315Z" fill="#F8D8C2"/>
<path d="M61.804 36.7496C61.8027 36.7482 61.802 36.7475 61.8007 36.7463C61.7956 36.7409 61.7899 36.735 61.7825 36.7274C60.9664 35.8831 60.1822 34.9908 59.2726 34.2463C59.558 33.5856 59.8158 32.9205 59.8948 32.5123C60.1014 31.4451 60.0614 30.3508 60.1522 29.2719C60.2788 27.7665 60.6605 26.2957 61.0407 24.8336C61.2448 24.0483 61.4573 23.2472 61.8998 22.5571C62.349 21.8564 62.532 20.9854 62.8983 20.2317C62.9733 20.0773 63.0786 19.9071 63.2487 19.8846C63.4148 19.8627 63.5674 20.0033 63.6182 20.1629C63.6691 20.3226 63.6435 20.4951 63.6174 20.6606C63.5354 21.1809 63.4534 21.7012 63.3715 22.2215C64.0069 21.5847 64.2432 20.6055 64.9523 20.0518C64.9905 20.022 65.0314 19.9928 65.0788 19.9826C65.2664 19.9423 65.3727 20.1932 65.3795 20.3849C65.4114 21.2845 64.9649 22.1287 64.4704 22.881C63.976 23.6333 63.4113 24.3638 63.1547 25.2267C63.9849 24.0079 64.6566 23.1563 65.6741 22.0889C65.6917 22.0705 65.7924 21.9036 65.8927 21.9227C66.0991 21.9619 66.151 22.2106 66.1551 22.2538C66.1752 22.4646 66.1416 22.6938 66.1024 22.9011C66.0081 23.3992 65.7112 23.8315 65.3961 24.217C64.5658 25.2332 64.0289 26.2364 63.7303 27.5272C64.2668 26.8404 64.8035 26.1535 65.34 25.4666C65.4445 25.3328 65.5721 25.2156 65.724 25.1396C66.339 24.8321 66.1389 25.727 66.0043 25.973C65.8612 26.2344 65.6498 26.4503 65.4595 26.6798C64.6601 27.6441 64.2396 28.8483 63.9622 30.0538C63.8249 30.6496 63.7073 31.2558 63.6165 31.8605C63.5165 32.5269 63.5571 33.2163 63.3289 33.8599C63.0619 34.6133 62.594 35.2834 62.2799 36.0182C62.1789 36.2543 62.0481 36.5496 61.9107 36.8553C61.8752 36.8199 61.8394 36.7849 61.804 36.7496Z" fill="#F8D8C2"/>
<path d="M63.1298 25.4528C62.9746 25.8541 62.8994 26.29 62.765 26.7224C62.7421 26.2731 62.7818 25.8168 62.9418 25.3815C63.0227 25.1654 63.1455 24.9613 63.2806 24.7853C63.3151 24.7384 63.3496 24.6922 63.3835 24.646C63.2955 24.8341 63.2026 25.2498 63.1298 25.4528Z" fill="#F8D8C2"/>
<path d="M63.3749 22.2221C63.4201 22.1768 62.9474 23.0183 62.6159 23.4479C62.4922 23.6065 62.3869 23.7625 62.3218 23.9423C62.2518 24.1209 62.2114 24.3195 62.156 24.5148C62.0531 24.9066 61.9377 25.2955 61.8098 25.6815C61.8619 25.2782 61.9265 24.8777 62.0037 24.48C62.041 24.2818 62.0765 24.0809 62.143 23.8779C62.2095 23.6728 62.3337 23.4881 62.4557 23.3265C62.7907 22.898 63.3862 22.1502 63.3749 22.2221Z" fill="#F8D8C2"/>
<path d="M57.6761 34.5222C56.6236 34.9914 55.0952 36.4054 53.9582 37.1857C47.643 42.266 34.2241 52.8453 31.5412 61.9523C30.6781 65.4836 34.6634 68.9881 37.369 68.8251C44.0747 68.0571 49.9608 59.4595 53.7139 54.0727C58.926 46.5918 62.0787 39.2458 62.2738 38.5839C62.6493 37.3097 58.883 33.9843 57.6761 34.5222Z" fill="#259BFF"/>
<path d="M83.0556 36.7496C83.0569 36.7482 83.0577 36.7475 83.0589 36.7463C83.064 36.7409 83.0698 36.735 83.0771 36.7274C83.8932 35.8831 84.6775 34.9908 85.5871 34.2463C85.3016 33.5856 85.0439 32.9205 84.9648 32.5123C84.7583 31.4451 84.7982 30.3508 84.7074 29.2719C84.5808 27.7665 84.1992 26.2957 83.819 24.8336C83.6149 24.0483 83.4024 23.2472 82.9599 22.5571C82.5106 21.8564 82.3276 20.9854 81.9614 20.2317C81.8863 20.0773 81.7811 19.9071 81.611 19.8846C81.4448 19.8627 81.2923 20.0033 81.2414 20.1629C81.1905 20.3226 81.2162 20.4951 81.2423 20.6606C81.3242 21.1809 81.4062 21.7012 81.4882 22.2215C80.8527 21.5847 80.6164 20.6055 79.9074 20.0518C79.8691 20.022 79.8282 19.9928 79.7808 19.9826C79.5933 19.9423 79.487 20.1932 79.4802 20.3849C79.4483 21.2845 79.8948 22.1287 80.3893 22.881C80.8838 23.6333 81.4483 24.3638 81.705 25.2267C80.8748 24.0079 80.2031 23.1563 79.1856 22.0889C79.168 22.0705 79.0673 21.9036 78.967 21.9227C78.7606 21.9619 78.7087 22.2106 78.7046 22.2538C78.6845 22.4646 78.7181 22.6938 78.7574 22.9011C78.8516 23.3992 79.1485 23.8315 79.4636 24.217C80.294 25.2332 80.8308 26.2364 81.1294 27.5272C80.5929 26.8404 80.0562 26.1535 79.5197 25.4666C79.4152 25.3328 79.2876 25.2156 79.1357 25.1396C78.5207 24.8321 78.7208 25.727 78.8554 25.973C78.9984 26.2344 79.21 26.4503 79.4002 26.6798C80.1996 27.6441 80.6201 28.8483 80.8976 30.0538C81.0348 30.6496 81.1524 31.2558 81.2433 31.8605C81.3433 32.5269 81.3027 33.2163 81.5308 33.8599C81.7978 34.6133 82.2657 35.2834 82.5798 36.0182C82.6808 36.2543 82.8116 36.5496 82.949 36.8553C82.9845 36.8199 83.0202 36.7849 83.0556 36.7496Z" fill="#F8D8C2"/>
<path d="M81.7339 25.4528C81.8891 25.8541 81.9643 26.29 82.0987 26.7224C82.1216 26.2731 82.0819 25.8168 81.9219 25.3815C81.841 25.1654 81.7182 24.9613 81.5831 24.7853C81.5486 24.7384 81.5141 24.6922 81.4802 24.646C81.5682 24.8341 81.661 25.2498 81.7339 25.4528Z" fill="#F8D8C2"/>
<path d="M81.4806 22.2221C81.4353 22.1768 81.908 23.0183 82.2395 23.4479C82.3632 23.6065 82.4685 23.7625 82.5337 23.9423C82.6036 24.1209 82.644 24.3195 82.6994 24.5148C82.8023 24.9066 82.9177 25.2955 83.0457 25.6815C82.9936 25.2782 82.929 24.8777 82.8518 24.48C82.8145 24.2818 82.779 24.0809 82.7125 23.8779C82.646 23.6728 82.5218 23.4881 82.3998 23.3265C82.0646 22.898 81.4692 22.1502 81.4806 22.2221Z" fill="#F8D8C2"/>
<path d="M63.5546 36.5031C63.5535 36.5002 63.5522 36.4974 63.551 36.4945C63.494 36.3635 63.3947 36.2556 63.2885 36.1602C62.8759 35.7897 62.3602 35.5198 61.9026 35.2082C61.3873 34.8573 60.8707 34.5081 60.3471 34.1695C59.9351 33.9032 59.515 33.6067 59.0613 33.4142C58.9178 33.3533 58.7665 33.2911 58.612 33.3053C58.4842 33.317 58.3688 33.38 58.2577 33.4417C57.8633 33.6609 57.4392 33.9175 57.2994 34.3422C57.0937 34.9663 57.5915 35.5949 58.0525 36.081C58.1945 36.2307 58.3365 36.3804 58.4785 36.5301C59.2537 37.3474 60.7431 38.3383 61.9304 38.4934C62.4378 38.5597 62.8972 38.3155 63.1903 37.908C63.341 37.6984 63.4521 37.4177 63.5365 37.1739C63.6113 36.9578 63.6426 36.7139 63.5546 36.5031Z" fill="#0070D4"/>
<path d="M40.9371 67.6978C46.163 64.8087 50.4087 58.5003 53.806 53.658C55.5343 51.1665 57.1388 48.5797 58.6336 45.9422C59.3022 44.7691 59.9449 43.5809 60.5736 42.3857C60.0815 43.4571 59.5557 44.5243 59.0129 45.5718C57.5307 48.4185 55.886 51.1929 54.0717 53.8411C50.698 58.7131 46.3458 65.0485 40.9371 67.6978Z" fill="#0070D4"/>
<path d="M87.1857 34.5222C88.2382 34.9914 89.7666 36.4054 90.9036 37.1857C97.2188 42.266 110.638 52.8453 113.321 61.9523C114.184 65.4836 110.198 68.9881 107.493 68.8251C100.787 68.0571 94.901 59.4595 91.1479 54.0727C85.9358 46.5918 82.7831 39.2458 82.588 38.5839C82.2125 37.3097 85.9787 33.9843 87.1857 34.5222Z" fill="#259BFF"/>
<path d="M81.3049 36.5031C81.3061 36.5002 81.3074 36.4974 81.3086 36.4945C81.3655 36.3635 81.4649 36.2556 81.5711 36.1602C81.9837 35.7897 82.4993 35.5198 82.9569 35.2082C83.4723 34.8573 83.9889 34.5081 84.5125 34.1695C84.9244 33.9032 85.3446 33.6067 85.7983 33.4142C85.9418 33.3533 86.093 33.2911 86.2476 33.3053C86.3754 33.317 86.4908 33.38 86.6019 33.4417C86.9963 33.6609 87.4203 33.9175 87.5602 34.3422C87.7658 34.9663 87.2681 35.5949 86.8071 36.081C86.6651 36.2307 86.5231 36.3804 86.3811 36.5301C85.6059 37.3474 84.1165 38.3383 82.9292 38.4934C82.4218 38.5597 81.9624 38.3155 81.6693 37.908C81.5186 37.6984 81.4075 37.4177 81.3231 37.1739C81.2483 36.9578 81.2171 36.7139 81.3049 36.5031Z" fill="#0070D4"/>
<path d="M103.927 67.6978C98.7007 64.8087 94.455 58.5003 91.0577 53.658C89.3295 51.1665 87.7249 48.5797 86.2301 45.9422C85.5615 44.7691 84.9189 43.5809 84.2902 42.3857C84.7822 43.4571 85.308 44.5243 85.8509 45.5718C87.333 48.4185 88.9777 51.1929 90.792 53.8411C94.1657 58.7131 98.5179 65.0485 103.927 67.6978Z" fill="#0070D4"/>
<path d="M40.3779 15.0802C40.8096 15.0802 41.1597 14.7302 41.1597 14.2984C41.1597 13.8666 40.8096 13.5166 40.3779 13.5166C39.9461 13.5166 39.5961 13.8666 39.5961 14.2984C39.5961 14.7302 39.9461 15.0802 40.3779 15.0802Z" fill="#259BFF"/>
<path d="M59.3914 8.99183C59.8232 8.99183 60.1732 8.6418 60.1732 8.21002C60.1732 7.77825 59.8232 7.42822 59.3914 7.42822C58.9596 7.42822 58.6096 7.77825 58.6096 8.21002C58.6096 8.6418 58.9596 8.99183 59.3914 8.99183Z" fill="#259BFF"/>
<path d="M96.5658 11.3038C96.9976 11.3038 97.3476 10.9538 97.3476 10.522C97.3476 10.0903 96.9976 9.74023 96.5658 9.74023C96.134 9.74023 95.784 10.0903 95.784 10.522C95.784 10.9538 96.134 11.3038 96.5658 11.3038Z" fill="#259BFF"/>
<path d="M99.3877 9.01992C99.3266 8.68205 98.9558 8.2623 96.6113 8.01267C95.0111 7.84229 92.7557 7.77579 89.9078 7.81522C87.104 7.85399 83.874 7.99309 80.3747 8.22189C80.6267 8.34917 80.8662 8.47934 81.0936 8.61128C84.3198 8.40923 87.3023 8.28582 89.9138 8.24975C90.4507 8.24232 90.9546 8.23884 91.4296 8.23884C98.7146 8.23884 98.9533 9.06007 98.96 9.09726C98.9658 9.12933 98.9353 9.17592 98.9167 9.20082C98.6662 9.53488 97.2605 10.4701 89.6368 11.9348C84.108 12.9972 76.8648 14.0248 69.2411 14.8287C61.1241 15.6846 53.4416 16.2004 47.6089 16.281C38.839 16.4023 38.5698 15.4731 38.5627 15.4335C38.5568 15.4014 38.5873 15.3549 38.606 15.3299C38.8566 14.9958 40.2623 14.0606 47.8859 12.5959C51.9798 11.8093 57.014 11.0417 62.4464 10.3698C62.5827 10.2252 62.736 10.0638 62.9226 9.87348C57.2784 10.5618 52.0397 11.3553 47.804 12.1692C45.1033 12.6881 42.9144 13.1942 41.2981 13.6734C39.5735 14.1848 38.5793 14.6414 38.2584 15.0692C38.1498 15.2141 38.1083 15.3627 38.1351 15.5108C38.1962 15.8487 38.567 16.2685 40.9115 16.5181C42.2135 16.6567 43.949 16.7265 46.0847 16.7265C46.5739 16.7265 47.0843 16.7228 47.6149 16.7156C53.4604 16.6347 61.157 16.1181 69.2868 15.2609C76.9222 14.4558 84.1785 13.4261 89.7189 12.3616C92.4196 11.8427 94.6085 11.3366 96.2248 10.8573C97.9494 10.3459 98.9436 9.88938 99.2644 9.46155C99.3729 9.31667 99.4144 9.1681 99.3877 9.01992Z" fill="#259BFF"/>
<path d="M103.428 14.8047C103.124 14.3967 102.147 13.9591 100.442 13.4665C98.8455 13.0055 96.6777 12.516 93.9988 12.0115C90.9433 11.4362 87.3594 10.8684 83.4755 10.3403C83.6839 10.522 83.8757 10.696 84.0538 10.8582C87.6851 11.3603 91.0375 11.8961 93.9184 12.4386C96.5839 12.9404 98.7381 13.4268 100.321 13.884C102.404 14.4855 102.943 14.8816 103.079 15.0642C103.108 15.1025 103.115 15.1287 103.113 15.1395C103.11 15.1548 103.017 15.5149 100.746 15.7342C99.178 15.8856 96.9608 15.9366 94.1564 15.8858C88.3779 15.7812 80.7661 15.2568 72.7232 14.4092C65.1465 13.6107 57.9531 12.6021 52.4679 11.5692C49.8023 11.0673 47.648 10.581 46.0649 10.1238C43.9821 9.52226 43.4431 9.12617 43.3072 8.94357C43.2787 8.90526 43.2709 8.87904 43.273 8.86826C43.2758 8.85302 43.3692 8.49287 45.6401 8.27367C46.8166 8.16006 48.358 8.10302 50.239 8.10302C50.8652 8.10302 51.5294 8.10933 52.2298 8.12201C55.7124 8.18509 59.861 8.40068 64.3685 8.74756C64.5914 8.61883 64.83 8.49096 65.0756 8.3669C60.2993 7.98855 55.9012 7.75384 52.2377 7.68754C49.4168 7.63642 47.183 7.68814 45.5983 7.84111C43.2743 8.0655 42.9066 8.46501 42.8458 8.78797C42.8278 8.88403 42.8327 9.03398 42.9586 9.20312C43.2623 9.61104 44.2389 10.0487 45.9444 10.5413C47.5406 11.0023 49.7084 11.4918 52.3874 11.9963C57.8839 13.0312 65.0897 14.0417 72.6776 14.8413C80.7327 15.6902 88.3579 16.2155 94.1485 16.3203C94.8508 16.3331 95.5167 16.3394 96.1452 16.3394C98.0414 16.3394 99.5978 16.2816 100.788 16.1667C103.112 15.9423 103.48 15.5428 103.54 15.2198C103.558 15.1238 103.553 14.9737 103.428 14.8047Z" fill="#259BFF"/>
<path d="M56.9552 22.1444L56.0595 21.8233L55.2871 22.379L55.3158 21.4279L54.5485 20.8651L55.462 20.5985L55.7601 19.6948L56.2959 20.4812L57.2474 20.4854L56.6653 21.2381L56.9552 22.1444Z" fill="#259BFF"/>
<path d="M76.9721 11.2498L76.5651 10.8812L76.0308 11.0074L76.2556 10.5065L75.9704 10.0374L76.5163 10.0964L76.8744 9.68018L76.9869 10.2175L77.4934 10.4295L77.0172 10.7026L76.9721 11.2498Z" fill="#259BFF"/>
<path d="M97.3393 6.32893L96.9323 5.96031L96.398 6.0866L96.6228 5.58563L96.3376 5.11647L96.8835 5.17548L97.2415 4.75928L97.3541 5.29671L97.8606 5.50862L97.3843 5.78171L97.3393 6.32893Z" fill="#259BFF"/>
<path d="M49.258 14.535L49.665 14.1664L50.1993 14.2926L49.9745 13.7917L50.2597 13.3225L49.7138 13.3815L49.3557 12.9653L49.2432 13.5027L48.7367 13.7147L49.213 13.9878L49.258 14.535Z" fill="#259BFF"/>
<path d="M69.9996 4.55103L70.4065 4.18247L70.9408 4.3087L70.716 3.8078L71.0012 3.33864L70.4554 3.39765L70.0972 2.98145L69.9848 3.51882L69.4782 3.73072L69.9545 4.00388L69.9996 4.55103Z" fill="#259BFF"/>
<path d="M38.3664 11.6288L37.4707 11.3076L36.6983 11.8634L36.727 10.9123L35.9598 10.3495L36.8731 10.0828L37.1713 9.1792L37.7072 9.96547L38.6587 9.96981L38.0765 10.7224L38.3664 11.6288Z" fill="#259BFF"/>
<path d="M64.1857 2.91978L63.29 2.59859L62.5176 3.15442L62.5463 2.20329L61.779 1.64049L62.6924 1.37378L62.9906 0.470215L63.5265 1.25649L64.478 1.26082L63.8957 2.01346L64.1857 2.91978Z" fill="#259BFF"/>
<path d="M91.5088 20.3314L92.4045 20.0102L93.1769 20.566L93.1482 19.6149L93.9155 19.0521L93.0021 18.7855L92.7039 17.8818L92.168 18.6681L91.2165 18.6724L91.7987 19.4251L91.5088 20.3314Z" fill="#259BFF"/>
<path d="M103.764 11.2245L104.66 10.9033L105.432 11.4591L105.403 10.508L106.171 9.94518L105.257 9.67853L104.959 8.7749L104.423 9.56118L103.471 9.56551L104.054 10.3181L103.764 11.2245Z" fill="#259BFF"/>
<path d="M91.8676 0.814428C91.6656 0.490943 91.2376 0.383116 90.9116 0.573606L87.5872 2.51668L87.5378 2.5454C87.4999 2.56781 87.4651 2.59652 87.4351 2.63148C87.285 2.8062 87.3107 3.07015 87.4926 3.22108L89.302 4.72259L85.9242 6.69117L85.4221 7.17643L89.908 5.00686C89.9331 4.99601 89.9579 4.98064 89.9792 4.96152C90.0857 4.86571 90.0907 4.7017 89.9904 4.59525L89.9665 4.56989L88.5516 3.06831L91.5666 1.78357C91.5913 1.77279 91.6194 1.759 91.6432 1.74506C91.9691 1.55464 92.0695 1.13791 91.8676 0.814428Z" fill="#259BFF"/>
<path d="M49.7583 2.88549C49.8827 2.68626 50.1463 2.61983 50.3471 2.73718L52.3945 3.93387L52.4249 3.95155C52.4482 3.96534 52.4697 3.98302 52.4881 4.00457C52.5806 4.11214 52.5647 4.27477 52.4527 4.36768L51.3384 5.2924L53.4186 6.5048L53.7279 6.80364L50.9652 5.46745C50.9498 5.46075 50.9345 5.45129 50.9214 5.43953C50.8558 5.38052 50.8527 5.27953 50.9145 5.21395L50.9292 5.19837L51.8006 4.27359L49.9438 3.48239C49.9285 3.47575 49.9112 3.46721 49.8965 3.45867C49.6958 3.34131 49.6339 3.08471 49.7583 2.88549Z" fill="#259BFF"/>
</svg>
