<svg width="693" height="314" viewBox="0 0 693 314" fill="none" xmlns="http://www.w3.org/2000/svg">
<rect x="1.54688" y="2.38086" width="689" height="310" rx="28.5" fill="white"/>
<rect x="1.54688" y="2.38086" width="689" height="310" rx="28.5" stroke="#B6CFFF" stroke-width="3"/>
<path d="M552.617 33.2451L557.353 38.8108L558.173 37.8469L554.259 33.2451H552.617Z" fill="#D9D9D9"/>
<path d="M558.763 42.1143L557.933 41.1383L565.375 32.3908H568.04L561.181 40.4544L562.003 41.4203L570.848 31.0269H564.895L557.113 40.1724L550.491 32.3908H554.643L555.803 31.0269H547.689L557.943 43.0782L558.763 42.1143Z" fill="#D9D9D9"/>
<path d="M559.182 40.9606L559.964 41.8805V41.8825L552.523 50.6281H549.859L556.688 42.5905L555.846 41.6485L547.047 51.992H553.005L560.784 42.8465H560.786L567.408 50.6281H566.376H555.974L554.814 51.992H570.21L560.002 39.9946L559.182 40.9606Z" fill="#D9D9D9"/>
<path d="M560.545 44.2065L559.727 45.1765L563.64 49.7742H565.282L560.545 44.2065Z" fill="#D9D9D9"/>
<path d="M621.51 31.797C621.308 31.529 620.986 31.331 620.548 31.207C620.11 31.083 619.516 31.019 618.766 31.019H606.547C605.797 31.019 605.191 31.081 604.727 31.207C604.263 31.333 603.901 31.529 603.643 31.797C603.383 32.085 603.197 32.445 603.085 32.8769C603.073 32.9269 603.061 32.9829 603.049 33.0349H615.593C615.861 33.0349 616.035 33.0889 616.109 33.1929C616.184 33.2989 616.209 33.4869 616.181 33.7549L615.421 41.1585L615.305 42.2864L614.589 49.2621C614.561 49.5321 614.499 49.718 614.401 49.824C614.303 49.93 614.121 49.982 613.851 49.982H607.569C607.299 49.982 607.127 49.928 607.053 49.824C606.977 49.718 606.953 49.5321 606.981 49.2621L607.749 42.2864L607.873 41.1585L608.575 34.7888H602.897L602.193 41.1585L602.069 42.2864L601.375 48.5701C601.311 49.1861 601.291 49.714 601.313 50.156C601.335 50.598 601.447 50.954 601.651 51.222C601.855 51.4899 602.175 51.6879 602.613 51.8119C603.051 51.9359 603.645 51.9999 604.395 51.9999H616.614C617.364 51.9999 617.97 51.9379 618.434 51.8119C618.898 51.6859 619.26 51.4899 619.518 51.222C619.776 50.952 619.962 50.598 620.074 50.156C620.186 49.714 620.274 49.1861 620.338 48.5701L620.984 42.2864L621.1 41.1585L621.79 34.4469C621.854 33.8329 621.874 33.3089 621.85 32.8769C621.826 32.445 621.716 32.085 621.514 31.797H621.51Z" fill="#D9D9D9"/>
<path d="M598.837 31.711C598.649 31.481 598.369 31.307 597.997 31.193C597.625 31.077 597.111 31.019 596.459 31.019H580.724L579.686 41.1225L564.295 41.1585L563.869 41.7045L564.295 42.2864H591.354C591.93 42.2864 592.308 42.3984 592.488 42.6184C592.666 42.8404 592.726 43.2384 592.668 43.8144L592.186 48.5121C592.128 49.0701 591.988 49.4541 591.766 49.664C591.542 49.876 591.132 49.982 590.538 49.982L585.73 50L585.488 51.9999H594.366C595.017 51.9999 595.557 51.9459 595.981 51.8419C596.405 51.7359 596.745 51.5579 597.001 51.308C597.257 51.058 597.443 50.742 597.559 50.358C597.675 49.974 597.763 49.5041 597.819 48.9461L598.409 43.2104C598.445 42.8524 598.423 42.5464 598.347 42.2884C598.317 42.1864 598.279 42.0885 598.231 42.0005C598.231 41.9985 598.227 41.9945 598.227 41.9905C597.939 41.4785 597.381 41.1845 596.795 41.1605C596.769 41.1605 596.743 41.1565 596.717 41.1565H585.362L585.366 41.1245L586.198 33.0389H592.02C592.596 33.0389 592.974 33.1449 593.154 33.3569C593.334 33.5689 593.394 33.9629 593.336 34.5389L593.256 35.3248L592.902 38.7746C592.848 39.2986 592.726 39.6706 592.536 39.8926H597.743C598.149 39.8926 598.495 39.5906 598.537 39.1866C598.537 39.1846 598.537 39.1806 598.537 39.1786L599.059 34.1069C599.117 33.5489 599.137 33.0749 599.119 32.681C599.101 32.287 599.009 31.965 598.843 31.715L598.837 31.711Z" fill="#D9D9D9"/>
<path d="M578.568 52.0001H584.196L584.536 49.1742L585.124 43.4565H579.446L578.568 52.0001Z" fill="#D9D9D9"/>
<path d="M643.336 41.9564C643.256 41.7064 643.116 41.5244 642.916 41.4084C642.716 41.2924 642.464 41.2204 642.16 41.1924C642 41.1764 641.824 41.1664 641.638 41.1584C641.47 41.1524 641.29 41.1484 641.1 41.1484H622.635V41.1584L622.521 42.2864H637.785L637.695 43.1663L637.145 48.512C637.087 49.07 636.947 49.454 636.723 49.664C636.499 49.876 636.089 49.982 635.495 49.982H630.883C630.287 49.982 629.899 49.876 629.719 49.664C629.539 49.452 629.477 49.068 629.535 48.512L629.831 45.6302H624.153L623.813 48.944C623.755 49.502 623.737 49.972 623.755 50.3559C623.773 50.7399 623.875 51.0579 624.061 51.3079C624.227 51.5579 624.503 51.7359 624.885 51.8419C625.267 51.9479 625.785 51.9999 626.439 51.9999H639.523C640.175 51.9999 640.705 51.9459 641.11 51.8419C641.514 51.7359 641.836 51.5579 642.072 51.3079C642.29 51.0579 642.448 50.7399 642.544 50.3559C642.642 49.972 642.718 49.502 642.776 48.944L643.384 43.0223C643.414 42.7344 643.416 42.4924 643.396 42.2864C643.384 42.1624 643.366 42.0504 643.336 41.9564Z" fill="#D9D9D9"/>
<path d="M644.086 31.711C643.898 31.481 643.614 31.307 643.232 31.193C642.848 31.077 642.33 31.019 641.678 31.019H628.595C627.941 31.019 627.411 31.077 627.007 31.191C626.601 31.307 626.291 31.479 626.075 31.709C625.837 31.959 625.671 32.281 625.573 32.675C625.475 33.0689 625.397 33.5449 625.341 34.1009L624.809 39.2866H630.487L630.991 34.3889C631.051 33.8129 631.189 33.4429 631.406 33.2789C631.624 33.1149 632.032 33.0329 632.628 33.0329H637.268C637.844 33.0329 638.226 33.1149 638.41 33.2789C638.594 33.4429 638.658 33.8129 638.598 34.3889L638.29 37.3867H643.968L644.306 34.1009C644.364 33.5429 644.384 33.0689 644.366 32.675C644.348 32.281 644.256 31.959 644.09 31.709L644.086 31.711Z" fill="#D9D9D9"/>
<path d="M666.008 41.9564C665.929 41.7064 665.789 41.5244 665.589 41.4084C665.389 41.2924 665.137 41.2204 664.833 41.1924C664.673 41.1764 664.497 41.1664 664.311 41.1584C664.143 41.1524 663.963 41.1484 663.773 41.1484H645.308V41.1584L645.194 42.2864H660.457L660.367 43.1663L659.817 48.512C659.759 49.07 659.619 49.454 659.395 49.664C659.171 49.876 658.761 49.982 658.167 49.982H653.555C652.959 49.982 652.571 49.876 652.391 49.664C652.211 49.452 652.149 49.068 652.207 48.512L652.503 45.6302H646.826L646.486 48.944C646.428 49.502 646.41 49.972 646.428 50.3559C646.446 50.7399 646.548 51.0579 646.734 51.3079C646.9 51.5579 647.175 51.7359 647.557 51.8419C647.939 51.9479 648.457 51.9999 649.111 51.9999H662.195C662.847 51.9999 663.377 51.9459 663.783 51.8419C664.187 51.7359 664.509 51.5579 664.745 51.3079C664.963 51.0579 665.121 50.7399 665.217 50.3559C665.315 49.972 665.391 49.502 665.449 48.944L666.056 43.0223C666.086 42.7344 666.088 42.4924 666.068 42.2864C666.056 42.1624 666.038 42.0504 666.008 41.9564Z" fill="#D9D9D9"/>
<path d="M667.035 32.6769C667.017 32.2829 666.925 31.9609 666.759 31.711C666.571 31.481 666.287 31.307 665.905 31.193C665.523 31.077 665.005 31.021 664.353 31.021H651.27C650.616 31.021 650.086 31.079 649.682 31.193C649.276 31.309 648.966 31.481 648.75 31.711C648.512 31.9609 648.346 32.2829 648.248 32.6769C648.15 33.0709 648.072 33.5469 648.016 34.1028L647.484 39.2886H653.162L653.666 34.3908C653.726 33.8148 653.864 33.4449 654.082 33.2809C654.3 33.1169 654.708 33.0349 655.304 33.0349H659.944C660.52 33.0349 660.902 33.1169 661.086 33.2809C661.272 33.4449 661.334 33.8148 661.274 34.3908L660.966 37.3887H666.643L666.981 34.1028C667.039 33.5449 667.059 33.0709 667.041 32.6769H667.035Z" fill="#D9D9D9"/>
<rect x="26.0469" y="244.237" width="200" height="49" rx="15" fill="#E2ECFF"/>
<path d="M69.5898 272.854H65.9336L65.2188 277.237H62.8984L63.6133 272.854H61.2344L61.6094 270.557H64L64.5859 266.948H62.2188L62.5938 264.651H64.9727L65.6875 260.268H68.0078L67.293 264.651H70.9492L71.6641 260.268H73.9609L73.2461 264.651H75.6484L75.25 266.948H72.8594L72.2734 270.557H74.6641L74.2891 272.854H71.8867L71.1719 277.237H68.875L69.5898 272.854ZM69.9766 270.557L70.5625 266.948H66.9062L66.3203 270.557H69.9766ZM88.8438 262.073C88.8438 262.854 88.9961 263.612 89.3008 264.346C89.6055 265.081 90.0664 265.741 90.6836 266.327C91.3086 266.913 92.0703 267.377 92.9688 267.721L91.5859 269.713C90.6641 269.362 89.8711 268.866 89.207 268.225C88.543 267.584 88.0156 266.838 87.625 265.987C87.2188 266.971 86.6641 267.842 85.9609 268.6C85.2656 269.358 84.4297 269.94 83.4531 270.346L82.0469 268.354C82.9766 267.94 83.7617 267.393 84.4023 266.713C85.043 266.034 85.5234 265.295 85.8438 264.499C86.1641 263.694 86.3281 262.885 86.3359 262.073V259.448H88.8438V262.073ZM100.352 271.143H97.8672V265.635H95.7578V270.487H93.3203V258.557H95.7578V263.502H97.8672V258.159H100.352V271.143ZM93.2031 271.495C94.6719 271.495 95.9492 271.651 97.0352 271.963C98.1289 272.268 98.9727 272.713 99.5664 273.299C100.16 273.885 100.461 274.581 100.469 275.385C100.461 276.19 100.16 276.885 99.5664 277.471C98.9727 278.065 98.1289 278.518 97.0352 278.831C95.9492 279.143 94.6719 279.299 93.2031 279.299C91.7188 279.299 90.4297 279.143 89.3359 278.831C88.2422 278.518 87.4023 278.065 86.8164 277.471C86.2305 276.885 85.9375 276.19 85.9375 275.385C85.9375 274.581 86.2305 273.885 86.8164 273.299C87.4023 272.713 88.2422 272.268 89.3359 271.963C90.4297 271.651 91.7188 271.495 93.2031 271.495ZM93.2031 273.463C91.7266 273.463 90.5781 273.631 89.7578 273.967C88.9453 274.295 88.5391 274.768 88.5391 275.385C88.5391 276.01 88.9453 276.487 89.7578 276.815C90.5703 277.143 91.7188 277.307 93.2031 277.307C94.6719 277.307 95.8125 277.143 96.625 276.815C97.4375 276.487 97.8438 276.01 97.8438 275.385C97.8438 274.768 97.4336 274.295 96.6133 273.967C95.8008 273.631 94.6641 273.463 93.2031 273.463ZM110.57 261.885C110.562 262.823 110.75 263.725 111.133 264.592C111.523 265.452 112.102 266.213 112.867 266.877C113.633 267.542 114.555 268.049 115.633 268.401L114.273 270.463C113.117 270.073 112.121 269.499 111.285 268.741C110.457 267.975 109.805 267.073 109.328 266.034C108.844 267.182 108.164 268.174 107.289 269.01C106.422 269.846 105.383 270.479 104.172 270.909L102.719 268.846C103.852 268.479 104.809 267.944 105.59 267.241C106.371 266.53 106.957 265.713 107.348 264.792C107.746 263.862 107.945 262.885 107.945 261.862V259.448H110.57V261.885ZM119.688 264.393H122.641V266.596H119.688V273.698H117.086V258.135H119.688V264.393ZM120.531 278.901H106.117V272.174H108.789V276.792H120.531V278.901ZM131.477 261.182C131.469 262.159 131.652 263.081 132.027 263.948C132.402 264.815 132.965 265.581 133.715 266.245C134.473 266.901 135.391 267.401 136.469 267.745L135.062 269.784C133.922 269.385 132.945 268.815 132.133 268.073C131.328 267.331 130.695 266.448 130.234 265.424C129.758 266.604 129.074 267.627 128.184 268.495C127.293 269.354 126.219 270.002 124.961 270.44L123.578 268.331C124.719 267.956 125.684 267.413 126.473 266.702C127.262 265.991 127.855 265.17 128.254 264.241C128.652 263.311 128.852 262.331 128.852 261.299V259.284H131.477V261.182ZM141.461 270.604H138.859V264.37H134.641V262.237H138.859V258.135H141.461V270.604ZM134.289 271.167C135.781 271.167 137.07 271.327 138.156 271.647C139.25 271.967 140.086 272.436 140.664 273.053C141.242 273.663 141.531 274.393 141.531 275.245C141.531 276.096 141.242 276.827 140.664 277.436C140.086 278.045 139.254 278.506 138.168 278.819C137.082 279.139 135.789 279.299 134.289 279.299C132.797 279.299 131.508 279.139 130.422 278.819C129.344 278.506 128.516 278.045 127.938 277.436C127.367 276.827 127.086 276.096 127.094 275.245C127.086 274.393 127.367 273.663 127.938 273.053C128.516 272.436 129.348 271.967 130.434 271.647C131.52 271.327 132.805 271.167 134.289 271.167ZM134.289 273.182C132.805 273.182 131.664 273.362 130.867 273.721C130.07 274.073 129.672 274.581 129.672 275.245C129.672 275.893 130.07 276.393 130.867 276.745C131.672 277.088 132.812 277.26 134.289 277.26C135.766 277.26 136.906 277.084 137.711 276.733C138.523 276.381 138.93 275.885 138.93 275.245C138.93 274.581 138.527 274.073 137.723 273.721C136.918 273.362 135.773 273.182 134.289 273.182ZM169.75 263.573H166.867V265.987H169.75V268.12H166.867V271.659H164.266V258.135H166.867V261.44H169.75V263.573ZM160.023 271.846C161.461 271.846 162.711 271.995 163.773 272.292C164.844 272.588 165.664 273.018 166.234 273.581C166.812 274.135 167.102 274.799 167.102 275.573C167.102 276.338 166.812 276.999 166.234 277.553C165.664 278.116 164.844 278.545 163.773 278.842C162.711 279.147 161.461 279.299 160.023 279.299C158.562 279.299 157.297 279.151 156.227 278.854C155.164 278.557 154.348 278.127 153.777 277.565C153.215 277.002 152.938 276.338 152.945 275.573C152.938 274.799 153.215 274.135 153.777 273.581C154.348 273.018 155.164 272.588 156.227 272.292C157.297 271.995 158.562 271.846 160.023 271.846ZM160.023 273.838C158.547 273.838 157.426 273.983 156.66 274.272C155.895 274.561 155.516 274.995 155.523 275.573C155.508 276.135 155.891 276.569 156.672 276.874C157.453 277.178 158.57 277.331 160.023 277.331C161.453 277.331 162.555 277.178 163.328 276.874C164.109 276.569 164.5 276.135 164.5 275.573C164.5 274.995 164.117 274.561 163.352 274.272C162.586 273.983 161.477 273.838 160.023 273.838ZM162.742 262.331H150.18V260.292H155.172V257.995H157.773V260.292H162.742V262.331ZM156.461 263.174C157.477 263.174 158.375 263.334 159.156 263.655C159.938 263.967 160.543 264.413 160.973 264.991C161.41 265.561 161.633 266.221 161.641 266.971C161.633 267.721 161.41 268.381 160.973 268.952C160.543 269.522 159.938 269.963 159.156 270.276C158.375 270.588 157.477 270.745 156.461 270.745C155.438 270.745 154.531 270.588 153.742 270.276C152.961 269.963 152.352 269.522 151.914 268.952C151.477 268.381 151.258 267.721 151.258 266.971C151.258 266.221 151.477 265.561 151.914 264.991C152.352 264.413 152.961 263.967 153.742 263.655C154.531 263.334 155.438 263.174 156.461 263.174ZM156.461 265.096C155.648 265.096 155 265.264 154.516 265.6C154.031 265.936 153.789 266.393 153.789 266.971C153.789 267.542 154.027 267.987 154.504 268.307C154.988 268.62 155.641 268.776 156.461 268.776C157.281 268.776 157.934 268.616 158.418 268.295C158.91 267.975 159.156 267.534 159.156 266.971C159.156 266.393 158.91 265.936 158.418 265.6C157.934 265.264 157.281 265.096 156.461 265.096ZM178.398 261.51C178.398 262.409 178.59 263.268 178.973 264.088C179.355 264.909 179.922 265.635 180.672 266.268C181.422 266.901 182.328 267.385 183.391 267.721L181.984 269.76C180.867 269.377 179.898 268.819 179.078 268.084C178.258 267.35 177.613 266.483 177.145 265.483C176.668 266.631 176 267.624 175.141 268.459C174.289 269.295 173.266 269.924 172.07 270.346L170.664 268.307C171.773 267.917 172.711 267.366 173.477 266.655C174.242 265.944 174.816 265.127 175.199 264.206C175.59 263.284 175.789 262.307 175.797 261.276V259.26H178.398V261.51ZM187.609 263.292H190.562V265.448H187.609V270.815H185.008V258.135H187.609V263.292ZM180.719 271.284C182.172 271.276 183.43 271.432 184.492 271.752C185.555 272.065 186.371 272.522 186.941 273.124C187.52 273.725 187.812 274.44 187.82 275.268C187.812 276.112 187.523 276.834 186.953 277.436C186.383 278.045 185.562 278.506 184.492 278.819C183.43 279.139 182.172 279.299 180.719 279.299C179.242 279.299 177.965 279.139 176.887 278.819C175.816 278.506 174.992 278.045 174.414 277.436C173.836 276.834 173.547 276.112 173.547 275.268C173.547 274.44 173.836 273.725 174.414 273.124C174.992 272.522 175.82 272.065 176.898 271.752C177.977 271.432 179.25 271.276 180.719 271.284ZM180.719 273.323C179.266 273.323 178.141 273.495 177.344 273.838C176.547 274.174 176.148 274.651 176.148 275.268C176.148 275.917 176.543 276.409 177.332 276.745C178.121 277.073 179.25 277.237 180.719 277.237C182.188 277.237 183.309 277.073 184.082 276.745C184.855 276.409 185.242 275.917 185.242 275.268C185.242 274.643 184.852 274.163 184.07 273.827C183.289 273.491 182.172 273.323 180.719 273.323Z" fill="#2E69F4"/>
<rect x="246.047" y="244.237" width="200" height="49" rx="15" fill="#E2ECFF"/>
<path d="M289.59 272.854H285.934L285.219 277.237H282.898L283.613 272.854H281.234L281.609 270.557H284L284.586 266.948H282.219L282.594 264.651H284.973L285.688 260.268H288.008L287.293 264.651H290.949L291.664 260.268H293.961L293.246 264.651H295.648L295.25 266.948H292.859L292.273 270.557H294.664L294.289 272.854H291.887L291.172 277.237H288.875L289.59 272.854ZM289.977 270.557L290.562 266.948H286.906L286.32 270.557H289.977ZM319.977 270.721H317.375V265.542H313.766V263.409H317.375V258.135H319.977V270.721ZM312.805 271.26C314.297 271.26 315.586 271.42 316.672 271.741C317.766 272.053 318.602 272.514 319.18 273.124C319.758 273.725 320.047 274.448 320.047 275.292C320.047 276.135 319.758 276.858 319.18 277.459C318.602 278.069 317.766 278.53 316.672 278.842C315.586 279.163 314.297 279.323 312.805 279.323C311.32 279.323 310.035 279.163 308.949 278.842C307.863 278.53 307.031 278.069 306.453 277.459C305.883 276.858 305.602 276.135 305.609 275.292C305.602 274.448 305.883 273.725 306.453 273.124C307.031 272.514 307.863 272.053 308.949 271.741C310.035 271.42 311.32 271.26 312.805 271.26ZM312.805 273.252C311.32 273.252 310.18 273.428 309.383 273.78C308.586 274.124 308.188 274.627 308.188 275.292C308.188 275.948 308.586 276.448 309.383 276.792C310.18 277.135 311.32 277.307 312.805 277.307C314.289 277.307 315.434 277.135 316.238 276.792C317.043 276.448 317.445 275.948 317.445 275.292C317.445 274.627 317.043 274.124 316.238 273.78C315.434 273.428 314.289 273.252 312.805 273.252ZM310.016 261.768C310.016 262.643 310.207 263.495 310.59 264.323C310.973 265.143 311.539 265.881 312.289 266.538C313.039 267.186 313.945 267.69 315.008 268.049L313.695 270.112C312.547 269.721 311.551 269.147 310.707 268.389C309.871 267.624 309.215 266.733 308.738 265.717C308.262 266.866 307.582 267.87 306.699 268.729C305.816 269.581 304.758 270.229 303.523 270.674L302.164 268.612C303.266 268.237 304.207 267.694 304.988 266.983C305.77 266.264 306.359 265.456 306.758 264.557C307.164 263.659 307.367 262.737 307.367 261.792V261.627H302.961V259.518H314.398V261.627H310.016V261.768ZM339.758 264.323H342.617V266.479H339.758V272.479H337.156V258.159H339.758V264.323ZM322.789 269.948C324.758 269.948 326.539 269.928 328.133 269.889V268.588C326.945 268.44 326.008 268.096 325.32 267.557C324.633 267.01 324.289 266.323 324.289 265.495C324.289 264.854 324.5 264.295 324.922 263.819C325.344 263.342 325.941 262.979 326.715 262.729C327.488 262.471 328.383 262.346 329.398 262.354C330.422 262.346 331.316 262.471 332.082 262.729C332.855 262.979 333.453 263.342 333.875 263.819C334.297 264.295 334.508 264.854 334.508 265.495C334.508 266.315 334.172 266.995 333.5 267.534C332.828 268.073 331.906 268.42 330.734 268.577V269.784C332.695 269.698 334.469 269.549 336.055 269.338L336.266 271.143C334.258 271.495 332.188 271.725 330.055 271.834C327.93 271.936 325.602 271.987 323.07 271.987L322.789 269.948ZM339.758 279.323H337.156V275.432H325.461V273.393H339.758V279.323ZM335.492 261.745H323.328V259.823H328.133V257.971H330.734V259.823H335.492V261.745ZM329.398 264.112C328.57 264.096 327.926 264.209 327.465 264.452C327.012 264.694 326.789 265.042 326.797 265.495C326.781 265.932 327.008 266.28 327.477 266.538C327.945 266.788 328.586 266.909 329.398 266.901C330.211 266.909 330.852 266.788 331.32 266.538C331.789 266.28 332.023 265.932 332.023 265.495C332.023 265.042 331.793 264.694 331.332 264.452C330.871 264.209 330.227 264.096 329.398 264.112ZM351.477 261.182C351.469 262.159 351.652 263.081 352.027 263.948C352.402 264.815 352.965 265.581 353.715 266.245C354.473 266.901 355.391 267.401 356.469 267.745L355.062 269.784C353.922 269.385 352.945 268.815 352.133 268.073C351.328 267.331 350.695 266.448 350.234 265.424C349.758 266.604 349.074 267.627 348.184 268.495C347.293 269.354 346.219 270.002 344.961 270.44L343.578 268.331C344.719 267.956 345.684 267.413 346.473 266.702C347.262 265.991 347.855 265.17 348.254 264.241C348.652 263.311 348.852 262.331 348.852 261.299V259.284H351.477V261.182ZM361.461 270.604H358.859V264.37H354.641V262.237H358.859V258.135H361.461V270.604ZM354.289 271.167C355.781 271.167 357.07 271.327 358.156 271.647C359.25 271.967 360.086 272.436 360.664 273.053C361.242 273.663 361.531 274.393 361.531 275.245C361.531 276.096 361.242 276.827 360.664 277.436C360.086 278.045 359.254 278.506 358.168 278.819C357.082 279.139 355.789 279.299 354.289 279.299C352.797 279.299 351.508 279.139 350.422 278.819C349.344 278.506 348.516 278.045 347.938 277.436C347.367 276.827 347.086 276.096 347.094 275.245C347.086 274.393 347.367 273.663 347.938 273.053C348.516 272.436 349.348 271.967 350.434 271.647C351.52 271.327 352.805 271.167 354.289 271.167ZM354.289 273.182C352.805 273.182 351.664 273.362 350.867 273.721C350.07 274.073 349.672 274.581 349.672 275.245C349.672 275.893 350.07 276.393 350.867 276.745C351.672 277.088 352.812 277.26 354.289 277.26C355.766 277.26 356.906 277.084 357.711 276.733C358.523 276.381 358.93 275.885 358.93 275.245C358.93 274.581 358.527 274.073 357.723 273.721C356.918 273.362 355.773 273.182 354.289 273.182ZM389.75 263.573H386.867V265.987H389.75V268.12H386.867V271.659H384.266V258.135H386.867V261.44H389.75V263.573ZM380.023 271.846C381.461 271.846 382.711 271.995 383.773 272.292C384.844 272.588 385.664 273.018 386.234 273.581C386.812 274.135 387.102 274.799 387.102 275.573C387.102 276.338 386.812 276.999 386.234 277.553C385.664 278.116 384.844 278.545 383.773 278.842C382.711 279.147 381.461 279.299 380.023 279.299C378.562 279.299 377.297 279.151 376.227 278.854C375.164 278.557 374.348 278.127 373.777 277.565C373.215 277.002 372.938 276.338 372.945 275.573C372.938 274.799 373.215 274.135 373.777 273.581C374.348 273.018 375.164 272.588 376.227 272.292C377.297 271.995 378.562 271.846 380.023 271.846ZM380.023 273.838C378.547 273.838 377.426 273.983 376.66 274.272C375.895 274.561 375.516 274.995 375.523 275.573C375.508 276.135 375.891 276.569 376.672 276.874C377.453 277.178 378.57 277.331 380.023 277.331C381.453 277.331 382.555 277.178 383.328 276.874C384.109 276.569 384.5 276.135 384.5 275.573C384.5 274.995 384.117 274.561 383.352 274.272C382.586 273.983 381.477 273.838 380.023 273.838ZM382.742 262.331H370.18V260.292H375.172V257.995H377.773V260.292H382.742V262.331ZM376.461 263.174C377.477 263.174 378.375 263.334 379.156 263.655C379.938 263.967 380.543 264.413 380.973 264.991C381.41 265.561 381.633 266.221 381.641 266.971C381.633 267.721 381.41 268.381 380.973 268.952C380.543 269.522 379.938 269.963 379.156 270.276C378.375 270.588 377.477 270.745 376.461 270.745C375.438 270.745 374.531 270.588 373.742 270.276C372.961 269.963 372.352 269.522 371.914 268.952C371.477 268.381 371.258 267.721 371.258 266.971C371.258 266.221 371.477 265.561 371.914 264.991C372.352 264.413 372.961 263.967 373.742 263.655C374.531 263.334 375.438 263.174 376.461 263.174ZM376.461 265.096C375.648 265.096 375 265.264 374.516 265.6C374.031 265.936 373.789 266.393 373.789 266.971C373.789 267.542 374.027 267.987 374.504 268.307C374.988 268.62 375.641 268.776 376.461 268.776C377.281 268.776 377.934 268.616 378.418 268.295C378.91 267.975 379.156 267.534 379.156 266.971C379.156 266.393 378.91 265.936 378.418 265.6C377.934 265.264 377.281 265.096 376.461 265.096ZM398.398 261.51C398.398 262.409 398.59 263.268 398.973 264.088C399.355 264.909 399.922 265.635 400.672 266.268C401.422 266.901 402.328 267.385 403.391 267.721L401.984 269.76C400.867 269.377 399.898 268.819 399.078 268.084C398.258 267.35 397.613 266.483 397.145 265.483C396.668 266.631 396 267.624 395.141 268.459C394.289 269.295 393.266 269.924 392.07 270.346L390.664 268.307C391.773 267.917 392.711 267.366 393.477 266.655C394.242 265.944 394.816 265.127 395.199 264.206C395.59 263.284 395.789 262.307 395.797 261.276V259.26H398.398V261.51ZM407.609 263.292H410.562V265.448H407.609V270.815H405.008V258.135H407.609V263.292ZM400.719 271.284C402.172 271.276 403.43 271.432 404.492 271.752C405.555 272.065 406.371 272.522 406.941 273.124C407.52 273.725 407.812 274.44 407.82 275.268C407.812 276.112 407.523 276.834 406.953 277.436C406.383 278.045 405.562 278.506 404.492 278.819C403.43 279.139 402.172 279.299 400.719 279.299C399.242 279.299 397.965 279.139 396.887 278.819C395.816 278.506 394.992 278.045 394.414 277.436C393.836 276.834 393.547 276.112 393.547 275.268C393.547 274.44 393.836 273.725 394.414 273.124C394.992 272.522 395.82 272.065 396.898 271.752C397.977 271.432 399.25 271.276 400.719 271.284ZM400.719 273.323C399.266 273.323 398.141 273.495 397.344 273.838C396.547 274.174 396.148 274.651 396.148 275.268C396.148 275.917 396.543 276.409 397.332 276.745C398.121 277.073 399.25 277.237 400.719 277.237C402.188 277.237 403.309 277.073 404.082 276.745C404.855 276.409 405.242 275.917 405.242 275.268C405.242 274.643 404.852 274.163 404.07 273.827C403.289 273.491 402.172 273.323 400.719 273.323Z" fill="#2E69F4"/>
<rect x="466.047" y="244.237" width="200" height="49" rx="15" fill="#E2ECFF"/>
<path d="M522.59 272.854H518.934L518.219 277.237H515.898L516.613 272.854H514.234L514.609 270.557H517L517.586 266.948H515.219L515.594 264.651H517.973L518.688 260.268H521.008L520.293 264.651H523.949L524.664 260.268H526.961L526.246 264.651H528.648L528.25 266.948H525.859L525.273 270.557H527.664L527.289 272.854H524.887L524.172 277.237H521.875L522.59 272.854ZM522.977 270.557L523.562 266.948H519.906L519.32 270.557H522.977ZM552.859 279.346H550.234V258.135H552.859V279.346ZM538.961 265.167H544.094V259.87H546.672V274.354H536.359V259.87H538.961V265.167ZM544.094 272.221V267.206H538.961V272.221H544.094ZM575.289 270.417H555.977V268.331H560.477V265.647C559.672 265.303 559.051 264.866 558.613 264.334C558.184 263.803 557.969 263.198 557.969 262.518C557.969 261.682 558.277 260.963 558.895 260.362C559.52 259.752 560.406 259.288 561.555 258.967C562.711 258.647 564.062 258.487 565.609 258.487C567.156 258.487 568.504 258.647 569.652 258.967C570.801 259.288 571.684 259.752 572.301 260.362C572.926 260.963 573.242 261.682 573.25 262.518C573.242 263.206 573.02 263.815 572.582 264.346C572.152 264.877 571.531 265.311 570.719 265.647V268.331H575.289V270.417ZM565.609 271.706C567.133 271.698 568.441 271.842 569.535 272.139C570.629 272.428 571.469 272.858 572.055 273.428C572.641 273.991 572.938 274.674 572.945 275.479C572.938 276.292 572.641 276.979 572.055 277.542C571.469 278.112 570.629 278.542 569.535 278.831C568.441 279.127 567.133 279.276 565.609 279.276C564.07 279.276 562.746 279.127 561.637 278.831C560.535 278.542 559.691 278.112 559.105 277.542C558.52 276.979 558.227 276.292 558.227 275.479C558.227 274.674 558.52 273.991 559.105 273.428C559.691 272.858 560.535 272.428 561.637 272.139C562.746 271.842 564.07 271.698 565.609 271.706ZM565.609 273.674C564.055 273.674 562.875 273.827 562.07 274.131C561.266 274.436 560.867 274.885 560.875 275.479C560.867 276.073 561.266 276.526 562.07 276.838C562.883 277.151 564.062 277.307 565.609 277.307C567.125 277.307 568.289 277.151 569.102 276.838C569.922 276.526 570.336 276.073 570.344 275.479C570.336 274.885 569.926 274.436 569.113 274.131C568.301 273.827 567.133 273.674 565.609 273.674ZM565.609 260.502C564.031 260.502 562.812 260.678 561.953 261.03C561.102 261.374 560.68 261.87 560.688 262.518C560.68 263.159 561.102 263.647 561.953 263.983C562.805 264.319 564.023 264.487 565.609 264.487C567.18 264.487 568.395 264.319 569.254 263.983C570.121 263.647 570.555 263.159 570.555 262.518C570.555 261.87 570.121 261.374 569.254 261.03C568.395 260.678 567.18 260.502 565.609 260.502ZM568.117 268.331V266.315C567.328 266.424 566.492 266.479 565.609 266.479C564.727 266.479 563.891 266.424 563.102 266.315V268.331H568.117ZM584.43 261.252C584.422 262.026 584.609 262.784 584.992 263.526C585.375 264.26 585.938 264.92 586.68 265.506C587.43 266.084 588.328 266.526 589.375 266.831L588.156 268.893C586.984 268.549 585.973 268.03 585.121 267.334C584.27 266.631 583.602 265.803 583.117 264.85C582.625 265.905 581.934 266.827 581.043 267.616C580.16 268.405 579.117 268.987 577.914 269.362L576.625 267.323C577.695 266.971 578.621 266.475 579.402 265.834C580.184 265.194 580.777 264.471 581.184 263.667C581.598 262.862 581.805 262.049 581.805 261.229V261.159H577.352V259.049H588.812V261.159H584.43V261.252ZM594.461 268.987H591.859V264.698H588.227V262.612H591.859V258.135H594.461V268.987ZM594.461 275.385H583.117V277.049H595.141V279.088H580.516V273.44H591.859V271.94H580.492V269.877H594.461V275.385ZM614.172 262.963H617.125V265.096H614.172V270.042H611.57V258.135H614.172V262.963ZM608.289 259.424C608.281 261.245 607.887 262.881 607.105 264.334C606.332 265.788 605.203 267.03 603.719 268.061C602.242 269.084 600.445 269.877 598.328 270.44L597.297 268.354C599.719 267.729 601.625 266.827 603.016 265.647C604.406 264.459 605.219 263.088 605.453 261.534H598.305V259.424H608.289ZM614.172 279.042H600.461V270.885H614.172V279.042ZM603.062 276.979H611.594V273.018H603.062V276.979Z" fill="#2E69F4"/>
<path d="M179.027 101.318C178.42 101.261 178.107 100.735 178.328 100.144L179.391 97.2899C179.611 96.6994 180.282 96.2665 180.888 96.3242C181.495 96.382 181.808 96.9077 181.587 97.499L180.524 100.353C180.303 100.944 179.633 101.376 179.027 101.318Z" fill="url(#paint0_linear_62_71921)"/>
<path d="M157.005 160.412C156.398 160.354 156.086 159.828 156.306 159.237L157.369 156.383C157.59 155.792 158.26 155.36 158.866 155.417C159.473 155.475 159.785 156.001 159.565 156.592L158.502 159.446C158.281 160.037 157.612 160.469 157.005 160.412Z" fill="url(#paint1_linear_62_71921)"/>
<path d="M196.706 131.011C196.926 130.42 197.597 129.987 198.203 130.045L201.131 130.324C201.737 130.381 202.05 130.907 201.83 131.498C201.61 132.09 200.939 132.522 200.333 132.464L197.405 132.185C196.799 132.128 196.486 131.602 196.706 131.011Z" fill="url(#paint2_linear_62_71921)"/>
<path d="M164.564 99.3407C164.564 99.3407 169.984 95.256 177.139 94.3846L168.368 93.5496L164.564 99.3407Z" fill="url(#paint3_linear_62_71921)"/>
<path d="M218.084 93.9908C220.706 92.6171 222.951 91.4809 224.715 90.596L224.674 98.6283C224.674 98.6283 232.152 86.7636 243.027 74.8366C236.375 75.1595 229.162 76.1284 222.553 77.2671L222.511 77.1988C222.511 77.1988 222.435 77.2398 222.316 77.3088C209.807 79.469 199.533 82.2037 199.533 82.2037L213.193 82.7246C211.248 83.9136 209.071 85.2573 206.702 86.7516C203.691 85.6292 200.397 84.8655 196.829 84.5259C194.946 84.3466 193.043 84.3012 191.129 84.3569L191.168 84.3421C174.662 84.4013 163.863 91.6167 159.705 94.9962C159.359 95.2719 158.949 95.6154 158.505 96.0191C158.025 96.4516 157.774 96.7105 157.774 96.7105L157.774 96.7098C154.601 99.8359 150.409 105.652 152.708 113.145C153.849 116.862 155.661 120.12 157.817 122.962C150.156 130.164 144.104 137.351 141.431 143.815C133.799 162.278 144.011 175.297 161.974 175.866L161.975 175.858C186.303 177.177 213.479 158.975 223.356 134.4C229.854 118.247 227.285 103.28 218.084 93.9908ZM169.691 96.0048C174.832 94.4209 180.094 93.7646 185.159 94.2468C187.867 94.5046 190.368 95.0802 192.651 95.9163C182.377 102.87 171.089 111.117 161.603 119.512C160.65 118.208 159.789 116.864 159.069 115.486C153.307 104.506 168.695 96.5047 169.691 96.0048ZM163.698 129.162C169.017 133.727 174.781 136.574 178.188 138.015L172.959 138.321C172.959 138.321 180.387 140.41 187.077 140.87C183.395 136.663 180.709 132.212 180.709 132.212L180.783 136.502C178.108 134.801 172.499 131.004 167.362 126.039C177.859 117.411 191.024 109.118 202.476 102.533C208.812 109.75 210.411 120.816 205.622 132.711C198.832 149.592 181.468 162.565 164.497 164.493C164.497 164.493 163.465 164.523 161.928 164.377C157.094 163.917 147.231 161.748 148.189 151.69C148.857 144.674 155.034 136.848 163.698 129.162ZM211.315 128.536C211.007 130.001 210.591 131.497 210.056 132.981C209.765 133.757 209.501 134.423 209.18 135.18C208.86 135.929 208.518 136.651 208.166 137.389C206.716 140.297 204.978 143.193 202.911 145.906C200.852 148.627 198.518 151.201 195.978 153.563C193.432 155.916 190.668 158.024 187.807 159.881C184.953 161.747 181.955 163.278 178.965 164.544C177.46 165.156 175.983 165.731 174.462 166.181C172.949 166.623 171.445 166.97 169.967 167.216C167.012 167.706 164.153 167.771 161.571 167.533C158.973 167.31 156.613 166.772 154.645 165.926C152.682 165.096 151.162 163.93 150.172 162.767C149.173 161.612 148.7 160.498 148.418 159.748C148.294 159.366 148.201 159.076 148.155 158.879C148.114 158.722 148.09 158.632 148.086 158.591C148.098 158.632 148.138 158.724 148.189 158.866C148.259 159.057 148.376 159.342 148.543 159.703C148.885 160.411 149.488 161.425 150.524 162.439C151.561 163.454 153.078 164.402 154.984 165.058C156.883 165.713 159.164 166.066 161.647 166.15C164.148 166.219 166.852 166.011 169.638 165.44C172.433 164.871 175.26 163.87 178.122 162.592C183.808 160.015 189.478 156.344 194.354 151.801C196.817 149.561 199.085 147.1 201.084 144.502C203.09 141.921 204.859 139.204 206.304 136.441C206.658 135.751 207.013 135.062 207.329 134.368C207.641 133.699 207.987 132.936 208.25 132.286C208.815 130.91 209.261 129.522 209.609 128.141C210.289 125.385 210.611 122.683 210.64 120.186C210.669 117.682 210.454 115.379 210.066 113.381C209.678 111.376 209.158 109.663 208.597 108.299C208.036 106.936 207.473 105.918 207.039 105.25C206.83 104.917 206.652 104.667 206.523 104.502C206.467 104.416 206.417 104.355 206.389 104.312C206.418 104.339 206.477 104.401 206.55 104.48C206.696 104.631 206.891 104.866 207.142 105.179C207.637 105.805 208.333 106.763 209.017 108.106C209.702 109.441 210.407 111.148 210.937 113.183C211.475 115.211 211.878 117.564 211.984 120.162C212.09 122.759 211.932 125.598 211.315 128.536Z" fill="url(#paint4_linear_62_71921)"/>
<path d="M226.794 113.245L211.645 116.625C211.465 115.394 211.221 114.246 210.937 113.182C210.407 111.147 209.702 109.44 209.017 108.105C208.333 106.762 207.637 105.804 207.142 105.178C206.891 104.865 206.696 104.63 206.55 104.479C206.477 104.4 206.418 104.338 206.389 104.311C206.417 104.354 206.467 104.415 206.523 104.501C206.652 104.666 206.83 104.916 207.039 105.249C207.473 105.917 208.036 106.935 208.597 108.298C209.158 109.662 209.678 111.375 210.066 113.38C210.276 114.461 210.438 115.634 210.529 116.872L208.345 117.355C207.994 111.592 205.941 106.486 202.476 102.532C202.476 102.532 215.624 95.2657 218.084 93.9891C223.048 98.9941 226.071 105.647 226.794 113.245Z" fill="url(#paint5_linear_62_71921)"/>
<path d="M206.703 86.7495C202.132 89.6011 192.651 95.915 192.651 95.915C190.368 95.0788 187.867 94.5033 185.159 94.2455C184.578 94.1901 184.003 94.1515 183.419 94.128L185.357 84.661C187.208 84.4596 189.14 84.3461 191.165 84.3381L191.131 84.3589C193.041 84.2997 194.95 84.3448 196.829 84.5237C200.389 84.8626 203.684 85.6263 206.688 86.74C206.695 86.7487 206.703 86.7495 206.703 86.7495Z" fill="url(#paint6_linear_62_71921)"/>
<path d="M175.496 119.781C172.665 121.834 169.934 123.928 167.362 126.038C164.119 122.796 161.603 119.511 161.603 119.511C163.71 117.638 165.912 115.774 168.176 113.941L175.496 119.781Z" fill="url(#paint7_linear_62_71921)"/>
<path d="M163.697 129.161C161.626 130.997 159.698 132.847 157.956 134.682L151.741 129.059C153.605 127.035 155.648 124.995 157.818 122.96C157.818 122.96 161.172 127.072 163.697 129.161Z" fill="url(#paint8_linear_62_71921)"/>
<path d="M260.241 102.725V81.5137H268.562C273.396 81.5137 276.149 84.2383 276.149 88.4277C276.149 91.3281 274.816 93.4375 272.399 94.4629L276.911 102.725H272.048L268.005 95.1953H264.636V102.725H260.241ZM264.636 91.6211H267.741C270.349 91.6211 271.608 90.5371 271.608 88.4277C271.608 86.2891 270.349 85.1172 267.741 85.1172H264.636V91.6211ZM279.196 102.725V81.5137H287.517C292.351 81.5137 295.104 84.4727 295.104 88.6621C295.104 92.9102 292.292 95.8105 287.399 95.8105H283.591V102.725H279.196ZM283.591 92.2656H286.696C289.304 92.2656 290.563 90.8008 290.563 88.6621C290.563 86.5527 289.304 85.1172 286.696 85.1172H283.591V92.2656ZM298.972 102.725H294.226L301.579 81.5137H307.233L314.558 102.725H309.841L308.259 97.832H300.583L298.972 102.725ZM301.696 94.4043H307.146L304.479 86.2891H304.333L301.696 94.4043ZM319.421 100.146C318.044 100.146 316.931 99.0332 316.96 97.6855C316.931 96.3379 318.044 95.2539 319.421 95.2539C320.71 95.2539 321.853 96.3379 321.853 97.6855C321.853 99.0332 320.71 100.146 319.421 100.146ZM319.421 88.9844C318.044 88.9844 316.931 87.8711 316.96 86.5234C316.931 85.1758 318.044 84.0918 319.421 84.0918C320.71 84.0918 321.853 85.1758 321.853 86.5234C321.853 87.8711 320.71 88.9844 319.421 88.9844Z" fill="url(#paint9_linear_62_71921)"/>
<path d="M261.703 162.725L261.645 156.338L276.879 142.334C280.863 138.525 282.973 136.182 282.973 132.842C282.973 129.092 280.102 126.748 276.234 126.748C272.25 126.748 269.672 129.268 269.672 133.311H261.293C261.234 124.99 267.387 119.717 276.352 119.717C285.434 119.717 291.469 124.873 291.469 132.256C291.469 137.061 289.125 141.045 280.395 148.955L273.949 155.225V155.459H292.055V162.725H261.703ZM296.684 155.225V148.252L314.613 120.303H325.688V148.135H331.078V155.225H325.688V162.725H317.309V155.225H296.684ZM305.59 148.135H317.426V129.971H317.016L305.59 147.783V148.135ZM355.805 126.865C355.805 136.65 360.258 146.494 369.281 150.303L364.887 156.279C358.793 153.525 354.574 148.223 352.172 141.631C349.74 148.809 345.375 154.609 338.871 157.568L334.359 151.357C343.676 147.432 348.188 137.236 348.246 126.865V118.896H355.805V126.865ZM379.711 114.795V168.232H372.152V114.795H379.711ZM429.223 114.795V129.736H436.43V135.889H429.223V152.998H421.664V114.795H429.223ZM414.691 118.779C414.691 133.193 405.668 143.271 389.672 147.783L386.566 141.865C398.49 138.525 405.258 132.344 406.488 124.873H388.91V118.779H414.691ZM431.039 161.201V167.178H394.535V149.072H402.094V161.201H431.039Z" fill="url(#paint10_linear_62_71921)"/>
<path d="M501.352 140.752V146.729H481.137V155.986H473.578V146.729H452.543V140.752H501.352ZM495.961 161.143V167.178H458.344V151.24H465.902V161.143H495.961ZM476.918 115.791C488.461 115.85 496.137 120.127 496.195 126.865C496.137 133.662 488.461 137.881 476.918 137.881C465.316 137.881 457.582 133.662 457.582 126.865C457.582 120.127 465.316 115.85 476.918 115.791ZM476.918 121.709C470.004 121.709 465.609 123.467 465.668 126.865C465.609 130.146 470.004 131.904 476.918 131.904C483.773 131.904 488.168 130.146 488.168 126.865C488.168 123.467 483.773 121.709 476.918 121.709ZM519.34 117.666C523.588 117.666 527.309 119.219 529.887 121.826H541.957V114.795H549.398V146.025H541.957V139.639H529.828C527.25 142.217 523.559 143.77 519.34 143.74C511.254 143.799 505.102 138.232 505.16 130.732C505.102 123.115 511.254 117.666 519.34 117.666ZM519.34 124.053C515.18 124.053 512.191 126.514 512.25 130.732C512.191 134.834 515.18 137.471 519.34 137.412C523.383 137.471 526.312 134.834 526.312 130.732C526.312 126.514 523.383 124.053 519.34 124.053ZM531.176 147.139C542.484 147.139 549.516 151.006 549.574 157.627C549.516 164.248 542.484 168.115 531.176 168.115C519.926 168.115 512.836 164.248 512.836 157.627C512.836 151.006 519.926 147.139 531.176 147.139ZM531.176 152.822C524.086 152.822 520.16 154.404 520.16 157.627C520.16 160.732 524.086 162.314 531.176 162.314C538.383 162.314 542.25 160.732 542.25 157.627C542.25 154.404 538.383 152.822 531.176 152.822ZM533.109 127.744C533.285 128.682 533.402 129.707 533.402 130.732C533.402 131.758 533.285 132.725 533.109 133.662H541.957V127.744H533.109Z" fill="#2E69F4"/>
<defs>
<linearGradient id="paint0_linear_62_71921" x1="116.521" y1="151.229" x2="222.934" y2="63.3166" gradientUnits="userSpaceOnUse">
<stop stop-color="#3ED0F7"/>
<stop offset="1" stop-color="#2E69F4"/>
</linearGradient>
<linearGradient id="paint1_linear_62_71921" x1="136.604" y1="175.538" x2="243.017" y2="87.6264" gradientUnits="userSpaceOnUse">
<stop stop-color="#3ED0F7"/>
<stop offset="1" stop-color="#2E69F4"/>
</linearGradient>
<linearGradient id="paint2_linear_62_71921" x1="140.281" y1="179.987" x2="246.693" y2="92.0746" gradientUnits="userSpaceOnUse">
<stop stop-color="#3ED0F7"/>
<stop offset="1" stop-color="#2E69F4"/>
</linearGradient>
<linearGradient id="paint3_linear_62_71921" x1="111.218" y1="144.805" x2="217.63" y2="56.8922" gradientUnits="userSpaceOnUse">
<stop stop-color="#3ED0F7"/>
<stop offset="1" stop-color="#2E69F4"/>
</linearGradient>
<linearGradient id="paint4_linear_62_71921" x1="133.798" y1="167.398" x2="246.41" y2="74.363" gradientUnits="userSpaceOnUse">
<stop stop-color="#3ED0F7"/>
<stop offset="1" stop-color="#2E69F4"/>
</linearGradient>
<linearGradient id="paint5_linear_62_71921" x1="220.78" y1="118.259" x2="209.592" y2="97.907" gradientUnits="userSpaceOnUse">
<stop stop-color="#3389F5"/>
<stop offset="1" stop-color="#618DF2"/>
</linearGradient>
<linearGradient id="paint6_linear_62_71921" x1="191.777" y1="85.9281" x2="196.885" y2="92.9437" gradientUnits="userSpaceOnUse">
<stop stop-color="#3ED0F7" stop-opacity="0"/>
<stop offset="1" stop-color="#618DF2"/>
</linearGradient>
<linearGradient id="paint7_linear_62_71921" x1="172.377" y1="116.432" x2="163.792" y2="123.249" gradientUnits="userSpaceOnUse">
<stop stop-color="#38A4F6"/>
<stop offset="1" stop-color="#618DF2"/>
</linearGradient>
<linearGradient id="paint8_linear_62_71921" x1="155.214" y1="132.19" x2="160.144" y2="126.129" gradientUnits="userSpaceOnUse">
<stop stop-color="#3AB5F6"/>
<stop offset="1" stop-color="#618DF2"/>
</linearGradient>
<linearGradient id="paint9_linear_62_71921" x1="258.047" y1="92.2246" x2="324.047" y2="92.2246" gradientUnits="userSpaceOnUse">
<stop stop-color="#17D8E1"/>
<stop offset="1" stop-color="#657BFF"/>
</linearGradient>
<linearGradient id="paint10_linear_62_71921" x1="258.047" y1="141.725" x2="401.284" y2="141.725" gradientUnits="userSpaceOnUse">
<stop stop-color="#17D8E1"/>
<stop offset="1" stop-color="#657BFF"/>
</linearGradient>
</defs>
</svg>
