<svg width="187" height="33" viewBox="0 0 187 33" fill="none" xmlns="http://www.w3.org/2000/svg">
<path d="M9.18066 3.63037L16.5211 12.2572L17.792 10.7631L11.7256 3.63037H9.18066Z" fill="white"/>
<path d="M18.7068 17.3769L17.4203 15.8642L28.9548 2.30549H33.0869L22.4545 14.804L23.7285 16.3012L37.4391 0.191406H28.2109L16.1494 14.367L5.88584 2.30549H12.3211L14.119 0.191406H1.54297L17.4358 18.871L18.7068 17.3769Z" fill="white"/>
<path d="M19.3567 15.5895L20.5687 17.0154V17.0185L9.03422 30.5741H4.90524L15.4912 18.1159L14.1861 16.6558L0.546875 32.6882H9.78128L21.8396 18.5126H21.8427L32.1063 30.5741H30.5068H14.3845L12.5866 32.6882H36.4492L20.6276 14.0923L19.3567 15.5895Z" fill="white"/>
<path d="M21.467 20.6201L20.1992 22.1235L26.2656 29.2501H28.8106L21.467 20.6201Z" fill="white"/>
<path d="M115.965 1.38552C115.652 0.970145 115.153 0.663262 114.474 0.471072C113.795 0.278882 112.875 0.179688 111.712 0.179688H92.7721C91.6096 0.179688 90.6704 0.275782 89.9512 0.471072C89.2321 0.666361 88.671 0.970145 88.2711 1.38552C87.8682 1.8319 87.5799 2.38987 87.4063 3.05943C87.3877 3.13693 87.3691 3.22372 87.3505 3.30432H106.793C107.208 3.30432 107.478 3.38802 107.592 3.54921C107.71 3.7135 107.747 4.00488 107.704 4.42026L106.526 15.8958L106.346 17.6442L105.237 28.4564C105.193 28.8749 105.097 29.1631 104.945 29.3274C104.793 29.4917 104.511 29.5723 104.093 29.5723H94.3561C93.9376 29.5723 93.671 29.4886 93.5563 29.3274C93.4386 29.1631 93.4014 28.8749 93.4448 28.4564L94.6351 17.6442L94.8273 15.8958L95.9153 6.02288H87.1149L86.0238 15.8958L85.8316 17.6442L84.7559 27.3838C84.6567 28.3386 84.6257 29.1569 84.6598 29.842C84.6939 30.5271 84.8675 31.0788 85.1837 31.4942C85.4999 31.9096 85.9959 32.2165 86.6747 32.4087C87.3536 32.6009 88.2742 32.7001 89.4367 32.7001H108.377C109.539 32.7001 110.478 32.604 111.198 32.4087C111.917 32.2134 112.478 31.9096 112.878 31.4942C113.277 31.0757 113.566 30.5271 113.739 29.842C113.913 29.1569 114.049 28.3386 114.149 27.3838L115.15 17.6442L115.33 15.8958L116.399 5.4928C116.498 4.54115 116.529 3.729 116.492 3.05943C116.455 2.38987 116.284 1.8319 115.971 1.38552H115.965Z" fill="white"/>
<path d="M80.8246 1.25223C80.5333 0.895749 80.0993 0.626064 79.5227 0.449373C78.9461 0.269583 78.1495 0.179688 77.1389 0.179688H52.7494L51.1406 15.8401L27.2843 15.8958L26.624 16.7421L27.2843 17.6442H69.2251C70.1178 17.6442 70.7037 17.8177 70.9827 18.1587C71.2586 18.5028 71.3515 19.1197 71.2617 20.0124L70.5146 27.2939C70.4247 28.1588 70.2077 28.754 69.8636 29.0794C69.5164 29.408 68.881 29.5723 67.9603 29.5723L60.5083 29.6002L60.1332 32.7001H73.8934C74.904 32.7001 75.7409 32.6164 76.3981 32.4552C77.0552 32.2909 77.5822 32.015 77.979 31.6275C78.3758 31.24 78.6641 30.7503 78.8438 30.1551C79.0236 29.5599 79.16 28.8315 79.2468 27.9666L80.1613 19.0763C80.2171 18.5214 80.183 18.0471 80.0652 17.6473C80.0187 17.4892 79.9598 17.3373 79.8854 17.2009C79.8854 17.1978 79.8792 17.1916 79.8792 17.1854C79.4328 16.3918 78.568 15.9361 77.6597 15.8989C77.6194 15.8989 77.5791 15.8927 77.5388 15.8927H59.938L59.9442 15.8432L61.2337 3.31052H70.2573C71.1501 3.31052 71.7359 3.47481 72.0149 3.80339C72.2939 4.13198 72.3869 4.74264 72.297 5.6354L72.173 6.85363L71.6243 12.2008C71.5406 13.013 71.3515 13.5896 71.0571 13.9337H79.129C79.7583 13.9337 80.2946 13.4656 80.3597 12.8394C80.3597 12.8363 80.3597 12.8301 80.3597 12.827L81.1687 4.96583C81.2586 4.10098 81.2896 3.36632 81.2617 2.75565C81.2338 2.14498 81.0912 1.64591 80.8339 1.25843L80.8246 1.25223Z" fill="white"/>
<path d="M49.4053 32.7005H58.1282L58.6552 28.3204L59.5665 19.458H50.7661L49.4053 32.7005Z" fill="white"/>
<path d="M149.795 17.1322C149.671 16.7447 149.454 16.4627 149.144 16.2829C148.834 16.1031 148.444 15.9915 147.973 15.9481C147.725 15.9233 147.452 15.9078 147.164 15.8954C146.903 15.8861 146.624 15.8799 146.33 15.8799H117.709V15.8954L117.532 17.6437H141.19L141.051 19.0076L140.198 27.2935C140.108 28.1583 139.891 28.7535 139.544 29.079C139.197 29.4076 138.562 29.5719 137.641 29.5719H130.493C129.569 29.5719 128.968 29.4076 128.689 29.079C128.41 28.7504 128.313 28.1552 128.403 27.2935L128.862 22.8266H120.062L119.535 27.963C119.445 28.8279 119.417 29.5564 119.445 30.1515C119.473 30.7467 119.631 31.2396 119.919 31.627C120.176 32.0145 120.604 32.2904 121.196 32.4547C121.788 32.619 122.591 32.6996 123.605 32.6996H143.884C144.894 32.6996 145.716 32.6159 146.345 32.4547C146.971 32.2904 147.47 32.0145 147.836 31.627C148.174 31.2396 148.419 30.7467 148.568 30.1515C148.72 29.5564 148.837 28.8279 148.927 27.963L149.87 18.7844C149.916 18.3381 149.919 17.963 149.888 17.6437C149.87 17.4515 149.842 17.2779 149.795 17.1322Z" fill="white"/>
<path d="M150.956 1.25223C150.665 0.895749 150.225 0.626064 149.633 0.449373C149.038 0.269583 148.235 0.179688 147.224 0.179688H126.945C125.931 0.179688 125.11 0.269583 124.484 0.446273C123.855 0.626064 123.374 0.89265 123.039 1.24913C122.67 1.63661 122.413 2.13568 122.261 2.74635C122.109 3.35702 121.989 4.09478 121.902 4.95653L121.077 12.9944H129.878L130.659 5.40291C130.752 4.51016 130.966 3.93669 131.304 3.6825C131.641 3.42831 132.274 3.30122 133.198 3.30122H140.389C141.282 3.30122 141.874 3.42831 142.159 3.6825C142.444 3.93669 142.544 4.51016 142.451 5.40291L141.973 10.0496H150.774L151.297 4.95653C151.387 4.09168 151.418 3.35702 151.39 2.74635C151.363 2.13568 151.22 1.63661 150.963 1.24913L150.956 1.25223Z" fill="white"/>
<path d="M184.937 17.1322C184.813 16.7447 184.596 16.4627 184.286 16.2829C183.976 16.1031 183.585 15.9915 183.114 15.9481C182.866 15.9233 182.593 15.9078 182.305 15.8954C182.045 15.8861 181.766 15.8799 181.471 15.8799H152.851V15.8954L152.674 17.6437H176.332L176.192 19.0076L175.34 27.2935C175.25 28.1583 175.033 28.7535 174.686 29.079C174.339 29.4076 173.703 29.5719 172.782 29.5719H165.634C164.71 29.5719 164.109 29.4076 163.83 29.079C163.551 28.7504 163.455 28.1552 163.545 27.2935L164.004 22.8266H155.203L154.676 27.963C154.586 28.8279 154.559 29.5564 154.586 30.1515C154.614 30.7467 154.772 31.2396 155.061 31.627C155.318 32.0145 155.746 32.2904 156.338 32.4547C156.93 32.619 157.733 32.6996 158.746 32.6996H179.026C180.036 32.6996 180.858 32.6159 181.487 32.4547C182.113 32.2904 182.612 32.0145 182.978 31.627C183.316 31.2396 183.561 30.7467 183.709 30.1515C183.861 29.5564 183.979 28.8279 184.069 27.963L185.011 18.7844C185.058 18.3381 185.061 17.963 185.03 17.6437C185.011 17.4515 184.983 17.2779 184.937 17.1322Z" fill="white"/>
<path d="M186.529 2.74928C186.501 2.13861 186.358 1.63954 186.101 1.25206C185.809 0.895579 185.369 0.625894 184.777 0.449203C184.185 0.269413 183.382 0.182617 182.372 0.182617H162.093C161.079 0.182617 160.258 0.272512 159.631 0.449203C159.002 0.628993 158.522 0.895579 158.187 1.25206C157.818 1.63954 157.561 2.13861 157.409 2.74928C157.257 3.35995 157.136 4.09771 157.049 4.95946L156.225 12.9973H165.025L165.806 5.40584C165.899 4.51309 166.113 3.93962 166.451 3.68543C166.789 3.43124 167.421 3.30415 168.345 3.30415H175.537C176.429 3.30415 177.021 3.43124 177.307 3.68543C177.595 3.93962 177.691 4.51309 177.598 5.40584L177.121 10.0525H185.921L186.445 4.95946C186.535 4.09461 186.566 3.35995 186.538 2.74928H186.529Z" fill="white"/>
</svg>
