<svg width="232" height="41" viewBox="0 0 232 41" fill="none" xmlns="http://www.w3.org/2000/svg">
<path d="M11.4359 4.53125L20.5522 15.2452L22.1306 13.3896L14.5966 4.53125H11.4359Z" fill="black"/>
<path d="M23.2658 21.604L21.6681 19.7253L35.9932 2.8863H41.125L27.9202 18.4087L29.5024 20.2681L46.5301 0.260742H35.0693L20.0897 17.8659L7.34303 2.8863H15.3352L17.5681 0.260742H1.94946L21.6874 23.4596L23.2658 21.604Z" fill="black"/>
<path d="M24.0738 19.3839L25.5791 21.1548V21.1586L11.254 37.9938H6.12607L19.2731 22.5214L17.6524 20.7082L0.713257 40.6193H12.1818L27.1575 23.0142H27.1613L39.908 37.9938H37.9215H17.8987L15.6659 40.6193H45.3016L25.6522 17.5244L24.0738 19.3839Z" fill="black"/>
<path d="M26.696 25.6318L25.1215 27.499L32.6555 36.3497H35.8162L26.696 25.6318Z" fill="black"/>
<path d="M144.056 1.74366C143.667 1.22779 143.047 0.846662 142.204 0.607974C141.361 0.369287 140.218 0.246094 138.774 0.246094H115.252C113.808 0.246094 112.642 0.365437 111.749 0.607974C110.855 0.850511 110.159 1.22779 109.662 1.74366C109.162 2.29803 108.803 2.991 108.588 3.82255C108.565 3.9188 108.542 4.02659 108.519 4.12669H132.664C133.18 4.12669 133.515 4.23063 133.658 4.43082C133.804 4.63486 133.85 4.99674 133.796 5.51261L132.333 19.7646L132.11 21.9358L130.732 35.3639C130.678 35.8836 130.559 36.2417 130.37 36.4457C130.181 36.6497 129.831 36.7498 129.311 36.7498H117.219C116.699 36.7498 116.368 36.6459 116.226 36.4457C116.08 36.2417 116.033 35.8836 116.087 35.3639L117.566 21.9358L117.804 19.7646L119.156 7.50296H108.226L106.871 19.7646L106.632 21.9358L105.296 34.0319C105.173 35.2176 105.135 36.234 105.177 37.0848C105.219 37.9356 105.435 38.6208 105.828 39.1367C106.22 39.6526 106.836 40.0337 107.679 40.2724C108.522 40.5111 109.666 40.6343 111.11 40.6343H134.632C136.075 40.6343 137.242 40.5149 138.135 40.2724C139.028 40.0299 139.725 39.6526 140.222 39.1367C140.718 38.617 141.076 37.9356 141.292 37.0848C141.507 36.234 141.677 35.2176 141.8 34.0319L143.044 21.9358L143.267 19.7646L144.595 6.84464C144.718 5.66275 144.757 4.65411 144.711 3.82255C144.664 2.991 144.453 2.29803 144.064 1.74366H144.056Z" fill="black"/>
<path d="M100.412 1.57812C100.05 1.1354 99.5108 0.800464 98.7948 0.581026C98.0787 0.357738 97.0893 0.246094 95.8343 0.246094H65.5441L63.5461 19.6953L33.918 19.7646L33.098 20.8155L33.918 21.9358H86.0057C87.1145 21.9358 87.8421 22.1514 88.1886 22.5749C88.5312 23.0022 88.6467 23.7683 88.5351 24.8771L87.6073 33.9202C87.4956 34.9943 87.2261 35.7335 86.7988 36.1377C86.3676 36.5458 85.5784 36.7498 84.435 36.7498L75.1801 36.7845L74.7143 40.6343H91.8035C93.0586 40.6343 94.098 40.5303 94.9142 40.3302C95.7303 40.1261 96.3848 39.7835 96.8776 39.3023C97.3703 38.821 97.7284 38.2128 97.9517 37.4736C98.1749 36.7344 98.3444 35.8297 98.4521 34.7557L99.5878 23.7144C99.6571 23.0253 99.6148 22.4363 99.4685 21.9397C99.4107 21.7433 99.3376 21.5547 99.2452 21.3853C99.2452 21.3815 99.2375 21.3738 99.2375 21.3661C98.6831 20.3805 97.609 19.8146 96.481 19.7684C96.431 19.7684 96.381 19.7607 96.3309 19.7607H74.4718L74.4795 19.6991L76.081 4.13439H87.2877C88.3965 4.13439 89.1241 4.33843 89.4706 4.7465C89.817 5.15458 89.9325 5.91299 89.8209 7.02173L89.6669 8.5347L88.9855 15.1756C88.8815 16.1842 88.6467 16.9003 88.281 17.3276H98.3058C99.0874 17.3276 99.7534 16.7463 99.8342 15.9687C99.8342 15.9648 99.8342 15.9571 99.8342 15.9533L100.839 6.19018C100.951 5.11608 100.989 4.20368 100.955 3.44527C100.92 2.68686 100.743 2.06705 100.423 1.58582L100.412 1.57812Z" fill="black"/>
<path d="M61.3932 40.6348H72.2265L72.881 35.195L74.0128 24.1885H63.0832L61.3932 40.6348Z" fill="black"/>
<path d="M186.069 21.3004C185.915 20.8192 185.646 20.4689 185.261 20.2456C184.876 20.0223 184.391 19.8837 183.805 19.8298C183.497 19.799 183.159 19.7798 182.801 19.7644C182.477 19.7528 182.131 19.7451 181.765 19.7451H146.22V19.7644L146 21.9356H175.382L175.209 23.6296L174.15 33.9201C174.038 34.9942 173.769 35.7333 173.338 36.1375C172.907 36.5456 172.117 36.7497 170.974 36.7497H162.096C160.949 36.7497 160.202 36.5456 159.856 36.1375C159.509 35.7295 159.39 34.9903 159.502 33.9201L160.071 28.3725H149.142L148.487 34.7516C148.376 35.8257 148.341 36.7304 148.376 37.4696C148.41 38.2087 148.607 38.8208 148.965 39.3021C149.284 39.7833 149.816 40.1259 150.551 40.33C151.286 40.534 152.283 40.6341 153.542 40.6341H178.727C179.983 40.6341 181.003 40.5302 181.784 40.33C182.562 40.1259 183.182 39.7833 183.636 39.3021C184.056 38.8208 184.36 38.2087 184.545 37.4696C184.733 36.7304 184.879 35.8257 184.991 34.7516L186.161 23.3524C186.219 22.798 186.223 22.3322 186.185 21.9356C186.161 21.697 186.127 21.4814 186.069 21.3004Z" fill="black"/>
<path d="M187.513 1.57812C187.151 1.1354 186.604 0.800464 185.869 0.581026C185.13 0.357738 184.133 0.246094 182.878 0.246094H157.692C156.433 0.246094 155.413 0.357738 154.636 0.577176C153.854 0.800464 153.257 1.13155 152.842 1.57427C152.383 2.0555 152.064 2.67531 151.875 3.43372C151.687 4.19213 151.537 5.10838 151.429 6.17863L150.405 16.1611H161.334L162.304 6.733C162.42 5.62426 162.686 4.91205 163.105 4.59636C163.525 4.28068 164.31 4.12284 165.457 4.12284H174.389C175.498 4.12284 176.233 4.28068 176.587 4.59636C176.941 4.91205 177.064 5.62426 176.949 6.733L176.356 12.5038H187.286L187.936 6.17863C188.048 5.10453 188.086 4.19213 188.052 3.43372C188.017 2.67531 187.84 2.0555 187.521 1.57427L187.513 1.57812Z" fill="black"/>
<path d="M229.716 21.3004C229.562 20.8192 229.292 20.4689 228.907 20.2456C228.522 20.0223 228.037 19.8837 227.452 19.8298C227.144 19.799 226.805 19.7798 226.447 19.7644C226.124 19.7528 225.777 19.7451 225.411 19.7451H189.866V19.7644L189.647 21.9356H219.028L218.855 23.6296L217.797 33.9201C217.685 34.9942 217.415 35.7333 216.984 36.1375C216.553 36.5456 215.764 36.7497 214.62 36.7497H205.743C204.596 36.7497 203.849 36.5456 203.502 36.1375C203.156 35.7295 203.036 34.9903 203.148 33.9201L203.718 28.3725H192.788L192.134 34.7516C192.022 35.8257 191.988 36.7304 192.022 37.4696C192.057 38.2087 192.253 38.8208 192.611 39.3021C192.931 39.7833 193.462 40.1259 194.197 40.33C194.933 40.534 195.93 40.6341 197.189 40.6341H222.374C223.629 40.6341 224.649 40.5302 225.431 40.33C226.208 40.1259 226.828 39.7833 227.282 39.3021C227.702 38.8208 228.006 38.2087 228.191 37.4696C228.38 36.7304 228.526 35.8257 228.638 34.7516L229.808 23.3524C229.866 22.798 229.87 22.3322 229.831 21.9356C229.808 21.697 229.773 21.4814 229.716 21.3004Z" fill="black"/>
<path d="M231.689 3.43763C231.654 2.67922 231.477 2.0594 231.157 1.57818C230.796 1.13545 230.249 0.800521 229.514 0.581082C228.778 0.357794 227.781 0.25 226.526 0.25H201.341C200.082 0.25 199.062 0.361644 198.284 0.581082C197.503 0.80437 196.906 1.13545 196.49 1.57818C196.032 2.0594 195.712 2.67922 195.524 3.43763C195.335 4.19604 195.185 5.11229 195.077 6.18253L194.053 16.1651H204.983L205.953 6.7369C206.068 5.62816 206.334 4.91595 206.754 4.60027C207.173 4.28458 207.959 4.12674 209.106 4.12674H218.037C219.146 4.12674 219.881 4.28458 220.236 4.60027C220.594 4.91595 220.713 5.62816 220.597 6.7369L220.005 12.5077H230.934L231.585 6.18253C231.696 5.10844 231.735 4.19604 231.7 3.43763H231.689Z" fill="black"/>
</svg>
