<svg width="171" height="91" viewBox="0 0 171 91" fill="none" xmlns="http://www.w3.org/2000/svg">
<rect x="1.05249" y="0.946048" width="168.989" height="88.9888" rx="19.4944" fill="white"/>
<rect x="1.05249" y="0.946048" width="168.989" height="88.9888" rx="19.4944" stroke="#EAEAEA" stroke-width="1.01124"/>
<path d="M69.5864 67.374V74.3027C69.5864 75.0547 69.4058 75.7212 69.0444 76.3022C68.688 76.8833 68.1826 77.335 67.5283 77.6572C66.8789 77.9795 66.1294 78.1406 65.2798 78.1406C64.4253 78.1406 63.6709 77.9795 63.0166 77.6572C62.3672 77.335 61.8643 76.8833 61.5078 76.3022C61.1514 75.7212 60.9731 75.0547 60.9731 74.3027V67.374H62.8774V74.1416C62.8774 74.5859 62.9751 74.9814 63.1704 75.3281C63.3706 75.6748 63.6514 75.9482 64.0127 76.1484C64.3789 76.3438 64.8013 76.4414 65.2798 76.4414C65.7583 76.4414 66.1782 76.3438 66.5396 76.1484C66.9009 75.9531 67.1792 75.6821 67.3745 75.3354C67.5698 74.9839 67.6675 74.5859 67.6675 74.1416V67.374H69.5864ZM73.4536 77.9795H71.5493V67.374H73.4536V77.9795ZM75.4312 67.374H79.4155C80.2065 67.374 80.8828 67.5229 81.4443 67.8208C82.0059 68.1187 82.4307 68.5337 82.7188 69.0659C83.0068 69.5933 83.1509 70.2012 83.1509 70.8896C83.1509 71.5732 83.0044 72.1812 82.7114 72.7134C82.4233 73.2407 81.9961 73.6533 81.4297 73.9512C80.8633 74.2441 80.1821 74.3906 79.3862 74.3906H77.3354V77.9795H75.4312V67.374ZM79.1226 72.8232C79.8159 72.8232 80.3359 72.6499 80.6826 72.3032C81.0293 71.9517 81.2026 71.4805 81.2026 70.8896C81.2026 70.2939 81.0293 69.8252 80.6826 69.4834C80.3359 69.1416 79.8159 68.9707 79.1226 68.9707H77.3354V72.8232H79.1226ZM82.814 77.9795L86.5493 67.374H88.8931L92.6431 77.9795H90.6069L89.7207 75.3574H85.729L84.8501 77.9795H82.814ZM89.208 73.8193L87.7651 69.542H87.6772L86.2417 73.8193H89.208ZM92.145 67.374H100.597V68.9707H97.3306V77.9795H95.4263V68.9707H92.145V67.374ZM102.091 67.374H103.996V71.8711H108.932V67.374H110.851V77.9795H108.932V73.4678H103.996V77.9795H102.091V67.374Z" fill="#898989"/>
<path d="M87.9419 30.9609V37.8457C87.9419 38.6123 87.7588 39.2886 87.3926 39.8745C87.0264 40.4604 86.5112 40.9146 85.8472 41.2368C85.1831 41.5542 84.4165 41.7129 83.5474 41.7129C82.6782 41.7129 81.9116 41.5542 81.2476 41.2368C80.5884 40.9146 80.0757 40.4604 79.7095 39.8745C79.3481 39.2886 79.1675 38.6123 79.1675 37.8457V30.9609H81.3647V37.6699C81.3647 38.0752 81.4551 38.439 81.6357 38.7612C81.8164 39.0786 82.0728 39.3276 82.4048 39.5083C82.7368 39.689 83.1177 39.7793 83.5474 39.7793C83.9819 39.7793 84.3652 39.689 84.6973 39.5083C85.0293 39.3276 85.2832 39.0786 85.459 38.7612C85.6396 38.439 85.73 38.0752 85.73 37.6699V30.9609H87.9419ZM91.9263 41.5664H89.729V30.9609H91.9263V41.5664Z" fill="#3461FF"/>
<rect x="70.6324" y="21.152" width="29.8289" height="29.8289" rx="2.475" stroke="#3461FF" stroke-width="2.55"/>
</svg>
