<svg width="171" height="91" viewBox="0 0 171 91" fill="none" xmlns="http://www.w3.org/2000/svg">
<rect x="1.05249" y="0.946048" width="168.989" height="88.9888" rx="19.4944" fill="white"/>
<rect x="1.05249" y="0.946048" width="168.989" height="88.9888" rx="19.4944" stroke="#EAEAEA" stroke-width="1.01124"/>
<g clip-path="url(#clip0_62_66015)">
<path d="M77.9319 47.9695L69.8349 56.066C68.5373 57.3636 66.4345 57.3644 65.1359 56.066C64.5064 55.4365 64.0632 54.9933 63.4324 54.3626C62.1371 53.0674 62.1371 50.9599 63.4324 49.6639L71.5294 41.5674C73.0701 44.2166 75.2825 46.4289 77.9319 47.9695Z" fill="#3461FF"/>
<path d="M103.123 23.6119C102.445 23.6119 101.896 23.0624 101.896 22.3846V17.6049H97.1159C96.4382 17.6049 95.8887 17.0554 95.8887 16.3777C95.8887 15.6999 96.4382 15.1504 97.1159 15.1504H103.123C103.801 15.1504 104.35 15.6999 104.35 16.3777V22.3846C104.35 23.0625 103.801 23.6119 103.123 23.6119Z" fill="#3461FF"/>
<path d="M70.3796 23.6118C69.7018 23.6118 69.1523 23.0623 69.1523 22.3845V16.3777C69.1523 15.6999 69.7018 15.1504 70.3796 15.1504H76.3869C77.0647 15.1504 77.6141 15.6999 77.6141 16.3777C77.6141 17.0554 77.0647 17.6049 76.3869 17.6049H71.6069V22.3846C71.607 23.0624 71.0575 23.6118 70.3796 23.6118Z" fill="#3461FF"/>
<path d="M103.123 50.3453H97.1159C96.4382 50.3453 95.8887 49.7959 95.8887 49.1181C95.8887 48.4403 96.4382 47.8908 97.1159 47.8908H101.896V43.1111C101.896 42.4333 102.445 41.8838 103.123 41.8838C103.801 41.8838 104.35 42.4333 104.35 43.1111V49.1181C104.35 49.7959 103.801 50.3453 103.123 50.3453Z" fill="#3461FF"/>
<path d="M95.5282 32.0603C95.3146 32.0603 94.9522 32.0611 94.6143 32.0628C94.6094 31.1464 94.6126 31.4614 94.6094 30.2939H95.5282C96.0592 30.2939 96.5076 30.6981 96.5076 31.1768C96.5076 31.6554 96.0593 32.0603 95.5282 32.0603Z" fill="#3461FF"/>
<path d="M86.7516 17.6055C78.401 17.6055 71.6074 24.3987 71.6074 32.7488C71.6074 41.0989 78.401 47.8921 86.7516 47.8921C95.1023 47.8921 101.896 41.0989 101.896 32.7488C101.896 24.3987 95.1023 17.6055 86.7516 17.6055ZM79.4508 36.8388C77.195 36.8388 75.3597 35.0037 75.3597 32.748C75.3597 30.4923 77.195 28.6571 79.4508 28.6571C81.7066 28.6571 83.5418 30.4922 83.5418 32.748C83.5418 35.0036 81.7066 36.8388 79.4508 36.8388ZM91.3034 35.623C90.1342 37.018 88.1868 37.1284 86.7516 36.3888C83.7881 34.8678 83.7816 30.6314 86.7516 29.1071C88.046 28.4403 89.644 28.5066 90.9033 29.3567C91.2772 29.6095 91.3754 30.1176 91.1225 30.4923C90.8697 30.8671 90.3616 30.9652 89.9868 30.7124C88.9674 30.0235 87.5723 30.1937 86.7516 31.1526C85.9621 32.0706 85.9637 33.4279 86.7516 34.3434C87.6026 35.3383 89.2292 35.5502 90.0498 34.5709C90.3403 34.2248 90.8565 34.1798 91.2027 34.4702C91.5488 34.7606 91.5938 35.2761 91.3034 35.623ZM97.8653 36.6351C97.5266 36.9337 97.0095 36.901 96.7109 36.5614L94.604 34.1683V36.0207C94.604 36.4732 94.2383 36.8389 93.7858 36.8389C93.3342 36.8389 92.9676 36.4732 92.9676 36.0207V29.4753C92.9676 29.0237 93.3342 28.6571 93.7858 28.6571H93.7874H95.5278C96.9703 28.6571 98.1436 29.7879 98.1436 31.1762C98.1436 32.3152 97.3549 33.2797 96.2756 33.5906L97.9391 35.4805C98.2376 35.8193 98.2049 36.3364 97.8653 36.6351ZM79.4508 30.2935C78.0975 30.2935 76.9961 31.3948 76.9961 32.748C76.9961 34.1012 78.0974 35.2024 79.4508 35.2024C80.8049 35.2024 81.9054 34.1012 81.9054 32.748C81.9054 31.3947 80.8049 30.2935 79.4508 30.2935Z" fill="#3461FF"/>
</g>
<path d="M80.6943 72.6738C80.6943 73.792 80.4844 74.7612 80.0645 75.5815C79.6445 76.4019 79.0659 77.0317 78.3286 77.4712C77.5962 77.9058 76.7637 78.123 75.8311 78.123C74.8984 78.123 74.0635 77.9058 73.3262 77.4712C72.5938 77.0317 72.0176 76.4019 71.5977 75.5815C71.1777 74.7563 70.9678 73.7871 70.9678 72.6738C70.9678 71.5557 71.1777 70.5864 71.5977 69.7661C72.0176 68.9458 72.5938 68.3184 73.3262 67.8838C74.0635 67.4443 74.8984 67.2246 75.8311 67.2246C76.7637 67.2246 77.5962 67.4443 78.3286 67.8838C79.0659 68.3184 79.6445 68.9458 80.0645 69.7661C80.4844 70.5864 80.6943 71.5557 80.6943 72.6738ZM78.7754 72.6738C78.7754 71.8828 78.6509 71.209 78.4019 70.6523C78.1577 70.0908 77.8135 69.666 77.3691 69.3779C76.9248 69.085 76.4121 68.9385 75.8311 68.9385C75.25 68.9385 74.7373 69.085 74.293 69.3779C73.8486 69.666 73.502 70.0908 73.2529 70.6523C73.0088 71.209 72.8867 71.8828 72.8867 72.6738C72.8867 73.4648 73.0088 74.1411 73.2529 74.7026C73.502 75.2593 73.8486 75.6841 74.293 75.9771C74.7373 76.2651 75.25 76.4092 75.8311 76.4092C76.4121 76.4092 76.9248 76.2651 77.3691 75.9771C77.8135 75.6841 78.1577 75.2593 78.4019 74.7026C78.6509 74.1411 78.7754 73.4648 78.7754 72.6738ZM89.542 70.9453C89.4688 70.5303 89.3149 70.1714 89.0806 69.8687C88.8462 69.5659 88.5483 69.3364 88.187 69.1802C87.8306 69.019 87.4375 68.9385 87.0078 68.9385C86.4219 68.9385 85.9067 69.085 85.4624 69.3779C85.0181 69.666 84.6714 70.0908 84.4224 70.6523C84.1733 71.2139 84.0488 71.8877 84.0488 72.6738C84.0488 73.4648 84.1733 74.1411 84.4224 74.7026C84.6714 75.2642 85.0181 75.689 85.4624 75.9771C85.9116 76.2651 86.4268 76.4092 87.0078 76.4092C87.4277 76.4092 87.8135 76.3335 88.165 76.1821C88.5215 76.0259 88.8193 75.8013 89.0586 75.5083C89.2979 75.2153 89.459 74.8662 89.542 74.4609H91.4609C91.3633 75.1445 91.1167 75.7646 90.7212 76.3213C90.3306 76.8779 89.813 77.3174 89.1685 77.6396C88.5239 77.9619 87.7939 78.123 86.9785 78.123C86.0459 78.123 85.2109 77.9058 84.4736 77.4712C83.7412 77.0317 83.1675 76.4019 82.7524 75.5815C82.3374 74.7563 82.1299 73.7871 82.1299 72.6738C82.1299 71.5557 82.3374 70.5864 82.7524 69.7661C83.1724 68.9458 83.7485 68.3184 84.481 67.8838C85.2183 67.4443 86.0508 67.2246 86.9785 67.2246C87.7598 67.2246 88.4702 67.3735 89.1099 67.6714C89.7495 67.9644 90.2744 68.3916 90.6846 68.9531C91.0947 69.5098 91.3535 70.1738 91.4609 70.9453H89.542ZM93.1016 67.3711H97.0859C97.8818 67.3711 98.5581 67.5127 99.1147 67.7959C99.6763 68.0742 100.101 68.4673 100.389 68.9751C100.677 69.4829 100.821 70.0762 100.821 70.7549C100.821 71.4775 100.658 72.0977 100.331 72.6152C100.008 73.1328 99.5347 73.5186 98.9097 73.7725L101.202 77.9766H99.0781L96.998 74.0947H95.0059V77.9766H93.1016V67.3711ZM96.793 72.498C98.1797 72.498 98.873 71.917 98.873 70.7549C98.873 70.1787 98.7021 69.7368 98.3604 69.4292C98.0186 69.1216 97.4961 68.9678 96.793 68.9678H95.0059V72.498H96.793Z" fill="#898989"/>
<defs>
<clipPath id="clip0_62_66015">
<rect width="41.8909" height="41.8909" fill="white" transform="translate(62.4609 15.1475)"/>
</clipPath>
</defs>
</svg>
