<svg width="171" height="91" viewBox="0 0 171 91" fill="none" xmlns="http://www.w3.org/2000/svg">
<rect x="1.05249" y="0.946048" width="168.989" height="88.9888" rx="19.4944" fill="white"/>
<rect x="1.05249" y="0.946048" width="168.989" height="88.9888" rx="19.4944" stroke="#EAEAEA" stroke-width="1.01124"/>
<g clip-path="url(#clip0_62_65990)">
<path d="M104.326 27.9807C104.326 27.2707 104.174 26.6434 103.867 26.105C103.566 25.5755 103.114 25.1317 102.508 24.7808C97.5062 21.8968 92.4998 19.0217 87.4996 16.1347C86.1516 15.3566 84.8447 15.3849 83.5066 16.1743C81.5159 17.3484 71.5485 23.0589 68.5784 24.7792C67.3551 25.4873 66.7599 26.5709 66.7596 27.9795C66.7578 33.7794 66.7596 39.5791 66.7578 45.3792C66.7581 46.0735 66.9035 46.6888 67.197 47.2191C67.4988 47.7646 67.9568 48.2206 68.5767 48.5793C71.5471 50.2997 81.5158 56.0098 83.5061 57.1842C84.8447 57.974 86.1517 58.0022 87.5001 57.2238C92.5003 54.3366 97.5071 51.4616 102.51 48.5777C103.129 48.219 103.587 47.7627 103.889 47.2177C104.182 46.6872 104.328 46.072 104.328 45.3776C104.328 45.3776 104.328 33.7808 104.326 27.9807Z" fill="#476FFF"/>
<path d="M85.6008 36.6221L67.1973 47.2183C67.4991 47.7638 67.9571 48.2199 68.577 48.5786C71.5474 50.2989 81.5161 56.0091 83.5064 57.1834C84.845 57.9733 86.152 58.0015 87.5004 57.223C92.5006 54.3359 97.5074 51.4608 102.51 48.577C103.13 48.2182 103.588 47.762 103.89 47.2169L85.6008 36.6221Z" fill="#1D49E1"/>
<path d="M104.327 27.9832C104.327 27.2732 104.175 26.6458 103.868 26.1074L85.6016 36.6252L103.89 47.2202C104.183 46.6897 104.329 46.0746 104.329 45.3801C104.329 45.3801 104.329 33.7832 104.327 27.9832Z" fill="#3461FF"/>
<path d="M90.9568 39.7258C89.8913 41.6153 87.8666 42.8924 85.543 42.8924C83.2336 42.8924 81.2205 41.6313 80.1496 39.7619C79.6294 38.8533 79.3303 37.8016 79.3303 36.6796C79.3303 33.2484 82.1119 30.4669 85.5431 30.4669C87.8377 30.4669 89.8401 31.7122 90.9164 33.5626L96.3466 30.4356C94.1882 26.7099 90.1586 24.2031 85.5431 24.2031C78.6523 24.2031 73.0664 29.7891 73.0664 36.6796C73.0664 38.9402 73.6677 41.06 74.7189 42.8886C76.8718 46.6341 80.9129 49.1562 85.543 49.1562C90.1816 49.1562 94.2292 46.624 96.379 42.8674L90.9568 39.7258Z" fill="white"/>
<path d="M101.557 35.967V34.7331H100.555V33.7305H99.3207V34.7331H97.8167V33.7305H96.5827V34.7331H95.5801V35.967H96.5827V37.4709H95.5801V38.7051H96.5827V39.7075H97.8167V38.7051H99.3207V39.7075H100.555V38.7051H101.557V37.4709H100.555V35.967H101.557ZM99.3207 37.4709H97.8167V35.967H99.3207V37.4709Z" fill="white"/>
</g>
<path d="M83.0625 70.9453C82.9893 70.5303 82.8354 70.1714 82.6011 69.8687C82.3667 69.5659 82.0688 69.3364 81.7075 69.1802C81.3511 69.019 80.958 68.9385 80.5283 68.9385C79.9424 68.9385 79.4272 69.085 78.9829 69.3779C78.5386 69.666 78.1919 70.0908 77.9429 70.6523C77.6938 71.2139 77.5693 71.8877 77.5693 72.6738C77.5693 73.4648 77.6938 74.1411 77.9429 74.7026C78.1919 75.2642 78.5386 75.689 78.9829 75.9771C79.4321 76.2651 79.9473 76.4092 80.5283 76.4092C80.9482 76.4092 81.334 76.3335 81.6855 76.1821C82.042 76.0259 82.3398 75.8013 82.5791 75.5083C82.8184 75.2153 82.9795 74.8662 83.0625 74.4609H84.9814C84.8838 75.1445 84.6372 75.7646 84.2417 76.3213C83.8511 76.8779 83.3335 77.3174 82.689 77.6396C82.0444 77.9619 81.3145 78.123 80.499 78.123C79.5664 78.123 78.7314 77.9058 77.9941 77.4712C77.2617 77.0317 76.688 76.4019 76.2729 75.5815C75.8579 74.7563 75.6504 73.7871 75.6504 72.6738C75.6504 71.5557 75.8579 70.5864 76.2729 69.7661C76.6929 68.9458 77.269 68.3184 78.0015 67.8838C78.7388 67.4443 79.5713 67.2246 80.499 67.2246C81.2803 67.2246 81.9907 67.3735 82.6304 67.6714C83.27 67.9644 83.7949 68.3916 84.2051 68.9531C84.6152 69.5098 84.874 70.1738 84.9814 70.9453H83.0625ZM90.98 75.2373H88.6948L88.248 77.9766H86.7979L87.2446 75.2373H85.7578L85.9922 73.8018H87.4863L87.8525 71.5459H86.373L86.6074 70.1104H88.0942L88.541 67.3711H89.9912L89.5444 70.1104H91.8296L92.2764 67.3711H93.7119L93.2651 70.1104H94.7666L94.5176 71.5459H93.0234L92.6572 73.8018H94.1514L93.917 75.2373H92.4155L91.9688 77.9766H90.5332L90.98 75.2373ZM91.2217 73.8018L91.5879 71.5459H89.3027L88.9365 73.8018H91.2217Z" fill="#898989"/>
<defs>
<clipPath id="clip0_62_65990">
<rect width="42.226" height="42.226" fill="white" transform="translate(64.4316 15.5664)"/>
</clipPath>
</defs>
</svg>
