<svg width="171" height="91" viewBox="0 0 171 91" fill="none" xmlns="http://www.w3.org/2000/svg">
<rect x="1.05249" y="0.946048" width="168.989" height="88.9888" rx="19.4944" fill="white"/>
<rect x="1.05249" y="0.946048" width="168.989" height="88.9888" rx="19.4944" stroke="#EAEAEA" stroke-width="1.01124"/>
<path d="M82.8462 18.4258V24.0123C82.8462 25.0424 82.0076 25.8811 80.9767 25.8811H75.3926L82.8462 18.4258Z" fill="#3461FF"/>
<path d="M92.7961 33.2529H68.7735C67.8808 33.2529 67.1543 33.9795 67.1543 34.8737V44.3295C67.1543 45.2221 67.8808 45.9487 68.7735 45.9487H92.7961C93.6887 45.9487 94.4153 45.2221 94.4153 44.3295V34.8737C94.4153 33.9795 93.6887 33.2529 92.7961 33.2529ZM81.29 36.7073L78.1408 43.0065C78.0435 43.2004 77.8455 43.3231 77.6278 43.3231C77.411 43.3231 77.213 43.2004 77.1157 43.0065L73.9665 36.7073C73.8249 36.4242 73.9395 36.0797 74.2226 35.9382C74.5057 35.7967 74.8493 35.912 74.9908 36.1943L77.6278 41.4691L80.2657 36.1943C80.4072 35.912 80.7508 35.7967 81.0339 35.9382C81.317 36.0797 81.4316 36.4242 81.29 36.7073ZM85.5135 43.3231H82.3872C82.0714 43.3231 81.8145 43.0662 81.8145 42.7496V36.4512C81.8145 36.1346 82.0714 35.8777 82.3872 35.8777H84.899C86.0829 35.8777 87.0468 36.8415 87.0468 38.0254C87.0468 38.5147 86.8823 38.9655 86.6058 39.3271C87.2374 39.7018 87.6612 40.3899 87.6612 41.1754C87.6612 42.3593 86.6982 43.3231 85.5135 43.3231Z" fill="#3461FF"/>
<path d="M85.9043 38.0278C85.9043 38.5809 85.4543 39.0301 84.902 39.0301H82.9629V37.0264H84.902C85.4543 37.0264 85.9043 37.4756 85.9043 38.0278Z" fill="#3461FF"/>
<path d="M86.5187 41.1781C86.5187 41.7303 86.0687 42.1795 85.5164 42.1795H82.9629V40.1758H85.5164C86.0687 40.1758 86.5187 40.6258 86.5187 41.1781Z" fill="#3461FF"/>
<path d="M103.94 22.9464V53.8736C103.94 54.9037 103.101 55.7407 102.07 55.7407H79.9145C78.8836 55.7407 78.0449 54.9037 78.0449 53.8736V53.4244H98.6075C100.268 53.4244 101.62 52.0712 101.62 50.4086V21.0801H102.07C103.101 21.0801 103.94 21.9171 103.94 22.9464Z" fill="#3461FF"/>
<path d="M100.476 19.4859V50.4107C100.476 51.4416 99.6383 52.2803 98.6091 52.2803H76.4511C75.421 52.2803 74.584 51.4416 74.584 50.4107V47.0971H92.7992C94.3234 47.0971 95.5638 45.8567 95.5638 44.3325V34.8767C95.5638 33.3508 94.3234 32.1096 92.7992 32.1096H74.584V27.0287H80.9781C82.6406 27.0287 83.9931 25.6763 83.9931 24.0137V17.6172H98.6091C99.6383 17.6172 100.476 18.4558 100.476 19.4859Z" fill="#3461FF"/>
<path d="M80.1221 75.7354H80.2393L83.0078 67.3711H85.1025L81.3525 77.9766H79.0088L75.2734 67.3711H77.3682L80.1221 75.7354ZM86.3623 67.3711H90.4199C91.167 67.3711 91.7969 67.4883 92.3096 67.7227C92.8271 67.957 93.2153 68.2817 93.4741 68.6968C93.7329 69.1118 93.8623 69.5879 93.8623 70.125C93.8623 70.7354 93.6914 71.231 93.3496 71.6118C93.0078 71.9927 92.5586 72.249 92.002 72.3809V72.4834C92.3877 72.5029 92.7539 72.6201 93.1006 72.835C93.4521 73.0498 93.7354 73.3525 93.9502 73.7432C94.165 74.1289 94.2725 74.5781 94.2725 75.0908C94.2725 75.6523 94.1357 76.1504 93.8623 76.585C93.5938 77.0195 93.1885 77.3613 92.6465 77.6104C92.1045 77.8545 91.4404 77.9766 90.6543 77.9766H86.3623V67.3711ZM90.3613 76.3799C91.0303 76.3799 91.5259 76.2505 91.8481 75.9917C92.1753 75.7329 92.3389 75.3838 92.3389 74.9443C92.3389 74.627 92.2583 74.3413 92.0972 74.0874C91.9409 73.8286 91.7163 73.626 91.4233 73.4795C91.1304 73.333 90.791 73.2598 90.4053 73.2598H88.2666V76.3799H90.3613ZM90.1855 71.8828C90.5225 71.8828 90.8252 71.8218 91.0938 71.6997C91.3623 71.5728 91.5723 71.3945 91.7236 71.165C91.8799 70.9355 91.958 70.667 91.958 70.3594C91.958 69.9346 91.8091 69.5952 91.5112 69.3413C91.2134 69.0825 90.7861 68.9531 90.2295 68.9531H88.2666V71.8828H90.1855Z" fill="#898989"/>
</svg>
