<svg width="171" height="91" viewBox="0 0 171 91" fill="none" xmlns="http://www.w3.org/2000/svg">
<rect x="1.05249" y="0.946048" width="168.989" height="88.9888" rx="19.4944" fill="white"/>
<rect x="1.05249" y="0.946048" width="168.989" height="88.9888" rx="19.4944" stroke="#EAEAEA" stroke-width="1.01124"/>
<path d="M54.5098 77.9766L58.2451 67.3711H60.5889L64.3389 77.9766H62.3027L61.4165 75.3545H57.4248L56.5459 77.9766H54.5098ZM60.9038 73.8164L59.4609 69.5391H59.373L57.9375 73.8164H60.9038ZM63.8555 67.3711H65.9062L67.8252 75.1787H67.9277L69.9639 67.3711H71.8389L73.8896 75.1934H73.9775L75.8965 67.3711H77.9473L74.959 77.9766H73.0693L70.9453 70.5205H70.8721L68.7334 77.9766H66.8438L63.8555 67.3711ZM88.0547 72.6738C88.0547 73.792 87.8447 74.7612 87.4248 75.5815C87.0049 76.4019 86.4263 77.0317 85.689 77.4712C84.9565 77.9058 84.124 78.123 83.1914 78.123C82.2588 78.123 81.4238 77.9058 80.6865 77.4712C79.9541 77.0317 79.3779 76.4019 78.958 75.5815C78.5381 74.7563 78.3281 73.7871 78.3281 72.6738C78.3281 71.5557 78.5381 70.5864 78.958 69.7661C79.3779 68.9458 79.9541 68.3184 80.6865 67.8838C81.4238 67.4443 82.2588 67.2246 83.1914 67.2246C84.124 67.2246 84.9565 67.4443 85.689 67.8838C86.4263 68.3184 87.0049 68.9458 87.4248 69.7661C87.8447 70.5864 88.0547 71.5557 88.0547 72.6738ZM86.1357 72.6738C86.1357 71.8828 86.0112 71.209 85.7622 70.6523C85.5181 70.0908 85.1738 69.666 84.7295 69.3779C84.2852 69.085 83.7725 68.9385 83.1914 68.9385C82.6104 68.9385 82.0977 69.085 81.6533 69.3779C81.209 69.666 80.8623 70.0908 80.6133 70.6523C80.3691 71.209 80.2471 71.8828 80.2471 72.6738C80.2471 73.4648 80.3691 74.1411 80.6133 74.7026C80.8623 75.2593 81.209 75.6841 81.6533 75.9771C82.0977 76.2651 82.6104 76.4092 83.1914 76.4092C83.7725 76.4092 84.2852 76.2651 84.7295 75.9771C85.1738 75.6841 85.5181 75.2593 85.7622 74.7026C86.0112 74.1411 86.1357 73.4648 86.1357 72.6738ZM89.7539 67.3711H93.7383C94.5342 67.3711 95.2104 67.5127 95.7671 67.7959C96.3286 68.0742 96.7534 68.4673 97.0415 68.9751C97.3296 69.4829 97.4736 70.0762 97.4736 70.7549C97.4736 71.4775 97.3101 72.0977 96.9829 72.6152C96.6606 73.1328 96.187 73.5186 95.562 73.7725L97.8545 77.9766H95.7305L93.6504 74.0947H91.6582V77.9766H89.7539V67.3711ZM93.4453 72.498C94.832 72.498 95.5254 71.917 95.5254 70.7549C95.5254 70.1787 95.3545 69.7368 95.0127 69.4292C94.6709 69.1216 94.1484 68.9678 93.4453 68.9678H91.6582V72.498H93.4453ZM99.1143 67.3711H101.019V72.249H101.165L105.311 67.3711H107.64L103.538 72.1318L107.684 77.9766H105.384L102.205 73.4209L101.019 74.8125V77.9766H99.1143V67.3711ZM114.568 70.2861C114.524 69.8369 114.322 69.4854 113.96 69.2314C113.604 68.9775 113.138 68.8506 112.562 68.8506C112.171 68.8506 111.829 68.9092 111.536 69.0264C111.243 69.1436 111.019 69.3071 110.862 69.5171C110.706 69.7271 110.628 69.9639 110.628 70.2275C110.628 70.6328 110.796 70.9478 111.133 71.1724C111.47 71.3921 111.907 71.5654 112.444 71.6924L113.44 71.9561C114.354 72.166 115.098 72.5151 115.674 73.0034C116.255 73.4868 116.546 74.1533 116.546 75.0029C116.546 75.623 116.387 76.1699 116.07 76.6436C115.752 77.1172 115.291 77.4858 114.686 77.7495C114.085 78.0083 113.367 78.1377 112.532 78.1377C111.707 78.1377 110.992 78.0107 110.386 77.7568C109.781 77.498 109.307 77.1245 108.965 76.6362C108.628 76.1431 108.445 75.5498 108.416 74.8564H110.291C110.335 75.3936 110.56 75.8037 110.965 76.0869C111.375 76.3701 111.893 76.5117 112.518 76.5117C112.933 76.5117 113.301 76.4482 113.624 76.3213C113.946 76.1943 114.195 76.0161 114.371 75.7866C114.551 75.5522 114.642 75.2861 114.642 74.9883C114.642 74.6025 114.48 74.3022 114.158 74.0874C113.841 73.8677 113.362 73.6748 112.723 73.5088L111.521 73.2012C109.637 72.708 108.694 71.7559 108.694 70.3447C108.694 69.7295 108.863 69.1875 109.2 68.7188C109.537 68.2451 110 67.8789 110.591 67.6201C111.187 67.3564 111.854 67.2246 112.591 67.2246C113.333 67.2246 113.99 67.3564 114.561 67.6201C115.137 67.8789 115.584 68.2402 115.901 68.7041C116.224 69.168 116.39 69.6953 116.399 70.2861H114.568Z" fill="#898989"/>
<g clip-path="url(#clip0_62_65978)">
<path fill-rule="evenodd" clip-rule="evenodd" d="M71.7529 18.2878C71.7529 18.3349 71.593 18.3564 71.3706 18.3393C71.2878 18.3329 71.217 18.4092 71.2311 18.4896C71.2394 18.5364 71.2159 18.5487 71.1111 18.5529C71.0394 18.5557 70.9748 18.5759 70.9676 18.5976C70.958 18.6264 70.9427 18.6273 70.9111 18.601C70.8834 18.5781 70.8606 18.5768 70.8478 18.5974C70.8368 18.6151 70.843 18.6391 70.8616 18.6506C70.9189 18.686 70.8087 18.7663 70.7029 18.7663C70.6459 18.7663 70.6059 18.7834 70.6067 18.8075C70.6112 18.9267 70.5929 18.9643 70.5308 18.9643C70.4037 18.9643 70.2349 19.0564 70.2349 19.1257C70.2349 19.1618 70.2198 19.2007 70.2013 19.2121C70.1829 19.2235 70.1751 19.2447 70.1841 19.2591C70.193 19.2737 70.1709 19.312 70.1351 19.3445C70.0992 19.3769 70.0699 19.3908 70.0699 19.3753C70.0699 19.3598 70.0521 19.3649 70.0303 19.3867C70.0085 19.4085 69.9632 19.4263 69.9296 19.4263C69.865 19.4263 69.7729 19.6003 69.7729 19.7222C69.7729 19.7843 69.7353 19.8026 69.6161 19.7981C69.591 19.7972 69.5749 19.8402 69.5749 19.9084C69.5749 19.9733 69.5576 20.0224 69.5336 20.0253C69.5109 20.028 69.4717 20.0318 69.4465 20.0337C69.3978 20.0374 69.3671 20.1635 69.3705 20.3453C69.3723 20.4413 69.3636 20.4535 69.3044 20.4381C69.2237 20.4169 69.1436 20.4861 69.1511 20.5707C69.1685 20.7699 69.143 20.9443 69.0964 20.9443C69.0525 20.9443 69.0469 21.9472 69.0469 29.7718C69.0469 37.463 69.0531 38.5993 69.0947 38.5993C69.121 38.5993 69.5618 38.1798 70.074 37.667C70.5863 37.1543 71.0214 36.7347 71.0409 36.7346C71.062 36.7346 71.0839 36.8484 71.0949 37.0151C71.1127 37.285 71.1137 37.2797 71.1196 36.8802C71.1231 36.6517 71.137 36.2582 71.1506 36.0057L71.1754 35.5468L71.193 36.1243C71.2028 36.4419 71.2139 35.6271 71.2178 34.3135C71.2241 32.1948 71.2305 31.9298 71.2744 31.9663C71.3183 32.0027 71.3239 31.4755 71.3239 27.254C71.3239 23.4807 71.3324 22.4979 71.3651 22.487C71.4086 22.4725 71.4127 22.4305 71.419 21.9456C71.4226 21.6606 71.4266 21.6445 71.4889 21.6607C71.5272 21.6708 71.5549 21.6617 71.5549 21.6392C71.5549 21.6178 71.5667 21.6077 71.581 21.6166C71.6096 21.6341 71.6253 21.5571 71.6327 21.365C71.637 21.2494 71.6441 21.2413 71.7405 21.2413C71.8289 21.2413 71.8436 21.2293 71.8436 21.1574C71.8436 21.0525 71.8611 21.035 71.966 21.035C72.0379 21.035 72.0499 21.0203 72.0499 20.9319C72.0499 20.8355 72.058 20.8285 72.1736 20.8241C72.3657 20.8167 72.4427 20.801 72.4252 20.7724C72.4163 20.7581 72.4264 20.7463 72.4478 20.7463C72.4703 20.7463 72.4794 20.7186 72.4693 20.6803C72.4531 20.618 72.4683 20.6143 72.744 20.6143C72.9121 20.6143 73.0451 20.5996 73.0574 20.5797C73.0721 20.5559 73.0928 20.5567 73.1237 20.5824C73.1724 20.6228 73.3039 20.5963 73.3039 20.5461C73.3039 20.5272 75.1403 20.5153 78.0599 20.5153C82.2838 20.5153 82.8113 20.5098 82.7749 20.4658C82.7384 20.4219 83.0034 20.4155 85.1221 20.4092C86.4356 20.4053 87.2505 20.3942 86.9329 20.3844L86.3554 20.3668L86.8143 20.342C87.0668 20.3284 87.4603 20.3145 87.6888 20.311C88.0883 20.3051 88.0936 20.3041 87.8237 20.2863C87.657 20.2753 87.5432 20.2534 87.5432 20.2323C87.5433 20.2128 87.9629 19.7777 88.4756 19.2654C88.9884 18.7532 89.4079 18.3124 89.4079 18.2861C89.4079 18.2445 88.2716 18.2383 80.5804 18.2383C72.7557 18.2383 71.7529 18.2439 71.7529 18.2878ZM101.849 20.445C101.849 20.4634 101.864 20.4877 101.882 20.4991C101.901 20.5105 101.906 20.5374 101.894 20.5588C101.877 20.5885 101.882 20.5885 101.915 20.5587C101.949 20.527 101.947 20.5093 101.903 20.4655C101.873 20.4358 101.849 20.4266 101.849 20.445ZM80.6959 27.9238C80.7185 27.951 80.7495 27.9733 80.7648 27.9733C80.7803 27.9733 80.7842 27.951 80.7738 27.9238C80.7634 27.8966 80.7323 27.8743 80.7048 27.8743C80.6641 27.8743 80.6625 27.8835 80.6959 27.9238ZM81.098 27.8914C81.1198 27.9131 88.1269 27.9122 88.1487 27.8905C88.1576 27.8815 86.5709 27.8743 84.6229 27.8743C82.6748 27.8743 81.0886 27.882 81.098 27.8914ZM80.4023 27.9526C80.3816 27.9775 80.3735 28.0208 80.3842 28.0487C80.3949 28.0767 80.3841 28.1061 80.36 28.1141C80.336 28.1221 80.351 28.1228 80.3934 28.1157C80.4468 28.1066 80.463 28.1147 80.4461 28.1421C80.4306 28.1672 80.4358 28.1728 80.4603 28.1576C80.4815 28.1445 80.4914 28.1216 80.4823 28.1068C80.4731 28.0919 80.4876 28.0616 80.5144 28.0393C80.5752 27.9889 80.5475 27.936 80.4749 27.9638C80.4389 27.9777 80.429 27.9717 80.4449 27.9459C80.4778 27.8926 80.4482 27.8973 80.4023 27.9526ZM80.1877 28.2125C80.1798 28.2534 80.1737 28.3239 80.1741 28.3693C80.1759 28.5149 80.1103 28.7727 80.0641 28.8019C80.0329 28.8217 80.0315 28.8305 80.0595 28.8308C80.1122 28.8314 80.1679 28.7244 80.1679 28.6221C80.1679 28.5613 80.193 28.532 80.2669 28.5062C80.3599 28.4738 80.4053 28.4023 80.3329 28.4023C80.3147 28.4023 80.2999 28.4171 80.2999 28.4353C80.2999 28.4534 80.2813 28.4683 80.2586 28.4683C80.212 28.4682 80.2009 28.2463 80.2441 28.1795C80.2594 28.1559 80.2562 28.1383 80.2364 28.1383C80.2175 28.1383 80.1956 28.1717 80.1877 28.2125ZM80.2662 28.2216C80.2062 28.2939 80.2518 28.3204 80.3575 28.2747L80.4484 28.2355L80.3659 28.3016C80.2842 28.3672 80.284 28.3678 80.3565 28.3685C80.474 28.3697 80.5141 28.2553 80.4125 28.209C80.3094 28.162 80.3161 28.1615 80.2662 28.2216ZM89.7719 28.3214C89.7707 28.3619 89.8381 28.4353 89.8765 28.4353C89.891 28.4353 89.9029 28.4195 89.9029 28.4003C89.9029 28.3811 89.8889 28.374 89.8719 28.3845C89.8549 28.395 89.8257 28.3774 89.8069 28.3452C89.7882 28.3131 89.7724 28.3024 89.7719 28.3214ZM90.2231 28.8446C90.2557 28.8881 90.2873 28.9191 90.2933 28.9134C90.3139 28.8937 90.2306 28.7653 90.1972 28.7653C90.1788 28.7653 90.1905 28.8009 90.2231 28.8446ZM90.1118 28.8808C90.1118 28.908 90.1192 28.923 90.1281 28.914C90.137 28.9051 90.1666 28.9163 90.194 28.9388C90.2373 28.9745 90.2386 28.9703 90.2041 28.9055C90.1588 28.8206 90.1118 28.8079 90.1118 28.8808ZM79.9369 29.054C79.9369 29.0698 79.9584 29.1115 79.9847 29.1468C80.0309 29.2086 80.0319 29.2081 80.0138 29.136C79.995 29.0615 79.9369 28.9996 79.9369 29.054ZM90.3782 29.1664C90.3636 29.19 90.3692 29.1955 90.3928 29.1809C90.4137 29.168 90.4309 29.1731 90.4309 29.1923C90.4309 29.2115 90.4542 29.2273 90.4828 29.2273C90.5288 29.2273 90.5291 29.2218 90.4851 29.1778C90.4256 29.1183 90.409 29.1165 90.3782 29.1664ZM79.7527 29.7238C79.7527 29.8235 79.767 29.8763 79.7939 29.8763C79.8165 29.8763 79.8246 29.8602 79.8119 29.8405C79.7722 29.779 79.7829 29.6413 79.8301 29.6056C79.8665 29.5781 79.8634 29.5714 79.814 29.5714C79.7632 29.5714 79.7527 29.5974 79.7527 29.7238ZM79.7508 30.2833C79.7569 30.3287 79.7716 30.3621 79.7834 30.3575C79.8193 30.3438 79.8188 30.3353 79.7786 30.2668C79.7421 30.2047 79.7404 30.2057 79.7508 30.2833ZM81.8261 30.374C82.8198 30.3789 84.4459 30.3789 85.4396 30.374C86.4333 30.3692 85.6203 30.3652 83.6329 30.3652C81.6455 30.3652 80.8324 30.3692 81.8261 30.374ZM86.1855 32.353C86.181 32.4262 86.1837 32.4275 86.2257 32.3722C86.2824 32.2974 86.2838 32.2743 86.2316 32.2743C86.2089 32.2743 86.1881 32.3097 86.1855 32.353ZM84.998 32.4872C85.0102 32.507 84.9941 32.5378 84.9621 32.5557C84.9301 32.5736 84.9125 32.597 84.9231 32.6075C84.9337 32.618 84.9679 32.5984 84.9992 32.5637C85.042 32.5165 85.0462 32.4946 85.0159 32.476C84.991 32.4605 84.9841 32.4648 84.998 32.4872ZM83.7328 32.7407C83.7107 32.7673 83.7003 32.8081 83.7097 32.8315C83.7206 32.8587 83.7276 32.8538 83.7292 32.8177C83.7307 32.7868 83.7579 32.7464 83.7896 32.7279C83.8214 32.7094 83.8306 32.6938 83.8102 32.6933C83.7897 32.6927 83.7549 32.7141 83.7328 32.7407ZM83.3111 32.8801C83.3429 32.8883 83.3949 32.8883 83.4266 32.8801C83.4584 32.8717 83.4324 32.865 83.3689 32.865C83.3054 32.865 83.2794 32.8717 83.3111 32.8801ZM80.2964 33.3231C80.2491 33.3404 80.1932 33.3949 80.1722 33.4442L80.1341 33.5338L80.21 33.443C80.2924 33.3445 80.361 33.329 80.4293 33.3935C80.4653 33.4276 80.4663 33.4218 80.4348 33.3605C80.4137 33.3197 80.3933 33.2874 80.3895 33.2889C80.3856 33.2903 80.3437 33.3057 80.2964 33.3231ZM80.3052 33.4262C80.2518 33.4796 80.257 33.5335 80.3112 33.4886C80.3355 33.4684 80.3652 33.4616 80.3772 33.4736C80.3891 33.4855 80.3989 33.4788 80.3989 33.4587C80.3989 33.4018 80.3475 33.3839 80.3052 33.4262ZM79.5761 33.5462C79.547 33.6006 79.5515 33.6073 79.6075 33.5927C79.6774 33.5744 79.6928 33.5335 79.6415 33.5018C79.6243 33.4911 79.5948 33.5111 79.5761 33.5462ZM79.1268 33.7443C79.1186 33.7526 79.1119 33.7716 79.1119 33.7868C79.1119 33.8295 79.1987 33.8191 79.238 33.7719C79.2719 33.731 79.1663 33.7048 79.1268 33.7443ZM78.928 33.983C78.928 34.027 78.9385 34.0328 78.9705 34.0064C78.9938 33.987 79.0129 33.9606 79.0129 33.9478C79.0129 33.9348 78.9938 33.9243 78.9705 33.9243C78.9471 33.9243 78.928 33.9507 78.928 33.983ZM78.7393 34.1774C78.7298 34.2137 78.7355 34.235 78.7519 34.2249C78.7684 34.2147 78.7819 34.2208 78.7819 34.2386C78.7819 34.2563 78.7667 34.2783 78.748 34.2876C78.7295 34.2968 78.7332 34.3001 78.7563 34.2949C78.7795 34.2897 78.7947 34.2529 78.7902 34.213C78.7848 34.1653 78.795 34.1485 78.82 34.164C78.8436 34.1785 78.8491 34.173 78.8345 34.1494C78.7989 34.0917 78.7586 34.1036 78.7393 34.1774ZM87.7298 34.8686C87.7371 34.8904 87.7538 34.9072 87.767 34.9058C87.8064 34.9017 87.7988 34.8564 87.7562 34.8422C87.7344 34.835 87.7226 34.8469 87.7298 34.8686ZM85.6211 35.1571C85.6529 35.1653 85.7049 35.1653 85.7366 35.1571C85.7684 35.1487 85.7424 35.142 85.6789 35.142C85.6154 35.142 85.5894 35.1487 85.6211 35.1571ZM85.3183 35.2798C85.2919 35.3117 85.2906 35.3332 85.3143 35.3478C85.3333 35.3596 85.3489 35.3452 85.3489 35.3158C85.3489 35.2839 85.3641 35.2718 85.387 35.2859C85.4106 35.3005 85.4161 35.295 85.4015 35.2714C85.3715 35.2228 85.3651 35.2235 85.3183 35.2798ZM84.1988 35.4956C84.213 35.5382 84.2583 35.5458 84.2624 35.5064C84.2638 35.4932 84.247 35.4765 84.2252 35.4692C84.2034 35.462 84.1916 35.4739 84.1988 35.4956ZM83.1223 35.6283C83.0897 35.6643 83.0524 35.6871 83.0393 35.679C83.0263 35.671 82.9874 35.6856 82.953 35.7116C82.8933 35.7566 82.8939 35.7581 82.9673 35.7449C83.1105 35.7191 83.1647 35.6929 83.1851 35.6398C83.2158 35.56 83.1886 35.555 83.1223 35.6283ZM81.8347 35.86C81.7827 35.9142 81.7499 35.9683 81.7618 35.9802C81.7737 35.992 81.7926 35.9774 81.804 35.9477C81.8155 35.9179 81.8404 35.9033 81.8595 35.9151C81.8788 35.9271 81.8844 35.9208 81.8719 35.9006C81.8598 35.881 81.8649 35.8555 81.8833 35.8441C81.9141 35.8251 81.9316 35.8698 81.9199 35.937C81.9174 35.9519 81.9305 35.9547 81.9491 35.9432C81.9723 35.9289 81.9722 35.902 81.9488 35.8583C81.9282 35.8198 81.927 35.7943 81.946 35.7943C81.9632 35.7943 81.9849 35.8128 81.994 35.8355C82.004 35.8602 82.0118 35.8535 82.0132 35.819C82.0172 35.7319 81.9405 35.7495 81.8347 35.86ZM78.5029 36.5838C78.4907 36.6035 78.5047 36.6193 78.5344 36.6193C78.5637 36.6193 78.5797 36.6325 78.5697 36.6486C78.5597 36.6647 78.5724 36.695 78.5978 36.7161C78.6794 36.7839 78.6839 36.6978 78.6029 36.6216C78.5529 36.5746 78.517 36.561 78.5029 36.5838ZM81.6092 37.1225C81.6236 37.1452 81.6356 37.1772 81.6359 37.1936C81.6361 37.2101 81.6639 37.2276 81.6976 37.2325C81.7521 37.2405 81.7506 37.2327 81.6836 37.1614C81.6022 37.0747 81.5672 37.0564 81.6092 37.1225ZM78.7159 37.4043C78.7159 37.4504 78.8817 37.6195 78.9045 37.5967C78.9155 37.5857 78.8989 37.5484 78.8675 37.5137C78.8341 37.4768 78.8239 37.4426 78.8429 37.4308C78.8607 37.4199 78.8829 37.4262 78.8921 37.4449C78.9013 37.4636 78.9052 37.46 78.9006 37.4369C78.8911 37.3888 78.7159 37.3579 78.7159 37.4043ZM81.9352 37.9034C81.923 37.9231 81.925 37.9395 81.9396 37.9398C81.9543 37.94 81.9441 37.9547 81.9169 37.9723C81.8897 37.9899 81.8822 38.0043 81.9004 38.0043C81.9745 38.0043 82.0326 37.9428 81.9946 37.9048C81.9679 37.8781 81.951 37.8777 81.9352 37.9034ZM79.3104 39.61C79.3114 39.6667 79.3675 39.7286 79.3879 39.6955C79.3991 39.6775 79.386 39.6444 79.359 39.622C79.332 39.5995 79.3101 39.5941 79.3104 39.61ZM79.5756 40.1567C79.5977 40.2056 79.6382 40.2542 79.6655 40.2647C79.7513 40.2976 79.7418 40.2645 79.6368 40.1644L79.5354 40.0678L79.5756 40.1567ZM69.1622 48.9285C69.1509 48.9468 69.1649 48.985 69.1932 49.0134C69.2401 49.0602 69.2449 49.0602 69.2449 49.0132C69.2449 48.9846 69.2291 48.9613 69.2099 48.9613C69.1907 48.9613 69.1842 48.9464 69.1954 48.9283C69.2066 48.9101 69.2083 48.8953 69.1993 48.8953C69.1902 48.8953 69.1735 48.9102 69.1622 48.9285ZM71.2741 51.0942C71.3179 51.138 71.3356 51.1402 71.3673 51.106C71.3971 51.0737 71.3971 51.0688 71.3674 51.0855C71.346 51.0975 71.3191 51.0923 71.3077 51.0739C71.2963 51.0554 71.272 51.0403 71.2536 51.0403C71.2352 51.0403 71.2444 51.0645 71.2741 51.0942Z" fill="#3461FF"/>
<path fill-rule="evenodd" clip-rule="evenodd" d="M89.4079 18.2861C89.4079 18.3124 88.9884 18.7532 88.4756 19.2654C87.9629 19.7777 87.5433 20.2128 87.5432 20.2323C87.5432 20.2534 87.657 20.2753 87.8237 20.2863C88.0632 20.3021 88.027 20.3063 87.5764 20.3151C84.7878 20.3694 87.2827 20.4164 92.9697 20.4169C97.5412 20.4171 97.8392 20.4206 97.9027 20.4744C97.9669 20.529 97.9681 20.529 97.9255 20.474C97.8851 20.4219 97.8906 20.4163 97.9819 20.4163C98.0872 20.4163 98.1458 20.4624 98.0869 20.4988C98.0488 20.5224 98.0738 20.5813 98.1219 20.5813C98.1389 20.5813 98.1529 20.5599 98.1529 20.5338C98.1529 20.5076 98.1663 20.4778 98.1828 20.4677C98.1992 20.4575 98.2049 20.4789 98.1954 20.5152C98.186 20.5516 98.1935 20.5813 98.2124 20.5813C98.2311 20.5813 98.2724 20.5913 98.3041 20.6034C98.3434 20.6185 98.3541 20.6132 98.3378 20.5869C98.3247 20.5657 98.3288 20.5483 98.347 20.5483C98.3652 20.5483 98.3892 20.5631 98.4004 20.5813C98.4116 20.5994 98.471 20.6143 98.5324 20.6143C98.5938 20.6143 98.6533 20.6294 98.6647 20.6479C98.6761 20.6663 98.703 20.6711 98.7244 20.6587C98.7458 20.6461 98.7364 20.6668 98.7035 20.7044C98.6699 20.7427 98.6574 20.7813 98.675 20.7922C98.6923 20.8028 98.7248 20.7894 98.7472 20.7625C98.7696 20.7354 98.8047 20.7135 98.8252 20.7138C98.8456 20.714 98.8401 20.7287 98.8129 20.7463C98.7576 20.782 98.7583 20.7823 98.8922 20.7979C99.0482 20.8161 99.0832 20.8392 99.061 20.9091C99.0469 20.9536 99.0614 20.9844 99.1083 21.0095C99.1454 21.0293 99.1759 21.0359 99.1759 21.0239C99.1759 21.0119 99.1985 21.021 99.2262 21.0439C99.2538 21.0669 99.2692 21.0929 99.2604 21.1019C99.2196 21.1426 99.3151 21.2434 99.376 21.2241C99.446 21.2019 99.4691 21.237 99.4872 21.393C99.5028 21.5269 99.5032 21.5276 99.5389 21.4723C99.5564 21.4451 99.5711 21.4395 99.5714 21.46C99.5716 21.4804 99.5498 21.5155 99.5227 21.538C99.4957 21.5604 99.4824 21.5929 99.493 21.6101C99.5039 21.6278 99.5425 21.6153 99.5808 21.5817C99.6184 21.5488 99.6394 21.5387 99.6274 21.5593C99.6154 21.5799 99.6265 21.6142 99.6521 21.6354C99.6793 21.6579 99.6935 21.7143 99.6863 21.7711C99.6787 21.8315 99.689 21.8684 99.7137 21.8688C99.7419 21.8691 99.7409 21.8772 99.7102 21.8967C99.6446 21.9382 99.6962 22.109 99.7686 22.09C99.7996 22.082 99.8256 22.0919 99.8265 22.1121C99.8273 22.1323 99.838 22.1729 99.8503 22.2022C99.8638 22.2343 99.8545 22.2627 99.8273 22.2732C99.7975 22.2846 99.7827 22.2673 99.7841 22.223C99.7854 22.1859 99.7678 22.149 99.7451 22.1411C99.7224 22.1333 99.7039 22.1437 99.7039 22.1645C99.7039 22.1852 99.7186 22.1931 99.7365 22.182C99.7558 22.1701 99.7604 22.1846 99.7478 22.2173C99.734 22.2535 99.7525 22.2922 99.8011 22.329C99.8918 22.3974 99.8864 22.3103 99.9035 23.9803L99.9169 25.2838L99.9349 24.2773L99.9529 23.2708L99.9638 24.2773C99.9788 25.639 100.018 26.1495 100.036 25.2013C100.045 24.6843 100.051 24.617 100.059 24.9159L100.069 25.307L101.011 24.3632C101.528 23.844 101.973 23.4193 102 23.4193C102.04 23.4193 102.047 23.2458 102.047 22.2643C102.047 21.4649 102.036 21.1093 102.011 21.1093C101.948 21.1093 101.886 21.0235 101.916 20.9755C101.933 20.9482 101.928 20.9105 101.905 20.8813C101.874 20.8431 101.874 20.8379 101.907 20.8575C101.936 20.8751 101.944 20.8604 101.935 20.806C101.928 20.7641 101.906 20.7335 101.886 20.738C101.84 20.7483 101.837 20.6914 101.882 20.6635C101.937 20.63 101.888 20.5864 101.806 20.5954C101.753 20.6012 101.731 20.5865 101.731 20.5454C101.731 20.5134 101.743 20.4943 101.757 20.5032C101.771 20.512 101.783 20.5047 101.783 20.487C101.783 20.4692 101.765 20.4489 101.743 20.4416C101.722 20.4343 101.703 20.3774 101.702 20.3151C101.701 20.2291 101.687 20.2029 101.644 20.2062C101.613 20.2085 101.591 20.1937 101.594 20.1732C101.598 20.1526 101.587 20.1383 101.568 20.1412C101.55 20.1442 101.532 20.0949 101.527 20.0315C101.515 19.8713 101.46 19.775 101.406 19.8199C101.355 19.8626 101.321 19.833 101.321 19.7451C101.321 19.6687 101.036 19.3817 100.989 19.4108C100.972 19.4214 100.958 19.4136 100.958 19.3933C100.958 19.373 100.943 19.3658 100.924 19.3773C100.905 19.3887 100.894 19.3859 100.898 19.371C100.915 19.3048 100.85 19.1915 100.805 19.209C100.776 19.2199 100.765 19.2134 100.778 19.1928C100.804 19.1501 100.701 19.0303 100.637 19.0303C100.611 19.0303 100.601 19.0141 100.615 18.9922C100.627 18.9712 100.625 18.9621 100.608 18.9718C100.544 19.0101 100.42 18.9338 100.462 18.8823C100.506 18.83 100.446 18.7919 100.257 18.7515C100.207 18.7409 100.17 18.7212 100.174 18.708C100.179 18.6947 100.172 18.6838 100.159 18.6838C100.146 18.6838 100.117 18.6589 100.093 18.6284C100.07 18.598 100.006 18.5689 99.9514 18.5637C99.82 18.5512 99.7718 18.5123 99.7874 18.4312C99.7973 18.3799 99.7903 18.3726 99.7578 18.3996C99.7278 18.4245 99.7049 18.4241 99.6787 18.3979C99.6585 18.3777 99.5482 18.3569 99.4337 18.3517C99.3191 18.3465 99.2142 18.3412 99.2006 18.3398C99.187 18.3384 99.1759 18.315 99.1759 18.2878C99.1759 18.244 98.6112 18.2383 94.2919 18.2383C90.0463 18.2383 89.4079 18.2446 89.4079 18.2861ZM80.8356 27.8976C80.7945 27.9055 80.7694 27.9258 80.7799 27.9427C80.7903 27.9595 80.7839 27.9733 80.7658 27.9733C80.7476 27.9733 80.7236 27.9584 80.7124 27.9403C80.6798 27.8876 80.6301 27.9021 80.6272 27.965C80.6256 28.0032 80.6187 28.008 80.6073 27.9792C80.5908 27.9381 80.4823 28.0517 80.4816 28.1108C80.4815 28.1229 80.4678 28.1451 80.4513 28.1603C80.4339 28.1762 80.4312 28.1705 80.445 28.1465C80.4728 28.0983 80.4357 28.0935 80.3676 28.1365C80.3292 28.1608 80.3372 28.1747 80.4075 28.2067C80.5136 28.255 80.4774 28.3698 80.3565 28.3685C80.284 28.3678 80.2841 28.3672 80.3659 28.3003C80.4448 28.2357 80.4451 28.2345 80.3716 28.2706C80.3293 28.2914 80.2759 28.3011 80.2529 28.2923C80.2237 28.2811 80.2161 28.3016 80.2273 28.3607C80.2394 28.424 80.2327 28.4385 80.2005 28.4186C80.1722 28.4011 80.1657 28.4051 80.1812 28.4302C80.2101 28.4769 80.2999 28.4807 80.2999 28.4353C80.2999 28.4171 80.3147 28.4023 80.3329 28.4023C80.4053 28.4023 80.3599 28.4738 80.2669 28.5062C80.193 28.532 80.1679 28.5613 80.1679 28.6221C80.1679 28.7191 80.1131 28.8313 80.0657 28.8313C80.0472 28.8313 80.0405 28.8174 80.051 28.8006C80.0614 28.7837 80.0511 28.759 80.0282 28.7458C80.0052 28.7325 79.9976 28.734 80.0112 28.7491C80.0249 28.7642 80.0123 28.813 79.9831 28.8574C79.9511 28.9062 79.9466 28.9281 79.9717 28.9127C80.0022 28.8938 80.0081 28.9069 79.9937 28.9616C79.983 29.0027 79.9882 29.0756 80.0053 29.1236C80.0345 29.2057 80.0333 29.207 79.9865 29.1468C79.9492 29.0985 79.9369 29.0949 79.9369 29.1319C79.9369 29.159 79.9554 29.201 79.9781 29.2255C80.006 29.2556 80.0068 29.2628 79.9804 29.2481C79.9544 29.2335 79.9421 29.2566 79.9433 29.3175C79.9472 29.503 79.9362 29.5937 79.9118 29.5786C79.878 29.5578 79.7915 29.6281 79.7756 29.6894C79.7468 29.8002 79.7521 29.9728 79.7857 30.0174C79.8126 30.0533 79.8113 30.0589 79.7801 30.0402C79.7574 30.0265 79.7389 30.0311 79.7389 30.0503C79.7389 30.0695 79.7537 30.0853 79.7719 30.0853C79.79 30.0853 79.8049 30.101 79.8049 30.1203C79.8049 30.1395 79.7922 30.1473 79.7767 30.1378C79.7612 30.1281 79.7555 30.157 79.764 30.2018C79.7725 30.2466 79.7927 30.2833 79.8088 30.2833C79.8248 30.2833 79.8379 30.3065 79.8379 30.3348C79.8379 30.3631 79.8517 30.3777 79.8686 30.3672C79.8948 30.351 87.0686 30.3494 87.5953 30.3655C87.8209 30.3724 87.8446 30.386 87.836 30.5036C87.8323 30.5549 87.828 30.9262 87.8265 31.3288C87.824 32.0424 87.8221 32.0614 87.7546 32.0829C87.7165 32.0949 87.6689 32.0885 87.649 32.0686C87.6017 32.0213 87.5494 32.0216 87.5787 32.069C87.6129 32.1244 87.5227 32.1644 87.4506 32.1258C87.4025 32.1 87.3761 32.1046 87.3414 32.1445C87.3163 32.1734 87.3135 32.1823 87.3354 32.1642C87.3913 32.1178 87.4279 32.1233 87.4279 32.1781C87.4279 32.2037 87.4464 32.231 87.4691 32.2386C87.4918 32.2462 87.3248 32.2559 87.0979 32.2602C86.725 32.2674 86.4319 32.2791 86.3106 32.2917C86.2858 32.2942 86.274 32.3176 86.2842 32.3441C86.297 32.3777 86.2867 32.3859 86.2493 32.3715C86.2154 32.3585 86.2042 32.3643 86.2185 32.3874C86.257 32.4496 86.1969 32.4592 85.7248 32.4661C85.2502 32.473 85.1726 32.4822 85.2011 32.5284C85.2104 32.5435 85.2005 32.5665 85.1793 32.5796C85.1552 32.5945 85.1496 32.5892 85.1642 32.5654C85.1782 32.5428 85.1668 32.5273 85.1364 32.5273C85.0919 32.5273 85.0727 32.5605 85.0786 32.6274C85.0807 32.6509 85.0502 32.6529 84.4805 32.667C84.139 32.6753 83.9839 32.6912 83.9663 32.7198C83.9525 32.7422 83.9187 32.7519 83.8913 32.7414C83.8636 32.7308 83.8215 32.7486 83.7965 32.7815C83.7581 32.8321 83.7583 32.8348 83.7978 32.7995C83.8584 32.7455 83.8969 32.7472 83.8969 32.8039C83.8969 32.8824 83.8032 32.8907 82.9518 32.8881C82.8723 32.8878 82.794 32.9088 82.7644 32.9385C82.7364 32.9664 82.6939 32.9895 82.67 32.9898C82.6369 32.9902 82.6379 32.9976 82.6743 33.0206C82.7006 33.0373 82.7378 33.0421 82.7568 33.0313C82.7758 33.0205 82.7798 33.0244 82.7656 33.0399C82.7283 33.081 82.6749 33.0856 82.1644 33.0908C81.7998 33.0946 81.6902 33.1063 81.6446 33.1465C81.6129 33.1746 81.5869 33.1872 81.5869 33.1746C81.5869 33.162 81.5544 33.182 81.5147 33.219C81.4649 33.2654 81.3956 33.2869 81.2919 33.2883C80.4292 33.3002 80.4279 33.3003 80.4436 33.3604C80.4555 33.4059 80.4471 33.4116 80.404 33.3873C80.3645 33.3652 80.3295 33.3753 80.2774 33.4241C80.2199 33.4779 80.1539 33.4934 79.9519 33.5002C79.7905 33.5057 79.689 33.5241 79.6725 33.5509C79.6582 33.574 79.6254 33.5848 79.5997 33.5749C79.5679 33.5627 79.5536 33.5797 79.5551 33.6278C79.5569 33.6843 79.5355 33.7009 79.4501 33.7091C79.3911 33.7148 79.3429 33.7339 79.3429 33.7515C79.3429 33.7706 79.3145 33.7684 79.2729 33.7461C79.2303 33.7233 79.2111 33.722 79.2239 33.7427C79.2355 33.7614 79.2305 33.7857 79.2129 33.7965C79.1952 33.8074 79.1892 33.8384 79.1995 33.8652C79.2123 33.8985 79.2027 33.9081 79.1694 33.8953C79.0956 33.867 78.852 34.106 78.9149 34.1449C78.9528 34.1684 78.9491 34.1746 78.897 34.1754C78.7532 34.1776 78.7226 34.1893 78.7401 34.235C78.7549 34.2736 78.763 34.2741 78.786 34.2378C78.8078 34.2034 78.814 34.203 78.8144 34.2361C78.8146 34.2593 78.7957 34.2857 78.7723 34.2947C78.749 34.3037 78.7262 34.3581 78.7218 34.4156C78.7122 34.5409 78.7084 34.5456 78.6108 34.5518C78.5559 34.5551 78.5312 34.5797 78.5232 34.6391C78.506 34.7677 78.4939 36.5552 78.5105 36.5386C78.5399 36.5092 78.687 36.7179 78.6637 36.7557C78.6486 36.78 78.6539 36.7857 78.6778 36.7709C78.7052 36.7539 78.717 36.8216 78.72 37.0133C78.7255 37.3713 78.7217 37.3563 78.8149 37.3782C78.8951 37.3971 78.8976 37.4067 78.9069 37.7192C78.9121 37.8985 78.9294 38.0326 78.946 38.0224C78.9635 38.0116 78.9638 38.0452 78.9469 38.1043C78.931 38.1594 78.9303 38.197 78.9452 38.1878C78.9602 38.1785 78.9906 38.193 79.0129 38.2198C79.0352 38.2466 79.0665 38.2605 79.0826 38.2505C79.1157 38.23 79.1205 38.2693 79.1194 38.5498C79.1189 38.6587 79.1324 38.7738 79.1494 38.8055C79.1698 38.8438 79.1682 38.8633 79.1447 38.8633C79.1228 38.8633 79.1255 38.881 79.1518 38.9096C79.1752 38.9351 79.2092 38.9537 79.2274 38.9509C79.2455 38.9481 79.2567 38.9643 79.2521 38.987C79.2476 39.0097 79.2555 39.0283 79.2697 39.0283C79.2996 39.0283 79.3201 39.1504 79.3238 39.35C79.3256 39.4513 79.3402 39.4904 79.3759 39.4908C79.405 39.4911 79.4118 39.5013 79.3924 39.5155C79.3275 39.5632 79.344 39.6158 79.4183 39.5979C79.4782 39.5835 79.484 39.5883 79.4501 39.6244C79.3916 39.687 79.3988 39.7377 79.4592 39.6876C79.5297 39.6291 79.5379 39.6477 79.5482 39.8882C79.557 40.0929 79.5607 40.1012 79.6481 40.1113C79.731 40.1207 79.7588 40.1652 79.7417 40.2609C79.7305 40.3232 79.7791 40.4143 79.8236 40.4143C79.8496 40.4143 79.8709 40.4356 79.8709 40.4616C79.8709 40.4875 79.9006 40.5182 79.9369 40.5298C79.9902 40.5467 79.9964 40.5629 79.9691 40.6138C79.9417 40.665 79.945 40.6731 79.987 40.657C80.0185 40.6449 80.0348 40.6531 80.0289 40.6781C80.0237 40.7006 80.0445 40.7232 80.0751 40.7284C80.1057 40.7336 80.1651 40.7712 80.2071 40.8119C80.2491 40.8527 80.265 40.8756 80.2425 40.8629C80.2151 40.8475 80.2081 40.8566 80.2212 40.8909C80.232 40.9189 80.2514 40.9354 80.2645 40.9273C80.2774 40.9193 80.3283 40.9335 80.3776 40.9591C80.4268 40.9846 80.4584 40.9914 80.4476 40.9741C80.437 40.9569 80.4645 40.9457 80.5088 40.9494C80.5645 40.954 80.5838 40.971 80.5711 41.0041C80.5593 41.0348 80.5664 41.0436 80.5909 41.0285C80.6159 41.0131 80.6223 41.0226 80.6096 41.0559C80.5988 41.0839 80.5768 41.0988 80.5608 41.0889C80.5447 41.079 80.5396 41.0916 80.5493 41.1169C80.5608 41.1469 80.6088 41.1602 80.6866 41.155C80.8051 41.147 80.9123 41.2075 80.8676 41.2572C80.8548 41.2713 80.8629 41.2722 80.8856 41.2592C80.9083 41.246 80.9269 41.2507 80.9269 41.2693C80.9269 41.288 80.9477 41.2952 80.9731 41.2855C80.9984 41.2757 81.0304 41.286 81.0441 41.3082C81.0582 41.3309 81.0553 41.34 81.0377 41.329C81.0203 41.3184 80.9893 41.32 80.9687 41.3328C80.9147 41.3662 82.4858 41.3791 83.4284 41.353C84.4032 41.326 84.4263 41.2951 83.4899 41.2705L82.7914 41.2522L83.5174 41.2431C83.9167 41.2381 84.2264 41.2271 84.2056 41.2186C84.1848 41.2101 84.5991 40.7732 85.1263 40.2477C85.7746 39.6014 86.0644 39.2915 86.022 39.29C85.9233 39.2863 86.0661 39.2316 86.1821 39.2286C86.232 39.2274 86.2729 39.2114 86.2729 39.1933C86.2729 39.1751 86.3583 39.1576 86.4626 39.1543L86.6524 39.1484L86.4874 39.1374C86.3966 39.1315 86.2852 39.1171 86.2399 39.1057L86.1574 39.0848L86.2399 39.0598C86.2852 39.0461 86.5662 39.0334 86.8643 39.0316C87.3307 39.0288 87.4152 39.0203 87.4709 38.9705C87.5336 38.9146 87.535 38.9153 87.5132 38.9953C87.4938 39.0665 87.4959 39.0695 87.5284 39.0176C87.5834 38.9294 87.746 38.9351 84.8785 38.9236C82.3152 38.9132 82.2139 38.9105 82.2139 38.852C82.2139 38.8185 82.1842 38.7833 82.1479 38.7739C82.1116 38.7644 82.0819 38.7426 82.0819 38.7255C82.0819 38.7083 82.067 38.7036 82.0489 38.7148C82.0157 38.7353 82.0052 38.6364 82.0077 38.3248C82.0087 38.1951 81.9996 38.1695 81.9582 38.1853C81.9189 38.2005 81.9157 38.1949 81.9444 38.1604C81.9717 38.1275 81.9712 38.1058 81.9425 38.0771C81.9212 38.0558 81.9146 38.0383 81.9281 38.0383C81.9415 38.0383 81.9222 38.0058 81.8852 37.9661C81.8482 37.9263 81.8157 37.8484 81.8131 37.7928C81.8105 37.7372 81.8052 37.6033 81.8013 37.4951C81.7942 37.299 81.7798 37.275 81.6446 37.2332C81.595 37.2179 81.5869 37.1719 81.5869 36.9075C81.5869 36.7067 81.5725 36.584 81.5456 36.555C81.5135 36.5204 81.5134 36.5157 81.5452 36.5336C81.5727 36.5492 81.5796 36.5398 81.5663 36.5052C81.5555 36.4769 81.5111 36.4448 81.4677 36.4339C81.333 36.4001 81.349 36.0127 81.4871 35.9645C81.5478 35.9434 81.5927 35.9421 81.6046 35.9613C81.6152 35.9783 81.6386 35.9923 81.6568 35.9923C81.6749 35.9923 81.6794 35.9755 81.6667 35.955C81.6528 35.9325 81.6616 35.9237 81.6891 35.9329C81.7141 35.9412 81.7793 35.9061 81.834 35.8548C81.9289 35.7657 81.9481 35.7615 82.2634 35.7595C82.7972 35.7559 82.886 35.7468 82.972 35.6865C83.0168 35.655 83.0399 35.6293 83.0231 35.6293C83.0053 35.6293 83.0058 35.6162 83.0242 35.5978C83.0416 35.5804 83.2636 35.5631 83.5175 35.5593C84.0142 35.5519 84.0716 35.5438 84.0427 35.4856C84.0324 35.4648 84.0453 35.4738 84.0713 35.5055C84.1312 35.5785 84.1652 35.58 84.1377 35.5083C84.1246 35.474 84.1298 35.4616 84.1516 35.4751C84.1709 35.487 84.2092 35.4622 84.2369 35.4201C84.2847 35.3471 84.3027 35.344 84.6282 35.353C84.8182 35.3582 85.0096 35.3466 85.0601 35.3268C85.1237 35.3019 85.1635 35.3017 85.1927 35.3259C85.2562 35.3786 85.3942 35.2277 85.3391 35.1657C85.3061 35.1285 85.3086 35.1279 85.3542 35.1623C85.3952 35.1931 85.415 35.1938 85.4325 35.1654C85.4498 35.1375 85.4638 35.1393 85.4845 35.172C85.5032 35.2015 85.5131 35.2034 85.5134 35.1778C85.5137 35.1508 85.6079 35.1381 85.8191 35.1364C86.4386 35.1317 86.4582 35.1306 86.3884 35.101C86.3521 35.0855 86.3409 35.0719 86.3636 35.0706C86.3863 35.0694 86.4049 35.0435 86.4049 35.0133C86.4049 34.9831 86.4146 34.968 86.4266 34.98C86.4385 34.992 86.4669 34.9863 86.4897 34.9673C86.5134 34.9477 86.7297 34.9309 86.996 34.9282C87.2517 34.9256 87.4609 34.9114 87.4609 34.8968C87.4609 34.8822 87.4766 34.8703 87.4959 34.8703C87.5151 34.8703 87.5216 34.8851 87.5104 34.9033C87.4992 34.9214 87.5048 34.9363 87.523 34.9363C87.5411 34.9363 87.5656 34.9207 87.5774 34.9017C87.592 34.8781 87.6138 34.8796 87.6461 34.9063C87.6846 34.9383 87.6894 34.9353 87.6721 34.8901C87.6604 34.8596 87.6637 34.8389 87.6796 34.8442C87.7061 34.853 87.7249 34.8294 87.7249 34.787C87.7249 34.7776 87.6861 34.7951 87.6387 34.8261C87.556 34.8804 87.5531 34.8801 87.565 34.8187C87.5738 34.7729 87.6054 34.7543 87.6769 34.7529C87.7317 34.7519 87.7983 34.7379 87.8249 34.7219C87.8627 34.6991 87.866 34.7031 87.8404 34.7402C87.8188 34.7713 87.8132 35.4627 87.8243 36.7348C87.8335 37.8056 87.8447 38.6475 87.849 38.6056C87.8533 38.5636 87.872 38.5387 87.8905 38.5501C87.9088 38.5615 87.9154 38.5847 87.905 38.6016C87.8945 38.6184 87.9017 38.6323 87.9209 38.6323C87.9714 38.6323 87.9639 38.581 87.9064 38.5333C87.8634 38.4976 87.8579 38.2729 87.8648 36.8215L87.8727 35.1508L87.8816 36.7995C87.8872 37.8318 87.9027 38.4604 87.9232 38.4808C87.9447 38.5023 87.9572 38.161 87.9598 37.4756C87.9619 36.9048 87.975 36.4823 87.9889 36.5368C88.0027 36.5912 88.0159 37.047 88.018 37.5496C88.0201 38.0521 88.033 38.4703 88.0466 38.4788C88.0602 38.4872 88.0671 38.1907 88.0618 37.8201C88.0559 37.4083 88.0652 37.1239 88.0856 37.089C88.1135 37.041 88.1191 37.0474 88.1199 37.1281C88.1227 37.3997 88.1728 37.1178 88.1888 36.7404L88.2072 36.3058L88.2156 36.7678C88.2207 37.0461 88.2347 37.2035 88.251 37.1638C88.2657 37.1275 88.7376 36.6374 89.2995 36.0748C89.8613 35.5121 90.3297 35.0295 90.3404 35.0023C90.351 34.9751 90.3609 35.0864 90.3625 35.2498C90.3681 35.8425 90.4619 35.4548 90.4854 34.7415C90.514 33.8786 90.5592 33.8858 90.5696 34.7548C90.5762 35.3145 90.5823 35.1785 90.5959 34.1608L90.6135 32.8408L90.6246 34.1938C90.6322 35.1284 90.6454 35.5111 90.6671 35.4313C90.7328 35.1897 90.7357 30.0165 90.6701 29.9627C90.6384 29.9367 90.6293 29.9237 90.6499 29.934C90.6705 29.9442 90.6955 29.9215 90.7054 29.8837C90.7153 29.8458 90.7145 29.8237 90.7035 29.8346C90.6926 29.8455 90.654 29.8284 90.6177 29.7966C90.5698 29.7548 90.559 29.7525 90.5786 29.7883C90.6006 29.8287 90.5974 29.8302 90.5607 29.7962C90.5337 29.771 90.5179 29.6937 90.521 29.6006C90.5237 29.5159 90.5105 29.4178 90.4916 29.3825C90.467 29.3365 90.4676 29.3246 90.4936 29.3407C90.5135 29.3531 90.5299 29.3528 90.5299 29.3402C90.5299 29.3061 90.3666 29.1613 90.3281 29.1613C90.3098 29.1613 90.2986 29.1353 90.3033 29.1035C90.3164 29.016 90.2069 28.833 90.1168 28.792C90.0729 28.772 90.0433 28.7454 90.051 28.7329C90.08 28.686 89.9673 28.5699 89.913 28.5908C89.8796 28.6036 89.8672 28.5982 89.8806 28.5766C89.9072 28.5335 89.8245 28.4596 89.7873 28.4933C89.7725 28.5068 89.7705 28.4897 89.7828 28.4553C89.8029 28.4 89.799 28.3981 89.7488 28.4388C89.712 28.4688 89.7008 28.4704 89.7168 28.4438C89.7304 28.4213 89.7262 28.3767 89.7077 28.3448C89.6811 28.2992 89.6735 28.2974 89.6724 28.3363C89.6711 28.3777 89.6661 28.3783 89.6418 28.3398C89.6247 28.3129 89.5839 28.3013 89.5433 28.3119C89.4866 28.3268 89.4739 28.3152 89.4739 28.2487C89.4739 28.1924 89.4612 28.175 89.4326 28.1922C89.4006 28.2115 89.4 28.2063 89.43 28.1692C89.4627 28.1288 89.4399 28.12 89.2815 28.112C89.143 28.1049 89.0772 28.0845 89.0284 28.0333C88.9921 27.9953 88.9799 27.9739 89.0013 27.9857C89.0228 27.9976 89.0492 27.993 89.06 27.9755C89.1113 27.8925 88.9731 27.8901 84.6263 27.9003C82.6951 27.9048 81.1074 27.9008 81.098 27.8914C81.079 27.8725 80.9509 27.8755 80.8356 27.8976ZM90.1981 28.8941C90.2267 28.9474 90.222 28.9542 90.1663 28.9397C90.1303 28.9303 90.1009 28.9021 90.1009 28.8769C90.1009 28.8107 90.159 28.821 90.1981 28.8941ZM80.3989 33.4494C80.3989 33.4643 80.3692 33.4844 80.3329 33.4939C80.2591 33.5132 80.2472 33.4841 80.3052 33.4262C80.3443 33.387 80.3989 33.4005 80.3989 33.4494ZM71.1506 36.0057C71.137 36.2582 71.1231 36.6517 71.1196 36.8802C71.1137 37.2797 71.1127 37.285 71.0949 37.0151C71.0839 36.8484 71.062 36.7346 71.0409 36.7346C71.0214 36.7347 70.5863 37.1543 70.074 37.667C69.5618 38.1798 69.121 38.5993 69.0947 38.5993C69.0531 38.5993 69.0469 39.2377 69.0469 43.4833C69.0469 47.8027 69.0526 48.3673 69.0964 48.3673C69.1486 48.3673 69.1503 48.3733 69.1577 48.5818C69.1603 48.6544 69.1716 48.7286 69.1828 48.7468C69.1941 48.7649 69.199 48.8069 69.1936 48.8401C69.1867 48.8831 69.1988 48.8947 69.2356 48.8806C69.2748 48.8655 69.2787 48.871 69.2519 48.9034C69.2257 48.935 69.2371 48.9657 69.2967 49.0231C69.3408 49.0655 69.3769 49.135 69.3769 49.1776C69.3769 49.2202 69.3981 49.2669 69.4241 49.2814C69.45 49.2959 69.476 49.3226 69.4818 49.3408C69.4876 49.3589 69.5033 49.3702 69.5165 49.3657C69.5298 49.3613 69.5495 49.3985 69.5601 49.4482C69.5988 49.6292 69.6393 49.6967 69.686 49.6579C69.7378 49.6149 69.7729 49.6424 69.7729 49.7261C69.7729 49.8001 69.9311 49.9843 69.9948 49.9843C70.02 49.9843 70.0316 49.9991 70.0204 50.0173C70.0021 50.047 70.0454 50.0646 70.1111 50.0542C70.1247 50.052 70.1359 50.066 70.1359 50.0853C70.1359 50.1045 70.1511 50.1108 70.1697 50.0993C70.1883 50.0878 70.2002 50.0906 70.1962 50.1056C70.1792 50.1683 70.2433 50.2851 70.2857 50.2688C70.3128 50.2584 70.3241 50.2684 70.3142 50.2942C70.3052 50.3176 70.3208 50.3558 70.3489 50.379C70.3769 50.4023 70.3999 50.4116 70.3999 50.3995C70.3999 50.3875 70.4206 50.3969 70.4459 50.4202C70.4712 50.4436 70.4838 50.4762 70.4738 50.4926C70.4638 50.5091 70.4691 50.5145 70.4855 50.5048C70.5499 50.4665 70.6741 50.5427 70.6313 50.5943C70.5879 50.6466 70.6477 50.6846 70.837 50.725C70.8867 50.7357 70.9238 50.7553 70.9195 50.7686C70.915 50.7819 70.9238 50.7955 70.9391 50.7988C70.9544 50.8022 70.9855 50.8303 71.0082 50.8614C71.0366 50.9003 71.0778 50.9126 71.1398 50.9007C71.1989 50.8894 71.2361 50.8991 71.2475 50.9288C71.2571 50.9538 71.2791 50.9743 71.2963 50.9743C71.3136 50.9743 71.3206 50.9627 71.3117 50.9484C71.3029 50.9341 71.3216 50.9224 71.3532 50.9224C71.3911 50.9224 71.4088 50.9454 71.4049 50.9896C71.3965 51.0839 71.4215 51.1155 71.4715 51.074C71.5027 51.0481 71.5189 51.0509 71.5317 51.0843C71.5508 51.1339 71.708 51.1395 71.7813 51.0932C71.8094 51.0755 71.836 51.0805 71.8522 51.1069C71.8666 51.13 71.902 51.1398 71.9311 51.1286C71.9684 51.1143 71.9839 51.1273 71.9839 51.1734C71.9839 51.2366 72.0118 51.2383 73.1059 51.2383C74.0587 51.2383 74.2279 51.2311 74.2279 51.1909C74.2279 51.1649 74.6526 50.7199 75.1718 50.202L76.1156 49.2604L75.7245 49.2499C75.4256 49.2419 75.4929 49.2366 76.0099 49.2272C76.958 49.2099 76.4476 49.1702 75.0859 49.1552L74.0794 49.1443L75.0859 49.1263L76.0924 49.1083L74.7889 49.0949C73.1198 49.0779 73.2059 49.0832 73.1379 48.993C73.1069 48.9518 73.0652 48.9291 73.0444 48.942C73.0238 48.9548 73.0069 48.9507 73.0069 48.933C73.0069 48.9152 73.0254 48.8922 73.0481 48.8818C73.0708 48.8714 73.0523 48.8725 73.0069 48.8843C72.9055 48.9105 72.8744 48.9098 72.8002 48.879C72.7536 48.8596 72.7466 48.867 72.7646 48.9163C72.7863 48.9756 72.7846 48.9756 72.7196 48.9186C72.6777 48.882 72.62 48.8653 72.5674 48.8748C72.518 48.8838 72.4667 48.8709 72.4441 48.8436C72.4228 48.818 72.3885 48.8068 72.3679 48.8188C72.3473 48.8309 72.3574 48.8098 72.3903 48.7722C72.4238 48.7339 72.4364 48.6953 72.4187 48.6844C72.4015 48.6738 72.369 48.6871 72.3465 48.7141C72.3241 48.7412 72.289 48.763 72.2686 48.7628C72.2481 48.7625 72.2537 48.7479 72.2809 48.7303C72.3362 48.6946 72.3355 48.6942 72.2016 48.6786C72.0456 48.6605 72.0105 48.6374 72.0327 48.5674C72.0468 48.523 72.0323 48.4922 71.9854 48.4671C71.9483 48.4472 71.9179 48.4407 71.9179 48.4527C71.9179 48.4646 71.8953 48.4556 71.8675 48.4326C71.8399 48.4097 71.8246 48.3836 71.8334 48.3747C71.8742 48.334 71.7787 48.2331 71.7177 48.2524C71.6478 48.2746 71.6247 48.2396 71.6065 48.0836C71.5909 47.9497 71.5906 47.949 71.5549 48.0043C71.5373 48.0315 71.5226 48.037 71.5224 48.0166C71.5221 47.9961 71.544 47.9611 71.571 47.9386C71.598 47.9162 71.6114 47.8837 71.6007 47.8664C71.5899 47.8488 71.5526 47.8609 71.5162 47.894C71.4803 47.9264 71.4545 47.9385 71.4588 47.9209C71.4631 47.9032 71.4497 47.8481 71.4291 47.7983C71.4085 47.7485 71.4004 47.6854 71.4108 47.658C71.422 47.6288 71.4114 47.608 71.3852 47.6078C71.3487 47.6074 71.3485 47.6022 71.3835 47.5799C71.4491 47.5383 71.3975 47.3675 71.3251 47.3865C71.2942 47.3946 71.2682 47.3847 71.2673 47.3645C71.2665 47.3443 71.2557 47.3037 71.2434 47.2743C71.23 47.2422 71.2392 47.2139 71.2665 47.2034C71.2962 47.192 71.3111 47.2092 71.3096 47.2535C71.3084 47.2907 71.3259 47.3275 71.3486 47.3355C71.3713 47.3433 71.3899 47.3328 71.3899 47.3121C71.3899 47.2913 71.3764 47.2827 71.3599 47.2929C71.3435 47.303 71.3375 47.2829 71.3466 47.2482C71.3575 47.2066 71.3396 47.1724 71.2944 47.1482L71.2257 47.1114L71.2213 41.9891C71.2189 39.1718 71.2076 36.5698 71.1962 36.2068L71.1754 35.5468L71.1506 36.0057ZM87.4444 38.9623C87.4318 38.9827 87.2071 38.9926 86.8566 38.9882L86.2894 38.9812L86.8669 38.9623C87.1845 38.9519 87.449 38.9403 87.4546 38.9364C87.4602 38.9325 87.4556 38.9441 87.4444 38.9623ZM90.1054 40.4638C90.0476 40.5273 90.0105 40.5793 90.0229 40.5793C90.0443 40.5793 90.2329 40.3813 90.2329 40.3588C90.2329 40.3319 90.2028 40.3568 90.1054 40.4638Z" fill="#3461FF"/>
<path fill-rule="evenodd" clip-rule="evenodd" d="M99.2419 18.2878C99.2419 18.315 99.2642 18.3373 99.2914 18.3373C99.3186 18.3373 99.3409 18.315 99.3409 18.2878C99.3409 18.2606 99.3186 18.2383 99.2914 18.2383C99.2642 18.2383 99.2419 18.2606 99.2419 18.2878ZM100.739 19.0915C100.77 19.1252 100.844 19.1794 100.904 19.2119C100.965 19.2445 101.041 19.3204 101.073 19.3808C101.154 19.5303 101.255 19.6234 101.255 19.5481C101.255 19.5187 101.224 19.4781 101.186 19.4579C101.149 19.4377 101.103 19.3788 101.085 19.3271C101.065 19.2693 101.016 19.2204 100.958 19.2003C100.906 19.1822 100.847 19.1366 100.827 19.0989C100.807 19.0611 100.766 19.0303 100.737 19.0303C100.689 19.0303 100.689 19.0359 100.739 19.0915ZM70.134 19.2109C70.0875 19.2361 70.0316 19.2987 70.0097 19.3498C69.9731 19.4351 69.9738 19.4373 70.0185 19.3768C70.0803 19.2931 70.1039 19.2696 70.1854 19.2115C70.2693 19.1516 70.2434 19.1513 70.134 19.2109ZM82.7749 20.4658C82.8112 20.5095 83.6881 20.5154 90.2947 20.5164C96.8182 20.5173 97.7815 20.5235 97.8374 20.5659C97.9104 20.621 98.0022 20.6313 97.971 20.5807C97.9597 20.5623 97.9394 20.554 97.9259 20.5623C97.9126 20.5706 97.8744 20.5411 97.8411 20.4968L97.7806 20.4163H90.2572C83.5735 20.4163 82.7384 20.4218 82.7749 20.4658ZM101.938 20.9654C101.907 20.9962 101.944 21.0433 101.999 21.0433C102.026 21.0433 102.047 21.021 102.047 20.9938C102.047 20.9441 101.977 20.926 101.938 20.9654ZM99.6747 22.3158C99.6726 22.3531 99.6927 22.4125 99.7193 22.4478C99.7928 22.5449 99.7928 46.9317 99.7193 47.0288C99.6927 47.0641 99.6711 47.1235 99.6714 47.1608C99.6718 47.215 99.6781 47.219 99.7022 47.1808C99.7189 47.1545 99.7276 47.1248 99.7217 47.1149C99.7157 47.105 99.7315 47.0776 99.7568 47.0542C99.7944 47.0195 99.8033 47.0195 99.8052 47.0542C99.8065 47.0776 99.8203 47.0671 99.8359 47.0308C99.8515 46.9945 99.8689 44.7893 99.8745 42.1303C99.884 37.7051 99.8863 37.5291 99.9019 40.0513C99.9118 41.6469 99.9252 42.4387 99.9338 41.9323C99.9474 41.1291 99.9501 41.0968 99.9665 41.5363C99.9763 41.7995 99.9935 41.9777 100.005 41.9323C100.017 41.8836 100.027 41.9411 100.029 42.0725C100.034 42.3144 100.084 42.3656 100.166 42.2128C100.19 42.1674 100.22 42.1303 100.233 42.1303C100.245 42.1303 100.38 42.0031 100.532 41.8476C100.685 41.6922 100.829 41.5474 100.853 41.5259C100.909 41.4756 100.997 41.3879 101.046 41.3324C101.084 41.2903 101.392 40.9833 101.479 40.9004C101.503 40.8781 101.547 40.8316 101.578 40.7973C101.609 40.7629 101.662 40.711 101.697 40.6818C101.731 40.6526 101.796 40.5879 101.842 40.538C101.888 40.4881 101.953 40.4473 101.986 40.4473C102.045 40.4473 102.047 40.3257 102.047 37.1308C102.047 34.1376 102.042 33.8143 101.995 33.8143C101.967 33.8143 101.528 34.2301 101.021 34.7383C100.514 35.2465 100.092 35.6623 100.083 35.6623C100.074 35.6623 100.064 35.5323 100.06 35.3735C100.056 35.2147 100.044 35.4041 100.034 35.7943C100.018 36.4157 100.014 36.4474 100.008 36.05C99.9983 35.4339 99.9369 35.4466 99.9283 36.0665C99.9247 36.3252 99.912 35.0518 99.9001 33.2368C99.8882 31.4218 99.8763 28.2711 99.8737 26.2353C99.8691 22.7085 99.8635 22.4083 99.8031 22.4456C99.7704 22.4658 99.7158 22.3995 99.6947 22.3138C99.6789 22.2493 99.6785 22.2494 99.6747 22.3158ZM88.5416 27.8975C88.5825 27.9055 88.6493 27.9055 88.6901 27.8975C88.731 27.8897 88.6975 27.8833 88.6159 27.8833C88.5342 27.8833 88.5008 27.8897 88.5416 27.8975ZM89.0685 28.0399C89.0779 28.0758 89.1061 28.1053 89.1313 28.1053C89.1974 28.1053 89.1872 28.0471 89.1141 28.008C89.0607 27.9795 89.054 27.9842 89.0685 28.0399ZM90.1763 28.8412C90.2165 28.8829 90.2555 28.9127 90.2629 28.9074C90.2822 28.8936 90.1621 28.7653 90.1299 28.7653C90.1152 28.7653 90.1361 28.7994 90.1763 28.8412ZM79.8709 29.5078C79.8372 29.5483 79.8395 29.5573 79.8833 29.5573C79.9128 29.5573 79.9369 29.535 79.9369 29.5078C79.9369 29.4806 79.9313 29.4583 79.9244 29.4583C79.9176 29.4583 79.8935 29.4806 79.8709 29.5078ZM87.7249 30.3947C87.7249 30.4016 87.7472 30.4257 87.7744 30.4483C87.8149 30.4819 87.8239 30.4796 87.8239 30.4358C87.8239 30.4064 87.8016 30.3823 87.7744 30.3823C87.7472 30.3823 87.7249 30.3879 87.7249 30.3947ZM71.2254 39.445C71.2257 44.2429 71.2375 46.9827 71.2579 47.0143C71.2754 47.0415 71.2901 47.0508 71.2904 47.035C71.2915 46.9741 71.39 47.0921 71.3937 47.1586C71.3969 47.2167 71.4002 47.2186 71.413 47.1694C71.4214 47.1368 71.4048 47.0742 71.3761 47.0303C71.3288 46.9582 71.3239 46.2385 71.3239 39.479C71.3239 32.8778 71.3181 32.0026 71.2744 31.9663C71.2304 31.9298 71.225 32.7645 71.2254 39.445ZM87.2959 32.1313C87.2596 32.1676 87.2304 32.2158 87.2309 32.2385C87.2315 32.2612 87.2541 32.2501 87.2811 32.2138C87.3082 32.1775 87.3551 32.1292 87.3854 32.1065C87.4162 32.0834 87.4232 32.0653 87.4011 32.0653C87.3795 32.0653 87.3322 32.095 87.2959 32.1313ZM83.7831 32.7364C83.7499 32.7607 83.7286 32.7941 83.7356 32.8107C83.7426 32.8273 83.7813 32.8074 83.8215 32.7665C83.9017 32.6849 83.8785 32.6667 83.7831 32.7364ZM82.9811 32.8801C83.0129 32.8883 83.0649 32.8883 83.0966 32.8801C83.1284 32.8717 83.1024 32.865 83.0389 32.865C82.9754 32.865 82.9494 32.8717 82.9811 32.8801ZM80.2302 33.4265C80.1915 33.5004 80.1916 33.5005 80.2621 33.4379C80.3407 33.368 80.3479 33.3523 80.301 33.3523C80.2835 33.3523 80.2517 33.3857 80.2302 33.4265ZM86.5699 35.0074C86.5699 35.0764 86.5719 35.0768 86.6359 35.0188C86.6722 34.9859 86.7019 34.9539 86.7019 34.9477C86.7019 34.9414 86.6722 34.9363 86.6359 34.9363C86.5903 34.9363 86.5699 34.9583 86.5699 35.0074ZM86.0336 35.1575C86.0745 35.1655 86.1413 35.1655 86.1821 35.1575C86.223 35.1497 86.1896 35.1433 86.1079 35.1433C86.0262 35.1433 85.9928 35.1497 86.0336 35.1575ZM85.4809 35.2297C85.4809 35.252 85.4637 35.2596 85.4428 35.2466C85.4202 35.2327 85.4136 35.2375 85.4265 35.2584C85.4385 35.2778 85.4296 35.3012 85.4068 35.3103C85.381 35.3207 85.3794 35.3281 85.4026 35.3296C85.4507 35.333 85.5298 35.2382 85.5021 35.2105C85.4904 35.1988 85.4809 35.2075 85.4809 35.2297ZM83.0712 35.6136C83.0074 35.6904 83.053 35.7049 83.1212 35.6294C83.1541 35.5931 83.1658 35.5633 83.147 35.5633C83.1283 35.5633 83.0942 35.5859 83.0712 35.6136ZM78.6919 36.9493C78.6919 37.031 78.6983 37.0644 78.7061 37.0235C78.7141 36.9827 78.7141 36.9159 78.7061 36.875C78.6983 36.8342 78.6919 36.8676 78.6919 36.9493ZM81.627 37.0833C81.6581 37.1014 81.7063 37.1488 81.7342 37.1886C81.7621 37.2284 81.7849 37.2428 81.7849 37.2206C81.7849 37.1674 81.6641 37.048 81.6116 37.0493C81.5882 37.0498 81.5948 37.0645 81.627 37.0833ZM92.8795 38.1109C92.8303 38.1601 92.8277 38.2129 92.8753 38.1969C92.8949 38.1905 92.9086 38.1713 92.9059 38.1543C92.9032 38.1373 92.9281 38.1127 92.9612 38.0997C93.0071 38.0815 93.0092 38.0754 92.9702 38.0736C92.9421 38.0724 92.9013 38.0891 92.8795 38.1109ZM95.3895 38.1271C95.4202 38.1577 95.4545 38.1736 95.4659 38.1623C95.4984 38.1298 95.4485 38.0713 95.3884 38.0713C95.338 38.0713 95.3381 38.0757 95.3895 38.1271ZM95.2819 38.2528C95.2819 38.2982 95.2966 38.3353 95.3145 38.3353C95.3324 38.3353 95.3441 38.2982 95.3403 38.2528C95.3366 38.2074 95.3219 38.1703 95.3077 38.1703C95.2935 38.1703 95.2819 38.2074 95.2819 38.2528ZM95.4717 38.2413C95.4979 38.2675 95.4996 38.2984 95.4772 38.3403C95.4522 38.387 95.4561 38.4013 95.4941 38.4013C95.5234 38.4013 95.5365 38.3821 95.5259 38.3547C95.5154 38.3273 95.5328 38.3016 95.5682 38.2925C95.6228 38.2784 95.6231 38.2766 95.5706 38.2731C95.5389 38.271 95.5129 38.2544 95.5129 38.2363C95.5129 38.2181 95.4951 38.2033 95.4733 38.2033C95.4433 38.2033 95.443 38.2126 95.4717 38.2413ZM95.3889 38.3276C95.3834 38.4067 95.3869 38.4104 95.4182 38.3568C95.4388 38.3214 95.4414 38.2836 95.4244 38.2666C95.4074 38.2496 95.3925 38.2751 95.3889 38.3276ZM92.6927 38.3137C92.6503 38.3448 92.6434 38.3654 92.6701 38.3818C92.6915 38.395 92.717 38.3827 92.7281 38.3541C92.7389 38.3258 92.7611 38.3109 92.7773 38.3209C92.7936 38.331 92.8069 38.3235 92.8069 38.3043C92.8069 38.2569 92.7658 38.2603 92.6927 38.3137ZM95.6298 38.333C95.6194 38.3499 95.6271 38.3738 95.647 38.3861C95.6669 38.3984 95.6752 38.4404 95.6654 38.4794C95.6556 38.5184 95.6587 38.5683 95.6723 38.5902C95.686 38.6126 95.6992 38.5725 95.7021 38.4992C95.705 38.4272 95.6925 38.3683 95.6742 38.3683C95.6559 38.3683 95.6502 38.3534 95.6614 38.3353C95.6726 38.3171 95.6743 38.3023 95.6653 38.3023C95.6562 38.3023 95.6403 38.3161 95.6298 38.333ZM92.6089 38.4232C92.6089 38.4665 92.7155 38.5388 92.7414 38.513C92.7583 38.4961 92.7367 38.4678 92.6897 38.4457C92.6453 38.4246 92.6089 38.4146 92.6089 38.4232ZM92.5429 38.7729C92.5429 38.8018 92.5169 38.8323 92.4851 38.8405C92.431 38.8547 92.4311 38.8559 92.4862 38.8595C92.5458 38.8634 92.6011 38.7786 92.5634 38.7409C92.5521 38.7295 92.5429 38.7439 92.5429 38.7729ZM95.6779 38.8009C95.6353 38.8315 95.636 38.8341 95.683 38.8191C95.7134 38.8095 95.7633 38.8301 95.7954 38.8655C95.8271 38.9006 95.8694 38.9281 95.8892 38.9266C95.9099 38.9252 95.9076 38.9169 95.884 38.9073C95.8611 38.8982 95.8509 38.8771 95.8611 38.8605C95.8713 38.8439 95.8567 38.8303 95.8284 38.8303C95.8001 38.8303 95.7769 38.8154 95.7769 38.7973C95.7769 38.7547 95.7402 38.7561 95.6779 38.8009ZM87.7579 38.8468C87.7236 38.8881 87.7282 38.8963 87.7858 38.8963C87.8336 38.8963 87.849 38.881 87.8358 38.8468C87.8254 38.8196 87.8128 38.7973 87.8079 38.7973C87.803 38.7973 87.7805 38.8196 87.7579 38.8468ZM90.7025 38.8963C90.7025 38.9598 90.7093 38.9858 90.7176 38.954C90.7259 38.9223 90.7259 38.8703 90.7176 38.8385C90.7093 38.8068 90.7025 38.8328 90.7025 38.8963ZM84.5345 38.921C85.0757 38.9261 85.9519 38.9261 86.4815 38.921C87.0111 38.9159 86.5682 38.9117 85.4974 38.9118C84.4265 38.9118 83.9932 38.9159 84.5345 38.921ZM95.7006 39.4142C95.6884 39.4341 95.7005 39.4589 95.7275 39.4693C95.7561 39.4802 95.7769 39.5298 95.7769 39.5867C95.7769 39.6408 95.7939 39.7225 95.8147 39.7682C95.844 39.8324 95.843 39.8629 95.8107 39.9018C95.7768 39.9426 95.7769 39.9523 95.8114 39.9523C95.8661 39.9523 95.8233 39.9959 95.7594 40.0053C95.7327 40.0092 95.7109 39.9882 95.7109 39.9586C95.7109 39.9176 95.6982 39.9227 95.658 39.9801C95.629 40.0216 95.6134 40.0638 95.6236 40.0741C95.6337 40.0842 95.6093 40.1206 95.5692 40.1548C95.5291 40.1891 95.5112 40.2153 95.5294 40.2128C95.6015 40.2032 95.6388 40.2196 95.7226 40.2972C95.7706 40.3417 95.8099 40.364 95.8099 40.3467C95.8099 40.3294 95.8322 40.3153 95.8594 40.3153C95.8866 40.3153 95.9089 40.3004 95.9089 40.2823C95.9089 40.2641 95.8866 40.2493 95.8594 40.2493C95.8012 40.2493 95.7973 40.2188 95.8465 40.1503C95.8763 40.1089 95.8789 40.1105 95.8628 40.1603C95.8523 40.1929 95.8571 40.2113 95.8737 40.2011C95.9074 40.1803 95.8997 39.7671 95.865 39.7324C95.8244 39.6918 95.8394 39.4513 95.881 39.4769C95.9055 39.4921 95.9101 39.4859 95.8938 39.4595C95.8798 39.437 95.8411 39.4257 95.8077 39.4344C95.7743 39.4432 95.7416 39.434 95.735 39.4141C95.7263 39.388 95.7168 39.3881 95.7006 39.4142ZM95.7106 39.6058L95.7022 39.7378L95.6779 39.6223L95.6535 39.5068L95.6492 39.6102C95.6459 39.6882 95.6662 39.7276 95.7314 39.7704C95.7881 39.8075 95.8085 39.8117 95.7903 39.7824C95.7751 39.7579 95.7529 39.6784 95.7409 39.6058L95.7191 39.4738L95.7106 39.6058ZM95.5978 39.7834C95.5868 39.8011 95.5945 39.8261 95.6148 39.8386C95.6411 39.8548 95.6389 39.8698 95.6072 39.8899C95.5808 39.9067 95.5776 39.9185 95.5996 39.9188C95.6717 39.9198 95.7158 39.8325 95.6648 39.7901C95.6352 39.7656 95.6103 39.7631 95.5978 39.7834ZM90.347 39.944C90.2878 40.0807 90.298 40.134 90.3643 40.0348C90.4007 39.9803 90.4305 39.9246 90.4306 39.911C90.431 39.8634 90.3717 39.8868 90.347 39.944ZM79.6565 40.1834C79.6895 40.2199 79.7236 40.2425 79.7324 40.2338C79.7545 40.2116 79.6722 40.1173 79.6307 40.1173C79.612 40.1173 79.6236 40.1471 79.6565 40.1834ZM95.4499 40.2952C95.42 40.3312 95.4208 40.3457 95.4537 40.359C95.4846 40.3714 95.4853 40.3768 95.4562 40.3786C95.434 40.3801 95.4245 40.4036 95.4349 40.4308C95.4564 40.4869 95.3963 40.4989 95.3631 40.4451C95.3296 40.3909 95.2166 40.5089 95.2395 40.5742C95.2551 40.6186 95.2503 40.6211 95.2141 40.5875C95.1695 40.5461 95.087 40.5274 95.1274 40.5679C95.1393 40.5797 95.101 40.6354 95.0422 40.6916C94.9835 40.7478 94.9354 40.8161 94.9353 40.8433C94.9353 40.8705 94.9204 40.893 94.9023 40.8933C94.845 40.8942 94.7851 40.9457 94.8045 40.9772C94.8149 40.9939 94.798 40.9978 94.7667 40.9858C94.7282 40.9711 94.7177 40.9765 94.7339 41.0027C94.7489 41.0269 94.7346 41.0413 94.6953 41.0413C94.661 41.0413 94.6217 41.0524 94.6081 41.066C94.5945 41.0796 94.5673 41.0908 94.5476 41.0908C94.5279 41.0908 94.5094 41.1235 94.5065 41.1635C94.5036 41.2035 94.5135 41.2286 94.5285 41.2193C94.5436 41.21 94.5559 41.2255 94.5559 41.2538C94.5559 41.3153 94.6086 41.3222 94.6353 41.264C94.6457 41.2413 94.647 41.2531 94.638 41.29C94.6248 41.3452 94.6395 41.3586 94.7201 41.3648C94.8027 41.371 94.822 41.3577 94.841 41.281C94.8534 41.2309 94.8917 41.1698 94.926 41.1455C94.9602 41.1211 94.9826 41.0839 94.9755 41.063C94.9684 41.0419 94.9862 41.005 95.015 40.9808C95.0624 40.941 95.062 40.9386 95.0113 40.9544C94.9718 40.9668 94.9607 40.9575 94.9739 40.9232C94.9883 40.8856 95.003 40.8832 95.0387 40.9128C95.076 40.9438 95.0768 40.9608 95.043 41.0023C95.008 41.0455 95.0102 41.0504 95.0575 41.0326C95.0975 41.0176 95.1083 41.0253 95.0952 41.0594C95.085 41.0857 95.0627 41.1073 95.0454 41.1073C95.0281 41.1073 95.0232 41.1221 95.0344 41.1403C95.0456 41.1584 95.0799 41.173 95.1106 41.1728C95.1545 41.1724 95.1568 41.1662 95.1216 41.1439C95.097 41.1283 95.0902 41.1072 95.1066 41.0971C95.1231 41.0869 95.1566 41.091 95.1811 41.1062C95.2113 41.1249 95.2516 41.1028 95.3062 41.038C95.3505 40.9853 95.4077 40.9423 95.4333 40.9423C95.4589 40.9423 95.4799 40.9191 95.4799 40.8908C95.4799 40.8625 95.466 40.8479 95.4492 40.8584C95.4323 40.8688 95.4077 40.8599 95.3946 40.8387C95.3796 40.8146 95.385 40.809 95.4088 40.8236C95.4301 40.8368 95.4471 40.8282 95.4474 40.804C95.4478 40.7708 95.4547 40.7716 95.4774 40.8074C95.5149 40.8667 95.7205 40.6558 95.7007 40.5783C95.6855 40.5188 95.7572 40.4415 95.7981 40.4733C95.8137 40.4853 95.8011 40.4672 95.7703 40.4328C95.7252 40.3828 95.7047 40.3783 95.666 40.4105C95.6296 40.4406 95.612 40.441 95.5941 40.4122C95.5811 40.3911 95.5864 40.364 95.6059 40.352C95.6254 40.34 95.631 40.3156 95.6184 40.2979C95.5813 40.2461 95.4918 40.2447 95.4499 40.2952ZM90.1406 40.3967C90.061 40.5237 90.173 40.5504 90.2565 40.4243C90.301 40.3572 90.2994 40.3523 90.2332 40.3574C90.1939 40.3603 90.1523 40.378 90.1406 40.3967ZM95.5789 40.4618C95.5789 40.488 95.5617 40.52 95.5408 40.5329C95.5172 40.5475 95.5116 40.542 95.5262 40.5184C95.5392 40.4974 95.5341 40.4803 95.5149 40.4803C95.4956 40.4803 95.4799 40.4654 95.4799 40.4473C95.4799 40.4291 95.5022 40.4143 95.5294 40.4143C95.5566 40.4143 95.5789 40.4356 95.5789 40.4618ZM95.6632 40.6067C95.659 40.6351 95.6408 40.6631 95.6228 40.6691C95.6038 40.6755 95.5964 40.6369 95.6052 40.5768C95.6148 40.5117 95.6297 40.4886 95.6455 40.5144C95.6594 40.5368 95.6673 40.5783 95.6632 40.6067ZM95.2943 40.7135C95.2424 40.7655 95.2268 40.7696 95.2268 40.7314C95.2268 40.7042 95.2429 40.6848 95.2627 40.6883C95.2823 40.6919 95.2961 40.6672 95.2932 40.6335C95.2894 40.5884 95.2977 40.5819 95.3249 40.6091C95.3521 40.6363 95.3441 40.6638 95.2943 40.7135ZM89.8598 40.7025C89.8517 40.7164 89.8556 40.7567 89.8685 40.792C89.8907 40.8531 89.8927 40.8527 89.9107 40.7838C89.929 40.7138 89.8897 40.651 89.8598 40.7025ZM95.5129 40.7114C95.551 40.7362 95.542 40.7421 95.474 40.7369C95.4254 40.7333 95.3928 40.7185 95.4017 40.7043C95.4228 40.6702 95.4523 40.6721 95.5129 40.7114ZM92.6089 40.7775C92.6089 40.8491 92.6777 40.9423 92.7306 40.9423C92.7736 40.9423 92.7703 40.9304 92.7135 40.8812C92.6748 40.8476 92.6512 40.8119 92.6612 40.8019C92.6712 40.792 92.6634 40.7741 92.6441 40.7621C92.6247 40.7501 92.6089 40.7571 92.6089 40.7775ZM92.7806 40.8087C92.8037 40.8458 92.8414 40.8763 92.8643 40.8763C92.9256 40.8763 92.9156 40.8572 92.8221 40.796C92.7403 40.7424 92.7393 40.7427 92.7806 40.8087ZM95.6779 40.8213C95.6779 40.8515 95.663 40.8763 95.6449 40.8763C95.6267 40.8763 95.6119 40.8911 95.6119 40.9093C95.6119 40.9274 95.6257 40.9423 95.6426 40.9423C95.6798 40.9423 95.7249 40.8133 95.6974 40.7858C95.6866 40.7751 95.6779 40.7911 95.6779 40.8213ZM95.3479 40.8488C95.3479 40.8639 95.3173 40.8763 95.2799 40.8763C95.2425 40.8763 95.2196 40.8639 95.229 40.8488C95.2383 40.8336 95.2689 40.8213 95.2969 40.8213C95.3249 40.8213 95.3479 40.8336 95.3479 40.8488ZM92.9719 40.9579C92.9719 41.0237 93.0275 41.05 93.0488 40.9943C93.0587 40.9687 93.0454 40.9396 93.0193 40.9296C92.9919 40.919 92.9719 40.931 92.9719 40.9579ZM80.3061 40.9627C80.3368 40.9718 80.3693 41.0044 80.3784 41.0351C80.3905 41.0754 80.3933 41.0727 80.3883 41.0252C80.3844 40.9867 80.3545 40.9567 80.316 40.9528C80.2684 40.9479 80.2657 40.9506 80.3061 40.9627ZM95.2781 41.0154C95.2383 41.0897 95.1777 41.0931 95.2061 41.0193C95.2213 40.9795 95.2151 40.9718 95.1834 40.9915C95.1579 41.0072 95.1476 41.0056 95.1589 40.9875C95.1978 40.9244 95.3124 40.9512 95.2781 41.0154ZM93.1885 41.1437C93.1989 41.1606 93.2197 41.1668 93.2347 41.1575C93.2591 41.1424 93.3163 41.2303 93.3097 41.2727C93.3082 41.282 93.343 41.3066 93.387 41.3274C93.431 41.3481 93.4586 41.3516 93.4485 41.3352C93.4269 41.3003 93.4782 41.2946 93.5118 41.3282C93.5245 41.3408 93.5826 41.354 93.641 41.3576C93.6995 41.3611 93.7287 41.3569 93.706 41.3483C93.6831 41.3397 93.6712 41.3218 93.6794 41.3084C93.6876 41.2951 93.6525 41.2903 93.6013 41.2979C93.5231 41.3094 93.5009 41.2953 93.463 41.2094C93.4167 41.105 93.3859 41.0845 93.3535 41.1368C93.3435 41.1531 93.3575 41.1748 93.3845 41.1853C93.4117 41.1957 93.4339 41.2277 93.4339 41.2564C93.4339 41.294 93.4103 41.2832 93.3498 41.2179C93.2713 41.1332 93.1465 41.0758 93.1885 41.1437ZM89.0208 41.1856C89.0097 41.2034 89.0199 41.2052 89.0446 41.1899C89.0778 41.1694 89.0821 41.1849 89.0636 41.2586L89.0398 41.3537L89.1083 41.2665C89.146 41.2186 89.1769 41.1715 89.1769 41.1619C89.1769 41.1322 89.041 41.1528 89.0208 41.1856ZM94.9281 41.1807C94.89 41.2289 94.885 41.3383 94.9209 41.3383C94.9341 41.3383 94.9537 41.3153 94.9645 41.2871C94.9757 41.2577 94.9702 41.2445 94.9515 41.256C94.9336 41.2671 94.9189 41.2617 94.9189 41.244C94.9189 41.2262 94.9374 41.2051 94.9601 41.197C94.9828 41.189 94.9924 41.1725 94.9813 41.1605C94.9703 41.1485 94.9463 41.1576 94.9281 41.1807ZM94.3316 41.2623C94.2576 41.3542 94.0653 41.3417 94.0852 41.2464C94.0896 41.2253 94.0714 41.217 94.044 41.2275C94.017 41.2379 93.9949 41.2605 93.9949 41.2777C93.9949 41.2951 94.0123 41.2984 94.0335 41.2853C94.0595 41.2693 94.0652 41.2795 94.0511 41.3163C94.0333 41.3625 94.0535 41.3713 94.1774 41.3713C94.2632 41.3713 94.3249 41.356 94.3249 41.3347C94.3249 41.3147 94.3479 41.3071 94.3761 41.3179C94.4055 41.3291 94.4187 41.3236 94.4071 41.3049C94.3961 41.287 94.4027 41.2723 94.4219 41.2723C94.4411 41.2723 94.4569 41.2946 94.4569 41.3218C94.4569 41.349 94.4802 41.3713 94.5088 41.3713C94.5559 41.3713 94.5559 41.3666 94.5088 41.3194C94.4802 41.2909 94.4569 41.2464 94.4569 41.2204C94.4569 41.1485 94.4108 41.1639 94.3316 41.2623ZM93.8418 41.3282C93.8775 41.3639 93.9619 41.3689 93.9619 41.3354C93.9619 41.3188 93.9297 41.3053 93.8903 41.3053C93.8511 41.3053 93.8292 41.3156 93.8418 41.3282ZM69.0469 48.4828C69.0469 48.51 69.0692 48.5323 69.0964 48.5323C69.1236 48.5323 69.1459 48.51 69.1459 48.4828C69.1459 48.4556 69.1236 48.4333 69.0964 48.4333C69.0692 48.4333 69.0469 48.4556 69.0469 48.4828ZM101.948 48.4828C101.948 48.51 101.97 48.5323 101.997 48.5323C102.025 48.5323 102.047 48.51 102.047 48.4828C102.047 48.4556 102.025 48.4333 101.997 48.4333C101.97 48.4333 101.948 48.4556 101.948 48.4828ZM73.1224 48.8861C73.2081 48.9072 73.2744 48.9618 73.2542 48.9945C73.2169 49.0549 73.5171 49.0605 77.0438 49.0651C79.0797 49.0677 82.2304 49.0796 84.0454 49.0915C85.8604 49.1034 87.1338 49.1161 86.8751 49.1197C86.2552 49.1283 86.2425 49.1897 86.8586 49.1995C87.256 49.2059 87.2243 49.2091 86.6029 49.2253C86.2127 49.2354 86.0233 49.2471 86.1821 49.251C86.3409 49.255 86.4709 49.2655 86.4709 49.2742C86.4709 49.283 86.0551 49.7052 85.5469 50.2124C85.0387 50.7196 84.6229 51.1579 84.6229 51.1864C84.6229 51.2332 84.9462 51.2383 87.9394 51.2383C91.1343 51.2383 91.2559 51.2361 91.2559 51.1777C91.2559 51.1444 91.2967 51.0796 91.3466 51.0338C91.3965 50.9878 91.4612 50.9222 91.4904 50.888C91.5195 50.8538 91.5715 50.8005 91.6059 50.7697C91.6402 50.7388 91.6867 50.6943 91.709 50.6707C91.7919 50.5831 92.0989 50.2755 92.141 50.2378C92.1965 50.1881 92.2842 50.1005 92.3345 50.0444C92.356 50.0204 92.5008 49.876 92.6562 49.7237C92.8117 49.5712 92.9389 49.4364 92.9389 49.424C92.9389 49.4116 92.976 49.3815 93.0214 49.3573C93.1742 49.2755 93.123 49.2257 92.8811 49.2208C92.7497 49.2181 92.6922 49.208 92.7409 49.1961C92.7863 49.1849 92.6081 49.1677 92.3449 49.1579C91.9054 49.1415 91.9377 49.1388 92.7409 49.1252C93.2473 49.1166 92.4555 49.1032 90.8599 49.0933C88.3377 49.0777 88.5137 49.0754 92.9389 49.0659C95.5979 49.0603 97.8031 49.0429 97.8394 49.0273C97.8757 49.0117 97.8862 48.9979 97.8628 48.9966C97.8281 48.9947 97.8281 48.9858 97.8628 48.9482C97.8862 48.9229 97.9135 48.9071 97.9234 48.9131C97.9334 48.919 97.9631 48.9103 97.9894 48.8936C98.0276 48.8695 98.0236 48.8632 97.9694 48.8628C97.9321 48.8625 97.8727 48.8841 97.8374 48.9107C97.7403 48.9842 73.3535 48.9842 73.2564 48.9107C73.221 48.8841 73.1616 48.864 73.1244 48.8661C73.058 48.8699 73.0579 48.8703 73.1224 48.8861ZM101.918 48.9016C101.916 48.9324 101.882 48.9807 101.842 49.0089C101.783 49.0501 101.779 49.0603 101.824 49.0603C101.887 49.0603 101.96 48.9452 101.936 48.8852C101.927 48.8631 101.919 48.8704 101.918 48.9016ZM101.675 49.311C101.664 49.3219 101.664 49.3541 101.675 49.3828C101.69 49.4209 101.681 49.4292 101.641 49.414C101.611 49.4025 101.58 49.4053 101.57 49.4201C101.561 49.435 101.587 49.4456 101.627 49.4435C101.679 49.4409 101.701 49.4179 101.704 49.3655C101.708 49.2858 101.705 49.2807 101.675 49.311ZM69.8389 49.9285C69.8389 49.9579 69.8697 49.9985 69.9075 50.0187C69.9452 50.0389 69.9908 50.0977 70.0089 50.1494C70.029 50.2073 70.0779 50.2561 70.1357 50.2762C70.1874 50.2943 70.2463 50.3399 70.2665 50.3776C70.2867 50.4154 70.3273 50.4463 70.3566 50.4463C70.432 50.4463 70.3389 50.3451 70.1894 50.2647C70.129 50.2321 70.053 50.1561 70.0205 50.0957C69.94 49.9463 69.8389 49.8532 69.8389 49.9285ZM101.129 50.0179C101.072 50.0993 101.014 50.1772 101 50.1914C100.986 50.2054 100.908 50.2636 100.827 50.3208C100.736 50.3847 100.696 50.4304 100.723 50.4395C100.748 50.4477 100.799 50.4167 100.838 50.3706C100.877 50.3246 100.941 50.2775 100.981 50.2659C101.021 50.2544 101.063 50.2122 101.075 50.1724C101.086 50.1325 101.133 50.0681 101.179 50.0293C101.225 49.9906 101.256 49.9389 101.248 49.9145C101.239 49.8872 101.193 49.927 101.129 50.0179ZM100.223 50.763C100.212 50.7739 100.212 50.8061 100.223 50.8348C100.238 50.8729 100.229 50.8812 100.189 50.866C100.159 50.8545 100.128 50.8573 100.118 50.8721C100.109 50.887 100.135 50.8976 100.175 50.8955C100.227 50.8929 100.249 50.8699 100.252 50.8175C100.256 50.7378 100.253 50.7327 100.223 50.763ZM99.8403 50.966C99.8379 51.0069 99.8201 51.0403 99.8009 51.0403C99.7817 51.0403 99.776 51.0565 99.7882 51.0762C99.8242 51.1345 99.8762 51.0571 99.8596 50.9698C99.8451 50.8931 99.8448 50.8931 99.8403 50.966ZM71.774 51.1292C71.7346 51.1687 71.7527 51.2383 71.8024 51.2383C71.8296 51.2383 71.8519 51.2169 71.8519 51.1908C71.8519 51.1356 71.8048 51.0984 71.774 51.1292ZM99.2419 51.1888C99.2419 51.216 99.2642 51.2383 99.2914 51.2383C99.3186 51.2383 99.3409 51.216 99.3409 51.1888C99.3409 51.1616 99.3186 51.1393 99.2914 51.1393C99.2642 51.1393 99.2419 51.1616 99.2419 51.1888Z" fill="#3461FF"/>
<path fill-rule="evenodd" clip-rule="evenodd" d="M100.914 19.2892C100.903 19.3062 100.915 19.3373 100.941 19.3584C100.968 19.3811 100.995 19.3841 101.006 19.3659C101.017 19.3489 101.004 19.3178 100.979 19.2967C100.952 19.274 100.925 19.271 100.914 19.2892ZM97.8248 20.4415C97.8248 20.4596 97.8471 20.4929 97.8743 20.5156C97.902 20.5385 97.9238 20.542 97.9238 20.5236C97.9238 20.5055 97.9016 20.4722 97.8743 20.4496C97.8467 20.4266 97.8248 20.4231 97.8248 20.4415ZM97.9568 20.5135C97.9568 20.5563 97.9779 20.5759 98.0205 20.5726C98.0556 20.57 98.0769 20.5558 98.0678 20.5411C98.0587 20.5265 98.035 20.5245 98.0149 20.5369C97.9916 20.5514 97.9861 20.5398 97.9997 20.5045C98.0113 20.4743 98.0064 20.4496 97.9888 20.4496C97.9712 20.4496 97.9568 20.4783 97.9568 20.5135ZM87.29 30.3729C87.331 30.3808 87.3904 30.3805 87.422 30.3722C87.4535 30.364 87.4199 30.3575 87.3473 30.3579C87.2747 30.3582 87.2489 30.365 87.29 30.3729ZM83.5111 32.8803C83.5429 32.8886 83.5948 32.8886 83.6266 32.8803C83.6584 32.872 83.6324 32.8652 83.5688 32.8652C83.5053 32.8652 83.4793 32.872 83.5111 32.8803ZM85.4319 35.1791C85.3567 35.2618 85.3464 35.3116 85.4187 35.2427C85.4611 35.2024 85.4891 35.163 85.481 35.1553C85.4729 35.1476 85.4508 35.1583 85.4319 35.1791ZM99.8784 42.1306C99.8704 46.7194 99.8635 47.1754 99.8038 47.0789C99.7418 46.9786 99.6785 47.2739 99.6744 47.6828C99.6731 47.816 99.6631 47.8396 99.608 47.8396C99.5255 47.8396 99.4803 47.9243 99.4701 48.0983C99.4626 48.2238 99.4542 48.2356 99.3721 48.2356C99.2994 48.2356 99.278 48.2542 99.2608 48.3324C99.2448 48.4052 99.2155 48.4345 99.1427 48.4505C99.0645 48.4677 99.0458 48.4891 99.0458 48.5618C99.0458 48.6439 99.034 48.6523 98.9086 48.6598C98.7346 48.67 98.6498 48.7152 98.6498 48.7977C98.6498 48.8534 98.6254 48.8631 98.4766 48.8668C98.2973 48.871 98.1953 48.8793 98.1383 48.8942C98.1202 48.8989 98.0756 48.9007 98.0392 48.8979C98.0028 48.8951 97.9434 48.9153 97.9072 48.9427C97.8569 48.9807 97.8531 48.9932 97.8908 48.9958C97.9246 48.9981 97.9193 49.0082 97.8743 49.0276C97.838 49.0431 95.6254 49.0606 92.9573 49.0662C88.5278 49.0756 88.3458 49.078 90.8618 49.0936C92.4575 49.1035 93.2492 49.1169 92.7428 49.1255C91.9396 49.1391 91.9074 49.1417 92.3468 49.1581C92.61 49.168 92.7882 49.1851 92.7428 49.1963C92.6942 49.2082 92.7517 49.2184 92.8831 49.2211C93.125 49.226 93.1761 49.2758 93.0233 49.3576C92.978 49.3818 92.9408 49.4118 92.9408 49.4243C92.9408 49.4367 92.8136 49.5715 92.6582 49.7239C92.5028 49.8763 92.358 50.0207 92.3365 50.0447C92.2967 50.089 92.2061 50.1799 92.1373 50.2446C92.0602 50.317 91.7472 50.6295 91.7094 50.6716C91.6879 50.6956 91.6422 50.7402 91.6079 50.7706C91.5735 50.8011 91.5215 50.8541 91.4924 50.8883C91.4632 50.9225 91.3985 50.9881 91.3486 51.034C91.1094 51.2539 90.816 51.2386 95.2508 51.2386C98.5892 51.2386 99.2438 51.2312 99.2438 51.1938C99.2438 51.1618 99.3142 51.1438 99.4912 51.1304C99.7386 51.1117 99.8488 51.0589 99.8302 50.968C99.8246 50.9406 99.8629 50.9216 99.9368 50.9156C100 50.9103 100.075 50.8968 100.102 50.8854C100.129 50.8741 100.162 50.8635 100.176 50.8619C100.19 50.8604 100.202 50.8442 100.204 50.8261C100.209 50.7616 100.276 50.7106 100.355 50.7106C100.414 50.7106 100.444 50.685 100.469 50.6135C100.493 50.5437 100.528 50.5135 100.591 50.5063C100.66 50.4984 100.682 50.4758 100.69 50.4053C100.698 50.3354 100.718 50.3146 100.777 50.3146C100.878 50.3146 101.125 50.0676 101.125 49.9664C101.125 49.9075 101.146 49.8875 101.216 49.8795C101.286 49.8714 101.309 49.8494 101.317 49.7809C101.324 49.7174 101.354 49.6832 101.424 49.6588C101.495 49.6339 101.521 49.6039 101.521 49.5448C101.521 49.4702 101.605 49.3637 101.65 49.3823C101.661 49.3868 101.669 49.3769 101.669 49.3603C101.669 49.3437 101.68 49.3189 101.694 49.3053C101.708 49.2917 101.719 49.2318 101.719 49.1723C101.719 49.087 101.738 49.055 101.809 49.0208C101.91 48.9727 101.94 48.8818 101.946 48.6068C101.949 48.4765 101.962 48.4336 101.999 48.4336C102.043 48.4336 102.049 47.9679 102.049 44.4406C102.049 40.0057 102.064 40.2991 101.844 40.5383C101.798 40.5882 101.733 40.6529 101.699 40.6821C101.664 40.7112 101.611 40.7632 101.581 40.7976C101.55 40.8319 101.506 40.8776 101.482 40.8991C101.44 40.9368 101.133 41.2446 101.05 41.332C100.977 41.4091 100.899 41.4863 100.855 41.5262C100.831 41.5477 100.687 41.6925 100.534 41.8479C100.382 42.0033 100.247 42.1306 100.235 42.1306C100.222 42.1306 100.192 42.1677 100.168 42.2131C100.086 42.3658 100.036 42.3147 100.031 42.0728C100.029 41.9414 100.019 41.8839 100.007 41.9326C99.9954 41.9779 99.9783 41.7997 99.9684 41.5366C99.952 41.0971 99.9494 41.1293 99.9358 41.9326C99.9272 42.4389 99.9137 41.6472 99.9038 40.0515C99.8886 37.5844 99.8859 37.8019 99.8784 42.1306ZM94.0711 37.8642C94.121 37.8717 94.2027 37.8717 94.2526 37.8642C94.3025 37.8566 94.2617 37.8505 94.1618 37.8505C94.062 37.8505 94.0212 37.8566 94.0711 37.8642ZM92.8336 38.274C92.6573 38.4514 92.6497 38.4676 92.7428 38.4676C92.7844 38.4676 92.8088 38.4455 92.8088 38.4081C92.8088 38.3335 92.8711 38.2696 92.9436 38.2696C92.9975 38.2696 93.0556 38.1484 93.012 38.1269C93.0001 38.1211 92.9198 38.1872 92.8336 38.274ZM95.7678 38.73C95.8071 38.7466 95.8557 38.7872 95.8759 38.8202C95.9085 38.8734 95.9116 38.8708 95.9035 38.7976C95.8962 38.732 95.874 38.7135 95.7953 38.7073C95.7079 38.7005 95.7047 38.7032 95.7678 38.73ZM90.6028 39.4229C90.6101 39.4447 90.6267 39.4614 90.6399 39.46C90.6794 39.456 90.6718 39.4107 90.6292 39.3965C90.6074 39.3892 90.5955 39.4011 90.6028 39.4229ZM90.4658 40.0166C90.4658 40.04 90.4444 40.0504 90.4174 40.04C90.364 40.0195 90.3156 40.0694 90.3615 40.0977C90.4008 40.122 90.5213 40.03 90.4905 39.9992C90.477 39.9856 90.4658 39.9935 90.4658 40.0166ZM90.118 40.3508C90.083 40.4074 90.1143 40.4129 90.1834 40.3623C90.237 40.3232 90.2386 40.3156 90.1936 40.3156C90.164 40.3156 90.13 40.3314 90.118 40.3508ZM79.762 40.4362C79.7719 40.4754 79.8104 40.5154 79.8477 40.5252C79.9024 40.5395 79.9068 40.5352 79.8709 40.5035C79.8464 40.4818 79.8078 40.4418 79.7852 40.4146C79.7503 40.3725 79.7469 40.3758 79.762 40.4362ZM92.6328 40.706C92.6389 40.7302 92.6438 40.7562 92.6438 40.7638C92.6438 40.7714 92.6562 40.7776 92.6713 40.7776C92.6865 40.7776 92.6989 40.7559 92.6989 40.7295C92.6989 40.7031 92.6877 40.6883 92.6741 40.6967C92.6606 40.7051 92.6432 40.7007 92.6356 40.687C92.6279 40.6733 92.6267 40.6819 92.6328 40.706ZM95.6509 40.7338C95.6316 40.7669 95.6154 40.7829 95.6148 40.7693C95.6143 40.7557 95.5832 40.7752 95.5458 40.8126C95.5083 40.8501 95.4823 40.8928 95.488 40.9076C95.5086 40.9612 95.6486 40.8762 95.6812 40.7903C95.7209 40.6859 95.7007 40.6482 95.6509 40.7338ZM89.7541 40.8188C89.7414 40.8596 89.7144 40.9039 89.6941 40.9173C89.6673 40.935 89.6675 40.9416 89.695 40.9421C89.7604 40.943 89.8836 40.8232 89.8586 40.7829C89.8217 40.7231 89.7794 40.7375 89.7541 40.8188ZM95.3174 41.0574C95.2808 41.0964 95.2508 41.1389 95.2508 41.1518C95.2508 41.1901 95.4393 41.081 95.4582 41.0317C95.4851 40.9614 95.3915 40.9785 95.3174 41.0574ZM93.2478 41.2313C93.2464 41.3131 93.2977 41.3679 93.3707 41.3624C93.4453 41.3568 93.4218 41.323 93.3428 41.3225C93.3123 41.3222 93.2872 41.2971 93.2869 41.2666C93.2864 41.1919 93.2492 41.1582 93.2478 41.2313ZM95.0566 41.197C95.0546 41.219 95.0203 41.2673 94.9807 41.3042C94.9399 41.3422 94.9265 41.3716 94.95 41.3716C95.0166 41.3716 95.092 41.2775 95.0756 41.2147C95.0673 41.183 95.0588 41.175 95.0566 41.197ZM70.0916 50.1112C70.0812 50.1282 70.0934 50.1593 70.1188 50.1804C70.1461 50.2031 70.1727 50.2061 70.184 50.1879C70.1945 50.1709 70.1823 50.1398 70.1569 50.1187C70.1296 50.096 70.1029 50.093 70.0916 50.1112Z" fill="#3461FF"/>
<path fill-rule="evenodd" clip-rule="evenodd" d="M99.1759 18.2852C99.1759 18.3105 99.1965 18.3391 99.2217 18.3487C99.2538 18.3611 99.2624 18.3473 99.2508 18.3028C99.2316 18.2297 99.1759 18.2166 99.1759 18.2852ZM100.859 19.2168C100.859 19.2362 100.888 19.2786 100.924 19.311C100.96 19.3435 100.983 19.3798 100.976 19.3918C100.969 19.4037 100.993 19.4158 101.031 19.4187L101.1 19.4238L101.03 19.3749C100.992 19.348 100.937 19.2935 100.909 19.2538C100.882 19.2141 100.859 19.1974 100.859 19.2168ZM101.55 20.1056C101.515 20.148 101.516 20.1552 101.555 20.1469C101.581 20.1412 101.597 20.1573 101.591 20.1836C101.583 20.2223 101.59 20.223 101.632 20.1878C101.695 20.1362 101.698 20.1174 101.643 20.1285C101.62 20.133 101.605 20.1182 101.61 20.0955C101.621 20.0403 101.602 20.0435 101.55 20.1056ZM101.731 20.5487C101.731 20.6039 101.825 20.6174 101.873 20.5691C101.887 20.5552 101.876 20.5487 101.849 20.5548C101.822 20.5608 101.802 20.5496 101.806 20.53C101.809 20.5103 101.794 20.4942 101.772 20.4942C101.749 20.4942 101.731 20.5187 101.731 20.5487ZM99.7558 22.0968C99.696 22.1202 99.6957 22.1231 99.7513 22.1444C99.7894 22.159 99.8045 22.1894 99.7939 22.2302C99.782 22.2754 99.7909 22.2881 99.825 22.275C99.8541 22.2638 99.864 22.2359 99.8503 22.2032C99.838 22.1738 99.8273 22.1312 99.8265 22.1085C99.8256 22.0858 99.8237 22.0683 99.8221 22.0695C99.8206 22.0709 99.7907 22.0831 99.7558 22.0968ZM99.8813 26.2912C99.8797 28.2968 99.8882 31.4227 99.9001 33.2377C99.912 35.0527 99.9247 36.3261 99.9283 36.0675C99.9369 35.4476 99.9983 35.4349 100.008 36.051C100.014 36.4484 100.018 36.4166 100.034 35.7952C100.044 35.405 100.056 35.2157 100.06 35.3745C100.064 35.5333 100.074 35.6632 100.083 35.6632C100.092 35.6632 100.514 35.2474 101.021 34.7392C101.528 34.231 101.967 33.8152 101.995 33.8152C102.042 33.8152 102.047 33.3211 102.047 28.6177C102.047 24.124 102.04 23.4202 102 23.4202C101.973 23.4202 101.528 23.8449 101.011 24.3641L100.069 25.308L100.059 24.9169C100.052 24.658 100.046 24.7535 100.041 25.1995C100.03 26.2784 99.9912 25.9375 99.9679 24.5502L99.9463 23.2717L99.9329 24.2782L99.9195 25.2847L99.9019 23.9647C99.8917 23.2046 99.883 24.1913 99.8813 26.2912ZM89.7408 28.4163C89.7097 28.4537 89.7104 28.4626 89.7443 28.4576C89.7899 28.4509 89.8193 28.4076 89.7948 28.3832C89.7868 28.3752 89.7625 28.3901 89.7408 28.4163ZM85.006 32.5553C84.9954 32.5726 85.0075 32.6041 85.0331 32.6253C85.0698 32.6558 85.078 32.6533 85.0722 32.6135C85.0622 32.5454 85.0298 32.5168 85.006 32.5553ZM90.5963 34.1617C90.5824 35.3856 90.58 35.4289 90.5639 34.7557C90.5438 33.9226 90.5095 33.9315 90.4825 34.7766C90.4607 35.461 90.3679 35.8274 90.3625 35.2507C90.3609 35.0874 90.351 34.976 90.3404 35.0032C90.3297 35.0305 89.8613 35.5131 89.2995 36.0757C88.7376 36.6384 88.2657 37.1284 88.251 37.1647C88.2347 37.2045 88.2207 37.0471 88.2156 36.7687L88.2072 36.3067L88.1888 36.7413C88.1728 37.1188 88.1227 37.4007 88.1199 37.129C88.1191 37.0483 88.1135 37.042 88.0856 37.0899C88.0652 37.1248 88.0559 37.4093 88.0618 37.821C88.0671 38.1917 88.0602 38.4881 88.0466 38.4797C88.033 38.4712 88.0201 38.0531 88.018 37.5505C88.0159 37.0479 88.0027 36.5922 87.9889 36.5377C87.975 36.4833 87.9619 36.9058 87.9598 37.4766C87.9572 38.1619 87.9447 38.5033 87.9232 38.4818C87.9027 38.4613 87.8871 37.838 87.8814 36.8169L87.8723 35.1847L87.8617 36.9337C87.856 37.8957 87.8508 38.731 87.8502 38.79C87.8493 38.8811 87.8371 38.8972 87.7694 38.8972C87.7256 38.8972 87.6812 38.9195 87.6708 38.9467C87.6604 38.974 87.6368 38.9962 87.6183 38.9962C87.599 38.9962 87.6022 38.9753 87.6259 38.9467C87.6601 38.9055 87.6557 38.8972 87.5989 38.8972C87.5614 38.8972 87.5223 38.9108 87.5121 38.9274C87.5018 38.9441 87.2306 38.9595 86.9094 38.9617C86.5881 38.964 86.3178 38.9733 86.3086 38.9825C86.2994 38.9918 86.5535 38.9949 86.8732 38.9895C87.1931 38.9841 87.4478 38.9909 87.4393 39.0045C87.4309 39.0181 87.1761 39.0307 86.8731 39.0325C86.5702 39.0343 86.2852 39.0471 86.2399 39.0607L86.1574 39.0857L86.2399 39.1066C86.2852 39.1181 86.3966 39.1324 86.4874 39.1384L86.6524 39.1494L86.4626 39.1553C86.3583 39.1586 86.2729 39.1761 86.2729 39.1942C86.2729 39.2124 86.232 39.2283 86.1821 39.2295C86.0661 39.2325 85.9233 39.2873 86.022 39.2909C86.0644 39.2925 85.7746 39.6024 85.1263 40.2487C84.5991 40.7741 84.1848 41.211 84.2056 41.2195C84.2264 41.228 83.9167 41.2391 83.5174 41.244L82.7914 41.2531L83.5009 41.2744C83.8911 41.286 84.2178 41.301 84.2269 41.3076C84.236 41.3142 84.0578 41.3285 83.8309 41.3394C83.604 41.3503 84.6398 41.3618 86.1326 41.365C88.2585 41.3695 88.847 41.362 88.8474 41.3302C88.8477 41.3043 88.8593 41.3075 88.8799 41.3392C88.9077 41.3822 88.912 41.3816 88.9124 41.3345C88.913 41.2684 89.0007 41.2286 89.0254 41.2833C89.0352 41.305 89.0398 41.2856 89.0358 41.2402C89.0294 41.1696 89.0426 41.1572 89.1274 41.154C89.3288 41.1466 89.3461 41.1418 89.3225 41.1C89.3038 41.067 89.3081 41.067 89.3436 41.1C89.393 41.1459 89.4428 41.1546 89.4373 41.1165C89.4274 41.0483 89.4872 40.9413 89.5267 40.9564C89.5509 40.9658 89.5797 40.9589 89.5906 40.9413C89.6015 40.9236 89.6243 40.9177 89.6412 40.9281C89.658 40.9386 89.6719 40.9322 89.6719 40.9139C89.6719 40.8515 89.8324 40.7056 89.8733 40.7309C89.8952 40.7443 89.9051 40.742 89.8954 40.7256C89.8625 40.6703 89.9328 40.5472 89.9973 40.5472C90.0628 40.5472 90.1009 40.4871 90.1009 40.3836C90.1009 40.3433 90.135 40.3176 90.2081 40.3029C90.2924 40.2859 90.3047 40.2745 90.2659 40.2497C90.233 40.2288 90.2302 40.2181 90.2576 40.2177C90.2803 40.2175 90.2989 40.1831 90.2989 40.1413C90.2989 40.0996 90.3174 40.0455 90.3401 40.021C90.3733 39.9852 90.3728 39.9814 90.3377 40.0013C90.3015 40.0219 90.3014 40.0142 90.3374 39.9567C90.3924 39.8686 90.4419 39.8664 90.4144 39.9532C90.4012 39.9949 90.4084 40.0192 90.4342 40.0192C90.4565 40.0192 90.4651 40.0095 90.4532 39.9975C90.4412 39.9856 90.4438 39.9596 90.459 39.9398C90.5097 39.8736 90.5319 39.783 90.4914 39.8081C90.4658 39.824 90.4629 39.8166 90.4824 39.7851C90.4981 39.7596 90.516 39.6726 90.522 39.5916C90.5281 39.5107 90.5479 39.4268 90.5659 39.4051C90.5882 39.3782 90.5851 39.3602 90.556 39.3485C90.5267 39.3368 90.5257 39.3306 90.5526 39.3289C90.5743 39.3274 90.6012 39.3411 90.6124 39.3592C90.6236 39.3774 90.6505 39.392 90.6721 39.3917C90.6957 39.3914 90.6917 39.3785 90.6619 39.3592C90.6289 39.3379 90.6262 39.3271 90.6536 39.3267C90.6763 39.3265 90.6949 39.3098 90.6949 39.2897C90.6949 39.2696 90.6731 39.2616 90.6464 39.2718C90.6198 39.282 90.5889 39.2757 90.578 39.258C90.567 39.2402 90.5702 39.2277 90.5852 39.2303C90.7011 39.2505 90.7162 39.2263 90.7056 39.0375C90.6997 38.9331 90.6877 38.8284 90.6788 38.8048C90.6699 38.7812 90.6773 38.7708 90.6953 38.782C90.7167 38.7952 90.7257 37.9871 90.7217 36.4325C90.7174 34.8106 90.7085 34.2918 90.6934 34.7887C90.6813 35.188 90.6658 35.5222 90.659 35.5312C90.6521 35.5403 90.6385 34.9389 90.6289 34.1947L90.6113 32.8417L90.5963 34.1617ZM87.5689 34.7965C87.5591 34.8219 87.5675 34.8591 87.5878 34.8793C87.6146 34.9061 87.6208 34.8971 87.6109 34.846C87.6012 34.7957 87.6107 34.7811 87.6446 34.7942C87.6706 34.8042 87.6919 34.7983 87.6919 34.7812C87.6919 34.7324 87.5886 34.7451 87.5689 34.7965ZM86.487 34.9708C86.4757 34.9892 86.4525 34.9957 86.4356 34.9853C86.4187 34.9749 86.4049 34.9882 86.4049 35.015C86.4049 35.0418 86.3863 35.0712 86.3636 35.0804C86.3366 35.0913 86.3403 35.0979 86.3744 35.0996C86.403 35.1011 86.4612 35.0651 86.5039 35.0197C86.5465 34.9744 86.5648 34.9372 86.5445 34.9372C86.5243 34.9372 86.4984 34.9523 86.487 34.9708ZM93.4916 37.8682C93.4417 37.8739 93.4009 37.8934 93.4009 37.9114C93.4009 37.9294 93.3876 37.9359 93.3713 37.9259C93.3551 37.9158 93.333 37.9306 93.3222 37.9586C93.3089 37.9933 93.3157 38.0018 93.3435 37.9851C93.3716 37.9683 93.3704 37.9778 93.34 38.0153C93.3156 38.0455 93.2859 38.0678 93.274 38.0649C93.182 38.0426 93.0357 38.1176 93.0446 38.1825C93.0518 38.235 93.0348 38.2565 92.9801 38.2643C92.9393 38.2701 92.9059 38.2895 92.9059 38.3074C92.9059 38.3254 92.892 38.3316 92.8752 38.3211C92.8583 38.3107 92.8351 38.3173 92.8237 38.3357C92.8123 38.3541 92.8186 38.3692 92.8377 38.3692C92.8568 38.3692 92.8398 38.4068 92.7999 38.4526C92.76 38.4986 92.7094 38.5292 92.6873 38.5208C92.6315 38.4993 92.6058 38.5833 92.6527 38.6341C92.6821 38.6658 92.6821 38.6707 92.6528 38.6543C92.6286 38.6407 92.606 38.6702 92.592 38.7339C92.5783 38.7964 92.541 38.8462 92.4944 38.8638C92.4143 38.8943 92.3672 40.1842 92.4464 40.1842C92.4631 40.1842 92.4769 40.2 92.4769 40.2192C92.4769 40.2384 92.4657 40.2473 92.4521 40.2388C92.4385 40.2304 92.4274 40.2578 92.4274 40.2997C92.4274 40.3416 92.4372 40.3699 92.4492 40.3624C92.4613 40.3549 92.4905 40.3925 92.514 40.4457C92.5376 40.4989 92.5686 40.5353 92.5829 40.5264C92.5972 40.5175 92.6089 40.5269 92.6089 40.5472C92.6089 40.5679 92.6269 40.5733 92.6501 40.5594C92.6811 40.5408 92.6807 40.5478 92.6486 40.5875C92.6027 40.644 92.6468 40.7005 92.7075 40.663C92.7263 40.6513 92.7317 40.6647 92.7203 40.6944C92.6977 40.7532 92.7664 40.8528 92.8106 40.8254C92.85 40.8011 92.9206 40.847 92.884 40.8731C92.8681 40.8845 92.8877 40.9283 92.9276 40.9705C92.9968 41.044 92.9993 41.0443 92.982 40.9783C92.9684 40.9263 92.9762 40.9139 93.0138 40.9284C93.0438 40.9399 93.0569 40.9728 93.0469 41.0114C93.0377 41.0465 93.0468 41.0752 93.067 41.0752C93.0873 41.0752 93.1039 41.1005 93.1039 41.1313C93.1039 41.1743 93.113 41.1784 93.1427 41.1487C93.1724 41.1189 93.1932 41.1193 93.2315 41.1503C93.2727 41.1836 93.2768 41.182 93.2548 41.1412C93.2401 41.114 93.2892 41.1586 93.3639 41.2402C93.4387 41.3219 93.4998 41.3718 93.4998 41.3512C93.4999 41.3306 93.5441 41.3072 93.5981 41.2993C93.6655 41.2894 93.6871 41.296 93.667 41.3203C93.6473 41.3443 93.6737 41.3565 93.7487 41.3581C93.8097 41.3594 93.852 41.3483 93.8427 41.3334C93.8335 41.3184 93.8553 41.3062 93.8912 41.3062C93.9271 41.3062 93.9622 41.3237 93.9693 41.3451C93.984 41.389 94.0609 41.3531 94.0609 41.3024C94.0609 41.2842 94.046 41.2785 94.0279 41.2897C94.0097 41.301 93.9949 41.296 93.9949 41.2787C93.9949 41.2614 94.017 41.2388 94.044 41.2284C94.0714 41.218 94.0896 41.2263 94.0852 41.2473C94.0654 41.3423 94.2549 41.3542 94.3334 41.2628C94.4268 41.1542 94.4443 41.1529 94.4694 41.2528C94.4928 41.3461 94.6085 41.3886 94.6371 41.3144C94.6477 41.2865 94.6487 41.256 94.6391 41.2465C94.6296 41.237 94.6219 41.2466 94.6219 41.2677C94.6219 41.2889 94.607 41.3062 94.5889 41.3062C94.5707 41.3062 94.5559 41.2831 94.5559 41.2548C94.5559 41.2265 94.5436 41.2109 94.5285 41.2203C94.5135 41.2296 94.5036 41.2044 94.5065 41.1644C94.5094 41.1245 94.5279 41.0917 94.5476 41.0917C94.5673 41.0917 94.5945 41.0806 94.6081 41.067C94.6217 41.0534 94.661 41.0422 94.6953 41.0422C94.7346 41.0422 94.7489 41.0279 94.7339 41.0036C94.7177 40.9775 94.7282 40.972 94.7667 40.9867C94.7978 40.9987 94.8153 40.9955 94.8054 40.9796C94.7887 40.9525 94.8733 40.8607 94.9151 40.8607C94.9256 40.8607 94.9344 40.8459 94.9347 40.8277C94.9351 40.8096 94.9835 40.7488 95.0422 40.6926C95.101 40.6363 95.1393 40.5806 95.1274 40.5688C95.087 40.5283 95.1695 40.5471 95.2141 40.5885C95.2503 40.6221 95.2551 40.6196 95.2395 40.5751C95.2166 40.5099 95.3296 40.3919 95.3631 40.4461C95.3963 40.4999 95.4564 40.4878 95.4349 40.4317C95.4245 40.4045 95.434 40.382 95.4562 40.3817C95.4857 40.3813 95.4851 40.3741 95.4536 40.3541C95.4006 40.3205 95.4791 40.2423 95.5507 40.2573C95.6149 40.2709 95.6475 40.3272 95.6059 40.3529C95.5864 40.365 95.5811 40.392 95.5941 40.4132C95.612 40.442 95.6296 40.4416 95.666 40.4114C95.7046 40.3793 95.7254 40.3833 95.7703 40.431C95.8011 40.4637 95.8078 40.4802 95.7851 40.4675C95.7624 40.4548 95.7439 40.46 95.7439 40.4793C95.7439 40.5329 95.8095 40.5208 95.8316 40.4632C95.8439 40.4307 95.8112 40.3764 95.7421 40.3147C95.6374 40.2211 95.6016 40.2042 95.5294 40.2138C95.5112 40.2162 95.5291 40.1901 95.5692 40.1558C95.6093 40.1215 95.6337 40.0851 95.6236 40.075C95.6134 40.0648 95.629 40.0225 95.658 39.981C95.6982 39.9237 95.7109 39.9186 95.7109 39.9595C95.7109 39.9891 95.7327 40.0102 95.7594 40.0063C95.8219 39.9971 95.8666 39.9532 95.8134 39.9532C95.7911 39.9532 95.7836 39.9362 95.7964 39.9152C95.8128 39.8889 95.8336 39.8959 95.8644 39.9381C95.9267 40.0233 95.9198 39.9883 95.8429 39.829C95.8066 39.7539 95.7769 39.6479 95.7769 39.5935C95.7769 39.5364 95.7542 39.4818 95.7232 39.4644C95.6864 39.4439 95.6812 39.427 95.7067 39.4114C95.7271 39.3987 95.7439 39.4027 95.7439 39.4202C95.7439 39.4377 95.7704 39.4451 95.8027 39.4367C95.8535 39.4234 95.8597 39.4398 95.8485 39.5581C95.8413 39.6334 95.8518 39.7113 95.8717 39.7313C95.9025 39.7621 95.9056 39.0028 95.875 38.9302C95.8712 38.9212 95.8702 38.9015 95.8728 38.8865C95.8754 38.8716 95.864 38.8677 95.8474 38.8779C95.8309 38.8882 95.7997 38.8753 95.7782 38.8493C95.7567 38.8234 95.7142 38.8098 95.6837 38.8192C95.6441 38.8314 95.6467 38.8246 95.6926 38.7954C95.7406 38.7651 95.7601 38.7644 95.7696 38.793C95.7766 38.814 95.8045 38.8312 95.8315 38.8312C95.8748 38.8312 95.8747 38.8254 95.8311 38.7817C95.8039 38.7545 95.7614 38.7322 95.7368 38.7322C95.6944 38.7322 95.6873 38.7103 95.669 38.5209C95.6648 38.4772 95.6468 38.4506 95.629 38.4616C95.5649 38.5012 95.4767 38.4912 95.4939 38.4463C95.5032 38.4221 95.4969 38.4022 95.4799 38.4022C95.4629 38.4022 95.4574 38.38 95.4678 38.3529C95.4783 38.3258 95.5024 38.3132 95.5215 38.325C95.5432 38.3385 95.546 38.3303 95.5292 38.303C95.5087 38.2697 95.487 38.2782 95.4365 38.3391L95.3706 38.4187L95.3904 38.3397C95.4052 38.2805 95.4008 38.2702 95.3725 38.2984C95.3114 38.3595 95.2819 38.3423 95.2814 38.2455C95.2808 38.1464 95.2178 38.0114 95.2159 38.1052C95.2151 38.1466 95.2101 38.1472 95.1857 38.1087C95.1697 38.0834 95.1364 38.0703 95.1118 38.0798C95.0872 38.0892 95.048 38.0765 95.0246 38.0516C94.9902 38.0146 94.9902 38.0061 95.0248 38.0052C95.0499 38.0047 95.0434 37.9902 95.009 37.9702C94.9768 37.9515 94.9576 37.9247 94.9662 37.9107C94.9749 37.8967 94.961 37.8852 94.9354 37.8852C94.9097 37.8852 94.8978 37.8999 94.9089 37.9178C94.9215 37.9383 94.9118 37.9396 94.8827 37.9214C94.8572 37.9054 94.7621 37.8883 94.6714 37.8835C94.3798 37.8677 93.5853 37.8574 93.4916 37.8682ZM92.4995 38.7528C92.5164 38.7969 92.5086 38.8048 92.4644 38.7878C92.4305 38.7748 92.4156 38.7792 92.4276 38.7986C92.4584 38.8484 92.5429 38.8374 92.5429 38.7837C92.5429 38.7576 92.5282 38.727 92.5103 38.716C92.4908 38.7039 92.4864 38.7189 92.4995 38.7528ZM95.7903 39.7834C95.8085 39.8127 95.7881 39.8084 95.7314 39.7713C95.6662 39.7286 95.6459 39.6891 95.6492 39.6112L95.6535 39.5077L95.6779 39.6232L95.7022 39.7387L95.7106 39.6067L95.7191 39.4747L95.7409 39.6067C95.7529 39.6793 95.7751 39.7589 95.7903 39.7834ZM79.3654 39.6104C79.3853 39.6624 79.4292 39.6704 79.4561 39.6269C79.466 39.6109 79.4457 39.5903 79.4109 39.5812C79.3667 39.5697 79.3531 39.5784 79.3654 39.6104ZM95.6742 39.8751C95.6536 39.8999 95.62 39.92 95.5996 39.9197C95.5776 39.9194 95.5808 39.9076 95.6072 39.8909C95.6389 39.8707 95.6411 39.8558 95.6148 39.8395C95.5945 39.827 95.5868 39.8021 95.5978 39.7844C95.6103 39.7641 95.6352 39.7665 95.6648 39.791C95.7003 39.8206 95.7026 39.841 95.6742 39.8751ZM95.831 40.1677C95.8015 40.2445 95.8035 40.2502 95.8594 40.2502C95.9149 40.2502 95.9212 40.2218 95.88 40.1567C95.8577 40.1216 95.8478 40.1238 95.831 40.1677ZM95.4799 40.4482C95.4799 40.4664 95.4956 40.4812 95.5149 40.4812C95.5341 40.4812 95.5392 40.4984 95.5262 40.5194C95.5116 40.5429 95.5172 40.5485 95.5408 40.5339C95.5958 40.4999 95.5876 40.4152 95.5294 40.4152C95.5022 40.4152 95.4799 40.4301 95.4799 40.4482ZM95.6065 40.5707C95.5963 40.6391 95.6058 40.6824 95.6332 40.693C95.6867 40.7136 95.7243 40.6584 95.6768 40.6291C95.6528 40.6142 95.6552 40.5906 95.6846 40.5545C95.7108 40.5221 95.7124 40.5105 95.6889 40.5246C95.6678 40.5373 95.6441 40.529 95.6364 40.5061C95.6286 40.4834 95.6152 40.5124 95.6065 40.5707ZM89.9359 40.6278C89.9359 40.6539 89.9506 40.6844 89.9685 40.6955C89.9879 40.7075 89.9923 40.6926 89.9793 40.6587C89.9624 40.6146 89.9702 40.6067 90.0143 40.6236C90.0482 40.6367 90.0632 40.6323 90.0511 40.6128C90.0204 40.5631 89.9359 40.574 89.9359 40.6278ZM95.2932 40.6344C95.2961 40.6682 95.2823 40.6928 95.2627 40.6893C95.2429 40.6858 95.2268 40.7051 95.2268 40.7324C95.2268 40.7706 95.2424 40.7664 95.2943 40.7145C95.3441 40.6647 95.3521 40.6372 95.3249 40.6101C95.2977 40.5829 95.2894 40.5893 95.2932 40.6344ZM95.4017 40.7052C95.3928 40.7195 95.4254 40.7343 95.474 40.7379C95.542 40.743 95.551 40.7371 95.5129 40.7124C95.4523 40.673 95.4228 40.6711 95.4017 40.7052ZM95.229 40.8498C95.2196 40.8649 95.2425 40.8772 95.2799 40.8772C95.3173 40.8772 95.3479 40.8649 95.3479 40.8498C95.3479 40.8346 95.3249 40.8222 95.2969 40.8222C95.2689 40.8222 95.2383 40.8346 95.229 40.8498ZM94.9739 40.9242C94.9607 40.9585 94.9718 40.9677 95.0113 40.9554C95.062 40.9395 95.0624 40.942 95.015 40.9818C94.9862 41.0059 94.9686 41.0436 94.976 41.0653C94.9833 41.0871 94.9586 41.1241 94.9211 41.1475C94.8836 41.1709 94.8529 41.2148 94.8529 41.2451C94.8529 41.2838 94.8334 41.2949 94.7869 41.2828C94.7485 41.2727 94.7209 41.2818 94.7209 41.3043C94.7209 41.3257 94.7354 41.3341 94.7532 41.3231C94.771 41.3122 94.8145 41.3187 94.85 41.3377C94.908 41.3687 94.9129 41.3631 94.8983 41.2815C94.8829 41.1946 94.8842 41.1935 94.9308 41.2567C94.9874 41.3334 95.0226 41.3115 95.0295 41.1954C95.0338 41.1231 95.0463 41.1152 95.1334 41.13C95.2067 41.1425 95.22 41.1381 95.1844 41.1132C95.1581 41.0947 95.1222 41.0884 95.1046 41.0993C95.0864 41.1105 95.0815 41.0962 95.0931 41.0658C95.1084 41.026 95.0995 41.0179 95.0575 41.0336C95.0102 41.0513 95.008 41.0464 95.043 41.0033C95.0768 40.9617 95.076 40.9448 95.0387 40.9138C95.003 40.8842 94.9883 40.8866 94.9739 40.9242ZM80.4701 41.0132C80.4278 41.0808 80.4742 41.1284 80.522 41.0667C80.5854 40.9846 80.5931 40.9542 80.5504 40.9542C80.5265 40.9542 80.4903 40.9808 80.4701 41.0132ZM95.1589 40.9884C95.1476 41.0065 95.1579 41.0082 95.1834 40.9924C95.2146 40.9731 95.2214 40.9803 95.207 41.0176C95.1721 41.1086 95.2716 41.1071 95.3526 41.0153L95.4304 40.9272L95.3505 40.993C95.2914 41.0417 95.2754 41.0455 95.2891 41.0081C95.3094 40.9516 95.1924 40.934 95.1589 40.9884ZM93.4466 41.166C93.4577 41.1977 93.4755 41.2423 93.4862 41.265C93.4967 41.2877 93.4893 41.3062 93.4696 41.3062C93.45 41.3062 93.4339 41.2835 93.4339 41.2557C93.4339 41.2279 93.4117 41.1967 93.3845 41.1863C93.3575 41.1758 93.3435 41.154 93.3535 41.1378C93.3826 41.0907 93.4245 41.1034 93.4466 41.166ZM80.9011 41.241C80.8624 41.3029 80.8643 41.3047 80.9261 41.2661C80.9926 41.2245 81.0155 41.1742 80.9678 41.1742C80.954 41.1742 80.924 41.2043 80.9011 41.241ZM80.9436 41.3058C80.9317 41.3252 80.9464 41.3297 80.9801 41.3167C81.0142 41.3037 81.0286 41.3082 81.0162 41.3281C81.005 41.3463 81.0171 41.3613 81.0433 41.3613C81.0792 41.3613 81.0819 41.3505 81.0543 41.3172C81.0109 41.265 80.9713 41.2609 80.9436 41.3058ZM94.4071 41.3058C94.4187 41.3245 94.4055 41.3301 94.3761 41.3189C94.3479 41.308 94.3249 41.3156 94.3249 41.3357C94.3249 41.3558 94.3546 41.3722 94.3909 41.3722C94.4275 41.3722 94.4569 41.3502 94.4569 41.3227C94.4569 41.2955 94.4411 41.2732 94.4219 41.2732C94.4027 41.2732 94.3961 41.2879 94.4071 41.3058ZM71.2627 47.2095C71.229 47.2309 71.2267 47.254 71.2533 47.3037C71.2727 47.34 71.2801 47.3779 71.2699 47.3881C71.2597 47.3984 71.2829 47.3985 71.3214 47.3885C71.3855 47.3717 71.3867 47.3667 71.3358 47.3295C71.3027 47.3052 71.2886 47.2668 71.3009 47.2345C71.3249 47.1723 71.3232 47.1712 71.2627 47.2095ZM69.0469 48.3974C69.0469 48.4134 69.0755 48.434 69.1104 48.4431C69.155 48.4548 69.1687 48.4461 69.1564 48.414C69.1372 48.364 69.0469 48.3503 69.0469 48.3974ZM74.7724 49.0942L76.0924 49.1119L75.0859 49.1253L74.0794 49.1387L75.3579 49.1602C76.7451 49.1836 77.086 49.2219 76.0072 49.2333C75.5612 49.238 75.4656 49.244 75.7245 49.2509L76.1156 49.2614L75.1718 50.203C74.6526 50.7208 74.2279 51.1658 74.2279 51.1919C74.2279 51.2328 74.9317 51.2392 79.4254 51.2392C84.1287 51.2392 84.6229 51.2343 84.6229 51.1873C84.6229 51.1589 85.0387 50.7206 85.5469 50.2133C86.0551 49.7061 86.4709 49.284 86.4709 49.2752C86.4709 49.2664 86.3409 49.2559 86.1821 49.252C86.0233 49.248 86.2127 49.2364 86.6029 49.2262C87.2243 49.2101 87.256 49.2068 86.8586 49.2005C86.2425 49.1907 86.2552 49.1293 86.8751 49.1206C87.1338 49.1171 85.8604 49.1044 84.0454 49.0924C82.2304 49.0805 79.1045 49.072 77.0989 49.0737C74.9989 49.0753 74.0122 49.0841 74.7724 49.0942ZM70.1164 50.1615C70.1725 50.2195 70.2246 50.2629 70.2322 50.258C70.2399 50.253 70.2138 50.2145 70.1742 50.1724C70.1346 50.1303 70.1092 50.0889 70.1176 50.0804C70.1261 50.072 70.1063 50.063 70.0738 50.0606C70.0271 50.0571 70.0361 50.0785 70.1164 50.1615ZM71.3018 50.9639C71.3018 50.9863 71.3179 51.0017 71.3377 50.9982C71.3573 50.9946 71.3684 51.014 71.3624 51.0412C71.3563 51.0685 71.3628 51.0793 71.3768 51.0653C71.425 51.0171 71.4116 50.9233 71.3564 50.9233C71.3263 50.9233 71.3018 50.9417 71.3018 50.9639ZM71.7662 51.1124C71.7511 51.1367 71.7572 51.1415 71.783 51.1255C71.8086 51.1096 71.8299 51.1258 71.8415 51.1699C71.8647 51.2586 71.9839 51.264 71.9839 51.1763C71.9839 51.1297 71.9668 51.1179 71.9179 51.1307C71.881 51.1403 71.8519 51.1317 71.8519 51.1111C71.8519 51.0628 71.7963 51.0637 71.7662 51.1124Z" fill="#3461FF"/>
</g>
<defs>
<clipPath id="clip0_62_65978">
<rect width="33" height="33" fill="white" transform="translate(69.0469 18.2383)"/>
</clipPath>
</defs>
</svg>
