<svg width="171" height="91" viewBox="0 0 171 91" fill="none" xmlns="http://www.w3.org/2000/svg">
<rect x="1.05249" y="0.946048" width="168.989" height="88.9888" rx="19.4944" fill="white"/>
<rect x="1.05249" y="0.946048" width="168.989" height="88.9888" rx="19.4944" stroke="#EAEAEA" stroke-width="1.01124"/>
<path d="M97.8772 20.2858C96.1414 15.3421 91.5387 12.0566 86.2463 12.0566C81.7675 12.0566 77.7072 14.4278 75.5143 18.2944C75.0107 18.1859 74.4915 18.1316 73.9723 18.1316C69.8423 18.1316 66.4793 21.4946 66.4793 25.6247C66.4793 26.2911 66.5723 26.9652 66.7505 27.6316C64.0307 29.1039 62.3027 31.9554 62.3027 35.0936C62.3027 39.7661 66.1074 43.5707 70.7876 43.5707H78.1884V47.2646L75.2516 50.2013C75.106 50.347 75.0246 50.5438 75.0246 50.7492V53.3496C73.9406 53.6759 73.151 54.6902 73.151 55.8827C73.151 57.3395 74.3365 58.5328 75.801 58.5328C77.2578 58.5328 78.4511 57.3395 78.4511 55.8827C78.4511 54.6894 77.653 53.6743 76.5759 53.3489C76.5759 53.3489 76.5751 53.3489 76.5743 53.3489V51.07L79.5111 48.1332C79.6568 47.9875 79.7382 47.7907 79.7382 47.5854V43.5707H84.7741V53.3496C83.6892 53.6751 82.8989 54.6902 82.8989 55.8835C82.8989 57.3402 84.0844 58.5335 85.5489 58.5335C87.0134 58.5335 88.199 57.3402 88.199 55.8835C88.199 54.6902 87.4086 53.6751 86.3238 53.3496V43.5707H91.3597V47.5854C91.3597 47.7907 91.4411 47.9883 91.5867 48.1332L94.5235 51.07V53.3489C94.5235 53.3489 94.5227 53.3489 94.522 53.3489C93.4449 53.6743 92.6468 54.6894 92.6468 55.8827C92.6468 57.3395 93.8401 58.5328 95.2968 58.5328C96.7613 58.5328 97.9469 57.3395 97.9469 55.8827C97.9469 54.6902 97.1573 53.6751 96.0733 53.3496V50.7492C96.0733 50.5438 95.9919 50.3462 95.8462 50.2013L92.9095 47.2646V43.5707H97.1255C103.557 43.5707 108.795 38.3403 108.795 31.9089C108.795 25.7641 103.944 20.6655 97.8772 20.2858ZM76.9013 55.8835C76.9013 56.4879 76.4054 56.9838 75.801 56.9838C75.1889 56.9838 74.7007 56.4879 74.7007 55.8835C74.7007 55.2713 75.1889 54.7831 75.801 54.7831C76.4054 54.7831 76.9013 55.2713 76.9013 55.8835ZM86.6492 55.8835C86.6492 56.4879 86.1533 56.9838 85.5489 56.9838C84.9445 56.9838 84.4486 56.4879 84.4486 55.8835C84.4486 55.2713 84.9445 54.7831 85.5489 54.7831C86.1533 54.7831 86.6492 55.2713 86.6492 55.8835ZM96.3972 55.8835C96.3972 56.4879 95.909 56.9838 95.2968 56.9838C94.6924 56.9838 94.1965 56.4879 94.1965 55.8835C94.1965 55.2713 94.6924 54.7831 95.2968 54.7831C95.909 54.7831 96.3972 55.2713 96.3972 55.8835ZM77.8002 36.2792L79.226 33.3502C79.2415 33.3114 79.257 33.2804 79.2802 33.2494L82.4727 26.663C82.7361 26.1283 83.604 26.1283 83.8675 26.663L88.5477 36.2792C88.7337 36.6589 88.5709 37.1238 88.1835 37.3098C88.075 37.364 87.9588 37.3872 87.8503 37.3872C87.5636 37.3872 87.2846 37.2323 87.1529 36.9533L85.9209 34.4272H80.4193L79.1872 36.9533C79.0013 37.3408 78.5441 37.4957 78.1566 37.3098C77.7692 37.1238 77.6065 36.6589 77.8002 36.2792ZM91.3992 27.0039V36.6124C91.3992 37.0463 91.0505 37.3872 90.6243 37.3872C90.1982 37.3872 89.8495 37.0463 89.8495 36.6124V27.0039C89.8495 26.57 90.1982 26.2291 90.6243 26.2291C91.0505 26.2291 91.3992 26.57 91.3992 27.0039Z" fill="#3461FF"/>
<path d="M83.1691 28.7705L81.1699 32.8773H85.1683L83.1691 28.7705Z" fill="#3461FF"/>
<path d="M78.0171 77.9766L81.7524 67.3711H84.0962L87.8462 77.9766H85.8101L84.9238 75.3545H80.9321L80.0532 77.9766H78.0171ZM84.4111 73.8164L82.9683 69.5391H82.8804L81.4448 73.8164H84.4111ZM91.0103 77.9766H89.106V67.3711H91.0103V77.9766Z" fill="#898989"/>
</svg>
