<svg width="171" height="91" viewBox="0 0 171 91" fill="none" xmlns="http://www.w3.org/2000/svg">
<rect x="1.05249" y="0.946048" width="168.989" height="88.9888" rx="19.4944" fill="white"/>
<rect x="1.05249" y="0.946048" width="168.989" height="88.9888" rx="19.4944" stroke="#EAEAEA" stroke-width="1.01124"/>
<g clip-path="url(#clip0_62_66008)">
<path d="M95.6426 38.1292H98.6836L97.1507 33.5107L95.6426 38.1292Z" fill="#3461FF"/>
<path d="M85.549 15.7334C73.9805 15.7334 64.6035 25.1104 64.6035 36.6789C64.6035 48.2473 73.9805 57.6243 85.549 57.6243C97.1174 57.6243 106.494 48.2473 106.494 36.6789C106.494 25.1104 97.1174 15.7334 85.549 15.7334ZM75.5161 38.3244C75.5161 39.4633 75.3276 40.2186 74.9506 40.5917C74.5736 40.9635 73.8077 41.1507 72.6518 41.1507C71.4213 41.1507 70.6227 40.9701 70.2575 40.6114C69.8922 40.2527 69.709 39.4659 69.709 38.2537L69.7286 37.5965H71.3336C71.3597 37.9264 71.3728 38.1725 71.3728 38.3375C71.3728 38.4933 71.3794 38.6818 71.3925 38.903C71.4186 39.4397 71.8454 39.7081 72.6728 39.7081C73.1663 39.7081 73.4831 39.6112 73.6245 39.4188C73.7645 39.2263 73.8352 38.7917 73.8352 38.1162V32.2044H75.5174L75.5161 38.3244ZM83.0067 41.0735L82.4412 39.3717H78.6147L78.0623 41.0735H76.2832L79.2313 32.207H81.7592L84.753 41.0735H83.0067ZM87.5336 41.0735L84.702 32.207H86.4483L88.1122 37.2287C88.268 37.7091 88.4997 38.5142 88.8073 39.6453H88.8518L89.0207 39.0405C89.2288 38.2877 89.4069 37.6855 89.5535 37.2352L91.1977 32.207H92.9768L90.1177 41.0735H87.5336ZM99.6413 41.0735L99.0758 39.3717H95.2493L94.6969 41.0735H92.9178L95.8672 32.207H98.3938L101.388 41.0735H99.6413Z" fill="#3461FF"/>
<path d="M79.0117 38.1292H82.0514L80.5185 33.5107L79.0117 38.1292Z" fill="#3461FF"/>
</g>
<path d="M73.7612 67.3711V74.8271C73.7612 75.501 73.6196 76.0869 73.3364 76.585C73.0532 77.0781 72.6528 77.459 72.1353 77.7275C71.6226 77.9912 71.0269 78.123 70.3481 78.123C69.7183 78.123 69.1543 78.0107 68.6562 77.7861C68.1631 77.5566 67.7749 77.2197 67.4917 76.7754C67.2085 76.3311 67.0669 75.7939 67.0669 75.1641H68.9712C68.9712 75.5938 69.103 75.9331 69.3667 76.1821C69.6353 76.4312 69.9868 76.5557 70.4214 76.5557C70.8853 76.5557 71.2417 76.4092 71.4907 76.1162C71.7397 75.8184 71.8667 75.3887 71.8716 74.8271V67.3711H73.7612ZM75.0356 77.9766L78.771 67.3711H81.1147L84.8647 77.9766H82.8286L81.9424 75.3545H77.9507L77.0718 77.9766H75.0356ZM81.4297 73.8164L79.9868 69.5391H79.8989L78.4634 73.8164H81.4297ZM89.0688 75.7354H89.186L91.9546 67.3711H94.0493L90.2993 77.9766H87.9556L84.2202 67.3711H86.3149L89.0688 75.7354ZM93.3755 77.9766L97.1108 67.3711H99.4546L103.205 77.9766H101.168L100.282 75.3545H96.2905L95.4116 77.9766H93.3755ZM99.7695 73.8164L98.3267 69.5391H98.2388L96.8032 73.8164H99.7695Z" fill="#898989"/>
<defs>
<clipPath id="clip0_62_66008">
<rect width="41.8909" height="41.8909" fill="white" transform="translate(64.6035 15.7334)"/>
</clipPath>
</defs>
</svg>
