<svg width="302" height="157" viewBox="0 0 302 157" fill="none" xmlns="http://www.w3.org/2000/svg">
<g clip-path="url(#clip0_62_61177)">
<path d="M254.67 149.393C251.744 149.393 248.909 148.294 246.678 146.214L174.905 79.2833C171.787 76.3761 170.498 72.1609 171.457 68.0073C172.416 63.8538 175.423 60.6298 179.499 59.384L273.349 30.6911C277.426 29.4442 281.72 30.4365 284.838 33.3432C287.955 36.2504 289.244 40.4661 288.285 44.6192L266.209 140.242C265.25 144.395 262.244 147.619 258.167 148.866C257.009 149.22 255.832 149.393 254.67 149.393ZM175.181 78.9859L246.955 145.916C249.965 148.723 254.113 149.68 258.048 148.477C261.984 147.273 264.887 144.161 265.813 140.151L287.889 44.5279C288.815 40.5173 287.571 36.4472 284.56 33.6401C281.55 30.8329 277.402 29.8757 273.467 31.0792L179.617 59.7722C175.68 60.9757 172.778 64.088 171.852 68.0986C170.927 72.1087 172.171 76.1787 175.181 78.9859Z" fill="url(#paint0_linear_62_61177)"/>
<path d="M234.406 156.142C234.264 156.142 234.121 156.14 233.977 156.135C229.717 155.986 225.978 153.65 223.977 149.886L177.904 63.2352C175.902 59.4714 176.056 55.0661 178.315 51.4513C180.574 47.8365 184.459 45.7687 188.727 45.9155L286.805 49.3406C291.065 49.4896 294.803 51.8251 296.805 55.5889C298.806 59.3527 298.652 63.7581 296.393 67.3729L244.388 150.599C242.205 154.092 238.497 156.142 234.406 156.142ZM188.298 46.3141C184.347 46.3141 180.767 48.2933 178.66 51.6662C176.479 55.1568 176.33 59.4104 178.263 63.0445L224.335 149.695C226.268 153.329 229.877 155.585 233.991 155.729C238.104 155.873 241.862 153.874 244.044 150.384L296.049 67.1579C298.23 63.6674 298.378 59.4137 296.447 55.7797C294.514 52.1456 290.905 49.8899 286.791 49.7464L188.712 46.3212C188.574 46.3163 188.436 46.3141 188.298 46.3141Z" fill="url(#paint1_linear_62_61177)"/>
<path d="M213.002 155.931C211.576 155.931 210.134 155.668 208.738 155.133C204.758 153.605 201.984 150.179 201.317 145.969L185.965 49.0389C185.298 44.8287 186.878 40.7136 190.191 38.0312C193.504 35.3483 197.857 34.6588 201.837 36.1867L293.457 71.3561C297.437 72.8834 300.211 76.3091 300.877 80.5193C301.544 84.7295 299.965 88.8446 296.652 91.5275L220.384 153.288C218.233 155.03 215.643 155.931 213.002 155.931ZM197.574 35.7941C195.024 35.7941 192.523 36.6644 190.446 38.3468C187.247 40.9368 185.722 44.9106 186.367 48.9757L201.719 145.906C202.362 149.971 205.041 153.279 208.884 154.754C212.727 156.229 216.93 155.563 220.128 152.973L296.397 91.2125C299.595 88.6225 301.12 84.6487 300.477 80.5831C299.833 76.518 297.154 73.2105 293.312 71.7354L201.692 36.566C200.344 36.0481 198.952 35.7941 197.574 35.7941Z" fill="url(#paint2_linear_62_61177)"/>
<path d="M192.735 148.74C190.023 148.74 187.372 147.791 185.198 145.967C181.932 143.227 180.425 139.084 181.165 134.886L198.207 38.2389C198.947 34.0408 201.78 30.6646 205.785 29.2066C209.791 27.7486 214.133 28.5139 217.398 31.254L292.576 94.3357C295.842 97.0758 297.35 101.218 296.609 105.416C295.869 109.614 293.035 112.991 289.03 114.449L196.809 148.014C195.471 148.502 194.095 148.74 192.735 148.74ZM209.859 28.8872C208.545 28.8872 207.217 29.1181 205.924 29.5881C202.057 30.9956 199.321 34.2563 198.606 38.3099L181.565 134.957C180.851 139.011 182.306 143.01 185.459 145.656C188.611 148.302 192.802 149.04 196.671 147.633L288.891 114.068C292.758 112.66 295.495 109.4 296.209 105.346C296.924 101.293 295.468 97.293 292.315 94.6474L217.136 31.5651C215.037 29.8037 212.477 28.8872 209.859 28.8872Z" fill="url(#paint3_linear_62_61177)"/>
<path d="M176.023 135.355C171.846 135.355 168.084 133.229 165.925 129.636C163.73 125.982 163.653 121.575 165.719 117.846L213.298 32.0131C215.364 28.2845 219.143 26.0144 223.405 25.9402C227.649 25.8687 231.522 28.003 233.718 31.6568L284.263 115.778C286.458 119.431 286.535 123.838 284.468 127.567C282.402 131.295 278.624 133.566 274.361 133.64L176.238 135.352C176.167 135.354 176.094 135.355 176.023 135.355ZM223.62 26.3443C223.551 26.3443 223.481 26.3449 223.412 26.346C219.296 26.4174 215.648 28.6099 213.653 32.2099L166.074 118.044C164.079 121.644 164.153 125.899 166.273 129.427C168.393 132.955 172.128 135.021 176.231 134.947L274.354 133.234C278.469 133.162 282.118 130.97 284.113 127.37C286.108 123.77 286.034 119.515 283.914 115.987L233.37 31.8658C231.286 28.3972 227.653 26.3443 223.62 26.3443Z" fill="url(#paint4_linear_62_61177)"/>
<path d="M257.938 147.602C256.71 147.602 255.466 147.408 254.247 147.012L160.912 116.686C156.858 115.368 153.908 112.093 153.022 107.923C152.136 103.754 153.497 99.5616 156.665 96.7093L229.596 31.042C232.764 28.1897 237.076 27.2732 241.13 28.5905C245.184 29.9078 248.133 33.1834 249.02 37.3529L269.424 133.347C270.31 137.516 268.948 141.708 265.78 144.561C263.566 146.555 260.791 147.602 257.938 147.602ZM237.44 28.4063C234.685 28.4063 232.007 29.4179 229.868 31.3438L156.937 97.0106C153.878 99.7644 152.563 103.812 153.419 107.838C154.274 111.865 157.123 115.027 161.037 116.3L254.372 146.626C258.286 147.898 262.449 147.013 265.508 144.259C268.567 141.505 269.882 137.457 269.026 133.431L248.623 37.437C247.767 33.411 244.919 30.2481 241.004 28.9759C239.827 28.5938 238.626 28.4063 237.44 28.4063Z" fill="url(#paint5_linear_62_61177)"/>
<path d="M237.938 155.495C235.436 155.495 232.971 154.685 230.874 153.104L152.497 94.0427C149.093 91.4775 147.37 87.4196 147.89 83.189C148.41 78.9579 151.062 75.4376 154.986 73.7724L245.323 35.4269C249.247 33.7611 253.621 34.2987 257.026 36.864C260.43 39.4293 262.152 43.4872 261.633 47.7183L249.673 145.125C249.154 149.356 246.501 152.876 242.577 154.542C241.071 155.18 239.497 155.495 237.938 155.495ZM245.481 35.8002L155.144 74.1457C151.356 75.7538 148.794 79.1531 148.292 83.2385C147.791 87.3239 149.454 91.2416 152.741 93.7189L231.118 152.78C234.405 155.257 238.63 155.776 242.418 154.168C246.207 152.56 248.769 149.16 249.27 145.075L261.23 47.6683C261.731 43.5829 260.068 39.6651 256.781 37.1878C253.495 34.7111 249.27 34.1921 245.481 35.8002Z" fill="url(#paint6_linear_62_61177)"/>
<path d="M216.532 156.455C212.608 156.455 209.012 154.552 206.789 151.256L151.911 69.8959C149.527 66.3619 149.22 61.9648 151.089 58.1334C152.957 54.3019 156.611 51.8373 160.864 51.5399L258.763 44.694C263.017 44.3966 266.977 46.3291 269.361 49.863C271.745 53.397 272.052 57.7941 270.184 61.6256L227.162 149.832C225.294 153.663 221.639 156.128 217.387 156.425C217.101 156.445 216.816 156.455 216.532 156.455ZM258.777 44.8963L258.791 45.0986L160.892 51.9445C156.786 52.2315 153.257 54.6115 151.453 58.3109C149.649 62.0104 149.946 66.2564 152.247 69.6683L207.125 151.029C209.427 154.441 213.261 156.306 217.358 156.019C221.464 155.732 224.993 153.352 226.797 149.653L269.818 61.4469C271.621 57.7474 271.325 53.502 269.023 50.0895C266.722 46.6776 262.899 44.8106 258.79 45.0986L258.777 44.8963Z" fill="url(#paint7_linear_62_61177)"/>
<path d="M196.061 150.417C195.031 150.417 193.989 150.281 192.955 150.004C188.837 148.901 185.721 145.784 184.617 141.667L159.218 46.8727C158.115 42.7554 159.255 38.4973 162.269 35.4829C165.284 32.469 169.541 31.3276 173.659 32.431L268.453 57.8314C272.571 58.9348 275.687 62.0515 276.791 66.1694C277.894 70.2867 276.753 74.5447 273.739 77.5586L204.345 146.952C202.088 149.21 199.133 150.416 196.061 150.417ZM170.556 32.4244C167.59 32.4244 164.737 33.5894 162.557 35.7693C159.646 38.6798 158.545 42.7911 159.611 46.7666L185.01 141.561C186.075 145.537 189.085 148.546 193.061 149.611C197.036 150.677 201.148 149.575 204.058 146.664L273.452 77.27C276.363 74.3594 277.465 70.2487 276.399 66.2727C275.334 62.2973 272.324 59.2872 268.348 58.2223L173.554 32.8225C172.556 32.5553 171.55 32.4244 170.556 32.4244Z" fill="url(#paint8_linear_62_61177)"/>
<path d="M178.521 138.014C176.226 138.014 173.947 137.33 171.946 135.98C168.412 133.596 166.479 129.634 166.777 125.382L173.622 27.4831C173.92 23.2306 176.385 19.5762 180.216 17.7075C184.048 15.8388 188.446 16.1467 191.978 18.53L273.339 73.4079C276.873 75.7917 278.805 79.7534 278.508 84.0054C278.21 88.258 275.745 91.9124 271.914 93.7811L183.708 136.802C182.047 137.613 180.279 138.014 178.521 138.014ZM185.404 16.9026C183.706 16.9026 181.999 17.2897 180.395 18.0726C176.695 19.8769 174.315 23.4054 174.028 27.5117L167.183 125.411C166.895 129.517 168.761 133.342 172.173 135.644C175.586 137.946 179.831 138.243 183.531 136.438L271.737 93.4177C275.436 91.6133 277.816 88.0848 278.103 83.9785C278.39 79.8727 276.525 76.0474 273.112 73.7455L191.752 18.867C189.82 17.5635 187.619 16.9026 185.404 16.9026Z" fill="url(#paint9_linear_62_61177)"/>
<path d="M166.018 120.577C162.337 120.577 158.911 118.883 156.648 115.879C154.082 112.475 153.545 108.1 155.211 104.175L193.557 13.8387C195.223 9.9149 198.742 7.26223 202.974 6.74269C207.208 6.22259 211.262 7.94614 213.828 11.3498L272.889 89.7264C275.454 93.1307 275.991 97.5058 274.326 101.43C272.66 105.353 269.14 108.007 264.909 108.526L167.502 120.486C167.004 120.548 166.509 120.577 166.018 120.577ZM204.455 7.05771C203.981 7.05771 203.503 7.08685 203.023 7.14567C198.937 7.64707 195.538 10.2085 193.93 13.9976L155.584 104.334C153.976 108.123 154.495 112.348 156.972 115.635C159.449 118.922 163.366 120.584 167.452 120.083L264.859 108.123C268.944 107.622 272.343 105.06 273.952 101.271C275.56 97.4827 275.041 93.2582 272.564 89.9711L213.503 11.5945C211.317 8.69384 208.009 7.05771 204.455 7.05771Z" fill="url(#paint10_linear_62_61177)"/>
<path d="M255.986 120.453C255.157 120.453 254.318 120.365 253.48 120.187L157.486 99.7831C153.317 98.8969 150.041 95.9473 148.723 91.8933C147.406 87.8392 148.322 83.5278 151.175 80.3594L216.842 7.42893C219.694 4.2611 223.888 2.89875 228.057 3.785C232.226 4.67124 235.502 7.6208 236.819 11.6749L267.145 105.01C268.463 109.064 267.546 113.376 264.694 116.544C262.415 119.074 259.281 120.453 255.986 120.453ZM225.551 3.92573C222.37 3.92573 219.344 5.25675 217.143 7.70052L151.477 80.6316C148.723 83.6905 147.838 87.8535 149.11 91.7679C150.381 95.6823 153.545 98.5302 157.57 99.3862L253.564 119.79C257.591 120.646 261.638 119.331 264.392 116.272C267.146 113.213 268.031 109.05 266.759 105.135L236.433 11.8002C235.161 7.88579 231.998 5.03794 227.972 4.18193C227.163 4.0104 226.352 3.92573 225.551 3.92573Z" fill="url(#paint11_linear_62_61177)"/>
<path d="M244.95 129.195C242.857 129.195 240.769 128.626 238.881 127.492L154.76 76.9467C151.107 74.7515 148.97 70.8958 149.044 66.6339C149.119 62.3721 151.389 58.5934 155.117 56.5268L240.951 8.94833C244.679 6.88171 249.087 6.95867 252.741 9.15394C256.394 11.3492 258.531 15.2048 258.457 19.4667L256.745 117.59C256.67 121.852 254.4 125.63 250.671 127.697C248.868 128.697 246.908 129.195 244.95 129.195ZM246.672 7.85865C244.781 7.85865 242.888 8.33971 241.147 9.30402L155.314 56.8825C151.714 58.8782 149.522 62.526 149.45 66.6417C149.378 70.7568 151.441 74.4799 154.97 76.5993L239.091 127.144C242.619 129.264 246.874 129.338 250.474 127.343C254.074 125.348 256.266 121.7 256.338 117.584L258.051 19.4612C258.122 15.3461 256.06 11.6235 252.532 9.5036C250.709 8.40789 248.691 7.85865 246.672 7.85865Z" fill="url(#paint12_linear_62_61177)"/>
<path d="M231.677 133.865C228.23 133.865 224.979 132.366 222.698 129.647L159.617 54.4694C156.877 51.2043 156.111 46.8632 157.569 42.8575C159.027 38.8518 162.404 36.0183 166.602 35.2783L263.25 18.2367C267.448 17.4967 271.59 19.0042 274.329 22.2694C277.07 25.5351 277.835 29.8756 276.377 33.8813L242.812 126.101C241.354 130.107 237.977 132.94 233.779 133.681C233.075 133.804 232.372 133.865 231.677 133.865ZM265.348 18.4572C264.678 18.4572 264 18.516 263.32 18.6359L166.672 35.6774C162.618 36.3921 159.358 39.1284 157.95 42.9961C156.543 46.8638 157.282 51.0553 159.927 54.2083L223.009 129.387C225.655 132.54 229.657 133.995 233.708 133.28C237.761 132.566 241.022 129.83 242.43 125.962L275.995 33.7427C277.402 29.875 276.663 25.6835 274.018 22.5305C271.816 19.9059 268.676 18.4572 265.348 18.4572Z" fill="url(#paint13_linear_62_61177)"/>
<path d="M217.756 133.986C217.13 133.986 216.496 133.937 215.86 133.836C211.65 133.169 208.224 130.396 206.696 126.416L171.527 34.796C169.999 30.8167 170.689 26.463 173.372 23.15C176.054 19.8371 180.171 18.2581 184.38 18.9244L281.31 34.2765C285.52 34.9434 288.946 37.7176 290.474 41.6969C292.001 45.6762 291.312 50.0304 288.629 53.3428L226.868 129.61C224.591 132.423 221.28 133.986 217.756 133.986ZM182.485 19.1801C179.082 19.1801 175.886 20.6898 173.687 23.4051C171.097 26.6038 170.431 30.8079 171.906 34.6503L207.075 126.27C208.55 130.113 211.858 132.792 215.923 133.435C219.986 134.079 223.962 132.553 226.552 129.354L288.312 53.0866C290.903 49.888 291.569 45.6844 290.094 41.8415C288.619 37.9985 285.311 35.3205 281.245 34.6762L184.315 19.3241C183.702 19.2274 183.09 19.1801 182.485 19.1801Z" fill="url(#paint14_linear_62_61177)"/>
<path d="M204.413 129.55C202.521 129.55 200.625 129.085 198.867 128.151C195.104 126.15 192.768 122.412 192.619 118.152L189.194 20.0731C189.045 15.8128 191.114 11.9209 194.73 9.6619C198.344 7.40341 202.75 7.24891 206.513 9.2501L293.165 55.3233C296.928 57.3245 299.264 61.063 299.413 65.3227C299.562 69.5829 297.492 73.4748 293.877 75.7339L210.651 127.739C208.724 128.943 206.572 129.55 204.413 129.55ZM200.969 8.25776C198.883 8.25776 196.806 8.84273 194.945 10.0055C191.454 12.1865 189.456 15.9448 189.6 20.0582L193.025 118.137C193.168 122.25 195.424 125.86 199.058 127.792C202.692 129.724 206.946 129.576 210.436 127.394L293.662 75.3892C297.153 73.2082 299.151 69.4499 299.007 65.3364C298.864 61.223 296.608 57.6137 292.974 55.6812L206.323 9.60801C204.626 8.70637 202.795 8.25776 200.969 8.25776Z" fill="url(#paint15_linear_62_61177)"/>
<path d="M193.22 121C190 121 186.926 119.681 184.652 117.242C181.744 114.124 180.753 109.829 181.999 105.753L210.691 11.9026C211.938 7.826 215.162 4.81982 219.315 3.861C223.469 2.90164 227.685 4.19086 230.591 7.30811L297.521 79.0819C300.429 82.1997 301.42 86.4945 300.174 90.5711C298.928 94.6478 295.704 97.654 291.551 98.6128L195.928 120.689C195.023 120.898 194.116 121 193.22 121ZM222.022 3.9561C221.156 3.9561 220.281 4.05507 219.407 4.25629C215.396 5.18212 212.284 8.08495 211.081 12.0208L182.388 105.871C181.185 109.807 182.142 113.954 184.949 116.964C187.757 119.975 191.827 121.219 195.836 120.293L291.46 98.217C295.47 97.2911 298.582 94.3883 299.786 90.4524C300.989 86.5165 300.032 82.369 297.225 79.3589L230.295 7.5852C228.099 5.2305 225.13 3.9561 222.022 3.9561Z" fill="url(#paint16_linear_62_61177)"/>
<path d="M283.175 119.555C282.753 119.555 282.328 119.533 281.9 119.488L184.299 109.23C180.06 108.785 176.494 106.193 174.761 102.299C173.027 98.4053 173.487 94.0213 175.993 90.5725L233.677 11.1772C236.182 7.729 240.208 5.93617 244.449 6.38149C248.688 6.82736 252.255 9.41792 253.988 13.312L293.904 102.966C295.638 106.86 295.178 111.244 292.672 114.692C290.419 117.793 286.936 119.555 283.175 119.555ZM243.175 6.72015C239.544 6.72015 236.18 8.42173 234.005 11.4158L176.321 90.8112C173.901 94.1412 173.456 98.3739 175.131 102.134C176.805 105.894 180.248 108.396 184.342 108.826L281.942 119.085C286.033 119.516 289.924 117.784 292.343 114.454C294.763 111.124 295.207 106.891 293.533 103.131L253.617 13.477C251.942 9.71701 248.499 7.21496 244.406 6.78504C243.993 6.7416 243.583 6.72015 243.175 6.72015Z" fill="url(#paint17_linear_62_61177)"/>
<path d="M270.988 137.206C269.296 137.206 267.593 136.835 265.982 136.083L177.039 94.6082C173.175 92.8066 170.647 89.1962 170.275 84.9497C169.904 80.7032 171.766 76.7079 175.258 74.2631L255.648 17.9733C259.141 15.5279 263.532 15.1447 267.395 16.9458C271.258 18.7474 273.787 22.3578 274.158 26.6043L282.711 124.369C283.083 128.615 281.22 132.611 277.728 135.055C275.693 136.481 273.352 137.206 270.988 137.206ZM262.39 16.2294C260.107 16.2294 257.847 16.9293 255.881 18.3054L175.492 74.5951C172.12 76.9559 170.321 80.8137 170.679 84.9139C171.038 89.0142 173.479 92.5009 177.21 94.2398L266.153 135.715C269.884 137.454 274.124 137.083 277.495 134.722C280.867 132.362 282.666 128.504 282.307 124.404L273.754 26.6389C273.395 22.5387 270.954 19.052 267.223 17.3125C265.668 16.5879 264.023 16.2294 262.39 16.2294Z" fill="url(#paint18_linear_62_61177)"/>
<path d="M253.662 149.914C250.663 149.914 247.769 148.762 245.523 146.593L174.928 78.4204C171.862 75.4592 170.646 71.2221 171.678 67.0855C172.709 62.9495 175.772 59.779 179.869 58.6041L274.205 31.5533C278.304 30.3784 282.58 31.445 285.646 34.4061C288.712 37.3672 289.927 41.6043 288.896 45.7403L265.155 140.963C264.123 145.099 261.061 148.27 256.964 149.445C255.867 149.76 254.758 149.914 253.662 149.914ZM277.506 31.4917C276.448 31.4917 275.377 31.6401 274.317 31.9442L179.981 58.9944C176.024 60.1286 173.068 63.1904 172.072 67.184C171.076 71.1776 172.249 75.269 175.21 78.1284L245.805 146.301C248.765 149.161 252.896 150.19 256.851 149.056C260.808 147.921 263.765 144.86 264.761 140.866L288.502 45.643C289.498 41.6494 288.325 37.558 285.364 34.6991C283.196 32.605 280.401 31.4917 277.506 31.4917Z" fill="url(#paint19_linear_62_61177)"/>
<path d="M233.291 156.309C233.078 156.309 232.864 156.303 232.649 156.292C228.391 156.068 224.695 153.668 222.76 149.87L178.206 62.4277C176.271 58.6292 176.502 54.2277 178.823 50.6525C181.144 47.0772 185.071 45.0749 189.329 45.2993L287.333 50.4353C291.59 50.6585 295.286 53.0594 297.222 56.8573C299.157 60.6557 298.926 65.0573 296.604 68.6325L243.155 150.938C240.951 154.333 237.298 156.309 233.291 156.309ZM178.568 62.2435L223.122 149.685C224.99 153.353 228.56 155.671 232.67 155.886C236.785 156.102 240.572 154.169 242.815 150.718L296.265 68.412C298.507 64.96 298.729 60.7096 296.861 57.0425C294.992 53.375 291.423 51.0571 287.312 50.8416L189.309 45.7056C185.202 45.4922 181.406 47.422 179.164 50.8746C176.922 54.3261 176.699 58.5764 178.568 62.2435Z" fill="url(#paint20_linear_62_61177)"/>
<path d="M211.883 155.723C210.39 155.723 208.882 155.435 207.43 154.848C203.477 153.251 200.764 149.778 200.171 145.557L186.513 48.373C185.92 44.1518 187.571 40.0648 190.93 37.4407C194.289 34.816 198.654 34.203 202.607 35.7996L293.598 72.5628C297.551 74.1594 300.265 77.6329 300.858 81.8541C301.451 86.0753 299.8 90.1624 296.441 92.787L219.107 153.207C216.982 154.868 214.454 155.723 211.883 155.723ZM186.915 48.317L200.574 145.5C201.146 149.577 203.767 152.93 207.583 154.472C211.4 156.014 215.614 155.422 218.858 152.888L296.191 92.4681C299.434 89.9342 301.029 85.9879 300.456 81.9118C299.884 77.8358 297.263 74.4821 293.447 72.9405L202.455 36.1773C198.639 34.6357 194.424 35.2278 191.181 37.7618C187.936 40.2951 186.342 44.2415 186.915 48.317Z" fill="url(#paint21_linear_62_61177)"/>
<path d="M191.746 148.18C188.963 148.18 186.251 147.182 184.055 145.274C180.837 142.477 179.402 138.309 180.216 134.125L198.942 37.7897C199.755 33.6053 202.647 30.2786 206.678 28.8909C210.709 27.5033 215.035 28.3439 218.252 31.1407L292.317 95.5253C295.535 98.3221 296.97 102.49 296.156 106.674C295.343 110.859 292.451 114.185 288.42 115.573L195.629 147.524C194.349 147.964 193.04 148.18 191.746 148.18ZM199.34 37.8667L180.614 134.202C179.829 138.242 181.215 142.267 184.321 144.967C187.427 147.667 191.604 148.479 195.497 147.139L288.288 115.189C292.18 113.848 294.972 110.637 295.758 106.596C296.543 102.556 295.157 98.5315 292.051 95.8316L217.985 31.4469C214.879 28.7464 210.702 27.9343 206.81 29.2742C202.918 30.614 200.125 33.8263 199.34 37.8667Z" fill="url(#paint22_linear_62_61177)"/>
<path d="M273.424 134.505H175.285C171.022 134.505 167.205 132.301 165.074 128.609C162.942 124.917 162.942 120.51 165.074 116.818L214.143 31.8275C216.274 28.1357 220.092 25.9316 224.354 25.9316C224.354 25.9316 224.355 25.9316 224.354 25.9316C228.617 25.9316 232.435 28.1357 234.566 31.8275L283.635 116.818C285.766 120.51 285.766 124.917 283.635 128.609C281.504 132.301 277.687 134.505 273.424 134.505ZM214.495 32.0309L165.426 117.021C163.368 120.586 163.368 124.842 165.426 128.407C167.484 131.972 171.17 134.099 175.286 134.099H273.424C277.541 134.099 281.226 131.971 283.284 128.406C285.342 124.842 285.342 120.586 283.284 117.021L234.215 32.0309C232.157 28.4667 228.471 26.3385 224.355 26.3385C220.239 26.3385 216.552 28.4661 214.495 32.0309Z" fill="url(#paint23_linear_62_61177)"/>
<rect x="130.841" y="-1.20215" width="184.412" height="159.286" fill="url(#paint24_linear_62_61177)"/>
</g>
<path d="M5.37891 43.9209H5.48145L8.07422 35.835H10.5059L6.84375 46.4404H4.0166L0.339844 35.835H2.80078L5.37891 43.9209ZM13.9043 46.4404H11.707V35.835H13.9043V46.4404ZM21.4482 38.8672C21.4043 38.4473 21.2212 38.1201 20.8989 37.8857C20.5767 37.6514 20.1494 37.5342 19.6172 37.5342C19.251 37.5342 18.936 37.5879 18.6724 37.6953C18.4136 37.7979 18.2158 37.9419 18.0791 38.1274C17.9424 38.313 17.874 38.5254 17.874 38.7646C17.874 39.1064 18.0278 39.3799 18.3354 39.585C18.6431 39.79 19.0557 39.9512 19.5732 40.0684L20.5254 40.3027C21.5068 40.5225 22.2808 40.8862 22.8472 41.394C23.4185 41.897 23.7041 42.5684 23.7041 43.4082C23.7041 44.0576 23.5405 44.6216 23.2134 45.1001C22.8862 45.5737 22.415 45.9399 21.7998 46.1987C21.1846 46.4575 20.4521 46.5869 19.6025 46.5869C18.7432 46.5869 17.9961 46.4551 17.3613 46.1914C16.7314 45.9277 16.2407 45.5396 15.8892 45.0269C15.5425 44.5093 15.3594 43.877 15.3398 43.1299H17.4785C17.5127 43.6523 17.7178 44.0527 18.0938 44.3311C18.4746 44.6045 18.9678 44.7412 19.5732 44.7412C19.9541 44.7412 20.2886 44.6851 20.5767 44.5728C20.8647 44.4604 21.0869 44.3042 21.2432 44.104C21.3994 43.9038 21.4775 43.6719 21.4775 43.4082C21.4775 43.0664 21.3286 42.7954 21.0308 42.5952C20.7378 42.395 20.2812 42.2168 19.6611 42.0605L18.5039 41.7822C16.5801 41.3086 15.6182 40.3467 15.6182 38.8965C15.6182 38.2617 15.7891 37.7026 16.1309 37.2192C16.4775 36.731 16.9561 36.355 17.5664 36.0913C18.1768 35.8228 18.8652 35.6885 19.6318 35.6885C20.4033 35.6885 21.0845 35.8228 21.6753 36.0913C22.2661 36.3599 22.7251 36.7358 23.0522 37.2192C23.3794 37.6978 23.5479 38.2471 23.5576 38.8672H21.4482ZM27.3369 46.4404H25.1396V35.835H27.3369V46.4404ZM38.8359 41.1377C38.8359 42.2607 38.6211 43.2349 38.1914 44.0601C37.7617 44.8804 37.1709 45.5078 36.4189 45.9424C35.6719 46.3721 34.8271 46.5869 33.8848 46.5869C32.9375 46.5869 32.0879 46.3696 31.3359 45.9351C30.584 45.5005 29.9932 44.873 29.5635 44.0527C29.1338 43.2275 28.9189 42.2559 28.9189 41.1377C28.9189 40.0146 29.1338 39.043 29.5635 38.2227C29.9932 37.3975 30.584 36.77 31.3359 36.3403C32.0879 35.9058 32.9375 35.6885 33.8848 35.6885C34.8271 35.6885 35.6719 35.9058 36.4189 36.3403C37.1709 36.77 37.7617 37.3975 38.1914 38.2227C38.6211 39.043 38.8359 40.0146 38.8359 41.1377ZM36.5947 41.1377C36.5947 40.3906 36.4824 39.7559 36.2578 39.2334C36.0381 38.7109 35.7256 38.3154 35.3203 38.0469C34.915 37.7734 34.4365 37.6367 33.8848 37.6367C33.333 37.6367 32.8521 37.7734 32.4419 38.0469C32.0366 38.3154 31.7217 38.7134 31.4971 39.2407C31.2725 39.7632 31.1602 40.3955 31.1602 41.1377C31.1602 41.8799 31.2725 42.5146 31.4971 43.042C31.7217 43.5645 32.0366 43.9624 32.4419 44.2358C32.8521 44.5044 33.333 44.6387 33.8848 44.6387C34.4365 44.6387 34.915 44.5044 35.3203 44.2358C35.7256 43.9624 36.0381 43.5645 36.2578 43.042C36.4824 42.5195 36.5947 41.8848 36.5947 41.1377ZM49.2656 46.4404H47.3613L42.7031 39.7021H42.6152V46.4404H40.418V35.835H42.3516L46.9805 42.5732H47.083V35.835H49.2656V46.4404ZM52.2832 46.5723C52.0586 46.5723 51.8511 46.5161 51.6606 46.4038C51.4702 46.2915 51.3188 46.1426 51.2065 45.957C51.0991 45.7666 51.0479 45.5615 51.0527 45.3418C51.0479 45.1221 51.0991 44.9194 51.2065 44.7339C51.3188 44.5483 51.4702 44.4019 51.6606 44.2944C51.8511 44.1821 52.0586 44.126 52.2832 44.126C52.4932 44.126 52.6909 44.1821 52.8765 44.2944C53.0669 44.4019 53.2183 44.5483 53.3306 44.7339C53.4429 44.9194 53.499 45.1221 53.499 45.3418C53.499 45.5615 53.4429 45.7666 53.3306 45.957C53.2183 46.1426 53.0669 46.2915 52.8765 46.4038C52.6909 46.5161 52.4932 46.5723 52.2832 46.5723Z" fill="#1ED0E4"/>
<path d="M4.71973 63.8125C4.71973 65.0039 4.91016 66.0903 5.29102 67.0718C5.67188 68.0532 6.28711 68.8174 7.13672 69.3643L6.12598 70.8145C5.05176 70.165 4.28271 69.0981 3.81885 67.6138C3.56982 68.395 3.24023 69.0859 2.83008 69.6865C2.41992 70.2822 1.92188 70.7559 1.33594 71.1074L0.193359 69.7305C1.12598 69.1494 1.80957 68.3413 2.24414 67.3062C2.68359 66.2661 2.90332 65.1309 2.90332 63.9004V61.6006H4.71973V63.8125ZM12 73.7881H10.2129V60.458H12V73.7881ZM9.20215 73.1729H7.45898V66.4785H5.73047V64.9551H7.45898V60.6484H9.20215V73.1729ZM18.2695 62.5527C18.2695 63.1045 18.3794 63.6318 18.5991 64.1348C18.8188 64.6328 19.1558 65.0796 19.6099 65.4751C20.0688 65.8657 20.6377 66.166 21.3164 66.376L20.3203 67.8262C19.627 67.5967 19.0312 67.2646 18.5332 66.8301C18.0352 66.3955 17.6396 65.8804 17.3467 65.2847C17.0488 65.9731 16.6362 66.5688 16.1089 67.0718C15.5864 67.5698 14.9541 67.9434 14.2119 68.1924L13.2012 66.7275C13.9189 66.4883 14.5146 66.1465 14.9883 65.7021C15.4619 65.2578 15.8135 64.7524 16.043 64.186C16.2725 63.6147 16.3896 63.0117 16.3945 62.377V61.1611H18.2695V62.5527ZM23.9824 63.5781H25.7842V65.1309H23.9824V68.3682H22.1074V60.458H23.9824V63.5781ZM19.6172 68.6318C20.5352 68.6318 21.3311 68.7344 22.0049 68.9395C22.6787 69.1445 23.1987 69.4399 23.5649 69.8257C23.9312 70.2114 24.1143 70.6729 24.1143 71.21C24.1143 71.752 23.9312 72.2158 23.5649 72.6016C23.2036 72.9873 22.6836 73.2803 22.0049 73.4805C21.3311 73.6855 20.5352 73.7881 19.6172 73.7881C18.6797 73.7881 17.8667 73.6855 17.1782 73.4805C16.4946 73.2803 15.9673 72.9873 15.5962 72.6016C15.23 72.2158 15.0469 71.752 15.0469 71.21C15.0469 70.6729 15.23 70.2114 15.5962 69.8257C15.9673 69.4399 16.4971 69.1445 17.1855 68.9395C17.874 68.7344 18.6846 68.6318 19.6172 68.6318ZM19.6172 70.0967C18.7334 70.0967 18.062 70.1919 17.603 70.3823C17.144 70.5679 16.917 70.8438 16.9219 71.21C16.9072 71.9521 17.8057 72.3232 19.6172 72.3232C21.3848 72.3232 22.2686 71.9521 22.2686 71.21C22.2686 70.8438 22.0415 70.5679 21.5874 70.3823C21.1382 70.1919 20.4814 70.0967 19.6172 70.0967ZM37.9277 73.7881H36.1406V60.458H37.9277V73.7881ZM35.1445 73.1729H33.3867V66.874H32.3101C32.2563 67.7432 32.1001 68.4927 31.8413 69.1226C31.5874 69.7524 31.2505 70.2358 30.8306 70.5728C30.4106 70.9097 29.9297 71.0781 29.3877 71.0781C28.8066 71.0781 28.2964 70.8828 27.8569 70.4922C27.4224 70.1016 27.0854 69.5425 26.8462 68.8149C26.6069 68.0825 26.4873 67.2207 26.4873 66.2295C26.4873 65.2432 26.6069 64.3887 26.8462 63.666C27.0854 62.9385 27.4224 62.3818 27.8569 61.9961C28.2964 61.6055 28.8066 61.4102 29.3877 61.4102C29.9199 61.4102 30.3911 61.5688 30.8013 61.8862C31.2163 62.2036 31.5508 62.6626 31.8047 63.2632C32.0635 63.8589 32.2271 64.5693 32.2954 65.3945H33.3867V60.6484H35.1445V73.1729ZM29.3877 63.168C29.0068 63.168 28.7139 63.4268 28.5088 63.9443C28.3086 64.4619 28.2109 65.2236 28.2158 66.2295C28.2109 67.2402 28.3086 68.0044 28.5088 68.522C28.7139 69.0347 29.0068 69.2861 29.3877 69.2764C29.7734 69.2861 30.0713 69.0347 30.2812 68.522C30.4961 68.0044 30.6035 67.2402 30.6035 66.2295C30.6035 65.2236 30.4961 64.4619 30.2812 63.9443C30.0713 63.4268 29.7734 63.168 29.3877 63.168ZM44.373 63.4756C44.373 64.335 44.4902 65.1553 44.7246 65.9365C44.9639 66.7129 45.3252 67.4038 45.8086 68.0093C46.292 68.6099 46.8926 69.0664 47.6104 69.3789L46.4678 70.873C45.75 70.5215 45.1372 70.0308 44.6294 69.4009C44.1265 68.7661 43.731 68.0264 43.4429 67.1816C43.145 68.085 42.7324 68.8735 42.2051 69.5474C41.6826 70.2212 41.0527 70.7412 40.3154 71.1074L39.1436 69.584C39.876 69.2568 40.4912 68.7759 40.9893 68.1411C41.4873 67.5063 41.8584 66.7861 42.1025 65.9805C42.3516 65.1748 42.4785 64.3398 42.4834 63.4756V61.4834H44.373V63.4756ZM50.584 73.8174H48.7383V66.1562H46.1162V64.6475H48.7383V60.458H50.584V73.8174ZM66.2725 65.5703H68.1621V67.1084H66.2725V73.7588H64.3975V60.458H66.2725V65.5703ZM62.7129 61.8203C62.7031 63.9443 62.2246 65.8218 61.2773 67.4526C60.335 69.0786 58.7969 70.4141 56.6631 71.459L55.6084 70.0234C57.1953 69.2275 58.4136 68.2852 59.2632 67.1963C60.1177 66.1074 60.6328 64.8232 60.8086 63.3438H56.3701V61.8203H62.7129ZM76.292 62.8457H73.6406C73.6455 63.3828 73.7578 63.8931 73.9775 64.3765C74.2021 64.855 74.5439 65.2822 75.0029 65.6582C75.4619 66.0342 76.0332 66.3223 76.7168 66.5225L75.8232 67.9873C75.1055 67.7676 74.4878 67.4453 73.9702 67.0205C73.4526 66.5957 73.0425 66.0903 72.7397 65.5044C72.437 66.1929 72.0098 66.791 71.458 67.2988C70.9111 67.8018 70.2471 68.1826 69.4658 68.4414L68.5137 66.9619C69.2217 66.7373 69.8174 66.4126 70.3008 65.9878C70.7842 65.563 71.1431 65.0796 71.3774 64.5376C71.6167 63.9956 71.7412 63.4316 71.751 62.8457H69.0264V61.3516H76.292V62.8457ZM79.2949 63.5488H81.0967V65.0723H79.2949V68.3682H77.4199V60.458H79.2949V63.5488ZM74.9297 68.6318C75.8477 68.627 76.6436 68.7271 77.3174 68.9321C77.9961 69.1323 78.5161 69.4253 78.8774 69.811C79.2437 70.1968 79.4268 70.6582 79.4268 71.1953C79.4268 71.7324 79.2437 72.1938 78.8774 72.5796C78.5161 72.9702 77.9961 73.2681 77.3174 73.4731C76.6436 73.6831 75.8477 73.7881 74.9297 73.7881C73.9922 73.7881 73.1792 73.6831 72.4907 73.4731C71.8071 73.2681 71.2798 72.9702 70.9087 72.5796C70.5425 72.1938 70.3594 71.7324 70.3594 71.1953C70.3594 70.6582 70.5425 70.1968 70.9087 69.811C71.2798 69.4253 71.8071 69.1323 72.4907 68.9321C73.1792 68.7271 73.9922 68.627 74.9297 68.6318ZM74.9297 70.082C74.041 70.082 73.3672 70.1748 72.9082 70.3604C72.4541 70.5459 72.2295 70.8242 72.2344 71.1953C72.2295 71.5713 72.4565 71.8569 72.9155 72.0522C73.3745 72.2427 74.0459 72.3379 74.9297 72.3379C75.7988 72.3379 76.458 72.2427 76.9072 72.0522C77.3564 71.8618 77.5811 71.5762 77.5811 71.1953C77.5811 70.8242 77.3564 70.5459 76.9072 70.3604C76.458 70.1748 75.7988 70.082 74.9297 70.082ZM88.9336 60.8535C89.6025 60.8535 90.208 60.9829 90.75 61.2417C91.292 61.5005 91.7168 61.8618 92.0244 62.3257C92.3369 62.7896 92.4932 63.3145 92.4932 63.9004C92.4932 64.4766 92.3369 64.9966 92.0244 65.4604C91.7168 65.9194 91.292 66.2808 90.75 66.5444C90.208 66.8032 89.6025 66.9326 88.9336 66.9326C88.2549 66.9326 87.6421 66.8032 87.0952 66.5444C86.5483 66.2808 86.1187 65.9194 85.8062 65.4604C85.4985 64.9966 85.3447 64.4766 85.3447 63.9004C85.3447 63.3145 85.4985 62.7896 85.8062 62.3257C86.1187 61.8618 86.5459 61.5005 87.0879 61.2417C87.6348 60.9829 88.25 60.8535 88.9336 60.8535ZM88.9336 62.377C88.5918 62.377 88.2842 62.438 88.0107 62.5601C87.7422 62.6772 87.5322 62.853 87.3809 63.0874C87.2295 63.3169 87.1562 63.5879 87.1611 63.9004C87.1562 64.2129 87.2295 64.4839 87.3809 64.7134C87.5322 64.9429 87.7422 65.1187 88.0107 65.2407C88.2842 65.3628 88.5918 65.4238 88.9336 65.4238C89.2705 65.4238 89.5708 65.3628 89.8345 65.2407C90.103 65.1187 90.313 64.9429 90.4644 64.7134C90.6157 64.4839 90.6914 64.2129 90.6914 63.9004C90.6914 63.583 90.6157 63.3096 90.4644 63.0801C90.313 62.8506 90.103 62.6772 89.8345 62.5601C89.5708 62.438 89.2705 62.377 88.9336 62.377ZM96.3018 67.1377H94.4268V60.458H96.3018V67.1377ZM96.3018 71.3125H89.2119V72.1768H96.668V73.6416H87.3809V69.9502H94.4414V69.1299H87.3516V67.6943H96.3018V71.3125ZM104.183 60.6484C105.203 60.6484 106.075 60.7363 106.797 60.9121C107.52 61.0879 108.072 61.3467 108.453 61.6885C108.833 62.0254 109.026 62.4355 109.031 62.9189C109.026 63.4072 108.833 63.8223 108.453 64.1641C108.072 64.5059 107.52 64.7646 106.797 64.9404C106.075 65.1162 105.203 65.2041 104.183 65.2041C103.157 65.2041 102.281 65.1162 101.553 64.9404C100.826 64.7646 100.271 64.5059 99.8906 64.1641C99.5098 63.8223 99.3193 63.4072 99.3193 62.9189C99.3193 62.4355 99.5098 62.0254 99.8906 61.6885C100.271 61.3467 100.826 61.0879 101.553 60.9121C102.281 60.7363 103.157 60.6484 104.183 60.6484ZM104.183 62.0107C103.211 62.0107 102.481 62.0889 101.993 62.2451C101.509 62.3965 101.272 62.6211 101.282 62.9189C101.277 63.2412 101.509 63.4731 101.978 63.6147C102.447 63.7563 103.182 63.8271 104.183 63.8271C105.188 63.8271 105.926 63.7563 106.395 63.6147C106.863 63.4731 107.098 63.2412 107.098 62.9189C107.098 62.6211 106.856 62.3965 106.373 62.2451C105.889 62.0889 105.159 62.0107 104.183 62.0107ZM110.262 67.3135H98.1035V65.834H110.262V67.3135ZM108.782 71.4883H101.355V72.2939H109.134V73.7002H99.5244V70.1846H106.937V69.4521H99.5098V68.0898H108.782V71.4883ZM122.068 62.5527H119.432C119.471 63.0068 119.61 63.4414 119.849 63.8564C120.093 64.2715 120.442 64.6426 120.896 64.9697C121.351 65.2969 121.902 65.5508 122.552 65.7314L121.673 67.167C120.936 66.9668 120.301 66.6616 119.769 66.2515C119.236 65.8413 118.816 65.3506 118.509 64.7793C118.201 65.4238 117.769 65.978 117.212 66.4419C116.661 66.9009 115.989 67.2402 115.198 67.46L114.29 66.0098C114.964 65.8145 115.535 65.5386 116.004 65.1821C116.473 64.8257 116.832 64.4229 117.081 63.9736C117.33 63.5195 117.474 63.0459 117.513 62.5527H114.803V61.0879H122.068V62.5527ZM125.101 63.0947H126.902V64.5889H125.101V67.2988H123.226V60.458H125.101V63.0947ZM125.101 71.3271H118.113V72.2354H125.481V73.6562H116.282V70.0088H123.24V69.2178H116.253V67.8115H125.101V71.3271ZM141.463 65.6729H143.426V67.2109H141.463V73.7881H139.617V60.458H141.463V65.6729ZM138.709 63.9443H130.872V62.4502H133.89V60.6631H135.765V62.4502H138.709V63.9443ZM134.827 64.6914C135.472 64.6914 136.05 64.8281 136.563 65.1016C137.081 65.3701 137.486 65.7461 137.779 66.2295C138.077 66.7129 138.226 67.2598 138.226 67.8701C138.226 68.4805 138.077 69.0273 137.779 69.5107C137.486 69.9941 137.081 70.3726 136.563 70.646C136.05 70.9146 135.472 71.0488 134.827 71.0488C134.178 71.0488 133.594 70.9146 133.077 70.646C132.559 70.3726 132.151 69.9941 131.854 69.5107C131.561 69.0273 131.414 68.4805 131.414 67.8701C131.414 67.2598 131.561 66.7129 131.854 66.2295C132.151 65.7461 132.559 65.3701 133.077 65.1016C133.594 64.8281 134.178 64.6914 134.827 64.6914ZM134.827 66.2002C134.515 66.2051 134.234 66.2759 133.985 66.4126C133.741 66.5493 133.548 66.7422 133.406 66.9912C133.27 67.2402 133.201 67.5332 133.201 67.8701C133.201 68.2119 133.27 68.5073 133.406 68.7563C133.548 69.0054 133.741 69.1958 133.985 69.3276C134.234 69.4546 134.515 69.5156 134.827 69.5107C135.14 69.5156 135.418 69.4546 135.662 69.3276C135.906 69.1958 136.097 69.0054 136.233 68.7563C136.37 68.5073 136.438 68.2119 136.438 67.8701C136.438 67.5332 136.37 67.2402 136.233 66.9912C136.097 66.7422 135.906 66.5493 135.662 66.4126C135.418 66.2759 135.14 66.2051 134.827 66.2002ZM154.734 65.5557H145.418V60.9268H147.278V64.0908H154.734V65.5557ZM156.097 68.4561H143.895V66.9912H156.097V68.4561ZM154.822 73.4951H145.301V69.54H147.176V72.001H154.822V73.4951ZM167.522 62.7139H162.938V63.7539H167.127V65.1895H162.938V66.2881C164.246 66.2832 165.296 66.2612 166.087 66.2222C166.883 66.1831 167.674 66.0977 168.46 65.9658L168.65 67.416C167.767 67.5674 166.873 67.665 165.97 67.709C165.066 67.748 163.812 67.7676 162.205 67.7676H161.062V61.2197H167.522V62.7139ZM171.492 68.3828H169.617V60.4727H171.492V68.3828ZM171.492 73.6416H162.557V68.9248H171.492V73.6416ZM164.402 72.1475H169.661V70.375H164.402V72.1475Z" fill="black"/>
<path d="M8.78516 93.0723L15.8554 101.401L17.0796 99.9587L11.2365 93.0723H8.78516Z" fill="black"/>
<path d="M17.9618 106.345L16.7227 104.884L27.8327 91.794H31.8127L21.5716 103.861L22.7987 105.306L36.0047 89.7529H27.1161L15.4985 103.439L5.61272 91.794H11.8111L13.5429 89.7529H1.42969L16.7376 107.787L17.9618 106.345Z" fill="black"/>
<path d="M18.5882 104.62L19.7557 105.997V106L8.64569 119.087H4.66867L14.865 107.059L13.608 105.65L0.470703 121.129H9.36525L20.9798 107.443H20.9828L30.8686 119.087H29.328H13.7991L12.0674 121.129H35.0517L19.8124 103.175L18.5882 104.62Z" fill="black"/>
<path d="M20.6216 109.477L19.4004 110.928L25.2435 117.808H27.6948L20.6216 109.477Z" fill="black"/>
<path d="M111.641 90.9054C111.339 90.5044 110.858 90.2081 110.204 90.0225C109.551 89.837 108.664 89.7412 107.544 89.7412H89.3012C88.1815 89.7412 87.2768 89.834 86.5841 90.0225C85.8914 90.2111 85.351 90.5044 84.9659 90.9054C84.5777 91.3364 84.3 91.8751 84.1328 92.5215C84.1149 92.5963 84.097 92.6801 84.0791 92.7579H102.806C103.206 92.7579 103.466 92.8387 103.576 92.9944C103.689 93.153 103.725 93.4343 103.684 93.8353L102.549 104.915L102.376 106.603L101.307 117.041C101.265 117.445 101.173 117.724 101.026 117.882C100.88 118.041 100.608 118.119 100.205 118.119H90.8269C90.4238 118.119 90.167 118.038 90.0566 117.882C89.9431 117.724 89.9073 117.445 89.9491 117.041L91.0956 106.603L91.2807 104.915L92.3287 95.3826H83.8522L82.8012 104.915L82.6161 106.603L81.58 116.006C81.4845 116.928 81.4546 117.718 81.4875 118.379C81.5203 119.041 81.6875 119.573 81.9921 119.974C82.2966 120.375 82.7743 120.672 83.4282 120.857C84.0821 121.043 84.9688 121.139 86.0885 121.139H104.331C105.451 121.139 106.356 121.046 107.048 120.857C107.741 120.669 108.282 120.375 108.667 119.974C109.052 119.57 109.33 119.041 109.497 118.379C109.664 117.718 109.795 116.928 109.891 116.006L110.855 106.603L111.028 104.915L112.059 94.8708C112.154 93.9521 112.184 93.168 112.148 92.5215C112.112 91.8751 111.948 91.3364 111.647 90.9054H111.641Z" fill="black"/>
<path d="M77.7918 90.7767C77.5111 90.4325 77.0931 90.1722 76.5378 90.0016C75.9824 89.828 75.2151 89.7412 74.2417 89.7412H50.7498L49.2002 104.861L26.2219 104.915L25.5859 105.732L26.2219 106.603H66.6191C67.479 106.603 68.0433 106.77 68.312 107.099C68.5778 107.432 68.6673 108.027 68.5807 108.889L67.8612 115.919C67.7746 116.754 67.5656 117.329 67.2342 117.643C66.8998 117.96 66.2877 118.119 65.4009 118.119L58.2232 118.146L57.8619 121.139H71.1156C72.089 121.139 72.8951 121.058 73.5281 120.902C74.1611 120.743 74.6687 120.477 75.0508 120.103C75.433 119.729 75.7107 119.256 75.8839 118.681C76.057 118.107 76.1884 117.404 76.272 116.569L77.1528 107.985C77.2066 107.45 77.1737 106.992 77.0603 106.606C77.0155 106.453 76.9588 106.306 76.8871 106.175C76.8871 106.172 76.8811 106.166 76.8811 106.16C76.4512 105.393 75.6181 104.954 74.7433 104.918C74.7045 104.918 74.6657 104.912 74.6269 104.912H57.6738L57.6798 104.864L58.9218 92.7639H67.6134C68.4733 92.7639 69.0376 92.9225 69.3063 93.2398C69.575 93.557 69.6646 94.1466 69.578 95.0085L69.4585 96.1847L68.9301 101.347C68.8494 102.131 68.6673 102.688 68.3837 103.02H76.1586C76.7647 103.02 77.2812 102.568 77.3439 101.964C77.3439 101.961 77.3439 101.955 77.3439 101.952L78.1232 94.3621C78.2098 93.5271 78.2396 92.8178 78.2128 92.2282C78.1859 91.6386 78.0485 91.1568 77.8007 90.7827L77.7918 90.7767Z" fill="black"/>
<path d="M47.5312 121.14H55.9332L56.4407 116.911L57.3185 108.354H48.842L47.5312 121.14Z" fill="black"/>
<path d="M144.226 106.108C144.107 105.734 143.898 105.462 143.599 105.288C143.3 105.115 142.924 105.007 142.47 104.965C142.232 104.941 141.969 104.926 141.691 104.914C141.44 104.905 141.172 104.899 140.888 104.899H113.321V104.914L113.15 106.602H135.938L135.803 107.919L134.982 115.919C134.896 116.754 134.687 117.328 134.352 117.643C134.018 117.96 133.406 118.119 132.519 118.119H125.634C124.744 118.119 124.165 117.96 123.896 117.643C123.627 117.325 123.535 116.751 123.621 115.919L124.063 111.606H115.587L115.079 116.565C114.993 117.4 114.966 118.104 114.993 118.678C115.019 119.253 115.172 119.729 115.449 120.103C115.697 120.477 116.109 120.743 116.68 120.902C117.25 121.06 118.023 121.138 118.999 121.138H138.532C139.506 121.138 140.297 121.057 140.903 120.902C141.506 120.743 141.987 120.477 142.339 120.103C142.665 119.729 142.9 119.253 143.044 118.678C143.19 118.104 143.303 117.4 143.39 116.565L144.298 107.704C144.343 107.273 144.346 106.911 144.316 106.602C144.298 106.417 144.271 106.249 144.226 106.108Z" fill="black"/>
<path d="M145.344 90.7767C145.063 90.4325 144.639 90.1722 144.069 90.0016C143.496 89.828 142.723 89.7412 141.749 89.7412H122.216C121.24 89.7412 120.449 89.828 119.846 89.9986C119.24 90.1722 118.777 90.4296 118.454 90.7737C118.099 91.1478 117.851 91.6297 117.705 92.2192C117.559 92.8088 117.442 93.5211 117.359 94.3531L116.564 102.113H125.041L125.793 94.7841C125.883 93.9221 126.089 93.3685 126.414 93.1231C126.74 92.8777 127.349 92.7549 128.239 92.7549H135.166C136.026 92.7549 136.596 92.8777 136.871 93.1231C137.145 93.3685 137.241 93.9221 137.151 94.7841L136.691 99.2702H145.168L145.673 94.3531C145.759 93.5181 145.789 92.8088 145.762 92.2192C145.735 91.6297 145.598 91.1478 145.35 90.7737L145.344 90.7767Z" fill="black"/>
<path d="M178.076 106.108C177.956 105.734 177.747 105.462 177.449 105.288C177.15 105.115 176.774 105.007 176.32 104.965C176.081 104.941 175.818 104.926 175.541 104.914C175.29 104.905 175.021 104.899 174.738 104.899H147.17V104.914L147 106.602H169.787L169.653 107.919L168.832 115.919C168.745 116.754 168.536 117.328 168.202 117.643C167.867 117.96 167.255 118.119 166.369 118.119H159.483C158.594 118.119 158.014 117.96 157.746 117.643C157.477 117.325 157.384 116.751 157.471 115.919L157.913 111.606H149.436L148.929 116.565C148.842 117.4 148.815 118.104 148.842 118.678C148.869 119.253 149.021 119.729 149.299 120.103C149.547 120.477 149.959 120.743 150.529 120.902C151.099 121.06 151.873 121.138 152.849 121.138H172.382C173.355 121.138 174.146 121.057 174.753 120.902C175.356 120.743 175.836 120.477 176.189 120.103C176.514 119.729 176.75 119.253 176.893 118.678C177.04 118.104 177.153 117.4 177.24 116.565L178.147 107.704C178.192 107.273 178.195 106.911 178.165 106.602C178.147 106.417 178.12 106.249 178.076 106.108Z" fill="black"/>
<path d="M179.605 92.2231C179.578 91.6336 179.44 91.1517 179.193 90.7776C178.912 90.4335 178.488 90.1731 177.918 90.0025C177.347 89.8289 176.574 89.7451 175.601 89.7451H156.068C155.092 89.7451 154.3 89.8319 153.697 90.0025C153.091 90.1761 152.628 90.4335 152.306 90.7776C151.951 91.1517 151.703 91.6336 151.557 92.2231C151.41 92.8127 151.294 93.525 151.21 94.357L150.416 102.117H158.893L159.645 94.788C159.735 93.926 159.941 93.3724 160.266 93.127C160.591 92.8816 161.201 92.7589 162.09 92.7589H169.017C169.877 92.7589 170.447 92.8816 170.722 93.127C171 93.3724 171.092 93.926 171.003 94.788L170.543 99.2741H179.02L179.524 94.357C179.611 93.522 179.641 92.8127 179.614 92.2231H179.605Z" fill="black"/>
<defs>
<linearGradient id="paint0_linear_62_61177" x1="229.871" y1="30.1631" x2="229.871" y2="149.393" gradientUnits="userSpaceOnUse">
<stop stop-color="#1AD5E2"/>
<stop offset="1" stop-color="#647DFE"/>
</linearGradient>
<linearGradient id="paint1_linear_62_61177" x1="237.354" y1="45.9082" x2="237.354" y2="156.142" gradientUnits="userSpaceOnUse">
<stop stop-color="#1AD5E2"/>
<stop offset="1" stop-color="#647DFE"/>
</linearGradient>
<linearGradient id="paint2_linear_62_61177" x1="243.421" y1="35.3877" x2="243.421" y2="155.931" gradientUnits="userSpaceOnUse">
<stop stop-color="#1AD5E2"/>
<stop offset="1" stop-color="#647DFE"/>
</linearGradient>
<linearGradient id="paint3_linear_62_61177" x1="238.887" y1="28.4805" x2="238.887" y2="148.74" gradientUnits="userSpaceOnUse">
<stop stop-color="#1AD5E2"/>
<stop offset="1" stop-color="#647DFE"/>
</linearGradient>
<linearGradient id="paint4_linear_62_61177" x1="225.094" y1="25.9385" x2="225.094" y2="135.355" gradientUnits="userSpaceOnUse">
<stop stop-color="#1AD5E2"/>
<stop offset="1" stop-color="#647DFE"/>
</linearGradient>
<linearGradient id="paint5_linear_62_61177" x1="211.223" y1="28" x2="211.223" y2="147.602" gradientUnits="userSpaceOnUse">
<stop stop-color="#1AD5E2"/>
<stop offset="1" stop-color="#647DFE"/>
</linearGradient>
<linearGradient id="paint6_linear_62_61177" x1="204.762" y1="34.4727" x2="204.762" y2="155.495" gradientUnits="userSpaceOnUse">
<stop stop-color="#1AD5E2"/>
<stop offset="1" stop-color="#647DFE"/>
</linearGradient>
<linearGradient id="paint7_linear_62_61177" x1="210.636" y1="44.6641" x2="210.636" y2="156.455" gradientUnits="userSpaceOnUse">
<stop stop-color="#1AD5E2"/>
<stop offset="1" stop-color="#647DFE"/>
</linearGradient>
<linearGradient id="paint8_linear_62_61177" x1="218.004" y1="32.0186" x2="218.004" y2="150.417" gradientUnits="userSpaceOnUse">
<stop stop-color="#1AD5E2"/>
<stop offset="1" stop-color="#647DFE"/>
</linearGradient>
<linearGradient id="paint9_linear_62_61177" x1="222.642" y1="16.4961" x2="222.642" y2="138.014" gradientUnits="userSpaceOnUse">
<stop stop-color="#1AD5E2"/>
<stop offset="1" stop-color="#647DFE"/>
</linearGradient>
<linearGradient id="paint10_linear_62_61177" x1="214.768" y1="6.65137" x2="214.768" y2="120.577" gradientUnits="userSpaceOnUse">
<stop stop-color="#1AD5E2"/>
<stop offset="1" stop-color="#647DFE"/>
</linearGradient>
<linearGradient id="paint11_linear_62_61177" x1="207.934" y1="3.51953" x2="207.934" y2="120.453" gradientUnits="userSpaceOnUse">
<stop stop-color="#1AD5E2"/>
<stop offset="1" stop-color="#647DFE"/>
</linearGradient>
<linearGradient id="paint12_linear_62_61177" x1="203.751" y1="7.45117" x2="203.751" y2="129.195" gradientUnits="userSpaceOnUse">
<stop stop-color="#1AD5E2"/>
<stop offset="1" stop-color="#647DFE"/>
</linearGradient>
<linearGradient id="paint13_linear_62_61177" x1="216.973" y1="18.0518" x2="216.973" y2="133.865" gradientUnits="userSpaceOnUse">
<stop stop-color="#1AD5E2"/>
<stop offset="1" stop-color="#647DFE"/>
</linearGradient>
<linearGradient id="paint14_linear_62_61177" x1="231" y1="18.7744" x2="231" y2="133.986" gradientUnits="userSpaceOnUse">
<stop stop-color="#1AD5E2"/>
<stop offset="1" stop-color="#647DFE"/>
</linearGradient>
<linearGradient id="paint15_linear_62_61177" x1="244.303" y1="7.85156" x2="244.303" y2="129.55" gradientUnits="userSpaceOnUse">
<stop stop-color="#1AD5E2"/>
<stop offset="1" stop-color="#647DFE"/>
</linearGradient>
<linearGradient id="paint16_linear_62_61177" x1="241.087" y1="3.5498" x2="241.087" y2="121" gradientUnits="userSpaceOnUse">
<stop stop-color="#1AD5E2"/>
<stop offset="1" stop-color="#647DFE"/>
</linearGradient>
<linearGradient id="paint17_linear_62_61177" x1="234.332" y1="6.31445" x2="234.332" y2="119.555" gradientUnits="userSpaceOnUse">
<stop stop-color="#1AD5E2"/>
<stop offset="1" stop-color="#647DFE"/>
</linearGradient>
<linearGradient id="paint18_linear_62_61177" x1="226.493" y1="15.8232" x2="226.493" y2="137.206" gradientUnits="userSpaceOnUse">
<stop stop-color="#1AD5E2"/>
<stop offset="1" stop-color="#647DFE"/>
</linearGradient>
<linearGradient id="paint19_linear_62_61177" x1="230.287" y1="31.085" x2="230.287" y2="149.914" gradientUnits="userSpaceOnUse">
<stop stop-color="#1AD5E2"/>
<stop offset="1" stop-color="#647DFE"/>
</linearGradient>
<linearGradient id="paint20_linear_62_61177" x1="237.714" y1="45.2822" x2="237.714" y2="156.309" gradientUnits="userSpaceOnUse">
<stop stop-color="#1AD5E2"/>
<stop offset="1" stop-color="#647DFE"/>
</linearGradient>
<linearGradient id="paint21_linear_62_61177" x1="243.685" y1="34.9248" x2="243.685" y2="155.723" gradientUnits="userSpaceOnUse">
<stop stop-color="#1AD5E2"/>
<stop offset="1" stop-color="#647DFE"/>
</linearGradient>
<linearGradient id="paint22_linear_62_61177" x1="238.186" y1="28.2344" x2="238.186" y2="148.18" gradientUnits="userSpaceOnUse">
<stop stop-color="#1AD5E2"/>
<stop offset="1" stop-color="#647DFE"/>
</linearGradient>
<linearGradient id="paint23_linear_62_61177" x1="224.354" y1="25.9316" x2="224.354" y2="134.505" gradientUnits="userSpaceOnUse">
<stop stop-color="#1AD5E2"/>
<stop offset="1" stop-color="#647DFE"/>
</linearGradient>
<linearGradient id="paint24_linear_62_61177" x1="135.011" y1="78.4406" x2="325.627" y2="78.4406" gradientUnits="userSpaceOnUse">
<stop stop-color="white"/>
<stop offset="1" stop-color="white" stop-opacity="0"/>
</linearGradient>
<clipPath id="clip0_62_61177">
<rect width="156" height="156" fill="white" transform="translate(145.047 0.44043)"/>
</clipPath>
</defs>
</svg>
