<svg width="36" height="36" viewBox="0 0 36 36" fill="none" xmlns="http://www.w3.org/2000/svg">
<g clip-path="url(#clip0_62_66049)">
<path fill-rule="evenodd" clip-rule="evenodd" d="M5.76903 30.2182C8.86889 33.317 13.026 35.1289 17.4061 35.2903C21.7863 35.4517 26.0654 33.9507 29.3849 31.0884C32.7044 28.2261 34.8187 24.2143 35.3034 19.8581C35.7882 15.5019 34.6076 11.1235 31.9985 7.60145C31.9673 7.5559 31.9273 7.51711 31.8807 7.48741C31.8342 7.45771 31.7821 7.43771 31.7277 7.42861C31.6732 7.41951 31.6175 7.4215 31.5638 7.43445C31.5102 7.44741 31.4597 7.47106 31.4154 7.504C31.3711 7.53694 31.3339 7.57848 31.306 7.62614C31.2781 7.67379 31.2602 7.72659 31.2532 7.78135C31.2462 7.83612 31.2504 7.89172 31.2654 7.94484C31.2805 7.99796 31.3061 8.0475 31.3407 8.09049C33.2271 10.6359 34.3429 13.6694 34.5556 16.8304C34.7683 19.9915 34.0689 23.1471 32.5405 25.9223C31.0121 28.6975 28.719 30.9754 25.9338 32.4854C23.1486 33.9954 19.9884 34.6739 16.8288 34.4403C13.6693 34.2067 10.6432 33.0709 8.11035 31.1677C5.57748 29.2645 3.64433 26.6741 2.54068 23.7044C1.43702 20.7346 1.20928 17.5104 1.88451 14.415C2.55975 11.3196 4.10956 8.48319 6.34975 6.24288C12.471 0.122045 22.1398 -0.298707 28.7363 5.31435L28.9798 5.52162L26.5654 5.77085C26.4605 5.7812 26.3637 5.83149 26.2949 5.9113C26.2262 5.99112 26.1907 6.09434 26.196 6.19956C26.2013 6.30478 26.2469 6.40394 26.3233 6.47648C26.3997 6.54902 26.5011 6.58937 26.6064 6.58918C26.6201 6.58914 26.6338 6.58842 26.6474 6.587L29.9499 6.24643C30.0036 6.24106 30.0557 6.22516 30.1033 6.19963C30.1509 6.17411 30.193 6.13946 30.2272 6.09766C30.2614 6.05587 30.287 6.00775 30.3026 5.95605C30.3182 5.90435 30.3235 5.85008 30.3181 5.79635L29.9763 2.49384C29.9708 2.44034 29.9548 2.38844 29.9293 2.34112C29.9037 2.2938 29.8691 2.25197 29.8273 2.21803C29.7856 2.1841 29.7376 2.15871 29.6861 2.14332C29.6345 2.12794 29.5805 2.12285 29.527 2.12836C29.4735 2.13387 29.4216 2.14986 29.3742 2.17542C29.3269 2.20098 29.2851 2.23562 29.2512 2.27734C29.2172 2.31907 29.1918 2.36707 29.1764 2.41861C29.1611 2.47015 29.156 2.52421 29.1615 2.57772L29.3893 4.78921L29.1315 4.57477C25.6944 1.7238 21.2911 0.306662 16.8363 0.617785C12.3816 0.928908 8.21794 2.94437 5.21051 6.24543C2.20308 9.54649 0.583076 13.8793 0.687089 18.3437C0.791101 22.8081 2.61113 27.0608 5.76903 30.2182Z" fill="#D6EDFF"/>
<path fill-rule="evenodd" clip-rule="evenodd" d="M18.9209 9.88731C18.849 9.88717 18.7778 9.90122 18.7113 9.92863C18.6448 9.95605 18.5844 9.99631 18.5334 10.0471C18.4825 10.0979 18.4421 10.1582 18.4145 10.2246C18.3869 10.2911 18.3727 10.3623 18.3727 10.4342V19.1726H12.0289C11.8839 19.1726 11.7448 19.2302 11.6422 19.3327C11.5397 19.4353 11.4821 19.5744 11.4821 19.7194C11.4821 19.8645 11.5397 20.0036 11.6422 20.1061C11.7448 20.2087 11.8839 20.2663 12.0289 20.2663H18.9209C19.0656 20.2658 19.2043 20.208 19.3064 20.1055C19.4086 20.003 19.466 19.8642 19.466 19.7194V10.434C19.466 10.2893 19.4086 10.1504 19.3064 10.0479C19.2043 9.94542 19.0656 9.88759 18.9209 9.8871V9.88731ZM30.3666 17.9409C30.3713 19.5596 30.0547 21.1631 29.4353 22.6585C28.8158 24.154 27.9057 25.5116 26.7578 26.6528C21.9557 31.4565 14.1382 31.4565 9.33605 26.6528C7.90327 25.2203 6.84591 23.4565 6.25763 21.5177C5.66935 19.5789 5.56831 17.5249 5.96346 15.5378C6.35861 13.5506 7.23776 11.6916 8.52302 10.1253C9.80828 8.55911 11.46 7.33403 13.3318 6.55863C15.2036 5.78323 17.2378 5.48144 19.2541 5.68001C21.2704 5.87857 23.2067 6.57135 24.8913 7.69697C26.5759 8.8226 27.9569 10.3463 28.912 12.1332C29.867 13.92 30.3667 15.9149 30.3666 17.9409ZM27.5318 8.45538C30.0475 10.9709 31.4608 14.3828 31.4609 17.9404C31.461 21.498 30.0479 24.9099 27.5323 27.4256C25.0168 29.9413 21.6049 31.3546 18.0473 31.3547C14.4897 31.3548 11.0778 29.9417 8.56208 27.4261C6.0469 24.9102 4.63394 21.4983 4.63394 17.9408C4.63394 14.3832 6.0469 10.9713 8.56208 8.45538C13.7899 3.22535 22.3008 3.22535 27.5318 8.45538ZM5.6724 30.3151C3.23953 27.8823 1.57778 24.7862 0.894908 21.4141C0.212034 18.0419 0.538333 14.5433 1.83301 11.3556C3.12769 8.1679 5.3333 5.43255 8.17409 3.49153C11.0149 1.55051 14.3648 0.489949 17.8051 0.442435C21.9693 0.373651 26.0197 1.80291 29.2185 4.4699L29.0253 2.59193C29.018 2.52056 29.0248 2.44844 29.0453 2.3797C29.0658 2.31095 29.0997 2.24692 29.1449 2.19126C29.1902 2.1356 29.246 2.0894 29.3091 2.0553C29.3722 2.0212 29.4415 1.99987 29.5128 1.99252C29.5842 1.98517 29.6563 1.99195 29.7251 2.01247C29.7938 2.033 29.8578 2.06686 29.9135 2.11213C29.9692 2.1574 30.0154 2.21319 30.0495 2.27631C30.0836 2.33943 30.1049 2.40866 30.1122 2.48002L30.454 5.78246C30.4686 5.92705 30.4251 6.0715 30.3332 6.18405C30.2413 6.2966 30.1084 6.36804 29.9638 6.38266L26.6614 6.72323C26.642 6.72514 26.6227 6.7261 26.6067 6.7261C26.4664 6.72611 26.3314 6.6722 26.2298 6.57551C26.1281 6.47881 26.0675 6.34674 26.0604 6.2066C26.0534 6.06646 26.1005 5.92899 26.192 5.82261C26.2835 5.71623 26.4124 5.6491 26.552 5.63508L28.6483 5.41866C22.1492 -0.111002 12.5579 0.228607 6.44622 6.33993C4.90756 7.85999 3.68464 9.66928 2.84782 11.6637C2.011 13.6582 1.5768 15.7984 1.57021 17.9612C1.56361 20.1241 1.98474 22.2669 2.80938 24.2665C3.63401 26.266 4.84587 28.0827 6.37524 29.6121C7.9046 31.1415 9.72129 32.3534 11.7208 33.1781C13.7203 34.0028 15.8631 34.424 18.0259 34.4175C20.1888 34.4109 22.329 33.9768 24.3235 33.14C26.318 32.3033 28.1273 31.0804 29.6474 29.5418C35.359 23.8311 36.0394 14.6442 31.2309 8.17224C31.1851 8.11487 31.1513 8.04888 31.1316 7.97818C31.1118 7.90749 31.1065 7.83355 31.116 7.76076C31.1254 7.68797 31.1494 7.61782 31.1865 7.5545C31.2236 7.49118 31.2731 7.43598 31.332 7.39219C31.3909 7.3484 31.458 7.31692 31.5294 7.29961C31.6007 7.28231 31.6748 7.27955 31.7472 7.29148C31.8196 7.30342 31.8889 7.32981 31.9509 7.36908C32.0129 7.40836 32.0664 7.45972 32.1081 7.52009C34.7384 11.0697 35.9289 15.4829 35.4406 19.8738C34.9523 24.2647 32.8214 28.3085 29.4756 31.1935C26.1297 34.0786 21.8165 35.5915 17.4015 35.4286C12.9865 35.2657 8.79652 33.439 5.6724 30.3151Z" fill="#3461FF"/>
</g>
<defs>
<clipPath id="clip0_62_66049">
<rect width="35" height="35" fill="white" transform="translate(0.546875 0.44043)"/>
</clipPath>
</defs>
</svg>
