<svg width="22" height="36" viewBox="0 0 22 36" fill="none" xmlns="http://www.w3.org/2000/svg">
<path fill-rule="evenodd" clip-rule="evenodd" d="M9.25779 19.1388C9.29969 19.0554 9.31956 18.9627 9.31553 18.8695C9.31149 18.7762 9.28367 18.6856 9.23472 18.6061C9.18577 18.5266 9.11731 18.461 9.03584 18.4155C8.95438 18.3699 8.86263 18.346 8.7693 18.3459H1.72746L11.6982 1.53418H18.6133L12.3457 12.583C12.2985 12.6661 12.2739 12.7602 12.2744 12.8559C12.275 12.9515 12.3006 13.0453 12.3487 13.128C12.3969 13.2106 12.4659 13.2791 12.5488 13.3268C12.6318 13.3744 12.7258 13.3994 12.8214 13.3992H20.1031L2.91842 31.7552L9.25779 19.1388ZM0.417012 35.3421C0.524841 35.4174 0.65619 35.4513 0.786987 35.4376C0.917784 35.424 1.03927 35.3636 1.12918 35.2676L21.7633 13.2264C21.8362 13.1485 21.8848 13.0511 21.903 12.946C21.9212 12.8409 21.9084 12.7328 21.8659 12.635C21.8235 12.5371 21.7534 12.4538 21.6642 12.3953C21.5751 12.3368 21.4707 12.3056 21.3641 12.3056H13.7603L20.0279 1.25726C20.075 1.17404 20.0994 1.07994 20.0988 0.984329C20.0982 0.888721 20.0726 0.794939 20.0244 0.712319C19.9763 0.6297 19.9074 0.561125 19.8245 0.513423C19.7417 0.46572 19.6478 0.440554 19.5522 0.44043L11.3866 0.44043C11.2916 0.440439 11.1983 0.465196 11.1159 0.512259C11.0334 0.559322 10.9646 0.627065 10.9163 0.708809L0.296973 18.6138C0.247713 18.6969 0.22131 18.7915 0.220446 18.888C0.219583 18.9845 0.24429 19.0796 0.292056 19.1635C0.339823 19.2474 0.408947 19.3171 0.492404 19.3656C0.575861 19.4142 0.670677 19.4397 0.767217 19.4398H7.8824L0.240987 34.6481C0.181996 34.7657 0.16732 34.9005 0.199648 35.0279C0.231976 35.1554 0.309143 35.2669 0.417012 35.3421Z" fill="#3461FF"/>
</svg>
