<svg width="34" height="36" viewBox="0 0 34 36" fill="none" xmlns="http://www.w3.org/2000/svg">
<path fill-rule="evenodd" clip-rule="evenodd" d="M15.4783 11.1728L11.3622 16.2228L7.24549 11.1728H9.32457C9.39641 11.1729 9.46755 11.1588 9.53393 11.1313C9.60032 11.1039 9.66063 11.0636 9.71143 11.0128C9.76223 10.962 9.8025 10.9017 9.82996 10.8353C9.85742 10.7689 9.87152 10.6978 9.87144 10.626V1.63431H12.8536V10.626C12.8535 10.6978 12.8676 10.7689 12.8951 10.8353C12.9225 10.9017 12.9628 10.962 13.0136 11.0128C13.0644 11.0636 13.1247 11.1039 13.1911 11.1313C13.2575 11.1588 13.3286 11.1729 13.4004 11.1728H15.4783ZM13.4002 0.540283H9.32457C9.25274 0.54022 9.18159 0.554323 9.11522 0.581784C9.04884 0.609244 8.98852 0.649524 8.93773 0.700319C8.88694 0.751114 8.84665 0.811426 8.81919 0.877804C8.79173 0.944182 8.77763 1.01532 8.77769 1.08716V10.0785H6.09432C5.99076 10.0786 5.88935 10.108 5.80186 10.1634C5.71437 10.2188 5.64438 10.2979 5.60001 10.3915C5.55564 10.485 5.53871 10.5893 5.55118 10.6921C5.56366 10.7949 5.60503 10.892 5.67049 10.9723L10.9383 17.4337C10.9897 17.4963 11.0544 17.5467 11.1277 17.5813C11.201 17.6159 11.281 17.6338 11.3621 17.6338C11.4431 17.6338 11.5232 17.6159 11.5964 17.5813C11.6697 17.5467 11.7344 17.4963 11.7859 17.4337L17.0537 10.9724C17.1192 10.8922 17.1605 10.795 17.173 10.6922C17.1855 10.5894 17.1685 10.4852 17.1242 10.3916C17.0798 10.298 17.0098 10.219 16.9223 10.1636C16.8348 10.1082 16.7334 10.0787 16.6299 10.0786H13.9467V1.0873C13.9467 0.942326 13.8891 0.803288 13.7867 0.700741C13.6842 0.598194 13.5452 0.540529 13.4002 0.54042V0.540283ZM25.549 26.6057C25.549 27.607 24.7783 28.4519 23.7454 28.6765V24.5351C24.7783 24.7597 25.549 25.6047 25.549 26.6059V26.6057ZM20.8482 21.2532C20.8482 20.252 21.6189 19.412 22.6518 19.1873V23.324C21.6189 23.0994 20.8482 22.2593 20.8482 21.2532ZM25.549 21.2532C25.549 21.3982 25.6066 21.5373 25.7092 21.6399C25.8117 21.7424 25.9508 21.8 26.0959 21.8C26.2409 21.8 26.38 21.7424 26.4826 21.6399C26.5851 21.5373 26.6427 21.3982 26.6427 21.2532C26.6427 19.6513 25.3856 18.318 23.7456 18.0738V16.9406C23.7456 16.7955 23.688 16.6564 23.5854 16.5539C23.4829 16.4513 23.3438 16.3937 23.1987 16.3937C23.0537 16.3937 22.9146 16.4513 22.812 16.5539C22.7095 16.6564 22.6518 16.7955 22.6518 16.9406V18.0736C21.0118 18.3178 19.7547 19.6512 19.7547 21.253C19.7547 22.8599 21.0118 24.1883 22.6518 24.4374V28.6767C21.6189 28.452 20.8482 27.6071 20.8482 26.6059C20.8482 26.4608 20.7906 26.3217 20.688 26.2192C20.5854 26.1166 20.4463 26.059 20.3013 26.059C20.1563 26.059 20.0172 26.1166 19.9146 26.2192C19.812 26.3217 19.7544 26.4608 19.7544 26.6059C19.7544 28.2078 21.0116 29.5411 22.6516 29.7853V30.9184C22.6516 31.0634 22.7092 31.2025 22.8117 31.3051C22.9143 31.4076 23.0534 31.4652 23.1984 31.4652C23.3435 31.4652 23.4826 31.4076 23.5851 31.3051C23.6877 31.2025 23.7453 31.0634 23.7453 30.9184V29.7853C25.3853 29.5411 26.6425 28.2078 26.6425 26.6059C26.6425 25.0039 25.3853 23.6706 23.7453 23.4264V19.1871C24.7782 19.4118 25.5489 20.2518 25.5489 21.253L25.549 21.2532ZM23.1992 32.8182C25.5558 32.8158 27.8152 31.8786 29.4815 30.2121C31.1478 28.5456 32.0849 26.2861 32.087 23.9294C32.087 19.0309 28.1002 15.0407 23.1992 15.0407C18.2982 15.0407 14.3109 19.0309 14.3109 23.9294C14.3131 26.2861 15.2503 28.5457 16.9167 30.2121C18.583 31.8786 20.8425 32.8159 23.1992 32.8182ZM18.8584 34.4446H4.02843C3.76223 34.4462 3.49836 34.3951 3.25198 34.2943C3.0056 34.1935 2.78158 34.045 2.59281 33.8573C2.40403 33.6696 2.25422 33.4465 2.15199 33.2007C2.04976 32.9549 1.99714 32.6913 1.99714 32.4251C1.99714 32.1589 2.04976 31.8953 2.15199 31.6496C2.25422 31.4038 2.40403 31.1806 2.59281 30.9929C2.78158 30.8053 3.0056 30.6567 3.25198 30.5559C3.49836 30.4551 3.76223 30.4041 4.02843 30.4056H15.6073C16.8999 31.9204 18.6147 33.0154 20.5327 33.5508C20.3472 33.8246 20.0978 34.049 19.806 34.2047C19.5143 34.3605 19.1891 34.4428 18.8584 34.4446ZM2.00841 27.2896C2.00922 26.7544 2.2224 26.2414 2.60114 25.8632C2.97987 25.485 3.4932 25.2726 4.02843 25.2726H13.3069C13.5013 26.7115 14.0091 28.0903 14.7945 29.3116H4.02843C3.4927 29.3104 2.97928 29.097 2.60064 28.718C2.222 28.339 2.00904 27.8254 2.00841 27.2896ZM2.00841 22.1566C2.00922 21.6214 2.2224 21.1084 2.60114 20.7302C2.97987 20.352 3.4932 20.1396 4.02843 20.1395H13.9662C13.47 21.3414 13.2153 22.6292 13.2165 23.9294C13.2165 24.0125 13.218 24.0955 13.22 24.1785H4.02843C3.4927 24.1774 2.97928 23.964 2.60064 23.585C2.222 23.206 2.00904 22.6923 2.00841 22.1566ZM23.1992 13.9467C21.427 13.9488 19.6872 14.422 18.1582 15.318C16.6292 16.214 15.3659 17.5004 14.4979 19.0455H4.02843C3.36364 19.0452 2.71622 19.2578 2.181 19.6521C1.64579 20.0464 1.25092 20.6018 1.05424 21.2368C0.85756 21.8718 0.869404 22.5532 1.08804 23.181C1.30667 23.8088 1.72061 24.3501 2.2692 24.7256C1.85175 25.011 1.51021 25.3939 1.27421 25.8411C1.03821 26.2883 0.914856 26.7864 0.914856 27.2921C0.914856 27.7978 1.03821 28.2958 1.27421 28.743C1.51021 29.1903 1.85175 29.5732 2.2692 29.8586C1.72061 30.2341 1.30667 30.7754 1.08804 31.4032C0.869404 32.031 0.85756 32.7123 1.05424 33.3474C1.25092 33.9824 1.64579 34.5377 2.181 34.9321C2.71622 35.3264 3.36364 35.539 4.02843 35.5386H18.8584C19.4402 35.5364 20.0099 35.372 20.5035 35.064C20.9971 34.7561 21.3952 34.3166 21.653 33.795C22.1646 33.8738 22.6815 33.913 23.1992 33.9122C28.7034 33.9122 33.1805 29.4337 33.1805 23.9294C33.1805 18.4252 28.7031 13.9467 23.1992 13.9467Z" fill="#3461FF"/>
</svg>
