<svg width="285" height="285" viewBox="0 0 285 285" fill="none" xmlns="http://www.w3.org/2000/svg">
<g opacity="0.1" clip-path="url(#clip0_62_67677)">
<path d="M24.5739 136.322C32.1899 157.764 42.3823 182.54 54.3232 201.952C70.4156 228.114 90.8804 248.717 101.647 258.671C109.545 265.971 117.224 272.194 123.854 276.666C134.295 283.71 139.383 284.525 142.301 284.525H142.306V136.322H24.5739Z" fill="#93C7FF"/>
<path d="M142.307 136.322V284.523C145.228 284.523 150.313 283.706 160.75 276.666C167.38 272.194 175.059 265.969 182.957 258.671C193.724 248.717 214.188 228.114 230.281 201.95C242.22 182.54 252.414 157.764 260.03 136.32H142.307V136.322Z" fill="#3461FF"/>
<path d="M260.03 136.433C269.055 109.9 274.463 88.2579 274.866 86.6302C275.789 82.9067 274.216 79.0035 270.996 77.0298C243.225 59.9913 227.98 41.9461 220.082 29.8065C211.805 17.0858 209.651 8.02437 209.521 7.45221C208.746 3.3628 205.27 0.52417 201.197 0.52417H142.307V136.433H260.03Z" fill="#93C7FF"/>
<path d="M142.306 0.52417H83.4078C79.3344 0.52417 75.8589 3.36164 75.0854 7.44936C74.9554 8.02129 72.7995 17.079 64.5225 29.7944C56.6248 41.929 41.3796 59.9669 13.6085 76.9983C10.3887 78.9712 8.81566 82.8728 9.73869 86.5947C10.1417 88.2218 15.5499 109.855 24.5744 136.377H142.306V0.52417Z" fill="#6B9EFF"/>
<path d="M142.51 192.3C109.983 192.3 83.5204 165.835 83.5204 133.311C83.5204 100.783 109.983 74.321 142.51 74.321C175.037 74.321 201.499 100.783 201.499 133.308C201.499 165.835 175.037 192.3 142.51 192.3Z" fill="#4018D4"/>
<path d="M83.5204 133.311C83.5204 165.545 109.508 191.817 141.632 192.289V74.332C109.508 74.8022 83.5204 101.076 83.5204 133.311Z" fill="#7B5DEE"/>
<path d="M134.372 157.541C134.235 157.541 134.097 157.537 133.96 157.531C131.564 157.416 129.33 156.293 127.807 154.441L116.956 141.254C113.972 137.627 114.492 132.269 118.119 129.285C121.744 126.301 127.102 126.824 130.086 130.448L134.985 136.403L153.732 117.654C157.051 114.334 162.435 114.334 165.755 117.654C169.077 120.976 169.077 126.358 165.755 129.679L140.382 155.052C138.785 156.649 136.621 157.541 134.372 157.541Z" fill="#F2F7FC"/>
<path d="M134.985 136.403L130.086 130.448C127.102 126.823 121.744 126.303 118.119 129.285C114.492 132.268 113.972 137.627 116.956 141.254L127.807 154.441C129.33 156.293 131.566 157.416 133.96 157.53C134.097 157.537 134.235 157.541 134.372 157.541C136.621 157.541 138.785 156.649 140.385 155.05L141.633 153.802V129.753L134.985 136.403Z" fill="white"/>
</g>
<g clip-path="url(#clip1_62_67677)">
<path d="M142.217 237.19C140.271 237.19 136.879 236.636 129.918 231.846C125.498 228.802 120.379 224.57 115.114 219.605C107.936 212.835 94.2927 198.819 83.5644 181.023C66.1742 152.176 54.3366 105.897 53.8411 103.942C53.2272 101.516 54.2759 98.9754 56.421 97.6883C74.9365 86.5917 85.0985 74.8365 90.3637 66.9307C95.8816 58.6437 97.3189 52.7429 97.4056 52.3703C97.9213 49.7066 100.238 47.8577 102.954 47.8577H181.479C184.195 47.8577 186.512 49.7066 187.029 52.3703C187.114 52.7429 188.552 58.6451 194.07 66.9307C199.336 74.8379 209.498 86.5917 228.012 97.6898C230.159 98.9754 231.208 101.518 230.592 103.943C230.097 105.899 218.261 152.176 200.869 181.024C190.141 198.82 176.497 212.835 169.32 219.605C164.054 224.571 158.937 228.804 154.515 231.846C147.554 236.637 144.162 237.19 142.217 237.19Z" fill="#7AB4F9"/>
<path d="M63.7314 136.382C68.8088 150.967 75.6037 167.82 83.5643 181.024C94.2926 198.82 107.936 212.835 115.113 219.605C120.379 224.571 125.498 228.804 129.918 231.846C136.879 236.637 140.271 237.192 142.217 237.192H142.219V136.382H63.7314Z" fill="#DEEFFF"/>
<path d="M142.22 136.382V237.19C144.167 237.19 147.557 236.634 154.515 231.845C158.935 228.803 164.055 224.57 169.32 219.605C176.498 212.835 190.141 198.82 200.869 181.022C208.828 167.82 215.625 150.967 220.702 136.38H142.22V136.382Z" fill="#3461FF"/>
<path d="M220.702 136.382C226.718 119.1 230.324 105.003 230.592 103.943C231.208 101.518 230.159 98.9754 228.012 97.6898C209.498 86.5917 199.335 74.8379 194.07 66.9307C188.552 58.6451 187.116 52.7429 187.029 52.3703C186.512 49.7066 184.195 47.8577 181.48 47.8577H142.22V136.382H220.702Z" fill="#CDE7FF"/>
<path d="M142.22 47.8577H102.954C100.238 47.8577 97.9214 49.7066 97.4058 52.3703C97.3191 52.7429 95.8818 58.6451 90.3639 66.9307C85.0987 74.8379 74.9352 86.5917 56.4212 97.6898C54.2746 98.9754 53.2259 101.518 53.8413 103.943C54.11 105.003 57.7154 119.1 63.7317 136.382H142.22V47.8577Z" fill="#6B9EFF"/>
<path d="M142.355 175.708C120.671 175.708 103.029 158.065 103.029 136.382C103.029 114.697 120.671 97.0557 142.355 97.0557C164.04 97.0557 181.682 114.697 181.682 136.381C181.682 158.065 164.04 175.708 142.355 175.708Z" fill="#4018D4"/>
<path d="M103.029 136.382C103.029 157.872 120.354 175.386 141.77 175.701V97.063C120.354 97.3764 103.029 114.892 103.029 136.382Z" fill="#7B5DEE"/>
<path fill-rule="evenodd" clip-rule="evenodd" d="M163.48 121.167C164.119 121.807 164.478 122.673 164.478 123.577C164.478 124.481 164.119 125.347 163.48 125.986L137.936 151.53C137.598 151.868 137.198 152.136 136.757 152.319C136.315 152.501 135.843 152.595 135.365 152.595C134.888 152.595 134.415 152.501 133.974 152.319C133.533 152.136 133.132 151.868 132.794 151.53L120.103 138.841C119.778 138.527 119.518 138.151 119.339 137.735C119.161 137.319 119.067 136.872 119.063 136.42C119.059 135.967 119.145 135.518 119.316 135.099C119.488 134.681 119.741 134.3 120.061 133.98C120.381 133.66 120.761 133.407 121.18 133.236C121.599 133.064 122.048 132.978 122.5 132.982C122.953 132.986 123.4 133.08 123.816 133.259C124.232 133.437 124.608 133.697 124.922 134.022L135.364 144.465L158.659 121.167C158.975 120.851 159.351 120.599 159.765 120.428C160.178 120.257 160.622 120.168 161.069 120.168C161.517 120.168 161.961 120.257 162.374 120.428C162.788 120.599 163.164 120.851 163.48 121.167Z" fill="white"/>
</g>
<defs>
<clipPath id="clip0_62_67677">
<rect width="284" height="284" fill="white" transform="translate(0.0463867 0.52417)"/>
</clipPath>
<clipPath id="clip1_62_67677">
<rect width="189.333" height="189.333" fill="white" transform="translate(47.3796 47.8577)"/>
</clipPath>
</defs>
</svg>
