<svg width="501" height="360" viewBox="0 0 501 360" fill="none" xmlns="http://www.w3.org/2000/svg">
<path d="M438.068 304.208C441.263 304.208 444.146 302.001 444.874 298.754C445.718 294.991 443.353 291.257 439.59 290.413L63.5563 206.039C59.7941 205.195 56.0598 207.56 55.2155 211.323C54.3713 215.085 56.7369 218.819 60.4991 219.663L436.533 304.037C437.048 304.153 437.562 304.208 438.068 304.208Z" fill="#E2ECFF"/>
<path d="M319.292 359.638C326.427 359.638 328.822 354.923 324.613 349.161L247.313 243.34C243.104 237.578 236.216 237.578 232.007 243.34L154.707 349.161C150.498 354.923 152.893 359.638 160.028 359.638H319.292Z" fill="#E2ECFF"/>
<path d="M438.061 304.205C441.917 304.205 445.043 301.079 445.043 297.224V278.209C445.043 274.353 441.917 271.228 438.061 271.228C434.206 271.228 431.08 274.353 431.08 278.209V297.224C431.08 301.079 434.206 304.205 438.061 304.205Z" fill="#E2ECFF"/>
<path d="M388.576 252.026V260.755C388.576 270.355 396.43 278.209 406.03 278.209H470.095C479.694 278.209 487.549 270.355 487.549 260.755V252.026H388.576Z" fill="#E2ECFF"/>
<path d="M382.441 245.607C382.441 243.687 384.012 242.116 385.932 242.116H490.193C492.113 242.116 493.684 243.687 493.684 245.607V248.536C493.684 250.456 492.113 252.027 490.193 252.027H385.931C384.011 252.027 382.441 250.456 382.441 248.536L382.441 245.607Z" fill="#E2ECFF"/>
<path d="M62.0284 219.832C65.8842 219.832 69.0098 216.706 69.0098 212.851V193.836C69.0098 189.98 65.8842 186.854 62.0284 186.854C58.1726 186.854 55.0468 189.98 55.0468 193.836V212.851C55.0468 216.706 58.1726 219.832 62.0284 219.832Z" fill="#E2ECFF"/>
<path d="M12.5425 167.653V176.382C12.5425 185.982 20.3967 193.836 29.9967 193.836H94.0615C103.661 193.836 111.516 185.982 111.516 176.382V167.653H12.5425Z" fill="#E2ECFF"/>
<path d="M6.40762 161.234C6.40762 159.314 7.97839 157.743 9.89838 157.743H114.16C116.08 157.743 117.65 159.314 117.65 161.234V164.163C117.65 166.083 116.08 167.653 114.16 167.653H9.89838C7.97839 167.653 6.40762 166.083 6.40762 164.163V161.234Z" fill="#E2ECFF"/>
<circle cx="239.659" cy="256.035" r="7.04157" fill="white"/>
<rect x="5.15039" y="39.4697" width="112.5" height="112.5" rx="15" fill="#3461FF"/>
<path fill-rule="evenodd" clip-rule="evenodd" d="M34.8517 121.552H42.8172V130.057H34.8517V121.552Z" fill="white"/>
<path fill-rule="evenodd" clip-rule="evenodd" d="M48.1113 115.157H56.078V130.058H48.1113V115.157Z" fill="white"/>
<path fill-rule="evenodd" clip-rule="evenodd" d="M61.3691 107.569H69.3358V124.611L69.3101 124.684C68.9359 125.739 68.747 126.849 68.747 127.968C68.747 128.494 68.7884 129.019 68.8722 129.539L68.9548 130.056H61.3691V107.569Z" fill="white"/>
<path fill-rule="evenodd" clip-rule="evenodd" d="M78.6112 118.552C83.8051 118.552 88.0291 122.777 88.0291 127.97C88.0291 133.163 83.8051 137.388 78.6112 137.388C73.4174 137.388 69.1934 133.162 69.1934 127.97C69.1934 122.777 73.4174 118.552 78.6112 118.552Z" fill="white"/>
<path fill-rule="evenodd" clip-rule="evenodd" d="M74.6289 95.0498H82.5945V118.922L81.9945 118.702C80.9097 118.305 79.7669 118.104 78.6117 118.104C77.4576 118.104 76.3136 118.305 75.23 118.702L74.6289 118.922V95.0498Z" fill="white"/>
<path fill-rule="evenodd" clip-rule="evenodd" d="M34.5246 115.6C34.3715 115.264 34.5201 114.866 34.8564 114.712C52.4487 106.691 66.237 97.2283 76.9598 85.8128L75.1589 85.9726C74.7902 86.0061 74.4651 85.7324 74.4316 85.3648C74.3992 84.9962 74.6718 84.67 75.0405 84.6376L78.5719 84.3259C78.7495 84.3102 78.9249 84.365 79.0612 84.4789C79.1987 84.5929 79.2836 84.7571 79.2992 84.9336L79.612 88.465C79.6444 88.8337 79.3718 89.1599 79.0032 89.1923C78.983 89.1946 78.9629 89.1946 78.9428 89.1946C78.5998 89.1946 78.3071 88.932 78.277 88.5835L78.0971 86.5591C67.2302 98.1812 53.2553 107.798 35.4127 115.932C35.3222 115.974 35.2284 115.993 35.1345 115.993C34.8798 115.994 34.6374 115.847 34.5246 115.6ZM81.3548 130.042C81.3548 131.324 80.4711 132.403 79.2813 132.702V133.135C79.2813 133.504 78.9808 133.805 78.611 133.805C78.2423 133.805 77.9407 133.504 77.9407 133.135V132.7C77.219 132.517 76.5889 132.044 76.2146 131.375C76.0348 131.052 76.1499 130.643 76.4727 130.463C76.7956 130.282 77.2045 130.399 77.3855 130.722C77.6346 131.168 78.1049 131.445 78.611 131.445C79.3841 131.445 80.0142 130.817 80.0142 130.042C80.0142 129.269 79.3841 128.639 78.611 128.639C77.0983 128.639 75.8672 127.408 75.8672 125.895C75.8672 124.614 76.7509 123.536 77.9407 123.235V122.803C77.9407 122.433 78.2412 122.133 78.611 122.133C78.9808 122.133 79.2813 122.433 79.2813 122.803V123.238C80.003 123.421 80.632 123.893 81.0063 124.562C81.1873 124.885 81.0722 125.294 80.7493 125.474C80.4264 125.655 80.0176 125.539 79.8366 125.216C79.5874 124.769 79.1171 124.492 78.611 124.492C77.8379 124.492 77.2078 125.121 77.2078 125.895C77.2078 126.668 77.8379 127.298 78.611 127.298C80.1237 127.3 81.3548 128.53 81.3548 130.042ZM78.611 136.941C83.5579 136.941 87.582 132.917 87.582 127.97C87.582 123.023 83.5579 118.999 78.611 118.999C73.6641 118.999 69.64 123.023 69.64 127.97C69.64 132.916 73.6641 136.941 78.611 136.941ZM61.8152 129.611H68.4301C68.3441 129.076 68.2994 128.529 68.2994 127.97C68.2994 126.767 68.5072 125.61 68.8881 124.536V108.017H61.8152V129.611ZM75.0751 95.4966V118.283C76.1778 117.878 77.3687 117.658 78.611 117.658C79.8522 117.658 81.0443 117.879 82.1469 118.283V95.4966H75.0751ZM83.4875 118.886V94.8263C83.4875 94.4565 83.1881 94.156 82.8172 94.156H74.4048C74.0339 94.156 73.7345 94.4565 73.7345 94.8263V118.886C72.3436 119.636 71.1449 120.695 70.2288 121.971V107.347C70.2288 106.977 69.9282 106.676 69.5584 106.676H61.1449C60.7751 106.676 60.4746 106.977 60.4746 107.347V130.28C60.4746 130.65 60.7751 130.951 61.1449 130.951H68.7396C70.0221 135.187 73.9613 138.28 78.611 138.28C84.2964 138.28 88.9227 133.655 88.9227 127.969C88.9227 124.046 86.7207 120.629 83.4875 118.886ZM55.6294 129.611V115.604H48.5564V129.611H55.6294ZM56.2997 114.263H47.8861C47.5163 114.263 47.2158 114.564 47.2158 114.933V130.281C47.2158 130.651 47.5163 130.952 47.8861 130.952H56.2997C56.6695 130.952 56.97 130.651 56.97 130.281V114.933C56.97 114.564 56.6695 114.263 56.2997 114.263ZM42.3695 129.611H35.2977V122H42.3695V129.611ZM43.0398 120.658H34.6273C34.2576 120.658 33.957 120.958 33.957 121.328V130.28C33.957 130.65 34.2576 130.951 34.6273 130.951H43.0398C43.4107 130.951 43.7101 130.65 43.7101 130.28V121.328C43.7101 120.958 43.4107 120.658 43.0398 120.658Z" fill="#3461FF"/>
<path d="M38.6523 75.417H36.5625V66.374H34.6875V74.5576H32.6367V58.0732H34.6875V64.5771H36.5625V57.7607H38.6523V75.417ZM30.8984 70.8662H23.9648V59.6748H30.8984V70.8662ZM25.9961 69.1475H28.8672V61.3936H25.9961V69.1475ZM56.7578 66.999H49.8047V68.2881H54.7852V72.4287H44.7461V73.6396H55.2734V75.2607H42.6172V70.9443H52.6562V69.8506H42.5977V68.2881H47.6562V66.999H40.7422V65.3975H56.7578V66.999ZM49.8047 59.2061H55.2148V60.8271H50.0293C50.1725 61.2503 50.4948 61.6312 50.9961 61.9697C51.5039 62.3018 52.181 62.5752 53.0273 62.79C53.8802 62.9984 54.8828 63.1318 56.0352 63.1904L55.3906 64.8115C53.7956 64.7139 52.4251 64.4535 51.2793 64.0303C50.1335 63.6071 49.2839 63.0407 48.7305 62.3311C48.1771 63.0407 47.3275 63.6071 46.1816 64.0303C45.0358 64.4535 43.6589 64.7139 42.0508 64.8115L41.4453 63.1904C42.5846 63.1318 43.5742 62.9984 44.4141 62.79C45.2604 62.5752 45.9375 62.3018 46.4453 61.9697C46.9531 61.6312 47.2819 61.2503 47.4316 60.8271H42.2852V59.2061H47.6562V57.7217H49.8047V59.2061ZM69.1992 60.2998C69.1927 61.1136 69.3457 61.8818 69.6582 62.6045C69.9707 63.3271 70.4395 63.9652 71.0645 64.5186C71.696 65.0654 72.4609 65.4821 73.3594 65.7686L72.1875 67.4678C71.237 67.1357 70.4232 66.6605 69.7461 66.042C69.0755 65.4235 68.5482 64.6878 68.1641 63.835C67.7669 64.818 67.1973 65.6709 66.4551 66.3936C65.7129 67.1097 64.8177 67.6501 63.7695 68.0146L62.6172 66.2568C63.5677 65.9443 64.3717 65.4919 65.0293 64.8994C65.6868 64.307 66.1816 63.6234 66.5137 62.8486C66.8457 62.0739 67.0117 61.2568 67.0117 60.3975V58.7178H69.1992V60.2998ZM77.5195 68.1514H75.3516V62.9561H71.8359V61.1787H75.3516V57.7607H77.5195V68.1514ZM71.543 68.6201C72.7865 68.6201 73.8607 68.7536 74.7656 69.0205C75.6771 69.2874 76.3737 69.6781 76.8555 70.1924C77.3372 70.7002 77.5781 71.3089 77.5781 72.0186C77.5781 72.7282 77.3372 73.3369 76.8555 73.8447C76.3737 74.3525 75.6803 74.7367 74.7754 74.9971C73.8704 75.264 72.793 75.3975 71.543 75.3975C70.2995 75.3975 69.2253 75.264 68.3203 74.9971C67.4219 74.7367 66.7318 74.3525 66.25 73.8447C65.7747 73.3369 65.5404 72.7282 65.5469 72.0186C65.5404 71.3089 65.7747 70.7002 66.25 70.1924C66.7318 69.6781 67.4251 69.2874 68.3301 69.0205C69.235 68.7536 70.306 68.6201 71.543 68.6201ZM71.543 70.2998C70.306 70.2998 69.3555 70.4495 68.6914 70.749C68.0273 71.042 67.6953 71.4652 67.6953 72.0186C67.6953 72.5589 68.0273 72.9756 68.6914 73.2686C69.362 73.555 70.3125 73.6982 71.543 73.6982C72.7734 73.6982 73.724 73.5518 74.3945 73.2588C75.0716 72.9658 75.4102 72.5524 75.4102 72.0186C75.4102 71.4652 75.0749 71.042 74.4043 70.749C73.7337 70.4495 72.7799 70.2998 71.543 70.2998ZM86.3477 60.9443C86.3477 61.68 86.5039 62.3799 86.8164 63.0439C87.1354 63.708 87.6074 64.2972 88.2324 64.8115C88.8574 65.3193 89.6159 65.71 90.5078 65.9834L89.4727 67.6826C88.5026 67.3831 87.6628 66.9339 86.9531 66.335C86.25 65.736 85.6999 65.0296 85.3027 64.2158C84.9056 65.1598 84.3359 65.9801 83.5938 66.6768C82.8516 67.3734 81.9596 67.8975 80.918 68.249L79.8242 66.5303C80.7487 66.2243 81.5365 65.7881 82.1875 65.2217C82.8385 64.6488 83.3301 63.9945 83.6621 63.2588C83.9941 62.5231 84.1602 61.7581 84.1602 60.9639V60.749H80.4297V58.9912H90.0195V60.749H86.3477V60.9443ZM93.9453 61.999H96.4062V63.7764H93.9453V68.2881H91.7773V57.7607H93.9453V61.999ZM88.2031 68.6787C89.4141 68.6787 90.4622 68.8122 91.3477 69.0791C92.2396 69.3395 92.9232 69.7204 93.3984 70.2217C93.8737 70.723 94.1146 71.3219 94.1211 72.0186C94.1146 72.7217 93.8704 73.3271 93.3887 73.835C92.9134 74.3428 92.2331 74.7301 91.3477 74.9971C90.4622 75.264 89.4141 75.3975 88.2031 75.3975C86.9792 75.3975 85.918 75.264 85.0195 74.9971C84.1211 74.7301 83.431 74.3428 82.9492 73.835C82.4674 73.3271 82.2266 72.7217 82.2266 72.0186C82.2266 71.3219 82.4674 70.723 82.9492 70.2217C83.431 69.7204 84.1211 69.3395 85.0195 69.0791C85.918 68.8122 86.9792 68.6787 88.2031 68.6787ZM88.2031 70.3779C86.9857 70.3779 86.0449 70.5179 85.3809 70.7979C84.7233 71.0778 84.3945 71.4847 84.3945 72.0186C84.3945 72.5654 84.7233 72.9821 85.3809 73.2686C86.0449 73.555 86.9857 73.6982 88.2031 73.6982C89.4206 73.6982 90.3516 73.555 90.9961 73.2686C91.6471 72.9821 91.9727 72.5654 91.9727 72.0186C91.9727 71.4847 91.6471 71.0778 90.9961 70.7979C90.3516 70.5179 89.4206 70.3779 88.2031 70.3779Z" fill="white"/>
<g clip-path="url(#clip0_62_69228)">
<path d="M59.7751 0.243164L46.1033 20.7512H53.4692V35.2432H66.0815V20.7512H73.4474L59.7751 0.243164Z" fill="url(#paint0_linear_62_69228)"/>
</g>
<rect x="382.441" y="124.47" width="112.5" height="112.5" rx="15" fill="#6B9EFF"/>
<g clip-path="url(#clip1_62_69228)">
<path fill-rule="evenodd" clip-rule="evenodd" d="M428.17 185.805C428.17 191.603 432.888 196.32 438.685 196.32C444.49 196.32 449.213 191.603 449.213 185.805C449.213 180.007 444.49 175.289 438.685 175.289C432.888 175.289 428.17 180.007 428.17 185.805ZM436.274 189.496H438.881C439.688 189.496 440.344 188.84 440.344 188.033C440.344 187.226 439.688 186.57 438.881 186.57H438.502C436.851 186.57 435.508 185.227 435.508 183.576C435.508 182.121 436.552 180.908 437.93 180.64V179.788C437.93 179.365 438.273 179.023 438.695 179.023C439.118 179.023 439.461 179.365 439.461 179.788V180.582H441.109C441.532 180.582 441.875 180.924 441.875 181.347C441.875 181.77 441.532 182.113 441.109 182.113H438.502C437.695 182.113 437.039 182.769 437.039 183.576C437.039 184.383 437.695 185.039 438.502 185.039H438.881C440.532 185.039 441.875 186.382 441.875 188.033C441.875 189.486 440.834 190.698 439.461 190.969V191.821C439.461 192.244 439.118 192.586 438.695 192.586C438.273 192.586 437.93 192.244 437.93 191.821V191.027H436.274C435.851 191.027 435.508 190.685 435.508 190.262C435.508 189.839 435.851 189.496 436.274 189.496Z" fill="white"/>
<path fill-rule="evenodd" clip-rule="evenodd" d="M438.686 173.759C432.043 173.759 426.64 179.163 426.64 185.805C426.64 192.446 432.043 197.85 438.686 197.85C445.334 197.85 450.743 192.446 450.743 185.805C450.743 179.163 445.334 173.759 438.686 173.759ZM438.685 196.32C432.888 196.32 428.17 191.603 428.17 185.805C428.17 180.007 432.888 175.289 438.685 175.289C444.49 175.289 449.213 180.007 449.213 185.805C449.213 191.603 444.49 196.32 438.685 196.32Z" fill="white"/>
<path d="M429.937 207.658H427.312L427.312 198.24L421.072 198.24L421.072 207.659H418.446C417.778 207.659 417.43 208.459 417.887 208.947L423.633 215.086C423.935 215.409 424.448 215.409 424.75 215.086L430.496 208.946C430.953 208.459 430.606 207.658 429.937 207.658Z" fill="white"/>
<path d="M444.996 216.355L439.25 222.495C438.948 222.818 438.434 222.818 438.133 222.495L432.387 216.356C431.93 215.868 432.278 215.068 432.946 215.068H435.571L435.572 205.649L441.813 205.649L441.812 215.068L444.437 215.067C445.106 215.067 445.452 215.867 444.996 216.355Z" fill="white"/>
<path d="M458.937 207.658H456.312V198.24L450.071 198.24V207.659H447.446C446.779 207.659 446.43 208.457 446.887 208.947L452.632 215.086C452.934 215.408 453.447 215.409 453.75 215.086L459.496 208.946C459.953 208.457 459.604 207.658 458.937 207.658Z" fill="white"/>
</g>
<path d="M416.521 160.437H414.334V142.761H416.521V160.437ZM404.939 148.62H409.217V144.206H411.365V156.276H402.771V144.206H404.939V148.62ZM409.217 154.499V150.319H404.939V154.499H409.217ZM435.213 152.995H419.119V151.257H422.869V149.021C422.199 148.734 421.681 148.369 421.316 147.927C420.958 147.484 420.779 146.979 420.779 146.413C420.779 145.716 421.036 145.118 421.551 144.616C422.072 144.108 422.811 143.721 423.768 143.454C424.731 143.187 425.857 143.054 427.146 143.054C428.436 143.054 429.559 143.187 430.516 143.454C431.473 143.721 432.208 144.108 432.723 144.616C433.243 145.118 433.507 145.716 433.514 146.413C433.507 146.986 433.322 147.494 432.957 147.937C432.599 148.379 432.081 148.741 431.404 149.021V151.257H435.213V152.995ZM427.146 154.069C428.416 154.063 429.507 154.183 430.418 154.431C431.329 154.672 432.029 155.03 432.518 155.505C433.006 155.974 433.253 156.543 433.26 157.214C433.253 157.891 433.006 158.464 432.518 158.933C432.029 159.408 431.329 159.766 430.418 160.007C429.507 160.254 428.416 160.378 427.146 160.378C425.864 160.378 424.76 160.254 423.836 160.007C422.918 159.766 422.215 159.408 421.727 158.933C421.238 158.464 420.994 157.891 420.994 157.214C420.994 156.543 421.238 155.974 421.727 155.505C422.215 155.03 422.918 154.672 423.836 154.431C424.76 154.183 425.864 154.063 427.146 154.069ZM427.146 155.71C425.851 155.71 424.868 155.837 424.197 156.091C423.527 156.345 423.195 156.719 423.201 157.214C423.195 157.709 423.527 158.086 424.197 158.347C424.874 158.607 425.857 158.737 427.146 158.737C428.41 158.737 429.38 158.607 430.057 158.347C430.74 158.086 431.085 157.709 431.092 157.214C431.085 156.719 430.743 156.345 430.066 156.091C429.389 155.837 428.416 155.71 427.146 155.71ZM427.146 144.733C425.831 144.733 424.816 144.88 424.1 145.173C423.39 145.459 423.038 145.873 423.045 146.413C423.038 146.947 423.39 147.354 424.1 147.634C424.809 147.914 425.825 148.054 427.146 148.054C428.455 148.054 429.467 147.914 430.184 147.634C430.906 147.354 431.268 146.947 431.268 146.413C431.268 145.873 430.906 145.459 430.184 145.173C429.467 144.88 428.455 144.733 427.146 144.733ZM429.236 151.257V149.577C428.579 149.668 427.882 149.714 427.146 149.714C426.411 149.714 425.714 149.668 425.057 149.577V151.257H429.236ZM447.576 145.358C447.57 146.003 447.726 146.634 448.045 147.253C448.364 147.865 448.833 148.415 449.451 148.903C450.076 149.385 450.825 149.753 451.697 150.007L450.682 151.726C449.705 151.439 448.862 151.006 448.152 150.427C447.443 149.841 446.886 149.151 446.482 148.356C446.072 149.235 445.496 150.004 444.754 150.661C444.018 151.319 443.149 151.804 442.146 152.116L441.072 150.417C441.964 150.124 442.736 149.711 443.387 149.177C444.038 148.643 444.533 148.041 444.871 147.37C445.216 146.7 445.389 146.022 445.389 145.339V145.28H441.678V143.522H451.229V145.28H447.576V145.358ZM455.936 151.804H453.768V148.229H450.74V146.491H453.768V142.761H455.936V151.804ZM455.936 157.136H446.482V158.522H456.502V160.222H444.314V155.515H453.768V154.265H444.295V152.546H455.936V157.136ZM472.361 146.784H474.822V148.562H472.361V152.683H470.193V142.761H472.361V146.784ZM467.459 143.835C467.452 145.352 467.124 146.716 466.473 147.927C465.828 149.138 464.887 150.173 463.65 151.032C462.42 151.885 460.923 152.546 459.158 153.015L458.299 151.276C460.317 150.756 461.906 150.004 463.064 149.021C464.223 148.031 464.9 146.888 465.096 145.593H459.139V143.835H467.459ZM472.361 160.183H460.936V153.386H472.361V160.183ZM463.104 158.464H470.213V155.163H463.104V158.464Z" fill="white"/>
<g clip-path="url(#clip2_62_69228)">
<path d="M438.691 119.47L425.019 98.9617H432.385V84.4697H444.998V98.9617H452.363L438.691 119.47Z" fill="url(#paint1_linear_62_69228)"/>
</g>
<defs>
<linearGradient id="paint0_linear_62_69228" x1="59.7754" y1="0.243164" x2="59.7754" y2="35.2432" gradientUnits="userSpaceOnUse">
<stop stop-color="#3461FF"/>
<stop offset="1" stop-color="#3461FF" stop-opacity="0"/>
</linearGradient>
<linearGradient id="paint1_linear_62_69228" x1="438.691" y1="119.47" x2="438.691" y2="84.4697" gradientUnits="userSpaceOnUse">
<stop stop-color="#6B9EFF"/>
<stop offset="1" stop-color="#6B9EFF" stop-opacity="0"/>
</linearGradient>
<clipPath id="clip0_62_69228">
<rect width="35" height="35" fill="white" transform="translate(42.2754 0.243164)"/>
</clipPath>
<clipPath id="clip1_62_69228">
<rect width="49.896" height="49.896" fill="white" transform="translate(413.744 173.3)"/>
</clipPath>
<clipPath id="clip2_62_69228">
<rect width="35" height="35" fill="white" transform="matrix(1 0 0 -1 421.191 119.47)"/>
</clipPath>
</defs>
</svg>
