<svg width="111" height="109" viewBox="0 0 111 109" fill="none" xmlns="http://www.w3.org/2000/svg">
<path fill-rule="evenodd" clip-rule="evenodd" d="M2.44855 74.5786H18.3796V91.5889H2.44855V74.5786Z" fill="white"/>
<path fill-rule="evenodd" clip-rule="evenodd" d="M28.9662 61.7891H44.8995V91.5912H28.9662V61.7891Z" fill="white"/>
<path fill-rule="evenodd" clip-rule="evenodd" d="M55.4839 46.6155H71.4172V80.6986L71.3658 80.8439C70.6173 82.9554 70.2397 85.1741 70.2397 87.4129C70.2397 88.4653 70.3224 89.5155 70.49 90.5545L70.6553 91.589H55.4839V46.6155Z" fill="white"/>
<path fill-rule="evenodd" clip-rule="evenodd" d="M89.9691 68.5769C100.357 68.5769 108.805 77.0273 108.805 87.4127C108.805 97.8003 100.357 106.248 89.9691 106.248C79.5815 106.248 71.1334 97.7981 71.1334 87.4127C71.1334 77.0273 79.5815 68.5769 89.9691 68.5769Z" fill="white"/>
<path fill-rule="evenodd" clip-rule="evenodd" d="M82.0037 21.5747H97.9348V69.3188L96.735 68.8787C94.5654 68.0855 92.2796 67.6833 89.9693 67.6833C87.6612 67.6833 85.3732 68.0855 83.2058 68.8787L82.0037 69.3188V21.5747Z" fill="white"/>
<path fill-rule="evenodd" clip-rule="evenodd" d="M1.79613 62.6762C1.49002 62.0036 1.7872 61.2082 2.45974 60.8998C37.6444 44.857 65.2211 25.9319 86.6666 3.10102L83.0648 3.42054C82.3275 3.48757 81.6773 2.94015 81.6102 2.20504C81.5454 1.4677 82.0906 0.815258 82.828 0.750461L89.8908 0.127071C90.2461 0.0957895 90.5969 0.205274 90.8695 0.43318C91.1443 0.661086 91.3141 0.989539 91.3454 1.34257L91.971 8.40543C92.0358 9.14277 91.4907 9.79521 90.7533 9.86001C90.7131 9.86448 90.6729 9.86448 90.6327 9.86448C89.9467 9.86448 89.3613 9.3394 89.301 8.64227L88.9412 4.59359C67.2075 27.8378 39.2577 47.0713 3.57246 63.3398C3.39148 63.4224 3.20379 63.4604 3.0161 63.4604C2.50667 63.4627 2.02181 63.17 1.79613 62.6762ZM95.4567 91.5599C95.4567 94.1227 93.6893 96.2812 91.3097 96.88V97.7447C91.3097 98.4843 90.7086 99.0853 89.969 99.0853C89.2317 99.0853 88.6284 98.4843 88.6284 97.7447V96.8755C87.185 96.5091 85.9248 95.5639 85.1763 94.2255C84.8166 93.5798 85.0467 92.762 85.6925 92.4023C86.3382 92.0403 87.156 92.2727 87.5179 92.9184C88.0162 93.8122 88.9569 94.3663 89.969 94.3663C91.5152 94.3663 92.7754 93.1083 92.7754 91.5599C92.7754 90.0137 91.5152 88.7535 89.969 88.7535C86.9437 88.7535 84.4814 86.2913 84.4814 83.2659C84.4814 80.7031 86.2488 78.5469 88.6284 77.9459V77.0812C88.6284 76.3416 89.2295 75.7405 89.969 75.7405C90.7086 75.7405 91.3097 76.3416 91.3097 77.0812V77.9503C92.7531 78.3168 94.011 79.2619 94.7595 80.6003C95.1215 81.246 94.8914 82.0638 94.2456 82.4236C93.5999 82.7855 92.7821 82.5532 92.4202 81.9074C91.9219 81.0137 90.9812 80.4595 89.969 80.4595C88.4229 80.4595 87.1627 81.7175 87.1627 83.2659C87.1627 84.8121 88.4229 86.0723 89.969 86.0723C92.9944 86.0745 95.4567 88.5346 95.4567 91.5599ZM89.969 105.357C99.8629 105.357 107.911 97.309 107.911 87.4152C107.911 77.5213 99.8629 69.4731 89.969 69.4731C80.0752 69.4731 72.027 77.5213 72.027 87.4152C72.027 97.3067 80.0752 105.357 89.969 105.357ZM56.3774 90.6975H69.6072C69.4351 89.6272 69.3458 88.5323 69.3458 87.4152C69.3458 85.0087 69.7614 82.6962 70.5233 80.5467V47.5092H56.3774V90.6975ZM82.8972 22.4686V68.0409C85.1026 67.2321 87.4844 66.7919 89.969 66.7919C92.4514 66.7919 94.8355 67.2343 97.0408 68.0409V22.4686H82.8972ZM99.7221 69.2475V21.128C99.7221 20.3884 99.1233 19.7873 98.3815 19.7873H81.5566C80.8148 19.7873 80.216 20.3884 80.216 21.128V69.2475C77.4342 70.7467 75.0367 72.8649 73.2045 75.4166V46.1686C73.2045 45.429 72.6035 44.828 71.8639 44.828H55.0368C54.2972 44.828 53.6962 45.429 53.6962 46.1686V92.0358C53.6962 92.7754 54.2972 93.3765 55.0368 93.3765H70.2261C72.7912 101.849 80.6696 108.036 89.969 108.036C101.34 108.036 110.592 98.7859 110.592 87.4129C110.592 79.568 106.188 72.7331 99.7221 69.2475ZM44.0057 90.6975V62.6829H29.8599V90.6975H44.0057ZM45.3463 60.0016H28.5193C27.7797 60.0016 27.1786 60.6027 27.1786 61.3422V92.0381C27.1786 92.7777 27.7797 93.3787 28.5193 93.3787H45.3463C46.0859 93.3787 46.687 92.7777 46.687 92.0381V61.3422C46.687 60.6027 46.0859 60.0016 45.3463 60.0016ZM17.4859 90.6975H3.34232V75.4747H17.4859V90.6975ZM18.8265 72.7912H2.0017C1.26212 72.7912 0.661072 73.3922 0.661072 74.1318V92.0358C0.661072 92.7754 1.26212 93.3765 2.0017 93.3765H18.8265C19.5684 93.3765 20.1672 92.7754 20.1672 92.0358V74.1318C20.1672 73.3922 19.5684 72.7912 18.8265 72.7912Z" fill="#3461FF"/>
</svg>
