<svg width="101" height="101" viewBox="0 0 101 101" fill="none" xmlns="http://www.w3.org/2000/svg">
<path d="M63.1553 86.3996L51.6626 98.6785C51.0592 99.3241 50.0315 99.3241 49.428 98.6785L37.9375 86.401C37.0234 85.4245 37.7189 83.8241 39.0547 83.8241H44.3057L44.3065 56.5234C44.3065 55.6773 44.9918 54.9928 45.8371 54.9928C46.6824 54.9928 47.3677 55.6773 47.3677 56.5234L47.3669 85.3547C47.3669 86.2008 46.6816 86.8853 45.8363 86.8853H42.5839L50.5454 95.3916L58.5085 86.8853H55.2561C54.413 86.8853 53.7255 86.201 53.7255 85.3547L53.7271 64.9864C53.7271 64.1404 54.4132 63.4558 55.2577 63.4558C56.1038 63.4558 56.7883 64.1419 56.7883 64.9864L56.7867 83.8241L62.0377 83.8226C63.3742 83.8228 64.0671 85.4222 63.1553 86.3996ZM91.0374 69.0042H85.7864V50.1681C85.7864 49.322 85.1019 48.6375 84.2558 48.6375C83.4098 48.6375 82.7252 49.322 82.7252 50.1681V70.5348C82.7252 71.3809 83.4098 72.0654 84.2558 72.0654H87.5082L79.5446 80.5733L71.5838 72.067H74.8362C75.6823 72.067 76.3668 71.3825 76.3668 70.5364V41.7051C76.3668 40.859 75.6823 40.1745 74.8362 40.1745C73.9901 40.1745 73.3056 40.859 73.3056 41.7051V69.0058H68.0548C66.7217 69.0058 66.0231 70.6032 66.9369 71.5826L78.4266 83.8602C79.0314 84.5055 80.0578 84.5057 80.6627 83.8602L92.1554 71.5813C93.0685 70.6025 92.3715 69.0042 91.0374 69.0042ZM33.0378 69.0042H27.7868L27.7876 50.1681C27.7876 49.3236 27.1023 48.6375 26.257 48.6375C25.4117 48.6375 24.7264 49.322 24.7264 50.1681L24.7256 70.5348C24.7256 71.3811 25.4131 72.0654 26.2562 72.0654H29.5086L21.5455 80.5733L13.5832 72.067H16.8368C17.6821 72.067 18.3674 71.3825 18.3674 70.5364L18.3682 41.7051C18.3682 40.859 17.6829 40.1745 16.8376 40.1745C15.9923 40.1745 15.307 40.859 15.307 41.7051L15.3062 69.0058H10.0546C8.71875 69.0058 8.02313 70.6062 8.93744 71.5826L20.4287 83.8602C21.0322 84.5057 22.0599 84.5057 22.6633 83.8602L34.1554 71.5813C35.0683 70.6058 34.3754 69.0042 33.0378 69.0042ZM26.4426 25.2979C26.4426 12.0144 37.2499 1.2063 50.5341 1.2063C63.831 1.2063 74.6495 12.0144 74.6495 25.2979C74.6495 38.5813 63.8308 49.3895 50.5341 49.3895C37.2499 49.3895 26.4426 38.5811 26.4426 25.2979ZM29.5036 25.2979C29.5036 36.8938 38.938 46.3283 50.5339 46.3283C62.1433 46.3283 71.5883 36.8938 71.5883 25.2979C71.5883 13.7019 62.1433 4.2675 50.5339 4.2675C38.9382 4.2675 29.5036 13.7019 29.5036 25.2979ZM50.9249 32.6817H45.71C44.8647 32.6817 44.1794 33.3662 44.1794 34.2123C44.1794 35.0584 44.8647 35.7429 45.71 35.7429H49.023V37.3302C49.023 38.1763 49.7083 38.8608 50.5536 38.8608C51.3989 38.8608 52.0842 38.1763 52.0842 37.3302V35.6258C54.8318 35.0837 56.9121 32.6599 56.9121 29.7552C56.9121 26.4535 54.2261 23.7675 50.9251 23.7675C50.7713 23.7675 50.013 23.7675 50.1673 23.7675C48.5539 23.7675 47.2406 22.4552 47.2406 20.8408C47.2406 19.2264 48.5537 17.9141 50.1673 17.9141H55.3817C56.2277 17.9141 56.9123 17.2295 56.9123 16.3835C56.9123 15.5374 56.2277 14.8529 55.3817 14.8529H52.0844V13.2655C52.0844 12.4195 51.3991 11.7349 50.5538 11.7349C49.7085 11.7349 49.0232 12.4195 49.0232 13.2655V14.9686C46.2676 15.5046 44.1796 17.9308 44.1796 20.8408C44.1796 24.1425 46.8656 26.8285 50.1673 26.8285H50.9251C52.5386 26.8285 53.8511 28.1408 53.8511 29.7552C53.8511 31.3696 52.5384 32.6817 50.9249 32.6817Z" fill="#3461FF"/>
</svg>
