<svg width="111" height="111" viewBox="0 0 111 111" fill="none" xmlns="http://www.w3.org/2000/svg">
<rect x="1.16485" y="1.05841" width="108.764" height="108.764" rx="24.382" fill="white"/>
<rect x="1.16485" y="1.05841" width="108.764" height="108.764" rx="24.382" stroke="#EAEAEA" stroke-width="1.23596"/>
<g clip-path="url(#clip0_62_72210)">
<path d="M78.504 34.1008C78.5036 33.233 78.318 32.4662 77.9426 31.8082C77.574 31.1611 77.022 30.6187 76.2812 30.1898C70.1681 26.6649 64.0491 23.1508 57.9378 19.6223C56.2903 18.6713 54.6929 18.7059 53.0575 19.6707C50.6244 21.1057 38.442 28.0852 34.8119 30.1879C33.3167 31.0532 32.5893 32.3776 32.5889 34.0993C32.5867 41.1881 32.5889 48.2765 32.5867 55.3656C32.587 56.2142 32.7647 56.9662 33.1235 57.6143C33.4924 58.281 34.0522 58.8385 34.8098 59.2768C38.4403 61.3795 50.6243 68.3586 53.0569 69.7939C54.693 70.7593 56.2904 70.7937 57.9384 69.8423C64.0497 66.3136 70.1692 62.7996 76.2833 59.2749C77.0409 58.8364 77.6007 58.2788 77.9696 57.6126C78.328 56.9643 78.506 56.2124 78.5064 55.3637C78.5064 55.3637 78.5064 41.1898 78.504 34.1008Z" fill="#476FFF"/>
<path d="M55.6168 44.6631L33.1236 57.6141C33.4925 58.2808 34.0523 58.8382 34.8099 59.2766C38.4404 61.3793 50.6244 68.3583 53.057 69.7936C54.6931 70.759 56.2905 70.7935 57.9385 69.842C64.0498 66.3133 70.1693 62.7993 76.2834 59.2747C77.041 58.8362 77.6008 58.2785 77.9697 57.6124L55.6168 44.6631Z" fill="#1D49E1"/>
<path d="M78.5041 34.1012C78.5037 33.2334 78.3181 32.4666 77.9427 31.8086L55.6168 44.6636L77.9697 57.6131C78.3281 56.9647 78.5061 56.2129 78.5065 55.3641C78.5065 55.3641 78.5065 41.1902 78.5041 34.1012Z" fill="#3461FF"/>
<path d="M62.1635 48.4556C60.8612 50.765 58.3867 52.3258 55.5467 52.3258C52.7241 52.3258 50.2636 50.7846 48.9547 48.4996C48.3189 47.3892 47.9533 46.1037 47.9533 44.7324C47.9533 40.5387 51.3531 37.1392 55.5468 37.1392C58.3513 37.1392 60.7987 38.6611 62.1141 40.9228L68.7511 37.1009C66.1131 32.5472 61.188 29.4834 55.5468 29.4834C47.1247 29.4834 40.2975 36.3107 40.2975 44.7324C40.2975 47.4953 41.0324 50.0862 42.3172 52.3211C44.9485 56.899 49.8877 59.9815 55.5467 59.9815C61.216 59.9815 66.1631 56.8867 68.7906 52.2952L62.1635 48.4556Z" fill="white"/>
<path d="M75.1215 43.8605V42.3524H73.8961V41.127H72.3879V42.3524H70.5497V41.127H69.0415V42.3524H67.816V43.8605H69.0415V45.6986H67.816V47.207H69.0415V48.4322H70.5497V47.207H72.3879V48.4322H73.8961V47.207H75.1216V45.6986H73.8961V43.8605H75.1215ZM72.3879 45.6986H70.5497V43.8605H72.3879V45.6986Z" fill="white"/>
</g>
<path d="M53.586 86.3887C53.4883 85.8353 53.2833 85.3568 52.9708 84.9531C52.6583 84.5495 52.2611 84.2435 51.7794 84.0352C51.3041 83.8203 50.78 83.7129 50.2071 83.7129C49.4258 83.7129 48.739 83.9082 48.1465 84.2988C47.5541 84.6829 47.0919 85.2493 46.7598 85.998C46.4278 86.7467 46.2618 87.6452 46.2618 88.6934C46.2618 89.748 46.4278 90.6497 46.7598 91.3984C47.0919 92.1471 47.5541 92.7135 48.1465 93.0977C48.7455 93.4818 49.4324 93.6738 50.2071 93.6738C50.767 93.6738 51.2813 93.5729 51.7501 93.3711C52.2253 93.1628 52.6225 92.8633 52.9415 92.4727C53.2605 92.082 53.4753 91.6165 53.586 91.0762H56.1446C56.0144 91.9876 55.6856 92.8145 55.1583 93.5566C54.6374 94.2988 53.9473 94.8848 53.088 95.3145C52.2286 95.7441 51.2553 95.959 50.168 95.959C48.9245 95.959 47.8113 95.6693 46.8282 95.0898C45.8516 94.5039 45.0866 93.6641 44.5333 92.5703C43.9799 91.4701 43.7032 90.1777 43.7032 88.6934C43.7032 87.2025 43.9799 85.9102 44.5333 84.8164C45.0932 83.7227 45.8614 82.8861 46.838 82.3066C47.821 81.7207 48.9311 81.4277 50.168 81.4277C51.2097 81.4277 52.157 81.6263 53.0098 82.0234C53.8627 82.4141 54.5626 82.9837 55.1094 83.7324C55.6563 84.4746 56.0014 85.36 56.1446 86.3887H53.586ZM64.1426 92.1113H61.0958L60.5001 95.7637H58.5665L59.1622 92.1113H57.1797L57.4922 90.1973H59.4844L59.9727 87.1895H58.0001L58.3126 85.2754H60.295L60.8907 81.623H62.8243L62.2286 85.2754H65.2755L65.8712 81.623H67.7852L67.1895 85.2754H69.1915L68.8594 87.1895H66.8672L66.379 90.1973H68.3712L68.0587 92.1113H66.0567L65.461 95.7637H63.5469L64.1426 92.1113ZM64.4649 90.1973L64.9532 87.1895H61.9063L61.418 90.1973H64.4649Z" fill="#898989"/>
<defs>
<clipPath id="clip0_62_72210">
<rect width="51.6096" height="51.6096" fill="white" transform="translate(29.7419 18.9277)"/>
</clipPath>
</defs>
</svg>
