<svg width="111" height="111" viewBox="0 0 111 111" fill="none" xmlns="http://www.w3.org/2000/svg">
<rect x="1.16485" y="1.05841" width="108.764" height="108.764" rx="24.382" fill="white"/>
<rect x="1.16485" y="1.05841" width="108.764" height="108.764" rx="24.382" stroke="#EAEAEA" stroke-width="1.23596"/>
<path d="M70.6147 24.6936C68.4933 18.6513 62.8677 14.6357 56.3993 14.6357C50.9252 14.6357 45.9626 17.5338 43.2824 22.2596C42.6668 22.127 42.0323 22.0607 41.3977 22.0607C36.3499 22.0607 32.2396 26.171 32.2396 31.2189C32.2396 32.0334 32.3532 32.8573 32.5711 33.6718C29.2468 35.4712 27.1349 38.9564 27.1349 42.792C27.1349 48.5029 31.785 53.153 37.5053 53.153H46.5507V57.6676L42.9613 61.257C42.7833 61.4351 42.6838 61.6756 42.6838 61.9266V65.105C41.3589 65.5037 40.3938 66.7434 40.3938 68.2009C40.3938 69.9814 41.8428 71.4399 43.6328 71.4399C45.4133 71.4399 46.8718 69.9814 46.8718 68.2009C46.8718 66.7424 45.8963 65.5018 44.5799 65.104C44.5799 65.104 44.5789 65.104 44.578 65.104V62.3187L48.1674 58.7293C48.3454 58.5513 48.4448 58.3107 48.4448 58.0597V53.153H54.5998V65.105C53.2739 65.5027 52.3079 66.7434 52.3079 68.2019C52.3079 69.9823 53.7569 71.4408 55.5469 71.4408C57.3369 71.4408 58.7859 69.9823 58.7859 68.2019C58.7859 66.7434 57.8199 65.5027 56.494 65.105V53.153H62.649V58.0597C62.649 58.3107 62.7484 58.5522 62.9265 58.7293L66.5158 62.3187V65.104C66.5158 65.104 66.5149 65.104 66.5139 65.104C65.1975 65.5018 64.222 66.7424 64.222 68.2009C64.222 69.9814 65.6805 71.4399 67.461 71.4399C69.251 71.4399 70.7 69.9814 70.7 68.2009C70.7 66.7434 69.7349 65.5027 68.41 65.105V61.9266C68.41 61.6756 68.3105 61.4341 68.1325 61.257L64.5431 57.6676V53.153H69.6961C77.5567 53.153 83.9589 46.7603 83.9589 38.8996C83.9589 31.3894 78.0303 25.1577 70.6147 24.6936ZM44.9776 68.2019C44.9776 68.9406 44.3715 69.5467 43.6328 69.5467C42.8846 69.5467 42.288 68.9406 42.288 68.2019C42.288 67.4537 42.8846 66.857 43.6328 66.857C44.3715 66.857 44.9776 67.4537 44.9776 68.2019ZM56.8917 68.2019C56.8917 68.9406 56.2856 69.5467 55.5469 69.5467C54.8082 69.5467 54.2021 68.9406 54.2021 68.2019C54.2021 67.4537 54.8082 66.857 55.5469 66.857C56.2856 66.857 56.8917 67.4537 56.8917 68.2019ZM68.8058 68.2019C68.8058 68.9406 68.2092 69.5467 67.461 69.5467C66.7223 69.5467 66.1162 68.9406 66.1162 68.2019C66.1162 67.4537 66.7223 66.857 67.461 66.857C68.2092 66.857 68.8058 67.4537 68.8058 68.2019ZM46.0762 44.2411L47.8188 40.6611C47.8378 40.6138 47.8567 40.5759 47.8851 40.538L51.787 32.488C52.1091 31.8345 53.1698 31.8345 53.4918 32.488L59.2121 44.2411C59.4394 44.7051 59.2405 45.2734 58.7669 45.5007C58.6343 45.567 58.4923 45.5954 58.3597 45.5954C58.0093 45.5954 57.6683 45.406 57.5073 45.065L56.0015 41.9776H49.2773L47.7715 45.065C47.5442 45.5385 46.9854 45.728 46.5119 45.5007C46.0383 45.2734 45.8395 44.7051 46.0762 44.2411ZM62.6973 32.9047V44.6483C62.6973 45.1787 62.2711 45.5954 61.7502 45.5954C61.2293 45.5954 60.8031 45.1787 60.8031 44.6483V32.9047C60.8031 32.3743 61.2293 31.9576 61.7502 31.9576C62.2711 31.9576 62.6973 32.3743 62.6973 32.9047Z" fill="#3461FF"/>
<path d="M52.6395 35.0645L50.196 40.0839H55.0829L52.6395 35.0645Z" fill="#3461FF"/>
<path d="M46.416 95.7637L51.3965 81.623H54.5215L59.5215 95.7637H56.8066L55.625 92.2676H50.3027L49.1309 95.7637H46.416ZM54.9414 90.2168L53.0176 84.5137H52.9004L50.9863 90.2168H54.9414ZM63.7402 95.7637H61.2012V81.623H63.7402V95.7637Z" fill="#898989"/>
</svg>
