<svg width="111" height="111" viewBox="0 0 111 111" fill="none" xmlns="http://www.w3.org/2000/svg">
<rect x="1.16485" y="1.05841" width="108.764" height="108.764" rx="24.382" fill="white"/>
<rect x="1.16485" y="1.05841" width="108.764" height="108.764" rx="24.382" stroke="#EAEAEA" stroke-width="1.23596"/>
<g clip-path="url(#clip0_62_72228)">
<path d="M67.8877 46.5081H71.6045L69.7309 40.8633L67.8877 46.5081Z" fill="#3461FF"/>
<path d="M55.5468 19.1338C41.4076 19.1338 29.9468 30.5946 29.9468 44.7338C29.9468 58.873 41.4076 70.3338 55.5468 70.3338C69.686 70.3338 81.1468 58.873 81.1468 44.7338C81.1468 30.5946 69.686 19.1338 55.5468 19.1338ZM43.2844 46.745C43.2844 48.137 43.054 49.0602 42.5932 49.5162C42.1324 49.9706 41.1964 50.1994 39.7836 50.1994C38.2796 50.1994 37.3036 49.9786 36.8572 49.5402C36.4108 49.1018 36.1868 48.1402 36.1868 46.6586L36.2108 45.8554H38.1724C38.2044 46.2586 38.2204 46.5594 38.2204 46.761C38.2204 46.9514 38.2284 47.1818 38.2444 47.4522C38.2764 48.1082 38.798 48.4362 39.8092 48.4362C40.4124 48.4362 40.7996 48.3178 40.9724 48.0826C41.1436 47.8474 41.23 47.3162 41.23 46.4906V39.265H43.286L43.2844 46.745ZM52.4396 50.105L51.7484 48.025H47.0716L46.3964 50.105H44.222L47.8252 39.2682H50.9148L54.574 50.105H52.4396ZM57.9724 50.105L54.5116 39.2682H56.646L58.6796 45.4058C58.87 45.993 59.1532 46.977 59.5292 48.3594H59.5836L59.79 47.6202C60.0444 46.7002 60.262 45.9642 60.4412 45.4138L62.4508 39.2682H64.6252L61.1308 50.105H57.9724ZM72.7708 50.105L72.0796 48.025H67.4028L66.7276 50.105H64.5532L68.158 39.2682H71.246L74.9052 50.105H72.7708Z" fill="#3461FF"/>
<path d="M47.5564 46.5081H51.2716L49.398 40.8633L47.5564 46.5081Z" fill="#3461FF"/>
</g>
<path d="M40.4395 81.623V91.5645C40.4395 92.4629 40.2507 93.2441 39.873 93.9082C39.4954 94.5658 38.9616 95.0736 38.2715 95.4316C37.5879 95.7832 36.7936 95.959 35.8887 95.959C35.0488 95.959 34.2969 95.8092 33.6328 95.5098C32.9753 95.2038 32.4577 94.7546 32.0801 94.1621C31.7025 93.5697 31.5137 92.8535 31.5137 92.0137H34.0527C34.0527 92.5866 34.2285 93.0391 34.5801 93.3711C34.9382 93.7031 35.4069 93.8691 35.9863 93.8691C36.6048 93.8691 37.0801 93.6738 37.4121 93.2832C37.7441 92.8861 37.9134 92.3132 37.9199 91.5645V81.623H40.4395ZM42.1387 95.7637L47.1191 81.623H50.2441L55.2441 95.7637H52.5293L51.3477 92.2676H46.0254L44.8535 95.7637H42.1387ZM50.6641 90.2168L48.7402 84.5137H48.623L46.709 90.2168H50.6641ZM60.8496 92.7754H61.0059L64.6973 81.623H67.4902L62.4902 95.7637H59.3652L54.3848 81.623H57.1777L60.8496 92.7754ZM66.5918 95.7637L71.5723 81.623H74.6973L79.6973 95.7637H76.9824L75.8008 92.2676H70.4785L69.3066 95.7637H66.5918ZM75.1172 90.2168L73.1934 84.5137H73.0762L71.1621 90.2168H75.1172Z" fill="#898989"/>
<defs>
<clipPath id="clip0_62_72228">
<rect width="51.2" height="51.2" fill="white" transform="translate(29.947 19.1328)"/>
</clipPath>
</defs>
</svg>
