<svg width="111" height="111" viewBox="0 0 111 111" fill="none" xmlns="http://www.w3.org/2000/svg">
<rect x="1.16485" y="1.05841" width="108.764" height="108.764" rx="24.382" fill="white"/>
<rect x="1.16485" y="1.05841" width="108.764" height="108.764" rx="24.382" stroke="#EAEAEA" stroke-width="1.23596"/>
<path d="M33.7793 81.623V90.8613C33.7793 91.8639 33.5384 92.7526 33.0566 93.5273C32.5814 94.3021 31.9076 94.9043 31.0352 95.334C30.1693 95.7637 29.1699 95.9785 28.0371 95.9785C26.8978 95.9785 25.8919 95.7637 25.0195 95.334C24.1536 94.9043 23.4831 94.3021 23.0078 93.5273C22.5326 92.7526 22.2949 91.8639 22.2949 90.8613V81.623H24.834V90.6465C24.834 91.2389 24.9642 91.7663 25.2246 92.2285C25.4915 92.6908 25.8659 93.0553 26.3477 93.3223C26.8359 93.5827 27.3991 93.7129 28.0371 93.7129C28.6751 93.7129 29.235 93.5827 29.7168 93.3223C30.1986 93.0618 30.5697 92.7005 30.8301 92.2383C31.0905 91.7695 31.2207 91.2389 31.2207 90.6465V81.623H33.7793ZM38.9355 95.7637H36.3965V81.623H38.9355V95.7637ZM41.5723 81.623H46.8848C47.9395 81.623 48.8411 81.8216 49.5898 82.2188C50.3385 82.6159 50.9049 83.1693 51.2891 83.8789C51.6732 84.582 51.8652 85.3926 51.8652 86.3105C51.8652 87.222 51.6699 88.0326 51.2793 88.7422C50.8952 89.4453 50.3255 89.9954 49.5703 90.3926C48.8151 90.7832 47.9069 90.9785 46.8457 90.9785H44.1113V95.7637H41.5723V81.623ZM46.4941 88.8887C47.4186 88.8887 48.112 88.6576 48.5742 88.1953C49.0365 87.7266 49.2676 87.0983 49.2676 86.3105C49.2676 85.5163 49.0365 84.8913 48.5742 84.4355C48.112 83.9798 47.4186 83.752 46.4941 83.752H44.1113V88.8887H46.4941ZM51.416 95.7637L56.3965 81.623H59.5215L64.5215 95.7637H61.8066L60.625 92.2676H55.3027L54.1309 95.7637H51.416ZM59.9414 90.2168L58.0176 84.5137H57.9004L55.9863 90.2168H59.9414ZM63.8574 81.623H75.127V83.752H70.7715V95.7637H68.2324V83.752H63.8574V81.623ZM77.1191 81.623H79.6582V87.6191H86.2402V81.623H88.7988V95.7637H86.2402V89.748H79.6582V95.7637H77.1191V81.623Z" fill="#898989"/>
<path d="M58.475 37.302V46.1707C58.475 47.1332 58.2437 47.9863 57.7812 48.7301C57.325 49.4738 56.6781 50.052 55.8406 50.4645C55.0094 50.877 54.05 51.0832 52.9625 51.0832C51.8687 51.0832 50.9031 50.877 50.0656 50.4645C49.2344 50.052 48.5906 49.4738 48.1344 48.7301C47.6781 47.9863 47.45 47.1332 47.45 46.1707V37.302H49.8875V45.9645C49.8875 46.5332 50.0125 47.0395 50.2625 47.4832C50.5187 47.927 50.8781 48.277 51.3406 48.5332C51.8094 48.7832 52.35 48.9082 52.9625 48.9082C53.575 48.9082 54.1125 48.7832 54.575 48.5332C55.0375 48.2832 55.3937 47.9363 55.6437 47.4926C55.8937 47.0426 56.0187 46.5332 56.0187 45.9645V37.302H58.475ZM63.425 50.877H60.9875V37.302H63.425V50.877Z" fill="#3461FF"/>
<rect x="37.2098" y="25.3406" width="36.6742" height="36.6742" rx="3.55" stroke="#3461FF" stroke-width="2.9"/>
</svg>
