<svg width="111" height="111" viewBox="0 0 111 111" fill="none" xmlns="http://www.w3.org/2000/svg">
<rect x="1.16485" y="1.05841" width="108.764" height="108.764" rx="24.382" fill="white"/>
<rect x="1.16485" y="1.05841" width="108.764" height="108.764" rx="24.382" stroke="#EAEAEA" stroke-width="1.23596"/>
<path d="M13.9844 95.7637L18.9649 81.623H22.0899L27.0899 95.7637H24.3751L23.1934 92.2676H17.8712L16.6993 95.7637H13.9844ZM22.5098 90.2168L20.586 84.5137H20.4688L18.5547 90.2168H22.5098ZM26.4454 81.623H29.1797L31.7383 92.0332H31.8751L34.5899 81.623H37.0899L39.8243 92.0527H39.9415L42.5001 81.623H45.2344L41.2501 95.7637H38.7305L35.8985 85.8223H35.8008L32.9493 95.7637H30.4297L26.4454 81.623ZM58.711 88.6934C58.711 90.1842 58.4311 91.4766 57.8712 92.5703C57.3113 93.6641 56.5398 94.5039 55.5567 95.0898C54.5801 95.6693 53.4701 95.959 52.2266 95.959C50.9831 95.959 49.8699 95.6693 48.8868 95.0898C47.9102 94.5039 47.142 93.6641 46.5821 92.5703C46.0222 91.4701 45.7422 90.1777 45.7422 88.6934C45.7422 87.2025 46.0222 85.9102 46.5821 84.8164C47.142 83.7227 47.9102 82.8861 48.8868 82.3066C49.8699 81.7207 50.9831 81.4277 52.2266 81.4277C53.4701 81.4277 54.5801 81.7207 55.5567 82.3066C56.5398 82.8861 57.3113 83.7227 57.8712 84.8164C58.4311 85.9102 58.711 87.2025 58.711 88.6934ZM56.1524 88.6934C56.1524 87.6387 55.9864 86.7402 55.6544 85.998C55.3288 85.2493 54.8699 84.6829 54.2774 84.2988C53.685 83.9082 53.0014 83.7129 52.2266 83.7129C51.4519 83.7129 50.7683 83.9082 50.1758 84.2988C49.5834 84.6829 49.1212 85.2493 48.7891 85.998C48.4636 86.7402 48.3008 87.6387 48.3008 88.6934C48.3008 89.748 48.4636 90.6497 48.7891 91.3984C49.1212 92.1406 49.5834 92.707 50.1758 93.0977C50.7683 93.4818 51.4519 93.6738 52.2266 93.6738C53.0014 93.6738 53.685 93.4818 54.2774 93.0977C54.8699 92.707 55.3288 92.1406 55.6544 91.3984C55.9864 90.6497 56.1524 89.748 56.1524 88.6934ZM60.9766 81.623H66.2891C67.3503 81.623 68.252 81.8118 68.9942 82.1895C69.7429 82.5605 70.3093 83.0846 70.6934 83.7617C71.0775 84.4388 71.2696 85.2298 71.2696 86.1348C71.2696 87.0983 71.0515 87.9251 70.6153 88.6152C70.1856 89.3053 69.5541 89.8197 68.7208 90.1582L71.7774 95.7637H68.9454L66.1719 90.5879H63.5157V95.7637H60.9766V81.623ZM65.8985 88.459C67.7475 88.459 68.6719 87.6842 68.6719 86.1348C68.6719 85.3665 68.4441 84.7773 67.9883 84.3672C67.5326 83.957 66.836 83.752 65.8985 83.752H63.5157V88.459H65.8985ZM73.4571 81.623H75.9962V88.127H76.1915L81.7188 81.623H84.8243L79.3555 87.9707L84.8829 95.7637H81.8165L77.5782 89.6895L75.9962 91.5449V95.7637H73.4571V81.623ZM94.0626 85.5098C94.004 84.9108 93.7338 84.4421 93.252 84.1035C92.7768 83.765 92.155 83.5957 91.3868 83.5957C90.8659 83.5957 90.4102 83.6738 90.0196 83.8301C89.629 83.9863 89.3295 84.2044 89.1212 84.4844C88.9128 84.7643 88.8087 85.0801 88.8087 85.4316C88.8087 85.972 89.0333 86.3919 89.4825 86.6914C89.9317 86.9844 90.5144 87.2155 91.2305 87.3848L92.5587 87.7363C93.7761 88.0163 94.7689 88.4818 95.5372 89.1328C96.3119 89.7773 96.6993 90.666 96.6993 91.7988C96.6993 92.6257 96.4877 93.3548 96.0645 93.9863C95.6413 94.6178 95.0261 95.1094 94.2188 95.4609C93.418 95.806 92.461 95.9785 91.3477 95.9785C90.2475 95.9785 89.2937 95.8092 88.4864 95.4707C87.6791 95.1257 87.0476 94.6276 86.5919 93.9766C86.1426 93.319 85.8985 92.528 85.8594 91.6035H88.3594C88.418 92.3197 88.7175 92.8665 89.2579 93.2441C89.8047 93.6217 90.4949 93.8105 91.3282 93.8105C91.8816 93.8105 92.3731 93.7259 92.8028 93.5566C93.2325 93.3874 93.5645 93.1497 93.7989 92.8438C94.0398 92.5312 94.1602 92.1764 94.1602 91.7793C94.1602 91.265 93.9454 90.8646 93.5157 90.5781C93.0925 90.2852 92.4545 90.028 91.6016 89.8066L90.0001 89.3965C87.487 88.7389 86.2305 87.4694 86.2305 85.5879C86.2305 84.7676 86.4551 84.0449 86.9044 83.4199C87.3536 82.7884 87.9721 82.3001 88.7598 81.9551C89.5541 81.6035 90.4428 81.4277 91.4258 81.4277C92.4154 81.4277 93.2911 81.6035 94.0528 81.9551C94.821 82.3001 95.4167 82.7819 95.8399 83.4004C96.2696 84.0189 96.4909 84.722 96.504 85.5098H94.0626Z" fill="#898989"/>
<g clip-path="url(#clip0_62_72198)">
<path fill-rule="evenodd" clip-rule="evenodd" d="M38.8269 22.2739C38.8269 22.331 38.6331 22.3571 38.3635 22.3363C38.2632 22.3286 38.1773 22.4211 38.1945 22.5185C38.2045 22.5752 38.176 22.5902 38.049 22.5953C37.9621 22.5987 37.8838 22.6231 37.8751 22.6494C37.8634 22.6843 37.8449 22.6854 37.8066 22.6536C37.773 22.6258 37.7453 22.6242 37.7298 22.6492C37.7165 22.6707 37.724 22.6998 37.7466 22.7137C37.816 22.7566 37.6825 22.8539 37.5542 22.8539C37.4851 22.8539 37.4366 22.8747 37.4376 22.9039C37.443 23.0483 37.4209 23.0939 37.3456 23.0939C37.1915 23.0939 36.9869 23.2055 36.9869 23.2895C36.9869 23.3333 36.9686 23.3805 36.9462 23.3943C36.9239 23.4081 36.9145 23.4338 36.9253 23.4513C36.9361 23.4689 36.9094 23.5154 36.866 23.5548C36.8225 23.5941 36.7869 23.6109 36.7869 23.5921C36.7869 23.5733 36.7653 23.5795 36.7389 23.6059C36.7125 23.6323 36.6576 23.6539 36.6169 23.6539C36.5386 23.6539 36.4269 23.8648 36.4269 24.0126C36.4269 24.0879 36.3813 24.11 36.2369 24.1046C36.2064 24.1035 36.1869 24.1556 36.1869 24.2383C36.1869 24.3169 36.1659 24.3765 36.1369 24.38C36.1094 24.3833 36.0619 24.3879 36.0313 24.3902C35.9723 24.3946 35.935 24.5475 35.9392 24.7679C35.9414 24.8842 35.9308 24.899 35.8591 24.8803C35.7612 24.8547 35.6642 24.9385 35.6732 25.0411C35.6943 25.2825 35.6634 25.4939 35.6069 25.4939C35.5537 25.4939 35.5469 26.7095 35.5469 36.1939C35.5469 45.5166 35.5544 46.8939 35.6049 46.8939C35.6368 46.8939 36.171 46.3854 36.7919 45.7639C37.4129 45.1424 37.9403 44.6338 37.9639 44.6337C37.9895 44.6337 38.016 44.7716 38.0293 44.9737C38.0509 45.3008 38.0521 45.2944 38.0593 44.8102C38.0635 44.5332 38.0804 44.0562 38.0969 43.7502L38.1269 43.1939L38.1483 43.8939C38.1601 44.2789 38.1736 43.2912 38.1783 41.699C38.1859 39.1309 38.1937 38.8097 38.2469 38.8539C38.3002 38.8981 38.3069 38.259 38.3069 33.1421C38.3069 28.5684 38.3172 27.3771 38.3569 27.3639C38.4096 27.3463 38.4146 27.2954 38.4222 26.7076C38.4266 26.3622 38.4314 26.3426 38.5069 26.3623C38.5534 26.3745 38.5869 26.3635 38.5869 26.3362C38.5869 26.3103 38.6012 26.298 38.6186 26.3088C38.6532 26.3301 38.6723 26.2367 38.6812 26.0039C38.6865 25.8638 38.6951 25.8539 38.8119 25.8539C38.9191 25.8539 38.9369 25.8394 38.9369 25.7522C38.9369 25.6251 38.9581 25.6039 39.0852 25.6039C39.1724 25.6039 39.1869 25.5861 39.1869 25.4789C39.1869 25.3621 39.1968 25.3535 39.3369 25.3482C39.5697 25.3393 39.6631 25.3202 39.6418 25.2856C39.631 25.2682 39.6433 25.2539 39.6692 25.2539C39.6965 25.2539 39.7075 25.2204 39.6953 25.1739C39.6756 25.0984 39.6941 25.0939 40.0283 25.0939C40.232 25.0939 40.3932 25.0761 40.4081 25.052C40.4259 25.0231 40.451 25.0241 40.4885 25.0553C40.5475 25.1042 40.7069 25.0721 40.7069 25.0112C40.7069 24.9883 42.9329 24.9739 46.4718 24.9739C51.5916 24.9739 52.2311 24.9672 52.1869 24.9139C52.1427 24.8607 52.4639 24.8529 55.032 24.8453C56.6242 24.8406 57.6119 24.8271 57.2269 24.8153L56.5269 24.7939L57.0832 24.7639C57.3892 24.7474 57.8662 24.7305 58.1432 24.7263C58.6274 24.7191 58.6338 24.7179 58.3067 24.6963C58.1046 24.683 57.9667 24.6565 57.9667 24.6309C57.9668 24.6073 58.4754 24.0799 59.0969 23.4589C59.7184 22.838 60.2269 22.3038 60.2269 22.2719C60.2269 22.2214 58.8496 22.2139 49.5269 22.2139C40.0425 22.2139 38.8269 22.2207 38.8269 22.2739ZM75.3069 24.8887C75.3069 24.911 75.3252 24.9405 75.3476 24.9543C75.3699 24.9681 75.3763 25.0007 75.3617 25.0267C75.3415 25.0627 75.3474 25.0626 75.3865 25.0265C75.428 24.9881 75.4253 24.9666 75.3723 24.9136C75.3363 24.8776 75.3069 24.8664 75.3069 24.8887ZM49.6669 33.9539C49.6943 33.9869 49.7319 34.0139 49.7505 34.0139C49.7692 34.0139 49.774 33.9869 49.7614 33.9539C49.7487 33.9209 49.7111 33.8939 49.6777 33.8939C49.6284 33.8939 49.6264 33.9051 49.6669 33.9539ZM50.1543 33.9146C50.1807 33.941 58.6742 33.9399 58.7006 33.9135C58.7114 33.9027 56.7882 33.8939 54.4269 33.8939C52.0656 33.8939 50.1429 33.9032 50.1543 33.9146ZM49.3111 33.9888C49.286 34.019 49.2762 34.0715 49.2891 34.1053C49.3021 34.1392 49.289 34.1749 49.2598 34.1846C49.2307 34.1943 49.2489 34.1951 49.3003 34.1865C49.365 34.1755 49.3846 34.1853 49.3641 34.2185C49.3453 34.2489 49.3516 34.2557 49.3814 34.2373C49.4071 34.2214 49.4191 34.1937 49.408 34.1757C49.3969 34.1577 49.4144 34.1209 49.4469 34.0939C49.5206 34.0328 49.4871 33.9687 49.3991 34.0024C49.3554 34.0192 49.3434 34.012 49.3627 33.9807C49.4026 33.9161 49.3667 33.9218 49.3111 33.9888ZM49.0509 34.3039C49.0413 34.3534 49.0339 34.4389 49.0345 34.4939C49.0366 34.6704 48.9571 34.9829 48.9011 35.0183C48.8633 35.0423 48.8616 35.0529 48.8955 35.0533C48.9594 35.0541 49.0269 34.9243 49.0269 34.8004C49.0269 34.7267 49.0573 34.6911 49.1469 34.6599C49.2597 34.6206 49.3147 34.5339 49.2269 34.5339C49.2049 34.5339 49.1869 34.5519 49.1869 34.5739C49.1869 34.5959 49.1644 34.6139 49.1369 34.6139C49.0804 34.6138 49.0669 34.3448 49.1193 34.2639C49.1378 34.2352 49.1339 34.2139 49.11 34.2139C49.0871 34.2139 49.0605 34.2544 49.0509 34.3039ZM49.1461 34.3149C49.0734 34.4025 49.1286 34.4347 49.2567 34.3793L49.3669 34.3317L49.2669 34.4119C49.1679 34.4914 49.1677 34.4921 49.2555 34.493C49.3979 34.4944 49.4466 34.3557 49.3234 34.2996C49.1985 34.2427 49.2066 34.242 49.1461 34.3149ZM60.6681 34.4359C60.6667 34.4849 60.7484 34.5739 60.7949 34.5739C60.8125 34.5739 60.8269 34.5548 60.8269 34.5315C60.8269 34.5082 60.81 34.4996 60.7894 34.5124C60.7687 34.5251 60.7333 34.5037 60.7106 34.4647C60.6879 34.4258 60.6688 34.4128 60.6681 34.4359ZM61.215 35.07C61.2546 35.1228 61.2929 35.1604 61.3001 35.1534C61.3251 35.1295 61.2241 34.9739 61.1836 34.9739C61.1614 34.9739 61.1755 35.0171 61.215 35.07ZM61.0802 35.1139C61.0802 35.1469 61.0891 35.1651 61.0999 35.1542C61.1107 35.1434 61.1466 35.1569 61.1798 35.1842C61.2323 35.2275 61.2338 35.2224 61.192 35.1439C61.1371 35.0409 61.0802 35.0256 61.0802 35.1139ZM48.7469 35.3239C48.7469 35.343 48.773 35.3935 48.8049 35.4363C48.8609 35.5112 48.8621 35.5107 48.8401 35.4233C48.8173 35.333 48.7469 35.2579 48.7469 35.3239ZM61.4031 35.4601C61.3854 35.4887 61.3921 35.4954 61.4207 35.4777C61.4461 35.462 61.4669 35.4682 61.4669 35.4915C61.4669 35.5148 61.4952 35.5339 61.5298 35.5339C61.5856 35.5339 61.5859 35.5272 61.5326 35.4739C61.4605 35.4018 61.4404 35.3996 61.4031 35.4601ZM48.5237 36.1358C48.5237 36.2566 48.541 36.3206 48.5736 36.3206C48.601 36.3206 48.6108 36.3011 48.5954 36.2772C48.5473 36.2027 48.5603 36.0358 48.6175 35.9925C48.6616 35.9591 48.6578 35.951 48.598 35.951C48.5364 35.951 48.5237 35.9825 48.5237 36.1358ZM48.5214 36.8139C48.5288 36.8689 48.5466 36.9094 48.5609 36.9039C48.6044 36.8872 48.6038 36.8769 48.555 36.7939C48.5108 36.7187 48.5087 36.7199 48.5214 36.8139ZM51.0369 36.9239C52.2414 36.9298 54.2124 36.9298 55.4169 36.9239C56.6214 36.918 55.6359 36.9132 53.2269 36.9132C50.8179 36.9132 49.8324 36.918 51.0369 36.9239ZM56.321 39.3226C56.3155 39.4114 56.3188 39.413 56.3697 39.3459C56.4384 39.2553 56.4401 39.2272 56.3769 39.2272C56.3494 39.2272 56.3242 39.2702 56.321 39.3226ZM54.8816 39.4853C54.8964 39.5093 54.8769 39.5467 54.8381 39.5684C54.7993 39.5901 54.778 39.6184 54.7908 39.6311C54.8036 39.6439 54.8451 39.6201 54.8831 39.5781C54.9349 39.5208 54.94 39.4943 54.9033 39.4717C54.8731 39.453 54.8648 39.4582 54.8816 39.4853ZM53.348 39.7926C53.3212 39.8248 53.3086 39.8743 53.32 39.9026C53.3332 39.9356 53.3417 39.9297 53.3437 39.8859C53.3455 39.8485 53.3784 39.7995 53.4169 39.7771C53.4554 39.7547 53.4666 39.7358 53.4418 39.7351C53.417 39.7344 53.3748 39.7603 53.348 39.7926ZM52.8369 39.9615C52.8754 39.9715 52.9384 39.9715 52.9769 39.9615C53.0154 39.9514 52.9839 39.9432 52.9069 39.9432C52.8299 39.9432 52.7984 39.9514 52.8369 39.9615ZM49.1827 40.4985C49.1254 40.5195 49.0576 40.5856 49.0322 40.6453L48.9859 40.7539L49.0779 40.6439C49.1778 40.5245 49.261 40.5057 49.3438 40.5839C49.3874 40.6252 49.3886 40.6182 49.3504 40.5439C49.3249 40.4944 49.3002 40.4553 49.2955 40.4571C49.2908 40.4588 49.24 40.4774 49.1827 40.4985ZM49.1933 40.6235C49.1286 40.6882 49.1349 40.7536 49.2006 40.6991C49.2301 40.6746 49.2661 40.6664 49.2806 40.6809C49.2951 40.6954 49.3069 40.6873 49.3069 40.6629C49.3069 40.5939 49.2446 40.5722 49.1933 40.6235ZM48.3096 40.7689C48.2743 40.8349 48.2798 40.843 48.3476 40.8253C48.4324 40.8031 48.451 40.7535 48.3889 40.7151C48.368 40.7022 48.3323 40.7264 48.3096 40.7689ZM47.765 41.0091C47.755 41.0191 47.7469 41.0422 47.7469 41.0606C47.7469 41.1123 47.8522 41.0998 47.8998 41.0425C47.9409 40.9929 47.8129 40.9612 47.765 41.0091ZM47.524 41.2984C47.524 41.3518 47.5368 41.3588 47.5755 41.3268C47.6038 41.3033 47.6269 41.2713 47.6269 41.2557C47.6269 41.24 47.6038 41.2272 47.5755 41.2272C47.5472 41.2272 47.524 41.2592 47.524 41.2984ZM47.2953 41.534C47.2838 41.578 47.2907 41.6039 47.3106 41.5916C47.3306 41.5793 47.3469 41.5867 47.3469 41.6082C47.3469 41.6297 47.3285 41.6564 47.3059 41.6676C47.2834 41.6788 47.2879 41.6828 47.3159 41.6765C47.344 41.6702 47.3624 41.6255 47.357 41.5772C47.3504 41.5194 47.3628 41.499 47.3931 41.5178C47.4217 41.5354 47.4284 41.5287 47.4107 41.5001C47.3675 41.4302 47.3187 41.4446 47.2953 41.534ZM58.1929 42.3719C58.2017 42.3983 58.2219 42.4186 58.2379 42.4169C58.2857 42.412 58.2765 42.3571 58.2249 42.3399C58.1985 42.3311 58.1841 42.3455 58.1929 42.3719ZM55.6369 42.7215C55.6754 42.7315 55.7384 42.7315 55.7769 42.7215C55.8154 42.7114 55.7839 42.7032 55.7069 42.7032C55.6299 42.7032 55.5984 42.7114 55.6369 42.7215ZM55.2699 42.8703C55.2378 42.9089 55.2363 42.935 55.265 42.9527C55.288 42.967 55.3069 42.9495 55.3069 42.9139C55.3069 42.8752 55.3254 42.8606 55.3531 42.8777C55.3817 42.8954 55.3884 42.8887 55.3707 42.8601C55.3343 42.8012 55.3266 42.802 55.2699 42.8703ZM53.9129 43.1319C53.9301 43.1835 53.985 43.1927 53.9899 43.1449C53.9916 43.1289 53.9713 43.1087 53.9449 43.0999C53.9185 43.0911 53.9041 43.1055 53.9129 43.1319ZM52.608 43.2927C52.5685 43.3363 52.5233 43.364 52.5074 43.3542C52.4916 43.3445 52.4445 43.3622 52.4028 43.3937C52.3304 43.4482 52.3312 43.4501 52.4201 43.4341C52.5937 43.4028 52.6594 43.371 52.6841 43.3067C52.7213 43.2099 52.6884 43.2039 52.608 43.2927ZM51.0473 43.5735C50.9843 43.6393 50.9445 43.7048 50.9589 43.7192C50.9733 43.7336 50.9963 43.7159 51.0101 43.6799C51.024 43.6438 51.0542 43.626 51.0773 43.6403C51.1008 43.6549 51.1075 43.6472 51.0924 43.6228C51.0777 43.599 51.0839 43.5681 51.1062 43.5543C51.1435 43.5313 51.1648 43.5854 51.1506 43.6669C51.1475 43.685 51.1634 43.6884 51.186 43.6744C51.2141 43.6571 51.214 43.6245 51.1856 43.5715C51.1606 43.5248 51.1592 43.4939 51.1822 43.4939C51.2031 43.4939 51.2293 43.5164 51.2404 43.5439C51.2525 43.5738 51.2619 43.5657 51.2637 43.5239C51.2685 43.4183 51.1755 43.4396 51.0473 43.5735ZM47.0088 44.4509C46.994 44.4748 47.0109 44.4939 47.0469 44.4939C47.0825 44.4939 47.1018 44.5099 47.0897 44.5294C47.0776 44.5489 47.093 44.5857 47.1238 44.6113C47.2227 44.6934 47.2282 44.5891 47.1299 44.4967C47.0693 44.4398 47.0258 44.4233 47.0088 44.4509ZM50.7739 45.1039C50.7914 45.1314 50.806 45.1702 50.8063 45.1901C50.8066 45.21 50.8403 45.2312 50.8811 45.2372C50.9472 45.2469 50.9454 45.2374 50.8642 45.151C50.7655 45.0459 50.7231 45.0238 50.7739 45.1039ZM47.2669 45.4454C47.2669 45.5013 47.4679 45.7063 47.4955 45.6786C47.5089 45.6653 47.4887 45.6201 47.4507 45.5781C47.4102 45.5333 47.3978 45.4919 47.4209 45.4776C47.4424 45.4643 47.4693 45.472 47.4805 45.4947C47.4917 45.5173 47.4964 45.5129 47.4908 45.4849C47.4793 45.4267 47.2669 45.3892 47.2669 45.4454ZM51.1691 46.0504C51.1543 46.0743 51.1567 46.0942 51.1745 46.0945C51.1923 46.0948 51.1799 46.1126 51.1469 46.1339C51.1139 46.1552 51.1049 46.1727 51.1269 46.1727C51.2168 46.1727 51.2872 46.0982 51.2411 46.0521C51.2088 46.0198 51.1883 46.0193 51.1691 46.0504ZM47.9875 48.119C47.9887 48.1878 48.0567 48.2628 48.0815 48.2227C48.095 48.2008 48.0792 48.1607 48.0465 48.1335C48.0137 48.1063 47.9872 48.0998 47.9875 48.119ZM48.309 48.7817C48.3358 48.841 48.3849 48.8999 48.418 48.9126C48.522 48.9525 48.5105 48.9123 48.3832 48.791L48.2603 48.6739L48.309 48.7817ZM35.6867 59.4142C35.673 59.4364 35.6899 59.4827 35.7243 59.5171C35.7811 59.5738 35.7869 59.5738 35.7869 59.5168C35.7869 59.4822 35.7678 59.4539 35.7445 59.4539C35.7212 59.4539 35.7133 59.4359 35.7269 59.4139C35.7405 59.3919 35.7426 59.3739 35.7316 59.3739C35.7206 59.3739 35.7004 59.392 35.6867 59.4142ZM38.2466 62.0393C38.2996 62.0923 38.3211 62.095 38.3595 62.0535C38.3956 62.0144 38.3957 62.0085 38.3597 62.0287C38.3337 62.0433 38.3011 62.0369 38.2873 62.0146C38.2735 61.9922 38.244 61.9739 38.2217 61.9739C38.1994 61.9739 38.2106 62.0033 38.2466 62.0393Z" fill="#3461FF"/>
<path fill-rule="evenodd" clip-rule="evenodd" d="M60.2269 22.2719C60.2269 22.3038 59.7184 22.838 59.0969 23.4589C58.4754 24.0799 57.9668 24.6073 57.9667 24.6309C57.9667 24.6565 58.1046 24.683 58.3067 24.6963C58.597 24.7155 58.5531 24.7206 58.0069 24.7312C54.6268 24.7971 57.6509 24.8541 64.5443 24.8546C70.0855 24.8549 70.4467 24.8591 70.5236 24.9244C70.6015 24.9905 70.6029 24.9905 70.5513 24.9239C70.5023 24.8607 70.509 24.8539 70.6196 24.8539C70.7473 24.8539 70.8183 24.9098 70.7469 24.9539C70.7007 24.9825 70.731 25.0539 70.7893 25.0539C70.81 25.0539 70.8269 25.028 70.8269 24.9963C70.8269 24.9646 70.8432 24.9285 70.8632 24.9162C70.8831 24.9039 70.89 24.9298 70.8785 24.9738C70.867 25.0179 70.8762 25.0539 70.899 25.0539C70.9217 25.0539 70.9718 25.066 71.0102 25.0807C71.0578 25.099 71.0708 25.0926 71.0511 25.0607C71.0352 25.035 71.0402 25.0139 71.0622 25.0139C71.0842 25.0139 71.1133 25.0319 71.1269 25.0539C71.1405 25.0759 71.2125 25.0939 71.2869 25.0939C71.3613 25.0939 71.4335 25.1122 71.4473 25.1346C71.4611 25.1569 71.4937 25.1628 71.5197 25.1477C71.5456 25.1325 71.5342 25.1575 71.4943 25.2031C71.4536 25.2495 71.4384 25.2963 71.4598 25.3095C71.4807 25.3224 71.5201 25.3062 71.5473 25.2735C71.5745 25.2407 71.617 25.2142 71.6418 25.2145C71.6666 25.2148 71.6599 25.2326 71.6269 25.2539C71.5599 25.2972 71.5607 25.2976 71.723 25.3165C71.9121 25.3385 71.9546 25.3665 71.9277 25.4513C71.9106 25.5052 71.9282 25.5425 71.985 25.5729C72.03 25.597 72.0669 25.6049 72.0669 25.5904C72.0669 25.5759 72.0943 25.5869 72.1279 25.6147C72.1614 25.6425 72.18 25.6741 72.1693 25.6849C72.1199 25.7343 72.2356 25.8565 72.3095 25.8331C72.3943 25.8062 72.4223 25.8487 72.4443 26.0378C72.4632 26.2001 72.4636 26.2009 72.5069 26.1339C72.5282 26.1009 72.546 26.0942 72.5463 26.119C72.5466 26.1438 72.5201 26.1863 72.4873 26.2135C72.4546 26.2407 72.4384 26.2801 72.4513 26.301C72.4645 26.3224 72.5113 26.3072 72.5577 26.2665C72.6033 26.2266 72.6288 26.2144 72.6142 26.2394C72.5997 26.2644 72.6131 26.3059 72.6441 26.3316C72.6771 26.3589 72.6943 26.4273 72.6856 26.4961C72.6764 26.5693 72.6889 26.6141 72.7188 26.6145C72.753 26.6149 72.7518 26.6247 72.7146 26.6483C72.6351 26.6987 72.6976 26.9057 72.7854 26.8827C72.8229 26.8729 72.8544 26.8849 72.8555 26.9094C72.8565 26.9339 72.8695 26.9831 72.8844 27.0187C72.9007 27.0576 72.8895 27.092 72.8565 27.1047C72.8204 27.1185 72.8024 27.0976 72.8042 27.0439C72.8057 26.9989 72.7844 26.9542 72.7569 26.9446C72.7294 26.9351 72.7069 26.9478 72.7069 26.9729C72.7069 26.9981 72.7247 27.0076 72.7464 26.9942C72.7698 26.9798 72.7754 26.9973 72.7602 27.0369C72.7434 27.0808 72.7658 27.1278 72.8248 27.1723C72.9347 27.2552 72.9282 27.1497 72.9489 29.1739L72.9651 30.7539L72.9869 29.5339L73.0087 28.3139L73.022 29.5339C73.0401 31.1845 73.0882 31.8032 73.1092 30.6539C73.1206 30.0273 73.1271 29.9457 73.1368 30.308L73.1495 30.7821L74.2908 29.638C74.9185 29.0087 75.4579 28.4939 75.4895 28.4939C75.5383 28.4939 75.5469 28.2836 75.5469 27.0939C75.5469 26.125 75.5337 25.6939 75.504 25.6939C75.4265 25.6939 75.3523 25.5899 75.3882 25.5317C75.4087 25.4987 75.4032 25.4529 75.3746 25.4176C75.3372 25.3713 75.3377 25.365 75.377 25.3887C75.4128 25.4101 75.4227 25.3922 75.4115 25.3263C75.403 25.2755 75.3759 25.2384 75.3514 25.2439C75.2957 25.2564 75.2927 25.1874 75.3476 25.1535C75.4133 25.1129 75.3543 25.0601 75.2553 25.071C75.191 25.0781 75.164 25.0602 75.164 25.0104C75.164 24.9716 75.1782 24.9485 75.1955 24.9592C75.2128 24.9699 75.2269 24.9611 75.2269 24.9396C75.2269 24.9181 75.2054 24.8934 75.179 24.8846C75.1527 24.8758 75.1302 24.8068 75.129 24.7313C75.1274 24.627 75.1104 24.5952 75.0585 24.5992C75.0208 24.6021 74.9938 24.5841 74.9985 24.5592C75.0031 24.5343 74.9889 24.5169 74.9669 24.5205C74.9449 24.5241 74.9223 24.4643 74.9167 24.3875C74.9025 24.1933 74.8359 24.0766 74.7704 24.131C74.7079 24.1828 74.6669 24.1469 74.6669 24.0404C74.6669 23.9478 74.3219 23.5999 74.265 23.6351C74.244 23.648 74.2269 23.6385 74.2269 23.6139C74.2269 23.5893 74.2085 23.5806 74.1859 23.5945C74.1634 23.6084 74.1489 23.605 74.1538 23.5869C74.1755 23.5067 74.0966 23.3693 74.0412 23.3905C74.0066 23.4038 73.9933 23.3959 74.0087 23.3709C74.0408 23.3191 73.9152 23.1739 73.8383 23.1739C73.8061 23.1739 73.7943 23.1543 73.8107 23.1277C73.8264 23.1023 73.823 23.0912 73.8031 23.103C73.725 23.1494 73.5745 23.057 73.6264 22.9945C73.679 22.9311 73.6065 22.885 73.3771 22.836C73.3168 22.8231 73.2718 22.7993 73.2771 22.7832C73.2825 22.7671 73.2742 22.7539 73.2586 22.7539C73.2431 22.7539 73.2071 22.7237 73.1786 22.6868C73.1502 22.6499 73.0729 22.6146 73.0069 22.6083C72.8476 22.5932 72.7892 22.546 72.8081 22.4478C72.8201 22.3856 72.8117 22.3767 72.7723 22.4094C72.7359 22.4396 72.7081 22.4391 72.6764 22.4074C72.6519 22.3829 72.5182 22.3577 72.3794 22.3514C72.2405 22.3451 72.1134 22.3386 72.0969 22.3369C72.0804 22.3353 72.0669 22.3069 72.0669 22.2739C72.0669 22.2208 71.3825 22.2139 66.1469 22.2139C61.0008 22.2139 60.2269 22.2215 60.2269 22.2719ZM49.8363 33.9222C49.7865 33.9318 49.756 33.9563 49.7687 33.9768C49.7813 33.9972 49.7736 34.0139 49.7516 34.0139C49.7296 34.0139 49.7005 33.9959 49.6869 33.9739C49.6474 33.9101 49.5872 33.9276 49.5837 34.0039C49.5817 34.0502 49.5734 34.056 49.5595 34.0211C49.5395 33.9712 49.408 34.109 49.4072 34.1806C49.407 34.1952 49.3905 34.2222 49.3705 34.2406C49.3493 34.2599 49.3461 34.2529 49.3628 34.2239C49.3965 34.1654 49.3515 34.1596 49.269 34.2118C49.2225 34.2412 49.2321 34.258 49.3174 34.2968C49.4459 34.3554 49.4021 34.4945 49.2555 34.493C49.1677 34.4921 49.1678 34.4914 49.2669 34.4103C49.3626 34.332 49.3629 34.3305 49.2738 34.3743C49.2226 34.3995 49.1579 34.4113 49.13 34.4006C49.0946 34.387 49.0853 34.4119 49.0989 34.4835C49.1136 34.5602 49.1055 34.5778 49.0665 34.5537C49.0322 34.5325 49.0243 34.5373 49.0431 34.5677C49.0781 34.6244 49.1869 34.629 49.1869 34.5739C49.1869 34.5519 49.2049 34.5339 49.2269 34.5339C49.3147 34.5339 49.2597 34.6206 49.1469 34.6599C49.0573 34.6911 49.0269 34.7267 49.0269 34.8004C49.0269 34.9179 48.9605 35.0539 48.9031 35.0539C48.8806 35.0539 48.8725 35.0371 48.8852 35.0167C48.8978 34.9962 48.8854 34.9663 48.8576 34.9503C48.8297 34.9342 48.8205 34.936 48.837 34.9543C48.8536 34.9726 48.8383 35.0317 48.8029 35.0856C48.7642 35.1447 48.7587 35.1713 48.7891 35.1526C48.8261 35.1297 48.8332 35.1455 48.8158 35.2119C48.8028 35.2617 48.8091 35.3501 48.8298 35.4082C48.8652 35.5077 48.8638 35.5093 48.8071 35.4363C48.7618 35.3778 48.7469 35.3734 48.7469 35.4183C48.7469 35.4511 48.7694 35.5021 48.7969 35.5318C48.8307 35.5682 48.8316 35.577 48.7996 35.5591C48.7681 35.5414 48.7532 35.5694 48.7547 35.6432C48.7594 35.8681 48.7461 35.9781 48.7165 35.9598C48.6755 35.9345 48.5707 36.0197 48.5514 36.094C48.5165 36.2284 48.5229 36.4375 48.5636 36.4916C48.5963 36.5351 48.5947 36.5419 48.5569 36.5192C48.5294 36.5027 48.5069 36.5082 48.5069 36.5315C48.5069 36.5548 48.5249 36.5739 48.5469 36.5739C48.5689 36.5739 48.5869 36.593 48.5869 36.6163C48.5869 36.6396 48.5715 36.6491 48.5527 36.6375C48.5339 36.6258 48.527 36.6608 48.5373 36.7151C48.5477 36.7694 48.5721 36.8139 48.5916 36.8139C48.611 36.8139 48.6269 36.842 48.6269 36.8763C48.6269 36.9106 48.6437 36.9283 48.6642 36.9156C48.6959 36.896 57.3914 36.8941 58.0298 36.9136C58.3033 36.9219 58.332 36.9384 58.3216 37.081C58.3171 37.1431 58.3119 37.5932 58.3101 38.0812C58.307 38.9462 58.3048 38.9692 58.2229 38.9952C58.1767 39.0098 58.1191 39.0021 58.0949 38.9779C58.0376 38.9206 57.9742 38.9209 58.0097 38.9784C58.0512 39.0455 57.9418 39.094 57.8544 39.0472C57.7962 39.016 57.7641 39.0215 57.7221 39.0699C57.6916 39.1049 57.6883 39.1157 57.7148 39.0938C57.7826 39.0376 57.8269 39.0442 57.8269 39.1106C57.8269 39.1417 57.8494 39.1748 57.8769 39.184C57.9044 39.1932 57.7019 39.205 57.4269 39.2102C56.9749 39.2189 56.6196 39.2331 56.4726 39.2483C56.4426 39.2514 56.4283 39.2798 56.4406 39.3119C56.4562 39.3526 56.4436 39.3625 56.3983 39.3451C56.3572 39.3293 56.3437 39.3363 56.361 39.3643C56.4076 39.4398 56.3348 39.4514 55.7626 39.4597C55.1873 39.4681 55.0932 39.4793 55.1278 39.5353C55.139 39.5535 55.1271 39.5814 55.1014 39.5973C55.0721 39.6154 55.0653 39.6089 55.0831 39.5801C55.1 39.5527 55.0862 39.5339 55.0493 39.5339C54.9954 39.5339 54.9722 39.5742 54.9793 39.6553C54.9818 39.6838 54.9449 39.6862 54.2543 39.7032C53.8404 39.7133 53.6524 39.7326 53.6311 39.7672C53.6143 39.7944 53.5733 39.8062 53.5401 39.7934C53.5066 39.7806 53.4555 39.8022 53.4252 39.8421C53.3787 39.9034 53.3789 39.9066 53.4268 39.8639C53.5003 39.7984 53.5469 39.8005 53.5469 39.8692C53.5469 39.9643 53.4334 39.9744 52.4014 39.9712C52.305 39.9709 52.2101 39.9964 52.1742 40.0323C52.1403 40.0662 52.0888 40.0942 52.0598 40.0945C52.0196 40.095 52.0209 40.104 52.065 40.1319C52.0969 40.1521 52.1419 40.1579 52.165 40.1448C52.188 40.1318 52.1929 40.1365 52.1757 40.1553C52.1304 40.2051 52.0657 40.2106 51.4469 40.217C51.005 40.2216 50.8721 40.2358 50.8169 40.2845C50.7784 40.3185 50.7469 40.3338 50.7469 40.3185C50.7469 40.3033 50.7075 40.3275 50.6594 40.3723C50.599 40.4286 50.5151 40.4547 50.3894 40.4564C49.3437 40.4708 49.3421 40.4709 49.3611 40.5438C49.3755 40.5989 49.3654 40.6058 49.3131 40.5764C49.2652 40.5495 49.2228 40.5618 49.1596 40.621C49.09 40.6862 49.01 40.7049 48.7651 40.7132C48.5695 40.7199 48.4465 40.7422 48.4264 40.7746C48.4091 40.8026 48.3694 40.8158 48.3382 40.8038C48.2996 40.789 48.2823 40.8095 48.2842 40.8679C48.2863 40.9364 48.2604 40.9565 48.1569 40.9664C48.0854 40.9733 48.0269 40.9965 48.0269 41.0178C48.0269 41.041 47.9925 41.0383 47.9421 41.0113C47.8904 40.9836 47.8672 40.982 47.8827 41.0071C47.8967 41.0298 47.8907 41.0592 47.8693 41.0724C47.8479 41.0856 47.8406 41.1231 47.8531 41.1556C47.8686 41.196 47.857 41.2076 47.8166 41.1921C47.7272 41.1578 47.4319 41.4475 47.5081 41.4947C47.5541 41.5231 47.5496 41.5306 47.4864 41.5316C47.3121 41.5343 47.275 41.5485 47.2963 41.6039C47.3142 41.6506 47.324 41.6512 47.3519 41.6073C47.3783 41.5655 47.3858 41.5651 47.3863 41.6052C47.3866 41.6333 47.3637 41.6653 47.3353 41.6762C47.307 41.6871 47.2794 41.7531 47.2741 41.8228C47.2625 41.9747 47.2578 41.9804 47.1395 41.9878C47.073 41.9919 47.0431 42.0217 47.0334 42.0937C47.0125 42.2496 46.9979 44.4162 47.018 44.3961C47.0536 44.3605 47.2319 44.6134 47.2036 44.6593C47.1854 44.6887 47.1918 44.6956 47.2207 44.6777C47.254 44.6571 47.2683 44.7391 47.2719 44.9715C47.2786 45.4054 47.2739 45.3872 47.3869 45.4138C47.4841 45.4367 47.4872 45.4483 47.4984 45.8271C47.5048 46.0445 47.5257 46.207 47.5458 46.1946C47.567 46.1815 47.5674 46.2223 47.5469 46.2939C47.5277 46.3607 47.5268 46.4063 47.5449 46.3951C47.563 46.3839 47.5999 46.4014 47.6269 46.4339C47.6539 46.4664 47.6919 46.4832 47.7114 46.4711C47.7515 46.4463 47.7573 46.4939 47.756 46.8339C47.7554 46.9659 47.7718 47.1054 47.7924 47.1439C47.8171 47.1903 47.8152 47.2139 47.7867 47.2139C47.7602 47.2139 47.7634 47.2354 47.7953 47.2701C47.8237 47.301 47.8649 47.3235 47.8869 47.3201C47.9089 47.3167 47.9224 47.3364 47.9169 47.3639C47.9114 47.3914 47.921 47.4139 47.9382 47.4139C47.9744 47.4139 47.9993 47.5619 48.0038 47.8039C48.006 47.9267 48.0236 47.9741 48.0669 47.9745C48.1022 47.9749 48.1104 47.9872 48.0869 48.0045C48.0083 48.0623 48.0283 48.126 48.1183 48.1044C48.1909 48.0869 48.1979 48.0927 48.1569 48.1365C48.0859 48.2123 48.0947 48.2738 48.1679 48.2131C48.2533 48.1422 48.2633 48.1647 48.2758 48.4562C48.2865 48.7044 48.2909 48.7144 48.3969 48.7266C48.4974 48.7381 48.531 48.792 48.5103 48.908C48.4967 48.9835 48.5557 49.0939 48.6096 49.0939C48.6411 49.0939 48.6669 49.1197 48.6669 49.1512C48.6669 49.1827 48.7029 49.2199 48.7469 49.2339C48.8115 49.2544 48.819 49.274 48.7859 49.3357C48.7527 49.3978 48.7567 49.4076 48.8076 49.3881C48.8458 49.3734 48.8656 49.3834 48.8585 49.4137C48.8521 49.441 48.8773 49.4684 48.9144 49.4747C48.9515 49.4809 49.0235 49.5265 49.0744 49.5759C49.1253 49.6253 49.1446 49.6531 49.1174 49.6377C49.0842 49.619 49.0756 49.6301 49.0915 49.6716C49.1046 49.7056 49.1282 49.7255 49.144 49.7157C49.1597 49.706 49.2214 49.7233 49.2811 49.7543C49.3407 49.7852 49.379 49.7934 49.366 49.7725C49.3531 49.7516 49.3865 49.7381 49.4402 49.7425C49.5076 49.7481 49.531 49.7687 49.5156 49.8088C49.5014 49.846 49.51 49.8567 49.5396 49.8384C49.5699 49.8197 49.5777 49.8312 49.5623 49.8716C49.5492 49.9056 49.5226 49.9236 49.5032 49.9116C49.4837 49.8996 49.4775 49.9149 49.4892 49.9456C49.5032 49.9819 49.5613 49.998 49.6557 49.9917C49.7993 49.982 49.9292 50.0554 49.875 50.1156C49.8595 50.1327 49.8694 50.1338 49.8969 50.118C49.9244 50.1021 49.9469 50.1077 49.9469 50.1303C49.9469 50.1529 49.9721 50.1617 50.0029 50.1499C50.0336 50.1381 50.0724 50.1505 50.089 50.1774C50.1061 50.2049 50.1026 50.216 50.0812 50.2027C50.0602 50.1898 50.0226 50.1918 49.9976 50.2073C49.9321 50.2478 51.8365 50.2634 52.979 50.2317C54.1606 50.199 54.1886 50.1615 53.0536 50.1317L52.2069 50.1095L53.0869 50.0985C53.5709 50.0925 53.9463 50.0791 53.9211 50.0688C53.8959 50.0585 54.3981 49.5289 55.0371 48.892C55.8229 48.1086 56.1742 47.733 56.1228 47.7311C56.0032 47.7267 56.1763 47.6603 56.3169 47.6567C56.3774 47.6552 56.4269 47.6359 56.4269 47.6139C56.4269 47.5919 56.5304 47.5707 56.6569 47.5667L56.8869 47.5595L56.6869 47.5462C56.5769 47.539 56.4419 47.5216 56.3869 47.5077L56.2869 47.4824L56.3869 47.4521C56.4419 47.4355 56.7825 47.4201 57.1438 47.4179C57.7091 47.4145 57.8115 47.4042 57.8791 47.3439C57.9551 47.2761 57.9567 47.277 57.9303 47.3739C57.9068 47.4602 57.9093 47.4639 57.9487 47.4009C58.0154 47.2941 58.2125 47.301 54.7367 47.287C51.6297 47.2744 51.5069 47.2711 51.5069 47.2002C51.5069 47.1596 51.4709 47.117 51.4269 47.1055C51.3829 47.094 51.3469 47.0676 51.3469 47.0469C51.3469 47.0261 51.3289 47.0203 51.3069 47.0339C51.2667 47.0588 51.254 46.9389 51.257 46.5612C51.2582 46.404 51.2472 46.3729 51.197 46.3921C51.1493 46.4105 51.1455 46.4037 51.1803 46.3619C51.2134 46.322 51.2127 46.2957 51.1779 46.2609C51.1521 46.2351 51.1442 46.2139 51.1605 46.2139C51.1767 46.2139 51.1533 46.1745 51.1085 46.1264C51.0636 46.0782 51.0243 45.9837 51.0211 45.9164C51.018 45.849 51.0115 45.6866 51.0068 45.5555C50.9982 45.3178 50.9807 45.2887 50.8169 45.238C50.7568 45.2195 50.7469 45.1637 50.7469 44.8432C50.7469 44.5999 50.7295 44.4511 50.6969 44.416C50.6579 44.374 50.6578 44.3683 50.6964 44.3901C50.7297 44.4089 50.7381 44.3976 50.722 44.3556C50.7089 44.3213 50.6551 44.2824 50.6025 44.2692C50.4392 44.2282 50.4586 43.7586 50.626 43.7002C50.6995 43.6746 50.754 43.6731 50.7684 43.6963C50.7812 43.717 50.8096 43.7339 50.8316 43.7339C50.8536 43.7339 50.8591 43.7136 50.8437 43.6887C50.8268 43.6614 50.8375 43.6508 50.8708 43.6619C50.9011 43.672 50.9801 43.6294 51.0464 43.5672C51.1615 43.4593 51.1848 43.4542 51.5669 43.4517C52.2139 43.4474 52.3216 43.4364 52.4258 43.3633C52.4802 43.3251 52.5081 43.2939 52.4878 43.2939C52.4662 43.2939 52.4668 43.278 52.4891 43.2557C52.5102 43.2346 52.7793 43.2137 53.0871 43.2091C53.6891 43.2001 53.7587 43.1903 53.7237 43.1197C53.7112 43.0945 53.7268 43.1054 53.7583 43.1439C53.8309 43.2324 53.8722 43.2342 53.8388 43.1473C53.8229 43.1057 53.8292 43.0906 53.8557 43.107C53.8791 43.1214 53.9255 43.0914 53.959 43.0404C54.017 42.9519 54.0388 42.9481 54.4333 42.959C54.6636 42.9653 54.8957 42.9512 54.9569 42.9273C55.0339 42.8971 55.0822 42.8968 55.1176 42.9262C55.1946 42.99 55.3618 42.8071 55.2951 42.732C55.255 42.6869 55.2581 42.6862 55.3133 42.7278C55.363 42.7652 55.387 42.7661 55.4083 42.7316C55.4292 42.6978 55.4462 42.7 55.4713 42.7396C55.4939 42.7754 55.5059 42.7777 55.5063 42.7466C55.5067 42.7139 55.6209 42.6985 55.8769 42.6965C56.6278 42.6908 56.6515 42.6894 56.5669 42.6535C56.5229 42.6348 56.5094 42.6183 56.5369 42.6167C56.5644 42.6152 56.5869 42.5839 56.5869 42.5472C56.5869 42.5106 56.5987 42.4924 56.6132 42.5069C56.6277 42.5214 56.6621 42.5145 56.6897 42.4915C56.7185 42.4677 56.9806 42.4474 57.3034 42.4441C57.6133 42.4409 57.8669 42.4238 57.8669 42.4061C57.8669 42.3884 57.886 42.3739 57.9093 42.3739C57.9326 42.3739 57.9405 42.3919 57.9269 42.4139C57.9133 42.4359 57.9202 42.4539 57.9422 42.4539C57.9642 42.4539 57.9938 42.435 58.0081 42.412C58.0258 42.3834 58.0523 42.3852 58.0914 42.4176C58.1381 42.4564 58.1439 42.4527 58.1229 42.3979C58.1087 42.3609 58.1128 42.3359 58.132 42.3423C58.1641 42.353 58.1869 42.3243 58.1869 42.273C58.1869 42.2615 58.1399 42.2828 58.0825 42.3204C57.9822 42.3862 57.9787 42.3858 57.9931 42.3114C58.0038 42.2558 58.0421 42.2333 58.1287 42.2316C58.1952 42.2304 58.2759 42.2134 58.3082 42.194C58.3539 42.1664 58.358 42.1713 58.3269 42.2162C58.3008 42.2539 58.294 43.092 58.3074 44.6339C58.3186 45.9319 58.3321 46.9523 58.3374 46.9015C58.3426 46.8507 58.3652 46.8205 58.3876 46.8343C58.4099 46.8481 58.4178 46.8762 58.4052 46.8967C58.3925 46.9171 58.4012 46.9339 58.4245 46.9339C58.4857 46.9339 58.4766 46.8717 58.4069 46.8139C58.3548 46.7706 58.3482 46.4983 58.3565 44.739L58.3661 42.7139L58.3769 44.7123C58.3836 45.9636 58.4025 46.7255 58.4273 46.7503C58.4534 46.7764 58.4685 46.3626 58.4716 45.5319C58.4742 44.84 58.4901 44.3279 58.5069 44.3939C58.5237 44.4599 58.5396 45.0123 58.5422 45.6215C58.5448 46.2307 58.5604 46.7375 58.5769 46.7478C58.5934 46.758 58.6017 46.3987 58.5953 45.9494C58.5882 45.4503 58.5994 45.1055 58.6241 45.0632C58.6579 45.0051 58.6647 45.0128 58.6657 45.1106C58.6691 45.4399 58.7298 45.0982 58.7492 44.6407L58.7715 44.1139L58.7817 44.6739C58.7879 45.0113 58.8049 45.2021 58.8246 45.1539C58.8425 45.1099 59.4144 44.5159 60.0955 43.8339C60.7765 43.1519 61.3443 42.5669 61.3572 42.5339C61.3701 42.5009 61.3821 42.6359 61.384 42.8339C61.3908 43.5524 61.5045 43.0824 61.533 42.2178C61.5676 41.1719 61.6224 41.1806 61.635 42.2339C61.6431 42.9124 61.6504 42.7475 61.6669 41.5139L61.6883 39.9139L61.7017 41.5539C61.7109 42.6868 61.7269 43.1506 61.7532 43.0539C61.8329 42.7611 61.8364 36.4905 61.7569 36.4253C61.7184 36.3938 61.7074 36.3781 61.7324 36.3905C61.7574 36.4029 61.7876 36.3754 61.7996 36.3295C61.8117 36.2836 61.8107 36.2568 61.7974 36.27C61.7842 36.2833 61.7373 36.2625 61.6933 36.224C61.6353 36.1733 61.6222 36.1705 61.6459 36.2139C61.6726 36.2629 61.6687 36.2647 61.6243 36.2235C61.5915 36.1929 61.5724 36.0993 61.5761 35.9864C61.5794 35.8838 61.5634 35.7648 61.5405 35.722C61.5107 35.6663 61.5114 35.6519 61.5429 35.6714C61.5671 35.6864 61.5869 35.6861 61.5869 35.6708C61.5869 35.6294 61.389 35.4539 61.3423 35.4539C61.3201 35.4539 61.3066 35.4224 61.3123 35.3839C61.3282 35.2778 61.1954 35.056 61.0862 35.0063C61.033 34.9821 60.9971 34.9498 61.0065 34.9346C61.0416 34.8778 60.905 34.7371 60.8392 34.7624C60.7987 34.7779 60.7837 34.7714 60.7999 34.7452C60.8322 34.693 60.7319 34.6034 60.6868 34.6442C60.6689 34.6606 60.6664 34.6399 60.6814 34.5982C60.7057 34.5311 60.701 34.5288 60.6401 34.5782C60.5955 34.6145 60.582 34.6165 60.6014 34.5842C60.6178 34.5569 60.6128 34.5029 60.5903 34.4642C60.5581 34.409 60.5489 34.4068 60.5475 34.4539C60.546 34.5041 60.5399 34.5048 60.5104 34.4582C60.4897 34.4255 60.4403 34.4115 60.391 34.4244C60.3223 34.4424 60.3069 34.4283 60.3069 34.3478C60.3069 34.2795 60.2915 34.2584 60.2569 34.2792C60.2181 34.3026 60.2173 34.2963 60.2537 34.2514C60.2933 34.2024 60.2657 34.1917 60.0737 34.182C59.9058 34.1734 59.8261 34.1487 59.7669 34.0867C59.7229 34.0406 59.7082 34.0147 59.7341 34.029C59.7601 34.0434 59.7921 34.0378 59.8052 34.0166C59.8674 33.916 59.6999 33.9131 54.431 33.9254C52.0902 33.9309 50.1657 33.926 50.1543 33.9146C50.1313 33.8917 49.976 33.8954 49.8363 33.9222ZM61.1848 35.13C61.2194 35.1947 61.2137 35.2029 61.1462 35.1853C61.1026 35.1739 61.0669 35.1397 61.0669 35.1092C61.0669 35.029 61.1374 35.0414 61.1848 35.13ZM49.3069 40.6516C49.3069 40.6697 49.2709 40.694 49.2269 40.7055C49.1375 40.7289 49.1231 40.6937 49.1933 40.6235C49.2408 40.576 49.3069 40.5924 49.3069 40.6516ZM38.0969 43.7502C38.0804 44.0562 38.0635 44.5332 38.0593 44.8102C38.0521 45.2944 38.0509 45.3008 38.0293 44.9737C38.016 44.7716 37.9895 44.6337 37.9639 44.6337C37.9403 44.6338 37.4129 45.1424 36.7919 45.7639C36.171 46.3854 35.6368 46.8939 35.6049 46.8939C35.5545 46.8939 35.5469 47.6678 35.5469 52.8139C35.5469 58.0495 35.5538 58.7339 35.6069 58.7339C35.6702 58.7339 35.6723 58.7412 35.6812 58.9939C35.6844 59.0819 35.6981 59.1719 35.7117 59.1939C35.7254 59.2159 35.7313 59.2668 35.7248 59.307C35.7164 59.3591 35.7311 59.3732 35.7756 59.3561C35.8232 59.3378 35.8279 59.3445 35.7954 59.3837C35.7636 59.422 35.7775 59.4592 35.8497 59.5288C35.9032 59.5802 35.9469 59.6645 35.9469 59.7161C35.9469 59.7677 35.9726 59.8243 36.0041 59.8419C36.0355 59.8595 36.067 59.8919 36.0741 59.9139C36.0811 59.9359 36.1001 59.9495 36.1162 59.9441C36.1323 59.9388 36.1561 59.9838 36.169 60.0441C36.2159 60.2635 36.265 60.3453 36.3216 60.2983C36.3844 60.2462 36.4269 60.2795 36.4269 60.3809C36.4269 60.4707 36.6187 60.6939 36.6959 60.6939C36.7265 60.6939 36.7405 60.7119 36.7269 60.7339C36.7047 60.7699 36.7572 60.7912 36.8369 60.7786C36.8534 60.776 36.8669 60.793 36.8669 60.8163C36.8669 60.8396 36.8853 60.8472 36.9079 60.8333C36.9304 60.8194 36.9449 60.8228 36.94 60.8409C36.9194 60.9169 36.9971 61.0585 37.0485 61.0388C37.0814 61.0262 37.095 61.0383 37.083 61.0695C37.0722 61.0979 37.0911 61.1442 37.1251 61.1724C37.1591 61.2006 37.1869 61.2118 37.1869 61.1972C37.1869 61.1827 37.212 61.194 37.2427 61.2223C37.2734 61.2507 37.2886 61.2902 37.2765 61.3101C37.2644 61.33 37.2708 61.3366 37.2907 61.3248C37.3688 61.2784 37.5193 61.3708 37.4674 61.4333C37.4148 61.4967 37.4873 61.5428 37.7167 61.5918C37.777 61.6047 37.822 61.6285 37.8167 61.6446C37.8113 61.6607 37.822 61.6772 37.8405 61.6812C37.859 61.6853 37.8967 61.7194 37.9243 61.7571C37.9587 61.8042 38.0086 61.8191 38.0838 61.8047C38.1554 61.791 38.2005 61.8028 38.2143 61.8388C38.226 61.8691 38.2526 61.8939 38.2735 61.8939C38.2945 61.8939 38.3029 61.8798 38.2922 61.8625C38.2815 61.8452 38.3042 61.831 38.3425 61.831C38.3884 61.831 38.4098 61.8589 38.4051 61.9125C38.3949 62.0268 38.4252 62.0651 38.4858 62.0148C38.5236 61.9834 38.5433 61.9868 38.5588 62.0273C38.5819 62.0874 38.7725 62.0942 38.8614 62.0381C38.8954 62.0166 38.9276 62.0227 38.9473 62.0546C38.9647 62.0826 39.0076 62.0945 39.0429 62.081C39.0882 62.0636 39.1069 62.0794 39.1069 62.1352C39.1069 62.2119 39.1408 62.2139 40.4669 62.2139C41.6218 62.2139 41.8269 62.2052 41.8269 62.1565C41.8269 62.1249 42.3417 61.5855 42.971 60.9578L44.1151 59.8165L43.641 59.8038C43.2787 59.7941 43.3603 59.7876 43.9869 59.7762C45.1362 59.7552 44.5175 59.7071 42.8669 59.689L41.6469 59.6757L42.8669 59.6539L44.0869 59.6321L42.5069 59.6159C40.4838 59.5952 40.5882 59.6017 40.5057 59.4923C40.4681 59.4424 40.4176 59.4149 40.3924 59.4305C40.3674 59.446 40.3469 59.4411 40.3469 59.4196C40.3469 59.3981 40.3694 59.3702 40.3969 59.3576C40.4244 59.345 40.4019 59.3463 40.3469 59.3606C40.224 59.3924 40.1863 59.3915 40.0964 59.3542C40.0399 59.3307 40.0314 59.3396 40.0532 59.3994C40.0795 59.4712 40.0775 59.4713 39.9987 59.4022C39.9479 59.3578 39.8779 59.3376 39.8142 59.3491C39.7543 59.36 39.6921 59.3443 39.6647 59.3113C39.6389 59.2802 39.5974 59.2667 39.5724 59.2812C39.5474 59.2958 39.5596 59.2703 39.5995 59.2247C39.6402 59.1783 39.6554 59.1315 39.634 59.1183C39.6131 59.1054 39.5737 59.1216 39.5465 59.1543C39.5193 59.1871 39.4768 59.2136 39.452 59.2133C39.4272 59.213 39.4339 59.1952 39.4669 59.1739C39.5339 59.1306 39.5331 59.1302 39.3708 59.1113C39.1817 59.0893 39.1392 59.0613 39.1661 58.9765C39.1832 58.9226 39.1656 58.8853 39.1088 58.8549C39.0638 58.8308 39.0269 58.8229 39.0269 58.8374C39.0269 58.8519 38.9995 58.8409 38.9659 58.8131C38.9324 58.7853 38.9138 58.7537 38.9245 58.7429C38.9739 58.6935 38.8582 58.5713 38.7843 58.5947C38.6995 58.6216 38.6715 58.5791 38.6495 58.39C38.6306 58.2277 38.6302 58.2269 38.5869 58.2939C38.5656 58.3269 38.5478 58.3336 38.5475 58.3088C38.5472 58.284 38.5737 58.2415 38.6065 58.2143C38.6392 58.1871 38.6554 58.1477 38.6425 58.1268C38.6293 58.1054 38.5842 58.1201 38.54 58.1602C38.4965 58.1995 38.4652 58.2142 38.4704 58.1928C38.4756 58.1714 38.4594 58.1046 38.4345 58.0442C38.4095 57.9839 38.3996 57.9074 38.4123 57.8742C38.4259 57.8388 38.413 57.8136 38.3812 57.8133C38.337 57.8128 38.3367 57.8065 38.3792 57.7795C38.4587 57.7291 38.3962 57.5221 38.3084 57.5451C38.2709 57.5549 38.2394 57.5429 38.2383 57.5184C38.2373 57.4939 38.2243 57.4447 38.2094 57.4091C38.1931 57.3702 38.2043 57.3358 38.2373 57.3231C38.2734 57.3093 38.2914 57.3302 38.2896 57.3839C38.2881 57.4289 38.3094 57.4736 38.3369 57.4832C38.3644 57.4927 38.3869 57.48 38.3869 57.4549C38.3869 57.4297 38.3706 57.4193 38.3506 57.4316C38.3307 57.4439 38.3234 57.4195 38.3344 57.3774C38.3476 57.327 38.3259 57.2855 38.2712 57.2562L38.1879 57.2116L38.1826 51.0028C38.1797 47.5879 38.166 44.4339 38.1521 43.9939L38.1269 43.1939L38.0969 43.7502ZM57.8469 47.3339C57.8316 47.3586 57.5593 47.3706 57.1345 47.3653L56.4469 47.3568L57.1469 47.3339C57.5319 47.3213 57.8525 47.3072 57.8593 47.3025C57.8661 47.2978 57.8605 47.3119 57.8469 47.3339ZM61.0724 49.1539C61.0023 49.2309 60.9573 49.2939 60.9724 49.2939C60.9983 49.2939 61.2269 49.0539 61.2269 49.0267C61.2269 48.9941 61.1904 49.0242 61.0724 49.1539Z" fill="#3461FF"/>
<path fill-rule="evenodd" clip-rule="evenodd" d="M72.1469 22.2739C72.1469 22.3069 72.1739 22.3339 72.2069 22.3339C72.2399 22.3339 72.2669 22.3069 72.2669 22.2739C72.2669 22.2409 72.2399 22.2139 72.2069 22.2139C72.1739 22.2139 72.1469 22.2409 72.1469 22.2739ZM73.9617 23.2481C73.9986 23.2889 74.0887 23.3546 74.162 23.394C74.2352 23.4335 74.3273 23.5256 74.3668 23.5988C74.4643 23.78 74.5869 23.8928 74.5869 23.8015C74.5869 23.7659 74.5495 23.7167 74.5037 23.6922C74.458 23.6677 74.4027 23.5964 74.3808 23.5337C74.3564 23.4636 74.2972 23.4044 74.2271 23.38C74.1644 23.3581 74.0931 23.3028 74.0686 23.2571C74.0441 23.2113 73.9949 23.1739 73.9593 23.1739C73.9004 23.1739 73.9006 23.1807 73.9617 23.2481ZM36.8646 23.3928C36.8083 23.4234 36.7405 23.4992 36.7139 23.5612C36.6696 23.6646 36.6704 23.6673 36.7246 23.5939C36.7995 23.4925 36.8282 23.464 36.9269 23.3935C37.0286 23.321 36.9972 23.3206 36.8646 23.3928ZM52.1869 24.9139C52.2309 24.9669 53.2938 24.974 61.3018 24.9752C69.2091 24.9763 70.3768 24.9839 70.4445 25.0352C70.533 25.102 70.6443 25.1145 70.6065 25.0532C70.5927 25.0309 70.5681 25.0208 70.5518 25.0309C70.5356 25.0409 70.4893 25.0052 70.449 24.9515L70.3757 24.8539H61.2564C53.1549 24.8539 52.1427 24.8606 52.1869 24.9139ZM75.4147 25.5195C75.3773 25.5568 75.4224 25.6139 75.4893 25.6139C75.521 25.6139 75.5469 25.5869 75.5469 25.5539C75.5469 25.4937 75.4625 25.4717 75.4147 25.5195ZM72.6715 27.1563C72.669 27.2015 72.6933 27.2735 72.7256 27.3163C72.8147 27.434 72.8147 56.9938 72.7256 57.1115C72.6933 57.1543 72.6672 57.2263 72.6675 57.2715C72.668 57.3372 72.6756 57.3421 72.7049 57.2958C72.7251 57.2639 72.7357 57.2279 72.7285 57.2158C72.7212 57.2038 72.7404 57.1707 72.7711 57.1423C72.8166 57.1002 72.8274 57.1002 72.8297 57.1423C72.8313 57.1707 72.848 57.1579 72.8669 57.1139C72.8858 57.0699 72.9069 54.3969 72.9137 51.1739C72.9252 45.8101 72.928 45.5967 72.9469 48.6539C72.9589 50.588 72.9752 51.5477 72.9856 50.9339C73.0021 49.9603 73.0053 49.9212 73.0252 50.4539C73.0371 50.7729 73.0579 50.9889 73.0715 50.9339C73.0859 50.8749 73.0982 50.9446 73.1015 51.1039C73.1074 51.3971 73.1678 51.4591 73.2669 51.2739C73.2963 51.2189 73.3327 51.1739 73.3478 51.1739C73.3628 51.1739 73.5262 51.0197 73.711 50.8313C73.8957 50.6429 74.0707 50.4674 74.0998 50.4413C74.1678 50.3803 74.274 50.2741 74.3342 50.2068C74.3799 50.1557 74.7528 49.7836 74.8589 49.6831C74.8875 49.6561 74.9415 49.5998 74.9789 49.5582C75.0163 49.5165 75.0809 49.4535 75.1223 49.4182C75.1638 49.3828 75.2433 49.3044 75.299 49.2439C75.3546 49.1834 75.4331 49.1339 75.4735 49.1339C75.5442 49.1339 75.5469 48.9865 75.5469 45.1139C75.5469 41.4858 75.5408 41.0939 75.484 41.0939C75.4495 41.0939 74.9182 41.5979 74.3034 42.2139C73.6886 42.8299 73.1769 43.3339 73.1662 43.3339C73.1556 43.3339 73.1429 43.1764 73.1381 42.9839C73.1333 42.7914 73.1192 43.0209 73.1069 43.4939C73.0873 44.2471 73.0834 44.2856 73.0757 43.8039C73.0638 43.0571 72.9894 43.0725 72.9789 43.8239C72.9746 44.1374 72.9592 42.5939 72.9447 40.3939C72.9303 38.1939 72.9159 34.3749 72.9127 31.9072C72.9072 27.6324 72.9004 27.2685 72.8272 27.3137C72.7875 27.3382 72.7214 27.2578 72.6958 27.1539C72.6766 27.0758 72.6761 27.0759 72.6715 27.1563ZM59.1769 33.9221C59.2264 33.9317 59.3074 33.9317 59.3569 33.9221C59.4064 33.9126 59.3659 33.9048 59.2669 33.9048C59.1679 33.9048 59.1274 33.9126 59.1769 33.9221ZM59.8155 34.0946C59.8269 34.1382 59.8611 34.1739 59.8916 34.1739C59.9718 34.1739 59.9594 34.1034 59.8708 34.056C59.8061 34.0214 59.7979 34.0271 59.8155 34.0946ZM61.1583 35.0659C61.207 35.1165 61.2543 35.1526 61.2633 35.1462C61.2867 35.1294 61.1411 34.9739 61.1021 34.9739C61.0843 34.9739 61.1096 35.0153 61.1583 35.0659ZM48.6669 35.8739C48.6261 35.923 48.6289 35.9339 48.682 35.9339C48.7177 35.9339 48.7469 35.9069 48.7469 35.8739C48.7469 35.8409 48.7401 35.8139 48.7318 35.8139C48.7235 35.8139 48.6943 35.8409 48.6669 35.8739ZM58.1869 36.949C58.1869 36.9573 58.2139 36.9865 58.2469 37.0139C58.296 37.0547 58.3069 37.0519 58.3069 36.9988C58.3069 36.9631 58.2799 36.9339 58.2469 36.9339C58.2139 36.9339 58.1869 36.9407 58.1869 36.949ZM38.1875 47.919C38.1879 53.7346 38.2022 57.0556 38.2269 57.0939C38.2482 57.1269 38.266 57.1382 38.2663 57.119C38.2676 57.0452 38.3871 57.1882 38.3915 57.2688C38.3954 57.3393 38.3994 57.3415 38.4149 57.2819C38.4251 57.2424 38.405 57.1665 38.3702 57.1133C38.3129 57.0259 38.3069 56.1536 38.3069 47.9602C38.3069 39.9588 38.2999 38.8979 38.2469 38.8539C38.1936 38.8097 38.187 39.8214 38.1875 47.919ZM57.6669 39.0539C57.6229 39.0979 57.5875 39.1564 57.5882 39.1839C57.5889 39.2114 57.6163 39.1979 57.649 39.1539C57.6818 39.1099 57.7387 39.0514 57.7754 39.0239C57.8128 38.9959 57.8212 38.9739 57.7945 38.9739C57.7683 38.9739 57.7109 39.0099 57.6669 39.0539ZM53.409 39.7874C53.3688 39.8168 53.3429 39.8573 53.3514 39.8774C53.3599 39.8975 53.4068 39.8734 53.4555 39.8239C53.5528 39.725 53.5246 39.7029 53.409 39.7874ZM52.4369 39.9615C52.4754 39.9715 52.5384 39.9715 52.5769 39.9615C52.6154 39.9514 52.5839 39.9432 52.5069 39.9432C52.4299 39.9432 52.3984 39.9514 52.4369 39.9615ZM49.1025 40.6239C49.0555 40.7134 49.0557 40.7135 49.1411 40.6377C49.2364 40.553 49.2451 40.5339 49.1883 40.5339C49.1671 40.5339 49.1285 40.5744 49.1025 40.6239ZM56.7869 42.5401C56.7869 42.6238 56.7893 42.6242 56.8669 42.5539C56.9109 42.5141 56.9469 42.4753 56.9469 42.4677C56.9469 42.4601 56.9109 42.4539 56.8669 42.4539C56.8116 42.4539 56.7869 42.4806 56.7869 42.5401ZM56.1369 42.7221C56.1864 42.7317 56.2674 42.7317 56.3169 42.7221C56.3664 42.7126 56.3259 42.7048 56.2269 42.7048C56.1279 42.7048 56.0874 42.7126 56.1369 42.7221ZM55.4669 42.8096C55.4669 42.8366 55.4461 42.8458 55.4207 42.8301C55.3934 42.8132 55.3853 42.819 55.401 42.8443C55.4155 42.8678 55.4048 42.8962 55.3771 42.9073C55.3458 42.9199 55.3439 42.9288 55.372 42.9307C55.4303 42.9348 55.5262 42.8199 55.4926 42.7863C55.4785 42.7721 55.4669 42.7826 55.4669 42.8096ZM52.5461 43.2749C52.4688 43.368 52.524 43.3856 52.6067 43.2941C52.6466 43.25 52.6607 43.2139 52.638 43.2139C52.6153 43.2139 52.5739 43.2413 52.5461 43.2749ZM47.2378 44.8939C47.2378 44.9929 47.2456 45.0334 47.2551 44.9839C47.2647 44.9344 47.2647 44.8534 47.2551 44.8039C47.2456 44.7544 47.2378 44.7949 47.2378 44.8939ZM50.7955 45.0563C50.8332 45.0783 50.8917 45.1357 50.9255 45.184C50.9593 45.2322 50.9869 45.2497 50.9869 45.2228C50.9869 45.1583 50.8405 45.0136 50.7769 45.0151C50.7485 45.0158 50.7565 45.0336 50.7955 45.0563ZM64.4349 46.3019C64.3753 46.3615 64.3722 46.4255 64.4299 46.4062C64.4536 46.3984 64.4702 46.3751 64.4669 46.3545C64.4637 46.3339 64.4938 46.3041 64.5339 46.2883C64.5896 46.2663 64.5922 46.2589 64.5449 46.2567C64.5108 46.2552 64.4613 46.2755 64.4349 46.3019ZM67.4774 46.3215C67.5146 46.3587 67.5562 46.3779 67.57 46.3642C67.6093 46.3248 67.5489 46.2539 67.476 46.2539C67.4149 46.2539 67.415 46.2592 67.4774 46.3215ZM67.3469 46.4739C67.3469 46.5289 67.3647 46.5739 67.3865 46.5739C67.4082 46.5739 67.4223 46.5289 67.4177 46.4739C67.4132 46.4189 67.3954 46.3739 67.3782 46.3739C67.361 46.3739 67.3469 46.4189 67.3469 46.4739ZM67.577 46.46C67.6088 46.4918 67.6108 46.5292 67.5836 46.58C67.5533 46.6366 67.5581 46.6539 67.6042 46.6539C67.6396 46.6539 67.6555 46.6306 67.6427 46.5974C67.63 46.5642 67.6511 46.5331 67.694 46.522C67.7602 46.5049 67.7605 46.5028 67.6969 46.4985C67.6584 46.496 67.6269 46.4759 67.6269 46.4539C67.6269 46.4319 67.6053 46.4139 67.5789 46.4139C67.5426 46.4139 67.5422 46.4252 67.577 46.46ZM67.4766 46.5646C67.4699 46.6605 67.4742 46.6649 67.5121 46.6C67.5371 46.5571 67.5403 46.5113 67.5197 46.4907C67.4991 46.4701 67.481 46.501 67.4766 46.5646ZM64.2085 46.5478C64.1571 46.5854 64.1488 46.6104 64.1811 46.6303C64.207 46.6463 64.238 46.6314 64.2514 46.5967C64.2645 46.5624 64.2914 46.5443 64.3111 46.5565C64.3308 46.5687 64.3469 46.5596 64.3469 46.5363C64.3469 46.4789 64.2971 46.483 64.2085 46.5478ZM67.7686 46.5711C67.756 46.5916 67.7653 46.6206 67.7895 46.6355C67.8136 46.6504 67.8237 46.7013 67.8118 46.7486C67.7999 46.7959 67.8037 46.8563 67.8201 46.8829C67.8368 46.91 67.8528 46.8614 67.8563 46.7726C67.8598 46.6853 67.8446 46.6139 67.8224 46.6139C67.8003 46.6139 67.7933 46.5959 67.8069 46.5739C67.8205 46.5519 67.8226 46.5339 67.8116 46.5339C67.8006 46.5339 67.7813 46.5507 67.7686 46.5711ZM64.1069 46.6805C64.1069 46.733 64.2362 46.8206 64.2675 46.7893C64.288 46.7688 64.2618 46.7345 64.2049 46.7077C64.151 46.6822 64.1069 46.67 64.1069 46.6805ZM64.0269 47.1043C64.0269 47.1394 63.9954 47.1763 63.9569 47.1863C63.8913 47.2035 63.8914 47.2049 63.9582 47.2093C64.0305 47.214 64.0975 47.1112 64.0518 47.0655C64.0381 47.0518 64.0269 47.0692 64.0269 47.1043ZM67.8269 47.1383C67.7753 47.1754 67.7762 47.1785 67.8331 47.1604C67.8699 47.1487 67.9305 47.1737 67.9693 47.2166C68.0078 47.2591 68.059 47.2925 68.0831 47.2907C68.1082 47.2889 68.1054 47.2789 68.0767 47.2673C68.049 47.2562 68.0366 47.2306 68.049 47.2105C68.0614 47.1904 68.0436 47.1739 68.0093 47.1739C67.975 47.1739 67.9469 47.1559 67.9469 47.1339C67.9469 47.0823 67.9024 47.084 67.8269 47.1383ZM58.2269 47.1939C58.1853 47.244 58.1909 47.2539 58.2607 47.2539C58.3187 47.2539 58.3373 47.2354 58.3214 47.1939C58.3087 47.1609 58.2935 47.1339 58.2875 47.1339C58.2816 47.1339 58.2543 47.1609 58.2269 47.1939ZM61.7962 47.2539C61.7962 47.3309 61.8044 47.3624 61.8145 47.3239C61.8245 47.2854 61.8245 47.2224 61.8145 47.1839C61.8044 47.1454 61.7962 47.1769 61.7962 47.2539ZM54.3198 47.2839C54.9758 47.2901 56.0378 47.29 56.6798 47.2839C57.3217 47.2777 56.7849 47.2726 55.4869 47.2727C54.1889 47.2727 53.6637 47.2777 54.3198 47.2839ZM67.8545 47.8817C67.8396 47.9058 67.8543 47.9358 67.8871 47.9485C67.9217 47.9617 67.9469 48.0218 67.9469 48.0908C67.9469 48.1564 67.9675 48.2554 67.9928 48.3108C68.0282 48.3886 68.0271 48.4255 67.9879 48.4727C67.9468 48.5222 67.9469 48.5339 67.9887 48.5339C68.055 48.5339 68.0032 48.5868 67.9257 48.5982C67.8934 48.6029 67.8669 48.5774 67.8669 48.5415C67.8669 48.4919 67.8515 48.4981 67.8028 48.5676C67.7676 48.6179 67.7488 48.6691 67.7611 48.6815C67.7734 48.6938 67.7438 48.7379 67.6952 48.7794C67.6466 48.821 67.6249 48.8527 67.6469 48.8497C67.7343 48.8381 67.7795 48.8579 67.8811 48.952C67.9393 49.0059 67.9869 49.0329 67.9869 49.012C67.9869 48.991 68.0139 48.9739 68.0469 48.9739C68.0799 48.9739 68.1069 48.9559 68.1069 48.9339C68.1069 48.9119 68.0799 48.8939 68.0469 48.8939C67.9764 48.8939 67.9716 48.8569 68.0313 48.7739C68.0674 48.7237 68.0706 48.7257 68.0511 48.786C68.0383 48.8256 68.0442 48.8479 68.0643 48.8355C68.1051 48.8103 68.0958 48.3094 68.0537 48.2674C68.0045 48.2182 68.0227 47.9266 68.0731 47.9577C68.1028 47.9761 68.1084 47.9686 68.0886 47.9366C68.0717 47.9093 68.0248 47.8956 67.9843 47.9062C67.9438 47.9168 67.9042 47.9057 67.8961 47.8816C67.8856 47.8499 67.8741 47.85 67.8545 47.8817ZM67.8666 48.1139L67.8564 48.2739L67.8269 48.1339L67.7974 47.9939L67.7922 48.1193C67.7882 48.2138 67.8127 48.2616 67.8918 48.3134C67.9605 48.3584 67.9852 48.3635 67.9632 48.328C67.9448 48.2983 67.9178 48.2019 67.9033 48.1139L67.8769 47.9539L67.8666 48.1139ZM67.7298 48.3292C67.7165 48.3507 67.7258 48.3809 67.7505 48.3961C67.7823 48.4158 67.7796 48.4339 67.7412 48.4583C67.7092 48.4786 67.7054 48.4929 67.732 48.4933C67.8194 48.4945 67.8729 48.3887 67.811 48.3373C67.7752 48.3076 67.745 48.3046 67.7298 48.3292ZM61.3652 48.5239C61.2935 48.6896 61.3058 48.7542 61.3862 48.6339C61.4303 48.5679 61.4665 48.5004 61.4666 48.4839C61.4671 48.4262 61.3952 48.4545 61.3652 48.5239ZM48.4071 48.8141C48.4471 48.8583 48.4884 48.8857 48.499 48.8751C48.5259 48.8482 48.4261 48.7339 48.3758 48.7339C48.3531 48.7339 48.3672 48.77 48.4071 48.8141ZM67.5506 48.9495C67.5143 48.9932 67.5153 49.0108 67.5552 49.0269C67.5926 49.0419 67.5935 49.0485 67.5582 49.0507C67.5313 49.0525 67.5198 49.0809 67.5324 49.1139C67.5585 49.1819 67.4856 49.1965 67.4453 49.1313C67.4047 49.0656 67.2678 49.2086 67.2955 49.2877C67.3144 49.3416 67.3086 49.3446 67.2648 49.3039C67.2107 49.2537 67.1107 49.231 67.1597 49.2801C67.1741 49.2944 67.1276 49.3619 67.0564 49.4301C66.9852 49.4982 66.9269 49.5809 66.9268 49.6139C66.9268 49.6469 66.9088 49.6742 66.8868 49.6745C66.8174 49.6756 66.7447 49.738 66.7683 49.7762C66.7809 49.7965 66.7604 49.8012 66.7224 49.7866C66.6758 49.7688 66.6631 49.7754 66.6827 49.8071C66.7009 49.8365 66.6835 49.8539 66.6359 49.8539C66.5943 49.8539 66.5467 49.8674 66.5302 49.8839C66.5137 49.9004 66.4807 49.9139 66.4569 49.9139C66.433 49.9139 66.4106 49.9536 66.407 50.002C66.4035 50.0505 66.4155 50.081 66.4337 50.0697C66.452 50.0584 66.4669 50.0772 66.4669 50.1115C66.4669 50.1861 66.5308 50.1944 66.5632 50.1239C66.5758 50.0964 66.5773 50.1106 66.5665 50.1554C66.5504 50.2223 66.5683 50.2385 66.666 50.246C66.7661 50.2536 66.7895 50.2374 66.8125 50.1445C66.8275 50.0837 66.8739 50.0097 66.9155 49.9802C66.957 49.9506 66.9841 49.9056 66.9755 49.8802C66.9669 49.8547 66.9885 49.8099 67.0234 49.7806C67.0809 49.7324 67.0804 49.7294 67.0189 49.7486C66.971 49.7636 66.9576 49.7524 66.9736 49.7108C66.9911 49.6652 67.0089 49.6623 67.0521 49.6982C67.0973 49.7358 67.0983 49.7563 67.0574 49.8067C67.0149 49.859 67.0176 49.8649 67.0749 49.8434C67.1234 49.8252 67.1365 49.8345 67.1206 49.8759C67.1083 49.9078 67.0812 49.9339 67.0603 49.9339C67.0393 49.9339 67.0333 49.9519 67.0469 49.9739C67.0605 49.9959 67.1021 50.0136 67.1393 50.0133C67.1925 50.0128 67.1953 50.0053 67.1526 49.9783C67.1228 49.9594 67.1146 49.9338 67.1345 49.9215C67.1544 49.9092 67.195 49.9142 67.2247 49.9326C67.2613 49.9552 67.3102 49.9285 67.3764 49.8499C67.4301 49.7861 67.4994 49.7339 67.5305 49.7339C67.5615 49.7339 67.5869 49.7058 67.5869 49.6715C67.5869 49.6372 67.5701 49.6195 67.5497 49.6322C67.5292 49.6448 67.4994 49.6341 67.4835 49.6084C67.4654 49.5791 67.4719 49.5723 67.5007 49.5901C67.5266 49.6061 67.5472 49.5956 67.5475 49.5663C67.548 49.5261 67.5564 49.527 67.5839 49.5704C67.6294 49.6423 67.8786 49.3867 67.8546 49.2927C67.8362 49.2206 67.9231 49.1269 67.9726 49.1654C67.9915 49.18 67.9763 49.158 67.9389 49.1164C67.8843 49.0557 67.8594 49.0503 67.8125 49.0893C67.7684 49.1258 67.747 49.1263 67.7253 49.0914C67.7096 49.0658 67.716 49.033 67.7397 49.0184C67.7633 49.0038 67.7701 48.9743 67.7548 48.9528C67.7098 48.89 67.6014 48.8883 67.5506 48.9495ZM61.115 49.0726C61.0186 49.2265 61.1543 49.2589 61.2555 49.1061C61.3095 49.0247 61.3075 49.0188 61.2273 49.0249C61.1797 49.0285 61.1292 49.0499 61.115 49.0726ZM67.7069 49.1515C67.7069 49.1832 67.6861 49.222 67.6607 49.2377C67.6321 49.2554 67.6254 49.2487 67.6431 49.2201C67.6588 49.1947 67.6526 49.1739 67.6293 49.1739C67.606 49.1739 67.5869 49.1559 67.5869 49.1339C67.5869 49.1119 67.6139 49.0939 67.6469 49.0939C67.6799 49.0939 67.7069 49.1198 67.7069 49.1515ZM67.8091 49.3271C67.804 49.3615 67.782 49.3955 67.7602 49.4028C67.7371 49.4105 67.7281 49.3637 67.7388 49.2909C67.7504 49.212 67.7685 49.184 67.7877 49.2152C67.8045 49.2424 67.8141 49.2927 67.8091 49.3271ZM67.362 49.4566C67.299 49.5196 67.2802 49.5246 67.2802 49.4783C67.2802 49.4453 67.2997 49.4218 67.3236 49.4261C67.3474 49.4304 67.3641 49.4005 67.3606 49.3596C67.356 49.3049 67.3661 49.2971 67.3991 49.3301C67.432 49.363 67.4223 49.3963 67.362 49.4566ZM60.7747 49.4432C60.7649 49.4601 60.7696 49.5089 60.7852 49.5518C60.8121 49.6258 60.8146 49.6253 60.8364 49.5418C60.8586 49.457 60.8109 49.3808 60.7747 49.4432ZM67.6269 49.4541C67.6731 49.4841 67.6622 49.4912 67.5798 49.485C67.5209 49.4806 67.4814 49.4627 67.4921 49.4454C67.5177 49.4041 67.5535 49.4064 67.6269 49.4541ZM64.1069 49.5342C64.1069 49.6209 64.1903 49.7339 64.2544 49.7339C64.3066 49.7339 64.3026 49.7195 64.2337 49.6598C64.1868 49.6191 64.1582 49.5759 64.1703 49.5638C64.1824 49.5518 64.173 49.53 64.1496 49.5155C64.1261 49.501 64.1069 49.5094 64.1069 49.5342ZM64.315 49.572C64.3431 49.617 64.3888 49.6539 64.4165 49.6539C64.4908 49.6539 64.4787 49.6308 64.3654 49.5566C64.2662 49.4916 64.265 49.492 64.315 49.572ZM67.8269 49.5872C67.8269 49.6239 67.8089 49.6539 67.7869 49.6539C67.7649 49.6539 67.7469 49.6719 67.7469 49.6939C67.7469 49.7159 67.7637 49.7339 67.7842 49.7339C67.8292 49.7339 67.8839 49.5776 67.8506 49.5442C67.8375 49.5312 67.8269 49.5506 67.8269 49.5872ZM67.4269 49.6206C67.4269 49.6389 67.3898 49.6539 67.3445 49.6539C67.2992 49.6539 67.2714 49.6389 67.2828 49.6206C67.2941 49.6022 67.3312 49.5872 67.3651 49.5872C67.3991 49.5872 67.4269 49.6022 67.4269 49.6206ZM64.5469 49.7528C64.5469 49.8326 64.6143 49.8645 64.6402 49.797C64.6521 49.7659 64.636 49.7306 64.6044 49.7185C64.5712 49.7057 64.5469 49.7202 64.5469 49.7528ZM49.1944 49.7587C49.2316 49.7697 49.2711 49.8092 49.2821 49.8464C49.2968 49.8953 49.3001 49.892 49.2941 49.8344C49.2894 49.7877 49.2531 49.7514 49.2064 49.7467C49.1488 49.7407 49.1455 49.744 49.1944 49.7587ZM67.3423 49.8225C67.2941 49.9126 67.2206 49.9167 67.255 49.8273C67.2735 49.779 67.266 49.7697 67.2275 49.7935C67.1966 49.8126 67.1842 49.8106 67.1978 49.7887C67.245 49.7122 67.3839 49.7447 67.3423 49.8225ZM64.8095 49.9781C64.8221 49.9985 64.8473 50.006 64.8655 49.9948C64.8951 49.9765 64.9644 50.083 64.9564 50.1344C64.9546 50.1457 64.9968 50.1755 65.0501 50.2007C65.1034 50.2258 65.1369 50.2301 65.1246 50.2102C65.0984 50.1678 65.1606 50.1609 65.2014 50.2017C65.2167 50.217 65.2872 50.233 65.358 50.2373C65.4289 50.2416 65.4643 50.2365 65.4367 50.2261C65.409 50.2156 65.3946 50.1939 65.4045 50.1777C65.4145 50.1616 65.3719 50.1558 65.3098 50.1649C65.215 50.1789 65.1882 50.1618 65.1422 50.0577C65.0861 49.9311 65.0487 49.9063 65.0095 49.9697C64.9973 49.9894 65.0143 50.0158 65.0471 50.0285C65.08 50.0411 65.1069 50.0799 65.1069 50.1147C65.1069 50.1602 65.0783 50.1471 65.005 50.068C64.9098 49.9653 64.7586 49.8957 64.8095 49.9781ZM59.7577 50.0288C59.7443 50.0504 59.7566 50.0526 59.7866 50.0341C59.8268 50.0092 59.832 50.028 59.8096 50.1173L59.7807 50.2326L59.8638 50.1269C59.9095 50.0688 59.9469 50.0117 59.9469 50.0001C59.9469 49.9641 59.7822 49.9891 59.7577 50.0288ZM66.9181 50.0229C66.8719 50.0813 66.8659 50.2139 66.9093 50.2139C66.9253 50.2139 66.9491 50.186 66.9622 50.1518C66.9758 50.1162 66.9691 50.1002 66.9464 50.1142C66.9247 50.1276 66.9069 50.1211 66.9069 50.0996C66.9069 50.0781 66.9294 50.0525 66.9569 50.0427C66.9844 50.0329 66.996 50.013 66.9826 49.9984C66.9692 49.9839 66.9402 49.9949 66.9181 50.0229ZM66.195 50.1218C66.1053 50.2332 65.8723 50.2181 65.8964 50.1025C65.9017 50.077 65.8796 50.0669 65.8464 50.0796C65.8137 50.0922 65.7869 50.1196 65.7869 50.1405C65.7869 50.1615 65.808 50.1656 65.8337 50.1497C65.8652 50.1303 65.8721 50.1426 65.855 50.1873C65.8335 50.2433 65.8579 50.2539 66.0082 50.2539C66.1122 50.2539 66.1869 50.2354 66.1869 50.2096C66.1869 50.1853 66.2148 50.1761 66.249 50.1892C66.2846 50.2028 66.3006 50.1961 66.2866 50.1734C66.2732 50.1517 66.2812 50.1339 66.3045 50.1339C66.3278 50.1339 66.3469 50.1609 66.3469 50.1939C66.3469 50.2269 66.3752 50.2539 66.4098 50.2539C66.4669 50.2539 66.4669 50.2482 66.4098 50.191C66.3752 50.1565 66.3469 50.1025 66.3469 50.071C66.3469 49.9838 66.291 50.0025 66.195 50.1218ZM65.6014 50.2017C65.6446 50.245 65.7469 50.251 65.7469 50.2104C65.7469 50.1903 65.7079 50.1739 65.6602 50.1739C65.6126 50.1739 65.5861 50.1864 65.6014 50.2017ZM35.5469 58.8739C35.5469 58.9069 35.5739 58.9339 35.6069 58.9339C35.6399 58.9339 35.6669 58.9069 35.6669 58.8739C35.6669 58.8409 35.6399 58.8139 35.6069 58.8139C35.5739 58.8139 35.5469 58.8409 35.5469 58.8739ZM75.4269 58.8739C75.4269 58.9069 75.4539 58.9339 75.4869 58.9339C75.5199 58.9339 75.5469 58.9069 75.5469 58.8739C75.5469 58.8409 75.5199 58.8139 75.4869 58.8139C75.4539 58.8139 75.4269 58.8409 75.4269 58.8739ZM40.4869 59.3628C40.5908 59.3884 40.6712 59.4545 40.6467 59.4942C40.6015 59.5674 40.9654 59.5742 45.2402 59.5797C47.7079 59.5829 51.5269 59.5973 53.7269 59.6117C55.9269 59.6262 57.4704 59.6416 57.1569 59.6459C56.4055 59.6564 56.3901 59.7308 57.1369 59.7427C57.6186 59.7504 57.5801 59.7543 56.8269 59.7739C56.3539 59.7862 56.1244 59.8003 56.3169 59.8051C56.5094 59.8099 56.6669 59.8226 56.6669 59.8332C56.6669 59.8439 56.1629 60.3556 55.5469 60.9704C54.9309 61.5852 54.4269 62.1165 54.4269 62.151C54.4269 62.2078 54.8188 62.2139 58.4469 62.2139C62.3195 62.2139 62.4669 62.2112 62.4669 62.1405C62.4669 62.1001 62.5164 62.0216 62.5769 61.966C62.6374 61.9103 62.7158 61.8308 62.7512 61.7893C62.7865 61.7479 62.8495 61.6833 62.8912 61.6459C62.9328 61.6085 62.9891 61.5545 63.0161 61.5259C63.1166 61.4198 63.4887 61.0469 63.5398 61.0012C63.6071 60.941 63.7133 60.8348 63.7743 60.7668C63.8004 60.7377 63.9759 60.5627 64.1643 60.378C64.3527 60.1932 64.5069 60.0298 64.5069 60.0148C64.5069 59.9997 64.5519 59.9633 64.6069 59.9339C64.7921 59.8348 64.7301 59.7744 64.4369 59.7685C64.2776 59.7652 64.2079 59.7529 64.2669 59.7385C64.3219 59.7249 64.1059 59.7041 63.7869 59.6922C63.2542 59.6723 63.2933 59.6691 64.2669 59.6526C64.8807 59.6422 63.921 59.6259 61.9869 59.6139C58.9297 59.595 59.1431 59.5922 64.5069 59.5807C67.7299 59.5739 70.4029 59.5528 70.4469 59.5339C70.4909 59.515 70.5037 59.4983 70.4753 59.4967C70.4332 59.4944 70.4332 59.4836 70.4753 59.4381C70.5037 59.4074 70.5368 59.3882 70.5488 59.3955C70.5609 59.4027 70.5969 59.3921 70.6288 59.3719C70.6751 59.3426 70.6702 59.335 70.6045 59.3345C70.5593 59.3342 70.4873 59.3603 70.4445 59.3926C70.3268 59.4817 40.767 59.4817 40.6493 59.3926C40.6065 59.3603 40.5345 59.336 40.4893 59.3385C40.4089 59.3431 40.4088 59.3436 40.4869 59.3628ZM75.3901 59.3816C75.3883 59.4189 75.3469 59.4774 75.298 59.5116C75.2267 59.5616 75.2224 59.5739 75.2766 59.5739C75.3528 59.5739 75.4422 59.4344 75.4127 59.3617C75.4018 59.3349 75.3918 59.3437 75.3901 59.3816ZM75.0963 59.8778C75.0832 59.891 75.0833 59.9301 75.0966 59.9648C75.1144 60.011 75.1033 60.0211 75.0551 60.0026C75.019 59.9887 74.9804 59.9921 74.9692 60.0101C74.9581 60.0281 74.989 60.0409 75.0379 60.0384C75.1007 60.0352 75.1282 60.0074 75.1314 59.9439C75.1363 59.8472 75.1331 59.8411 75.0963 59.8778ZM36.5069 60.6263C36.5069 60.6619 36.5443 60.7111 36.5901 60.7356C36.6358 60.7601 36.6911 60.8314 36.713 60.8941C36.7374 60.9642 36.7966 61.0234 36.8667 61.0478C36.9294 61.0697 37.0007 61.125 37.0252 61.1707C37.0497 61.2165 37.0989 61.2539 37.1345 61.2539C37.2258 61.2539 37.113 61.1313 36.9318 61.0338C36.8586 60.9943 36.7665 60.9022 36.727 60.829C36.6295 60.6478 36.5069 60.535 36.5069 60.6263ZM74.4348 60.7347C74.3655 60.8333 74.2949 60.9278 74.2779 60.9449C74.2608 60.9619 74.1663 61.0325 74.0677 61.1018C73.9575 61.1793 73.9092 61.2347 73.9423 61.2457C73.9719 61.2556 74.0346 61.218 74.0815 61.1622C74.1285 61.1064 74.2065 61.0493 74.2549 61.0353C74.3032 61.0213 74.3543 60.9702 74.3683 60.9219C74.3823 60.8735 74.4394 60.7955 74.4952 60.7485C74.551 60.7016 74.5886 60.6389 74.5787 60.6093C74.5677 60.5762 74.5123 60.6245 74.4348 60.7347ZM73.3363 61.6378C73.3232 61.651 73.3233 61.6901 73.3366 61.7248C73.3544 61.771 73.3433 61.7811 73.2951 61.7626C73.259 61.7487 73.2204 61.7521 73.2092 61.7701C73.1981 61.7881 73.229 61.8009 73.2779 61.7984C73.3407 61.7952 73.3682 61.7674 73.3714 61.7039C73.3763 61.6072 73.3731 61.6011 73.3363 61.6378ZM72.8723 61.8839C72.8694 61.9334 72.8478 61.9739 72.8245 61.9739C72.8012 61.9739 72.7943 61.9935 72.8091 62.0174C72.8527 62.0881 72.9158 61.9943 72.8957 61.8885C72.8781 61.7955 72.8777 61.7955 72.8723 61.8839ZM38.8525 62.0817C38.8047 62.1295 38.8267 62.2139 38.8869 62.2139C38.9199 62.2139 38.9469 62.188 38.9469 62.1563C38.9469 62.0894 38.8898 62.0443 38.8525 62.0817ZM72.1469 62.1539C72.1469 62.1869 72.1739 62.2139 72.2069 62.2139C72.2399 62.2139 72.2669 62.1869 72.2669 62.1539C72.2669 62.1209 72.2399 62.0939 72.2069 62.0939C72.1739 62.0939 72.1469 62.1209 72.1469 62.1539Z" fill="#3461FF"/>
<path fill-rule="evenodd" clip-rule="evenodd" d="M74.1721 23.489C74.1594 23.5096 74.1742 23.5473 74.205 23.5729C74.2381 23.6004 74.2704 23.6041 74.2841 23.582C74.2968 23.5614 74.282 23.5237 74.2512 23.4981C74.2181 23.4706 74.1858 23.4669 74.1721 23.489ZM70.4281 24.8857C70.4281 24.9077 70.4551 24.9481 70.4881 24.9755C70.5216 25.0033 70.5481 25.0076 70.5481 24.9853C70.5481 24.9633 70.5211 24.9229 70.4881 24.8955C70.4546 24.8677 70.4281 24.8634 70.4281 24.8857ZM70.5881 24.973C70.5881 25.0249 70.6136 25.0486 70.6653 25.0447C70.7078 25.0415 70.7336 25.0243 70.7226 25.0065C70.7116 24.9888 70.6828 24.9864 70.6585 25.0014C70.6302 25.0189 70.6236 25.0049 70.64 24.9621C70.6541 24.9255 70.6482 24.8955 70.6268 24.8955C70.6055 24.8955 70.5881 24.9304 70.5881 24.973ZM57.6586 36.9238C57.7083 36.9334 57.7803 36.933 57.8186 36.923C57.8568 36.913 57.8161 36.9051 57.7281 36.9056C57.6401 36.906 57.6088 36.9142 57.6586 36.9238ZM53.0781 39.9631C53.1166 39.9731 53.1796 39.9731 53.2181 39.9631C53.2566 39.953 53.2251 39.9448 53.1481 39.9448C53.0711 39.9448 53.0396 39.953 53.0781 39.9631ZM55.4063 42.7495C55.3152 42.8497 55.3027 42.9101 55.3904 42.8266C55.4417 42.7777 55.4757 42.73 55.4659 42.7206C55.4561 42.7113 55.4293 42.7243 55.4063 42.7495ZM72.9172 51.1755C72.9075 56.7378 72.8992 57.2905 72.8268 57.1735C72.7517 57.0519 72.675 57.4099 72.67 57.9055C72.6684 58.067 72.6563 58.0955 72.5895 58.0955C72.4895 58.0955 72.4347 58.1982 72.4223 58.4091C72.4133 58.5612 72.4031 58.5755 72.3035 58.5755C72.2154 58.5755 72.1895 58.5981 72.1687 58.6929C72.1493 58.7811 72.1137 58.8167 72.0255 58.8361C71.9307 58.8569 71.9081 58.8828 71.9081 58.9709C71.9081 59.0705 71.8938 59.0807 71.7417 59.0897C71.5308 59.1021 71.4281 59.1569 71.4281 59.2569C71.4281 59.3244 71.3985 59.3362 71.2181 59.3406C71.0008 59.3458 70.8771 59.3558 70.8081 59.3739C70.7861 59.3796 70.732 59.3817 70.6879 59.3783C70.6438 59.375 70.5718 59.3995 70.5279 59.4326C70.4669 59.4787 70.4623 59.4939 70.5081 59.497C70.549 59.4998 70.5426 59.5121 70.4881 59.5355C70.4441 59.5544 67.7621 59.5755 64.5281 59.5823C59.1589 59.5937 58.9383 59.5966 61.9881 59.6155C63.9222 59.6275 64.8819 59.6438 64.2681 59.6542C63.2945 59.6707 63.2554 59.6739 63.7881 59.6938C64.1071 59.7057 64.3231 59.7265 64.2681 59.7401C64.2091 59.7545 64.2788 59.7668 64.4381 59.7701C64.7313 59.776 64.7933 59.8364 64.6081 59.9355C64.5531 59.9649 64.5081 60.0013 64.5081 60.0164C64.5081 60.0314 64.3539 60.1948 64.1655 60.3796C63.9771 60.5643 63.8016 60.7393 63.7755 60.7684C63.7273 60.8221 63.6175 60.9323 63.5341 61.0107C63.4407 61.0985 63.0612 61.4772 63.0154 61.5283C62.9894 61.5574 62.934 61.6114 62.8924 61.6483C62.8507 61.6853 62.7877 61.7495 62.7524 61.7909C62.717 61.8324 62.6386 61.9119 62.5781 61.9676C62.2882 62.2341 61.9325 62.2155 67.3081 62.2155C71.3546 62.2155 72.1481 62.2066 72.1481 62.1613C72.1481 62.1225 72.2334 62.1006 72.4479 62.0844C72.7478 62.0617 72.8814 61.9977 72.8588 61.8876C72.852 61.8543 72.8985 61.8313 72.9881 61.824C73.0651 61.8176 73.1551 61.8012 73.1881 61.7874C73.2211 61.7737 73.2616 61.7609 73.2781 61.759C73.2946 61.7571 73.3096 61.7375 73.3115 61.7155C73.3181 61.6374 73.3993 61.5755 73.4951 61.5755C73.5667 61.5755 73.6031 61.5445 73.6333 61.4579C73.6628 61.3732 73.7043 61.3367 73.7812 61.3279C73.8643 61.3183 73.8909 61.291 73.9008 61.2055C73.9105 61.1208 73.9347 61.0955 74.0061 61.0955C74.1288 61.0955 74.4281 60.7962 74.4281 60.6735C74.4281 60.6021 74.4534 60.5779 74.5381 60.5682C74.6236 60.5583 74.6509 60.5317 74.6605 60.4486C74.6693 60.3717 74.7058 60.3302 74.7905 60.3007C74.8771 60.2705 74.9081 60.2341 74.9081 60.1625C74.9081 60.072 75.0104 59.9429 75.0642 59.9655C75.0774 59.971 75.0881 59.959 75.0881 59.9388C75.0881 59.9187 75.1016 59.8887 75.1181 59.8722C75.1346 59.8557 75.1481 59.7831 75.1481 59.711C75.1481 59.6075 75.1712 59.5688 75.2578 59.5273C75.3795 59.469 75.4159 59.3588 75.4234 59.0255C75.4269 58.8676 75.443 58.8155 75.4881 58.8155C75.5411 58.8155 75.5481 58.2511 75.5481 53.9755C75.5481 48.5999 75.5667 48.9556 75.3002 49.2455C75.2445 49.306 75.165 49.3844 75.1235 49.4198C75.0821 49.4551 75.0179 49.5181 74.9809 49.5598C74.944 49.6014 74.89 49.6568 74.8609 49.6828C74.8099 49.7285 74.4376 50.1016 74.3373 50.2075C74.2488 50.301 74.1548 50.3946 74.101 50.4429C74.0719 50.469 73.8969 50.6445 73.7122 50.8329C73.5274 51.0213 73.364 51.1755 73.349 51.1755C73.3339 51.1755 73.2975 51.2205 73.2681 51.2755C73.169 51.4607 73.1086 51.3987 73.1027 51.1055C73.0994 50.9462 73.0871 50.8765 73.0727 50.9355C73.0591 50.9905 73.0383 50.7745 73.0264 50.4555C73.0065 49.9228 73.0033 49.9619 72.9868 50.9355C72.9764 51.5493 72.9601 50.5896 72.9481 48.6555C72.9296 45.665 72.9263 45.9287 72.9172 51.1755ZM65.8781 46.0042C65.9386 46.0133 66.0376 46.0133 66.0981 46.0042C66.1586 45.995 66.1091 45.9875 65.9881 45.9875C65.8671 45.9875 65.8176 45.995 65.8781 46.0042ZM64.3781 46.5009C64.1644 46.7159 64.1552 46.7355 64.2681 46.7355C64.3185 46.7355 64.3481 46.7088 64.3481 46.6635C64.3481 46.573 64.4235 46.4955 64.5114 46.4955C64.5768 46.4955 64.6472 46.3487 64.5943 46.3226C64.5799 46.3155 64.4826 46.3957 64.3781 46.5009ZM67.9347 47.0536C67.9823 47.0738 68.0413 47.123 68.0658 47.1629C68.1053 47.2274 68.109 47.2243 68.0992 47.1355C68.0904 47.0561 68.0634 47.0336 67.9681 47.0261C67.8621 47.0179 67.8582 47.0211 67.9347 47.0536ZM61.6741 47.8935C61.6829 47.9199 61.7031 47.9402 61.7191 47.9385C61.7669 47.9336 61.7577 47.8787 61.7061 47.8615C61.6797 47.8527 61.6653 47.8671 61.6741 47.8935ZM61.5081 48.6131C61.5081 48.6415 61.4821 48.6541 61.4494 48.6415C61.3847 48.6167 61.326 48.6771 61.3816 48.7115C61.4292 48.7409 61.5753 48.6294 61.538 48.5921C61.5216 48.5756 61.5081 48.5851 61.5081 48.6131ZM61.0865 49.0182C61.0441 49.0868 61.082 49.0935 61.1658 49.0322C61.2307 48.9848 61.2327 48.9755 61.1781 48.9755C61.1422 48.9755 61.101 48.9947 61.0865 49.0182ZM48.5338 49.1218C48.5457 49.1693 48.5924 49.2178 48.6376 49.2296C48.7039 49.2469 48.7093 49.2418 48.6657 49.2033C48.636 49.177 48.5893 49.1285 48.5619 49.0955C48.5196 49.0445 48.5154 49.0485 48.5338 49.1218ZM64.1347 49.4488C64.1421 49.4781 64.1481 49.5096 64.1481 49.5188C64.1481 49.528 64.1631 49.5355 64.1814 49.5355C64.1998 49.5355 64.2148 49.5093 64.2148 49.4773C64.2148 49.4452 64.2013 49.4273 64.1848 49.4375C64.1684 49.4477 64.1473 49.4424 64.1381 49.4257C64.1288 49.4091 64.1273 49.4195 64.1347 49.4488ZM67.793 49.4825C67.7696 49.5226 67.75 49.542 67.7493 49.5255C67.7486 49.509 67.711 49.5326 67.6656 49.578C67.6202 49.6234 67.5887 49.6752 67.5956 49.6931C67.6205 49.7581 67.7902 49.6551 67.8298 49.551C67.8779 49.4244 67.8534 49.3787 67.793 49.4825ZM60.6454 49.5855C60.63 49.635 60.5972 49.6887 60.5727 49.7049C60.5402 49.7263 60.5404 49.7344 60.5737 49.7349C60.653 49.736 60.8023 49.5908 60.7721 49.542C60.7273 49.4695 60.6761 49.487 60.6454 49.5855ZM67.3888 49.8747C67.3444 49.922 67.3081 49.9735 67.3081 49.9891C67.3081 50.0355 67.5365 49.9033 67.5594 49.8436C67.5921 49.7584 67.4786 49.7791 67.3888 49.8747ZM64.8802 50.0855C64.8785 50.1846 64.9407 50.2511 65.0291 50.2444C65.1196 50.2376 65.0911 50.1967 64.9953 50.196C64.9583 50.1957 64.9279 50.1653 64.9276 50.1283C64.9269 50.0377 64.8818 49.9969 64.8802 50.0855ZM67.0727 50.0439C67.0702 50.0706 67.0287 50.1291 66.9806 50.1739C66.9312 50.2199 66.915 50.2555 66.9434 50.2555C67.0242 50.2555 67.1155 50.1415 67.0957 50.0654C67.0856 50.027 67.0753 50.0173 67.0727 50.0439ZM36.8121 60.849C36.7994 60.8696 36.8142 60.9073 36.845 60.9329C36.8781 60.9604 36.9104 60.9641 36.9241 60.942C36.9368 60.9214 36.922 60.8837 36.8912 60.8581C36.8581 60.8306 36.8258 60.8269 36.8121 60.849Z" fill="#3461FF"/>
<path fill-rule="evenodd" clip-rule="evenodd" d="M72.0669 22.2684C72.0669 22.2991 72.0919 22.3337 72.1224 22.3454C72.1613 22.3604 72.1718 22.3437 72.1577 22.2897C72.1345 22.2011 72.0669 22.1853 72.0669 22.2684ZM74.1069 23.3976C74.1069 23.4211 74.1425 23.4725 74.186 23.5118C74.2294 23.5512 74.2577 23.5952 74.2487 23.6097C74.2398 23.6242 74.2699 23.6389 74.3157 23.6424L74.3989 23.6486L74.3142 23.5893C74.2677 23.5567 74.202 23.4906 74.1682 23.4425C74.1345 23.3943 74.1069 23.3741 74.1069 23.3976ZM74.945 24.475C74.9023 24.5264 74.9032 24.5351 74.9501 24.525C74.982 24.5181 75.0015 24.5376 74.9946 24.5695C74.9845 24.6164 74.9932 24.6173 75.0446 24.5746C75.1199 24.5121 75.1238 24.4893 75.0569 24.5027C75.0294 24.5082 75.0114 24.4902 75.0169 24.4627C75.0303 24.3958 75.0075 24.3997 74.945 24.475ZM75.164 25.0121C75.164 25.079 75.2776 25.0953 75.3361 25.0368C75.353 25.0199 75.3399 25.012 75.3069 25.0194C75.2739 25.0267 75.2504 25.0132 75.2547 24.9894C75.259 24.9655 75.2403 24.946 75.2132 24.946C75.1862 24.946 75.164 24.9757 75.164 25.0121ZM72.7698 26.8885C72.6974 26.9169 72.697 26.9204 72.7644 26.9462C72.8106 26.9639 72.8289 27.0008 72.816 27.0502C72.8016 27.105 72.8124 27.1204 72.8537 27.1045C72.889 27.091 72.901 27.0572 72.8844 27.0175C72.8695 26.9819 72.8565 26.9302 72.8555 26.9027C72.8544 26.8752 72.8521 26.854 72.8502 26.8555C72.8484 26.8571 72.8122 26.8719 72.7698 26.8885ZM72.922 31.9727C72.92 34.4037 72.9303 38.1927 72.9447 40.3927C72.9592 42.5927 72.9746 44.1362 72.9789 43.8227C72.9894 43.0713 73.0638 43.0559 73.0757 43.8027C73.0834 44.2844 73.0873 44.2459 73.1069 43.4927C73.1192 43.0197 73.1333 42.7902 73.1381 42.9827C73.1429 43.1752 73.1556 43.3327 73.1662 43.3327C73.1769 43.3327 73.6886 42.8287 74.3034 42.2127C74.9182 41.5967 75.4495 41.0927 75.484 41.0927C75.5409 41.0927 75.5469 40.4937 75.5469 34.7927C75.5469 29.3458 75.5391 28.4927 75.4895 28.4927C75.4579 28.4927 74.9185 29.0075 74.2908 29.6368L73.1495 30.7809L73.1368 30.3068C73.1284 29.993 73.1212 30.1088 73.1155 30.6494C73.1017 31.9571 73.0552 31.5439 73.0269 29.8624L73.0008 28.3127L72.9845 29.5327L72.9683 30.7527L72.9469 29.1527C72.9346 28.2313 72.924 29.4273 72.922 31.9727ZM60.6304 34.5485C60.5927 34.5939 60.5936 34.6046 60.6347 34.5986C60.6899 34.5905 60.7256 34.538 60.6959 34.5084C60.6862 34.4987 60.6567 34.5168 60.6304 34.5485ZM54.8913 39.5655C54.8784 39.5865 54.8931 39.6247 54.9241 39.6504C54.9686 39.6873 54.9786 39.6843 54.9715 39.6361C54.9594 39.5535 54.9201 39.5189 54.8913 39.5655ZM61.6674 41.5127C61.6506 42.9962 61.6477 43.0486 61.6281 42.2327C61.6038 41.2229 61.5622 41.2336 61.5295 42.258C61.5031 43.0876 61.3906 43.5317 61.384 42.8327C61.3821 42.6347 61.3701 42.4997 61.3572 42.5327C61.3443 42.5657 60.7765 43.1507 60.0955 43.8327C59.4144 44.5147 58.8425 45.1087 58.8246 45.1527C58.8049 45.2009 58.7879 45.0101 58.7817 44.6727L58.7715 44.1127L58.7492 44.6395C58.7298 45.097 58.6691 45.4387 58.6657 45.1094C58.6647 45.0116 58.6579 45.0039 58.6241 45.062C58.5994 45.1043 58.5882 45.4491 58.5953 45.9482C58.6017 46.3975 58.5934 46.7568 58.5769 46.7466C58.5604 46.7363 58.5448 46.2295 58.5422 45.6203C58.5396 45.0111 58.5237 44.4587 58.5069 44.3927C58.4901 44.3267 58.4742 44.8388 58.4716 45.5307C58.4685 46.3614 58.4534 46.7752 58.4273 46.7491C58.4025 46.7243 58.3835 45.9688 58.3766 44.7311L58.3656 42.7527L58.3528 44.8727C58.3458 46.0387 58.3395 47.0512 58.3388 47.1227C58.3377 47.2331 58.3229 47.2527 58.2409 47.2527C58.1878 47.2527 58.134 47.2797 58.1214 47.3127C58.1087 47.3457 58.0801 47.3727 58.0577 47.3727C58.0343 47.3727 58.0382 47.3473 58.0669 47.3127C58.1084 47.2627 58.103 47.2527 58.0342 47.2527C57.9888 47.2527 57.9414 47.2692 57.929 47.2893C57.9165 47.3095 57.5878 47.3282 57.1984 47.3309C56.809 47.3336 56.4813 47.3449 56.4702 47.3561C56.459 47.3673 56.767 47.3711 57.1546 47.3646C57.5423 47.358 57.851 47.3662 57.8408 47.3827C57.8306 47.3992 57.5217 47.4145 57.1545 47.4167C56.7873 47.4189 56.4419 47.4343 56.3869 47.4509L56.2869 47.4812L56.3869 47.5065C56.4419 47.5204 56.5769 47.5378 56.6869 47.545L56.8869 47.5583L56.6569 47.5655C56.5304 47.5695 56.4269 47.5907 56.4269 47.6127C56.4269 47.6347 56.3774 47.654 56.3169 47.6555C56.1763 47.6591 56.0032 47.7255 56.1228 47.7299C56.1742 47.7318 55.8229 48.1074 55.0371 48.8908C54.3981 49.5277 53.8959 50.0573 53.9211 50.0676C53.9463 50.0779 53.5709 50.0913 53.0869 50.0973L52.2069 50.1083L53.0669 50.1341C53.5399 50.1482 53.9359 50.1664 53.9469 50.1744C53.9579 50.1824 53.7419 50.1997 53.4669 50.2129C53.1919 50.2261 54.4474 50.2401 56.2569 50.2439C58.8337 50.2494 59.547 50.2403 59.5475 50.2018C59.5479 50.1703 59.562 50.1742 59.5869 50.2127C59.6206 50.2648 59.6258 50.264 59.6263 50.207C59.627 50.1268 59.7334 50.0786 59.7633 50.1449C59.7752 50.1712 59.7808 50.1477 59.7759 50.0927C59.7682 50.0071 59.7842 49.9921 59.8869 49.9882C60.131 49.9792 60.152 49.9734 60.1234 49.9227C60.1008 49.8827 60.1059 49.8827 60.149 49.9227C60.2089 49.9783 60.2692 49.9889 60.2626 49.9427C60.2506 49.86 60.323 49.7303 60.3709 49.7487C60.4003 49.76 60.4352 49.7517 60.4484 49.7303C60.4616 49.7089 60.4892 49.7018 60.5097 49.7144C60.5301 49.7271 60.5469 49.7193 60.5469 49.6971C60.5469 49.6215 60.7415 49.4446 60.791 49.4753C60.8176 49.4916 60.8296 49.4888 60.8178 49.4689C60.778 49.4019 60.8632 49.2527 60.9413 49.2527C61.0207 49.2527 61.0669 49.1798 61.0669 49.0544C61.0669 49.0055 61.1083 48.9744 61.1969 48.9565C61.299 48.9359 61.314 48.9221 61.2669 48.8921C61.227 48.8667 61.2237 48.8537 61.2569 48.8533C61.2844 48.853 61.3069 48.8113 61.3069 48.7607C61.3069 48.7101 61.3294 48.6445 61.3569 48.6148C61.3971 48.5715 61.3965 48.5668 61.3539 48.591C61.3101 48.6159 61.31 48.6066 61.3536 48.5369C61.4203 48.4301 61.4803 48.4274 61.4469 48.5327C61.4309 48.5832 61.4397 48.6127 61.4709 48.6127C61.498 48.6127 61.5084 48.6009 61.4939 48.5864C61.4794 48.5719 61.4826 48.5404 61.501 48.5164C61.5624 48.4362 61.5894 48.3264 61.5403 48.3568C61.5092 48.376 61.5057 48.3671 61.5293 48.3289C61.5484 48.298 61.5701 48.1925 61.5774 48.0944C61.5848 47.9963 61.6087 47.8946 61.6306 47.8683C61.6576 47.8357 61.6538 47.8139 61.6186 47.7997C61.5831 47.7855 61.5818 47.778 61.6145 47.7759C61.6407 47.7741 61.6733 47.7907 61.6869 47.8127C61.7005 47.8347 61.7331 47.8524 61.7593 47.8521C61.7879 47.8517 61.783 47.836 61.7469 47.8127C61.7069 47.7869 61.7036 47.7737 61.7369 47.7733C61.7644 47.773 61.7869 47.7528 61.7869 47.7284C61.7869 47.7041 61.7605 47.6943 61.7282 47.7067C61.6959 47.7191 61.6585 47.7115 61.6452 47.69C61.6319 47.6684 61.6358 47.6533 61.6539 47.6564C61.7945 47.6809 61.8128 47.6516 61.7999 47.4227C61.7928 47.2962 61.7782 47.1693 61.7674 47.1406C61.7566 47.112 61.7656 47.0995 61.7874 47.113C61.8133 47.129 61.8243 46.1495 61.8194 44.2651C61.8142 42.2992 61.8034 41.6704 61.7851 42.2727C61.7705 42.7567 61.7517 43.1617 61.7434 43.1727C61.735 43.1837 61.7186 42.4547 61.7069 41.5527L61.6856 39.9127L61.6674 41.5127ZM57.9978 42.2821C57.986 42.3129 57.9962 42.358 58.0207 42.3825C58.0532 42.415 58.0607 42.4041 58.0487 42.3421C58.037 42.2812 58.0485 42.2635 58.0896 42.2793C58.1211 42.2914 58.1469 42.2843 58.1469 42.2636C58.1469 42.2044 58.0217 42.2198 57.9978 42.2821ZM56.6865 42.4934C56.6727 42.5157 56.6446 42.5236 56.6241 42.511C56.6037 42.4983 56.5869 42.5145 56.5869 42.547C56.5869 42.5795 56.5644 42.6151 56.5369 42.6262C56.5041 42.6394 56.5086 42.6475 56.5499 42.6495C56.5846 42.6513 56.6552 42.6077 56.7069 42.5527C56.7586 42.4977 56.7808 42.4527 56.7562 42.4527C56.7317 42.4527 56.7003 42.471 56.6865 42.4934ZM65.1769 46.0054C65.1164 46.0123 65.0669 46.0359 65.0669 46.0577C65.0669 46.0796 65.0508 46.0875 65.0311 46.0753C65.0114 46.0631 64.9846 46.081 64.9715 46.115C64.9554 46.157 64.9637 46.1673 64.9974 46.1471C65.0314 46.1267 65.03 46.1382 64.9931 46.1837C64.9635 46.2203 64.9275 46.2473 64.9131 46.2438C64.8016 46.2168 64.6242 46.3077 64.635 46.3863C64.6438 46.45 64.6232 46.4761 64.5569 46.4855C64.5074 46.4925 64.4669 46.5161 64.4669 46.5378C64.4669 46.5596 64.4501 46.5671 64.4297 46.5544C64.4092 46.5418 64.3811 46.5497 64.3673 46.572C64.3535 46.5944 64.3611 46.6127 64.3843 46.6127C64.4074 46.6127 64.3868 46.6582 64.3384 46.7138C64.2901 46.7695 64.2287 46.8066 64.202 46.7964C64.1343 46.7704 64.1032 46.8722 64.16 46.9337C64.1956 46.9722 64.1956 46.9781 64.1602 46.9582C64.1308 46.9417 64.1034 46.9775 64.0864 47.0547C64.0698 47.1305 64.0246 47.1908 63.9682 47.2122C63.8711 47.2491 63.814 48.8127 63.9099 48.8127C63.9302 48.8127 63.9469 48.8318 63.9469 48.8551C63.9469 48.8784 63.9334 48.8891 63.9169 48.8789C63.9004 48.8687 63.8869 48.9019 63.8869 48.9527C63.8869 49.0035 63.8988 49.0377 63.9134 49.0287C63.928 49.0196 63.9634 49.0651 63.9919 49.1296C64.0205 49.1941 64.0581 49.2382 64.0754 49.2275C64.0927 49.2167 64.1069 49.2281 64.1069 49.2527C64.1069 49.2778 64.1288 49.2843 64.1569 49.2674C64.1944 49.2449 64.1939 49.2534 64.155 49.3015C64.0994 49.37 64.1529 49.4385 64.2264 49.393C64.2492 49.3789 64.2558 49.3951 64.242 49.4311C64.2146 49.5024 64.2978 49.6231 64.3514 49.5899C64.3992 49.5604 64.4848 49.616 64.4404 49.6477C64.4211 49.6615 64.4449 49.7146 64.4932 49.7658C64.5771 49.8548 64.5801 49.8552 64.5592 49.7752C64.5427 49.7122 64.5522 49.6972 64.5977 49.7147C64.6341 49.7287 64.65 49.7685 64.6378 49.8153C64.6267 49.8579 64.6377 49.8927 64.6622 49.8927C64.6868 49.8927 64.7069 49.9233 64.7069 49.9607C64.7069 50.0128 64.7179 50.0177 64.7539 49.9817C64.79 49.9456 64.8152 49.9461 64.8616 49.9837C64.9115 50.024 64.9165 50.0221 64.8898 49.9727C64.872 49.9397 64.9315 49.9937 65.0221 50.0927C65.1127 50.1917 65.1868 50.2522 65.1868 50.2272C65.1869 50.2022 65.2405 50.1739 65.3059 50.1643C65.3876 50.1523 65.4138 50.1603 65.3895 50.1898C65.3656 50.2188 65.3976 50.2336 65.4885 50.2356C65.5624 50.2372 65.6137 50.2237 65.6025 50.2056C65.5913 50.1875 65.6177 50.1727 65.6612 50.1727C65.7047 50.1727 65.7473 50.1939 65.7559 50.2198C65.7737 50.273 65.8669 50.2295 65.8669 50.168C65.8669 50.146 65.8489 50.1391 65.8269 50.1527C65.8049 50.1663 65.7869 50.1603 65.7869 50.1393C65.7869 50.1184 65.8137 50.091 65.8464 50.0784C65.8796 50.0657 65.9017 50.0758 65.8964 50.1013C65.8724 50.2164 66.1021 50.2308 66.1972 50.1201C66.3104 49.9884 66.3317 49.9868 66.3621 50.1079C66.3905 50.221 66.5307 50.2725 66.5653 50.1826C66.5782 50.1488 66.5794 50.1118 66.5678 50.1003C66.5563 50.0888 66.5469 50.1004 66.5469 50.126C66.5469 50.1517 66.5289 50.1727 66.5069 50.1727C66.4849 50.1727 66.4669 50.1446 66.4669 50.1103C66.4669 50.076 66.452 50.0572 66.4337 50.0685C66.4155 50.0798 66.4035 50.0493 66.407 50.0008C66.4106 49.9524 66.433 49.9127 66.4569 49.9127C66.4807 49.9127 66.5137 49.8992 66.5302 49.8827C66.5467 49.8662 66.5943 49.8527 66.6359 49.8527C66.6835 49.8527 66.7009 49.8353 66.6827 49.8059C66.6631 49.7742 66.6758 49.7676 66.7224 49.7854C66.7602 49.7999 66.7813 49.796 66.7694 49.7768C66.7491 49.7439 66.8517 49.6327 66.9023 49.6327C66.915 49.6327 66.9257 49.6147 66.9261 49.5927C66.9266 49.5707 66.9852 49.497 67.0564 49.4289C67.1276 49.3607 67.1741 49.2932 67.1597 49.2789C67.1107 49.2298 67.2107 49.2525 67.2648 49.3027C67.3086 49.3434 67.3144 49.3404 67.2955 49.2865C67.2678 49.2074 67.4047 49.0644 67.4453 49.1301C67.4856 49.1953 67.5585 49.1807 67.5324 49.1127C67.5198 49.0797 67.5313 49.0524 67.5582 49.0521C67.594 49.0516 67.5932 49.0428 67.555 49.0186C67.4908 48.9779 67.586 48.8831 67.6727 48.9013C67.7506 48.9177 67.7901 48.986 67.7397 49.0172C67.716 49.0318 67.7096 49.0646 67.7253 49.0902C67.747 49.1251 67.7684 49.1246 67.8125 49.0881C67.8593 49.0492 67.8845 49.054 67.9389 49.1118C67.9763 49.1515 67.9844 49.1714 67.9569 49.156C67.9294 49.1406 67.9069 49.147 67.9069 49.1703C67.9069 49.2353 67.9864 49.2206 68.0132 49.1508C68.0282 49.1115 67.9885 49.0456 67.9047 48.9708C67.7778 48.8574 67.7345 48.8369 67.6469 48.8485C67.6249 48.8515 67.6466 48.8198 67.6952 48.7782C67.7438 48.7367 67.7734 48.6926 67.7611 48.6803C67.7488 48.6679 67.7676 48.6167 67.8028 48.5664C67.8515 48.4969 67.8669 48.4907 67.8669 48.5403C67.8669 48.5762 67.8934 48.6017 67.9257 48.597C68.0015 48.5859 68.0556 48.5327 67.9912 48.5327C67.9642 48.5327 67.955 48.512 67.9706 48.4866C67.9904 48.4547 68.0157 48.4632 68.053 48.5143C68.1285 48.6176 68.1202 48.5752 68.0269 48.3821C67.9829 48.2911 67.9469 48.1626 67.9469 48.0966C67.9469 48.0274 67.9194 47.9613 67.8818 47.9402C67.8372 47.9153 67.8309 47.8949 67.8618 47.8759C67.8866 47.8605 67.9069 47.8654 67.9069 47.8866C67.9069 47.9078 67.939 47.9168 67.9782 47.9066C68.0398 47.8905 68.0473 47.9104 68.0337 48.0538C68.025 48.145 68.0377 48.2395 68.0619 48.2637C68.0992 48.301 68.1029 47.3807 68.0658 47.2927C68.0612 47.2817 68.06 47.2579 68.0632 47.2397C68.0663 47.2216 68.0525 47.2169 68.0324 47.2293C68.0124 47.2417 67.9746 47.2261 67.9485 47.1946C67.9224 47.1632 67.8709 47.1467 67.834 47.1581C67.786 47.1729 67.7891 47.1647 67.8448 47.1293C67.9029 47.0925 67.9266 47.0917 67.9381 47.1263C67.9466 47.1518 67.9804 47.1727 68.0131 47.1727C68.0656 47.1727 68.0655 47.1656 68.0126 47.1127C67.9796 47.0797 67.9282 47.0527 67.8983 47.0527C67.8469 47.0527 67.8383 47.0261 67.8162 46.7965C67.8111 46.7436 67.7892 46.7113 67.7676 46.7246C67.69 46.7726 67.583 46.7605 67.6039 46.7061C67.6152 46.6768 67.6075 46.6527 67.5869 46.6527C67.5663 46.6527 67.5597 46.6258 67.5723 46.5929C67.585 46.5601 67.6142 46.5448 67.6373 46.5591C67.6636 46.5754 67.6671 46.5655 67.6467 46.5324C67.6218 46.492 67.5955 46.5023 67.5343 46.5762L67.4545 46.6727L67.4785 46.5769C67.4964 46.5051 67.491 46.4926 67.4567 46.5269C67.3827 46.6009 67.3469 46.5801 67.3463 46.4627C67.3456 46.3426 67.2692 46.179 67.2669 46.2927C67.2659 46.3429 67.2599 46.3436 67.2303 46.2969C67.2109 46.2662 67.1706 46.2504 67.1407 46.2619C67.1109 46.2733 67.0634 46.2579 67.0351 46.2277C66.9933 46.1829 66.9933 46.1725 67.0353 46.1715C67.0657 46.1708 67.0578 46.1533 67.0161 46.129C66.9771 46.1063 66.9538 46.0739 66.9643 46.0569C66.9748 46.0399 66.958 46.026 66.9269 46.026C66.8958 46.026 66.8814 46.0438 66.8948 46.0655C66.9101 46.0903 66.8983 46.0919 66.8631 46.0699C66.8322 46.0505 66.7169 46.0298 66.6069 46.0239C66.2535 46.0048 65.2905 45.9923 65.1769 46.0054ZM63.9743 47.0776C63.9948 47.1311 63.9853 47.1406 63.9318 47.1201C63.8907 47.1043 63.8726 47.1096 63.8872 47.1332C63.9245 47.1935 64.0269 47.1802 64.0269 47.1151C64.0269 47.0834 64.0091 47.0464 63.9874 47.033C63.9638 47.0184 63.9585 47.0365 63.9743 47.0776ZM67.9632 48.3268C67.9852 48.3623 67.9605 48.3572 67.8918 48.3122C67.8127 48.2604 67.7882 48.2126 67.7922 48.1181L67.7974 47.9927L67.8269 48.1327L67.8564 48.2727L67.8666 48.1127L67.8769 47.9527L67.9033 48.1127C67.9178 48.2007 67.9448 48.2971 67.9632 48.3268ZM48.0542 48.1172C48.0783 48.1802 48.1315 48.1899 48.1641 48.1372C48.1761 48.1177 48.1515 48.0928 48.1094 48.0818C48.0558 48.0678 48.0393 48.0784 48.0542 48.1172ZM67.8225 48.438C67.7975 48.4681 67.7568 48.4924 67.732 48.4921C67.7054 48.4917 67.7092 48.4774 67.7412 48.4571C67.7796 48.4327 67.7823 48.4146 67.7505 48.3949C67.7258 48.3797 67.7165 48.3495 67.7298 48.328C67.745 48.3034 67.7752 48.3064 67.811 48.3361C67.8541 48.3719 67.8569 48.3966 67.8225 48.438ZM68.0125 48.7926C67.9768 48.8857 67.9792 48.8927 68.0469 48.8927C68.1142 48.8927 68.1218 48.8582 68.0719 48.7793C68.0449 48.7368 68.0329 48.7395 68.0125 48.7926ZM67.5869 49.1327C67.5869 49.1547 67.606 49.1727 67.6293 49.1727C67.6526 49.1727 67.6588 49.1935 67.6431 49.2189C67.6254 49.2475 67.6321 49.2542 67.6607 49.2365C67.7274 49.1953 67.7175 49.0927 67.6469 49.0927C67.6139 49.0927 67.5869 49.1107 67.5869 49.1327ZM67.7404 49.2812C67.728 49.3641 67.7395 49.4166 67.7728 49.4294C67.8376 49.4543 67.8832 49.3875 67.8256 49.3519C67.7965 49.3339 67.7994 49.3053 67.835 49.2615C67.8668 49.2222 67.8688 49.2082 67.8403 49.2253C67.8147 49.2406 67.786 49.2306 67.7766 49.2029C67.7672 49.1753 67.7509 49.2105 67.7404 49.2812ZM60.8669 49.3503C60.8669 49.382 60.8847 49.419 60.9064 49.4324C60.93 49.447 60.9353 49.4289 60.9195 49.3878C60.899 49.3343 60.9085 49.3248 60.962 49.3453C61.0031 49.3611 61.0212 49.3558 61.0066 49.3322C60.9693 49.2719 60.8669 49.2852 60.8669 49.3503ZM67.3606 49.3584C67.3641 49.3993 67.3474 49.4292 67.3236 49.4249C67.2997 49.4206 67.2802 49.4441 67.2802 49.4771C67.2802 49.5234 67.299 49.5184 67.362 49.4554C67.4223 49.3951 67.432 49.3618 67.3991 49.3289C67.3661 49.2959 67.356 49.3037 67.3606 49.3584ZM67.4921 49.4442C67.4814 49.4615 67.5209 49.4794 67.5798 49.4838C67.6622 49.49 67.6731 49.4829 67.6269 49.4529C67.5535 49.4052 67.5177 49.4029 67.4921 49.4442ZM67.2828 49.6194C67.2714 49.6377 67.2992 49.6527 67.3445 49.6527C67.3898 49.6527 67.4269 49.6377 67.4269 49.6194C67.4269 49.601 67.3991 49.586 67.3651 49.586C67.3312 49.586 67.2941 49.601 67.2828 49.6194ZM66.9736 49.7096C66.9576 49.7512 66.971 49.7624 67.0189 49.7474C67.0804 49.7282 67.0809 49.7312 67.0234 49.7794C66.9885 49.8087 66.9672 49.8543 66.9761 49.8807C66.985 49.9071 66.955 49.9519 66.9096 49.9803C66.8641 50.0087 66.8269 50.0619 66.8269 50.0986C66.8269 50.1455 66.8033 50.159 66.7469 50.1443C66.7004 50.1321 66.6669 50.1431 66.6669 50.1704C66.6669 50.1963 66.6845 50.2065 66.7061 50.1932C66.7276 50.1799 66.7804 50.1878 66.8234 50.2108C66.8937 50.2484 66.8996 50.2416 66.882 50.1427C66.8633 50.0374 66.8649 50.0361 66.9214 50.1126C66.99 50.2056 67.0326 50.1791 67.041 50.0383C67.0462 49.9507 67.0613 49.9412 67.1669 49.9591C67.2558 49.9742 67.2719 49.9689 67.2288 49.9387C67.1969 49.9163 67.1533 49.9087 67.132 49.9219C67.11 49.9355 67.104 49.9181 67.1181 49.8813C67.1366 49.833 67.1258 49.8232 67.0749 49.8422C67.0176 49.8637 67.0149 49.8578 67.0574 49.8055C67.0983 49.7551 67.0973 49.7346 67.0521 49.697C67.0089 49.6611 66.9911 49.664 66.9736 49.7096ZM49.3932 49.8175C49.342 49.8995 49.3982 49.9572 49.4561 49.8823C49.533 49.7829 49.5423 49.746 49.4906 49.746C49.4616 49.746 49.4177 49.7782 49.3932 49.8175ZM67.1978 49.7875C67.1842 49.8094 67.1966 49.8114 67.2275 49.7923C67.2654 49.7689 67.2736 49.7776 67.2562 49.8228C67.2139 49.9332 67.3345 49.9313 67.4326 49.8201L67.5269 49.7133L67.4301 49.793C67.3585 49.852 67.3391 49.8567 67.3556 49.8113C67.3803 49.7429 67.2385 49.7215 67.1978 49.7875ZM65.1223 50.0027C65.1358 50.0412 65.1574 50.0952 65.1703 50.1227C65.1831 50.1502 65.1741 50.1727 65.1502 50.1727C65.1264 50.1727 65.1069 50.1451 65.1069 50.1114C65.1069 50.0778 65.08 50.0399 65.0471 50.0273C65.0143 50.0146 64.9973 49.9882 65.0095 49.9685C65.0448 49.9114 65.0955 49.9268 65.1223 50.0027ZM49.9156 50.0936C49.8688 50.1686 49.871 50.1708 49.946 50.124C50.0266 50.0736 50.0543 50.0127 49.9965 50.0127C49.9798 50.0127 49.9434 50.0491 49.9156 50.0936ZM49.9672 50.1722C49.9527 50.1957 49.9706 50.2011 50.0114 50.1854C50.0527 50.1696 50.0702 50.1751 50.0552 50.1992C50.0416 50.2213 50.0563 50.2394 50.088 50.2394C50.1315 50.2394 50.1348 50.2263 50.1014 50.186C50.0488 50.1227 50.0008 50.1178 49.9672 50.1722ZM66.2866 50.1722C66.3006 50.1949 66.2846 50.2016 66.249 50.188C66.2148 50.1749 66.1869 50.1841 66.1869 50.2084C66.1869 50.2328 66.2229 50.2527 66.2669 50.2527C66.3113 50.2527 66.3469 50.226 66.3469 50.1927C66.3469 50.1597 66.3278 50.1327 66.3045 50.1327C66.2812 50.1327 66.2732 50.1505 66.2866 50.1722ZM38.2328 57.3282C38.1919 57.3541 38.1891 57.3821 38.2214 57.4424C38.2449 57.4863 38.2539 57.5323 38.2415 57.5447C38.2291 57.5571 38.2572 57.5573 38.3039 57.5451C38.3816 57.5248 38.3831 57.5187 38.3213 57.4736C38.2812 57.4442 38.2641 57.3976 38.2791 57.3585C38.3081 57.2831 38.3061 57.2818 38.2328 57.3282ZM35.5469 58.768C35.5469 58.7875 35.5816 58.8124 35.6239 58.8235C35.6779 58.8376 35.6946 58.8271 35.6796 58.7882C35.6564 58.7276 35.5469 58.711 35.5469 58.768ZM42.4869 59.6127L44.0869 59.6341L42.8669 59.6503L41.6469 59.6666L43.1966 59.6927C44.8781 59.721 45.2913 59.7675 43.9836 59.7813C43.443 59.787 43.3272 59.7942 43.641 59.8026L44.1151 59.8153L42.971 60.9566C42.3417 61.5843 41.8269 62.1237 41.8269 62.1553C41.8269 62.2049 42.68 62.2127 48.1269 62.2127C53.8279 62.2127 54.4269 62.2067 54.4269 62.1498C54.4269 62.1153 54.9309 61.584 55.5469 60.9692C56.1629 60.3544 56.6669 59.8427 56.6669 59.832C56.6669 59.8214 56.5094 59.8087 56.3169 59.8039C56.1244 59.7991 56.3539 59.785 56.8269 59.7727C57.5801 59.7531 57.6186 59.7492 57.1369 59.7415C56.3901 59.7296 56.4055 59.6552 57.1569 59.6447C57.4704 59.6404 55.9269 59.625 53.7269 59.6105C51.5269 59.5961 47.7379 59.5858 45.3069 59.5878C42.7615 59.5898 41.5655 59.6004 42.4869 59.6127ZM36.8433 60.9064C36.9113 60.9767 36.9745 61.0293 36.9837 61.0233C36.993 61.0173 36.9613 60.9706 36.9134 60.9196C36.8654 60.8685 36.8346 60.8184 36.8448 60.8081C36.8551 60.7979 36.8311 60.787 36.7916 60.7841C36.735 60.7798 36.746 60.8057 36.8433 60.9064ZM38.2802 61.879C38.2802 61.9061 38.2997 61.9248 38.3236 61.9205C38.3474 61.9162 38.3609 61.9397 38.3536 61.9727C38.3462 62.0057 38.3541 62.0188 38.371 62.0019C38.4295 61.9434 38.4132 61.8298 38.3463 61.8298C38.3099 61.8298 38.2802 61.852 38.2802 61.879ZM38.8431 62.0589C38.8248 62.0884 38.8322 62.0942 38.8634 62.0749C38.8945 62.0556 38.9203 62.0752 38.9343 62.1287C38.9624 62.2362 39.1069 62.2427 39.1069 62.1364C39.1069 62.0799 39.0862 62.0656 39.0269 62.0811C38.9822 62.0928 38.9469 62.0823 38.9469 62.0574C38.9469 61.9989 38.8795 61.9999 38.8431 62.0589Z" fill="#3461FF"/>
</g>
<defs>
<clipPath id="clip0_62_72198">
<rect width="40" height="40" fill="white" transform="translate(35.5469 22.2139)"/>
</clipPath>
</defs>
</svg>
