<svg width="111" height="111" viewBox="0 0 111 111" fill="none" xmlns="http://www.w3.org/2000/svg">
<rect x="1.16485" y="1.05841" width="108.764" height="108.764" rx="24.382" fill="white"/>
<rect x="1.16485" y="1.05841" width="108.764" height="108.764" rx="24.382" stroke="#EAEAEA" stroke-width="1.23596"/>
<path d="M52.2449 22.4238V29.2518C52.2449 30.5108 51.2199 31.5358 49.9599 31.5358H43.1349L52.2449 22.4238Z" fill="#3461FF"/>
<path d="M64.4079 40.5479H35.0469C33.9559 40.5479 33.0679 41.4359 33.0679 42.5289V54.0859C33.0679 55.1769 33.9559 56.0649 35.0469 56.0649H64.4079C65.4989 56.0649 66.3869 55.1769 66.3869 54.0859V42.5289C66.3869 41.4359 65.4989 40.5479 64.4079 40.5479ZM50.3449 44.7699L46.4959 52.4689C46.3769 52.7059 46.1349 52.8559 45.8689 52.8559C45.6039 52.8559 45.3619 52.7059 45.2429 52.4689L41.3939 44.7699C41.2209 44.4239 41.3609 44.0029 41.7069 43.8299C42.0529 43.6569 42.4729 43.7979 42.6459 44.1429L45.8689 50.5899L49.0929 44.1429C49.2659 43.7979 49.6859 43.6569 50.0319 43.8299C50.3779 44.0029 50.5179 44.4239 50.3449 44.7699ZM55.5069 52.8559H51.6859C51.2999 52.8559 50.9859 52.5419 50.9859 52.1549V44.4569C50.9859 44.0699 51.2999 43.7559 51.6859 43.7559H54.7559C56.2029 43.7559 57.3809 44.9339 57.3809 46.3809C57.3809 46.9789 57.1799 47.5299 56.8419 47.9719C57.6139 48.4299 58.1319 49.2709 58.1319 50.2309C58.1319 51.6779 56.9549 52.8559 55.5069 52.8559Z" fill="#3461FF"/>
<path d="M55.9809 46.3803C55.9809 47.0563 55.4309 47.6053 54.7559 47.6053H52.3859V45.1562H54.7559C55.4309 45.1562 55.9809 45.7053 55.9809 46.3803Z" fill="#3461FF"/>
<path d="M56.7319 50.2309C56.7319 50.9059 56.1819 51.4549 55.5069 51.4549H52.3859V49.0059H55.5069C56.1819 49.0059 56.7319 49.5559 56.7319 50.2309Z" fill="#3461FF"/>
<path d="M78.0258 27.949V65.749C78.0258 67.008 77.0008 68.031 75.7408 68.031H48.6618C47.4018 68.031 46.3768 67.008 46.3768 65.749V65.2H71.5088C73.5388 65.2 75.1908 63.546 75.1908 61.514V25.668H75.7408C77.0008 25.668 78.0258 26.691 78.0258 27.949Z" fill="#3461FF"/>
<path d="M73.7909 23.7176V61.5146C73.7909 62.7746 72.7669 63.7996 71.5089 63.7996H44.4269C43.1679 63.7996 42.1449 62.7746 42.1449 61.5146V57.4646H64.4079C66.2709 57.4646 67.7869 55.9486 67.7869 54.0856V42.5286C67.7869 40.6636 66.2709 39.1466 64.4079 39.1466H42.1449V32.9366H49.9599C51.9919 32.9366 53.6449 31.2836 53.6449 29.2516V21.4336H71.5089C72.7669 21.4336 73.7909 22.4586 73.7909 23.7176Z" fill="#3461FF"/>
<path d="M49.6602 92.7754H49.8164L53.5078 81.623H56.3008L51.3008 95.7637H48.1758L43.1953 81.623H45.9883L49.6602 92.7754ZM57.9805 81.623H63.3906C64.3867 81.623 65.2266 81.7793 65.9102 82.0918C66.6003 82.4043 67.1178 82.8372 67.4629 83.3906C67.8079 83.944 67.9805 84.5788 67.9805 85.2949C67.9805 86.1087 67.7526 86.7695 67.2969 87.2773C66.8411 87.7852 66.2422 88.127 65.5 88.3027V88.4395C66.0143 88.4655 66.5026 88.6217 66.9648 88.9082C67.4336 89.1947 67.8112 89.5983 68.0977 90.1191C68.3841 90.6335 68.5273 91.2324 68.5273 91.916C68.5273 92.6647 68.3451 93.3288 67.9805 93.9082C67.6224 94.4876 67.082 94.9434 66.3594 95.2754C65.6367 95.6009 64.7513 95.7637 63.7031 95.7637H57.9805V81.623ZM63.3125 93.6348C64.2044 93.6348 64.8652 93.4622 65.2949 93.1172C65.7311 92.7721 65.9492 92.3066 65.9492 91.7207C65.9492 91.2975 65.8418 90.9167 65.627 90.5781C65.4186 90.2331 65.1191 89.9629 64.7285 89.7676C64.3379 89.5723 63.8854 89.4746 63.3711 89.4746H60.5195V93.6348H63.3125ZM63.0781 87.6387C63.5273 87.6387 63.931 87.5573 64.2891 87.3945C64.6471 87.2253 64.9271 86.9876 65.1289 86.6816C65.3372 86.3757 65.4414 86.0176 65.4414 85.6074C65.4414 85.041 65.2428 84.5885 64.8457 84.25C64.4486 83.9049 63.8789 83.7324 63.1367 83.7324H60.5195V87.6387H63.0781Z" fill="#898989"/>
</svg>
