<svg width="111" height="111" viewBox="0 0 111 111" fill="none" xmlns="http://www.w3.org/2000/svg">
<rect x="1.16485" y="1.05841" width="108.764" height="108.764" rx="24.382" fill="white"/>
<rect x="1.16485" y="1.05841" width="108.764" height="108.764" rx="24.382" stroke="#EAEAEA" stroke-width="1.23596"/>
<g clip-path="url(#clip0_62_72235)">
<path d="M46.2407 58.5309L36.3444 68.4266C34.7584 70.0126 32.1883 70.0136 30.6012 68.4266C29.8318 67.6573 29.2901 67.1156 28.5191 66.3447C26.936 64.7617 26.936 62.1858 28.5191 60.6018L38.4154 50.7061C40.2985 53.944 43.0026 56.648 46.2407 58.5309Z" fill="#3461FF"/>
<path d="M77.0319 28.7588C76.2035 28.7588 75.5319 28.0872 75.5319 27.2588V21.417H69.6897C68.8613 21.417 68.1897 20.7454 68.1897 19.917C68.1897 19.0886 68.8613 18.417 69.6897 18.417H77.0319C77.8603 18.417 78.5319 19.0886 78.5319 19.917V27.2588C78.5319 28.0873 77.8603 28.7588 77.0319 28.7588Z" fill="#3461FF"/>
<path d="M37.0125 28.7587C36.1841 28.7587 35.5125 28.0871 35.5125 27.2587V19.917C35.5125 19.0886 36.1841 18.417 37.0125 18.417H44.3547C45.1831 18.417 45.8547 19.0886 45.8547 19.917C45.8547 20.7454 45.1831 21.417 44.3547 21.417H38.5125V27.2588C38.5126 28.0872 37.841 28.7587 37.0125 28.7587Z" fill="#3461FF"/>
<path d="M77.032 61.4337H69.6898C68.8614 61.4337 68.1898 60.7621 68.1898 59.9337C68.1898 59.1053 68.8614 58.4337 69.6898 58.4337H75.532V52.5918C75.532 51.7634 76.2036 51.0918 77.032 51.0918C77.8604 51.0918 78.532 51.7634 78.532 52.5918V59.9337C78.532 60.7621 77.8604 61.4337 77.032 61.4337Z" fill="#3461FF"/>
<path d="M67.7484 39.0837C67.4874 39.0837 67.0444 39.0847 66.6314 39.0867C66.6254 37.9667 66.6294 38.3517 66.6254 36.9248H67.7484C68.3974 36.9248 68.9454 37.4188 68.9454 38.0038C68.9454 38.5888 68.3975 39.0837 67.7484 39.0837Z" fill="#3461FF"/>
<path d="M57.0222 21.417C46.8159 21.417 38.5126 29.7198 38.5126 39.9255C38.5126 50.1312 46.8159 58.434 57.0222 58.434C67.2285 58.434 75.5318 50.1312 75.5318 39.9255C75.5318 29.7198 67.2285 21.417 57.0222 21.417ZM48.0989 44.9244C45.3418 44.9244 43.0987 42.6815 43.0987 39.9245C43.0987 37.1676 45.3418 34.9246 48.0989 34.9246C50.856 34.9246 53.0991 37.1675 53.0991 39.9245C53.0991 42.6814 50.856 44.9244 48.0989 44.9244ZM62.5854 43.4384C61.1564 45.1434 58.7763 45.2784 57.0222 44.3744C53.4001 42.5154 53.3921 37.3376 57.0222 35.4746C58.6042 34.6596 60.5573 34.7406 62.0964 35.7796C62.5534 36.0886 62.6734 36.7096 62.3644 37.1676C62.0554 37.6256 61.4344 37.7456 60.9763 37.4366C59.7303 36.5946 58.0252 36.8026 57.0222 37.9746C56.0572 39.0966 56.0592 40.7555 57.0222 41.8745C58.0622 43.0905 60.0503 43.3495 61.0533 42.1525C61.4083 41.7295 62.0393 41.6745 62.4624 42.0295C62.8854 42.3844 62.9404 43.0144 62.5854 43.4384ZM70.6056 44.6754C70.1916 45.0404 69.5596 45.0004 69.1946 44.5854L66.6195 41.6605V43.9245C66.6195 44.4775 66.1725 44.9245 65.6195 44.9245C65.0675 44.9245 64.6195 44.4775 64.6195 43.9245V35.9246C64.6195 35.3726 65.0675 34.9246 65.6195 34.9246H65.6215H67.7486C69.5117 34.9246 70.9457 36.3066 70.9457 38.0035C70.9457 39.3955 69.9817 40.5744 68.6626 40.9544L70.6957 43.2643C71.0606 43.6784 71.0206 44.3104 70.6056 44.6754ZM48.0989 36.9246C46.4449 36.9246 45.0988 38.2706 45.0988 39.9245C45.0988 41.5784 46.4448 42.9244 48.0989 42.9244C49.754 42.9244 51.099 41.5784 51.099 39.9245C51.099 38.2705 49.754 36.9246 48.0989 36.9246Z" fill="#3461FF"/>
</g>
<path d="M48.6523 88.6934C48.6523 90.1842 48.3724 91.4766 47.8125 92.5703C47.2526 93.6641 46.4811 94.5039 45.498 95.0898C44.5215 95.6693 43.4115 95.959 42.168 95.959C40.9245 95.959 39.8112 95.6693 38.8281 95.0898C37.8516 94.5039 37.0833 93.6641 36.5234 92.5703C35.9635 91.4701 35.6836 90.1777 35.6836 88.6934C35.6836 87.2025 35.9635 85.9102 36.5234 84.8164C37.0833 83.7227 37.8516 82.8861 38.8281 82.3066C39.8112 81.7207 40.9245 81.4277 42.168 81.4277C43.4115 81.4277 44.5215 81.7207 45.498 82.3066C46.4811 82.8861 47.2526 83.7227 47.8125 84.8164C48.3724 85.9102 48.6523 87.2025 48.6523 88.6934ZM46.0938 88.6934C46.0938 87.6387 45.9277 86.7402 45.5957 85.998C45.2702 85.2493 44.8112 84.6829 44.2188 84.2988C43.6263 83.9082 42.9427 83.7129 42.168 83.7129C41.3932 83.7129 40.7096 83.9082 40.1172 84.2988C39.5247 84.6829 39.0625 85.2493 38.7305 85.998C38.4049 86.7402 38.2422 87.6387 38.2422 88.6934C38.2422 89.748 38.4049 90.6497 38.7305 91.3984C39.0625 92.1406 39.5247 92.707 40.1172 93.0977C40.7096 93.4818 41.3932 93.6738 42.168 93.6738C42.9427 93.6738 43.6263 93.4818 44.2188 93.0977C44.8112 92.707 45.2702 92.1406 45.5957 91.3984C45.9277 90.6497 46.0938 89.748 46.0938 88.6934ZM60.4492 86.3887C60.3516 85.8353 60.1465 85.3568 59.834 84.9531C59.5215 84.5495 59.1243 84.2435 58.6426 84.0352C58.1673 83.8203 57.6432 83.7129 57.0703 83.7129C56.2891 83.7129 55.6022 83.9082 55.0098 84.2988C54.4173 84.6829 53.9551 85.2493 53.623 85.998C53.291 86.7467 53.125 87.6452 53.125 88.6934C53.125 89.748 53.291 90.6497 53.623 91.3984C53.9551 92.1471 54.4173 92.7135 55.0098 93.0977C55.6087 93.4818 56.2956 93.6738 57.0703 93.6738C57.6302 93.6738 58.1445 93.5729 58.6133 93.3711C59.0885 93.1628 59.4857 92.8633 59.8047 92.4727C60.1237 92.082 60.3385 91.6165 60.4492 91.0762H63.0078C62.8776 91.9876 62.5488 92.8145 62.0215 93.5566C61.5007 94.2988 60.8105 94.8848 59.9512 95.3145C59.0918 95.7441 58.1185 95.959 57.0312 95.959C55.7878 95.959 54.6745 95.6693 53.6914 95.0898C52.7148 94.5039 51.9499 93.6641 51.3965 92.5703C50.8431 91.4701 50.5664 90.1777 50.5664 88.6934C50.5664 87.2025 50.8431 85.9102 51.3965 84.8164C51.9564 83.7227 52.7246 82.8861 53.7012 82.3066C54.6842 81.7207 55.7943 81.4277 57.0312 81.4277C58.0729 81.4277 59.0202 81.6263 59.873 82.0234C60.7259 82.4141 61.4258 82.9837 61.9727 83.7324C62.5195 84.4746 62.8646 85.36 63.0078 86.3887H60.4492ZM65.1953 81.623H70.5078C71.569 81.623 72.4707 81.8118 73.2129 82.1895C73.9616 82.5605 74.528 83.0846 74.9121 83.7617C75.2962 84.4388 75.4883 85.2298 75.4883 86.1348C75.4883 87.0983 75.2702 87.9251 74.834 88.6152C74.4043 89.3053 73.7728 89.8197 72.9395 90.1582L75.9961 95.7637H73.1641L70.3906 90.5879H67.7344V95.7637H65.1953V81.623ZM70.1172 88.459C71.9661 88.459 72.8906 87.6842 72.8906 86.1348C72.8906 85.3665 72.6628 84.7773 72.207 84.3672C71.7513 83.957 71.0547 83.752 70.1172 83.752H67.7344V88.459H70.1172Z" fill="#898989"/>
<defs>
<clipPath id="clip0_62_72235">
<rect width="51.2" height="51.2" fill="white" transform="translate(27.3322 18.416)"/>
</clipPath>
</defs>
</svg>
