<svg width="626" height="112" viewBox="0 0 626 112" fill="none" xmlns="http://www.w3.org/2000/svg">
<path d="M29.0559 12.8959L53.7213 41.8839L57.9919 36.8633L37.6075 12.8959H29.0559Z" fill="white"/>
<path d="M61.0643 59.0913L56.7416 54.0082L95.5 8.44815H109.385L73.6574 50.4459L77.9384 55.4769L124.009 1.34436H93.0001L52.471 48.9772L17.9833 8.44815H39.6071L45.6485 1.34436H3.39032L56.7937 64.1119L61.0643 59.0913Z" fill="white"/>
<path d="M63.2519 53.0812L67.3246 57.8726V57.883L28.5662 103.433H14.692L50.263 61.5703L45.8778 56.6643L0.046936 110.536H31.0765L71.5952 62.9035H71.6056L106.093 103.433H100.719H46.5445L40.5031 110.536H120.686L67.5225 48.0502L63.2519 53.0812Z" fill="white"/>
<path d="M70.3451 69.9866L66.085 75.0384L86.4693 98.985H95.0209L70.3451 69.9866Z" fill="white"/>
<path d="M387.88 5.3546C386.828 3.95884 385.151 2.92765 382.87 2.28185C380.589 1.63605 377.495 1.30273 373.589 1.30273H309.947C306.041 1.30273 302.885 1.62563 300.468 2.28185C298.052 2.93806 296.166 3.95884 294.823 5.3546C293.468 6.85452 292.5 8.72942 291.916 10.9793C291.854 11.2397 291.791 11.5314 291.729 11.8022H357.059C358.455 11.8022 359.361 12.0834 359.746 12.625C360.142 13.1771 360.267 14.1562 360.121 15.552L356.163 54.1124L355.559 59.9871L351.83 96.3185C351.684 97.7247 351.361 98.6934 350.851 99.2454C350.34 99.7975 349.393 100.068 347.986 100.068H315.269C313.863 100.068 312.967 99.7871 312.582 99.2454C312.186 98.6934 312.061 97.7247 312.207 96.3185L316.207 59.9871L316.853 54.1124L320.509 20.9371H290.937L287.271 54.1124L286.625 59.9871L283.011 92.7145C282.677 95.9227 282.573 98.6726 282.688 100.975C282.802 103.276 283.386 105.131 284.448 106.526C285.511 107.922 287.177 108.953 289.458 109.599C291.739 110.245 294.833 110.578 298.739 110.578H362.381C366.287 110.578 369.444 110.255 371.86 109.599C374.277 108.943 376.162 107.922 377.506 106.526C378.849 105.12 379.818 103.276 380.401 100.975C380.985 98.6726 381.443 95.9227 381.776 92.7145L385.141 59.9871L385.745 54.1124L389.338 19.156C389.672 15.9582 389.776 13.2292 389.651 10.9793C389.526 8.72942 388.953 6.85452 387.901 5.3546H387.88Z" fill="white"/>
<path d="M269.793 4.90671C268.814 3.70886 267.356 2.80265 265.418 2.20894C263.481 1.6048 260.804 1.30273 257.408 1.30273H175.454L170.049 53.9249L89.8861 54.1124L87.6675 56.956L89.8861 59.9871H230.816C233.816 59.9871 235.785 60.5704 236.722 61.7162C237.649 62.8724 237.962 64.9452 237.659 67.945L235.149 92.4125C234.847 95.3186 234.118 97.3185 232.962 98.4121C231.795 99.5163 229.66 100.068 226.566 100.068L201.526 100.162L200.266 110.578H246.503C249.898 110.578 252.711 110.297 254.919 109.755C257.127 109.203 258.898 108.276 260.231 106.974C261.564 105.672 262.533 104.026 263.137 102.027C263.741 100.027 264.2 97.5789 264.491 94.6728L267.564 64.7994C267.752 62.9349 267.637 61.3412 267.241 59.9975C267.085 59.4663 266.887 58.9559 266.637 58.4976C266.637 58.4872 266.616 58.4664 266.616 58.4455C265.116 55.779 262.21 54.2478 259.158 54.1228C259.023 54.1228 258.888 54.102 258.752 54.102H199.609L199.63 53.9353L203.963 11.823H234.285C237.285 11.823 239.253 12.3751 240.191 13.4792C241.128 14.5833 241.441 16.6353 241.138 19.6351L240.722 23.7286L238.878 41.6964C238.597 44.4254 237.962 46.3628 236.972 47.519H264.096C266.21 47.519 268.012 45.9462 268.231 43.8421C268.231 43.8317 268.231 43.8109 268.231 43.8005L270.949 17.3852C271.251 14.4791 271.356 12.0105 271.262 9.95852C271.168 7.90655 270.689 6.22956 269.824 4.92754L269.793 4.90671Z" fill="white"/>
<path d="M164.225 110.578H193.536L195.307 95.8602L198.369 66.0806H168.798L164.225 110.578Z" fill="white"/>
<path d="M501.552 58.2684C501.135 56.9664 500.406 56.0185 499.364 55.4144C498.323 54.8103 497.01 54.4353 495.427 54.2895C494.594 54.2061 493.677 54.154 492.708 54.1124C491.833 54.0811 490.896 54.0603 489.906 54.0603H393.734V54.1124L393.141 59.9871H472.636L472.168 64.5702L469.303 92.4124C469.001 95.3185 468.272 97.3184 467.105 98.4121C465.939 99.5162 463.804 100.068 460.71 100.068H436.69C433.586 100.068 431.566 99.5162 430.628 98.4121C429.691 97.308 429.368 95.3081 429.67 92.4124L431.212 77.4028H401.64L399.869 94.6623C399.567 97.5684 399.474 100.016 399.567 102.016C399.661 104.016 400.192 105.672 401.161 106.974C402.026 108.276 403.463 109.203 405.452 109.755C407.442 110.307 410.14 110.578 413.546 110.578H481.688C485.084 110.578 487.844 110.297 489.958 109.755C492.062 109.203 493.739 108.276 494.969 106.974C496.104 105.672 496.927 104.016 497.427 102.016C497.937 100.016 498.333 97.5684 498.635 94.6623L501.801 63.8202C501.958 62.3203 501.968 61.0599 501.864 59.9871C501.801 59.3413 501.708 58.758 501.552 58.2684Z" fill="white"/>
<path d="M505.457 4.90671C504.478 3.70886 502.999 2.80265 501.01 2.20894C499.01 1.6048 496.312 1.30273 492.916 1.30273H424.774C421.368 1.30273 418.608 1.6048 416.504 2.19852C414.389 2.80265 412.775 3.69844 411.65 4.89629C410.41 6.19831 409.546 7.8753 409.035 9.92727C408.525 11.9792 408.119 14.4583 407.827 17.354L405.056 44.3629H434.628L437.253 18.8539C437.565 15.854 438.284 13.9271 439.419 13.0729C440.555 12.2188 442.679 11.7918 445.783 11.7918H469.949C472.949 11.7918 474.938 12.2188 475.896 13.0729C476.855 13.9271 477.188 15.854 476.876 18.8539L475.271 34.4676H504.843L506.603 17.354C506.905 14.4479 507.009 11.9792 506.916 9.92727C506.822 7.8753 506.343 6.19831 505.478 4.89629L505.457 4.90671Z" fill="white"/>
<path d="M619.639 58.2684C619.222 56.9664 618.493 56.0185 617.451 55.4144C616.41 54.8103 615.097 54.4353 613.514 54.2895C612.681 54.2061 611.764 54.154 610.795 54.1124C609.921 54.0811 608.983 54.0603 607.994 54.0603H511.822V54.1124L511.228 59.9871H590.724L590.255 64.5702L587.391 92.4124C587.088 95.3185 586.359 97.3184 585.193 98.4121C584.026 99.5162 581.891 100.068 578.797 100.068H554.778C551.674 100.068 549.653 99.5162 548.715 98.4121C547.778 97.308 547.455 95.3081 547.757 92.4124L549.299 77.4028H519.727L517.957 94.6623C517.655 97.5684 517.561 100.016 517.655 102.016C517.748 104.016 518.28 105.672 519.248 106.974C520.113 108.276 521.55 109.203 523.54 109.755C525.529 110.307 528.227 110.578 531.633 110.578H599.775C603.171 110.578 605.931 110.297 608.046 109.755C610.15 109.203 611.827 108.276 613.056 106.974C614.191 105.672 615.014 104.016 615.514 102.016C616.024 100.016 616.42 97.5684 616.722 94.6623L619.889 63.8202C620.045 62.3203 620.055 61.0599 619.951 59.9871C619.889 59.3413 619.795 58.758 619.639 58.2684Z" fill="white"/>
<path d="M624.982 9.93777C624.889 7.8858 624.41 6.20881 623.545 4.90679C622.566 3.70894 621.087 2.80274 619.097 2.20902C617.108 1.60488 614.41 1.31323 611.014 1.31323H542.872C539.466 1.31323 536.706 1.6153 534.602 2.20902C532.487 2.81315 530.873 3.70894 529.748 4.90679C528.508 6.20881 527.644 7.8858 527.134 9.93777C526.623 11.9897 526.217 14.4688 525.925 17.3645L523.155 44.3734H552.726L555.351 18.8644C555.663 15.8645 556.382 13.9376 557.517 13.0834C558.653 12.2293 560.778 11.8023 563.882 11.8023H588.047C591.047 11.8023 593.036 12.2293 593.994 13.0834C594.963 13.9376 595.286 15.8645 594.974 18.8644L593.37 34.4781H622.941L624.701 17.3645C625.003 14.4584 625.107 11.9897 625.014 9.93777H624.982Z" fill="white"/>
</svg>
