<svg width="682" height="682" viewBox="0 0 682 682" fill="none" xmlns="http://www.w3.org/2000/svg">
<g clip-path="url(#clip0_62_72098)">
<path d="M479.261 651.177C466.488 651.177 454.114 646.377 444.374 637.296L131.054 345.12C117.444 332.428 111.818 314.028 116.004 295.896C120.19 277.764 133.315 263.69 151.109 258.252L560.801 132.996C578.599 127.553 597.346 131.885 610.954 144.573C624.564 157.265 630.19 175.668 626.004 193.797L529.632 611.227C525.446 629.359 512.323 643.432 494.527 648.873C489.47 650.419 484.332 651.177 479.261 651.177ZM132.262 343.821L445.582 635.997C458.722 648.252 476.829 652.43 494.009 647.176C511.19 641.923 523.862 628.334 527.904 610.829L624.276 193.399C628.318 175.891 622.886 158.124 609.744 145.869C596.602 133.615 578.496 129.437 561.317 134.69L151.625 259.946C134.441 265.2 121.769 278.786 117.727 296.294C113.69 313.8 119.122 331.567 132.262 343.821Z" fill="url(#paint0_linear_62_72098)"/>
<path d="M390.796 680.638C390.174 680.638 389.55 680.628 388.924 680.606C370.326 679.956 354.006 669.761 345.268 653.328L144.143 275.064C135.405 258.634 136.077 239.402 145.938 223.622C155.8 207.842 172.756 198.816 191.387 199.457L619.538 214.409C638.135 215.059 654.453 225.254 663.191 241.685C671.927 258.115 671.255 277.346 661.394 293.126L434.37 656.438C424.842 671.69 408.657 680.638 390.796 680.638ZM189.515 201.197C172.271 201.197 156.642 209.837 147.441 224.561C137.92 239.798 137.272 258.367 145.708 274.231L346.833 652.495C355.269 668.359 371.027 678.206 388.984 678.833C406.938 679.464 423.342 670.738 432.868 655.5L659.891 292.188C669.412 276.95 670.06 258.382 661.627 242.518C653.191 226.654 637.435 216.806 619.475 216.18L191.325 201.228C190.722 201.206 190.118 201.197 189.515 201.197Z" fill="url(#paint1_linear_62_72098)"/>
<path d="M297.355 679.716C291.127 679.716 284.834 678.566 278.74 676.228C261.367 669.559 249.256 654.604 246.345 636.225L179.328 213.088C176.416 194.709 183.312 176.745 197.774 165.035C212.236 153.323 231.242 150.314 248.613 156.983L648.571 310.511C665.944 317.179 678.053 332.133 680.964 350.512C683.875 368.891 676.98 386.855 662.517 398.567L329.577 668.176C320.188 675.779 308.884 679.716 297.355 679.716ZM230.006 155.27C218.872 155.27 207.957 159.069 198.888 166.413C184.924 177.719 178.267 195.067 181.08 212.812L248.097 635.949C250.908 653.697 262.603 668.135 279.376 674.575C296.152 681.014 314.503 678.105 328.464 666.799L661.404 397.192C675.367 385.886 682.025 368.539 679.214 350.791C676.404 333.045 664.711 318.607 647.937 312.167L247.98 158.639C242.097 156.379 236.018 155.27 230.006 155.27Z" fill="url(#paint2_linear_62_72098)"/>
<path d="M208.888 648.324C197.052 648.324 185.479 644.181 175.987 636.216C161.731 624.254 155.15 606.172 158.383 587.846L232.776 165.943C236.006 147.616 248.373 132.878 265.86 126.513C283.346 120.148 302.299 123.489 316.552 135.451L644.736 410.827C658.991 422.788 665.572 440.87 662.34 459.196C659.107 477.523 646.74 492.264 629.253 498.628L226.675 645.153C220.833 647.282 214.828 648.324 208.888 648.324ZM283.641 125.119C277.905 125.119 272.107 126.127 266.464 128.179C249.583 134.323 237.638 148.557 234.52 166.252L160.128 588.156C157.01 605.851 163.363 623.308 177.127 634.86C190.888 646.408 209.184 649.634 226.072 643.49L628.646 496.965C645.53 490.819 657.475 476.587 660.595 458.892C663.715 441.196 657.36 423.736 643.596 412.187L315.41 136.809C306.247 129.119 295.07 125.119 283.641 125.119Z" fill="url(#paint3_linear_62_72098)"/>
<path d="M135.934 589.896C117.701 589.896 101.278 580.615 91.8531 564.931C82.2699 548.981 81.934 529.742 90.9556 513.466L298.654 138.77C307.676 122.494 324.168 112.584 342.776 112.26C361.304 111.948 378.209 121.265 387.795 137.215L608.444 504.434C618.027 520.385 618.363 539.623 609.341 555.9C600.32 572.174 583.827 582.087 565.22 582.41L136.875 589.886C136.563 589.891 136.246 589.896 135.934 589.896ZM343.714 114.024C343.412 114.024 343.109 114.026 342.804 114.031C324.84 114.343 308.914 123.914 300.204 139.63L92.506 514.327C83.794 530.042 84.1179 548.618 93.3723 564.019C102.627 579.42 118.93 588.442 136.841 588.115L565.186 580.639C583.152 580.325 599.079 570.756 607.791 555.041C616.5 539.326 616.176 520.75 606.922 505.349L386.276 138.127C377.177 122.986 361.318 114.024 343.714 114.024Z" fill="url(#paint4_linear_62_72098)"/>
<path d="M493.518 643.356C488.156 643.356 482.727 642.509 477.404 640.779L69.9609 508.392C52.2633 502.642 39.3873 488.343 35.5185 470.141C31.6497 451.939 37.5945 433.639 51.4233 421.188L369.795 134.525C383.624 122.074 402.447 118.073 420.143 123.823C437.84 129.574 450.716 143.873 454.587 162.075L543.658 581.124C547.527 599.326 541.58 617.626 527.751 630.079C518.084 638.782 505.974 643.356 493.518 643.356ZM404.036 123.019C392.007 123.019 380.317 127.435 370.981 135.843L52.6088 422.503C39.2552 434.525 33.5145 452.196 37.2513 469.771C40.9857 487.346 53.4201 501.154 70.5057 506.707L477.949 639.094C495.037 644.647 513.212 640.783 526.563 628.762C539.917 616.738 545.658 599.069 541.921 581.494L452.852 162.442C449.118 144.866 436.683 131.059 419.595 125.506C414.454 123.838 409.213 123.019 404.036 123.019Z" fill="url(#paint5_linear_62_72098)"/>
<path d="M406.207 677.815C395.284 677.815 384.523 674.277 375.367 667.378L33.223 409.553C18.3622 398.354 10.843 380.64 13.111 362.172C15.379 343.702 26.9589 328.334 44.0877 321.065L438.441 153.672C455.575 146.4 474.669 148.747 489.532 159.946C504.393 171.144 511.91 188.858 509.644 207.329L457.435 632.546C455.167 651.017 443.587 666.384 426.458 673.654C419.88 676.44 413.011 677.815 406.207 677.815ZM439.132 155.302L44.779 322.694C28.2406 329.714 17.0589 344.554 14.8677 362.388C12.6789 380.222 19.9389 397.325 34.2885 408.139L376.432 665.964C390.782 676.776 409.224 679.042 425.762 672.021C442.303 665.001 453.485 650.162 455.673 632.328L507.883 207.11C510.072 189.276 502.812 172.174 488.462 161.359C474.117 150.547 455.676 148.282 439.132 155.302Z" fill="url(#paint6_linear_62_72098)"/>
<path d="M312.762 682.001C295.63 682.001 279.934 673.695 270.229 659.307L30.6655 304.138C20.2591 288.711 18.9152 269.515 27.0752 252.79C35.2328 236.064 51.1831 225.305 69.7471 224.007L497.115 194.122C515.686 192.824 532.971 201.26 543.38 216.687C553.786 232.114 555.128 251.309 546.97 268.035L359.165 653.088C351.01 669.814 335.055 680.573 316.494 681.871C315.243 681.958 314 682.001 312.762 682.001ZM497.175 195.005L497.238 195.888L69.8696 225.773C51.944 227.026 36.5408 237.415 28.664 253.565C20.7896 269.715 22.0856 288.25 32.132 303.144L271.695 658.313C281.744 673.21 298.479 681.351 316.366 680.1C334.292 678.847 349.695 668.455 357.57 652.308L545.372 267.255C553.246 251.105 551.953 232.572 541.904 217.676C531.857 202.781 515.17 194.631 497.233 195.888L497.175 195.005Z" fill="url(#paint7_linear_62_72098)"/>
<path d="M223.4 655.644C218.904 655.644 214.354 655.051 209.842 653.844C191.866 649.027 178.26 635.421 173.444 617.448L62.5637 203.635C57.7493 185.661 62.7269 167.073 75.8861 153.914C89.0453 140.757 107.631 135.775 125.607 140.592L539.42 251.474C557.393 256.291 570.999 269.897 575.816 287.873C580.63 305.846 575.652 324.434 562.493 337.591L259.563 640.519C249.708 650.376 236.808 655.641 223.4 655.644ZM112.059 140.563C99.1108 140.563 86.6572 145.649 77.1412 155.165C64.4356 167.87 59.6285 185.817 64.2797 203.172L175.16 616.985C179.808 634.341 192.948 647.479 210.303 652.128C227.657 656.779 245.607 651.969 258.31 639.264L561.243 336.331C573.948 323.625 578.758 305.681 574.107 288.324C569.456 270.969 556.318 257.829 538.961 253.181L125.149 142.3C120.793 141.134 116.398 140.563 112.059 140.563Z" fill="url(#paint8_linear_62_72098)"/>
<path d="M146.831 601.5C136.811 601.5 126.866 598.514 118.127 592.62C102.7 582.213 94.264 564.919 95.5624 546.357L125.447 118.99C126.746 100.426 137.507 84.4727 154.233 76.3151C170.958 68.1575 190.156 69.5015 205.578 79.9055L560.747 319.469C576.174 329.875 584.61 347.169 583.312 365.731C582.011 384.295 571.252 400.248 554.526 408.406L169.473 596.208C162.225 599.748 154.506 601.5 146.831 601.5ZM176.877 72.8015C169.466 72.8015 162.016 74.4911 155.01 77.9087C138.861 85.7855 128.471 101.189 127.218 119.114L97.336 546.482C96.0808 564.405 104.226 581.105 119.121 591.154C134.018 601.202 152.55 602.498 168.702 594.621L553.754 406.819C569.903 398.942 580.293 383.539 581.546 365.613C582.798 347.69 574.655 330.991 559.758 320.942L204.59 81.3767C196.156 75.6863 186.549 72.8015 176.877 72.8015Z" fill="url(#paint9_linear_62_72098)"/>
<path d="M92.2537 525.384C76.1833 525.384 61.2289 517.989 51.3481 504.873C40.1473 490.013 37.8025 470.913 45.0745 453.782L212.47 59.4286C219.742 42.2998 235.106 30.7199 253.579 28.4519C272.062 26.1815 289.762 33.7054 300.96 48.5638L558.785 390.708C569.983 405.569 572.328 424.668 565.058 441.797C557.786 458.925 542.419 470.508 523.949 472.776L98.7312 524.985C96.5568 525.254 94.3945 525.384 92.2537 525.384ZM260.045 29.8271C257.976 29.8271 255.888 29.9543 253.793 30.2111C235.958 32.3999 221.119 43.5814 214.099 60.1222L46.7041 454.476C39.6841 471.017 41.9497 489.458 52.7617 503.808C63.5761 518.157 80.676 525.415 98.5128 523.226L523.73 471.017C541.565 468.828 556.402 457.644 563.424 441.105C570.444 424.567 568.179 406.125 557.367 391.776L299.542 49.6318C289.999 36.9694 275.558 29.8271 260.045 29.8271Z" fill="url(#paint10_linear_62_72098)"/>
<path d="M485.012 524.839C481.39 524.839 477.728 524.457 474.07 523.68L55.0207 434.608C36.8191 430.74 22.5175 417.864 16.7671 400.166C11.0167 382.469 15.0175 363.648 27.4687 349.817L314.132 31.4469C326.583 17.6181 344.89 11.6709 363.087 15.5397C381.289 19.4085 395.588 32.2845 401.338 49.9821L533.725 457.425C539.475 475.123 535.472 493.946 523.023 507.775C513.075 518.822 499.393 524.839 485.012 524.839ZM352.15 16.1541C338.264 16.1541 325.054 21.9645 315.447 32.6325L28.7887 351.005C16.7647 364.358 12.9031 382.531 18.4543 399.619C24.0055 416.707 37.8151 429.139 55.3879 432.876L474.435 521.947C492.015 525.681 509.681 519.94 521.705 506.587C533.727 493.236 537.591 475.061 532.037 457.973L399.653 50.5293C394.1 33.4413 380.293 21.0093 362.717 17.2725C359.185 16.5237 355.647 16.1541 352.15 16.1541Z" fill="url(#paint11_linear_62_72098)"/>
<path d="M436.826 563.007C427.691 563.007 418.576 560.523 410.335 555.571L43.1153 334.923C27.1649 325.34 17.8362 308.508 18.1626 289.903C18.4866 271.299 28.3962 254.803 44.673 245.782L419.371 38.0835C435.645 29.0619 454.886 29.3979 470.836 38.9811C486.787 48.5643 496.115 65.3955 495.791 84.0003L488.315 512.345C487.989 530.952 478.079 547.445 461.803 556.467C453.933 560.832 445.375 563.007 436.826 563.007ZM444.343 33.3267C436.089 33.3267 427.826 35.4267 420.225 39.6363L45.5298 247.335C29.8146 256.047 20.2457 271.971 19.9337 289.937C19.6193 307.901 28.6266 324.154 44.0298 333.406L411.249 554.055C426.65 563.309 445.226 563.631 460.943 554.924C476.659 546.212 486.227 530.287 486.542 512.321L494.018 83.9763C494.33 66.0123 485.325 49.7619 469.924 40.5075C461.966 35.7243 453.16 33.3267 444.343 33.3267Z" fill="url(#paint12_linear_62_72098)"/>
<path d="M378.889 583.392C363.841 583.392 349.648 576.845 339.692 564.979L64.3164 236.798C52.3548 222.545 49.014 203.594 55.3788 186.108C61.7436 168.622 76.4844 156.252 94.8108 153.022L516.714 78.6288C535.04 75.3984 553.122 81.9792 565.081 96.2328C577.043 110.489 580.384 129.437 574.019 146.923L427.496 549.499C421.132 566.986 406.391 579.353 388.064 582.586C384.99 583.126 381.92 583.392 378.889 583.392ZM525.875 79.5912C522.949 79.5912 519.988 79.8481 517.019 80.3713L95.1156 154.764C77.418 157.884 63.186 169.829 57.042 186.713C50.898 203.597 54.1236 221.894 65.6724 235.658L341.048 563.842C352.6 577.606 370.069 583.958 387.752 580.838C405.448 577.718 419.68 565.776 425.826 548.892L572.351 146.318C578.495 129.434 575.269 111.137 563.72 97.3728C554.108 85.9152 540.402 79.5912 525.875 79.5912Z" fill="url(#paint13_linear_62_72098)"/>
<path d="M318.117 583.922C315.381 583.922 312.616 583.706 309.839 583.267C291.46 580.356 276.503 568.248 269.836 550.874L116.308 150.919C109.639 133.548 112.648 114.542 124.36 100.08C136.072 85.6174 154.043 78.7246 172.415 81.6334L595.552 148.651C613.931 151.562 628.886 163.673 635.555 181.044C642.225 198.415 639.215 217.423 627.503 231.883L357.892 564.821C347.954 577.097 333.501 583.922 318.117 583.922ZM164.145 82.7494C149.289 82.7494 135.338 89.3398 125.738 101.193C114.429 115.157 111.525 133.509 117.962 150.283L271.49 550.238C277.929 567.014 292.37 578.707 310.115 581.515C327.849 584.325 345.206 577.668 356.512 563.702L626.121 230.765C637.43 216.801 640.336 198.451 633.897 181.675C627.458 164.899 613.019 153.209 595.271 150.396L172.135 83.3782C169.459 82.9558 166.785 82.7494 164.145 82.7494Z" fill="url(#paint14_linear_62_72098)"/>
<path d="M259.862 564.551C251.606 564.551 243.326 562.523 235.655 558.446C219.225 549.71 209.028 533.392 208.38 514.794L193.427 86.6441C192.777 68.0465 201.811 51.0569 217.593 41.1953C233.371 31.3361 252.604 30.6617 269.032 39.3977L647.299 240.525C663.729 249.261 673.927 265.581 674.574 284.176C675.225 302.774 666.191 319.763 650.409 329.625L287.097 556.648C278.683 561.904 269.289 564.551 259.862 564.551ZM244.831 35.0657C235.725 35.0657 226.655 37.6193 218.531 42.6953C203.294 52.2161 194.57 68.6225 195.199 86.5793L210.151 514.73C210.777 532.687 220.622 548.443 236.488 556.879C252.352 565.315 270.921 564.667 286.159 555.143L649.471 328.12C664.708 318.599 673.43 302.193 672.803 284.236C672.177 266.279 662.332 250.523 646.468 242.087L268.202 40.9601C260.795 37.0241 252.799 35.0657 244.831 35.0657Z" fill="url(#paint15_linear_62_72098)"/>
<path d="M210.999 527.231C196.944 527.231 183.523 521.471 173.595 510.825C160.903 497.214 156.574 478.465 162.015 460.669L287.268 50.9774C292.712 33.1814 306.783 20.0583 324.915 15.8727C343.047 11.6847 361.45 17.3126 374.139 30.9206L666.315 344.241C679.008 357.851 683.335 376.6 677.895 394.396C672.454 412.192 658.383 425.315 640.251 429.501L222.819 525.873C218.871 526.785 214.911 527.231 210.999 527.231ZM336.73 16.2878C332.952 16.2878 329.129 16.7198 325.315 17.5982C307.807 21.6398 294.221 34.3118 288.968 51.4934L163.714 461.185C158.46 478.367 162.639 496.473 174.893 509.613C187.15 522.755 204.919 528.186 222.42 524.145L639.852 427.773C657.358 423.731 670.947 411.059 676.2 393.878C681.454 376.696 677.273 358.59 665.021 345.45L372.845 32.1302C363.259 21.851 350.297 16.2878 336.73 16.2878Z" fill="url(#paint16_linear_62_72098)"/>
<path d="M603.692 520.922C601.848 520.922 599.993 520.824 598.126 520.629L172.061 475.848C153.557 473.904 137.988 462.592 130.421 445.593C122.851 428.594 124.863 409.456 135.802 394.401L387.615 47.8099C398.551 32.7571 416.124 24.9307 434.638 26.8747C453.144 28.8211 468.713 40.1299 476.28 57.1291L650.53 448.502C658.099 465.501 656.088 484.639 645.149 499.694C635.316 513.227 620.11 520.92 603.692 520.922ZM429.077 28.3531C413.225 28.3531 398.542 35.7811 389.047 48.8515L137.232 395.443C126.67 409.979 124.728 428.457 132.039 444.873C139.347 461.287 154.378 472.207 172.246 474.086L598.311 518.868C616.167 520.749 633.154 513.189 643.714 498.652C654.276 484.115 656.218 465.638 648.907 449.224L474.658 57.8491C467.35 41.4355 452.319 30.5131 434.451 28.6363C432.648 28.4467 430.855 28.3531 429.077 28.3531Z" fill="url(#paint17_linear_62_72098)"/>
<path d="M550.48 597.976C543.095 597.976 535.662 596.356 528.628 593.075L140.356 412.021C123.491 404.157 112.453 388.396 110.831 369.858C109.208 351.321 117.34 333.88 132.585 323.207L483.517 77.4806C498.765 66.8054 517.933 65.1326 534.796 72.995C551.66 80.8598 562.698 96.6206 564.318 115.158L601.657 541.938C603.28 560.476 595.149 577.917 579.904 588.589C571.021 594.81 560.8 597.976 550.48 597.976ZM512.946 69.8678C502.981 69.8678 493.115 72.923 484.535 78.9302L133.602 324.657C118.883 334.962 111.03 351.803 112.595 369.702C114.162 387.601 124.818 402.822 141.102 410.413L529.374 591.467C545.661 599.061 564.169 597.441 578.888 587.135C593.605 576.829 601.458 559.991 599.893 542.089L562.554 115.309C560.987 97.4102 550.331 82.1894 534.047 74.5958C527.255 71.4326 520.076 69.8678 512.946 69.8678Z" fill="url(#paint18_linear_62_72098)"/>
<path d="M474.858 653.449C461.769 653.449 449.133 648.418 439.329 638.95L131.157 341.35C117.772 328.424 112.466 309.927 116.968 291.869C121.47 273.814 134.838 259.973 152.723 254.844L564.539 136.757C582.431 131.628 601.098 136.284 614.483 149.211C627.868 162.137 633.172 180.634 628.672 198.689L525.03 614.374C520.528 632.429 507.16 646.272 489.273 651.401C484.487 652.776 479.644 653.449 474.858 653.449ZM578.949 136.488C574.329 136.488 569.654 137.136 565.029 138.464L153.213 256.549C135.942 261.5 123.035 274.865 118.689 292.299C114.34 309.732 119.462 327.593 132.388 340.076L440.56 637.676C453.484 650.158 471.515 654.653 488.783 649.7C506.056 644.749 518.963 631.383 523.31 613.949L626.951 198.264C631.3 180.831 626.179 162.97 613.252 150.49C603.789 141.348 591.585 136.488 578.949 136.488Z" fill="url(#paint19_linear_62_72098)"/>
<path d="M385.938 681.362C385.007 681.362 384.073 681.338 383.135 681.288C364.549 680.313 348.414 669.835 339.966 653.253L145.47 271.536C137.022 254.954 138.03 235.74 148.163 220.133C158.298 204.525 175.439 195.785 194.027 196.764L621.85 219.185C640.434 220.159 656.569 230.64 665.019 247.219C673.467 263.801 672.459 283.015 662.324 298.622L428.996 657.919C419.375 672.737 403.431 681.362 385.938 681.362ZM147.049 270.732L341.545 652.449C349.703 668.46 365.286 678.578 383.228 679.519C401.192 680.462 417.723 672.024 427.513 656.957L660.843 297.66C670.628 282.59 671.6 264.036 663.445 248.028C655.287 232.017 639.706 221.899 621.762 220.958L193.938 198.537C176.01 197.606 159.44 206.03 149.653 221.102C139.863 236.169 138.891 254.724 147.049 270.732Z" fill="url(#paint20_linear_62_72098)"/>
<path d="M292.476 678.806C285.96 678.806 279.379 677.548 273.041 674.987C255.785 668.015 243.938 652.852 241.351 634.425L181.728 210.182C179.138 191.755 186.345 173.913 201.009 162.458C215.673 151 234.727 148.324 251.983 155.294L649.197 315.779C666.451 322.749 678.297 337.912 680.887 356.339C683.479 374.767 676.27 392.608 661.606 404.066L324.014 667.823C314.738 675.071 303.701 678.806 292.476 678.806ZM183.485 209.937L243.108 634.18C245.609 651.974 257.047 666.614 273.706 673.346C290.371 680.078 308.765 677.491 322.925 666.429L660.516 402.674C674.674 391.612 681.634 374.385 679.133 356.591C676.634 338.798 665.193 324.158 648.535 317.428L251.321 156.943C234.662 150.213 216.264 152.798 202.104 163.859C187.942 174.919 180.981 192.146 183.485 209.937Z" fill="url(#paint21_linear_62_72098)"/>
<path d="M204.576 645.878C192.429 645.878 180.588 641.522 171.002 633.192C156.957 620.983 150.693 602.789 154.243 584.522L235.989 163.982C239.541 145.716 252.165 131.193 269.76 125.136C287.357 119.078 306.242 122.748 320.284 134.957L643.61 416.021C657.655 428.229 663.919 446.424 660.369 464.69C656.82 482.957 644.193 497.479 626.599 503.537L221.529 643.013C215.942 644.935 210.225 645.878 204.576 645.878ZM237.729 164.318L155.983 584.858C152.553 602.496 158.604 620.064 172.164 631.853C185.721 643.639 203.959 647.184 220.951 641.335L626.02 501.859C643.01 496.008 655.2 481.987 658.629 464.349C662.059 446.712 656.008 429.144 642.446 417.357L319.123 136.293C305.563 124.505 287.328 120.96 270.336 126.809C253.346 132.657 241.157 146.681 237.729 164.318Z" fill="url(#paint22_linear_62_72098)"/>
<path d="M561.119 586.182H132.707C114.097 586.182 97.4338 576.561 88.129 560.445C78.8242 544.329 78.8242 525.088 88.129 508.972L302.334 137.956C311.636 121.84 328.304 112.218 346.911 112.218C346.909 112.218 346.914 112.218 346.911 112.218C365.521 112.218 382.187 121.84 391.489 137.956L605.694 508.972C614.999 525.088 614.999 544.329 605.696 560.445C596.391 576.561 579.728 586.182 561.119 586.182ZM303.87 138.844L89.665 509.86C80.6818 525.421 80.6819 544 89.6675 559.561C98.6507 575.123 114.74 584.411 132.709 584.411H561.121C579.09 584.411 595.179 575.121 604.162 559.559C613.146 544 613.146 525.419 604.162 509.86L389.958 138.844C380.972 123.285 364.883 113.994 346.916 113.994C328.945 113.994 312.853 123.282 303.87 138.844Z" fill="url(#paint23_linear_62_72098)"/>
<rect x="-61.3018" y="-6.23096" width="805.029" height="695.343" fill="url(#paint24_linear_62_72098)"/>
<path d="M98.3848 279.8L101.822 290.581H101.959L105.416 279.8H108.658L103.775 293.94H100.006L95.1035 279.8H98.3848ZM113.189 279.8V293.94H110.26V279.8H113.189ZM123.248 283.843C123.131 282.729 122.232 282.065 120.807 282.065C119.322 282.065 118.502 282.749 118.482 283.687C118.463 284.702 119.537 285.171 120.748 285.444L122.018 285.757C124.439 286.304 126.256 287.534 126.256 289.897C126.256 292.495 124.225 294.136 120.787 294.136C117.369 294.136 115.182 292.554 115.104 289.526H117.955C118.053 290.952 119.186 291.675 120.748 291.675C122.291 291.675 123.287 290.952 123.287 289.897C123.287 288.94 122.408 288.491 120.865 288.101L119.322 287.729C116.939 287.144 115.475 285.952 115.475 283.882C115.475 281.304 117.74 279.604 120.826 279.604C123.951 279.604 126.021 281.343 126.061 283.843H123.248ZM131.1 279.8V293.94H128.17V279.8H131.1ZM146.432 286.87C146.432 291.479 143.561 294.136 139.83 294.136C136.061 294.136 133.209 291.46 133.209 286.87C133.209 282.261 136.061 279.604 139.83 279.604C143.561 279.604 146.432 282.261 146.432 286.87ZM143.443 286.87C143.443 283.843 142.018 282.202 139.83 282.202C137.643 282.202 136.197 283.843 136.197 286.87C136.197 289.897 137.643 291.538 139.83 291.538C142.018 291.538 143.443 289.897 143.443 286.87ZM160.338 279.8V293.94H157.799L151.588 284.956H151.471V293.94H148.541V279.8H151.119L157.291 288.784H157.428V279.8H160.338ZM164.361 294.116C163.443 294.116 162.701 293.374 162.721 292.476C162.701 291.577 163.443 290.854 164.361 290.854C165.221 290.854 165.982 291.577 165.982 292.476C165.982 293.374 165.221 294.116 164.361 294.116Z" fill="#1ED0E4"/>
<path d="M101.209 320.437C101.209 323.308 102.01 326.276 104.432 327.839L103.084 329.772C101.551 328.845 100.574 327.321 100.018 325.495C99.373 327.507 98.3086 329.187 96.6973 330.163L95.1738 328.327C97.8105 326.687 98.7871 323.562 98.7871 320.554V317.487H101.209V320.437ZM110.916 315.964V333.737H108.533V315.964H110.916ZM107.186 316.218V332.917H104.861V323.991H102.557V321.96H104.861V316.218H107.186ZM119.275 318.757C119.275 320.905 120.525 322.976 123.338 323.854L122.01 325.788C120.125 325.163 118.807 323.952 118.045 322.39C117.273 324.187 115.896 325.593 113.865 326.276L112.518 324.323C115.486 323.327 116.756 320.964 116.775 318.522V316.901H119.275V318.757ZM126.893 315.964V320.124H129.295V322.194H126.893V326.511H124.393V315.964H126.893ZM121.072 326.862C124.744 326.862 127.068 328.132 127.068 330.3C127.068 332.487 124.744 333.737 121.072 333.737C117.322 333.737 114.979 332.487 114.979 330.3C114.979 328.132 117.322 326.862 121.072 326.862ZM121.072 328.815C118.729 328.815 117.459 329.323 117.479 330.3C117.459 331.315 118.729 331.784 121.072 331.784C123.377 331.784 124.607 331.315 124.607 330.3C124.607 329.323 123.377 328.815 121.072 328.815ZM145.486 315.964V333.737H143.104V315.964H145.486ZM141.775 316.218V332.917H139.432V324.519H138.006C137.771 328.015 136.287 330.124 134.1 330.124C131.756 330.124 130.232 327.663 130.232 323.659C130.232 319.675 131.756 317.233 134.1 317.233C136.238 317.233 137.703 319.226 137.986 322.546H139.432V316.218H141.775ZM134.1 319.577C133.104 319.577 132.518 320.944 132.537 323.659C132.518 326.394 133.104 327.741 134.1 327.722C135.115 327.741 135.721 326.394 135.721 323.659C135.721 320.944 135.115 319.577 134.1 319.577ZM154.08 319.987C154.08 323.327 155.428 326.569 158.396 327.858L156.873 329.851C154.9 328.884 153.582 327.116 152.85 324.929C152.068 327.253 150.701 329.157 148.67 330.163L147.107 328.132C150.154 326.765 151.541 323.327 151.561 319.987V317.331H154.08V319.987ZM162.361 315.964V333.776H159.9V323.562H156.404V321.55H159.9V315.964H162.361ZM183.279 315.964V322.78H185.799V324.831H183.279V333.698H180.779V315.964H183.279ZM178.533 317.78C178.514 323.093 176.443 327.702 170.467 330.632L169.061 328.718C173.27 326.608 175.525 323.776 175.994 319.812H170.076V317.78H178.533ZM196.639 317.155V319.147H193.104C193.123 321.218 194.363 323.22 197.205 324.05L196.014 326.003C194.051 325.407 192.693 324.216 191.912 322.683C191.121 324.479 189.676 325.905 187.537 326.608L186.268 324.636C189.217 323.708 190.545 321.403 190.584 319.147H186.951V317.155H196.639ZM200.643 315.964V320.085H203.045V322.116H200.643V326.511H198.143V315.964H200.643ZM194.822 326.862C198.514 326.843 200.818 328.112 200.818 330.28C200.818 332.448 198.514 333.737 194.822 333.737C191.053 333.737 188.729 332.448 188.729 330.28C188.729 328.112 191.053 326.843 194.822 326.862ZM194.822 328.796C192.479 328.796 191.209 329.284 191.229 330.28C191.209 331.296 192.479 331.804 194.822 331.804C197.127 331.804 198.357 331.296 198.357 330.28C198.357 329.284 197.127 328.796 194.822 328.796ZM213.494 316.491C216.189 316.491 218.24 318.171 218.24 320.554C218.24 322.897 216.189 324.597 213.494 324.597C210.74 324.597 208.709 322.897 208.709 320.554C208.709 318.171 210.74 316.491 213.494 316.491ZM213.494 318.522C212.127 318.522 211.111 319.265 211.131 320.554C211.111 321.823 212.127 322.585 213.494 322.585C214.842 322.585 215.838 321.823 215.838 320.554C215.838 319.265 214.842 318.522 213.494 318.522ZM223.318 315.964V324.87H220.818V315.964H223.318ZM223.318 325.612V330.437H213.865V331.589H223.807V333.542H211.424V328.62H220.838V327.526H211.385V325.612H223.318ZM233.826 316.218C237.908 316.218 240.271 317.292 240.291 319.245C240.271 321.218 237.908 322.292 233.826 322.292C229.725 322.292 227.342 321.218 227.342 319.245C227.342 317.292 229.725 316.218 233.826 316.218ZM233.826 318.034C231.209 318.034 229.939 318.464 229.959 319.245C229.939 320.124 231.209 320.456 233.826 320.456C236.463 320.456 237.713 320.124 237.713 319.245C237.713 318.464 236.463 318.034 233.826 318.034ZM241.932 323.132V325.104H225.721V323.132H241.932ZM239.959 326.14V330.671H230.057V331.745H240.428V333.62H227.615V328.933H237.498V327.956H227.596V326.14H239.959ZM257.674 316.804V318.757H254.158C254.314 320.515 255.623 322.243 258.318 322.995L257.146 324.909C255.135 324.362 253.729 323.2 252.928 321.726C252.137 323.396 250.672 324.704 248.514 325.3L247.303 323.366C250.096 322.556 251.443 320.671 251.6 318.757H247.986V316.804H257.674ZM261.717 315.964V319.479H264.119V321.472H261.717V325.085H259.217V315.964H261.717ZM261.717 325.769V330.456H252.4V331.667H262.225V333.562H249.959V328.698H259.236V327.644H249.92V325.769H261.717ZM283.533 315.964V322.917H286.15V324.968H283.533V333.737H281.072V315.964H283.533ZM279.861 318.62V320.612H269.412V318.62H273.436V316.237H275.936V318.62H279.861ZM274.686 321.608C277.283 321.608 279.217 323.366 279.217 325.847C279.217 328.327 277.283 330.085 274.686 330.085C272.068 330.085 270.135 328.327 270.135 325.847C270.135 323.366 272.068 321.608 274.686 321.608ZM274.686 323.62C273.436 323.64 272.518 324.479 272.518 325.847C272.518 327.233 273.436 328.054 274.686 328.034C275.936 328.054 276.834 327.233 276.834 325.847C276.834 324.479 275.936 323.64 274.686 323.62ZM301.229 320.808V322.761H288.807V316.589H291.287V320.808H301.229ZM303.045 324.675V326.628H286.775V324.675H303.045ZM301.346 331.354V333.347H288.65V328.073H291.15V331.354H301.346ZM318.279 316.979V318.972H312.166V320.358H317.752V322.272H312.166V323.737C315.291 323.728 317.273 323.679 319.529 323.308L319.783 325.241C317.244 325.671 314.998 325.71 311.189 325.71H309.666V316.979H318.279ZM323.572 315.983V326.53H321.072V315.983H323.572ZM323.572 327.253V333.542H311.658V327.253H323.572ZM314.119 329.187V331.55H321.131V329.187H314.119Z" fill="black"/>
<path d="M105.436 363.531L114.552 374.245L116.131 372.39L108.597 363.531H105.436Z" fill="black"/>
<path d="M117.266 380.604L115.668 378.725L129.993 361.886H135.125L121.92 377.409L123.502 379.268L140.53 359.261H129.069L114.09 376.866L101.343 361.886H109.335L111.568 359.261H95.9495L115.687 382.46L117.266 380.604Z" fill="black"/>
<path d="M118.074 378.384L119.579 380.155V380.159L105.254 396.994H100.126L113.273 381.521L111.652 379.708L94.7133 399.619H106.182L121.157 382.014H121.161L133.908 396.994H131.922H111.899L109.666 399.619H139.302L119.652 376.524L118.074 378.384Z" fill="black"/>
<path d="M120.696 384.632L119.121 386.499L126.656 395.35H129.816L120.696 384.632Z" fill="black"/>
<path d="M238.056 360.744C237.667 360.228 237.047 359.847 236.204 359.608C235.361 359.369 234.218 359.246 232.774 359.246H209.252C207.808 359.246 206.642 359.365 205.749 359.608C204.855 359.851 204.159 360.228 203.662 360.744C203.162 361.298 202.803 361.991 202.588 362.823C202.565 362.919 202.542 363.027 202.519 363.127H226.664C227.18 363.127 227.515 363.231 227.658 363.431C227.804 363.635 227.85 363.997 227.796 364.513L226.333 378.765L226.11 380.936L224.732 394.364C224.678 394.884 224.559 395.242 224.37 395.446C224.181 395.65 223.831 395.75 223.311 395.75H211.219C210.699 395.75 210.368 395.646 210.226 395.446C210.08 395.242 210.033 394.884 210.087 394.364L211.566 380.936L211.804 378.765L213.156 366.503H202.226L200.871 378.765L200.632 380.936L199.296 393.032C199.173 394.218 199.135 395.234 199.177 396.085C199.219 396.936 199.435 397.621 199.828 398.137C200.22 398.653 200.836 399.034 201.679 399.272C202.522 399.511 203.666 399.634 205.11 399.634H228.632C230.075 399.634 231.242 399.515 232.135 399.272C233.028 399.03 233.725 398.653 234.222 398.137C234.718 397.617 235.076 396.936 235.292 396.085C235.507 395.234 235.677 394.218 235.8 393.032L237.044 380.936L237.267 378.765L238.595 365.845C238.718 364.663 238.757 363.654 238.711 362.823C238.664 361.991 238.453 361.298 238.064 360.744H238.056Z" fill="black"/>
<path d="M194.412 360.578C194.05 360.135 193.511 359.8 192.795 359.581C192.079 359.358 191.089 359.246 189.834 359.246H159.544L157.546 378.695L127.918 378.765L127.098 379.816L127.918 380.936H180.006C181.114 380.936 181.842 381.151 182.189 381.575C182.531 382.002 182.647 382.768 182.535 383.877L181.607 392.92C181.496 393.994 181.226 394.734 180.799 395.138C180.368 395.546 179.578 395.75 178.435 395.75L169.18 395.784L168.714 399.634H185.804C187.059 399.634 188.098 399.53 188.914 399.33C189.73 399.126 190.385 398.783 190.878 398.302C191.37 397.821 191.728 397.213 191.952 396.474C192.175 395.734 192.344 394.83 192.452 393.756L193.588 382.714C193.657 382.025 193.615 381.436 193.468 380.94C193.411 380.743 193.338 380.555 193.245 380.385C193.245 380.381 193.237 380.374 193.237 380.366C192.683 379.381 191.609 378.815 190.481 378.768C190.431 378.768 190.381 378.761 190.331 378.761H168.472L168.479 378.699L170.081 363.134H181.288C182.396 363.134 183.124 363.338 183.471 363.747C183.817 364.155 183.933 364.913 183.821 366.022L183.667 367.535L182.985 374.176C182.882 375.184 182.647 375.9 182.281 376.328H192.306C193.087 376.328 193.753 375.746 193.834 374.969C193.834 374.965 193.834 374.957 193.834 374.953L194.839 365.19C194.951 364.116 194.989 363.204 194.955 362.445C194.92 361.687 194.743 361.067 194.423 360.586L194.412 360.578Z" fill="black"/>
<path d="M155.393 399.635H166.227L166.881 394.195L168.013 383.188H157.083L155.393 399.635Z" fill="black"/>
<path d="M280.069 380.3C279.915 379.819 279.646 379.469 279.261 379.246C278.876 379.022 278.391 378.884 277.805 378.83C277.497 378.799 277.159 378.78 276.801 378.764C276.477 378.753 276.131 378.745 275.765 378.745H240.22V378.764L240 380.936H269.382L269.209 382.63L268.15 392.92C268.038 393.994 267.769 394.733 267.338 395.138C266.907 395.546 266.117 395.75 264.974 395.75H256.096C254.949 395.75 254.202 395.546 253.856 395.138C253.509 394.729 253.39 393.99 253.502 392.92L254.071 387.373H243.142L242.487 393.752C242.376 394.826 242.341 395.73 242.376 396.47C242.41 397.209 242.607 397.821 242.965 398.302C243.284 398.783 243.816 399.126 244.551 399.33C245.286 399.534 246.283 399.634 247.542 399.634H272.727C273.983 399.634 275.003 399.53 275.784 399.33C276.562 399.126 277.182 398.783 277.636 398.302C278.056 397.821 278.36 397.209 278.545 396.47C278.733 395.73 278.879 394.826 278.991 393.752L280.161 382.352C280.219 381.798 280.223 381.332 280.185 380.936C280.161 380.697 280.127 380.481 280.069 380.3Z" fill="black"/>
<path d="M281.513 360.578C281.151 360.135 280.604 359.8 279.869 359.581C279.13 359.358 278.133 359.246 276.878 359.246H251.692C250.433 359.246 249.413 359.358 248.636 359.577C247.854 359.8 247.257 360.132 246.842 360.574C246.383 361.055 246.064 361.675 245.875 362.434C245.687 363.192 245.537 364.108 245.429 365.179L244.405 375.161H255.334L256.304 365.733C256.42 364.624 256.686 363.912 257.105 363.596C257.525 363.281 258.31 363.123 259.457 363.123H268.389C269.498 363.123 270.233 363.281 270.587 363.596C270.941 363.912 271.064 364.624 270.949 365.733L270.356 371.504H281.286L281.936 365.179C282.048 364.105 282.086 363.192 282.052 362.434C282.017 361.675 281.84 361.055 281.521 360.574L281.513 360.578Z" fill="black"/>
<path d="M323.716 380.3C323.562 379.819 323.292 379.469 322.907 379.246C322.522 379.022 322.037 378.884 321.452 378.83C321.144 378.799 320.805 378.78 320.447 378.764C320.124 378.753 319.777 378.745 319.411 378.745H283.866V378.764L283.647 380.936H313.028L312.855 382.63L311.797 392.92C311.685 393.994 311.415 394.733 310.984 395.138C310.553 395.546 309.764 395.75 308.62 395.75H299.743C298.596 395.75 297.849 395.546 297.502 395.138C297.156 394.729 297.036 393.99 297.148 392.92L297.718 387.373H286.788L286.134 393.752C286.022 394.826 285.988 395.73 286.022 396.47C286.057 397.209 286.253 397.821 286.611 398.302C286.931 398.783 287.462 399.126 288.197 399.33C288.933 399.534 289.93 399.634 291.189 399.634H316.374C317.629 399.634 318.649 399.53 319.431 399.33C320.208 399.126 320.828 398.783 321.282 398.302C321.702 397.821 322.006 397.209 322.191 396.47C322.38 395.73 322.526 394.826 322.638 393.752L323.808 382.352C323.866 381.798 323.87 381.332 323.831 380.936C323.808 380.697 323.773 380.481 323.716 380.3Z" fill="black"/>
<path d="M325.689 362.438C325.654 361.679 325.477 361.059 325.157 360.578C324.796 360.135 324.249 359.801 323.514 359.581C322.778 359.358 321.781 359.25 320.526 359.25H295.341C294.082 359.25 293.062 359.362 292.284 359.581C291.503 359.804 290.906 360.135 290.49 360.578C290.032 361.059 289.712 361.679 289.524 362.438C289.335 363.196 289.185 364.112 289.077 365.183L288.053 375.165H298.983L299.953 365.737C300.068 364.628 300.334 363.916 300.754 363.6C301.173 363.285 301.959 363.127 303.106 363.127H312.037C313.146 363.127 313.881 363.285 314.236 363.6C314.594 363.916 314.713 364.628 314.597 365.737L314.005 371.508H324.934L325.585 365.183C325.696 364.108 325.735 363.196 325.7 362.438H325.689Z" fill="black"/>
</g>
<defs>
<linearGradient id="paint0_linear_62_72098" x1="371.004" y1="130.691" x2="371.004" y2="651.177" gradientUnits="userSpaceOnUse">
<stop stop-color="#1AD5E2"/>
<stop offset="1" stop-color="#647DFE"/>
</linearGradient>
<linearGradient id="paint1_linear_62_72098" x1="403.666" y1="199.425" x2="403.666" y2="680.638" gradientUnits="userSpaceOnUse">
<stop stop-color="#1AD5E2"/>
<stop offset="1" stop-color="#647DFE"/>
</linearGradient>
<linearGradient id="paint2_linear_62_72098" x1="430.146" y1="153.496" x2="430.146" y2="679.716" gradientUnits="userSpaceOnUse">
<stop stop-color="#1AD5E2"/>
<stop offset="1" stop-color="#647DFE"/>
</linearGradient>
<linearGradient id="paint3_linear_62_72098" x1="410.361" y1="123.343" x2="410.361" y2="648.324" gradientUnits="userSpaceOnUse">
<stop stop-color="#1AD5E2"/>
<stop offset="1" stop-color="#647DFE"/>
</linearGradient>
<linearGradient id="paint4_linear_62_72098" x1="350.148" y1="112.252" x2="350.148" y2="589.896" gradientUnits="userSpaceOnUse">
<stop stop-color="#1AD5E2"/>
<stop offset="1" stop-color="#647DFE"/>
</linearGradient>
<linearGradient id="paint5_linear_62_72098" x1="289.588" y1="121.246" x2="289.588" y2="643.356" gradientUnits="userSpaceOnUse">
<stop stop-color="#1AD5E2"/>
<stop offset="1" stop-color="#647DFE"/>
</linearGradient>
<linearGradient id="paint6_linear_62_72098" x1="261.377" y1="149.506" x2="261.377" y2="677.815" gradientUnits="userSpaceOnUse">
<stop stop-color="#1AD5E2"/>
<stop offset="1" stop-color="#647DFE"/>
</linearGradient>
<linearGradient id="paint7_linear_62_72098" x1="287.022" y1="193.991" x2="287.022" y2="682.001" gradientUnits="userSpaceOnUse">
<stop stop-color="#1AD5E2"/>
<stop offset="1" stop-color="#647DFE"/>
</linearGradient>
<linearGradient id="paint8_linear_62_72098" x1="319.19" y1="138.791" x2="319.19" y2="655.644" gradientUnits="userSpaceOnUse">
<stop stop-color="#1AD5E2"/>
<stop offset="1" stop-color="#647DFE"/>
</linearGradient>
<linearGradient id="paint9_linear_62_72098" x1="339.437" y1="71.0269" x2="339.437" y2="601.5" gradientUnits="userSpaceOnUse">
<stop stop-color="#1AD5E2"/>
<stop offset="1" stop-color="#647DFE"/>
</linearGradient>
<linearGradient id="paint10_linear_62_72098" x1="305.066" y1="28.0532" x2="305.066" y2="525.384" gradientUnits="userSpaceOnUse">
<stop stop-color="#1AD5E2"/>
<stop offset="1" stop-color="#647DFE"/>
</linearGradient>
<linearGradient id="paint11_linear_62_72098" x1="275.246" y1="14.3809" x2="275.246" y2="524.839" gradientUnits="userSpaceOnUse">
<stop stop-color="#1AD5E2"/>
<stop offset="1" stop-color="#647DFE"/>
</linearGradient>
<linearGradient id="paint12_linear_62_72098" x1="256.977" y1="31.5479" x2="256.977" y2="563.007" gradientUnits="userSpaceOnUse">
<stop stop-color="#1AD5E2"/>
<stop offset="1" stop-color="#647DFE"/>
</linearGradient>
<linearGradient id="paint13_linear_62_72098" x1="314.699" y1="77.8213" x2="314.699" y2="583.392" gradientUnits="userSpaceOnUse">
<stop stop-color="#1AD5E2"/>
<stop offset="1" stop-color="#647DFE"/>
</linearGradient>
<linearGradient id="paint14_linear_62_72098" x1="375.932" y1="80.9785" x2="375.932" y2="583.922" gradientUnits="userSpaceOnUse">
<stop stop-color="#1AD5E2"/>
<stop offset="1" stop-color="#647DFE"/>
</linearGradient>
<linearGradient id="paint15_linear_62_72098" x1="434.001" y1="33.2925" x2="434.001" y2="564.551" gradientUnits="userSpaceOnUse">
<stop stop-color="#1AD5E2"/>
<stop offset="1" stop-color="#647DFE"/>
</linearGradient>
<linearGradient id="paint16_linear_62_72098" x1="419.955" y1="14.5142" x2="419.955" y2="527.231" gradientUnits="userSpaceOnUse">
<stop stop-color="#1AD5E2"/>
<stop offset="1" stop-color="#647DFE"/>
</linearGradient>
<linearGradient id="paint17_linear_62_72098" x1="390.475" y1="26.582" x2="390.475" y2="520.922" gradientUnits="userSpaceOnUse">
<stop stop-color="#1AD5E2"/>
<stop offset="1" stop-color="#647DFE"/>
</linearGradient>
<linearGradient id="paint18_linear_62_72098" x1="356.244" y1="68.0947" x2="356.244" y2="597.976" gradientUnits="userSpaceOnUse">
<stop stop-color="#1AD5E2"/>
<stop offset="1" stop-color="#647DFE"/>
</linearGradient>
<linearGradient id="paint19_linear_62_72098" x1="372.82" y1="134.713" x2="372.82" y2="653.449" gradientUnits="userSpaceOnUse">
<stop stop-color="#1AD5E2"/>
<stop offset="1" stop-color="#647DFE"/>
</linearGradient>
<linearGradient id="paint20_linear_62_72098" x1="405.244" y1="196.689" x2="405.244" y2="681.362" gradientUnits="userSpaceOnUse">
<stop stop-color="#1AD5E2"/>
<stop offset="1" stop-color="#647DFE"/>
</linearGradient>
<linearGradient id="paint21_linear_62_72098" x1="431.308" y1="151.475" x2="431.308" y2="678.806" gradientUnits="userSpaceOnUse">
<stop stop-color="#1AD5E2"/>
<stop offset="1" stop-color="#647DFE"/>
</linearGradient>
<linearGradient id="paint22_linear_62_72098" x1="407.306" y1="122.27" x2="407.306" y2="645.878" gradientUnits="userSpaceOnUse">
<stop stop-color="#1AD5E2"/>
<stop offset="1" stop-color="#647DFE"/>
</linearGradient>
<linearGradient id="paint23_linear_62_72098" x1="346.912" y1="112.218" x2="346.912" y2="586.182" gradientUnits="userSpaceOnUse">
<stop stop-color="#1AD5E2"/>
<stop offset="1" stop-color="#647DFE"/>
</linearGradient>
<linearGradient id="paint24_linear_62_72098" x1="-43.0962" y1="341.44" x2="789.013" y2="341.44" gradientUnits="userSpaceOnUse">
<stop stop-color="white"/>
<stop offset="1" stop-color="white" stop-opacity="0"/>
</linearGradient>
<clipPath id="clip0_62_72098">
<rect width="681" height="681" fill="white" transform="translate(0.712891 0.94043)"/>
</clipPath>
</defs>
</svg>
